<svg xmlns="http://www.w3.org/2000/svg" width="167" height="113" viewBox="0 0 167 113" fill="none">
  <g filter="url(#filter0_d_3247_9496)">
    <path d="M1.47818 101.443L100.209 0.883382C100.842 0.238297 101.819 0.0760277 102.627 0.481859L102.709 0.522956C102.979 0.658657 103.209 0.862536 103.376 1.11442C103.779 1.72089 103.76 2.51397 103.33 3.10089L40.1119 89.3048C39.6171 89.9795 39.5404 90.874 39.9131 91.6231L40.0766 91.9515C40.4545 92.711 41.2298 93.1912 42.0782 93.1912H134.104L117.457 106.201H3.47539C2.47043 106.201 1.54156 105.659 1.04474 104.785C0.427447 103.7 0.603378 102.334 1.47818 101.443Z" fill="black"/>
    <path d="M46.8137 86.189L90.5149 25.8694C91.1294 25.0212 92.2424 24.7002 93.2143 25.0908L93.3436 25.1427C93.6882 25.2812 93.9827 25.5211 94.188 25.8305C94.5631 26.3959 94.5955 27.1221 94.2722 27.7186L69.8153 72.8441C69.5324 73.3661 69.5215 73.9931 69.786 74.5246C70.0941 75.1438 70.7261 75.5353 71.4177 75.5353H160L137.803 89.4741H48.4904C47.9396 89.4741 47.4115 89.2547 47.0229 88.8643C46.3065 88.1445 46.218 87.0114 46.8137 86.189Z" fill="black"/>
  </g>
  <defs>
    <filter id="filter0_d_3247_9496" x="0.679688" y="0.261719" width="165.72" height="112.338" filterUnits="userSpaceOnUse" color-interpolation-filters="sRGB">
      <feFlood flood-opacity="0" result="BackgroundImageFix"/>
      <feColorMatrix in="SourceAlpha" type="matrix" values="0 0 0 0 0 0 0 0 0 0 0 0 0 0 0 0 0 0 127 0" result="hardAlpha"/>
      <feOffset dx="3.2" dy="3.2"/>
      <feGaussianBlur stdDeviation="1.6"/>
      <feComposite in2="hardAlpha" operator="out"/>
      <feColorMatrix type="matrix" values="0 0 0 0 0 0 0 0 0 0 0 0 0 0 0 0 0 0 0.35 0"/>
      <feBlend mode="normal" in2="BackgroundImageFix" result="effect1_dropShadow_3247_9496"/>
      <feBlend mode="normal" in="SourceGraphic" in2="effect1_dropShadow_3247_9496" result="shape"/>
    </filter>
  </defs>
</svg>