<svg xmlns="http://www.w3.org/2000/svg" width="51" height="51" viewBox="0 0 51 51" fill="none">
  <path d="M19.1094 41.5977H31.1817V46.9915H19.1094V41.5977Z" fill="#678D98"/>
  <path d="M19.1094 41.5977H23.4151V46.9915H19.1094V41.5977Z" fill="#537983"/>
  <path d="M12.6484 49.0988V48.3532C12.6484 47.5433 13.343 46.8867 14.1997 46.8867H36.0914C36.9481 46.8867 37.6427 47.5433 37.6427 48.3532V49.0988C37.6427 49.6387 37.1797 50.0764 36.6085 50.0764H13.6826C13.1114 50.0764 12.6484 49.6387 12.6484 49.0988Z" fill="#7CA1B1"/>
  <path d="M16.9755 49.0988V48.3532C16.9755 47.5433 17.67 46.8867 18.5268 46.8867H14.1997C13.343 46.8867 12.6484 47.5433 12.6484 48.3532V49.0988C12.6484 49.6387 13.1114 50.0764 13.6826 50.0764H18.0097C17.4385 50.0764 16.9755 49.6387 16.9755 49.0988Z" fill="#678D98"/>
  <path d="M1.89844 37.8359V40.7164C1.89844 41.2564 2.36144 41.6941 2.93263 41.6941H47.3537C47.9249 41.6941 48.3879 41.2564 48.3879 40.7164V37.836H1.89844V37.8359Z" fill="#7CA1B1"/>
  <path d="M6.20971 40.7163V37.8359H1.89062V40.7163C1.89062 41.2563 2.35363 41.694 2.92481 41.694H7.24389C6.67271 41.694 6.20971 41.2562 6.20971 40.7163Z" fill="#678D98"/>
  <path d="M39.4991 24.037L41.3459 22.2911C41.4042 22.2361 41.4831 22.2052 41.5653 22.2052H48.3957V15.5892C48.3957 14.787 47.7078 14.1367 46.8592 14.1367H31.8732V17.1176C31.8732 17.2796 31.7343 17.4109 31.5629 17.4109H18.739C18.5676 17.4109 18.4288 17.2796 18.4288 17.1176V14.1367H3.44274C2.59419 14.1367 1.90625 14.7869 1.90625 15.5892V23.1709L2.83692 22.291C2.89514 22.236 2.97405 22.2051 3.05627 22.2051H10.5834C10.7548 22.2051 10.8937 22.3364 10.8937 22.4984V33.745C10.8937 33.907 10.7548 34.0383 10.5834 34.0383H1.90625V37.8349H48.3957V34.0383H39.7184C39.5471 34.0383 39.4082 33.907 39.4082 33.745V24.2442C39.4082 24.1666 39.4409 24.092 39.4991 24.037Z" fill="#DFF6FD"/>
  <path d="M2.82921 22.2911C2.88743 22.2361 2.96634 22.2052 3.04856 22.2052H6.21752V15.5892C6.21752 14.787 6.90546 14.1367 7.75401 14.1367H3.43493C2.58638 14.1367 1.89844 14.7869 1.89844 15.5892V23.1709L2.82921 22.2911Z" fill="#C8EFFE"/>
  <path d="M1.89844 34.043H6.21752V37.8396H1.89844V34.043Z" fill="#C8EFFE"/>
  <path d="M41.3362 22.2812L39.4893 24.0271C39.4311 24.0821 39.3984 24.1567 39.3984 24.2345V33.7352C39.3984 33.8972 39.5373 34.0285 39.7087 34.0285H49.0827C49.254 34.0285 49.3929 33.8972 49.3929 33.7352V22.4886C49.3929 22.3266 49.254 22.1953 49.0827 22.1953H41.5555C41.4732 22.1953 41.3943 22.2262 41.3362 22.2812Z" fill="#62DBFB"/>
  <path d="M42.7224 33.7352V24.2345C42.7224 24.1566 42.7551 24.082 42.8133 24.0271L44.6602 22.2812C44.7184 22.2262 44.7973 22.1953 44.8795 22.1953H41.5555C41.4732 22.1953 41.3943 22.2262 41.3362 22.2812L39.4893 24.0271C39.4311 24.0821 39.3984 24.1567 39.3984 24.2345V33.7352C39.3984 33.8972 39.5373 34.0285 39.7087 34.0285H43.0327C42.8613 34.0285 42.7224 33.8972 42.7224 33.7352Z" fill="#01D0FB"/>
  <path d="M2.82838 22.2812L0.98153 24.0271C0.923305 24.0821 0.890625 24.1567 0.890625 24.2345V33.7352C0.890625 33.8972 1.02952 34.0285 1.20088 34.0285H10.5749C10.7462 34.0285 10.8851 33.8972 10.8851 33.7352V22.4886C10.8851 22.3266 10.7462 22.1953 10.5749 22.1953H3.04773C2.96541 22.1953 2.8865 22.2262 2.82838 22.2812Z" fill="#6CF5C2"/>
  <path d="M4.14832 33.7352V24.2345C4.14832 24.1566 4.181 24.082 4.23922 24.0271L6.08608 22.2812C6.1443 22.2262 6.22321 22.1953 6.30543 22.1953H3.04773C2.96541 22.1953 2.8865 22.2262 2.82838 22.2812L0.98153 24.0271C0.923305 24.0821 0.890625 24.1567 0.890625 24.2345V33.7352C0.890625 33.8972 1.02952 34.0285 1.20088 34.0285H4.45857C4.28721 34.0285 4.14832 33.8972 4.14832 33.7352Z" fill="#05E39C"/>
  <path d="M22.2183 22.043H16.859C16.6305 22.043 16.4453 22.2181 16.4453 22.434V24.4922H23.5812L22.5997 22.2827C22.5352 22.1374 22.3849 22.043 22.2183 22.043Z" fill="#FED402"/>
  <path d="M19.9616 22.043H16.859C16.6305 22.043 16.4453 22.2181 16.4453 22.434V24.4921H19.5479V22.434C19.5479 22.2181 19.7331 22.043 19.9616 22.043Z" fill="#FAC600"/>
  <path d="M33.5094 34.7212H16.7556C16.5842 34.7212 16.4453 34.5899 16.4453 34.4279V24.4922H33.5094C33.6808 24.4922 33.8197 24.6235 33.8197 24.7855V34.428C33.8197 34.5899 33.6808 34.7212 33.5094 34.7212Z" fill="#FED402"/>
  <path d="M19.5479 34.4279V24.4922H16.4453V34.428C16.4453 34.59 16.5842 34.7213 16.7556 34.7213H19.8581C19.6868 34.7212 19.5479 34.5899 19.5479 34.4279Z" fill="#FAC600"/>
  <path d="M21.0676 1.57812L18.5205 3.98592C18.4624 4.04087 18.4297 4.11546 18.4297 4.19328V17.1168C18.4297 17.2788 18.5686 17.4101 18.7399 17.4101H31.5639C31.7352 17.4101 31.8741 17.2788 31.8741 17.1168V1.78548C31.8741 1.62348 31.7352 1.49219 31.5639 1.49219H21.287C21.2047 1.49219 21.1258 1.52308 21.0676 1.57812Z" fill="#FEE97D"/>
  <path d="M21.5323 17.1169V4.19338C21.5323 4.11556 21.5649 4.04096 21.6232 3.98592L24.1703 1.57812C24.2285 1.52308 24.3074 1.49219 24.3896 1.49219H21.287C21.2047 1.49219 21.1258 1.52308 21.0677 1.57812L18.5206 3.98592C18.4624 4.04096 18.4297 4.11556 18.4297 4.19338V17.1169C18.4297 17.2789 18.5686 17.4102 18.7399 17.4102H21.8425C21.6711 17.4102 21.5323 17.2789 21.5323 17.1169Z" fill="#FEDF30"/>
  <path d="M49.3962 26.9133C49.8246 26.9133 50.1718 26.585 50.1718 26.1801V22.5004C50.1718 21.9595 49.7268 21.5161 49.1648 21.4777V15.5911C49.1648 15.4028 49.1395 15.22 49.0919 15.0455C48.8349 14.1034 47.9284 13.4054 46.8528 13.4054H38.608V8.81357C38.608 8.40863 38.2608 8.08035 37.8324 8.08035C37.4039 8.08035 37.0567 8.40863 37.0567 8.81357V13.4054H32.6423V11.1246C32.6423 10.7197 32.2951 10.3914 31.8667 10.3914C31.4382 10.3914 31.091 10.7197 31.091 11.1246V16.6797H19.1979V4.37826L21.4723 2.22816H31.091V7.70288C31.091 8.10782 31.4382 8.43611 31.8667 8.43611C32.2951 8.43611 32.6423 8.10782 32.6423 7.70288V1.78823C32.6423 1.22218 32.1552 0.761719 31.5564 0.761719H21.2796C20.9895 0.761719 20.7169 0.868476 20.5117 1.06244L17.9647 3.47014C17.7596 3.66401 17.6466 3.92181 17.6466 4.19603V13.4054H13.4772V8.81357C13.4772 8.40863 13.13 8.08035 12.7016 8.08035C12.2732 8.08035 11.926 8.40863 11.926 8.81357V13.4054H3.43621C2.36055 13.4054 1.45408 14.1034 1.19709 15.0455C1.14951 15.22 1.12418 15.4028 1.12418 15.5911V22.8691L0.435511 23.5201C0.230224 23.714 0.117188 23.9719 0.117188 24.2462V33.7471C0.117188 34.2879 0.562302 34.7314 1.12418 34.7698V40.7174C1.12418 41.6607 1.93612 42.4283 2.93401 42.4283H18.3328V46.1602H14.1986C12.9155 46.1602 11.8717 47.1469 11.8717 48.3598V49.1055C11.8717 50.0488 12.6836 50.8163 13.6815 50.8163H36.6074C37.6053 50.8163 38.4172 50.0488 38.4172 49.1055V48.3598C38.4172 47.1469 37.3733 46.1602 36.0903 46.1602H31.9562V42.4283H47.3549C48.3528 42.4283 49.1647 41.6607 49.1647 40.7174V34.7699C49.7267 34.7315 50.1717 34.288 50.1717 33.7472V29.6018C50.1717 29.1968 49.8245 28.8686 49.396 28.8686C48.9676 28.8686 48.6204 29.1968 48.6204 29.6018V33.3072H40.1772V24.4285L41.7514 22.9403H48.6205V26.1801C48.6205 26.585 48.9677 26.9133 49.3962 26.9133ZM25.1444 32.219C25.3429 32.219 25.5415 32.1474 25.693 32.0042L27.5219 30.2753C27.8248 29.9889 27.8248 29.5246 27.5219 29.2384C27.2189 28.952 26.7279 28.952 26.425 29.2384L25.9202 29.7156V25.2249H33.0561V33.9875H17.233V25.2249H24.3689V29.7157L23.8641 29.2385C23.5612 28.9521 23.0701 28.9521 22.7673 29.2385C22.4643 29.5248 22.4643 29.9891 22.7673 30.2754L24.5962 32.0043C24.7474 32.1474 24.946 32.219 25.1444 32.219ZM17.2329 23.7585V22.7757H21.9896L22.4262 23.7585H17.2329ZM1.66837 24.4285L3.24261 22.9403H10.1116V33.3072H1.66837V24.4285ZM36.0903 47.6266C36.518 47.6266 36.8659 47.9555 36.8659 48.3598V49.1055C36.8659 49.2402 36.75 49.3499 36.6074 49.3499H13.6815C13.539 49.3499 13.4229 49.2402 13.4229 49.1055V48.3598C13.4229 47.9555 13.7709 47.6266 14.1986 47.6266H25.3513C25.7797 47.6266 26.1269 47.2983 26.1269 46.8934C26.1269 46.4885 25.7797 46.1602 25.3513 46.1602H19.8839V42.4283H30.4049V46.1602H28.9709C28.5425 46.1602 28.1953 46.4885 28.1953 46.8934C28.1953 47.2983 28.5425 47.6266 28.9709 47.6266H36.0903ZM47.6135 40.7174C47.6135 40.8521 47.4976 40.9618 47.355 40.9618H2.9339C2.79139 40.9618 2.67536 40.8521 2.67536 40.7174V38.5702H47.6134V40.7174H47.6135ZM47.6135 21.4739H41.5588C41.2687 21.4739 40.9961 21.5806 40.7909 21.7746L38.9444 23.5201C38.7392 23.714 38.6261 23.9719 38.6261 24.2462V33.7471C38.6261 34.3132 39.1132 34.7736 39.712 34.7736H47.6135V37.1037H2.67536V34.7736H10.577C11.1758 34.7736 11.6629 34.3132 11.6629 33.7471V22.5004C11.6629 21.9343 11.1758 21.4739 10.577 21.4739H3.04984C2.91984 21.4739 2.79387 21.4964 2.67536 21.5375V15.5911C2.67536 15.1946 3.01664 14.8719 3.4361 14.8719H11.9259V18.1082L11.4211 17.631C11.1182 17.3447 10.627 17.3447 10.3242 17.631C10.0213 17.9173 10.0213 18.3816 10.3242 18.6679L12.1532 20.3968C12.3046 20.5399 12.5031 20.6116 12.7016 20.6116C12.9001 20.6116 13.0986 20.54 13.25 20.3968L15.079 18.6679C15.3819 18.3815 15.3819 17.9172 15.079 17.631C14.7761 17.3447 14.2849 17.3447 13.9821 17.631L13.4773 18.1082V14.8719H17.6466V17.1196C17.6466 17.6856 18.1337 18.1461 18.7325 18.1461H24.3688V23.7585H24.1087L23.3267 21.9983C23.1408 21.5797 22.7105 21.3093 22.2302 21.3093H16.8709C16.2152 21.3093 15.6816 21.8137 15.6816 22.4336V34.4275C15.6816 34.9936 16.1687 35.4541 16.7675 35.4541H33.5214C34.1202 35.4541 34.6073 34.9936 34.6073 34.4275V24.785C34.6073 24.2189 34.1202 23.7585 33.5214 23.7585H25.9201V18.1461H31.5564C32.1552 18.1461 32.6423 17.6856 32.6423 17.1196V14.8719H37.0567V18.1081L36.5519 17.6309C36.2489 17.3446 35.7579 17.3446 35.455 17.6309C35.1521 17.9172 35.1521 18.3815 35.455 18.6678L37.2839 20.3967C37.4355 20.5398 37.634 20.6115 37.8325 20.6115C38.0309 20.6115 38.2295 20.5399 38.381 20.3967L40.21 18.6678C40.5129 18.3814 40.5129 17.9172 40.21 17.6309C39.907 17.3446 39.4159 17.3446 39.113 17.6309L38.6082 18.1081V14.8719H46.853C47.2725 14.8719 47.6137 15.1946 47.6137 15.5911V21.4739H47.6135Z" fill="black"/>
  <path d="M46.4919 24.2109H42.3069C41.8784 24.2109 41.5312 24.5392 41.5312 24.9442C41.5312 25.3491 41.8784 25.6774 42.3069 25.6774H46.4919C46.9204 25.6774 47.2676 25.3491 47.2676 24.9442C47.2676 24.5392 46.9204 24.2109 46.4919 24.2109Z" fill="black"/>
  <path d="M46.4919 26.3203H42.3069C41.8784 26.3203 41.5312 26.6486 41.5312 27.0535C41.5312 27.4585 41.8784 27.7868 42.3069 27.7868H46.4919C46.9204 27.7868 47.2676 27.4585 47.2676 27.0535C47.2676 26.6486 46.9204 26.3203 46.4919 26.3203Z" fill="black"/>
  <path d="M47.2676 29.1824C47.2676 28.7775 46.9204 28.4492 46.4919 28.4492H42.3069C41.8784 28.4492 41.5312 28.7775 41.5312 29.1824C41.5312 29.5874 41.8784 29.9157 42.3069 29.9157H46.4919C46.9204 29.9157 47.2676 29.5874 47.2676 29.1824Z" fill="black"/>
  <path d="M42.3069 30.5703C41.8784 30.5703 41.5312 30.8986 41.5312 31.3035C41.5312 31.7085 41.8784 32.0368 42.3069 32.0368H44.183C44.6115 32.0368 44.9587 31.7085 44.9587 31.3035C44.9587 30.8986 44.6115 30.5703 44.183 30.5703H42.3069Z" fill="black"/>
  <path d="M7.98413 24.2109H3.79908C3.37072 24.2109 3.02344 24.5392 3.02344 24.9442C3.02344 25.3491 3.37072 25.6774 3.79908 25.6774H7.98403C8.41239 25.6774 8.75967 25.3491 8.75967 24.9442C8.75967 24.5392 8.41249 24.2109 7.98413 24.2109Z" fill="black"/>
  <path d="M7.98413 26.3203H3.79908C3.37072 26.3203 3.02344 26.6486 3.02344 27.0535C3.02344 27.4585 3.37072 27.7868 3.79908 27.7868H7.98403C8.41239 27.7868 8.75967 27.4585 8.75967 27.0535C8.75967 26.6486 8.41249 26.3203 7.98413 26.3203Z" fill="black"/>
  <path d="M7.98413 28.4492H3.79908C3.37072 28.4492 3.02344 28.7775 3.02344 29.1824C3.02344 29.5874 3.37072 29.9157 3.79908 29.9157H7.98403C8.41239 29.9157 8.75967 29.5874 8.75967 29.1824C8.75967 28.7775 8.41249 28.4492 7.98413 28.4492Z" fill="black"/>
  <path d="M5.6751 30.5703H3.79908C3.37072 30.5703 3.02344 30.8986 3.02344 31.3035C3.02344 31.7085 3.37072 32.0368 3.79908 32.0368H5.6751C6.10346 32.0368 6.45074 31.7085 6.45074 31.3035C6.45074 30.8986 6.10346 30.5703 5.6751 30.5703Z" fill="black"/>
  <path d="M29.073 7.25771H28.8661V3.79182C28.8661 3.38688 28.519 3.05859 28.0905 3.05859C27.662 3.05859 27.3149 3.38688 27.3149 3.79182V7.25771H26.9012V5.05159C26.9012 4.64665 26.554 4.31837 26.1255 4.31837C25.6971 4.31837 25.3499 4.64665 25.3499 5.05159V7.25771H24.9362V4.29569C24.9362 3.89075 24.5889 3.56246 24.1606 3.56246C23.7322 3.56246 23.3849 3.89075 23.3849 4.29569V7.25771H22.9713V5.80739C22.9713 5.40246 22.624 5.07417 22.1956 5.07417C21.7673 5.07417 21.42 5.40246 21.42 5.80739V7.25771H21.2131C20.7848 7.25771 20.4375 7.58599 20.4375 7.99093C20.4375 8.39586 20.7848 8.72415 21.2131 8.72415H29.073C29.5014 8.72415 29.8486 8.39586 29.8486 7.99093C29.8486 7.58599 29.5014 7.25771 29.073 7.25771Z" fill="black"/>
  <path d="M21.6403 9.70312H21.2131C20.7848 9.70312 20.4375 10.0314 20.4375 10.4363C20.4375 10.8413 20.7848 11.1696 21.2131 11.1696H21.6403C22.0686 11.1696 22.4159 10.8413 22.4159 10.4363C22.4159 10.0314 22.0686 9.70312 21.6403 9.70312Z" fill="black"/>
  <path d="M21.6403 11.8125H21.2131C20.7848 11.8125 20.4375 12.1408 20.4375 12.5457C20.4375 12.9507 20.7848 13.2789 21.2131 13.2789H21.6403C22.0686 13.2789 22.4159 12.9507 22.4159 12.5457C22.4159 12.1408 22.0686 11.8125 21.6403 11.8125Z" fill="black"/>
  <path d="M21.6403 13.9141H21.2131C20.7848 13.9141 20.4375 14.2424 20.4375 14.6473C20.4375 15.0522 20.7848 15.3805 21.2131 15.3805H21.6403C22.0686 15.3805 22.4159 15.0522 22.4159 14.6473C22.4159 14.2424 22.0686 13.9141 21.6403 13.9141Z" fill="black"/>
  <path d="M29.0788 9.70312H23.5256C23.0973 9.70312 22.75 10.0314 22.75 10.4363C22.75 10.8413 23.0973 11.1696 23.5256 11.1696H29.0788C29.5073 11.1696 29.8545 10.8413 29.8545 10.4363C29.8545 10.0314 29.5073 9.70312 29.0788 9.70312Z" fill="black"/>
  <path d="M29.0788 11.8125H23.5256C23.0973 11.8125 22.75 12.1408 22.75 12.5457C22.75 12.9507 23.0973 13.2789 23.5256 13.2789H29.0788C29.5073 13.2789 29.8545 12.9507 29.8545 12.5457C29.8545 12.1408 29.5073 11.8125 29.0788 11.8125Z" fill="black"/>
  <path d="M29.0788 13.9141H23.5256C23.0973 13.9141 22.75 14.2424 22.75 14.6473C22.75 15.0522 23.0973 15.3805 23.5256 15.3805H29.0788C29.5073 15.3805 29.8545 15.0522 29.8545 14.6473C29.8545 14.2424 29.5073 13.9141 29.0788 13.9141Z" fill="black"/>
</svg>