<svg xmlns="http://www.w3.org/2000/svg" width="50" height="51" viewBox="0 0 50 51" fill="none">
  <g clip-path="url(#clip0_3224_29033)">
    <path d="M19.0316 50.0477C27.6872 50.0477 34.7039 43.0309 34.7039 34.3754C34.7039 25.7198 27.6872 18.7031 19.0316 18.7031C10.3761 18.7031 3.35938 25.7198 3.35938 34.3754C3.35938 43.0309 10.3761 50.0477 19.0316 50.0477Z" fill="#E2DFE2"/>
    <path d="M28.4643 21.8594C30.4451 24.4837 31.6203 27.7504 31.6203 31.2918C31.6203 39.9474 24.6036 46.9641 15.948 46.9641C12.4066 46.9641 9.14004 45.789 6.51562 43.808C9.37617 47.5979 13.9177 50.0479 19.0318 50.0479C27.6874 50.0479 34.7041 43.0312 34.7041 34.3756C34.7042 29.2614 32.2542 24.7199 28.4643 21.8594Z" fill="#D3CED5"/>
    <path d="M19.0349 43.0346C23.8176 43.0346 27.6947 39.1574 27.6947 34.3747C27.6947 29.592 23.8176 25.7148 19.0349 25.7148C14.2522 25.7148 10.375 29.592 10.375 34.3747C10.375 39.1574 14.2522 43.0346 19.0349 43.0346Z" fill="#407093"/>
    <path d="M23.7696 27.125C24.6626 28.4871 25.1824 30.1159 25.1824 31.8663C25.1824 36.649 21.3053 40.5262 16.5226 40.5262C14.7722 40.5262 13.1435 40.0063 11.7812 39.1134C13.3282 41.473 15.996 43.0319 19.0283 43.0319C23.811 43.0319 27.6882 39.1548 27.6882 34.3721C27.6882 31.3397 26.1293 28.6719 23.7696 27.125Z" fill="#365E7D"/>
    <path d="M19.0316 38.6102C21.3704 38.6102 23.2664 36.7142 23.2664 34.3754C23.2664 32.0366 21.3704 30.1406 19.0316 30.1406C16.6928 30.1406 14.7969 32.0366 14.7969 34.3754C14.7969 36.7142 16.6928 38.6102 19.0316 38.6102Z" fill="#90D8F9"/>
    <path d="M20.5038 30.4023C20.673 30.8599 20.7656 31.3544 20.7656 31.8707C20.7656 34.2095 18.8696 36.1055 16.5309 36.1055C16.0146 36.1055 15.5199 36.0128 15.0625 35.8437C15.6596 37.4586 17.213 38.6101 19.0354 38.6101C21.3742 38.6101 23.2702 36.7141 23.2702 34.3753C23.2702 32.5527 22.1188 30.9994 20.5038 30.4023Z" fill="#6BBEF6"/>
    <path d="M44.5454 18.6831L25.25 12.3727V10.2773H44.5454V18.6831Z" fill="#F6F1F1"/>
    <path d="M38.9375 16.85L44.5425 18.6831V10.2773H38.9375V16.85Z" fill="#E2DFE2"/>
    <path d="M23.2157 5.5H14.8474C13.4831 5.5 12.1848 6.0874 11.2842 7.11211L5.89229 13.247C4.25977 15.1045 3.35938 17.4928 3.35938 19.9658V22.4061C3.35938 23.0019 3.84229 23.4848 4.43809 23.4848H33.625C34.2208 23.4848 34.7037 23.0019 34.7037 22.4061V19.9658C34.7037 17.4929 33.8033 15.1045 32.1708 13.247L26.7789 7.11211C25.8782 6.0874 24.58 5.5 23.2157 5.5Z" fill="#F6F1F1"/>
    <path d="M32.1718 13.247L26.7799 7.11211C25.8792 6.0874 24.581 5.5 23.2167 5.5H18.5938C20.0746 5.5 21.4837 6.1376 22.4613 7.2498L28.3138 13.9086C30.0857 15.9247 31.0631 18.5171 31.0631 21.2013V23.4847H33.6262C34.222 23.4847 34.7049 23.0018 34.7049 22.406V19.9657C34.7047 17.4929 33.8043 15.1045 32.1718 13.247Z" fill="#E2DFE2"/>
    <path d="M45.9652 27.6813H42.3164C41.9389 27.6813 41.6328 27.3753 41.6328 26.9978V2.15234C41.6328 1.7748 41.9389 1.46875 42.3164 1.46875H45.9652C46.3428 1.46875 46.6488 1.7748 46.6488 2.15234V26.9978C46.6488 27.3753 46.3428 27.6813 45.9652 27.6813Z" fill="#F6F1F1"/>
    <path d="M45.9652 1.46875H44.4594V24.8083C44.4594 25.1858 44.1533 25.4919 43.7758 25.4919H41.6328V26.9978C41.6328 27.3753 41.9389 27.6813 42.3164 27.6813H45.9652C46.3428 27.6813 46.6488 27.3753 46.6488 26.9978V2.15234C46.6488 1.77471 46.3428 1.46875 45.9652 1.46875Z" fill="#E2DFE2"/>
    <path d="M8.70215 19.959C9.4912 19.959 10.1309 19.3193 10.1309 18.5303C10.1309 17.7412 9.4912 17.1016 8.70215 17.1016C7.91309 17.1016 7.27344 17.7412 7.27344 18.5303C7.27344 19.3193 7.91309 19.959 8.70215 19.959Z" fill="#86F1A7"/>
    <path d="M13.6318 19.959C14.4209 19.959 15.0605 19.3193 15.0605 18.5303C15.0605 17.7412 14.4209 17.1016 13.6318 17.1016C12.8428 17.1016 12.2031 17.7412 12.2031 18.5303C12.2031 19.3193 12.8428 19.959 13.6318 19.959Z" fill="#F6E266"/>
    <path d="M9.04912 17.1445C9.07637 17.2548 9.09248 17.3693 9.09248 17.488C9.09248 18.2771 8.45283 18.9167 7.66377 18.9167C7.54512 18.9167 7.43047 18.9007 7.32031 18.8733C7.47432 19.4961 8.03525 19.9585 8.70566 19.9585C9.49473 19.9585 10.1344 19.3188 10.1344 18.5298C10.1343 17.8595 9.67188 17.2985 9.04912 17.1445Z" fill="#78D0B1"/>
    <path d="M13.971 17.1445C13.9982 17.2548 14.0144 17.3693 14.0144 17.488C14.0144 18.2771 13.3747 18.9167 12.5856 18.9167C12.467 18.9167 12.3523 18.9007 12.2422 18.8733C12.3962 19.4961 12.9571 19.9585 13.6275 19.9585C14.4166 19.9585 15.0563 19.3188 15.0563 18.5298C15.0562 17.8595 14.5937 17.2985 13.971 17.1445Z" fill="#F1D333"/>
    <path d="M19.0354 25.0039C13.868 25.0039 9.66406 29.2079 9.66406 34.3753C9.66406 39.5427 13.8681 43.7468 19.0354 43.7468C24.2028 43.7468 28.4069 39.5428 28.4069 34.3753C28.4069 29.2078 24.2028 25.0039 19.0354 25.0039ZM19.0354 42.3236C14.6527 42.3236 11.0872 38.758 11.0872 34.3753C11.0872 29.9926 14.6527 26.427 19.0354 26.427C23.4182 26.427 26.9838 29.9926 26.9838 34.3753C26.9838 38.758 23.4182 42.3236 19.0354 42.3236Z" fill="black"/>
    <path d="M19.0322 29.4258C16.3048 29.4258 14.0859 31.6447 14.0859 34.3721C14.0859 37.0995 16.3049 39.3185 19.0322 39.3185C21.7596 39.3185 23.9786 37.0995 23.9786 34.3721C23.9786 31.6447 21.7597 29.4258 19.0322 29.4258ZM19.0322 37.8953C17.0896 37.8953 15.5091 36.3147 15.5091 34.3721C15.5091 32.4294 17.0896 30.8489 19.0322 30.8489C20.9749 30.8489 22.5555 32.4294 22.5555 34.3721C22.5554 36.3148 20.9749 37.8953 19.0322 37.8953Z" fill="black"/>
    <path d="M19.0328 35.2023C19.491 35.2023 19.8625 34.8309 19.8625 34.3727C19.8625 33.9144 19.491 33.543 19.0328 33.543C18.5746 33.543 18.2031 33.9144 18.2031 34.3727C18.2031 34.8309 18.5746 35.2023 19.0328 35.2023Z" fill="black"/>
    <path d="M46.6473 19.1303C47.0402 19.1303 47.3588 18.8117 47.3588 18.4187V2.1335C47.3588 1.375 46.7416 0.757812 45.9831 0.757812H42.2954C41.5368 0.757812 40.9196 1.375 40.9196 2.1335V9.5666H29.8826L27.3141 6.64414C26.2785 5.46592 24.785 4.79014 23.2164 4.79014H14.848C13.2794 4.79014 11.7859 5.46592 10.7504 6.64414L5.3585 12.779C3.61084 14.7674 2.64844 17.3204 2.64844 19.9676V22.4078C2.64844 23.395 3.45156 24.1981 4.43877 24.1981H6.19121C3.89736 27.0856 2.64844 30.6463 2.64844 34.3741C2.64844 43.4082 9.99814 50.7579 19.0322 50.7579C21.2226 50.7579 23.3494 50.3326 25.3536 49.4938C25.7162 49.342 25.887 48.9251 25.7353 48.5626C25.5835 48.2 25.1664 48.0291 24.8041 48.181C22.9749 48.9466 21.0329 49.3348 19.0322 49.3348C14.4982 49.3348 10.4293 47.307 7.6835 44.1112V39.1699C7.6835 38.777 7.36494 38.4583 6.97188 38.4583C6.57891 38.4583 6.26025 38.7769 6.26025 39.1699V42.1576C4.87236 39.8886 4.07148 37.2232 4.07148 34.3742C4.07148 31.5886 4.83506 28.9052 6.26025 26.5772V35.9264C6.26025 36.3193 6.57881 36.638 6.97188 36.638C7.36484 36.638 7.6835 36.3194 7.6835 35.9264V24.6259C7.80811 24.4811 7.93613 24.3387 8.0668 24.198H29.9978C30.1031 24.3115 30.2068 24.4262 30.3083 24.5424V44.2039C29.4844 45.1493 28.5369 45.999 27.4773 46.7249C27.1531 46.9471 27.0704 47.3898 27.2926 47.7142C27.516 48.0407 27.9616 48.1193 28.2818 47.8989C32.7491 44.8382 35.4162 39.7821 35.4162 34.3739C35.4162 30.6471 34.1669 27.0856 31.8731 24.198H33.6259C34.6131 24.198 35.4162 23.3948 35.4162 22.4076V19.9674C35.4162 18.6816 35.1886 17.4184 34.7548 16.231L40.9198 18.2472V27.0177C40.9198 27.7763 41.537 28.3934 42.2955 28.3934H45.9832C46.7418 28.3934 47.3589 27.7762 47.3589 27.0177V21.6895C47.3589 21.2965 47.0403 20.9778 46.6474 20.9778C46.2544 20.9778 45.9357 21.2964 45.9357 21.6895V26.9705H42.3429V2.18096H45.9357V18.4188C45.9356 18.8117 46.2543 19.1303 46.6473 19.1303ZM31.7313 42.2797V26.4608C33.2027 28.8158 33.9929 31.5425 33.9929 34.3739C33.9929 37.2102 33.1882 39.9397 31.7313 42.2797ZM33.9929 22.4077C33.9929 22.6102 33.8282 22.7748 33.6258 22.7748H4.43867C4.23623 22.7748 4.07158 22.6102 4.07158 22.4077V19.9675C4.07158 17.6662 4.9082 15.447 6.42744 13.7184L11.8193 7.5835C12.5848 6.7127 13.6887 6.21318 14.848 6.21318H23.2164C24.3758 6.21318 25.4797 6.7127 26.2451 7.5835L31.637 13.7184C33.1562 15.4469 33.9929 17.6662 33.9929 19.9675V22.4077ZM33.9206 14.4611C33.3262 13.364 31.9549 11.9453 31.1335 10.9898H40.9196V16.7501L33.9206 14.4611Z" fill="black"/>
    <path d="M8.70283 16.3906C7.52266 16.3906 6.5625 17.3508 6.5625 18.5309C6.5625 19.7109 7.52266 20.6711 8.70283 20.6711C9.88291 20.6711 10.8431 19.7109 10.8431 18.5309C10.8431 17.3508 9.88291 16.3906 8.70283 16.3906ZM8.70283 19.2479C8.30742 19.2479 7.98574 18.9263 7.98574 18.5309C7.98574 18.1354 8.30742 17.8138 8.70283 17.8138C9.09824 17.8138 9.41992 18.1354 9.41992 18.5309C9.41992 18.9263 9.09814 19.2479 8.70283 19.2479Z" fill="black"/>
    <path d="M13.6324 16.3906C12.4523 16.3906 11.4922 17.3508 11.4922 18.5309C11.4922 19.7109 12.4523 20.6711 13.6324 20.6711C14.8125 20.6711 15.7727 19.7109 15.7727 18.5309C15.7727 17.3508 14.8126 16.3906 13.6324 16.3906ZM13.6324 19.2479C13.237 19.2479 12.9153 18.9263 12.9153 18.5309C12.9153 18.1354 13.237 17.8138 13.6324 17.8138C14.0278 17.8138 14.3495 18.1354 14.3495 18.5309C14.3495 18.9263 14.0278 19.2479 13.6324 19.2479Z" fill="black"/>
  </g>
  <defs>
    <clipPath id="clip0_3224_29033">
      <rect width="50" height="50" fill="white" transform="translate(0 0.757812)"/>
    </clipPath>
  </defs>
</svg>