<svg xmlns="http://www.w3.org/2000/svg" width="50" height="51" viewBox="0 0 50 51" fill="none">
  <g clip-path="url(#clip0_3224_29004)">
    <path d="M49.2705 32.624V22.8189L46.5957 13.259C44.62 11.0048 41.7187 9.58203 38.485 9.58203H18.4087C12.8579 17.5645 11.5633 27.7896 17.5129 37.5265H44.368C47.0752 37.5266 49.2705 35.3312 49.2705 32.624Z" fill="#FFE177"/>
    <path d="M18.4077 9.58203H5.63691C2.92969 9.58203 0.734375 11.7773 0.734375 14.4846V32.6239C0.734375 35.3312 2.92969 37.5265 5.63691 37.5265H17.5119C15.1176 28.7048 15.418 18.224 18.4077 9.58203Z" fill="#FFD15B"/>
    <path d="M36.7661 15.0228V21.0528C36.7661 22.0274 35.9758 22.8178 35.0012 22.8178H28.6769C26.5557 19.604 26.7453 16.4198 28.6769 13.2578H35.0012C35.9758 13.2578 36.7661 14.0481 36.7661 15.0228Z" fill="#62DBFB"/>
    <path d="M20.5923 13.2578H17.3258C15.3116 16.2395 14.7638 19.4545 15.971 22.8178H20.5923C22.4515 19.8449 22.3284 16.644 20.5923 13.2578Z" fill="#62DBFB"/>
    <path d="M20.5859 13.2578H28.6751V22.8178H20.5859V13.2578Z" fill="#01D0FB"/>
    <path d="M12.5033 13.2578C14.7912 16.4444 14.7912 19.6312 12.5033 22.8178H6.179C5.20439 22.8178 4.41406 22.0274 4.41406 21.0528V15.0228C4.41406 14.0481 5.20439 13.2578 6.179 13.2578H12.5033Z" fill="#01B9FB"/>
    <path d="M12.5 13.2578V22.8178H15.9678C16.1154 19.4544 16.5847 16.2393 17.3227 13.2578H12.5Z" fill="#01D0FB"/>
    <path d="M49.2699 20.3665V22.8178H42.2103C41.2356 22.8178 40.4453 22.0274 40.4453 21.0528V15.0228C40.4453 14.0481 41.2356 13.2578 42.2103 13.2578H46.5951C48.2609 15.1552 49.2699 17.6427 49.2699 20.3665Z" fill="#62DBFB"/>
    <path d="M32.6872 33.2975C34.2533 33.2975 35.5229 32.2865 35.5229 31.0394C35.5229 29.7922 34.2533 28.7812 32.6872 28.7812C31.1211 28.7812 29.8516 29.7922 29.8516 31.0394C29.8516 32.2865 31.1211 33.2975 32.6872 33.2975Z" fill="white"/>
    <path d="M17.32 33.2975C18.8861 33.2975 20.1557 32.2865 20.1557 31.0394C20.1557 29.7922 18.8861 28.7812 17.32 28.7812C15.7539 28.7812 14.4844 29.7922 14.4844 31.0394C14.4844 32.2865 15.7539 33.2975 17.32 33.2975Z" fill="white"/>
    <path d="M14.7063 37.5273C14.7063 35.6066 13.4782 33.9731 11.7648 33.3672C6.42109 33.8014 6.29853 41.1798 11.7648 41.6875C13.4782 41.0816 14.7063 39.4481 14.7063 37.5273Z" fill="#DEDEF9"/>
    <path d="M8.82441 37.5256C8.82441 35.6049 10.0525 33.9714 11.7659 33.3654C11.3058 33.2027 10.811 33.1133 10.2951 33.1133C7.85859 33.1133 5.88281 35.089 5.88281 37.5256C5.88281 39.9621 7.8585 41.9379 10.2951 41.9379C10.8109 41.9379 11.3058 41.8485 11.7659 41.6857C10.0525 41.0799 8.82441 39.4464 8.82441 37.5256Z" fill="#D2D2FF"/>
    <path d="M44.1204 37.5273C44.1204 35.6066 42.8923 33.9731 41.1789 33.3672C35.8352 33.8014 35.7126 41.1798 41.1789 41.6875C42.8923 41.0816 44.1204 39.4481 44.1204 37.5273Z" fill="#EFEDFE"/>
    <path d="M38.2385 37.5256C38.2385 35.6049 39.4666 33.9714 41.18 33.3654C40.7198 33.2027 40.2251 33.1133 39.7092 33.1133C37.2727 33.1133 35.2969 35.089 35.2969 37.5256C35.2969 39.9621 37.2726 41.9379 39.7092 41.9379C40.225 41.9379 40.7198 41.8485 41.18 41.6857C39.4667 41.0799 38.2385 39.4464 38.2385 37.5256Z" fill="#DEDEF9"/>
    <path d="M38.4834 8.84766H35.1201C34.7155 8.84766 34.3877 9.17559 34.3877 9.58008C34.3877 9.98457 34.7155 10.3125 35.1201 10.3125H38.4833C40.8592 10.3125 43.0446 11.1416 44.7671 12.5249H42.2089C40.8318 12.5249 39.7116 13.6452 39.7116 15.0223V21.0524C39.7116 22.4295 40.8319 23.5498 42.2089 23.5498H48.5361V32.6222C48.5361 34.7759 46.8948 36.5533 44.7975 36.7698C44.4311 34.2897 42.289 32.3802 39.7087 32.3802C37.1207 32.3802 34.9738 34.3013 34.617 36.7921H23.6465C23.2419 36.7921 22.9141 37.1199 22.9141 37.5245C22.9141 37.9291 23.2419 38.2569 23.6465 38.2569H34.6168C34.9733 40.7481 37.1204 42.6697 39.7086 42.6697C42.3032 42.6697 44.4541 40.7386 44.8027 38.2384C47.7063 38.0146 50.001 35.5822 50.001 32.6222V20.3663C50.001 14.029 44.8484 8.84766 38.4834 8.84766ZM39.7086 41.2047C37.6795 41.2047 36.0286 39.5539 36.0286 37.5247C36.0286 35.4957 37.6794 33.8448 39.7086 33.8448C41.7376 33.8448 43.3885 35.4956 43.3885 37.5247C43.3885 39.5539 41.7377 41.2047 39.7086 41.2047ZM42.2089 22.0848C41.6397 22.0848 41.1765 21.6216 41.1765 21.0522V15.0221C41.1765 14.4527 41.6397 13.9896 42.2089 13.9896H46.2497C47.6776 15.7261 48.5361 17.9477 48.5361 20.3661V22.0848H42.2089Z" fill="black"/>
    <path d="M20.2275 36.792H15.3841C15.0271 34.3012 12.8804 32.3801 10.2924 32.3801C7.71211 32.3801 5.57002 34.2896 5.20361 36.7697C3.10615 36.5532 1.46484 34.7758 1.46484 32.6221V14.4834C1.46484 12.1836 3.33545 10.3125 5.63477 10.3125H31.7012C32.1058 10.3125 32.4336 9.98457 32.4336 9.58008C32.4336 9.17559 32.1058 8.84766 31.7012 8.84766H5.63477C2.52773 8.84766 0 11.3759 0 14.4834V32.6221C0 35.5821 2.29463 38.0145 5.19824 38.2383C5.54678 40.7385 7.69775 42.6696 10.2924 42.6696C12.8806 42.6696 15.0276 40.748 15.3842 38.2568H20.2275C20.6321 38.2568 20.96 37.929 20.96 37.5244C20.96 37.1198 20.632 36.792 20.2275 36.792ZM10.2924 41.2047C8.26338 41.2047 6.6125 39.5539 6.6125 37.5247C6.6125 35.4957 8.26328 33.8448 10.2924 33.8448C12.3215 33.8448 13.9724 35.4956 13.9724 37.5247C13.9723 39.5539 12.3215 41.2047 10.2924 41.2047Z" fill="black"/>
    <path d="M37.5012 21.051V15.0208C37.5012 13.6438 36.3809 12.5234 35.0039 12.5234H6.17705C4.7999 12.5234 3.67969 13.6438 3.67969 15.0208V21.051C3.67969 22.428 4.8 23.5483 6.17705 23.5483H35.004C36.381 23.5482 37.5012 22.428 37.5012 21.051ZM36.0363 15.0208V21.051C36.0363 21.6203 35.5731 22.0835 35.0039 22.0835H29.412V13.9884H35.0039C35.5731 13.9883 36.0363 14.4515 36.0363 15.0208ZM21.3228 13.9883H27.9472V22.0834H21.3228V13.9883ZM19.858 22.0834H13.2336V13.9883H19.858V22.0834ZM5.14443 21.051V15.0208C5.14443 14.4515 5.60762 13.9883 6.17695 13.9883H11.7688V22.0834H6.17695C5.60771 22.0834 5.14443 21.6203 5.14443 21.051Z" fill="black"/>
    <path d="M42.6495 27.2266C43.0541 27.2266 43.3819 26.8987 43.3819 26.4941C43.3819 26.0896 43.0541 25.7617 42.6495 25.7617H40.4434C40.0388 25.7617 39.7109 26.0896 39.7109 26.4941C39.7109 26.8987 40.0388 27.2266 40.4434 27.2266H42.6495Z" fill="black"/>
    <path d="M18.9653 26.4961C17.817 26.4961 16.8828 27.4299 16.8828 28.5776C16.8828 28.9822 17.2106 29.3101 17.6152 29.3101C18.0198 29.3101 18.3477 28.9822 18.3477 28.5776C18.3477 28.2376 18.6248 27.9609 18.9653 27.9609C19.3054 27.9609 19.582 28.2376 19.582 28.5776C19.582 28.9822 19.9099 29.3101 20.3145 29.3101C20.719 29.3101 21.0469 28.9822 21.0469 28.5776C21.047 27.43 20.1131 26.4961 18.9653 26.4961Z" fill="black"/>
    <path d="M28.9531 28.5776C28.9531 28.9822 29.281 29.3101 29.6855 29.3101C30.0901 29.3101 30.418 28.9822 30.418 28.5776C30.418 28.2376 30.6946 27.9609 31.0347 27.9609C31.3752 27.9609 31.6523 28.2376 31.6523 28.5776C31.6523 28.9822 31.9802 29.3101 32.3848 29.3101C32.7894 29.3101 33.1172 28.9822 33.1172 28.5776C33.1172 27.4299 32.183 26.4961 31.0347 26.4961C29.887 26.4961 28.9531 27.43 28.9531 28.5776Z" fill="black"/>
    <path d="M26.984 30.6389C27.2495 30.3338 27.2174 29.8712 26.9122 29.6056C26.6073 29.3401 26.1445 29.3723 25.8789 29.6774C25.416 30.2095 24.5905 30.2173 24.1209 29.6774C23.8552 29.3721 23.3926 29.3403 23.0876 29.6056C22.7824 29.8712 22.7503 30.3338 23.0158 30.6389C24.0677 31.8477 25.9377 31.8417 26.984 30.6389Z" fill="black"/>
  </g>
  <defs>
    <clipPath id="clip0_3224_29004">
      <rect width="50" height="50" fill="white" transform="translate(0 0.757812)"/>
    </clipPath>
  </defs>
</svg>