<svg xmlns="http://www.w3.org/2000/svg" width="51" height="51" viewBox="0 0 51 51" fill="none">
  <path d="M13.7409 7.91797H13.2298C12.882 8.00292 12.594 8.07487 12.594 8.07487L11.5431 8.67365L10.6633 9.61458L10.0156 11.2032V13.7693H17.3597L17.8726 13.4508V12.0497C17.8725 9.77725 16.0133 7.91797 13.7409 7.91797Z" fill="#BF7FE3"/>
  <path d="M10.1706 12.0498C10.1706 9.87276 11.8772 8.07614 14.0184 7.92892C13.9245 7.92247 13.83 7.91797 13.7345 7.91797H9.81914C7.54676 7.91797 5.6875 9.77725 5.6875 12.0498V13.4509L6.28216 13.7694H10.7652L10.1706 13.4509V12.0498Z" fill="#B166DB"/>
  <path d="M21.4364 13.4531H17.1846L16.6242 13.7064H6.81572L6.37708 13.4531H5.98457L5.42188 13.8938V24.3908L5.58963 24.8429L6.1273 25.3195L6.49136 25.445H21.4364C22.1056 25.445 22.6482 24.9025 22.6482 24.2333V14.6649C22.6482 13.9956 22.1057 13.4531 21.4364 13.4531Z" fill="#DD8858"/>
  <path d="M5.69974 24.2372V14.6688C5.69974 14.1414 6.0372 13.6941 6.50742 13.5275L6.38532 13.457H2.1336C1.46434 13.457 0.921875 13.9996 0.921875 14.6688V24.2372C0.921875 24.9064 1.46434 25.4489 2.1336 25.4489H6.91146C6.2422 25.4489 5.69974 24.9065 5.69974 24.2372Z" fill="#CB6C35"/>
  <path d="M11.7792 7.9218C13.5558 7.9218 14.9959 6.48161 14.9959 4.70504C14.9959 2.92847 13.5558 1.48828 11.7792 1.48828C10.0027 1.48828 8.5625 2.92847 8.5625 4.70504C8.5625 6.48161 10.0027 7.9218 11.7792 7.9218Z" fill="#FFCEBE"/>
  <path d="M17.187 13.4531H11.7833L11.4453 13.8367V21.9344L11.7833 22.293H17.187C17.7145 22.293 18.1422 21.8653 18.1422 21.3378V14.4083C18.1422 13.8808 17.7145 13.4531 17.187 13.4531Z" fill="#C9F0FE"/>
  <path d="M11.7808 13.4531H6.37707C5.84957 13.4531 5.42188 13.8808 5.42188 14.4083V21.3378C5.42188 21.8653 5.84947 22.293 6.37707 22.293H11.7808V13.4531Z" fill="#9BE8FD"/>
  <path d="M40.6003 7.91797H40.0892C39.7414 8.00292 39.4534 8.07487 39.4534 8.07487L38.4025 8.67365L37.5226 9.61458L36.875 11.2032V13.7693H44.2191L44.732 13.4508V12.0497C44.732 9.77725 42.8726 7.91797 40.6003 7.91797Z" fill="#FFE559"/>
  <path d="M37.03 12.0498C37.03 9.87276 38.7366 8.07614 40.8778 7.92892C40.7839 7.92247 40.6894 7.91797 40.5939 7.91797H36.6785C34.4061 7.91797 32.5469 9.77725 32.5469 12.0498V13.4509L33.1415 13.7694H37.6246L37.03 13.4509V12.0498Z" fill="#FBC700"/>
  <path d="M48.2959 13.4531H44.0441L43.4836 13.7064H33.6751L33.2365 13.4531H32.844L32.2812 13.8938V24.3908L32.449 24.8429L32.9867 25.3195L33.3507 25.445H48.2958C48.965 25.445 49.5075 24.9025 49.5075 24.2333V14.6649C49.5076 13.9956 48.9651 13.4531 48.2959 13.4531Z" fill="#DD8858"/>
  <path d="M32.5435 24.2372V14.6688C32.5435 14.1414 32.881 13.6941 33.3512 13.5275L33.2291 13.457H28.9773C28.3081 13.457 27.7656 13.9996 27.7656 14.6688V24.2372C27.7656 24.9064 28.3081 25.4489 28.9773 25.4489H33.7552C33.0861 25.4489 32.5435 24.9065 32.5435 24.2372Z" fill="#CB6C35"/>
  <path d="M38.6386 7.9218C40.4151 7.9218 41.8553 6.48161 41.8553 4.70504C41.8553 2.92847 40.4151 1.48828 38.6386 1.48828C36.8621 1.48828 35.4219 2.92847 35.4219 4.70504C35.4219 6.48161 36.8621 7.9218 38.6386 7.9218Z" fill="#FFCEBE"/>
  <path d="M44.0386 13.4531H38.6348L38.2969 13.8367V21.9344L38.6348 22.293H44.0386C44.5661 22.293 44.9938 21.8653 44.9938 21.3378V14.4083C44.9938 13.8808 44.5661 13.4531 44.0386 13.4531Z" fill="#C9F0FE"/>
  <path d="M38.6402 13.4531H33.2364C32.7089 13.4531 32.2812 13.8808 32.2812 14.4083V21.3378C32.2812 21.8653 32.7088 22.293 33.2364 22.293H38.6402V13.4531Z" fill="#9BE8FD"/>
  <path d="M13.7409 32.5547H13.2298C12.882 32.6396 12.594 32.7116 12.594 32.7116L11.5431 33.3104L10.6633 34.2513L10.0156 35.8399V38.4061H17.3597L17.8726 38.0876V36.6864C17.8725 34.414 16.0133 32.5547 13.7409 32.5547Z" fill="#00D2FC"/>
  <path d="M10.1706 36.6865C10.1706 34.5095 11.8772 32.7129 14.0184 32.5656C13.9245 32.5592 13.83 32.5547 13.7345 32.5547H9.81914C7.54676 32.5547 5.6875 34.414 5.6875 36.6865V38.0877L6.28216 38.4062H10.7652L10.1706 38.0877V36.6865Z" fill="#00C2FB"/>
  <path d="M21.4364 38.082H17.1846L16.6242 38.3353H6.81572L6.37708 38.082H5.98457L5.42188 38.5227V49.0197L5.58963 49.4718L6.1273 49.9484L6.49136 50.0739H21.4364C22.1056 50.0739 22.6482 49.5314 22.6482 48.8622V39.2938C22.6482 38.6245 22.1057 38.082 21.4364 38.082Z" fill="#DD8858"/>
  <path d="M5.69974 48.8661V39.2977C5.69974 38.7704 6.0372 38.323 6.50742 38.1564L6.38532 38.0859H2.1336C1.46434 38.0859 0.921875 38.6285 0.921875 39.2977V48.8661C0.921875 49.5353 1.46434 50.0779 2.1336 50.0779H6.91146C6.2422 50.0779 5.69974 49.5353 5.69974 48.8661Z" fill="#CB6C35"/>
  <path d="M11.7792 32.5507C13.5558 32.5507 14.9959 31.1105 14.9959 29.3339C14.9959 27.5574 13.5558 26.1172 11.7792 26.1172C10.0027 26.1172 8.5625 27.5574 8.5625 29.3339C8.5625 31.1105 10.0027 32.5507 11.7792 32.5507Z" fill="#FFCEBE"/>
  <path d="M17.187 38.082H11.7833L11.4453 38.4656V46.5633L11.7833 46.9219H17.187C17.7145 46.9219 18.1422 46.4942 18.1422 45.9667V39.0372C18.1422 38.5096 17.7145 38.082 17.187 38.082Z" fill="#C9F0FE"/>
  <path d="M11.7808 38.082H6.37707C5.84957 38.082 5.42188 38.5097 5.42188 39.0372V45.9667C5.42188 46.4942 5.84947 46.9219 6.37707 46.9219H11.7808V38.082Z" fill="#9BE8FD"/>
  <path d="M40.6003 32.5547H40.0892C39.7414 32.6396 39.4534 32.7116 39.4534 32.7116L38.4025 33.3104L37.5226 34.2513L36.875 35.8399V38.4061H44.2191L44.732 38.0876V36.6864C44.732 34.414 42.8726 32.5547 40.6003 32.5547Z" fill="#FF4FB9"/>
  <path d="M37.03 36.6865C37.03 34.5095 38.7366 32.7129 40.8778 32.5656C40.7839 32.5592 40.6894 32.5547 40.5939 32.5547H36.6785C34.4061 32.5547 32.5469 34.414 32.5469 36.6865V38.0877L33.1415 38.4062H37.6246L37.03 38.0877V36.6865Z" fill="#FF29AB"/>
  <path d="M48.2959 38.082H44.0441L43.4836 38.3353H33.6751L33.2365 38.082H32.844L32.2812 38.5227V49.0197L32.449 49.4718L32.9867 49.9484L33.3507 50.0739H48.2958C48.965 50.0739 49.5075 49.5314 49.5075 48.8622V39.2938C49.5076 38.6245 48.9651 38.082 48.2959 38.082Z" fill="#DD8858"/>
  <path d="M32.5435 48.8661V39.2977C32.5435 38.7704 32.881 38.323 33.3512 38.1564L33.2291 38.0859H28.9773C28.3081 38.0859 27.7656 38.6285 27.7656 39.2977V48.8661C27.7656 49.5353 28.3081 50.0779 28.9773 50.0779H33.7552C33.0861 50.0779 32.5435 49.5353 32.5435 48.8661Z" fill="#CB6C35"/>
  <path d="M38.6386 32.5507C40.4151 32.5507 41.8553 31.1105 41.8553 29.3339C41.8553 27.5574 40.4151 26.1172 38.6386 26.1172C36.8621 26.1172 35.4219 27.5574 35.4219 29.3339C35.4219 31.1105 36.8621 32.5507 38.6386 32.5507Z" fill="#FFCEBE"/>
  <path d="M44.0386 38.082H38.6348L38.2969 38.4656V46.5633L38.6348 46.9219H44.0386C44.5661 46.9219 44.9938 46.4942 44.9938 45.9667V39.0372C44.9938 38.5096 44.5661 38.082 44.0386 38.082Z" fill="#C9F0FE"/>
  <path d="M38.6402 38.082H33.2364C32.7089 38.082 32.2812 38.5097 32.2812 39.0372V45.9667C32.2812 46.4942 32.7088 46.9219 33.2364 46.9219H38.6402V38.082Z" fill="#9BE8FD"/>
  <path d="M21.4436 12.7244H18.6106V12.0564C18.6106 9.72337 16.9597 7.76954 14.7649 7.29971C15.3701 6.60542 15.738 5.69909 15.738 4.7078C15.7379 2.52981 13.9659 0.757812 11.788 0.757812C9.60998 0.757812 7.83801 2.52981 7.83801 4.7078C7.83801 5.69899 8.20587 6.60542 8.8111 7.29971C6.61641 7.76954 4.96536 9.72347 4.96536 12.0564V12.7244H2.13241C1.06 12.7244 0.1875 13.5969 0.1875 14.6694V24.2379C0.1875 25.3103 1.06 26.1828 2.13241 26.1828H9.41163C8.45653 26.9045 7.83801 28.0491 7.83801 29.3357C7.83801 30.3269 8.20577 31.2332 8.8111 31.9275C6.61641 32.3973 4.96546 34.3512 4.96546 36.6842V37.3523H2.13241C1.06 37.3522 0.1875 38.2247 0.1875 39.2971V48.8656C0.1875 49.938 1.06 50.8105 2.13241 50.8105H10.0773C10.4823 50.8105 10.8105 50.4823 10.8105 50.0773C10.8105 49.6723 10.4823 49.3441 10.0773 49.3441H2.13241C1.86856 49.3441 1.65388 49.1295 1.65388 48.8656V39.2971C1.65388 39.0333 1.86846 38.8186 2.13241 38.8186H4.71217C4.70249 38.8914 4.69584 38.9651 4.69584 39.0406V45.9702C4.69584 46.9012 5.45318 47.6586 6.38423 47.6586H17.1917C18.1226 47.6586 18.8801 46.9013 18.8801 45.9702V39.0406C18.8801 38.9652 18.8734 38.8914 18.8637 38.8186H21.4435C21.7073 38.8186 21.922 39.0332 21.922 39.2971V48.8656C21.922 49.1294 21.7074 49.3441 21.4435 49.3441H13.4986C13.0936 49.3441 12.7654 49.6723 12.7654 50.0773C12.7654 50.4823 13.0936 50.8105 13.4986 50.8105H21.4435C22.5159 50.8105 23.3884 49.938 23.3884 48.8656V39.2971C23.3884 38.2247 22.5159 37.3522 21.4435 37.3522H18.6105V36.6841C18.6105 34.3512 16.9596 32.3972 14.7649 31.9274C15.3701 31.2331 15.738 30.3268 15.738 29.3356C15.738 28.049 15.1194 26.9044 14.1644 26.1827H21.4436C22.516 26.1827 23.3885 25.3102 23.3885 24.2378V14.6693C23.3884 13.5969 22.5159 12.7244 21.4436 12.7244ZM6.16213 45.9701V39.0406C6.16213 38.9182 6.26174 38.8186 6.38414 38.8186H11.0548V46.1921H6.38414C6.26174 46.1921 6.16213 46.0925 6.16213 45.9701ZM17.4138 45.9701C17.4138 46.0925 17.3142 46.1921 17.1918 46.1921H12.5212V38.8186H17.1918C17.3143 38.8186 17.4138 38.9182 17.4138 39.0406V45.9701ZM17.1442 36.6841V37.3522H6.43175V36.6841C6.43175 34.8101 7.95629 33.2855 9.83023 33.2855H13.7457C15.6195 33.2855 17.1442 34.8101 17.1442 36.6841ZM11.788 31.8191C10.4184 31.8191 9.30439 30.705 9.30439 29.3356C9.30439 27.9661 10.4184 26.852 11.788 26.852C13.1575 26.852 14.2715 27.9661 14.2715 29.3356C14.2715 30.705 13.1575 31.8191 11.788 31.8191ZM17.4138 14.4129V21.3424C17.4138 21.4649 17.3142 21.5644 17.1918 21.5644H12.5212V14.1908H17.1918C17.3142 14.1908 17.4138 14.2904 17.4138 14.4129ZM6.16213 14.4129C6.16213 14.2904 6.26174 14.1909 6.38414 14.1909H11.0548V21.5645H6.38414C6.26174 21.5645 6.16213 21.4649 6.16213 21.3425V14.4129ZM11.788 2.22421C13.1575 2.22421 14.2715 3.33828 14.2715 4.7078C14.2715 6.07732 13.1575 7.19139 11.788 7.19139C10.4184 7.19139 9.30439 6.07732 9.30439 4.7078C9.30439 3.33828 10.4184 2.22421 11.788 2.22421ZM6.43175 12.0564C6.43175 10.1825 7.95629 8.65779 9.83023 8.65779H13.7457C15.6196 8.65779 17.1443 10.1825 17.1443 12.0564V12.7244H6.43175V12.0564ZM21.922 24.2379C21.922 24.5017 21.7074 24.7164 21.4435 24.7164H2.13241C1.86856 24.7164 1.65388 24.5018 1.65388 24.2379V14.6694C1.65388 14.4056 1.86846 14.1908 2.13241 14.1908H4.71217C4.70259 14.2636 4.69584 14.3374 4.69584 14.4128V21.3423C4.69584 22.2733 5.45318 23.0307 6.38423 23.0307H17.1917C18.1226 23.0307 18.8801 22.2733 18.8801 21.3423V14.4129C18.8801 14.3374 18.8733 14.2637 18.8637 14.1909H21.4435C21.7073 14.1909 21.922 14.4056 21.922 14.6695V24.2379Z" fill="black"/>
  <path d="M42.3883 15.6484H41.3894C40.9844 15.6484 40.6562 15.9766 40.6562 16.3816C40.6562 16.7866 40.9844 17.1148 41.3894 17.1148H42.3883C42.7933 17.1148 43.1215 16.7866 43.1215 16.3816C43.1215 15.9766 42.7933 15.6484 42.3883 15.6484Z" fill="black"/>
  <path d="M42.3883 18.3008H41.3894C40.9844 18.3008 40.6562 18.629 40.6562 19.034C40.6562 19.439 40.9844 19.7672 41.3894 19.7672H42.3883C42.7933 19.7672 43.1215 19.439 43.1215 19.034C43.1215 18.629 42.7933 18.3008 42.3883 18.3008Z" fill="black"/>
  <path d="M34.8894 17.1148H35.8883C36.2933 17.1148 36.6215 16.7866 36.6215 16.3816C36.6215 15.9766 36.2933 15.6484 35.8883 15.6484H34.8894C34.4844 15.6484 34.1562 15.9766 34.1562 16.3816C34.1562 16.7866 34.4844 17.1148 34.8894 17.1148Z" fill="black"/>
  <path d="M35.8883 18.3008H34.8894C34.4844 18.3008 34.1562 18.629 34.1562 19.034C34.1562 19.439 34.4844 19.7672 34.8894 19.7672H35.8883C36.2933 19.7672 36.6215 19.439 36.6215 19.034C36.6215 18.629 36.2933 18.3008 35.8883 18.3008Z" fill="black"/>
  <path d="M41.3894 41.7398H42.3883C42.7933 41.7398 43.1215 41.4116 43.1215 41.0066C43.1215 40.6016 42.7933 40.2734 42.3883 40.2734H41.3894C40.9844 40.2734 40.6562 40.6016 40.6562 41.0066C40.6562 41.4116 40.9844 41.7398 41.3894 41.7398Z" fill="black"/>
  <path d="M42.3883 42.9219H41.3894C40.9844 42.9219 40.6562 43.2501 40.6562 43.6551C40.6562 44.0601 40.9844 44.3883 41.3894 44.3883H42.3883C42.7933 44.3883 43.1215 44.0601 43.1215 43.6551C43.1215 43.2501 42.7933 42.9219 42.3883 42.9219Z" fill="black"/>
  <path d="M34.8894 41.7398H35.8883C36.2933 41.7398 36.6215 41.4116 36.6215 41.0066C36.6215 40.6016 36.2933 40.2734 35.8883 40.2734H34.8894C34.4844 40.2734 34.1562 40.6016 34.1562 41.0066C34.1562 41.4116 34.4844 41.7398 34.8894 41.7398Z" fill="black"/>
  <path d="M34.8894 44.3883H35.8883C36.2933 44.3883 36.6215 44.0601 36.6215 43.6551C36.6215 43.2501 36.2933 42.9219 35.8883 42.9219H34.8894C34.4844 42.9219 34.1562 43.2501 34.1562 43.6551C34.1562 44.0601 34.4844 44.3883 34.8894 44.3883Z" fill="black"/>
  <path d="M14.5457 17.1148H15.5446C15.9496 17.1148 16.2778 16.7866 16.2778 16.3816C16.2778 15.9766 15.9496 15.6484 15.5446 15.6484H14.5457C14.1407 15.6484 13.8125 15.9766 13.8125 16.3816C13.8125 16.7866 14.1407 17.1148 14.5457 17.1148Z" fill="black"/>
  <path d="M15.5446 18.3008H14.5457C14.1407 18.3008 13.8125 18.629 13.8125 19.034C13.8125 19.439 14.1407 19.7672 14.5457 19.7672H15.5446C15.9496 19.7672 16.2778 19.439 16.2778 19.034C16.2778 18.629 15.9496 18.3008 15.5446 18.3008Z" fill="black"/>
  <path d="M8.03787 17.1148H9.03676C9.44177 17.1148 9.76995 16.7866 9.76995 16.3816C9.76995 15.9766 9.44177 15.6484 9.03676 15.6484H8.03787C7.63286 15.6484 7.30469 15.9766 7.30469 16.3816C7.30469 16.7866 7.63286 17.1148 8.03787 17.1148Z" fill="black"/>
  <path d="M8.03787 19.7672H9.03676C9.44177 19.7672 9.76995 19.439 9.76995 19.034C9.76995 18.629 9.44177 18.3008 9.03676 18.3008H8.03787C7.63286 18.3008 7.30469 18.629 7.30469 19.034C7.30469 19.439 7.63286 19.7672 8.03787 19.7672Z" fill="black"/>
  <path d="M15.5446 40.2734H14.5457C14.1407 40.2734 13.8125 40.6016 13.8125 41.0066C13.8125 41.4116 14.1407 41.7398 14.5457 41.7398H15.5446C15.9496 41.7398 16.2778 41.4116 16.2778 41.0066C16.2778 40.6016 15.9496 40.2734 15.5446 40.2734Z" fill="black"/>
  <path d="M15.5446 42.9219H14.5457C14.1407 42.9219 13.8125 43.2501 13.8125 43.6551C13.8125 44.0601 14.1407 44.3883 14.5457 44.3883H15.5446C15.9496 44.3883 16.2778 44.0601 16.2778 43.6551C16.2778 43.2501 15.9496 42.9219 15.5446 42.9219Z" fill="black"/>
  <path d="M8.03787 41.7398H9.03676C9.44177 41.7398 9.76995 41.4116 9.76995 41.0066C9.76995 40.6016 9.44177 40.2734 9.03676 40.2734H8.03787C7.63286 40.2734 7.30469 40.6016 7.30469 41.0066C7.30469 41.4116 7.63286 41.7398 8.03787 41.7398Z" fill="black"/>
  <path d="M9.03666 42.9219H8.03787C7.63286 42.9219 7.30469 43.2501 7.30469 43.6551C7.30469 44.0601 7.63286 44.3883 8.03787 44.3883H9.03676C9.44177 44.3883 9.76995 44.0601 9.76995 43.6551C9.76995 43.2501 9.44167 42.9219 9.03666 42.9219Z" fill="black"/>
  <path d="M48.2952 12.7244H45.4622V12.0564C45.4622 9.72338 43.8112 7.76945 41.6165 7.29971C42.2217 6.60542 42.5896 5.69909 42.5896 4.7078C42.5896 2.52981 40.8176 0.757812 38.6396 0.757812C36.4616 0.757812 34.6897 2.52981 34.6897 4.7078C34.6897 5.69899 35.0575 6.60542 35.6628 7.29971C33.468 7.76955 31.817 9.72347 31.817 12.0564V12.7244H28.9841C27.9116 12.7244 27.0391 13.5969 27.0391 14.6694V24.2379C27.0391 25.3103 27.9116 26.1828 28.9841 26.1828H36.2632C35.3081 26.9045 34.6896 28.0491 34.6896 29.3357C34.6896 30.3269 35.0574 31.2332 35.6627 31.9275C33.4679 32.3973 31.817 34.3513 31.817 36.6842V37.3523H28.9841C27.9116 37.3523 27.0391 38.2248 27.0391 39.2972V48.8657C27.0391 49.9381 27.9116 50.8106 28.9841 50.8106H48.2952C49.3678 50.8106 50.2403 49.9381 50.2403 48.8657V39.2972C50.2403 38.2248 49.3678 37.3523 48.2952 37.3523H45.4622V36.6842C45.4622 34.3512 43.8112 32.3973 41.6166 31.9275C42.2218 31.2332 42.5897 30.3269 42.5897 29.3357C42.5897 28.0491 41.971 26.9045 41.016 26.1828H48.2952C49.3678 26.1828 50.2403 25.3103 50.2403 24.2379V21.1645C50.2403 20.7595 49.9121 20.4313 49.5071 20.4313C49.1021 20.4313 48.7739 20.7595 48.7739 21.1645V24.2379C48.7739 24.5017 48.5592 24.7164 48.2952 24.7164H28.9842C28.7203 24.7164 28.5055 24.5018 28.5055 24.2379V14.6694C28.5055 14.4056 28.7202 14.1908 28.9842 14.1908H31.5638C31.5542 14.2636 31.5475 14.3374 31.5475 14.4128V21.3423C31.5475 22.2733 32.3049 23.0308 33.2359 23.0308H44.0435C44.9745 23.0308 45.7319 22.2733 45.7319 21.3423V14.4129C45.7319 14.3374 45.7252 14.2637 45.7156 14.1909H48.2952C48.5591 14.1909 48.7739 14.4056 48.7739 14.6695V17.7429C48.7739 18.1479 49.1021 18.4761 49.5071 18.4761C49.9121 18.4761 50.2403 18.1479 50.2403 17.7429V14.6695C50.2402 13.5969 49.3677 12.7244 48.2952 12.7244ZM44.2654 39.0406V45.9702C44.2654 46.0926 44.1658 46.1922 44.0434 46.1922H39.3728V38.8187H44.0434C44.1658 38.8186 44.2654 38.9182 44.2654 39.0406ZM37.9064 46.1921H33.2359C33.1134 46.1921 33.0139 46.0925 33.0139 45.9701V39.0406C33.0139 38.9182 33.1135 38.8186 33.2359 38.8186H37.9064V46.1921ZM48.7738 39.2971V48.8656C48.7738 49.1294 48.5591 49.3441 48.2951 49.3441H28.9842C28.7203 49.3441 28.5055 49.1295 28.5055 48.8656V39.2971C28.5055 39.0333 28.7202 38.8186 28.9842 38.8186H31.5638C31.5542 38.8914 31.5475 38.9651 31.5475 39.0406V45.9702C31.5475 46.9012 32.3049 47.6586 33.2359 47.6586H44.0435C44.9745 47.6586 45.7319 46.9013 45.7319 45.9702V39.0406C45.7319 38.9652 45.7253 38.8914 45.7156 38.8186H48.2952C48.5591 38.8186 48.7738 39.0332 48.7738 39.2971ZM43.9958 36.6841V37.3522H33.2834V36.6841C33.2834 34.8101 34.8081 33.2855 36.682 33.2855H40.5974C42.4713 33.2855 43.9958 34.8101 43.9958 36.6841ZM38.6396 31.8191C37.2701 31.8191 36.156 30.705 36.156 29.3356C36.156 27.9661 37.2701 26.852 38.6396 26.852C40.0091 26.852 41.1232 27.9661 41.1232 29.3356C41.1232 30.705 40.0091 31.8191 38.6396 31.8191ZM38.6396 2.22421C40.0091 2.22421 41.1232 3.33828 41.1232 4.7078C41.1232 6.07732 40.0091 7.19139 38.6396 7.19139C37.2701 7.19139 36.156 6.07732 36.156 4.7078C36.156 3.33828 37.2701 2.22421 38.6396 2.22421ZM33.2834 12.0564C33.2834 10.1825 34.8081 8.65779 36.682 8.65779H40.5974C42.4714 8.65779 43.9959 10.1825 43.9959 12.0564V12.7244H33.2834V12.0564ZM33.0138 21.3423V14.4129C33.0138 14.2904 33.1134 14.1909 33.2358 14.1909H37.9063V21.5645H33.2358C33.1134 21.5645 33.0138 21.4648 33.0138 21.3423ZM44.2654 21.3423C44.2654 21.4648 44.1658 21.5644 44.0434 21.5644H39.3728V14.1907H44.0434C44.1658 14.1907 44.2654 14.2903 44.2654 14.4127V21.3423Z" fill="black"/>
</svg>