<svg xmlns="http://www.w3.org/2000/svg" width="50" height="51" viewBox="0 0 50 51" fill="none">
  <g clip-path="url(#clip0_3224_28928)">
    <path d="M27.7344 50.0273H6.83594C4.67861 50.0273 2.92969 48.2784 2.92969 46.1211V5.39844C2.92969 3.24111 4.67861 1.49219 6.83594 1.49219H27.7344C29.8917 1.49219 31.6406 3.24111 31.6406 5.39844V46.1211C31.6406 48.2784 29.8917 50.0273 27.7344 50.0273Z" fill="#7B727B"/>
    <path d="M27.7344 1.49219H24.8047C26.962 1.49219 28.7109 3.24111 28.7109 5.39844V46.1211C28.7109 48.2784 26.962 50.0273 24.8047 50.0273H27.7344C29.8917 50.0273 31.6406 48.2784 31.6406 46.1211V5.39844C31.6406 3.24111 29.8917 1.49219 27.7344 1.49219Z" fill="#686169"/>
    <path d="M29.1016 5.39844V46.1211C29.1016 46.8762 28.4895 47.4883 27.7344 47.4883H6.83594C6.08086 47.4883 5.46875 46.8762 5.46875 46.1211V5.39844C5.46875 4.64336 6.08086 4.03125 6.83594 4.03125H10.7523C10.98 4.03125 11.1825 4.17578 11.2566 4.39102L11.7727 5.89033C11.8468 6.10557 12.0493 6.2501 12.277 6.2501H22.2934C22.521 6.2501 22.7235 6.10557 22.7977 5.89033L23.3137 4.39102C23.3878 4.17578 23.5903 4.03125 23.818 4.03125H27.7344C28.4895 4.03125 29.1016 4.64336 29.1016 5.39844Z" fill="#D6FAEC"/>
    <path d="M27.7344 4.03125H24.8047C25.5598 4.03125 26.1719 4.64336 26.1719 5.39844V46.1211C26.1719 46.8762 25.5598 47.4883 24.8047 47.4883H27.7344C28.4895 47.4883 29.1016 46.8762 29.1016 46.1211V5.39844C29.1016 4.64336 28.4895 4.03125 27.7344 4.03125Z" fill="#CCFAE8"/>
    <path d="M21.0898 41.1875H13.4727C12.34 41.1875 11.4219 40.2693 11.4219 39.1367C11.4219 38.0041 12.34 37.0859 13.4727 37.0859H21.0898C22.2225 37.0859 23.1406 38.0041 23.1406 39.1367C23.1406 40.2693 22.2225 41.1875 21.0898 41.1875Z" fill="#2FD9E7"/>
    <path d="M45.1532 32.6914H11.4874C10.4286 32.6914 9.57031 31.8331 9.57031 30.7743V11.171C9.57031 10.1122 10.4286 9.25391 11.4874 9.25391H45.1533C46.212 9.25391 47.0703 10.1122 47.0703 11.171V30.7744C47.0703 31.8331 46.212 32.6914 45.1532 32.6914Z" fill="#2FD9E7"/>
    <path d="M45.1484 9.25391H42.2188C43.2775 9.25391 44.1358 10.1122 44.1358 11.1709V30.7744C44.1358 31.8331 43.2775 32.6914 42.2188 32.6914H45.1484C46.2072 32.6914 47.0655 31.8331 47.0655 30.7744V11.1709C47.0655 10.1122 46.2072 9.25391 45.1484 9.25391Z" fill="#00D0E4"/>
    <path d="M20.6016 18.1406H14.5469C14.2232 18.1406 13.9609 17.8783 13.9609 17.5547V13.6484C13.9609 13.3248 14.2232 13.0625 14.5469 13.0625H20.6016C20.9252 13.0625 21.1875 13.3248 21.1875 13.6484V17.5547C21.1875 17.8783 20.9252 18.1406 20.6016 18.1406Z" fill="#FFE589"/>
    <path d="M18.1641 29.0625H9.57031V23.9844H18.1641C19.5663 23.9844 20.7031 25.1212 20.7031 26.5234C20.7031 27.9258 19.5663 29.0625 18.1641 29.0625Z" fill="#FF6167"/>
    <path d="M13.4719 36.3516C9.77877 36.5049 9.7816 41.766 13.4719 41.918H21.0891C24.7823 41.7646 24.7795 36.5035 21.0891 36.3516H13.4719ZM22.4075 39.1348C22.4075 39.8617 21.8161 40.4531 21.0891 40.4531H13.4719C11.7225 40.3806 11.7239 37.8883 13.4719 37.8164H21.0891C21.8161 37.8164 22.4075 38.4078 22.4075 39.1348Z" fill="black"/>
    <path d="M45.1513 8.52148H41.423C40.4531 8.55508 40.4539 9.95312 41.423 9.98633H45.1513C45.8045 9.98633 46.3359 10.5177 46.3359 11.171V30.7743C46.3359 31.4275 45.8046 31.959 45.1513 31.959H11.4854C10.8322 31.959 10.3008 31.4276 10.3008 30.7743V29.7936H18.1621C22.5032 29.6133 22.4999 23.4292 18.1621 23.2506H10.3008V11.171C10.3008 10.5178 10.8321 9.98633 11.4854 9.98633H37.9801C38.9499 9.95273 38.9491 8.55469 37.9801 8.52148H32.3711V5.39648C32.3711 2.83877 30.2901 0.757812 27.7324 0.757812H6.83398C4.27627 0.757812 2.19531 2.83877 2.19531 5.39648V9.59951C2.22891 10.5693 3.62695 10.5686 3.66016 9.59951V5.39648C3.66016 3.64639 5.08389 2.22266 6.83398 2.22266H27.7324C29.4825 2.22266 30.9062 3.64639 30.9062 5.39648V8.52148H29.832V5.39648C29.832 4.23877 28.8901 3.29688 27.7324 3.29688H23.8164C23.2766 3.29688 22.7954 3.63955 22.6188 4.15049L22.1496 5.51562H12.4166L11.947 4.14951C11.7708 3.63955 11.2897 3.29697 10.7498 3.29697H6.83398C5.67627 3.29697 4.73438 4.23887 4.73438 5.39658V46.1192C4.73438 47.277 5.67627 48.2188 6.83398 48.2188H27.7324C28.8901 48.2188 29.832 47.277 29.832 46.1192V43.8292C29.7984 42.8594 28.4004 42.8602 28.3672 43.8292V46.1192C28.3672 46.4692 28.0824 46.754 27.7324 46.754H6.83398C6.48398 46.754 6.19922 46.4692 6.19922 46.1192V5.39658C6.19922 5.04658 6.48398 4.76182 6.83398 4.76182H10.6086L11.0782 6.12783C11.2543 6.63789 11.7354 6.98047 12.2754 6.98047H22.291C22.831 6.98047 23.3121 6.63779 23.4886 6.12686L23.9578 4.76172H27.7324C28.0824 4.76172 28.3672 5.04648 28.3672 5.39648V8.52148H11.4854C10.0245 8.52148 8.83594 9.71006 8.83594 11.171V30.7743C8.83594 32.2353 10.0245 33.4238 11.4854 33.4238H28.3672V40.4134C28.4008 41.3832 29.7988 41.3824 29.832 40.4134V33.4238H30.9062V46.1191C30.9062 47.8692 29.4825 49.293 27.7324 49.293H6.83398C5.08389 49.293 3.66016 47.8692 3.66016 46.1191V13.0625C3.62656 12.0927 2.22852 12.0935 2.19531 13.0625V46.1191C2.19531 48.6769 4.27627 50.7578 6.83398 50.7578H27.7324C30.2901 50.7578 32.3711 48.6769 32.3711 46.1191V33.4238H45.1513C46.6122 33.4238 47.8008 32.2353 47.8008 30.7743V11.171C47.8008 9.71006 46.6122 8.52148 45.1513 8.52148ZM18.1621 24.7154C20.5595 24.8149 20.5576 28.2301 18.1621 28.3287H10.3008V24.7154H18.1621Z" fill="black"/>
    <path d="M33.9016 30.03C34.2794 30.1741 34.7028 29.9843 34.8468 29.6062L35.1954 28.691H37.592L37.9367 29.6042C38.079 29.9864 38.512 30.1729 38.8805 30.0308C39.2589 29.888 39.4499 29.4654 39.3071 29.0869L37.2054 23.5179C37.203 23.5111 37.2002 23.5044 37.1975 23.4977C37.0642 23.1739 36.752 22.9648 36.4019 22.9648H36.4007C36.0501 22.9652 35.7379 23.1752 35.6053 23.4998C35.6031 23.5053 35.6009 23.5106 35.5989 23.5161L33.4779 29.0849C33.3338 29.4628 33.5237 29.8859 33.9016 30.03ZM36.3992 25.5303L37.0392 27.2262H35.7533L36.3992 25.5303Z" fill="black"/>
    <path d="M40.5928 26.6776L40.5863 29.3438C40.5853 29.7484 40.9125 30.0771 41.3168 30.0781H41.3187C41.7224 30.0781 42.0501 29.7514 42.0511 29.3475L42.0577 26.6786L43.729 24.1112C43.9497 23.7722 43.8538 23.3185 43.5148 23.0978C43.1758 22.8769 42.722 22.9729 42.5014 23.312L41.3249 25.1193L40.1349 23.2969C39.9135 22.9581 39.46 22.8631 39.1211 23.084C38.7825 23.3052 38.6872 23.759 38.9083 24.0977L40.5928 26.6776Z" fill="black"/>
    <path d="M29.3361 29.3457C29.3697 30.3156 30.7677 30.3148 30.801 29.3457V27.6207C31.1102 27.6192 31.4453 27.6178 31.6412 27.6178C34.7692 27.4895 34.7677 23.0926 31.6412 22.965H30.0685C29.6742 22.9572 29.3271 23.3055 29.3361 23.6996V29.3457ZM31.6412 24.4298C32.1251 24.4298 32.534 24.8243 32.534 25.2913C32.534 25.7583 32.1251 26.1529 31.6412 26.1529C31.4466 26.1529 31.1155 26.1542 30.8079 26.1558C30.804 25.4291 30.8053 25.1784 30.8031 24.4297L31.6412 24.4298Z" fill="black"/>
    <path d="M14.5527 12.3281C13.8258 12.3281 13.2344 12.9195 13.2344 13.6465V17.5527C13.2344 18.2797 13.8258 18.8711 14.5527 18.8711H20.6074C21.3344 18.8711 21.9258 18.2797 21.9258 17.5527V13.6465C21.9258 12.9195 21.3344 12.3281 20.6074 12.3281H14.5527ZM20.4609 17.4062H14.6992V13.793H20.4609V17.4062Z" fill="black"/>
    <path d="M26.75 14.8286V16.0005C26.7836 16.9703 28.1816 16.9696 28.2148 16.0005V14.8286C28.1813 13.8588 26.7832 13.8596 26.75 14.8286Z" fill="black"/>
    <path d="M39.5605 16.7329C39.9651 16.7329 40.293 16.4051 40.293 16.0005V14.8286C40.2594 13.8588 38.8613 13.8596 38.8281 14.8286V16.0005C38.8281 16.4051 39.1561 16.7329 39.5605 16.7329Z" fill="black"/>
    <path d="M42.9023 16.0005V14.8286C42.8687 13.8588 41.4707 13.8596 41.4375 14.8286V16.0005C41.471 16.9703 42.8691 16.9697 42.9023 16.0005Z" fill="black"/>
    <path d="M32.0039 16.0005V14.8286C31.9703 13.8588 30.5723 13.8596 30.5391 14.8286V16.0005C30.5726 16.9703 31.9707 16.9697 32.0039 16.0005Z" fill="black"/>
    <path d="M34.0371 16.7329C34.4417 16.7329 34.7695 16.4051 34.7695 16.0005V14.8286C34.7359 13.8588 33.3379 13.8596 33.3047 14.8286V16.0005C33.3047 16.4051 33.6325 16.7329 34.0371 16.7329Z" fill="black"/>
  </g>
  <defs>
    <clipPath id="clip0_3224_28928">
      <rect width="50" height="50" fill="white" transform="translate(0 0.757812)"/>
    </clipPath>
  </defs>
</svg>