<svg xmlns="http://www.w3.org/2000/svg" width="51" height="51" viewBox="0 0 51 51" fill="none">
  <g clip-path="url(#clip0_3224_28294)">
    <path d="M49.8069 4.45489H7.53906V2.47979C7.53906 1.93437 7.98124 1.49219 8.52666 1.49219H48.8193C49.3647 1.49219 49.8069 1.93437 49.8069 2.47979V4.45489Z" fill="#4F66D0"/>
    <path d="M48.8164 1.49219H45.6562C46.2017 1.49219 46.6439 1.93437 46.6439 2.47979V4.45489H49.804V2.47979C49.804 1.93437 49.3619 1.49219 48.8164 1.49219Z" fill="#314DC9"/>
    <path d="M48.8193 34.08H8.52666C7.98124 34.08 7.53906 33.6378 7.53906 33.0924V4.45312H49.8069V33.0925C49.8069 33.6379 49.3647 34.08 48.8193 34.08Z" fill="#DFF6FD"/>
    <path d="M46.6439 4.45312V33.0925C46.6439 33.6379 46.2017 34.0801 45.6562 34.0801H48.8164C49.3619 34.0801 49.804 33.6379 49.804 33.0925V4.45312H46.6439Z" fill="#C8EFFE"/>
    <path d="M26.3774 30.0593L24.9808 31.4559L22.1875 28.6627L23.5841 27.266C24.3555 26.4947 25.6061 26.4947 26.3774 27.266C27.1488 28.0374 27.1488 29.2879 26.3774 30.0593Z" fill="#FFBD86"/>
    <path d="M22.1946 28.6641L16.7739 34.0847H5.17687C2.99519 34.0847 1.22656 35.8534 1.22656 38.035V50.0837H14.0649V40.4209L18.4102 38.0349L24.9879 31.4572L22.1946 28.6641Z" fill="#B3DAFE"/>
    <path d="M22.1994 28.6641L16.7787 34.0847H13.9543C13.997 34.5725 14.0202 35.0659 14.0202 35.5648C14.0202 41.7744 10.639 47.1941 5.61719 50.0837H14.0697V40.4209L18.415 38.0349L24.9926 31.4572L22.1994 28.6641Z" fill="#8AC9FE"/>
    <path d="M9.11921 35.6673C8.24657 35.6673 7.53906 34.9599 7.53906 34.0872V31.5195H10.6993V34.0872C10.6993 34.9599 9.99184 35.6673 9.11921 35.6673Z" fill="#F6A96C"/>
    <path d="M4.97656 23.0273V28.3602C4.97656 30.651 6.83357 32.508 9.12435 32.508C11.4151 32.508 13.2721 30.651 13.2721 28.3602V23.0273H4.97656Z" fill="#FED2A4"/>
    <path d="M10.307 23.0273V28.3602C10.307 30.1288 9.19955 31.6381 7.64062 32.2346C8.1008 32.4106 8.59988 32.508 9.12193 32.508C11.4127 32.508 13.2697 30.651 13.2697 28.3602V23.0273H10.307Z" fill="#FFBD86"/>
    <path d="M9.12628 16.9023C5.96286 16.9023 3.39844 19.4668 3.39844 22.6302V26.5805L4.97858 25.0003C7.02642 25.0003 8.24983 24.0127 8.24983 24.0127V25.0003C10.5114 24.7431 11.3641 23.0252 11.3641 23.0252C11.3641 23.0252 11.7547 24.5334 13.2741 25.0003L14.8542 26.5805V22.6303C14.8541 19.4669 12.2897 16.9023 9.12628 16.9023Z" fill="#978ECB"/>
    <path d="M9.12193 16.9023C8.60946 16.9023 8.11321 16.9706 7.64062 17.0968C10.0858 17.7498 11.8872 19.9791 11.8872 22.6302V24.0353C12.1818 24.4145 12.6233 24.8017 13.2697 25.0003L14.8499 26.5805V22.6303C14.8498 19.4669 12.2853 16.9023 9.12193 16.9023Z" fill="#8379C1"/>
    <path d="M14.2609 28.1602H13.2734V25H14.261C15.1337 25 15.8412 25.7074 15.8412 26.5801C15.8411 27.4528 15.1337 28.1602 14.2609 28.1602Z" fill="#F6A96C"/>
    <path d="M3.98639 28.1602H4.974V25H3.98639C3.11376 25 2.40625 25.7074 2.40625 26.5801C2.40625 27.4528 3.11366 28.1602 3.98639 28.1602Z" fill="#F6A96C"/>
    <path d="M28.9394 42.4296C31.2445 42.4296 33.1132 40.5609 33.1132 38.2558C33.1132 35.9507 31.2445 34.082 28.9394 34.082C26.6343 34.082 24.7656 35.9507 24.7656 38.2558C24.7656 40.5609 26.6343 42.4296 28.9394 42.4296Z" fill="#FED2A4"/>
    <path d="M30.6365 34.4453C30.8684 34.9646 30.9984 35.5395 30.9984 36.1449C30.9984 38.45 29.1298 40.3187 26.8246 40.3187C26.2191 40.3187 25.6443 40.1887 25.125 39.9568C25.776 41.4144 27.2373 42.4309 28.9368 42.4309C31.2419 42.4309 33.1106 40.5622 33.1106 38.2571C33.1106 36.5575 32.0941 35.0962 30.6365 34.4453Z" fill="#FFBD86"/>
    <path d="M21.9844 50.0825V45.9078C21.9844 43.9869 23.5415 42.4297 25.4625 42.4297H32.4187C34.3397 42.4297 35.8968 43.9869 35.8968 45.9078V50.0825H21.9844Z" fill="#D9B1EE"/>
    <path d="M32.418 42.4297H29.2578C31.1788 42.4297 32.7359 43.9869 32.7359 45.9078V50.0825H35.8961V45.9078C35.8961 43.9869 34.3389 42.4297 32.418 42.4297Z" fill="#CB97E7"/>
    <path d="M42.8535 42.4296C45.1586 42.4296 47.0273 40.5609 47.0273 38.2558C47.0273 35.9507 45.1586 34.082 42.8535 34.082C40.5484 34.082 38.6797 35.9507 38.6797 38.2558C38.6797 40.5609 40.5484 42.4296 42.8535 42.4296Z" fill="#FED2A4"/>
    <path d="M44.5506 34.4453C44.7824 34.9646 44.9125 35.5395 44.9125 36.1449C44.9125 38.45 43.0438 40.3187 40.7387 40.3187C40.1331 40.3187 39.5584 40.1887 39.0391 39.9568C39.6901 41.4144 41.1513 42.4309 42.8508 42.4309C45.156 42.4309 47.0246 40.5622 47.0246 38.2571C47.0246 36.5575 46.0082 35.0962 44.5506 34.4453Z" fill="#FFBD86"/>
    <path d="M35.8984 50.0825V45.9078C35.8984 43.9869 37.4556 42.4297 39.3766 42.4297H46.3328C48.2537 42.4297 49.8109 43.9869 49.8109 45.9078V50.0825H35.8984Z" fill="#FE93D3"/>
    <path d="M46.3321 42.4297H43.1719C45.0928 42.4297 46.65 43.9869 46.65 45.9078V50.0825H49.8102V45.9078C49.8102 43.9869 48.253 42.4297 46.3321 42.4297Z" fill="#FE73C5"/>
    <path d="M33.4239 20.2578H45.2627C46.1353 20.2578 46.8428 20.9652 46.8428 21.838V27.5658C46.8428 28.4384 46.1354 29.1459 45.2627 29.1459H44.2751V30.4227C44.2751 30.8084 43.9625 31.121 43.5768 31.121C43.3916 31.121 43.214 31.0474 43.083 30.9165L41.3124 29.1459H33.4239C32.5513 29.1459 31.8438 28.4385 31.8438 27.5658V21.838C31.8438 20.9652 32.5512 20.2578 33.4239 20.2578Z" fill="#9BE69D"/>
    <path d="M43.6816 21.8381V27.5659C43.6816 28.2204 43.2837 28.782 42.7166 29.0218C42.3499 29.1768 42.1016 29.5239 42.1016 29.922V29.9359L43.0646 30.899C43.183 31.0174 43.3361 31.1003 43.5027 31.1173C43.9212 31.1598 44.2741 30.8325 44.2741 30.4227V29.1459H45.2618C46.1344 29.1459 46.8419 28.4385 46.8419 27.5658V21.838C46.8419 20.9653 46.1345 20.2578 45.2618 20.2578H42.1016C42.9742 20.258 43.6816 20.9654 43.6816 21.8381Z" fill="#6FD7A3"/>
    <path d="M33.465 7.41406H17.8614C16.9888 7.41406 16.2812 8.12148 16.2812 8.9942V14.7199C16.2812 15.5925 16.9887 16.3 17.8614 16.3H18.849V17.5768C18.849 17.9625 19.1616 18.2751 19.5473 18.2751C19.7325 18.2751 19.9101 18.2015 20.0411 18.0706L21.8117 16.3H33.465C34.3376 16.3 35.0451 15.5926 35.0451 14.7199V8.99411C35.045 8.12148 34.3376 7.41406 33.465 7.41406Z" fill="#FEE97D"/>
    <path d="M33.4649 7.41406H30.3047C31.1773 7.41406 31.8848 8.12148 31.8848 8.9942V14.7199C31.8848 15.5925 31.1774 16.3 30.3047 16.3H33.4649C34.3375 16.3 35.045 15.5926 35.045 14.7199V8.99411C35.045 8.12148 34.3376 7.41406 33.4649 7.41406Z" fill="#FEDF30"/>
    <path d="M50.539 33.0929V2.47844C50.539 1.52975 49.7671 0.757812 48.8184 0.757812H8.52538C7.57669 0.757812 6.80476 1.52975 6.80476 2.47844V7.41644C6.80476 7.82138 7.13295 8.14967 7.53798 8.14967C7.94301 8.14967 8.2712 7.82138 8.2712 7.41644V5.18696H49.0726V33.0929C49.0726 33.2331 48.9586 33.3471 48.8184 33.3471H24.1213L25.4934 31.9748C25.4947 31.9735 25.4962 31.9724 25.4974 31.9712L26.8941 30.5745C27.95 29.5186 27.95 27.8004 26.8941 26.7444C25.8379 25.6884 24.1199 25.6886 23.0637 26.7444L21.6672 28.141L16.4612 33.347H11.4315V32.649C12.8098 31.904 13.7907 30.515 13.9692 28.8879H14.2535C15.529 28.8879 16.5668 27.8502 16.5668 26.5746C16.5668 25.792 16.1757 25.0993 15.5792 24.6805V22.6242C15.5792 19.0616 12.6808 16.1632 9.11802 16.1632C8.8308 16.1632 8.54855 16.184 8.2712 16.2205V10.8381C8.2712 10.4332 7.94301 10.1049 7.53798 10.1049C7.13295 10.1049 6.80476 10.4332 6.80476 10.8381V16.5932C4.3817 17.5257 2.65696 19.8767 2.65696 22.6244V24.6807C2.06041 25.0995 1.66936 25.7922 1.66936 26.5747C1.66936 27.8503 2.70712 28.8881 3.98263 28.8881H4.26692C4.44544 30.5152 5.4262 31.9042 6.80466 32.6492V33.3472H5.1682C2.5855 33.3471 0.484375 35.4482 0.484375 38.0309V50.0792C0.484375 50.4841 0.812565 50.8124 1.2176 50.8124C1.62263 50.8124 1.95082 50.4841 1.95082 50.0792V38.0309C1.95082 36.2569 3.39419 34.8135 5.1682 34.8135H6.92461C7.23208 35.7305 8.09884 36.3935 9.11812 36.3935C10.1373 36.3935 11.0041 35.7305 11.3115 34.8135H16.7649C16.9593 34.8135 17.1457 34.7363 17.2834 34.5987L22.1858 29.6963L23.9419 31.4525L17.9569 37.4385L13.703 39.7735C13.4685 39.9023 13.3226 40.1486 13.3226 40.4163V43.5301C13.3226 43.935 13.6508 44.2633 14.0558 44.2633C14.4609 44.2633 14.7891 43.935 14.7891 43.5301V40.8503L18.7542 38.6737C18.815 38.6403 18.8708 38.5984 18.9198 38.5493L22.6551 34.8136H25.441C24.5691 35.6998 24.0298 36.9142 24.0298 38.2527C24.0298 39.5921 24.5698 40.8074 25.4428 41.6937C23.1281 41.7024 21.2475 43.5878 21.2475 45.9046V50.0792C21.2475 50.4841 21.5757 50.8124 21.9807 50.8124C22.3857 50.8124 22.7139 50.4841 22.7139 50.0792V45.9045C22.7139 44.391 23.9454 43.1596 25.4588 43.1596H32.4151C33.9285 43.1596 35.1599 44.391 35.1599 45.9045V50.0792C35.1599 50.4841 35.4881 50.8124 35.8932 50.8124C36.2982 50.8124 36.6264 50.4841 36.6264 50.0792V45.9045C36.6264 44.391 37.8578 43.1596 39.3713 43.1596H46.3275C47.841 43.1596 49.0724 44.391 49.0724 45.9045V50.0792C49.0724 50.4841 49.4006 50.8124 49.8056 50.8124C50.2107 50.8124 50.5388 50.4841 50.5388 50.0792V45.9045C50.5388 43.5876 48.6582 41.7022 46.3433 41.6936C47.2163 40.8073 47.7562 39.592 47.7562 38.2526C47.7562 36.9142 47.217 35.6996 46.345 34.8135H48.8184C49.7671 34.8135 50.539 34.0417 50.539 33.0929ZM8.2712 3.72052V2.47844C8.2712 2.33825 8.38519 2.22426 8.52538 2.22426H48.8184C48.9586 2.22426 49.0726 2.33835 49.0726 2.47844V3.72052H8.2712ZM14.2535 27.4216H13.9991V25.7278H14.2535C14.7204 25.7278 15.1003 26.1077 15.1003 26.5747C15.1003 27.0418 14.7204 27.4216 14.2535 27.4216ZM9.11812 17.6297C11.8722 17.6297 14.1127 19.8703 14.1127 22.6243V24.2613H13.3848C12.3693 23.8934 12.0764 22.8745 12.0656 22.8355C11.9888 22.5392 11.7375 22.319 11.433 22.2874C11.1279 22.2549 10.8377 22.4137 10.7018 22.6879C10.6776 22.7345 10.1865 23.6559 8.9748 24.0812V24.0069C8.9748 23.7245 8.81261 23.4672 8.55774 23.3453C8.30307 23.2237 8.00089 23.2589 7.78102 23.4364C7.77085 23.4446 6.71041 24.2613 4.97023 24.2613H4.12341V22.6243C4.12351 19.8704 6.36414 17.6297 9.11812 17.6297ZM3.1359 26.5746C3.1359 26.1077 3.51581 25.7277 3.98273 25.7277H4.23711V27.4215H3.98273C3.51581 27.4216 3.1359 27.0417 3.1359 26.5746ZM5.70355 28.3523V25.6888C6.44303 25.6103 7.06383 25.4228 7.54511 25.2235C7.5849 25.3447 7.65617 25.4548 7.75335 25.5415C7.90918 25.6805 8.11644 25.7469 8.32458 25.723C9.7045 25.5661 10.6406 24.9416 11.2245 24.3718C11.5147 24.7741 11.9361 25.1962 12.5328 25.4896V28.3522C12.5328 30.235 11.0009 31.7667 9.11812 31.7667C7.2353 31.7667 5.70355 30.2351 5.70355 28.3523ZM9.11802 34.927C8.65111 34.927 8.2712 34.5471 8.2712 34.0801V33.1582C8.5465 33.2066 8.82913 33.2333 9.11812 33.2333C9.40701 33.2333 9.68964 33.2066 9.96494 33.1582V34.0801C9.96504 34.5471 9.58504 34.927 9.11802 34.927ZM23.2228 28.6593L24.1006 27.7814C24.585 27.2971 25.373 27.2972 25.857 27.7814C26.3412 28.2657 26.3412 29.0535 25.857 29.5377L24.979 30.4158L23.2228 28.6593ZM28.9933 34.8135C30.8644 34.8439 32.3774 36.3744 32.3774 38.2526C32.3774 40.1497 30.834 41.6931 28.9369 41.6931C27.0398 41.6931 25.4964 40.1497 25.4964 38.2526C25.4964 36.3744 27.0094 34.8438 28.8805 34.8135H28.9933ZM35.8933 43.5333C35.1369 42.4274 33.8677 41.699 32.4309 41.6936C33.3039 40.8073 33.8439 39.592 33.8439 38.2526C33.8439 36.9142 33.3046 35.6996 32.4326 34.8135H39.3535C38.4815 35.6997 37.9423 36.9142 37.9423 38.2526C37.9423 39.592 38.4822 40.8073 39.3552 41.6936C37.9187 41.6991 36.6496 42.4275 35.8933 43.5333ZM46.29 38.2526C46.29 40.1497 44.7465 41.6931 42.8494 41.6931C40.9523 41.6931 39.4089 40.1497 39.4089 38.2526C39.4089 36.3744 40.9219 34.8438 42.793 34.8135H42.9058C44.7769 34.8439 46.29 36.3745 46.29 38.2526Z" fill="black"/>
    <path d="M14.0535 46.2188C13.6485 46.2188 13.3203 46.547 13.3203 46.952V50.0794C13.3203 50.4843 13.6485 50.8126 14.0535 50.8126C14.4586 50.8126 14.7868 50.4843 14.7868 50.0794V46.952C14.7868 46.547 14.4586 46.2188 14.0535 46.2188Z" fill="black"/>
    <path d="M4.17854 40.207C3.7735 40.207 3.44531 40.5353 3.44531 40.9403V50.0799C3.44531 50.4848 3.7735 50.8131 4.17854 50.8131C4.58357 50.8131 4.91176 50.4848 4.91176 50.0799V40.9404C4.91176 40.5353 4.58347 40.207 4.17854 40.207Z" fill="black"/>
    <path d="M39.9442 23.9508H43.8824C44.2875 23.9508 44.6157 23.6225 44.6157 23.2176C44.6157 22.8127 44.2875 22.4844 43.8824 22.4844H39.9442C39.5391 22.4844 39.2109 22.8127 39.2109 23.2176C39.2109 23.6225 39.5392 23.9508 39.9442 23.9508Z" fill="black"/>
    <path d="M34.8035 23.9508H36.7786C37.1837 23.9508 37.5119 23.6225 37.5119 23.2176C37.5119 22.8127 37.1837 22.4844 36.7786 22.4844H34.8035C34.3985 22.4844 34.0703 22.8127 34.0703 23.2176C34.0703 23.6225 34.3986 23.9508 34.8035 23.9508Z" fill="black"/>
    <path d="M38.5443 25.4492H34.8035C34.3985 25.4492 34.0703 25.7775 34.0703 26.1824C34.0703 26.5874 34.3985 26.9157 34.8035 26.9157H38.5443C38.9494 26.9157 39.2776 26.5874 39.2776 26.1824C39.2776 25.7775 38.9493 25.4492 38.5443 25.4492Z" fill="black"/>
    <path d="M37.6254 19.5195H33.4235C32.1475 19.5195 31.1094 20.5572 31.1094 21.8326V27.5605C31.1094 28.8365 32.1475 29.8746 33.4235 29.8746H41.0083L42.564 31.4303C42.8343 31.7005 43.1937 31.8494 43.5762 31.8494C44.3654 31.8494 45.0075 31.2074 45.0075 30.4181V29.8746H45.2617C46.5377 29.8746 47.5758 28.8365 47.5758 27.5605V21.8326C47.5758 20.5572 46.5377 19.5195 45.2617 19.5195H41.0472C40.6421 19.5195 40.314 19.8478 40.314 20.2528C40.314 20.6577 40.6421 20.986 41.0472 20.986H45.2617C45.7291 20.986 46.1093 21.3658 46.1093 21.8326V27.5605C46.1093 28.0279 45.7291 28.4081 45.2617 28.4081H44.2742C43.8692 28.4081 43.541 28.7364 43.541 29.1414V30.3334L41.8306 28.6229C41.693 28.4854 41.5066 28.4081 41.312 28.4081H33.4235C32.9561 28.4081 32.5758 28.0279 32.5758 27.5605V21.8326C32.5758 21.3658 32.9561 20.986 33.4235 20.986H37.6253C38.0303 20.986 38.3585 20.6577 38.3585 20.2528C38.3585 19.8478 38.0303 19.5195 37.6254 19.5195Z" fill="black"/>
    <path d="M32.0847 9.64453H24.3817C23.9766 9.64453 23.6484 9.97282 23.6484 10.3778C23.6484 10.7827 23.9766 11.111 24.3817 11.111H32.0847C32.4897 11.111 32.8179 10.7827 32.8179 10.3778C32.8179 9.97282 32.4897 9.64453 32.0847 9.64453Z" fill="black"/>
    <path d="M19.2488 11.111H21.224C21.629 11.111 21.9572 10.7827 21.9572 10.3778C21.9572 9.97282 21.629 9.64453 21.224 9.64453H19.2488C18.8438 9.64453 18.5156 9.97282 18.5156 10.3778C18.5156 10.7827 18.8438 11.111 19.2488 11.111Z" fill="black"/>
    <path d="M32.0872 12.6055H19.2488C18.8438 12.6055 18.5156 12.9338 18.5156 13.3387C18.5156 13.7436 18.8438 14.0719 19.2488 14.0719H32.0872C32.4922 14.0719 32.8204 13.7436 32.8204 13.3387C32.8204 12.9338 32.4922 12.6055 32.0872 12.6055Z" fill="black"/>
    <path d="M33.4716 6.68359H17.868C16.5924 6.68359 15.5547 7.72135 15.5547 8.99696V14.7226C15.5547 15.9982 16.5924 17.036 17.868 17.036H18.1223V17.5797C18.1223 18.369 18.7645 19.0112 19.554 19.0112C19.9362 19.0112 20.2957 18.8623 20.5662 18.5919L22.122 17.036H33.4716C34.7471 17.036 35.7849 15.9982 35.7849 14.7226V8.99696C35.7849 7.72135 34.7471 6.68359 33.4716 6.68359ZM34.3184 14.7226C34.3184 15.1896 33.9385 15.5696 33.4716 15.5696H21.8184C21.6239 15.5696 21.4375 15.6468 21.2998 15.7843L19.5888 17.4954V16.3028C19.5888 15.8978 19.2606 15.5696 18.8556 15.5696H17.868C17.401 15.5696 17.0211 15.1896 17.0211 14.7226V8.99696C17.0211 8.53004 17.401 8.15004 17.868 8.15004H33.4715C33.9384 8.15004 34.3183 8.52994 34.3183 8.99696L34.3184 14.7226Z" fill="black"/>
  </g>
  <defs>
    <clipPath id="clip0_3224_28294">
      <rect width="50.0546" height="50.0546" fill="white" transform="translate(0.484375 0.761719)"/>
    </clipPath>
  </defs>
</svg>