<svg xmlns="http://www.w3.org/2000/svg" width="51" height="51" viewBox="0 0 51 51" fill="none">
  <g clip-path="url(#clip0_3224_28349)">
    <path d="M12.6573 18.7562L25.6785 20.0662L49.9727 17.6222V9.80114C49.9727 7.64146 48.2218 5.89062 46.0621 5.89062H14.8655L8.125 12.1963L12.6573 18.7562Z" fill="#FF938A"/>
    <path d="M5.29333 5.89062C3.13365 5.89062 1.38281 7.64146 1.38281 9.80114V17.6222L12.6557 18.7562C12.9438 14.2817 13.6999 9.96861 14.8639 5.89062H5.29333Z" fill="#FD7A6E"/>
    <path d="M18.8951 50.0812H46.0633C48.223 50.0812 49.9739 48.3304 49.9739 46.1707V19.5792L47.9697 18.6016H4.17188V46.9039L18.8951 50.0812Z" fill="#F5F5FD"/>
    <path d="M49.971 19.5803V17.625H1.38281V46.1718C1.38281 48.3314 3.13365 50.0823 5.29333 50.0823H18.8923C14.8573 42.1906 12.5243 32.857 12.5243 22.8553C12.5243 22.0735 12.5386 21.2958 12.5668 20.5225C12.586 19.9965 13.0184 19.5803 13.5446 19.5803H49.971Z" fill="#ECECF6"/>
    <path d="M16.2542 44.0689C16.7471 43.8326 17.0874 43.3289 17.0874 42.7459V37.2711C17.0874 36.4613 16.4308 35.8047 15.6209 35.8047H13.866L11.75 40.0085L16.2542 44.0689Z" fill="#A8E1F6"/>
    <path d="M8.70863 35.8047C7.89876 35.8047 7.24219 36.4613 7.24219 37.2711V42.7459C7.24219 43.5557 7.89876 44.2123 8.70863 44.2123H15.6173C15.8441 44.2123 16.0588 44.1608 16.2506 44.0689C15.2709 41.4263 14.4686 38.664 13.8623 35.8047H8.70863Z" fill="#91D4F2"/>
    <path d="M13.1689 31.8959H15.6207C16.4306 31.8959 17.0872 31.2393 17.0872 30.4294V24.9547C17.0872 24.1449 16.4306 23.4883 15.6207 23.4883H12.5246L9.44531 27.7166L13.1689 31.8959Z" fill="#A8E1F6"/>
    <path d="M8.70863 23.4883C7.89876 23.4883 7.24219 24.1449 7.24219 24.9547V30.4294C7.24219 31.2393 7.89876 31.8959 8.70863 31.8959H13.1655C12.7692 29.162 12.5494 26.3534 12.521 23.4883H8.70863Z" fill="#91D4F2"/>
    <path d="M41.8273 36.4766V28.082H24.7188V36.4768C24.7188 37.3651 25.2004 38.1852 25.9775 38.6155C30.8409 41.3082 35.7045 41.308 40.5684 38.6155C41.3456 38.185 41.8273 37.365 41.8273 36.4766Z" fill="#7293DF"/>
    <path d="M31.5599 35.0374L23.0955 30.556C22.2286 30.097 22.2286 28.8549 23.0955 28.3959L31.5606 23.9144C32.6337 23.3463 33.9183 23.3463 34.9913 23.9144L43.4563 28.3958C44.3234 28.8548 44.3233 30.0969 43.4563 30.5559L34.9907 35.0374C33.9175 35.6055 32.6328 35.6055 31.5599 35.0374Z" fill="#85A4E4"/>
    <path d="M37.2002 46.4044C38.2126 46.4044 39.0333 45.5837 39.0333 44.5713C39.0333 43.559 38.2126 42.7383 37.2002 42.7383C36.1879 42.7383 35.3672 43.559 35.3672 44.5713C35.3672 45.5837 36.1879 46.4044 37.2002 46.4044Z" fill="#FFE54E"/>
    <path d="M11.4084 1.49219C12.4838 1.49219 13.3636 2.37205 13.3636 3.44745V8.33559C13.3636 9.41098 12.4838 10.2908 11.4084 10.2908C10.333 10.2908 9.45312 9.41098 9.45312 8.33559V3.44745C9.45312 2.37205 10.333 1.49219 11.4084 1.49219Z" fill="#E2E2F1"/>
    <path d="M39.9553 1.49219C41.0307 1.49219 41.9105 2.37205 41.9105 3.44745V8.33559C41.9105 9.41098 41.0307 10.2908 39.9553 10.2908C38.8799 10.2908 38 9.41098 38 8.33559V3.44745C38 2.37205 38.8799 1.49219 39.9553 1.49219Z" fill="#ECECF6"/>
    <path d="M20.747 12.408C20.7496 11.1383 19.4592 10.1065 17.8648 10.1033C16.2704 10.1001 14.9759 11.1268 14.9733 12.3964C14.9708 13.6661 16.2612 14.6979 17.8556 14.7011C19.45 14.7043 20.7445 13.6776 20.747 12.408Z" fill="white"/>
    <path d="M36.3955 12.4431C36.398 11.1735 35.1076 10.1416 33.5132 10.1385C31.9189 10.1353 30.6243 11.1619 30.6218 12.4316C30.6192 13.7012 31.9097 14.7331 33.504 14.7362C35.0984 14.7394 36.3929 13.7128 36.3955 12.4431Z" fill="white"/>
    <path d="M49.9699 40.4329C50.3748 40.4329 50.7031 40.1047 50.7031 39.6997V9.80088C50.7031 7.24037 48.6199 5.15714 46.0594 5.15714H42.6377V3.44629C42.6377 1.96391 41.4317 0.757812 39.9492 0.757812C38.4667 0.757812 37.2607 1.96391 37.2607 3.44629V5.15714H14.0909V3.44629C14.0909 1.96391 12.8848 0.757812 11.4024 0.757812C9.91989 0.757812 8.71389 1.96391 8.71389 3.44629V5.15714H5.29218C2.73167 5.15714 0.648438 7.24037 0.648438 9.80088V46.1687C0.648438 48.7292 2.73167 50.8124 5.29218 50.8124H46.0594C48.6199 50.8124 50.7031 48.7292 50.7031 46.1687V43.1214C50.7031 42.7164 50.3748 42.3882 49.9699 42.3882C49.565 42.3882 49.2367 42.7164 49.2367 43.1214V46.1687C49.2367 47.9207 47.8113 49.346 46.0594 49.346H5.29218C3.54027 49.346 2.11488 47.9207 2.11488 46.1687V18.3551H9.69152C10.0965 18.3551 10.4247 18.0269 10.4247 17.6219C10.4247 17.2169 10.0965 16.8887 9.69152 16.8887H2.11488V9.80088C2.11488 8.04887 3.54027 6.62359 5.29218 6.62359H8.71389V8.33444C8.71389 9.81682 9.91989 11.0229 11.4024 11.0229C12.8848 11.0229 14.0909 9.81682 14.0909 8.33444V6.62359H37.2607V8.33444C37.2607 9.81682 38.4667 11.0229 39.9492 11.0229C41.4317 11.0229 42.6377 9.81682 42.6377 8.33444V6.62359H46.0594C47.8113 6.62359 49.2367 8.04887 49.2367 9.80088V16.8887H13.1132C12.7083 16.8887 12.38 17.2169 12.38 17.6219C12.38 18.0269 12.7083 18.3551 13.1132 18.3551H49.2367V39.6997C49.2367 40.1047 49.565 40.4329 49.9699 40.4329ZM12.6244 8.33444C12.6244 9.00832 12.0763 9.55647 11.4024 9.55647C10.7285 9.55647 10.1803 9.00832 10.1803 8.33444V3.44629C10.1803 2.77241 10.7285 2.22426 11.4024 2.22426C12.0763 2.22426 12.6244 2.77241 12.6244 3.44629V8.33444ZM41.1712 8.33444C41.1712 9.00832 40.6231 9.55647 39.9492 9.55647C39.2753 9.55647 38.7271 9.00832 38.7271 8.33444V3.44629C38.7271 2.77241 39.2753 2.22426 39.9492 2.22426C40.6231 2.22426 41.1712 2.77241 41.1712 3.44629V8.33444Z" fill="black"/>
    <path d="M15.6239 44.9444H8.71529C7.50235 44.9444 6.51562 43.9576 6.51562 42.7447V37.27C6.51562 36.057 7.50235 35.0703 8.71529 35.0703H15.6239C16.8369 35.0703 17.8236 36.057 17.8236 37.27V42.7447C17.8236 43.9576 16.8368 44.9444 15.6239 44.9444ZM8.71529 36.5368C8.31095 36.5368 7.98207 36.8656 7.98207 37.27V42.7447C7.98207 43.149 8.31095 43.4779 8.71529 43.4779H15.6239C16.0283 43.4779 16.3571 43.149 16.3571 42.7447V37.27C16.3571 36.8656 16.0283 36.5368 15.6239 36.5368H8.71529Z" fill="black"/>
    <path d="M15.6239 32.628H8.71529C7.50235 32.628 6.51562 31.6412 6.51562 30.4283V24.9536C6.51562 23.7406 7.50235 22.7539 8.71529 22.7539H15.6239C16.8369 22.7539 17.8236 23.7406 17.8236 24.9536V30.4283C17.8236 31.6412 16.8368 32.628 15.6239 32.628ZM8.71529 24.2203C8.31095 24.2203 7.98207 24.5492 7.98207 24.9536V30.4283C7.98207 30.8326 8.31095 31.1615 8.71529 31.1615H15.6239C16.0283 31.1615 16.3571 30.8326 16.3571 30.4283V24.9536C16.3571 24.5492 16.0283 24.2203 15.6239 24.2203H8.71529Z" fill="black"/>
    <path d="M43.7981 27.7471L35.3332 23.2656C34.0443 22.5833 32.5053 22.5833 31.2165 23.2656L22.7514 27.7472C22.1097 28.0869 21.7109 28.749 21.7109 29.4751C21.7109 30.2013 22.1096 30.8635 22.7513 31.2032L23.9873 31.8576V36.4772C23.9873 37.6331 24.6146 38.6983 25.6242 39.2573C28.1622 40.6625 30.7182 41.3651 33.2744 41.3651C34.3385 41.3651 35.4026 41.2433 36.4653 40.9999V42.1113C35.4064 42.4275 34.6323 43.4104 34.6323 44.5709C34.6323 45.9859 35.7834 47.1372 37.1986 47.1372C38.6137 47.1372 39.7648 45.9859 39.7648 44.5709C39.7648 43.4105 38.9907 42.4275 37.9318 42.1113V40.5864C38.9317 40.2514 39.9299 39.8084 40.9254 39.2573C41.9351 38.6983 42.5623 37.633 42.5623 36.4771V31.8574L43.7982 31.2032C44.44 30.8635 44.8387 30.2013 44.8387 29.4752C44.8387 28.749 44.4401 28.0869 43.7981 27.7471ZM38.2984 44.5708C38.2984 45.1772 37.805 45.6706 37.1986 45.6706C36.5921 45.6706 36.0987 45.1772 36.0987 44.5708C36.0987 43.9644 36.5921 43.471 37.1986 43.471C37.805 43.471 38.2984 43.9644 38.2984 44.5708ZM33.2745 39.902C30.9798 39.902 28.6449 39.2535 26.3345 37.9743C25.7913 37.6736 25.4538 37.1 25.4538 36.4772V32.634L31.2158 35.6846H31.2158C31.8604 36.0258 32.5672 36.1964 33.2743 36.1964C33.9812 36.1964 34.6883 36.0258 35.3327 35.6847L36.4654 35.0851V39.4908C35.3974 39.7644 34.3317 39.902 33.2745 39.902ZM41.0959 36.4771C41.0959 37.0999 40.7584 37.6735 40.215 37.9743C39.4558 38.3946 38.6939 38.7469 37.9318 39.0304V34.3088L41.0959 32.6337V36.4771ZM43.1121 29.9071L37.2426 33.0143L33.4105 30.4474C33.0742 30.222 32.6187 30.3121 32.3933 30.6486C32.168 30.985 32.258 31.4405 32.5945 31.6658L35.7709 33.7935L34.6466 34.3887C33.7873 34.8435 32.7614 34.8435 31.9019 34.3886H31.902L23.4377 29.9071C23.203 29.7829 23.1776 29.5636 23.1776 29.4751C23.1776 29.3867 23.203 29.1675 23.4376 29.0432L31.9027 24.5617C32.762 24.1068 33.7879 24.1068 34.6473 24.5617L43.1122 29.0431C43.347 29.1674 43.3724 29.3867 43.3723 29.4751C43.3722 29.5636 43.3469 29.7829 43.1121 29.9071Z" fill="black"/>
    <path d="M19.5692 11.4208C19.1642 11.4208 18.8359 11.0926 18.8359 10.6876V9.51447C18.8359 9.10954 19.1642 8.78125 19.5692 8.78125C19.9741 8.78125 20.3024 9.10954 20.3024 9.51447V10.6876C20.3024 11.0926 19.9741 11.4208 19.5692 11.4208Z" fill="black"/>
    <path d="M31.7801 11.4208C31.3752 11.4208 31.0469 11.0926 31.0469 10.6876V9.51447C31.0469 9.10954 31.3752 8.78125 31.7801 8.78125C32.185 8.78125 32.5133 9.10954 32.5133 9.51447V10.6876C32.5133 11.0926 32.1851 11.4208 31.7801 11.4208Z" fill="black"/>
    <path d="M28.5191 10.6562C28.1141 10.6562 27.7859 10.9845 27.7859 11.3895C27.7859 11.7644 27.4808 12.0695 27.1058 12.0695C26.7308 12.0695 26.4258 11.7645 26.4258 11.3895C26.4258 10.9845 26.0975 10.6562 25.6926 10.6562C25.2876 10.6562 24.9593 10.9845 24.9593 11.3895C24.9593 11.7644 24.6543 12.0695 24.2793 12.0695C23.9043 12.0695 23.5993 11.7645 23.5993 11.3895C23.5993 10.9845 23.271 10.6562 22.866 10.6562C22.4611 10.6562 22.1328 10.9845 22.1328 11.3895C22.1328 12.573 23.0957 13.536 24.2793 13.536C24.82 13.536 25.3147 13.335 25.6926 13.0037C26.0704 13.335 26.565 13.536 27.1058 13.536C28.2893 13.536 29.2523 12.5731 29.2523 11.3895C29.2523 10.9845 28.924 10.6562 28.5191 10.6562Z" fill="black"/>
  </g>
  <defs>
    <clipPath id="clip0_3224_28349">
      <rect width="50.0546" height="50.0546" fill="white" transform="translate(0.648438 0.761719)"/>
    </clipPath>
  </defs>
</svg>