<svg xmlns="http://www.w3.org/2000/svg" width="50" height="51" viewBox="0 0 50 51" fill="none">
  <g clip-path="url(#clip0_3224_28855)">
    <path d="M42.9075 20.6668L36.82 31.639H25.5061C-5.94386 17.1705 20.0816 1.67304 20.0816 1.67304C20.929 1.85366 21.7638 2.1739 22.5634 2.63766C23.16 2.98427 23.8922 2.98524 24.4907 2.63971C26.0225 1.75544 27.7536 1.3486 29.5247 1.55109V1.55304C34.1142 2.07978 37.2997 6.28235 38.1332 10.9259C38.6116 13.5953 39.7724 15.9873 41.3727 17.8746C42.0326 18.6536 42.5599 19.6037 42.9075 20.6668Z" fill="#DF8A57"/>
    <path d="M25.5068 31.6399H10.2348C7.67486 31.6399 5.40486 29.78 4.33284 27.099C3.07443 23.9494 3.69333 20.2213 5.68312 17.8754C7.28334 15.9872 8.44324 13.5932 8.92262 10.9248C10.0083 4.88636 14.7834 0.549835 20.0822 1.674C16.8222 5.01602 11.1018 12.9937 20.2414 21.2985C24.4611 25.1326 25.6894 28.6671 25.5068 31.6399Z" fill="#C76D33"/>
    <path d="M37.4758 20.6045H18.195C9.4372 16.6483 15.4515 9.95059 15.4515 9.95059C17.7312 8.33084 20.5187 7.37891 23.5278 7.37891C30.7449 7.37891 36.684 12.8533 37.4182 19.8761C37.4435 20.1172 37.4631 20.3604 37.4758 20.6045Z" fill="#EAAA83"/>
    <path d="M19.5114 20.607H9.57812C9.80122 16.3169 11.9857 12.4118 15.4499 9.95312C14.906 13.138 15.7105 16.8265 19.5114 20.607Z" fill="#DF8A57"/>
    <path d="M43.3095 25.5098L39.5776 29.2406L38.0003 32.2049H31.0391L35.3398 24.7413L38.9402 21.1406L42.6276 21.7952L43.3095 25.5098Z" fill="#83DEFF"/>
    <path d="M30.5703 50.0173H17.9493C16.1565 50.0173 14.7031 48.5639 14.7031 46.7712V42.666C14.7031 37.388 18.9818 33.1094 24.2598 33.1094C29.5377 33.1094 33.8164 37.3881 33.8164 42.666V46.7712C33.8164 48.5639 32.3631 50.0173 30.5703 50.0173Z" fill="#83DEFF"/>
    <path d="M18.9571 34.5536C5.85066 25.2607 15.7889 18.0963 15.7889 18.0963C19.0088 16.9491 21.0875 15.1468 22.2718 13.8248C22.9435 13.074 24.1132 13.074 24.7859 13.8248C26.553 15.799 30.3168 18.8462 36.8964 19.1771C37.1454 19.1898 37.3524 19.3802 37.3836 19.6292C38.6823 29.9248 28.6753 37.9107 18.9571 34.5536Z" fill="#FFDDCF"/>
    <path d="M18.9584 34.5549C12.907 32.4675 8.821 26.3556 9.6753 19.6276C9.70654 19.3796 9.91255 19.1912 10.1605 19.1785C12.3349 19.0691 14.2016 18.663 15.7901 18.0977C14.6625 22.3037 13.9732 29.1578 18.9584 34.5549Z" fill="#FFCBBE"/>
    <path d="M16.1807 26.4107C17.782 26.4107 19.0801 25.377 19.0801 24.1018C19.0801 22.8267 17.782 21.793 16.1807 21.793C14.5794 21.793 13.2812 22.8267 13.2812 24.1018C13.2812 25.377 14.5794 26.4107 16.1807 26.4107Z" fill="#F98797"/>
    <path d="M31.8994 26.4107C33.5008 26.4107 34.7989 25.377 34.7989 24.1018C34.7989 22.8267 33.5008 21.793 31.8994 21.793C30.2981 21.793 29 22.8267 29 24.1018C29 25.377 30.2981 26.4107 31.8994 26.4107Z" fill="#F98797"/>
    <path d="M24.039 24.05C24.889 24.05 25.578 23.2789 25.578 22.3277C25.578 21.3766 24.889 20.6055 24.039 20.6055C23.189 20.6055 22.5 21.3766 22.5 22.3277C22.5 23.2789 23.189 24.05 24.039 24.05Z" fill="#3E4F61"/>
    <path d="M26.8386 42.6675C25.4176 42.6675 24.2656 41.5156 24.2656 40.0946V34.2136C24.2656 32.7926 25.4176 31.6406 26.8386 31.6406C28.2596 31.6406 29.4115 32.7926 29.4115 34.2136V40.0946C29.4115 41.5156 28.2596 42.6675 26.8386 42.6675Z" fill="#F6334C"/>
    <path d="M42.639 35.3157L39.8915 42.6676L35.5995 41.91C24.8305 36.2511 34.9844 28.8309 34.9844 28.8309L39.8915 27.9648L42.639 35.3157Z" fill="#FF8A98"/>
    <path d="M35.6021 41.911L32.3685 41.3399C29.6591 40.8624 27.6196 38.735 27.2603 36.1369C26.8082 32.8658 29.0871 29.8735 32.3685 29.2937L34.987 28.832C33.5138 31.6261 31.3962 37.3563 35.6021 41.911Z" fill="#FD5C6F"/>
    <path d="M46.3198 21.22C46.3198 22.0119 46.0171 22.8028 45.4155 23.4045L43.3144 25.5066L38.9453 21.1376L41.0464 19.0365C42.9971 17.0857 46.3198 18.4948 46.3198 21.22Z" fill="#FFDDCF"/>
    <path d="M42.2761 25.7578C40.8551 25.7578 39.7031 26.9 39.7031 28.309L39.7064 42.4512C39.7754 43.7992 40.8994 44.8712 42.2761 44.8712C43.6971 44.8712 44.849 43.729 44.849 42.3199V28.309C44.849 26.9 43.6971 25.7578 42.2761 25.7578Z" fill="#FCEC78"/>
    <path d="M23.4593 38.6786L26.8009 42.0949L23.4593 45.545C21.8294 45.3773 20.2397 44.8639 18.7837 44.0159C14.0999 41.2895 13.4424 36.8103 13.3435 36.6018C12.871 34.7921 13.9771 32.9481 15.8131 32.4825C17.6501 32.017 19.5218 33.1059 19.9952 34.9157L20.107 35.3469C20.5464 37.0268 21.8687 38.2573 23.4593 38.6786Z" fill="#2ECEFB"/>
    <path d="M27.5652 45.2423C26.2053 45.587 24.8199 45.6861 23.4609 45.5445V38.6782C24.22 38.8794 25.0396 38.8956 25.8537 38.6899C27.6907 38.2235 29.5623 39.3133 30.0348 41.123C30.5074 42.9328 29.4012 44.7769 27.5652 45.2423Z" fill="#FFDDCF"/>
    <path d="M46.0115 18.6084C44.953 17.4842 43.4058 17.1616 42.0674 17.587C40.4771 15.6104 39.3634 13.6287 38.857 10.8041C37.9479 5.74944 34.4713 1.42228 29.6662 0.839894C29.6481 0.836379 29.6297 0.833645 29.6112 0.831497C27.7362 0.617483 25.8399 1.02579 24.1264 2.01365C23.7592 2.2262 23.3026 2.22513 22.9342 2.01131C16.7284 -1.58837 9.61893 2.94079 8.2046 10.8013C7.76085 13.2725 6.69674 15.5569 5.12746 17.4078C2.90726 20.0249 2.31589 24.0313 3.65543 27.3766C4.8701 30.4156 7.4536 32.3791 10.2373 32.3791H13.7999C13.8777 32.4478 13.956 32.5159 14.0355 32.5831C11.613 34.5589 12.5399 37.9222 14.1901 40.5772C13.9011 41.9391 13.9767 42.9238 13.9767 46.7791C13.9767 48.9729 15.7611 50.7577 17.9544 50.7577H20.5891C20.9935 50.7577 21.3214 50.4299 21.3214 50.0254C21.3214 49.6209 20.9935 49.2932 20.5891 49.2932H17.9544C16.5686 49.2932 15.4413 48.1653 15.4413 46.7791C15.4413 44.4009 15.4156 43.1289 15.4543 42.2592C18.3761 45.5051 23.0631 47.1471 27.7474 45.9597C29.7713 45.4468 31.0091 43.585 30.8669 41.6789C31.607 41.9621 32.3317 42.0914 33.0777 42.2171C33.1033 42.7822 33.0895 43.7252 33.0895 46.7791C33.0895 48.1653 31.9618 49.2932 30.5755 49.2932H23.5296C23.1252 49.2932 22.7973 49.6209 22.7973 50.0254C22.7973 50.4299 23.1252 50.7577 23.5296 50.7577H30.5755C32.7693 50.7577 34.5541 48.9729 34.5541 46.7791C34.5541 44.3506 34.5644 43.1304 34.5508 42.474L39.1109 43.279C39.5219 44.6351 40.7875 45.6117 42.2758 45.6117C44.0983 45.6117 45.581 44.1387 45.581 42.3281V37.5282C45.581 37.1237 45.2531 36.796 44.8487 36.796C44.4443 36.796 44.1165 37.1237 44.1165 37.5282V42.3281C44.1165 43.3311 43.2907 44.1472 42.2758 44.1472C41.2635 44.1472 40.4351 43.3404 40.4351 42.3281V28.3172C40.4351 27.3143 41.2608 26.4983 42.2758 26.4983C43.2907 26.4983 44.1165 27.3142 44.1165 28.3172V34.5878C44.1165 34.9923 44.4443 35.32 44.8487 35.32C45.2531 35.32 45.581 34.9923 45.581 34.5878V28.3172C45.581 27.2229 45.0388 26.2526 44.2079 25.6557L45.9325 23.9305C47.4029 22.46 47.4376 20.1223 46.0115 18.6084ZM5.01518 26.8327C3.88946 24.0213 4.39481 20.5353 6.2442 18.355C7.98024 16.3074 9.15654 13.7849 9.64578 11.0605C10.8898 4.14657 16.9435 0.229777 22.1987 3.27782C23.0194 3.75457 24.039 3.75584 24.8587 3.28183C30.2188 0.191602 36.197 4.28834 37.4155 11.0629C38.0927 14.8401 39.8288 17.133 40.7678 18.3073C40.5754 18.4702 40.6789 18.3755 38.219 20.8353C37.6939 7.78111 21.8802 1.88565 12.9414 11.1617C7.58785 16.7174 7.53493 25.2767 12.3567 30.9145H10.2373C8.0561 30.9147 6.00637 29.3126 5.01518 26.8327ZM38.9706 41.7671C31.6774 40.4798 31.3581 40.5297 30.1146 39.6008C29.8277 39.2002 29.4725 38.8577 29.0699 38.5847C26.5979 35.5091 28.3579 30.7487 32.4984 30.0206L38.9707 28.8778V41.7671H38.9706ZM15.439 31.8356C11.7845 29.0112 9.86136 24.4887 10.3797 19.9063C17.2032 19.5093 21.0976 16.243 22.8179 14.3202C23.1934 13.9011 23.854 13.8874 24.2411 14.3199C25.9628 16.2431 29.8579 19.509 36.6783 19.9061C36.9971 22.6825 36.4564 25.5352 34.9255 28.105L32.2432 28.5786C30.4993 28.8853 28.9969 29.7908 27.9573 31.1094C26.3462 30.5298 24.5699 31.2867 23.8511 32.8061C23.6152 33.3025 23.5461 33.5321 23.5294 34.5879C22.5503 34.5881 21.6588 34.4981 20.5404 34.2467C19.6975 32.1656 17.4364 31.2208 15.439 31.8356ZM10.6123 18.4222C12.9642 8.12048 25.6981 4.78188 32.8276 11.924C34.6237 13.7233 35.8606 15.9758 36.4231 18.4207C30.339 17.9684 26.8743 15.0657 25.3325 13.3433C24.3698 12.2673 22.6905 12.268 21.727 13.3433C20.184 15.0679 16.7134 17.9755 10.6123 18.4222ZM23.5264 36.0594L23.5324 37.9421C22.4384 37.6167 21.5464 36.8493 21.0705 35.8509C21.8319 35.9793 22.6778 36.0594 23.5264 36.0594ZM24.9971 38.0973C24.9906 33.8545 24.9494 33.907 25.1743 33.4334C25.5152 32.713 26.3092 32.2627 27.1504 32.4066C26.3286 34.1279 26.2315 36.0947 26.9595 37.866C25.9829 37.8079 25.7912 38.0353 24.9971 38.0973ZM15.583 40.0378C10.9086 32.9451 18.211 30.9621 19.4027 35.5393C19.8449 37.2307 21.0962 38.5978 22.731 39.2181V44.7094C19.8862 44.2005 17.2245 42.5267 15.583 40.0378ZM27.3876 44.54C26.3335 44.8073 25.2631 44.9184 24.1955 44.8722V39.5545C24.7369 39.6088 25.404 39.5669 26.0362 39.4071C27.4813 39.04 28.958 39.8964 29.3286 41.3155C29.697 42.7264 28.8374 44.1726 27.3876 44.54ZM39.1127 27.3656L36.7658 27.78C37.5087 26.2612 37.9732 24.6445 38.1499 22.9756L38.9444 22.1813L41.8279 25.0648C40.538 25.2393 39.4824 26.1553 39.1127 27.3656ZM44.8969 22.8951L43.3135 24.4792L39.9801 21.1458L41.5633 19.5625C42.4799 18.6461 44.0146 18.624 44.9453 19.6124C45.8251 20.5463 45.8038 21.9882 44.8969 22.8951Z" fill="black"/>
    <path d="M24.0447 24.788C25.2971 24.788 26.316 23.6869 26.316 22.3334C26.316 20.9799 25.2971 19.8789 24.0447 19.8789C22.7923 19.8789 21.7734 20.9799 21.7734 22.3334C21.7734 23.6869 22.7923 24.788 24.0447 24.788ZM24.0447 21.3435C24.4895 21.3435 24.8515 21.7877 24.8515 22.3335C24.8515 22.8794 24.4895 23.3235 24.0447 23.3235C23.5999 23.3235 23.238 22.8794 23.238 22.3335C23.238 21.7877 23.5999 21.3435 24.0447 21.3435Z" fill="black"/>
    <path d="M17.6665 21.3036C17.6665 20.996 17.9168 20.7458 18.2243 20.7458C18.5319 20.7458 18.7821 20.9959 18.7821 21.3036C18.7821 21.7081 19.11 22.0358 19.5144 22.0358C19.9188 22.0358 20.2466 21.7081 20.2466 21.3036C20.2466 20.1885 19.3394 19.2812 18.2243 19.2812C16.1998 19.2812 15.5586 22.0358 16.9343 22.0358C17.3387 22.0358 17.6665 21.7081 17.6665 21.3036Z" fill="black"/>
    <path d="M28.4635 22.0358C28.8679 22.0358 29.1958 21.7081 29.1958 21.3036C29.1958 20.996 29.4459 20.7458 29.7535 20.7458C30.061 20.7458 30.3112 20.9959 30.3112 21.3036C30.3112 21.7081 30.6391 22.0358 31.0435 22.0358C32.4104 22.0358 31.7824 19.2812 29.7535 19.2812C27.7253 19.2812 27.0945 22.0358 28.4635 22.0358Z" fill="black"/>
  </g>
  <defs>
    <clipPath id="clip0_3224_28855">
      <rect width="50" height="50" fill="white" transform="translate(0 0.757812)"/>
    </clipPath>
  </defs>
</svg>