<svg xmlns="http://www.w3.org/2000/svg" width="50" height="51" viewBox="0 0 50 51" fill="none">
  <path d="M36.4525 44.7698C36.4525 47.6713 33.6395 50.0235 30.1695 50.0235H7.15801C3.68801 50.0235 0.875 47.6713 0.875 44.7698V6.74591C0.875 3.84437 3.68801 1.49219 7.15801 1.49219H30.1695C33.6395 1.49219 36.4525 3.84437 36.4525 6.74591V44.7698Z" fill="#B5ACB6"/>
  <path d="M7.92649 44.7698V6.74591C7.92649 3.84437 10.7395 1.49219 14.2095 1.49219H7.15789C3.68801 1.49219 0.875 3.84437 0.875 6.74591V44.7698C0.875 47.6713 3.68801 50.0235 7.15801 50.0235H14.2096C10.7395 50.0236 7.92649 47.6714 7.92649 44.7698Z" fill="#A79BA7"/>
  <path d="M29.7656 11.2227H36.448V33.071H29.7656V11.2227Z" fill="#A79BA7"/>
  <path d="M32.9478 44.7683C32.9478 46.0488 31.7063 47.0869 30.175 47.0869H7.16351C5.63204 47.0869 4.39062 46.0487 4.39062 44.7683V6.74441C4.39062 5.46383 5.63204 4.42578 7.16351 4.42578H9.9413C10.3353 4.42578 10.7098 4.56852 10.9682 4.81703L12.4471 6.23908C12.5775 6.36461 12.7666 6.43661 12.9655 6.43661H24.3731C24.572 6.43661 24.7611 6.36461 24.8915 6.23908L26.3702 4.81703C26.6287 4.56852 27.0032 4.42578 27.3972 4.42578H30.175C31.7064 4.42578 32.9478 5.46383 32.9478 6.74441V44.7683Z" fill="#9BE5FB"/>
  <path d="M7.93199 44.7683V6.74441C7.93199 5.91192 8.16331 5.12521 8.5754 4.42578H7.16339C5.63204 4.42578 4.39062 5.46383 4.39062 6.74441V44.7683C4.39062 46.0488 5.63204 47.0869 7.16351 47.0869L8.5754 47.0866C8.16319 46.3873 7.93199 45.6007 7.93199 44.7683Z" fill="#65DAF9"/>
  <path d="M32.9419 11.2227H25.1082C19.6207 11.2227 15.1562 14.9557 15.1562 19.5442V32.7712C15.1562 33.6279 15.5861 34.4531 16.3355 35.0353C17.0225 35.5689 17.9171 35.8627 18.8546 35.8627C19.9033 35.8627 20.9067 35.4874 21.6072 34.833L23.4936 33.0711H32.9419V11.2227Z" fill="#65DAF9"/>
  <path d="M42.6774 30.1383H22.4508C22.1146 30.1383 21.7943 30.2581 21.57 30.4674L18.9896 32.8776C18.8754 32.9843 18.6641 32.9168 18.6641 32.7736V19.5466C18.6641 16.5717 21.5481 14.1602 25.1058 14.1602H42.6774C46.2352 14.1602 49.1192 16.5717 49.1192 19.5466V24.7518C49.1192 27.7267 46.2352 30.1383 42.6774 30.1383Z" fill="#FEE565"/>
  <path d="M20.9073 19.5466C20.9073 16.5717 23.7913 14.1602 27.349 14.1602H25.1058C21.5481 14.1602 18.6641 16.5717 18.6641 19.5466V32.7736C18.6641 32.9168 18.8754 32.9844 18.9896 32.8776L20.9073 31.0865V19.5466Z" fill="#FDE044"/>
  <path d="M25.8174 43.1098H11.5047C10.5357 43.1098 9.75 42.453 9.75 41.6426V38.6548C9.75 37.8444 10.5356 37.1875 11.5047 37.1875H25.8174C26.7864 37.1875 27.5721 37.8444 27.5721 38.6548V41.6426C27.5721 42.453 26.7864 43.1098 25.8174 43.1098Z" fill="#65DAF9"/>
  <path d="M36.455 32.337C35.9704 32.337 35.5775 32.6655 35.5775 33.0708V44.7692C35.5775 47.2614 33.1525 49.2891 30.172 49.2891H7.16054C4.17997 49.2891 1.75506 47.2614 1.75506 44.7692V6.7454C1.75506 4.25302 4.17997 2.22536 7.16054 2.22536H30.1719C33.1524 2.22536 35.5773 4.25302 35.5773 6.7454V11.2225C35.5773 11.6277 35.9702 11.9563 36.4549 11.9563C36.9395 11.9563 37.3324 11.6277 37.3324 11.2225V6.7454C37.3324 3.44381 34.1202 0.757812 30.1719 0.757812H7.16054C3.21212 0.757812 0 3.44381 0 6.7454V44.7693C0 48.0707 3.21223 50.7567 7.16054 50.7567H30.1719C34.1203 50.7567 37.3324 48.0707 37.3324 44.7693V33.0708C37.3325 32.6655 36.9396 32.337 36.455 32.337Z" fill="black"/>
  <path d="M32.9504 11.9547C33.435 11.9547 33.8279 11.6261 33.8279 11.2209V6.74381C33.8279 5.06073 32.1903 3.69141 30.1775 3.69141H27.3997C26.7515 3.69141 26.1358 3.92592 25.7105 4.33497L24.2888 5.70224H13.0547L11.6329 4.33497C11.2077 3.92592 10.592 3.69141 9.94384 3.69141H7.16604C5.15322 3.69141 3.51562 5.06073 3.51562 6.74381V13.0111C3.51562 13.4164 3.90853 13.7449 4.39316 13.7449C4.87779 13.7449 5.27069 13.4164 5.27069 13.0111V6.74381C5.27069 5.86993 6.12096 5.15895 7.16604 5.15895H9.94384C10.0838 5.15895 10.2168 5.20963 10.3085 5.29788L11.7871 6.71974C12.0844 7.00571 12.5148 7.16969 12.9679 7.16969H24.3756C24.8288 7.16969 25.259 7.00571 25.5563 6.71984L27.035 5.29778C27.1268 5.20953 27.2598 5.15886 27.3997 5.15886H30.1775C31.2226 5.15886 32.0728 5.86983 32.0728 6.74371V11.2208C32.0728 11.6262 32.4657 11.9547 32.9504 11.9547Z" fill="black"/>
  <path d="M4.39316 15.4062C3.90853 15.4062 3.51562 15.7348 3.51562 16.14V44.7694C3.51562 46.4525 5.15322 47.8218 7.16604 47.8218H30.1775C32.1903 47.8218 33.8279 46.4525 33.8279 44.7694V33.071C33.8279 32.6658 33.435 32.3372 32.9504 32.3372C32.4657 32.3372 32.0728 32.6658 32.0728 33.071V44.7694C32.0728 45.6433 31.2226 46.3543 30.1775 46.3543H7.16604C6.12096 46.3543 5.27069 45.6433 5.27069 44.7694V16.14C5.27069 15.7348 4.87779 15.4062 4.39316 15.4062Z" fill="black"/>
  <path d="M42.6799 13.4258H40.7317C40.2471 13.4258 39.8542 13.7543 39.8542 14.1596C39.8542 14.5648 40.2471 14.8933 40.7317 14.8933H42.6799C45.7481 14.8933 48.2442 16.9805 48.2442 19.546V24.7512C48.2442 27.3168 45.7481 29.4039 42.6799 29.4039H21.9249C21.6754 29.4039 21.4376 29.4928 21.2711 29.6483L19.5441 31.2615V19.546C19.5441 16.9806 22.0402 14.8933 25.1084 14.8933H36.9919C37.4765 14.8933 37.8694 14.5648 37.8694 14.1596C37.8694 13.7543 37.4765 13.4258 36.9919 13.4258H25.1084C21.0724 13.4258 17.7891 16.1714 17.7891 19.546V33.1812C17.7891 33.4854 18.0135 33.7581 18.3533 33.8667C18.4553 33.8992 18.5613 33.9151 18.6664 33.9151C18.9111 33.9151 19.1505 33.8293 19.3203 33.6707L22.317 30.8716H42.6799C46.7159 30.8716 49.9993 28.126 49.9993 24.7513V19.5461C49.9993 16.1714 46.7159 13.4258 42.6799 13.4258Z" fill="black"/>
  <path d="M36.1887 26.1567C36.6733 26.1567 37.0662 25.8282 37.0662 25.423V19.5268C37.0662 19.1959 36.8011 18.9058 36.4192 18.8188C36.0374 18.7318 35.6329 18.8696 35.4322 19.155L33.6581 21.678L31.884 19.155C31.6833 18.8696 31.2788 18.732 30.897 18.8188C30.515 18.9058 30.25 19.1959 30.25 19.5268V25.423C30.25 25.8282 30.6429 26.1567 31.1275 26.1567C31.6122 26.1567 32.0051 25.8282 32.0051 25.423V22.2224L32.6205 23.0977C32.8358 23.4038 33.2334 23.5941 33.6581 23.5941C34.0828 23.5941 34.4804 23.4039 34.6957 23.0977L35.3111 22.2224V25.423C35.3111 25.8282 35.704 26.1567 36.1887 26.1567Z" fill="black"/>
  <path d="M26.9859 20.2605C27.4705 20.2605 27.8634 19.932 27.8634 19.5267C27.8634 19.1215 27.4705 18.793 26.9859 18.793H23.321C22.4591 18.793 21.7579 19.3793 21.7579 20.1V21.9015C21.7579 22.6222 22.4591 23.2085 23.321 23.2085H26.1084V24.689H22.6353C22.1507 24.689 21.7578 25.0175 21.7578 25.4228C21.7578 25.828 22.1507 26.1565 22.6353 26.1565H26.3003C27.1621 26.1565 27.8633 25.5702 27.8633 24.8495V23.0479C27.8633 22.3272 27.1621 21.7409 26.3003 21.7409H23.5129V20.2603H26.9859V20.2605Z" fill="black"/>
  <path d="M40.5494 24.6892C40.0648 24.6892 39.6719 25.0177 39.6719 25.423C39.6719 25.8282 40.0648 26.1567 40.5494 26.1567H44.2143C45.0762 26.1567 45.7774 25.5704 45.7774 24.8497V23.0481C45.7774 22.3274 45.0762 21.7411 44.2143 21.7411H41.4269V20.2605H44.8999C45.3845 20.2605 45.7774 19.932 45.7774 19.5267C45.7774 19.1215 45.3845 18.793 44.8999 18.793H41.2349C40.3731 18.793 39.6719 19.3793 39.6719 20.1V21.9015C39.6719 22.6222 40.3731 23.2085 41.2349 23.2085H44.0223V24.689H40.5494V24.6892Z" fill="black"/>
  <path d="M25.8199 36.4531H11.5072C10.0558 36.4531 8.875 37.4405 8.875 38.6542V41.6421C8.875 42.8556 10.0558 43.843 11.5072 43.843H13.7424C14.227 43.843 14.6199 43.5145 14.6199 43.1092C14.6199 42.704 14.227 42.3755 13.7424 42.3755H11.5072C11.0235 42.3755 10.6301 42.0464 10.6301 41.6421V38.6542C10.6301 38.2497 11.0235 37.9207 11.5072 37.9207H25.8199C26.3036 37.9207 26.6971 38.2497 26.6971 38.6542V41.6421C26.6971 42.0464 26.3036 42.3755 25.8199 42.3755H17.4822C16.9975 42.3755 16.6046 42.704 16.6046 43.1092C16.6046 43.5145 16.9975 43.843 17.4822 43.843H25.8199C27.2713 43.843 28.4521 42.8556 28.4521 41.6421V38.6542C28.4521 37.4405 27.2712 36.4531 25.8199 36.4531Z" fill="black"/>
</svg>