<svg xmlns="http://www.w3.org/2000/svg" width="50" height="51" viewBox="0 0 50 51" fill="none">
  <g clip-path="url(#clip0_3224_28982)">
    <path fill-rule="evenodd" clip-rule="evenodd" d="M14.8815 16.5575C14.3333 17.5117 14.484 18.7267 15.2645 19.5064L18.3648 22.6067C17.6579 24.1148 17.0932 25.9102 16.6597 27.7964L17.8663 27.473C19.0429 27.1577 20.2524 27.8561 20.5677 29.0326C20.883 30.2093 20.1846 31.4187 19.0081 31.734L14.9909 32.803L15.5407 37.6311H20.0981H25H29.902H34.4594L35.0093 32.803L30.9921 31.734C29.8155 31.4187 29.1172 30.2093 29.4325 29.0326C29.7478 27.856 30.9572 27.1577 32.1339 27.473L33.3404 27.7964C32.907 25.9102 32.3422 24.1149 31.6352 22.6067L34.7355 19.5064C35.5161 18.7267 35.6668 17.5117 35.1185 16.5575L31.9453 11.0615C31.5587 10.2162 30.7056 9.62891 29.7154 9.62891H20.2847C19.2945 9.62891 18.4415 10.2163 18.0548 11.0615L14.8815 16.5575Z" fill="#D46B5C"/>
    <path d="M24.9997 9.58142C27.1655 9.58142 28.9213 7.82567 28.9213 5.65985C28.9213 3.49403 27.1655 1.73828 24.9997 1.73828C22.8339 1.73828 21.0781 3.49403 21.0781 5.65985C21.0781 7.82567 22.8339 9.58142 24.9997 9.58142Z" fill="#D46B5C"/>
    <path fill-rule="evenodd" clip-rule="evenodd" d="M29.7087 9.62891H20.278C19.2878 9.62891 18.4348 10.2163 18.0481 11.0615L16.3914 13.931L20.6183 16.3714L20.0459 17.3627L21.8241 19.1409C22.7811 20.0979 22.7811 21.6496 21.8241 22.6067C20.867 23.5637 19.3154 23.5637 18.3583 22.6067C17.6513 24.1148 17.0866 25.9102 16.6532 27.7964L17.8598 27.473C19.0363 27.1577 20.2458 27.8561 20.5611 29.0326C20.8764 30.2093 20.1781 31.4187 19.0015 31.734L14.9844 32.803L15.5342 37.6311H20.0915H24.9935H29.8955H34.4529L35.0027 32.803L30.9856 31.734C29.809 31.4187 29.1107 30.2093 29.4259 29.0326C29.7412 27.856 30.9507 27.1577 32.1273 27.473L33.3339 27.7964C32.9005 25.9102 32.3356 24.1149 31.6287 22.6067C30.6716 23.5637 29.1199 23.5637 28.1629 22.6067C27.2058 21.6496 27.2058 20.0979 28.1629 19.1409L29.941 17.3627L29.3687 16.3714L33.5956 13.9311L31.9389 11.0616C31.5519 10.2163 30.6989 9.62891 29.7087 9.62891Z" fill="#67CCD1"/>
    <path fill-rule="evenodd" clip-rule="evenodd" d="M17.7717 24.0066C17.3308 25.1788 16.9593 26.4654 16.6532 27.7973L17.8598 27.474C19.0363 27.1587 20.2458 27.857 20.5611 29.0336C20.8764 30.2102 20.1781 31.4196 19.0015 31.7349L14.9844 32.804L15.5342 37.632H18.9877L18.7288 35.3583L19.884 35.0509C22.8809 34.2535 24.6781 31.1402 23.8756 28.1455C23.145 25.4191 20.4996 23.687 17.7717 24.0066ZM30.9993 37.6321H34.4528L35.0026 32.8041L30.9855 31.735C29.8089 31.4197 29.1106 30.2103 29.4258 29.0337C29.7411 27.857 30.9506 27.1588 32.1272 27.4741L33.3338 27.7974C33.0277 26.4655 32.6561 25.1789 32.2153 24.0067C29.4874 23.6871 26.842 25.4192 26.1114 28.1457C25.309 31.1404 27.1061 34.2537 30.1031 35.0511L31.2583 35.3585L30.9993 37.6321Z" fill="#27A2CC"/>
    <path fill-rule="evenodd" clip-rule="evenodd" d="M24.9957 37.6328H20.0938V47.3267C20.0938 48.6748 21.1967 49.7777 22.5447 49.7777C23.8928 49.7777 24.9957 48.6747 24.9957 47.3267V37.6328Z" fill="#D46B5C"/>
    <path fill-rule="evenodd" clip-rule="evenodd" d="M25 37.6328V47.3267C25 48.6748 26.1029 49.7777 27.451 49.7777C28.799 49.7777 29.902 48.6747 29.902 47.3267V37.6328H25Z" fill="#D46B5C"/>
    <path fill-rule="evenodd" clip-rule="evenodd" d="M34.4542 37.6315L34.0236 41.413H35.3873H39.799H44.2108H45.5744L44.594 32.8035L48.3685 28.5388C49.2299 27.6774 49.2299 26.2808 48.3685 25.4195C47.5072 24.5581 46.1106 24.5581 45.2492 25.4195L41.6308 29.0379H37.9674L33.3352 27.7967L32.1286 27.4734C30.9521 27.1581 29.7426 27.8564 29.4273 29.033C29.112 30.2097 29.8103 31.4191 30.9869 31.7344L35.004 32.8034L34.4542 37.6315Z" fill="#FDCB50"/>
    <path fill-rule="evenodd" clip-rule="evenodd" d="M39.8024 41.4141H35.3906V47.5716C35.3906 48.7848 36.3833 49.7775 37.5965 49.7775C38.8097 49.7775 39.8024 48.7848 39.8024 47.5716V41.4141Z" fill="#FDBEB9"/>
    <path fill-rule="evenodd" clip-rule="evenodd" d="M39.8047 41.4141V47.5716C39.8047 48.7848 40.7973 49.7775 42.0106 49.7775C43.2238 49.7775 44.2165 48.7848 44.2165 47.5716V41.4141H39.8047Z" fill="#FDBEB9"/>
    <path d="M39.8006 28.9761C41.4249 28.9761 42.7417 27.6593 42.7417 26.0349C42.7417 24.4106 41.4249 23.0938 39.8006 23.0938C38.1762 23.0938 36.8594 24.4106 36.8594 26.0349C36.8594 27.6593 38.1762 28.9761 39.8006 28.9761Z" fill="#FDBEB9"/>
    <path d="M12.8675 27.2402C13.5367 25.7604 12.8796 24.0183 11.3998 23.349C9.92002 22.6798 8.17788 23.3369 7.50864 24.8167C6.8394 26.2965 7.49649 28.0386 8.97629 28.7079C10.4561 29.3771 12.1982 28.72 12.8675 27.2402Z" fill="#D46B5C"/>
    <path fill-rule="evenodd" clip-rule="evenodd" d="M12.0239 29.0379H8.36044L4.74191 25.4195C3.88053 24.5581 2.48396 24.5581 1.62259 25.4195C0.761219 26.2808 0.761219 27.6774 1.62259 28.5388L5.3971 32.8035L4.41671 41.413H5.78034H10.1921H14.6039H15.9675L15.5369 37.6315L14.9871 32.8035L19.0043 31.7345C20.1808 31.4192 20.8792 30.2098 20.5639 29.0331C20.2486 27.8564 19.0391 27.1582 17.8625 27.4735L16.6559 27.7968L12.0239 29.0379Z" fill="#FDCB50"/>
    <path fill-rule="evenodd" clip-rule="evenodd" d="M10.193 41.4141H5.78125V47.5716C5.78125 48.7848 6.7738 49.7775 7.98713 49.7775C9.20047 49.7775 10.193 48.7849 10.193 47.5716V41.4141Z" fill="#D46B5C"/>
    <path fill-rule="evenodd" clip-rule="evenodd" d="M10.1953 41.4141V47.5716C10.1953 48.7848 11.1879 49.7775 12.4012 49.7775C13.6145 49.7775 14.6071 48.7849 14.6071 47.5716V41.4141H10.1953Z" fill="#D46B5C"/>
    <path d="M49.9996 26.98C49.9996 26.1289 49.6682 25.3288 49.0665 24.7271C48.4647 24.1254 47.6646 23.794 46.8136 23.794C45.9626 23.794 45.1625 24.1254 44.5608 24.7271L43.6999 25.588C43.4768 23.6361 41.8146 22.1149 39.8038 22.1149C37.6415 22.1149 35.8823 23.8741 35.8823 26.0364C35.8823 26.5707 35.9897 27.0803 36.184 27.5448L34.1583 27.002C33.7728 25.4367 33.3187 24.0357 32.8047 22.8247L35.4279 20.2014C36.5181 19.1127 36.7403 17.414 35.9672 16.0688L32.8153 10.6095C32.2486 9.41732 31.0374 8.64997 29.7151 8.64997H28.8817C29.521 7.82193 29.9018 6.78448 29.9018 5.65977C29.9018 2.95683 27.7027 0.757812 24.9998 0.757812C22.2969 0.757812 20.0978 2.95683 20.0978 5.65977C20.0978 6.78448 20.4786 7.82183 21.1179 8.64997H20.2844C18.9622 8.64997 17.7509 9.41742 17.1842 10.6095L14.0314 16.0706C13.2593 17.4141 13.4815 19.1127 14.5712 20.201L17.1949 22.8248C16.6809 24.0356 16.2269 25.4366 15.8413 27.0021L13.8157 27.5449C14.01 27.0804 14.1175 26.5708 14.1175 26.0365C14.1175 23.8742 12.3582 22.115 10.1959 22.115C8.1851 22.115 6.52294 23.6361 6.2998 25.5881L5.43892 24.7272C4.83716 24.1255 4.03706 23.7941 3.18608 23.7941C2.3351 23.7941 1.535 24.1255 0.933235 24.7272C0.331471 25.329 0 26.1291 0 26.9801C0 27.8203 0.322941 28.6108 0.910196 29.2098L4.37735 33.1272L3.44637 41.303C3.41471 41.5806 3.50304 41.8584 3.68902 42.0668C3.875 42.2752 4.14108 42.3944 4.42039 42.3944H4.80363V47.5713C4.80363 49.3282 6.23304 50.7576 7.9899 50.7576C8.8452 50.7576 9.62284 50.4189 10.1958 49.8685C10.7687 50.4189 11.5464 50.7576 12.4017 50.7576C14.1585 50.7576 15.5879 49.3282 15.5879 47.5713V42.3942H15.9712C16.2505 42.3942 16.5166 42.2751 16.7025 42.0666C16.8885 41.8582 16.9769 41.5804 16.9452 41.3028L16.6388 38.6126H19.1175V47.3261C19.1175 49.2182 20.6569 50.7575 22.5489 50.7575C23.5081 50.7575 24.3767 50.3619 24.9999 49.7253C25.6231 50.3618 26.4917 50.7575 27.4509 50.7575C29.3429 50.7575 30.8823 49.2182 30.8823 47.3261V38.6126H33.3609L33.0545 41.3028C33.0229 41.5804 33.1113 41.8582 33.2973 42.0666C33.4832 42.275 33.7493 42.3942 34.0286 42.3942H34.4119V47.5713C34.4119 49.3282 35.8413 50.7576 37.5981 50.7576C38.4534 50.7576 39.2311 50.4189 39.804 49.8685C40.377 50.4189 41.1546 50.7576 42.0099 50.7576C43.7668 50.7576 45.1962 49.3282 45.1962 47.5713V42.3942H45.5794C45.8587 42.3942 46.1248 42.2751 46.3108 42.0666C46.4968 41.8582 46.5851 41.5804 46.5535 41.3028L45.6225 33.127L49.0896 29.2096C49.6767 28.6107 49.9996 27.8202 49.9996 26.98ZM24.9997 2.7184C26.6215 2.7184 27.9409 4.03781 27.9409 5.65958C27.9409 7.28134 26.6215 8.60075 24.9997 8.60075C23.3779 8.60075 22.0585 7.28134 22.0585 5.65958C22.0584 4.03781 23.3778 2.7184 24.9997 2.7184ZM39.8037 24.0757C40.8849 24.0757 41.7645 24.9553 41.7645 26.0364C41.7645 27.1176 40.8849 27.9972 39.8037 27.9972C38.7225 27.9972 37.8429 27.1176 37.8429 26.0364C37.8429 24.9553 38.7225 24.0757 39.8037 24.0757ZM10.1956 24.0757C11.2768 24.0757 12.1564 24.9553 12.1564 26.0364C12.1564 27.1176 11.2768 27.9972 10.1956 27.9972C9.11441 27.9972 8.2348 27.1176 8.2348 26.0364C8.2348 24.9553 9.11441 24.0757 10.1956 24.0757ZM2.3602 27.8899C2.34706 27.875 2.33333 27.8605 2.31931 27.8463C2.08794 27.615 1.96049 27.3072 1.96049 26.98C1.96049 26.6527 2.08794 26.345 2.31941 26.1136C2.79706 25.6359 3.57451 25.6359 4.05216 26.1136L7.67059 29.732C7.85441 29.9159 8.10382 30.0192 8.36382 30.0192H12.0274C12.113 30.0192 12.1983 30.0079 12.2811 29.9858L18.1197 28.4212C18.4357 28.3366 18.766 28.38 19.0495 28.5437C19.3329 28.7073 19.5357 28.9715 19.6204 29.2877C19.7951 29.9397 19.4073 30.6123 18.7557 30.7879L14.7384 31.8568C14.2686 31.9818 13.9615 32.4322 14.0164 32.9152L14.8725 40.4334H5.51853L6.37461 32.9152C6.40608 32.6391 6.31882 32.3626 6.13471 32.1545L2.3602 27.8899ZM7.98961 48.7968C7.31382 48.7968 6.76412 48.2471 6.76412 47.5713V42.3942H9.2151V47.5713C9.2151 48.2471 8.66539 48.7968 7.98961 48.7968ZM13.6269 47.5713C13.6269 48.2471 13.0772 48.7968 12.4014 48.7968C11.7256 48.7968 11.1759 48.2471 11.1759 47.5713V42.3942H13.6269V47.5713ZM22.5486 48.7968C21.7377 48.7968 21.078 48.1371 21.078 47.3262V38.6127H24.0192V47.3262C24.0192 48.1372 23.3595 48.7968 22.5486 48.7968ZM28.9212 47.3263C28.9212 48.1372 28.2615 48.7969 27.4506 48.7969C26.6397 48.7969 25.98 48.1372 25.98 47.3263V38.6128H28.9212V47.3263ZM16.4153 36.652L16.0603 33.5342L19.2598 32.6828L19.2616 32.6824C20.9585 32.2276 21.969 30.4771 21.5143 28.7804C21.2941 27.9583 20.7669 27.2712 20.0299 26.8458C19.4125 26.4892 18.7097 26.352 18.0145 26.4465C18.2574 25.5822 18.5227 24.7838 18.8089 24.0571C19.2128 24.2207 19.6485 24.3063 20.0975 24.3063C21.014 24.3063 21.8756 23.9494 22.5236 23.3014C23.1717 22.6534 23.5286 21.7918 23.5286 20.8753C23.5286 19.9587 23.1717 19.0971 22.5237 18.4491L21.2775 17.2029L22.5363 15.0226C22.8071 14.5537 22.6464 13.9541 22.1775 13.6834C21.7084 13.4128 21.109 13.5734 20.8382 14.0422L19.2033 16.874C18.9815 17.2583 19.0454 17.7437 19.3591 18.0574L21.1374 19.8357C21.4151 20.1134 21.568 20.4825 21.568 20.8753C21.568 21.268 21.4151 21.6371 21.1374 21.9149C20.8596 22.1926 20.4905 22.3456 20.0977 22.3456C19.705 22.3456 19.3358 22.1926 19.0581 21.9149L15.9575 18.8141C15.4932 18.3505 15.4004 17.624 15.7307 17.0492L18.9038 11.5531C18.9193 11.5263 18.9334 11.4989 18.9464 11.4708C19.1854 10.9483 19.7107 10.6108 20.2847 10.6108H29.7154C30.2894 10.6108 30.8148 10.9483 31.0537 11.4708C31.0666 11.4989 31.0808 11.5263 31.0963 11.5531L34.2683 17.0474C34.5996 17.6239 34.5069 18.3505 34.0421 18.8145L30.9418 21.9148C30.664 22.1925 30.2948 22.3455 29.9022 22.3455C29.5094 22.3455 29.1402 22.1925 28.8625 21.9148C28.5847 21.637 28.4318 21.2679 28.4318 20.8752C28.4318 20.4824 28.5847 20.1132 28.8625 19.8356L30.6406 18.0573C30.9543 17.7436 31.0182 17.2582 30.7964 16.8739L29.1612 14.0419C28.8905 13.573 28.2908 13.4123 27.822 13.6831C27.353 13.9538 27.1924 14.5534 27.4631 15.0223L28.7219 17.2026L27.4757 18.4488C26.8276 19.0968 26.4707 19.9584 26.4707 20.875C26.4707 21.7914 26.8276 22.6531 27.4756 23.3011C28.1236 23.9491 28.9852 24.306 29.9018 24.306C30.3507 24.306 30.7864 24.2204 31.1903 24.0568C31.4766 24.7837 31.7421 25.5821 31.9848 26.4463C31.2896 26.3519 30.5869 26.4892 29.9694 26.8456C29.2324 27.271 28.7052 27.9582 28.485 28.7802C28.0303 30.477 29.0409 32.2275 30.7377 32.6823L30.7395 32.6827L33.939 33.5341L33.5839 36.6519L16.4153 36.652ZM37.5978 48.7968C36.9221 48.7968 36.3724 48.2471 36.3724 47.5713V42.3942H38.8233V47.5713C38.8233 48.2471 38.2736 48.7968 37.5978 48.7968ZM43.2351 47.5713C43.2351 48.2471 42.6854 48.7968 42.0096 48.7968C41.3338 48.7968 40.7841 48.2471 40.7841 47.5713V42.3942H43.2351V47.5713ZM47.68 27.8463C47.6659 27.8605 47.6523 27.875 47.6391 27.8899L43.8646 32.1546C43.6805 32.3627 43.5932 32.6391 43.6247 32.9153L44.4808 40.4335H35.1268L35.9828 32.9153C36.0378 32.4323 35.7306 31.9819 35.2609 31.8569L31.2436 30.788C30.5921 30.6123 30.2042 29.9398 30.3789 29.2877C30.4636 28.9715 30.6664 28.7074 30.9498 28.5438C31.2332 28.3802 31.5633 28.3367 31.8795 28.4213L37.7182 29.9859C37.801 30.008 37.8863 30.0193 37.972 30.0193H41.6354C41.8954 30.0193 42.1448 29.916 42.3286 29.7321L45.9471 26.1137C46.4247 25.636 47.2021 25.6359 47.6798 26.1137C47.9112 26.3451 48.0386 26.6528 48.0386 26.9801C48.0386 27.3073 47.9114 27.615 47.68 27.8463Z" fill="#052A75"/>
  </g>
  <defs>
    <clipPath id="clip0_3224_28982">
      <rect width="50" height="50" fill="white" transform="translate(0 0.757812)"/>
    </clipPath>
  </defs>
</svg>