<svg xmlns="http://www.w3.org/2000/svg" width="51" height="51" viewBox="0 0 51 51" fill="none">
  <path d="M47.6471 41.8467H4.01764C2.64877 41.8467 1.53906 40.6538 1.53906 39.1823V35.0742H50.1255V39.1823C50.1256 40.6538 49.0159 41.8467 47.6471 41.8467Z" fill="#D9E7EC"/>
  <path d="M1.53906 35.0714V7.98083C1.53906 6.50931 2.64877 5.31641 4.01764 5.31641H47.6471C49.0159 5.31641 50.1256 6.50931 50.1256 7.98083V35.0714H1.53906Z" fill="#596C76"/>
  <path d="M1.53906 35.0714V7.98083C1.53906 6.50931 2.64877 5.31641 4.01764 5.31641H47.6471C49.0159 5.31641 50.1256 6.50931 50.1256 7.98083V35.0714H1.53906Z" fill="#596C76"/>
  <path d="M50.1242 7.98041V35.0718H48.1667V7.98041C48.1667 6.50953 47.0568 5.31641 45.6875 5.31641H47.645C49.0143 5.31641 50.1242 6.50953 50.1242 7.98041Z" fill="#465A61"/>
  <path d="M50.1242 35.0742V39.1817C50.1242 40.6537 49.0143 41.8468 47.645 41.8468H45.6875C47.0558 41.8468 48.1657 40.6537 48.1657 39.1817V35.0742H50.1242Z" fill="#C5D3DD"/>
  <path d="M30.5574 41.8398H21.0794C21.0794 41.8398 20.9907 47.834 20.2812 50.0234H31.3556C30.6461 47.834 30.5574 41.8398 30.5574 41.8398Z" fill="#C5D3DD"/>
  <path d="M30.6484 43.9441H21.0312C21.088 42.7268 21.1007 41.8398 21.1007 41.8398H30.5789C30.5789 41.8398 30.5917 42.7268 30.6484 43.9441Z" fill="#C8EFFE"/>
  <path d="M30.6484 43.9441H21.0312C21.088 42.7268 21.1007 41.8398 21.1007 41.8398H30.5789C30.5789 41.8398 30.5917 42.7268 30.6484 43.9441Z" fill="#B6C4CF"/>
  <path d="M47.0751 35.0771H4.60938V10.1065C4.60938 9.46305 5.09464 8.94141 5.69324 8.94141H45.9912C46.5898 8.94141 47.0751 9.46305 47.0751 10.1065V35.0771Z" fill="#C8EFFE"/>
  <path d="M47.08 10.1072V35.0771H45.1225V10.1072C45.1225 9.46326 44.6371 8.94141 44.0391 8.94141H45.9966C46.5946 8.9413 47.08 9.46326 47.08 10.1072Z" fill="#99E6FC"/>
  <path d="M43.0824 35.0676H8.59375V2.67623C8.59375 2.05253 9.06414 1.54688 9.64434 1.54688H42.0318C42.612 1.54688 43.0824 2.05253 43.0824 2.67623V35.0676Z" fill="#F5F8F9"/>
  <path d="M43.0868 2.67581V35.0678H41.1293V2.67581C41.1293 2.0519 40.6585 1.54688 40.0781 1.54688H42.0356C42.616 1.54688 43.0868 2.0519 43.0868 2.67581Z" fill="#E8EDF2"/>
  <path d="M43.0824 7.03564H8.59375V2.67623C8.59375 2.05253 9.06414 1.54688 9.64434 1.54688H42.0318C42.612 1.54688 43.0824 2.05253 43.0824 2.67623V7.03564Z" fill="#FDB441"/>
  <path d="M43.0868 2.67581V7.03585H41.1293V2.67581C41.1293 2.0519 40.6585 1.54688 40.0781 1.54688H42.0356C42.616 1.54688 43.0868 2.0519 43.0868 2.67581Z" fill="#FEA613"/>
  <path d="M25.8406 30.7347C30.8138 30.7347 34.8453 26.4009 34.8453 21.0548C34.8453 15.7088 30.8138 11.375 25.8406 11.375C20.8675 11.375 16.8359 15.7088 16.8359 21.0548C16.8359 26.4009 20.8675 30.7347 25.8406 30.7347Z" fill="#9CF8D2"/>
  <path d="M34.8411 21.0545C34.8411 26.4004 30.8097 30.7341 25.8366 30.7341C23.932 30.7341 22.1654 30.0986 20.7109 29.0117C21.7641 29.4768 22.917 29.7335 24.1268 29.7335C29.0998 29.7335 33.1312 25.3998 33.1312 20.0539C33.1312 16.7565 31.5975 13.8442 29.2554 12.0977C32.5332 13.5442 34.8411 17.0101 34.8411 21.0545Z" fill="#00F2A6"/>
  <path d="M24.1716 39.2384H27.5132C27.9186 39.2384 28.2473 38.8852 28.2473 38.4493C28.2473 38.0134 27.9186 37.6602 27.5132 37.6602H24.1716C23.7662 37.6602 23.4375 38.0134 23.4375 38.4493C23.4375 38.8852 23.7662 39.2384 24.1716 39.2384Z" fill="black"/>
  <path d="M31.3935 23.1083L32.8719 21.0171C33.1172 20.6701 33.0545 20.175 32.7317 19.9113C32.409 19.6478 31.9484 19.715 31.7031 20.0621L31.6148 20.187C31.2774 16.9808 28.7401 14.4805 25.6685 14.4805C24.0965 14.4805 22.6114 15.1306 21.4868 16.311C21.1967 16.6155 21.1913 17.1151 21.4745 17.4269C21.7578 17.7387 22.2226 17.7445 22.5126 17.4401C23.3612 16.5492 24.4821 16.0586 25.6685 16.0586C28.0012 16.0586 29.9264 17.9689 30.1617 20.4107L29.9151 20.062C29.6699 19.7151 29.2094 19.6477 28.8866 19.9112C28.5638 20.1749 28.501 20.67 28.7463 21.0169L30.2247 23.1082C30.3635 23.3045 30.5797 23.4198 30.8091 23.4198C31.0385 23.4198 31.2547 23.3047 31.3935 23.1083Z" fill="black"/>
  <path d="M22.3398 22.353C22.4946 22.353 22.6506 22.3006 22.7835 22.1922C23.1063 21.9285 23.169 21.4334 22.9237 21.0865L21.4453 18.9952C21.3065 18.7989 21.0903 18.6836 20.8609 18.6836C20.6315 18.6836 20.4153 18.7989 20.2765 18.9952L18.7981 21.0865C18.5528 21.4334 18.6156 21.9285 18.9384 22.1922C19.261 22.4557 19.7216 22.3885 19.9669 22.0414L20.0552 21.9165C20.3928 25.1229 22.93 27.623 26.0014 27.623C27.5735 27.623 29.0585 26.9728 30.1831 25.7924C30.4731 25.4878 30.4787 24.9883 30.1953 24.6765C29.912 24.3647 29.4473 24.3589 29.1573 24.6633C28.3086 25.5543 27.1878 26.0449 26.0013 26.0449C23.6687 26.0449 21.7435 24.1345 21.5082 21.6928L21.7547 22.0415C21.8993 22.2456 22.1182 22.353 22.3398 22.353Z" fill="black"/>
  <path d="M25.8402 10.5859C20.4703 10.5859 16.1016 15.2823 16.1016 21.0549C16.1016 26.8274 20.4703 31.5237 25.8402 31.5237C29.047 31.5237 32.0481 29.8262 33.8682 26.9829C34.098 26.6238 34.0135 26.1326 33.6796 25.8854C33.3456 25.6383 32.8884 25.7291 32.6587 26.0882C31.1127 28.5036 28.5637 29.9455 25.8402 29.9455C21.2798 29.9455 17.5697 25.9572 17.5697 21.0549C17.5697 16.1525 21.2798 12.1641 25.8402 12.1641C30.4006 12.1641 34.1107 16.1525 34.1107 21.0549C34.1107 21.6989 34.0464 22.3413 33.9197 22.9641C33.833 23.3898 34.0838 23.8104 34.4799 23.9036C34.8761 23.997 35.2672 23.7272 35.3539 23.3013C35.5032 22.5678 35.5788 21.8121 35.5788 21.0548C35.5788 15.2822 31.2101 10.5859 25.8402 10.5859Z" fill="black"/>
  <path d="M47.6546 4.5235H43.8183V2.67617C43.8183 1.61835 43.0176 0.757812 42.0336 0.757812H24.1434C23.738 0.757812 23.4093 1.11101 23.4093 1.54691C23.4093 1.98281 23.738 2.33601 24.1434 2.33601H42.0335C42.208 2.33601 42.35 2.48857 42.35 2.67617V6.24648H9.32966V2.67617C9.32966 2.48857 9.47167 2.33601 9.64618 2.33601H20.7143C21.1197 2.33601 21.4484 1.98281 21.4484 1.54691C21.4484 1.11101 21.1197 0.757812 20.7143 0.757812H9.64608C8.66205 0.757812 7.86144 1.61846 7.86144 2.67617V4.5235H4.02514C2.25371 4.5235 0.8125 6.07266 0.8125 7.97692V35.0675V39.1755C0.8125 41.0798 2.25371 42.6289 4.02514 42.6289H20.3481C20.2935 44.4303 20.1265 47.546 19.7501 49.2342H17.2061C16.8007 49.2342 16.4721 49.5874 16.4721 50.0233C16.4721 50.4592 16.8007 50.8124 17.2061 50.8124H34.4736C34.879 50.8124 35.2076 50.4592 35.2076 50.0233C35.2076 49.5874 34.879 49.2342 34.4736 49.2342H31.9296C31.5535 47.5464 31.3863 44.4304 31.3316 42.6289H47.6545C49.4259 42.6289 50.8671 41.0797 50.8671 39.1755V7.97692C50.8672 6.07266 49.426 4.5235 47.6546 4.5235ZM43.8183 9.72041H45.9889C46.1818 9.72041 46.3387 9.88907 46.3387 10.0963V34.2778H43.8184V9.72041H43.8183ZM9.32966 7.82468H42.3501V34.2779H9.32966V7.82468ZM2.28062 7.97692C2.28062 6.94288 3.06323 6.1017 4.02514 6.1017H7.86154V8.14221H5.69087C4.68844 8.14221 3.87294 9.01885 3.87294 10.0963V34.2784H2.28062V7.97692ZM7.86154 9.72041V34.2778H5.34107V10.0964C5.34107 9.88907 5.49806 9.72051 5.69087 9.72051H7.86154V9.72041ZM21.2521 49.2344C21.6403 47.1909 21.7739 44.0732 21.8165 42.6291H29.8631C29.9058 44.0733 30.0393 47.1909 30.4275 49.2344H21.2521ZM49.3991 39.1756C49.3991 40.2096 48.6165 41.0508 47.6546 41.0508H4.02514C3.06323 41.0508 2.28062 40.2096 2.28062 39.1756V35.8567H49.3991V39.1756ZM49.3991 34.2784H47.8068V10.0964C47.8068 9.01895 46.9913 8.14231 45.9888 8.14231H43.8182V6.1017H47.6545C48.6164 6.1017 49.399 6.94288 49.399 7.97692L49.3991 34.2784Z" fill="black"/>
</svg>