<svg xmlns="http://www.w3.org/2000/svg" width="50" height="51" viewBox="0 0 50 51" fill="none">
  <path d="M48.6639 12.832H38.5916L31.2122 20.5373C30.9729 20.7872 30.6862 20.9825 30.3707 21.1105L27.124 22.4291C26.9656 22.4934 26.8096 22.3305 26.8712 22.1651L28.1338 18.775C28.2564 18.4455 28.4435 18.1463 28.6828 17.8963L33.5329 12.832H1.34004L0.734375 12.934V41.665C0.734375 42.5097 1.39023 43.1945 2.19922 43.1945H9.47461V38.2661C9.47461 37.9846 9.69326 37.7563 9.96289 37.7563H40.041C40.3106 37.7563 40.5293 37.9846 40.5293 38.2661V43.1945H47.8047C48.6137 43.1945 49.2695 42.5097 49.2695 41.665V12.9341L48.6639 12.832Z" fill="#EAF6FF"/>
  <path d="M5.66602 41.6646V40.4985H3.8043C3.53467 40.4985 3.31602 40.2702 3.31602 39.9887V16.1391C3.31602 15.8575 3.53467 15.6292 3.8043 15.6292H5.66602V12.9336H0.734375V41.6646C0.734375 42.5093 1.39023 43.1941 2.19922 43.1941H7.13086C6.32188 43.1941 5.66602 42.5093 5.66602 41.6646Z" fill="#D8ECFE"/>
  <path d="M39.3403 6.76562H1.71094C1.17158 6.76562 0.734375 7.22214 0.734375 7.78531V12.9314H33.4353L39.3403 6.76562Z" fill="#8DB3DF"/>
  <path d="M48.299 6.76562H44.4051L38.5 12.9314H49.2756V7.78531C49.2756 7.22214 48.8384 6.76562 48.299 6.76562Z" fill="#8DB3DF"/>
  <path d="M6.64258 6.76562H1.71094C1.17158 6.76562 0.734375 7.22214 0.734375 7.78531V12.9314H5.66602V7.78531C5.66602 7.22214 6.10322 6.76562 6.64258 6.76562Z" fill="#799FCA"/>
  <path d="M46.1961 15.629H35.9088L31.2087 20.5366C30.9693 20.7866 30.6827 20.9818 30.3672 21.1099L27.1205 22.4284C26.9621 22.4927 26.8061 22.3298 26.8677 22.1644L28.1303 18.7742C28.2529 18.4448 28.4399 18.1456 28.6793 17.8956L30.8501 15.6289H3.80078C3.53115 15.6289 3.3125 15.8572 3.3125 16.1387V39.9883C3.3125 40.2699 3.53115 40.4982 3.80078 40.4982H9.47109V38.2654C9.47109 37.9838 9.68974 37.7555 9.95937 37.7555H40.0375C40.3071 37.7555 40.5258 37.9838 40.5258 38.2654V40.4982H46.1961C46.4657 40.4982 46.6844 40.2699 46.6844 39.9883V16.1389C46.6844 15.8572 46.4657 15.629 46.1961 15.629Z" fill="#FED2A4"/>
  <path d="M6.62656 16.1387C6.62656 15.8572 6.84521 15.6289 7.11484 15.6289H3.80078C3.53115 15.6289 3.3125 15.8572 3.3125 16.1387V32.223C4.28477 31.6004 5.41533 31.2214 6.62656 31.1664V16.1387Z" fill="#FFBD86"/>
  <path d="M25.8412 32.6114L27.0979 30.9483L19.8152 21.3112C19.6197 21.0525 19.244 21.0525 19.0486 21.3112L10.6562 32.4168C11.3495 32.8856 11.965 33.4859 12.463 34.198L12.5079 34.2622L12.5785 34.2323C13.3961 33.8866 14.2588 33.7112 15.1427 33.7112C16.2528 33.7112 17.3565 33.9968 18.3345 34.537L18.4207 34.5846L18.4664 34.4946C19.3505 32.7534 21.0705 31.6717 22.9552 31.6717C24.0098 31.6719 25.0102 32.0121 25.8412 32.6114Z" fill="#0593FC"/>
  <path d="M15.1309 26.4961L10.6562 32.4173C11.318 32.8648 11.9076 33.4333 12.3931 34.1033L16.6416 28.4953L15.1309 26.4961Z" fill="#0182FC"/>
  <path d="M19.8094 21.3112C19.6139 21.0525 19.2382 21.0525 19.0428 21.3112L15.125 26.4956L16.8943 28.837C17.0898 29.0957 17.4655 29.0957 17.6609 28.837L19.7537 26.0677L20.8982 27.5823C21.0937 27.841 21.4694 27.841 21.6648 27.5823L23.1065 25.6744L19.8094 21.3112Z" fill="white"/>
  <path d="M27.6151 34.8809L27.6743 35.0244L27.7763 34.9099C28.974 33.5664 30.6675 32.7959 32.4225 32.7959C34.2214 32.7959 35.9434 33.5987 37.1468 34.9984L37.2794 35.1526L37.3155 34.9488C37.4801 34.0196 37.8271 33.1668 38.3119 32.4253L32.5285 24.7721C32.333 24.5135 31.9573 24.5135 31.7619 24.7721L25.8359 32.614C26.6049 33.1685 27.2289 33.9448 27.6151 34.8809Z" fill="#0182FC"/>
  <path d="M43.5531 29.4336C40.3963 29.4336 37.7713 31.8041 37.2173 34.9329C36.0373 33.5605 34.3257 32.6966 32.4203 32.6966C30.557 32.6966 28.8794 33.5231 27.7026 34.8431C26.9096 32.9209 25.0794 31.5749 22.9477 31.5749C20.9638 31.5749 19.2414 32.7409 18.3727 34.452C17.4061 33.918 16.3048 33.6143 15.1352 33.6143C14.215 33.6143 13.3377 33.8031 12.5343 34.1429C11.2732 32.3396 9.23428 31.1671 6.93203 31.1671C5.60537 31.1671 4.36621 31.5566 3.3125 32.2314V39.9967C3.3125 40.2782 3.53115 40.5065 3.80078 40.5065H9.47109V38.2737C9.47109 37.9922 9.68974 37.7639 9.95937 37.7639H40.0375C40.3071 37.7639 40.5258 37.9922 40.5258 38.2737V40.5065H46.1961C46.4657 40.5065 46.6844 40.2782 46.6844 39.9967V30.2813C45.7571 29.7419 44.6898 29.4336 43.5531 29.4336Z" fill="#46CC8D"/>
  <path d="M27.4649 34.5493L33.6794 26.295L32.5285 24.7721C32.333 24.5135 31.9573 24.5135 31.7619 24.7721L25.8359 32.614C26.5121 33.1015 27.076 33.7608 27.4649 34.5493Z" fill="#0172FB"/>
  <path d="M3.80068 40.4997H7.11475C6.84512 40.4997 6.62656 40.2714 6.62656 39.9899V31.168C5.41533 31.2229 4.28477 31.6019 3.3125 32.2246V39.9899C3.3124 40.2714 3.53105 40.4997 3.80068 40.4997Z" fill="#08B865"/>
  <path d="M15.2305 37.9657L15.1328 37.7578H9.95703C9.6874 37.7578 9.46875 37.9861 9.46875 38.2677V49.4842C9.46875 49.7657 9.6874 49.994 9.95703 49.994H15.1328L15.2305 49.794V37.9657Z" fill="#8DB3DF"/>
  <path d="M11.5195 49.4842V38.2677C11.5195 37.9861 11.7382 37.7578 12.0078 37.7578H9.95703C9.6874 37.7578 9.46875 37.9861 9.46875 38.2677V49.4842C9.46875 49.7657 9.6874 49.994 9.95703 49.994H12.0078C11.7381 49.994 11.5195 49.7657 11.5195 49.4842Z" fill="#799FCA"/>
  <path d="M9.35371 23.7524C10.6364 23.7524 11.6762 22.6667 11.6762 21.3274C11.6762 19.9881 10.6364 18.9023 9.35371 18.9023C8.07105 18.9023 7.03125 19.9881 7.03125 21.3274C7.03125 22.6667 8.07105 23.7524 9.35371 23.7524Z" fill="#FE9901"/>
  <path d="M9.08203 21.3274C9.08203 20.3724 9.61084 19.5469 10.3791 19.1514C10.0698 18.9922 9.72187 18.9023 9.35371 18.9023C8.07109 18.9023 7.03125 19.988 7.03125 21.3274C7.03125 22.6667 8.07109 23.7524 9.35371 23.7524C9.72187 23.7524 10.0698 23.6625 10.3791 23.5034C9.61084 23.1078 9.08203 22.2823 9.08203 21.3274Z" fill="#FB8801"/>
  <path d="M19.8094 21.3073C19.6139 21.0486 19.2382 21.0486 19.0428 21.3073L15.125 26.4917L16.6357 28.4909L20.9422 22.8063L19.8094 21.3073Z" fill="#EAF6FF"/>
  <path d="M30.3727 21.1081L27.126 22.4265C26.9676 22.4909 26.8115 22.3279 26.8731 22.1625L28.1357 18.7724C28.2584 18.4429 28.4454 18.1437 28.6848 17.8937L43.8428 2.06649C44.5412 1.33721 45.6736 1.33721 46.3721 2.06649C47.0705 2.79577 47.0705 3.97819 46.3721 4.70747L31.2142 20.5348C30.9748 20.7847 30.6882 20.98 30.3727 21.1081Z" fill="#46CC8D"/>
  <path d="M29.9423 19.5881C30.0649 19.2587 30.252 18.9595 30.4913 18.7095L45.6493 2.88224C45.9193 2.60029 46.2545 2.42858 46.6041 2.36465C46.5379 2.25921 46.4607 2.15918 46.372 2.06649C45.6735 1.33721 44.5411 1.33721 43.8427 2.06649L28.6848 17.8937C28.4454 18.1436 28.2584 18.4429 28.1357 18.7723L26.8731 22.1624C26.8115 22.3278 26.9676 22.4908 27.126 22.4264L29.1987 21.5848L29.9423 19.5881Z" fill="#08B865"/>
  <path d="M15.1406 49.994V37.7578H40.043C40.3126 37.7578 40.5312 37.9861 40.5312 38.2677V49.4842C40.5312 49.7657 40.3126 49.994 40.043 49.994H15.1406Z" fill="#647FA0"/>
  <path d="M17.582 48.2096C17.1775 48.2096 16.8496 47.8672 16.8496 47.4448V40.307C16.8496 39.8847 17.1775 39.5423 17.582 39.5423H18.168V37.7578H15.1406V49.994H18.168V48.2096H17.582Z" fill="#5E6F90"/>
  <path d="M17.5859 43.8789H21.0039V47.4478H17.5859V43.8789Z" fill="#FED402"/>
  <path d="M21 43.8789H24.418V47.4478H21V43.8789Z" fill="#FAC600"/>
  <path d="M24.4219 43.8789H27.8398V47.4478H24.4219V43.8789Z" fill="#FE9901"/>
  <path d="M27.8438 43.8789H31.2617V47.4478H27.8438V43.8789Z" fill="#FB8801"/>
  <path d="M31.2578 43.8789H34.6758V47.4478H31.2578V43.8789Z" fill="white"/>
  <path d="M34.6719 43.8789H38.0898V47.4478H34.6719V43.8789Z" fill="#C4E2FF"/>
  <path d="M17.5859 40.3125H21.0039V43.8814H17.5859V40.3125Z" fill="#FE646F"/>
  <path d="M21 40.3125H24.418V43.8814H21V40.3125Z" fill="#FD4755"/>
  <path d="M24.4219 40.3125H27.8398V43.8814H24.4219V40.3125Z" fill="#08B865"/>
  <path d="M27.8438 40.3125H31.2617V43.8814H27.8438V40.3125Z" fill="#46CC8D"/>
  <path d="M31.2578 40.3125H34.6758V43.8814H31.2578V40.3125Z" fill="#0182FC"/>
  <path d="M34.6719 40.3125H38.0898V43.8814H34.6719V40.3125Z" fill="#0172FB"/>
  <path d="M3.75586 10.5412C4.16036 10.5412 4.48828 10.1988 4.48828 9.77648C4.48828 9.35411 4.16036 9.01172 3.75586 9.01172C3.35135 9.01172 3.02344 9.35411 3.02344 9.77648C3.02344 10.1988 3.35135 10.5412 3.75586 10.5412Z" fill="black"/>
  <path d="M5.91211 10.5412C6.31661 10.5412 6.64453 10.1988 6.64453 9.77648C6.64453 9.35411 6.31661 9.01172 5.91211 9.01172C5.5076 9.01172 5.17969 9.35411 5.17969 9.77648C5.17969 10.1988 5.5076 10.5412 5.91211 10.5412Z" fill="black"/>
  <path d="M8.05273 10.5412C8.45724 10.5412 8.78516 10.1988 8.78516 9.77648C8.78516 9.35411 8.45724 9.01172 8.05273 9.01172C7.64823 9.01172 7.32031 9.35411 7.32031 9.77648C7.32031 10.1988 7.64823 10.5412 8.05273 10.5412Z" fill="black"/>
  <path d="M9.35176 18.1367C7.66728 18.1367 6.29688 19.5676 6.29688 21.3265C6.29688 23.0853 7.66728 24.5163 9.35176 24.5163C11.0362 24.5163 12.4066 23.0853 12.4066 21.3265C12.4066 19.5676 11.0362 18.1367 9.35176 18.1367ZM9.35176 22.9867C8.475 22.9867 7.76172 22.242 7.76172 21.3265C7.76172 20.411 8.475 19.6662 9.35176 19.6662C10.2285 19.6662 10.9418 20.411 10.9418 21.3265C10.9418 22.242 10.2285 22.9867 9.35176 22.9867Z" fill="black"/>
  <path d="M12.3105 42.0879C12.715 42.0879 13.043 41.7455 13.043 41.3231V40.4054C13.043 39.983 12.715 39.6406 12.3105 39.6406C11.9061 39.6406 11.5781 39.983 11.5781 40.4054V41.3231C11.5781 41.7455 11.9061 42.0879 12.3105 42.0879Z" fill="black"/>
  <path d="M12.3105 48.1035C12.715 48.1035 13.043 47.7611 13.043 47.3387V46.421C13.043 45.9987 12.715 45.6562 12.3105 45.6562C11.9061 45.6562 11.5781 45.9987 11.5781 46.421V47.3387C11.5781 47.7611 11.9061 48.1035 12.3105 48.1035Z" fill="black"/>
  <path d="M48.291 6.00398H46.1653L46.8861 5.25136C47.8689 4.22504 47.8689 2.55511 46.8861 1.5288C46.4101 1.0316 45.777 0.757812 45.1036 0.757812C44.4302 0.757812 43.7972 1.0316 43.3211 1.5288L39.0352 6.00398H12.0117C11.6072 6.00398 11.2793 6.34639 11.2793 6.76875C11.2793 7.1911 11.6072 7.53351 12.0117 7.53351H37.5702L33.13 12.1698H1.46484V7.78843C1.46484 7.64792 1.57441 7.53351 1.70898 7.53351H8.59375C8.99824 7.53351 9.32617 7.1911 9.32617 6.76875C9.32617 6.34639 8.99824 6.00398 8.59375 6.00398H1.70898C0.766699 6.00398 0 6.80454 0 7.78843V41.6656C0 42.9307 0.985645 43.9599 2.19727 43.9599H8.74023V49.4832C8.74023 50.1861 9.28779 50.7578 9.96094 50.7578H40.0391C40.7122 50.7578 41.2598 50.1861 41.2598 49.4832V43.9599H47.8027C49.0144 43.9599 50 42.9307 50 41.6656V7.78843C50 6.80444 49.2333 6.00398 48.291 6.00398ZM44.3567 2.61037C44.5562 2.40215 44.8214 2.28744 45.1034 2.28744C45.3854 2.28744 45.6507 2.40215 45.8501 2.61037C46.2619 3.04027 46.2619 3.73998 45.8501 4.16988L30.6923 19.9971C30.5237 20.1732 30.3256 20.3081 30.1033 20.3984L27.9942 21.2548L28.8145 19.0526C28.9009 18.8206 29.0302 18.6136 29.1987 18.4375L44.3567 2.61037ZM8.74023 42.4304H2.19727C1.79336 42.4304 1.46484 42.0873 1.46484 41.6656V13.6993H31.6651L30.5483 14.8654H3.80234C3.1292 14.8654 2.58164 15.4372 2.58164 16.14V39.9896C2.58164 40.6925 3.1292 41.2642 3.80234 41.2642H8.74023V42.4304ZM14.4043 49.2283H10.2051V44.6397H14.4043V49.2283ZM14.4043 43.1102H10.2051V38.5216H14.4043V43.1102ZM39.7949 49.2283H15.8691V38.5216H39.7949V49.2283ZM40.0391 36.9921H9.96094C9.28779 36.9921 8.74023 37.5638 8.74023 38.2667V39.7347H4.04648V32.6685C4.93311 32.1808 5.92314 31.9249 6.93359 31.9249C8.90557 31.9249 10.7787 32.92 11.9443 34.5868C12.1424 34.8701 12.4996 34.9764 12.8108 34.8446C13.5522 34.5311 14.3348 34.372 15.1367 34.372C16.1582 34.372 17.1322 34.624 18.0316 35.1209C18.3891 35.3184 18.8319 35.1761 19.0213 34.8031C19.795 33.2792 21.3001 32.3325 22.9492 32.3325C24.7258 32.3325 26.3282 33.434 27.0315 35.1386C27.1294 35.3759 27.3355 35.5455 27.5792 35.5895C27.823 35.6335 28.0716 35.5462 28.2402 35.357C29.0938 34.3994 30.2405 33.7535 31.4689 33.5379C31.8679 33.4678 32.1369 33.0734 32.0699 32.657C32.0028 32.2404 31.6243 31.9599 31.2263 32.0295C30.0098 32.2429 28.8575 32.7917 27.8991 33.6025C27.6214 33.1575 27.2921 32.7563 26.9222 32.4054L32.1445 25.4947L37.3514 32.3849C37.1521 32.7422 36.9791 33.1185 36.8374 33.5123C36.2886 33.065 35.6787 32.7005 35.0322 32.4366C34.6556 32.2829 34.2307 32.4771 34.0834 32.8705C33.9361 33.2639 34.1222 33.7075 34.4989 33.8611C35.3259 34.1987 36.0779 34.7433 36.6738 35.4363C36.8604 35.6532 37.1487 35.7406 37.4173 35.6616C37.6859 35.5827 37.8883 35.3511 37.9391 35.0645C38.4391 32.2407 40.8008 30.191 43.5547 30.191C44.3839 30.191 45.2051 30.3805 45.9535 30.7422V39.7344H41.2598V38.2664C41.2598 37.5638 40.7122 36.9921 40.0391 36.9921ZM16.3192 29.3087C16.5521 29.6169 16.9014 29.7937 17.2774 29.7937C17.6535 29.7937 18.0027 29.617 18.2357 29.3088L19.7535 27.3003L20.323 28.0539C20.556 28.3622 20.9052 28.5391 21.2813 28.5391C21.6574 28.5391 22.0067 28.3623 22.2396 28.054L23.1064 26.9071L26.159 30.9465L25.7222 31.5245C24.8854 31.0602 23.9378 30.8032 22.9492 30.8032C20.9921 30.8032 19.1878 31.8056 18.0914 33.4609C17.1594 33.0549 16.1504 32.8426 15.1367 32.8426C14.3317 32.8426 13.5425 32.9722 12.7832 33.2286C12.4717 32.8453 12.1278 32.4963 11.7577 32.184L15.1249 27.7283L16.3192 29.3087ZM16.0579 26.4935L19.426 22.0366L22.1735 25.6724L21.2815 26.8528L20.3286 25.5919C20.1897 25.4082 19.9778 25.3009 19.7536 25.3009C19.5294 25.3009 19.3176 25.4082 19.1786 25.5919L17.2775 28.1076L16.0579 26.4935ZM48.5352 41.6656C48.5352 42.0873 48.2066 42.4304 47.8027 42.4304H41.2598V41.2642H46.1977C46.8708 41.2642 47.4184 40.6925 47.4184 39.9896V23.8204C47.4184 23.3981 47.0904 23.0556 46.6859 23.0556C46.2814 23.0556 45.9535 23.3981 45.9535 23.8204V29.0936C45.1862 28.8096 44.3736 28.6618 43.5547 28.6618C41.475 28.6618 39.5733 29.5925 38.2505 31.1056L33.1028 24.2939C32.8698 23.9856 32.5206 23.8088 32.1445 23.8088C31.7685 23.8088 31.4191 23.9856 31.1863 24.2939L27.092 29.7117L20.3843 20.8355C20.1513 20.5272 19.802 20.3504 19.426 20.3504C19.0499 20.3504 18.7006 20.5272 18.4678 20.8355L10.5319 31.3369C9.43613 30.728 8.20146 30.3953 6.93369 30.3953C5.93799 30.3953 4.95859 30.598 4.04658 30.9856V16.395H29.0835L28.163 17.3561C27.8498 17.6831 27.6097 18.0675 27.4492 18.4983L26.1866 21.8883C26.0533 22.2462 26.1352 22.653 26.3952 22.9244C26.5725 23.1095 26.8098 23.2081 27.0515 23.2081C27.1644 23.2081 27.2783 23.1866 27.3874 23.1422L30.6342 21.8239C31.047 21.6562 31.415 21.4055 31.728 21.0785L36.2136 16.3949H45.9534V20.2515C45.9534 20.6739 46.2813 21.0163 46.6858 21.0163C47.0903 21.0163 47.4183 20.6739 47.4183 20.2515V16.14C47.4183 15.4372 46.8707 14.8654 46.1976 14.8654H37.6785L38.7953 13.6993H48.5352V41.6656ZM48.5352 12.1698H40.2603L44.7005 7.53351H48.291C48.4256 7.53351 48.5352 7.64792 48.5352 7.78843V12.1698Z" fill="black"/>
  <path d="M17.5762 48.2103H38.084C38.4885 48.2103 38.8164 47.8679 38.8164 47.4455V40.3077C38.8164 39.8854 38.4885 39.543 38.084 39.543H17.5762C17.1717 39.543 16.8438 39.8854 16.8438 40.3077V47.4455C16.8438 47.8679 17.1717 48.2103 17.5762 48.2103ZM35.3984 41.0725H37.3516V43.1119H35.3984V41.0725ZM35.3984 44.6414H37.3516V46.6808H35.3984V44.6414ZM31.9805 41.0725H33.9336V43.1119H31.9805V41.0725ZM31.9805 44.6414H33.9336V46.6808H31.9805V44.6414ZM28.5625 41.0725H30.5156V43.1119H28.5625V41.0725ZM28.5625 44.6414H30.5156V46.6808H28.5625V44.6414ZM25.1445 41.0725H27.0977V43.1119H25.1445V41.0725ZM25.1445 44.6414H27.0977V46.6808H25.1445V44.6414ZM21.7266 41.0725H23.6797V43.1119H21.7266V41.0725ZM21.7266 44.6414H23.6797V46.6808H21.7266V44.6414ZM18.3086 41.0725H20.2617V43.1119H18.3086V41.0725ZM18.3086 44.6414H20.2617V46.6808H18.3086V44.6414Z" fill="black"/>
  <path d="M38.623 19.6914H37.6465C37.242 19.6914 36.9141 20.0338 36.9141 20.4562C36.9141 20.8785 37.242 21.2209 37.6465 21.2209H38.623C39.0275 21.2209 39.3555 20.8785 39.3555 20.4562C39.3555 20.0338 39.0275 19.6914 38.623 19.6914Z" fill="black"/>
  <path d="M41.8418 24.4844H40.8652C40.4607 24.4844 40.1328 24.8268 40.1328 25.2491C40.1328 25.6715 40.4607 26.0139 40.8652 26.0139H41.8418C42.2463 26.0139 42.5742 25.6715 42.5742 25.2491C42.5742 24.8268 42.2463 24.4844 41.8418 24.4844Z" fill="black"/>
  <path d="M8.74023 26.3164H7.76367C7.35918 26.3164 7.03125 26.6588 7.03125 27.0812C7.03125 27.5035 7.35918 27.8459 7.76367 27.8459H8.74023C9.14473 27.8459 9.47266 27.5035 9.47266 27.0812C9.47266 26.6588 9.14473 26.3164 8.74023 26.3164Z" fill="black"/>
</svg>