<svg xmlns="http://www.w3.org/2000/svg" width="50" height="51" viewBox="0 0 50 51" fill="none">
  <path d="M24.008 41.9322H4.24055C2.32996 41.9322 0.78125 40.4836 0.78125 38.6967V35.4609H27.3308L24.008 41.9322Z" fill="#D3DCFB"/>
  <path d="M45.7573 16.0463V29.6397V38.696H4.24055C2.32996 38.696 0.78125 37.2474 0.78125 35.4604V16.0463L24.999 7.95703L45.7573 16.0463Z" fill="#EBF5FC"/>
  <path d="M6.8585 22.5208H5.06965C4.60837 22.5208 4.23438 22.171 4.23438 21.7396V20.0664C4.23438 19.635 4.60837 19.2852 5.06965 19.2852H6.8585C7.31978 19.2852 7.69378 19.635 7.69378 20.0664V21.7396C7.69378 22.171 7.31978 22.5208 6.8585 22.5208Z" fill="#3C58A0"/>
  <path d="M13.7804 22.5208H11.9915C11.5302 22.5208 11.1562 22.171 11.1562 21.7396V20.0664C11.1562 19.635 11.5302 19.2852 11.9915 19.2852H13.7804C14.2417 19.2852 14.6157 19.635 14.6157 20.0664V21.7396C14.6157 22.171 14.2417 22.5208 13.7804 22.5208Z" fill="#3C58A0"/>
  <path d="M20.7023 22.5208H18.9134C18.4521 22.5208 18.0781 22.171 18.0781 21.7396V20.0664C18.0781 19.635 18.4521 19.2852 18.9134 19.2852H20.7023C21.1635 19.2852 21.5375 19.635 21.5375 20.0664V21.7396C21.5375 22.171 21.1636 22.5208 20.7023 22.5208Z" fill="#3C58A0"/>
  <path d="M27.6163 22.5208H25.8275C25.3662 22.5208 24.9922 22.171 24.9922 21.7396V20.0664C24.9922 19.635 25.3662 19.2852 25.8275 19.2852H27.6163C28.0776 19.2852 28.4516 19.635 28.4516 20.0664V21.7396C28.4516 22.171 28.0776 22.5208 27.6163 22.5208Z" fill="#3C58A0"/>
  <path d="M34.5304 22.5208H32.7415C32.2802 22.5208 31.9062 22.171 31.9062 21.7396V20.0664C31.9062 19.635 32.2802 19.2852 32.7415 19.2852H34.5304C34.9917 19.2852 35.3657 19.635 35.3657 20.0664V21.7396C35.3657 22.171 34.9917 22.5208 34.5304 22.5208Z" fill="#3C58A0"/>
  <path d="M41.4523 22.5208H39.6634C39.2021 22.5208 38.8281 22.171 38.8281 21.7396V20.0664C38.8281 19.635 39.2021 19.2852 39.6634 19.2852H41.4523C41.9135 19.2852 42.2875 19.635 42.2875 20.0664V21.7396C42.2875 22.171 41.9136 22.5208 41.4523 22.5208Z" fill="#3C58A0"/>
  <path d="M6.8585 28.9935H5.06965C4.60837 28.9935 4.23438 28.6437 4.23438 28.2122V26.5391C4.23438 26.1076 4.60837 25.7578 5.06965 25.7578H6.8585C7.31978 25.7578 7.69378 26.1076 7.69378 26.5391V28.2122C7.69378 28.6437 7.31978 28.9935 6.8585 28.9935Z" fill="#3C58A0"/>
  <path d="M13.7804 28.9935H11.9915C11.5302 28.9935 11.1562 28.6437 11.1562 28.2122V26.5391C11.1562 26.1076 11.5302 25.7578 11.9915 25.7578H13.7804C14.2417 25.7578 14.6157 26.1076 14.6157 26.5391V28.2122C14.6157 28.6437 14.2417 28.9935 13.7804 28.9935Z" fill="#3C58A0"/>
  <path d="M20.7023 28.9935H18.9134C18.4521 28.9935 18.0781 28.6437 18.0781 28.2122V26.5391C18.0781 26.1076 18.4521 25.7578 18.9134 25.7578H20.7023C21.1635 25.7578 21.5375 26.1076 21.5375 26.5391V28.2122C21.5375 28.6437 21.1636 28.9935 20.7023 28.9935Z" fill="#3C58A0"/>
  <path d="M28.4516 28.9935V26.5667C28.4516 26.1199 28.0643 25.7578 27.5868 25.7578H25.857C25.3793 25.7578 24.9922 26.12 24.9922 26.5667V28.1846C24.9922 28.6313 25.3794 28.9935 25.857 28.9935H28.4516Z" fill="#3C58A0"/>
  <path d="M6.8585 35.4661H5.06965C4.60837 35.4661 4.23438 35.1163 4.23438 34.6849V33.0117C4.23438 32.5803 4.60837 32.2305 5.06965 32.2305H6.8585C7.31978 32.2305 7.69378 32.5803 7.69378 33.0117V34.6849C7.69378 35.1163 7.31978 35.4661 6.8585 35.4661Z" fill="#3C58A0"/>
  <path d="M13.7804 35.4661H11.9915C11.5302 35.4661 11.1562 35.1163 11.1562 34.6849V33.0117C11.1562 32.5803 11.5302 32.2305 11.9915 32.2305H13.7804C14.2417 32.2305 14.6157 32.5803 14.6157 33.0117V34.6849C14.6157 35.1163 14.2417 35.4661 13.7804 35.4661Z" fill="#3C58A0"/>
  <path d="M20.7023 35.4661H18.9134C18.4521 35.4661 18.0781 35.1163 18.0781 34.6849V33.0117C18.0781 32.5803 18.4521 32.2305 18.9134 32.2305H20.7023C21.1635 32.2305 21.5375 32.5803 21.5375 33.0117V34.6849C21.5375 35.1163 21.1636 35.4661 20.7023 35.4661Z" fill="#3C58A0"/>
  <path d="M41.4545 19.2852H39.6656C39.5573 19.2852 39.4543 19.3051 39.3594 19.3401C39.6689 19.4545 39.8884 19.7362 39.8884 20.0665V21.7396C39.8884 22.0699 39.6691 22.3517 39.3594 22.4659C39.4543 22.501 39.5574 22.5209 39.6656 22.5209H41.4545C41.9157 22.5209 42.2897 22.1711 42.2897 21.7396V20.0665C42.2897 19.635 41.9158 19.2852 41.4545 19.2852Z" fill="#2A428C"/>
  <path d="M34.5404 19.2852H32.7515C32.6433 19.2852 32.5402 19.3051 32.4453 19.3401C32.7549 19.4545 32.9744 19.7362 32.9744 20.0665V21.7396C32.9744 22.0699 32.755 22.3517 32.4453 22.4659C32.5402 22.501 32.6433 22.5209 32.7515 22.5209H34.5404C35.0017 22.5209 35.3757 22.1711 35.3757 21.7396V20.0665C35.3757 19.635 35.0017 19.2852 34.5404 19.2852Z" fill="#2A428C"/>
  <path d="M27.6185 19.2852H25.8297C25.7214 19.2852 25.6183 19.3051 25.5234 19.3401C25.833 19.4545 26.0525 19.7362 26.0525 20.0665V21.7396C26.0525 22.0699 25.8331 22.3517 25.5234 22.4659C25.6183 22.501 25.7214 22.5209 25.8297 22.5209H27.6185C28.0798 22.5209 28.4538 22.1711 28.4538 21.7396V20.0665C28.4538 19.635 28.0798 19.2852 27.6185 19.2852Z" fill="#2A428C"/>
  <path d="M20.7045 19.2852H18.9156C18.8073 19.2852 18.7043 19.3051 18.6094 19.3401C18.9189 19.4545 19.1384 19.7362 19.1384 20.0665V21.7396C19.1384 22.0699 18.9191 22.3517 18.6094 22.4659C18.7043 22.501 18.8073 22.5209 18.9156 22.5209H20.7045C21.1657 22.5209 21.5397 22.1711 21.5397 21.7396V20.0665C21.5397 19.635 21.1658 19.2852 20.7045 19.2852Z" fill="#2A428C"/>
  <path d="M13.7826 19.2852H11.9937C11.8855 19.2852 11.7824 19.3051 11.6875 19.3401C11.9971 19.4545 12.2165 19.7362 12.2165 20.0665V21.7396C12.2165 22.0699 11.9972 22.3517 11.6875 22.4659C11.7824 22.501 11.8855 22.5209 11.9937 22.5209H13.7826C14.2439 22.5209 14.6179 22.1711 14.6179 21.7396V20.0665C14.6179 19.635 14.2439 19.2852 13.7826 19.2852Z" fill="#2A428C"/>
  <path d="M6.86071 19.2852H5.07186C4.96359 19.2852 4.86053 19.3051 4.76562 19.3401C5.0752 19.4545 5.29467 19.7362 5.29467 20.0665V21.7396C5.29467 22.0699 5.0753 22.3517 4.76562 22.4659C4.86053 22.501 4.96369 22.5209 5.07186 22.5209H6.86071C7.32199 22.5209 7.69599 22.1711 7.69599 21.7396V20.0665C7.69599 19.635 7.32199 19.2852 6.86071 19.2852Z" fill="#2A428C"/>
  <path d="M6.86071 25.7578H5.07186C4.96359 25.7578 4.86053 25.7777 4.76562 25.8128C5.0752 25.9271 5.29467 26.2089 5.29467 26.5392V28.2123C5.29467 28.5426 5.0753 28.8243 4.76562 28.9386C4.86053 28.9736 4.96369 28.9936 5.07186 28.9936H6.86071C7.32199 28.9936 7.69599 28.6438 7.69599 28.2123V26.5391C7.69599 26.1076 7.32199 25.7578 6.86071 25.7578Z" fill="#2A428C"/>
  <path d="M6.86071 32.2305H5.07186C4.96359 32.2305 4.86053 32.2504 4.76562 32.2854C5.0752 32.3998 5.29467 32.6815 5.29467 33.0118V34.6849C5.29467 35.0151 5.0753 35.2969 4.76562 35.4111C4.86053 35.4462 4.96369 35.4661 5.07186 35.4661H6.86071C7.32199 35.4661 7.69599 35.1163 7.69599 34.6849V33.0117C7.69599 32.5802 7.32199 32.2305 6.86071 32.2305Z" fill="#2A428C"/>
  <path d="M13.7826 25.7578H11.9937C11.8855 25.7578 11.7824 25.7777 11.6875 25.8128C11.9971 25.9271 12.2165 26.2089 12.2165 26.5392V28.2123C12.2165 28.5426 11.9972 28.8243 11.6875 28.9386C11.7824 28.9736 11.8855 28.9936 11.9937 28.9936H13.7826C14.2439 28.9936 14.6179 28.6438 14.6179 28.2123V26.5391C14.6179 26.1076 14.2439 25.7578 13.7826 25.7578Z" fill="#2A428C"/>
  <path d="M13.7826 32.2305H11.9937C11.8855 32.2305 11.7824 32.2504 11.6875 32.2854C11.9971 32.3998 12.2165 32.6815 12.2165 33.0118V34.6849C12.2165 35.0151 11.9972 35.2969 11.6875 35.4111C11.7824 35.4462 11.8855 35.4661 11.9937 35.4661H13.7826C14.2439 35.4661 14.6179 35.1163 14.6179 34.6849V33.0117C14.6179 32.5802 14.2439 32.2305 13.7826 32.2305Z" fill="#2A428C"/>
  <path d="M20.7045 25.7578H18.9156C18.8073 25.7578 18.7043 25.7777 18.6094 25.8128C18.9189 25.9271 19.1384 26.2089 19.1384 26.5392V28.2123C19.1384 28.5426 18.9191 28.8243 18.6094 28.9386C18.7043 28.9736 18.8073 28.9936 18.9156 28.9936H20.7045C21.1657 28.9936 21.5397 28.6438 21.5397 28.2123V26.5391C21.5397 26.1076 21.1658 25.7578 20.7045 25.7578Z" fill="#2A428C"/>
  <path d="M28.4538 28.9935V26.5391C28.4538 26.1076 28.0798 25.7578 27.6185 25.7578H25.8297C25.7214 25.7578 25.6183 25.7777 25.5234 25.8128C25.833 25.9271 26.0525 26.2089 26.0525 26.5392V28.2123C26.0525 28.5426 25.8331 28.8243 25.5234 28.9386C25.6183 28.9736 25.7214 28.9936 25.8297 28.9936H28.4538V28.9935Z" fill="#2A428C"/>
  <path d="M20.7045 32.2305H18.9156C18.8073 32.2305 18.7043 32.2504 18.6094 32.2854C18.9189 32.3998 19.1384 32.6815 19.1384 33.0118V34.6849C19.1384 35.0151 18.9191 35.2969 18.6094 35.4111C18.7043 35.4462 18.8073 35.4661 18.9156 35.4661H20.7045C21.1657 35.4661 21.5397 35.1163 21.5397 34.6849V33.0117C21.5397 32.5802 21.1658 32.2305 20.7045 32.2305Z" fill="#2A428C"/>
  <path d="M43.3594 15.1094V29.6394V38.6956H45.7625V29.6394V16.0459L43.3594 15.1094Z" fill="#D3DCFB"/>
  <path d="M45.7573 16.0514V7.96211C45.7573 6.1751 44.2085 4.72656 42.298 4.72656H4.24055C2.32996 4.72656 0.78125 6.1752 0.78125 7.96211V16.0514H45.7573Z" fill="#FF4155"/>
  <path d="M15.4805 7.55518C15.4805 8.67207 14.5125 9.57744 13.3184 9.57744C12.1242 9.57744 11.1562 8.67197 11.1562 7.55518V3.51055C11.1562 2.39365 12.1242 1.48828 13.3184 1.48828C14.5125 1.48828 15.4805 2.39365 15.4805 3.51055V7.55518Z" fill="#EBF5FC"/>
  <path d="M35.3789 7.55518C35.3789 8.67207 34.4109 9.57744 33.2168 9.57744C32.0227 9.57744 31.0547 8.67197 31.0547 7.55518V3.51055C31.0547 2.39365 32.0227 1.48828 33.2168 1.48828C34.4109 1.48828 35.3789 2.39365 35.3789 3.51055V7.55518Z" fill="#EBF5FC"/>
  <path d="M33.2152 1.48828C32.7713 1.48828 32.3589 1.61377 32.0156 1.82832C32.5958 2.19102 32.9782 2.80879 32.9782 3.51055V7.55518C32.9782 8.25684 32.5958 8.87471 32.0156 9.2374C32.3589 9.45195 32.7712 9.57744 33.2152 9.57744C34.4093 9.57744 35.3773 8.67197 35.3773 7.55518V3.51055C35.3774 2.39365 34.4093 1.48828 33.2152 1.48828Z" fill="#D3DCFB"/>
  <path d="M13.3246 1.48828C12.8807 1.48828 12.4683 1.61377 12.125 1.82832C12.7052 2.19102 13.0876 2.80879 13.0876 3.51055V7.55518C13.0876 8.25684 12.7052 8.87471 12.125 9.2374C12.4683 9.45195 12.8806 9.57744 13.3246 9.57744C14.5187 9.57744 15.4867 8.67197 15.4867 7.55518V3.51055C15.4867 2.39365 14.5187 1.48828 13.3246 1.48828Z" fill="#D3DCFB"/>
  <path d="M42.2929 4.72656H39.8906C41.8011 4.72656 43.3499 6.1752 43.3499 7.96211V16.0515H45.7522V7.96221C45.7522 6.1752 44.2034 4.72656 42.2929 4.72656Z" fill="#E80054"/>
  <path d="M36.2385 50.0254C43.4033 50.0254 49.2114 44.5929 49.2114 37.8916C49.2114 31.1903 43.4033 25.7578 36.2385 25.7578C29.0738 25.7578 23.2656 31.1903 23.2656 37.8916C23.2656 44.5929 29.0738 50.0254 36.2385 50.0254Z" fill="#4FABF7"/>
  <path d="M36.2479 46.7885C41.502 46.7885 45.7614 42.8046 45.7614 37.8903C45.7614 32.976 41.502 28.9922 36.2479 28.9922C30.9937 28.9922 26.7344 32.976 26.7344 37.8903C26.7344 42.8046 30.9937 46.7885 36.2479 46.7885Z" fill="#EBF5FC"/>
  <path d="M36.2398 25.7578C35.8349 25.7578 35.4346 25.7761 35.0391 25.8101C41.6408 26.3769 46.8112 31.569 46.8112 37.8916C46.8112 44.2142 41.6408 49.4063 35.0391 49.9731C35.4346 50.0071 35.8349 50.0254 36.2398 50.0254C43.4045 50.0254 49.2127 44.5929 49.2127 37.8916C49.2127 31.1903 43.4046 25.7578 36.2398 25.7578Z" fill="#1886EA"/>
  <path d="M36.2468 28.9922C35.8403 28.9922 35.4399 29.0162 35.0469 29.0624C39.7346 29.6142 43.3605 33.3562 43.3605 37.8902C43.3605 42.4243 39.7347 46.1663 35.0469 46.7181C35.4399 46.7644 35.8403 46.7883 36.2468 46.7883C41.5009 46.7883 45.7602 42.8045 45.7602 37.8901C45.7602 32.9758 41.501 28.9922 36.2468 28.9922Z" fill="#D3DCFB"/>
  <path d="M36.2454 39.5053C37.2007 39.5053 37.9751 38.7809 37.9751 37.8874C37.9751 36.9939 37.2007 36.2695 36.2454 36.2695C35.2901 36.2695 34.5156 36.9939 34.5156 37.8874C34.5156 38.7809 35.2901 39.5053 36.2454 39.5053Z" fill="#FFDD40"/>
  <path d="M5.07929 23.2552H6.86824C7.76063 23.2552 8.48659 22.5762 8.48659 21.7415V20.0684C8.48659 19.2337 7.76063 18.5547 6.86824 18.5547H5.07929C4.1869 18.5547 3.46094 19.2337 3.46094 20.0684V21.7415C3.46094 22.5762 4.1869 23.2552 5.07929 23.2552ZM5.02708 20.0683C5.02708 20.0413 5.05057 20.0194 5.07929 20.0194H6.86824C6.89695 20.0194 6.92045 20.0413 6.92045 20.0683V21.7414C6.92045 21.7684 6.89695 21.7902 6.86824 21.7902H5.07929C5.05057 21.7902 5.02708 21.7684 5.02708 21.7414V20.0683Z" fill="black"/>
  <path d="M11.9933 23.2552H13.7822C14.6746 23.2552 15.4005 22.5762 15.4005 21.7415V20.0684C15.4005 19.2337 14.6746 18.5547 13.7822 18.5547H11.9933C11.101 18.5547 10.375 19.2337 10.375 20.0684V21.7415C10.375 22.5762 11.101 23.2552 11.9933 23.2552ZM11.9411 20.0683C11.9411 20.0413 11.9646 20.0194 11.9933 20.0194H13.7822C13.8109 20.0194 13.8344 20.0413 13.8344 20.0683V21.7414C13.8344 21.7684 13.8109 21.7902 13.7822 21.7902H11.9933C11.9646 21.7902 11.9411 21.7684 11.9411 21.7414V20.0683Z" fill="black"/>
  <path d="M18.9152 23.2552H20.7041C21.5965 23.2552 22.3224 22.5762 22.3224 21.7415V20.0684C22.3224 19.2337 21.5965 18.5547 20.7041 18.5547H18.9152C18.0228 18.5547 17.2969 19.2337 17.2969 20.0684V21.7415C17.2969 22.5762 18.0228 23.2552 18.9152 23.2552ZM18.863 20.0683C18.863 20.0413 18.8865 20.0194 18.9152 20.0194H20.7041C20.7328 20.0194 20.7563 20.0413 20.7563 20.0683V21.7414C20.7563 21.7684 20.7328 21.7902 20.7041 21.7902H18.9152C18.8865 21.7902 18.863 21.7684 18.863 21.7414V20.0683Z" fill="black"/>
  <path d="M27.6259 23.2552C28.5183 23.2552 29.2443 22.5762 29.2443 21.7415V20.0684C29.2443 19.2337 28.5183 18.5547 27.6259 18.5547H25.8371C24.9447 18.5547 24.2188 19.2337 24.2188 20.0684V21.7415C24.2188 22.5762 24.9447 23.2552 25.8371 23.2552H27.6259ZM25.7849 21.7415V20.0684C25.7849 20.0414 25.8084 20.0195 25.8371 20.0195H27.6259C27.6547 20.0195 27.6782 20.0414 27.6782 20.0684V21.7415C27.6782 21.7685 27.6547 21.7903 27.6259 21.7903H25.8371C25.8084 21.7903 25.7849 21.7685 25.7849 21.7415Z" fill="black"/>
  <path d="M34.54 23.2552C35.4324 23.2552 36.1584 22.5762 36.1584 21.7415V20.0684C36.1584 19.2337 35.4324 18.5547 34.54 18.5547H32.7512C31.8588 18.5547 31.1328 19.2337 31.1328 20.0684V21.7415C31.1328 22.5762 31.8588 23.2552 32.7512 23.2552H34.54ZM32.699 21.7415V20.0684C32.699 20.0414 32.7224 20.0195 32.7512 20.0195H34.54C34.5687 20.0195 34.5922 20.0414 34.5922 20.0684V21.7415C34.5922 21.7685 34.5687 21.7903 34.54 21.7903H32.7512C32.7223 21.7903 32.699 21.7685 32.699 21.7415Z" fill="black"/>
  <path d="M41.4541 23.2552C42.3465 23.2552 43.0724 22.5762 43.0724 21.7415V20.0684C43.0724 19.2337 42.3465 18.5547 41.4541 18.5547H39.6652C38.7728 18.5547 38.0469 19.2337 38.0469 20.0684V21.7415C38.0469 22.5762 38.7728 23.2552 39.6652 23.2552H41.4541ZM39.613 21.7415V20.0684C39.613 20.0414 39.6365 20.0195 39.6652 20.0195H41.4541C41.4828 20.0195 41.5063 20.0414 41.5063 20.0684V21.7415C41.5063 21.7685 41.4828 21.7903 41.4541 21.7903H39.6652C39.6365 21.7903 39.613 21.7685 39.613 21.7415Z" fill="black"/>
  <path d="M3.46094 28.2142C3.46094 29.0488 4.1869 29.7278 5.07929 29.7278H6.86824C7.76063 29.7278 8.48659 29.0488 8.48659 28.2142V26.541C8.48659 25.7063 7.76063 25.0273 6.86824 25.0273H5.07929C4.1869 25.0273 3.46094 25.7063 3.46094 26.541V28.2142ZM5.02708 26.541C5.02708 26.5141 5.05057 26.4922 5.07929 26.4922H6.86824C6.89695 26.4922 6.92045 26.5141 6.92045 26.541V28.2142C6.92045 28.2411 6.89695 28.263 6.86824 28.263H5.07929C5.05057 28.263 5.02708 28.2411 5.02708 28.2142V26.541Z" fill="black"/>
  <path d="M10.375 28.2142C10.375 29.0488 11.101 29.7278 11.9933 29.7278H13.7822C14.6746 29.7278 15.4005 29.0488 15.4005 28.2142V26.541C15.4005 25.7063 14.6746 25.0273 13.7822 25.0273H11.9933C11.101 25.0273 10.375 25.7063 10.375 26.541V28.2142ZM11.9411 26.541C11.9411 26.5141 11.9646 26.4922 11.9933 26.4922H13.7822C13.8109 26.4922 13.8344 26.5141 13.8344 26.541V28.2142C13.8344 28.2411 13.8109 28.263 13.7822 28.263H11.9933C11.9646 28.263 11.9411 28.2411 11.9411 28.2142V26.541Z" fill="black"/>
  <path d="M17.2969 28.2142C17.2969 29.0488 18.0228 29.7278 18.9152 29.7278H20.7041C21.5965 29.7278 22.3224 29.0488 22.3224 28.2142V26.541C22.3224 25.7063 21.5965 25.0273 20.7041 25.0273H18.9152C18.0228 25.0273 17.2969 25.7063 17.2969 26.541V28.2142ZM18.863 26.541C18.863 26.5141 18.8865 26.4922 18.9152 26.4922H20.7041C20.7328 26.4922 20.7563 26.5141 20.7563 26.541V28.2142C20.7563 28.2411 20.7328 28.263 20.7041 28.263H18.9152C18.8865 28.263 18.863 28.2411 18.863 28.2142V26.541Z" fill="black"/>
  <path d="M3.46094 34.6829C3.46094 35.5176 4.1869 36.1966 5.07929 36.1966H6.86824C7.76063 36.1966 8.48659 35.5176 8.48659 34.6829V33.0098C8.48659 32.1751 7.76063 31.4961 6.86824 31.4961H5.07929C4.1869 31.4961 3.46094 32.1751 3.46094 33.0098V34.6829ZM5.02708 33.0098C5.02708 32.9828 5.05057 32.9609 5.07929 32.9609H6.86824C6.89695 32.9609 6.92045 32.9828 6.92045 33.0098V34.6829C6.92045 34.7099 6.89695 34.7317 6.86824 34.7317H5.07929C5.05057 34.7317 5.02708 34.7099 5.02708 34.6829V33.0098Z" fill="black"/>
  <path d="M10.375 34.6829C10.375 35.5176 11.101 36.1966 11.9933 36.1966H13.7822C14.6746 36.1966 15.4005 35.5176 15.4005 34.6829V33.0098C15.4005 32.1751 14.6746 31.4961 13.7822 31.4961H11.9933C11.101 31.4961 10.375 32.1751 10.375 33.0098V34.6829ZM11.9411 33.0098C11.9411 32.9828 11.9646 32.9609 11.9933 32.9609H13.7822C13.8109 32.9609 13.8344 32.9828 13.8344 33.0098V34.6829C13.8344 34.7099 13.8109 34.7317 13.7822 34.7317H11.9933C11.9646 34.7317 11.9411 34.7099 11.9411 34.6829V33.0098Z" fill="black"/>
  <path d="M17.2969 34.6829C17.2969 35.5176 18.0228 36.1966 18.9152 36.1966H20.7041C21.5965 36.1966 22.3224 35.5176 22.3224 34.6829V33.0098C22.3224 32.1751 21.5965 31.4961 20.7041 31.4961H18.9152C18.0228 31.4961 17.2969 32.1751 17.2969 33.0098V34.6829ZM18.863 33.0098C18.863 32.9828 18.8865 32.9609 18.9152 32.9609H20.7041C20.7328 32.9609 20.7563 32.9828 20.7563 33.0098V34.6829C20.7563 34.7099 20.7328 34.7317 20.7041 34.7317H18.9152C18.8865 34.7317 18.863 34.7099 18.863 34.6829V33.0098Z" fill="black"/>
  <path d="M46.5423 29.3717V7.96152C46.5423 5.77353 44.6392 3.99355 42.2998 3.99355H36.1617V3.5126C36.1617 1.99355 34.8405 0.757813 33.2165 0.757813C31.5925 0.757813 30.2713 1.99355 30.2713 3.5125V3.99346H16.2688V3.5125C16.2688 1.99355 14.9476 0.757812 13.3236 0.757812C11.6995 0.757812 10.3783 1.99355 10.3783 3.5125V3.99346H4.24248C1.90318 3.99346 0 5.77354 0 7.96143V19.4395C0 19.8439 0.350503 20.1719 0.783072 20.1719C1.21564 20.1719 1.56614 19.8439 1.56614 19.4395V16.7832H44.9761V27.9573C42.5992 26.1264 39.5565 25.0254 36.244 25.0254C33.689 25.0254 31.295 25.6811 29.2427 26.8208V26.5667C29.2427 25.7168 28.5035 25.0254 27.5948 25.0254H25.8652C24.9565 25.0254 24.2173 25.7168 24.2173 26.5667V28.1846C24.2173 28.9615 24.8357 29.6043 25.6359 29.7092C23.6703 31.9346 22.4881 34.7863 22.4881 37.8916C22.4881 37.9172 22.4889 37.9425 22.4891 37.9681H4.24248C2.76675 37.9681 1.56614 36.8451 1.56614 35.4649V22.3691C1.56614 21.9646 1.21564 21.6367 0.783072 21.6367C0.350503 21.6367 0 21.9646 0 22.3691V38.7006C0 40.8886 1.90307 42.6686 4.24248 42.6686H6.13699C6.56956 42.6686 6.92006 42.3406 6.92006 41.9361C6.92006 41.5316 6.56956 41.2037 6.13699 41.2037H4.24248C2.76675 41.2037 1.56614 40.0808 1.56614 38.7006V38.5409C2.2967 39.098 3.22845 39.4329 4.24248 39.4329H22.5871C22.6646 40.037 22.787 40.6282 22.951 41.2038H9.26917C8.83661 41.2038 8.4861 41.5317 8.4861 41.9362C8.4861 42.3407 8.83661 42.6687 9.26917 42.6687H23.4717C25.5038 47.4046 30.4629 50.7578 36.244 50.7578C43.8291 50.7578 50 44.986 50 37.8916C50 34.6268 48.6925 31.6427 46.5423 29.3717ZM31.8374 3.5125C31.8374 2.80127 32.456 2.22266 33.2165 2.22266C33.9769 2.22266 34.5955 2.80127 34.5955 3.5125V7.55713C34.5955 8.26836 33.9769 8.84707 33.2165 8.84707C32.456 8.84707 31.8374 8.26846 31.8374 7.55713V3.5125ZM11.9445 3.5125C11.9445 2.80127 12.5632 2.22266 13.3236 2.22266C14.084 2.22266 14.7027 2.80127 14.7027 3.5125V7.55713C14.7027 8.26836 14.084 8.84707 13.3236 8.84707C12.5632 8.84707 11.9445 8.26846 11.9445 7.55713V3.5125ZM4.24248 5.4583H10.3783V7.2291H9.43174C8.99917 7.2291 8.64867 7.55703 8.64867 7.96152C8.64867 8.36602 8.99917 8.69395 9.43174 8.69395H10.642C11.1057 9.64707 12.1329 10.3118 13.3236 10.3118C14.5143 10.3118 15.5415 9.64717 16.0052 8.69395H17.2154C17.6479 8.69395 17.9984 8.36602 17.9984 7.96152C17.9984 7.55703 17.6479 7.2291 17.2154 7.2291H16.2688V5.4583H30.2713V7.2291H29.3246C28.892 7.2291 28.5415 7.55703 28.5415 7.96152C28.5415 8.36602 28.892 8.69395 29.3246 8.69395H30.5349C30.9987 9.64707 32.0259 10.3118 33.2165 10.3118C34.407 10.3118 35.4343 9.64717 35.898 8.69395H37.1083C37.5409 8.69395 37.8914 8.36602 37.8914 7.96152C37.8914 7.55703 37.5409 7.2291 37.1083 7.2291H36.1617V5.4583H42.2998C43.7755 5.4583 44.9761 6.58125 44.9761 7.96143V12.0826H1.56625V7.96152C1.56625 6.58125 2.76686 5.4583 4.24248 5.4583ZM1.56625 15.3184V13.5476H44.9762V15.3184H1.56625ZM25.7834 26.5667C25.7834 26.5245 25.8202 26.4902 25.8652 26.4902H27.5948C27.6399 26.4902 27.6766 26.5246 27.6766 26.5667V27.8332C27.4914 27.9715 27.3102 28.1142 27.1329 28.261H25.8651C25.82 28.261 25.7833 28.2267 25.7833 28.1846L25.7834 26.5667ZM36.244 49.293C29.5226 49.293 24.0542 44.1783 24.0542 37.8916C24.0542 31.6049 29.5226 26.4902 36.244 26.4902C42.9655 26.4902 48.4339 31.6049 48.4339 37.8916C48.4339 44.1783 42.9655 49.293 36.244 49.293Z" fill="black"/>
  <path d="M36.2496 28.2578C30.5721 28.2578 25.9531 32.578 25.9531 37.8884C25.9531 43.1987 30.5721 47.5189 36.2496 47.5189C41.9272 47.5189 46.5462 43.1987 46.5462 37.8884C46.5462 32.578 41.9272 28.2578 36.2496 28.2578ZM36.2496 46.0541C31.4356 46.0541 27.5193 42.391 27.5193 37.8884C27.5193 33.3857 31.4357 29.7227 36.2496 29.7227C41.0635 29.7227 44.98 33.3857 44.98 37.8884C44.98 42.391 41.0636 46.0541 36.2496 46.0541Z" fill="black"/>
  <path d="M40.5713 37.1585H38.6342C38.3854 36.4509 37.7867 35.8908 37.0302 35.6581V32.2285C37.0302 31.824 36.6797 31.4961 36.2471 31.4961C35.8145 31.4961 35.464 31.824 35.464 32.2285V35.6581C34.4609 35.9667 33.7344 36.8507 33.7344 37.8909C33.7344 39.1869 34.8616 40.2412 36.2471 40.2412C37.3593 40.2412 38.3044 39.5616 38.6342 38.6233H40.5713C41.0039 38.6233 41.3544 38.2954 41.3544 37.8909C41.3544 37.4864 41.0039 37.1585 40.5713 37.1585ZM36.247 38.7764C35.725 38.7764 35.3004 38.3792 35.3004 37.8909C35.3004 37.4026 35.725 37.0055 36.247 37.0055C36.7689 37.0055 37.1936 37.4026 37.1936 37.8909C37.1936 38.3792 36.7689 38.7764 36.247 38.7764Z" fill="black"/>
</svg>