<svg xmlns="http://www.w3.org/2000/svg" width="50" height="51" viewBox="0 0 50 51" fill="none">
  <g clip-path="url(#clip0_3224_28522)">
    <path d="M26.3002 4.10156C25.3911 4.10156 24.5454 4.36895 23.8359 4.82773C24.1069 5.56465 24.2479 6.41348 24.2479 7.36602V8.62227C28.1197 9.51074 30.8338 11.8227 30.8338 16.177V8.61738C30.8337 6.12334 28.8039 4.10156 26.3002 4.10156Z" fill="#3D5959"/>
    <path d="M20.0026 8.1874C21.5094 8.1874 22.9439 8.32539 24.2476 8.62451V7.36826C24.2476 3.64228 22.1048 1.49219 18.364 1.49219H15.945C12.2042 1.49219 9.17188 4.51279 9.17188 8.23877V16.1792C9.17188 10.3589 14.0208 8.1874 20.0026 8.1874Z" fill="#537982"/>
    <path d="M12.2104 10.0898V8.23877C12.2104 4.60723 15.0914 1.64717 18.7009 1.49932C18.5899 1.49502 18.4781 1.49219 18.364 1.49219H15.945C12.2042 1.49219 9.17188 4.51279 9.17188 8.23877V16.1792C9.17188 13.3359 10.3294 11.3639 12.2104 10.0898Z" fill="#3D5959"/>
    <path d="M27.0838 40.8251C27.0838 38.4798 27.9649 36.3399 29.4151 34.7148H25.0815C24.8045 37.2285 22.634 39.1855 19.9968 39.1855C17.3594 39.1855 15.1891 37.2285 14.9119 34.7148H7.63818C4.99473 34.7148 2.84375 36.8131 2.84375 39.3921V46.3063C2.84375 46.6494 3.12617 46.9276 3.47451 46.9276H29.4083C27.9624 45.3033 27.0838 43.1665 27.0838 40.8251Z" fill="#0592FB"/>
    <path d="M6.93105 46.3063V39.3921C6.93105 36.8132 9.08193 34.7148 11.7255 34.7148H7.63818C4.99473 34.7148 2.84375 36.8131 2.84375 39.3921V46.3063C2.84375 46.6494 3.12617 46.9276 3.47451 46.9276H7.56182C7.21348 46.9277 6.93105 46.6494 6.93105 46.3063Z" fill="#0181FB"/>
    <path d="M23.0249 31.5664C22.453 31.6705 21.8635 31.7256 21.2606 31.7256H18.7371C18.1344 31.7256 17.5448 31.6705 16.9729 31.5664V34.7146H14.9141C15.1912 37.2282 17.3616 39.1853 19.9989 39.1853C22.6362 39.1853 24.8066 37.2282 25.0837 34.7146H23.0249V31.5664Z" fill="#FFCDBE"/>
    <path d="M18.7371 31.7256C18.1344 31.7256 17.5448 31.6705 16.9729 31.5664V34.7146H14.9141C15.0417 35.8717 15.5712 36.9102 16.3619 37.6948H18.5277C19.0671 37.6948 19.5043 37.2576 19.5043 36.7183V31.7256H18.7371Z" fill="#FFAF9D"/>
    <path d="M9.16982 22.3732V19.5504V17.5664H7.69365C6.59453 17.5664 5.70312 18.4279 5.70312 19.4906V21.8201C5.70312 22.8829 6.59453 23.7443 7.69365 23.7443H9.27256C9.20518 23.2967 9.16982 22.839 9.16982 22.3732Z" fill="#FFCDBE"/>
    <path d="M32.3059 17.5664H30.8294V22.3733C30.8294 22.8391 30.7939 23.2968 30.7266 23.7443H32.3059C33.4053 23.7443 34.296 22.8829 34.296 21.8201V19.4906C34.2959 18.428 33.4052 17.5664 32.3059 17.5664Z" fill="#FFCDBE"/>
    <path d="M20.0026 8.18359C14.0208 8.18359 9.17188 10.3551 9.17188 16.1754V22.3748C9.17188 27.5371 13.4561 31.7224 18.7408 31.7224H21.2644C26.5494 31.7224 30.8335 27.5372 30.8335 22.3748V16.1754C30.8335 10.3551 25.9845 8.18359 20.0026 8.18359Z" fill="#FFCDBE"/>
    <path d="M12.2104 22.3748V16.1754C12.2104 10.8569 16.2596 8.58555 21.522 8.2334C21.0255 8.2002 20.5185 8.18359 20.0026 8.18359C14.0208 8.18359 9.17188 10.3551 9.17188 16.1754V22.3748C9.17188 27.5371 13.4561 31.7224 18.7408 31.7224H21.2644C21.3505 31.7224 21.4363 31.7211 21.522 31.7189C16.3562 31.5855 12.2104 27.453 12.2104 22.3748Z" fill="#FFAF9D"/>
    <path d="M37.64 45.0784C37.308 45.4413 36.8354 45.6494 36.3435 45.6494H36.3396C35.8464 45.6484 35.3737 45.4385 35.0423 45.0733L30.1999 39.7408C30.1477 39.6833 30.1203 39.6074 30.1242 39.5298C30.128 39.4522 30.1624 39.3792 30.2199 39.327L32.3888 37.3574C32.4448 37.3064 32.5154 37.2813 32.5856 37.2813C32.6653 37.2813 32.7449 37.3137 32.8027 37.3773L36.2049 41.1238C36.2417 41.1644 36.2943 41.1877 36.3491 41.1878C36.4041 41.1878 36.4567 41.1646 36.4935 41.1243L42.7869 34.2488C41.1208 32.6235 38.84 31.6211 36.324 31.6211C31.2221 31.6211 27.0859 35.741 27.0859 40.823C27.0859 45.9051 31.2221 50.025 36.324 50.025C41.426 50.025 45.5621 45.905 45.5621 40.823C45.5621 39.5462 45.3008 38.3302 44.8289 37.2248L37.64 45.0784Z" fill="#00C184"/>
    <path d="M27.8203 40.8236C27.8203 45.2969 31.3211 48.9706 35.7375 49.2727C32.4561 47.8608 30.1583 44.6105 30.1583 40.8236C30.1583 40.8103 30.1589 40.797 30.1589 40.7836L29.6596 40.2337C29.4753 40.0309 29.3811 39.7683 29.3944 39.4943C29.408 39.2208 29.527 38.9689 29.7298 38.7851L30.6097 37.986C31.43 35.4634 33.313 33.418 35.7344 32.375C31.3192 32.6785 27.8203 36.3516 27.8203 40.8236Z" fill="#07B17B"/>
    <path d="M36.3408 45.6499C35.8475 45.6489 35.3749 45.439 35.0434 45.0738L30.2011 39.7413C30.1488 39.6838 30.1215 39.6079 30.1254 39.5303C30.1292 39.4527 30.1635 39.3797 30.2211 39.3274L32.3899 37.3579C32.446 37.3069 32.5166 37.2818 32.5868 37.2818C32.6665 37.2818 32.7461 37.3142 32.8039 37.3778L36.206 41.1243C36.2428 41.1648 36.2955 41.1882 36.3503 41.1883C36.4052 41.1883 36.4579 41.1651 36.4946 41.1248L44.4844 32.396C44.5369 32.3387 44.6099 32.3045 44.6876 32.3011C44.692 32.3009 44.6962 32.3008 44.7006 32.3008C44.7736 32.3008 44.8442 32.3281 44.8983 32.3776L47.0594 34.3558C47.1788 34.465 47.187 34.6503 47.0777 34.7696L37.6413 45.0787C37.3093 45.4416 36.8366 45.6497 36.3447 45.6497H36.3408V45.6499Z" fill="white"/>
    <path d="M19.0762 17.6992C18.6717 17.6992 18.3438 18.0271 18.3438 18.4316V21.4618C18.3438 22.1938 18.946 22.7894 19.6861 22.7894H20.9947C21.3993 22.7894 21.7271 22.4614 21.7271 22.0569C21.7271 21.6524 21.3993 21.3245 20.9947 21.3245H19.8086V18.4316C19.8086 18.0271 19.4808 17.6992 19.0762 17.6992Z" fill="black"/>
    <path d="M13.4609 17.0879V19.2393C13.4609 19.6437 13.7889 19.9717 14.1934 19.9717C14.5979 19.9717 14.9258 19.6437 14.9258 19.2393V17.0879C14.9258 16.6834 14.5979 16.3555 14.1934 16.3555C13.7889 16.3555 13.4609 16.6834 13.4609 17.0879Z" fill="black"/>
    <path d="M25.0703 17.0879V19.2393C25.0703 19.6437 25.3982 19.9717 25.8028 19.9717C26.2074 19.9717 26.5353 19.6437 26.5353 19.2393V17.0879C26.5353 16.6834 26.2074 16.3555 25.8028 16.3555C25.3982 16.3555 25.0703 16.6834 25.0703 17.0879Z" fill="black"/>
    <path d="M16.9302 24.686C16.7621 24.3181 16.3275 24.1562 15.9596 24.3241C15.5916 24.4922 15.4296 24.9267 15.5976 25.2947C16.3816 27.011 18.1097 28.1201 19.9998 28.1201C21.89 28.1201 23.6181 27.0111 24.4018 25.2947C24.5699 24.9268 24.4079 24.4923 24.0399 24.3242C23.672 24.1562 23.2375 24.3183 23.0694 24.6862C22.5231 25.8824 21.3182 26.6554 19.9998 26.6554C18.6814 26.6552 17.4765 25.8823 16.9302 24.686Z" fill="black"/>
    <path d="M47.8886 34.5266C47.8764 34.2528 47.7585 34.0003 47.5565 33.8155L45.3951 31.8372C45.2058 31.6639 44.9599 31.5684 44.7031 31.5684C44.6879 31.5684 44.6733 31.5687 44.6577 31.5693C44.3842 31.5814 44.1315 31.6993 43.9467 31.9014L42.7384 33.2215C41.0038 31.7669 38.7671 30.889 36.3277 30.889C33.4891 30.889 30.9236 32.0771 29.1062 33.9806H23.761V32.1579C25.0191 31.852 26.2097 31.3148 27.2811 30.5595C27.6116 30.3264 27.6905 29.8694 27.4575 29.5389C27.2246 29.2084 26.7677 29.1292 26.4369 29.3623C24.9252 30.4282 23.1366 30.9916 21.2644 30.9916H18.7407C13.8682 30.9916 9.9042 27.1269 9.9042 22.3765V16.1771C9.9042 13.7058 10.8591 11.8339 12.7424 10.6132C14.4535 9.504 16.9641 8.91768 20.0025 8.91768C23.041 8.91768 25.5516 9.50391 27.2627 10.6132C29.146 11.8339 30.101 13.7059 30.101 16.1771V22.3765C30.101 24.0659 29.5997 25.7013 28.6516 27.1059C28.4252 27.4411 28.5135 27.8964 28.8488 28.1228C29.1842 28.3489 29.6395 28.2608 29.8656 27.9255C30.5782 26.8702 31.0741 25.7033 31.3397 24.48H32.31C33.811 24.48 35.0325 23.2882 35.0325 21.8233V19.4938C35.0325 18.0289 33.811 16.8372 32.31 16.8372H31.5659V8.61768C31.5659 5.72383 29.2035 3.36943 26.2999 3.36943C25.5471 3.36943 24.8311 3.52832 24.1829 3.81338C23.1429 1.85645 21.1249 0.757812 18.3639 0.757812H15.9449C11.8063 0.757812 8.43936 4.11289 8.43936 8.23682V16.8372H7.69561C6.19424 16.8372 4.97266 18.029 4.97266 19.4938V21.8233C4.97266 23.2882 6.19424 24.48 7.69561 24.48H8.66572C9.48457 28.2392 12.4513 31.2291 16.2442 32.1565V33.9807H7.64404C4.59658 33.9807 2.11719 36.4074 2.11719 39.3903V46.3046C2.11719 47.0511 2.72871 47.6583 3.48037 47.6583H8.49941C8.90401 47.6583 9.23184 47.3304 9.23184 46.9259C9.23184 46.5214 8.90401 46.1935 8.49941 46.1935H3.58213V39.3903C3.58213 37.2152 5.4043 35.4455 7.64414 35.4455H14.3017C14.8959 38.0354 17.2381 39.9162 20.0026 39.9162C22.7673 39.9162 25.1096 38.0353 25.7037 35.4455H27.9482C26.9421 36.9966 26.3573 38.8432 26.3573 40.8233C26.3573 42.8002 26.94 44.6439 27.9431 46.1934H11.9174C11.5129 46.1934 11.185 46.5213 11.185 46.9258C11.185 47.3303 11.5129 47.6582 11.9174 47.6582H29.0986C30.9168 49.5662 33.4851 50.7578 36.3277 50.7578C41.8255 50.7578 46.2982 46.3013 46.2982 40.8234C46.2982 39.6145 46.0799 38.4556 45.6809 37.3831L47.6204 35.2643C47.8054 35.0622 47.9006 34.8002 47.8886 34.5266ZM31.5658 22.3766V19.5537V18.3021H32.3099C33.0034 18.3021 33.5676 18.8368 33.5676 19.4939V21.8234C33.5676 22.4806 33.0034 23.0152 32.3099 23.0152H31.544C31.5576 22.8031 31.5658 22.5903 31.5658 22.3766ZM26.2999 4.83428C28.3959 4.83428 30.1011 6.53154 30.1011 8.61768V11.281C29.5657 10.5528 28.8854 9.91924 28.0597 9.38398C27.1773 8.81221 26.1479 8.36699 24.98 8.04834V7.36621C24.98 6.57461 24.8888 5.84463 24.7134 5.18076C25.1965 4.95879 25.7336 4.83428 26.2999 4.83428ZM9.9042 8.23682C9.9042 4.92061 12.6141 2.22266 15.9449 2.22266H18.3639C21.6857 2.22266 23.515 4.04941 23.515 7.36631V7.72686C22.4396 7.54463 21.2676 7.45293 20.0025 7.45293C16.6333 7.45293 13.9225 8.10264 11.9456 9.38398C11.1199 9.91914 10.4395 10.5527 9.9042 11.281V8.23682ZM7.69561 23.0151C7.00186 23.0151 6.4375 22.4805 6.4375 21.8233V19.4938C6.4375 18.8366 7.00186 18.3021 7.69561 18.3021H8.43936V19.5536V22.3765C8.43936 22.591 8.44707 22.8038 8.46065 23.015L7.69561 23.0151ZM20.0025 38.4514C18.0479 38.4514 16.3747 37.2056 15.8172 35.4455H16.9766C17.3812 35.4455 17.709 35.1176 17.709 34.7131V32.4062C18.0484 32.4394 18.3926 32.4565 18.7407 32.4565H21.2643C21.6111 32.4565 21.9551 32.4381 22.2961 32.405V34.7132C22.2961 35.1177 22.624 35.4456 23.0285 35.4456H24.1879C23.6305 37.2056 21.9572 38.4514 20.0025 38.4514ZM37.1034 44.5843C36.9099 44.7959 36.634 44.9173 36.3446 44.9173C36.0572 44.9167 35.7815 44.7942 35.5882 44.5813L31.0412 39.5741L32.5595 38.1954L35.6662 41.6167C35.8413 41.8095 36.091 41.9202 36.3526 41.9207C36.613 41.9207 36.8627 41.8105 37.0372 41.6193L39.0359 39.436C39.3091 39.1377 39.2885 38.6744 38.9901 38.4013C38.6918 38.1282 38.2285 38.1485 37.9554 38.447L36.3545 40.1957L33.3487 36.8856C33.1548 36.6719 32.878 36.5493 32.5893 36.5493C32.3339 36.5493 32.089 36.6438 31.8999 36.8156L29.7314 38.7849C29.5287 38.9688 29.4097 39.2206 29.3961 39.4941C29.3827 39.7681 29.477 40.0308 29.6612 40.2335L34.5036 45.5659C34.9732 46.0833 35.6433 46.3809 36.3471 46.3821C37.044 46.3821 37.7135 46.0873 38.1839 45.5732L44.5413 38.6279C44.7307 39.3285 44.8333 40.0641 44.8333 40.8234C44.8333 45.4936 41.0177 49.293 36.3276 49.293C31.6376 49.293 27.822 45.4936 27.822 40.8234C27.822 36.1533 31.6376 32.3539 36.3276 32.3539C38.3862 32.3539 40.2751 33.0872 41.748 34.3036L40.2795 35.9079C40.0064 36.2063 40.0268 36.6696 40.3253 36.9427C40.6234 37.2157 41.0867 37.1953 41.3601 36.897L44.7306 33.2146L46.2431 34.5993L37.1034 44.5843Z" fill="black"/>
  </g>
  <defs>
    <clipPath id="clip0_3224_28522">
      <rect width="50" height="50" fill="white" transform="translate(0 0.757812)"/>
    </clipPath>
  </defs>
</svg>