<svg xmlns="http://www.w3.org/2000/svg" width="50" height="51" viewBox="0 0 50 51" fill="none">
  <g clip-path="url(#clip0_3224_28833)">
    <path d="M7.42188 16.6758L0.976562 21.8516V45.7773C0.976562 47.9887 2.76914 49.7812 4.98047 49.7812H45.0195C47.2309 49.7812 49.0234 47.9887 49.0234 45.7773V21.8516L42.5781 16.8323" fill="#72D8FF"/>
    <path d="M42.1875 1.73438H7.8125V38.9473H42.1875V1.73438Z" fill="#EDF2FA"/>
    <path d="M31.543 39.3896H17.9226L0.976562 21.8516V45.7773C0.976562 47.9887 2.76914 49.7812 4.98047 49.7812H45.0195C47.2309 49.7812 49.0234 47.9887 49.0234 45.7773V21.8516L31.543 39.3896Z" fill="#FEDA9B"/>
    <path d="M4.30469 49.0959L18.4635 36.2337C22.172 32.8648 27.833 32.8648 31.5415 36.2337L45.7002 49.0959H4.30469Z" fill="#FFB954"/>
    <path d="M34.9345 13.4619C36.1741 12.2222 36.1741 10.2124 34.9345 8.97271C33.6948 7.73306 31.685 7.73306 30.4453 8.97271L34.9345 13.4619Z" fill="#FF5D5D"/>
    <path d="M24.5832 25.3997L20.9072 29.0757C19.2305 30.7523 16.5123 30.7523 14.8356 29.0757C13.159 27.399 13.159 24.6808 14.8356 23.0041L18.5116 19.3281L24.5832 25.3997Z" fill="#FF5D5D"/>
    <path d="M24.583 25.3984L28.8854 29.7008L26.2727 32.3136L21.9688 28.0097L24.583 25.3984Z" fill="#6A80FF"/>
    <path d="M24.5806 25.3993L18.5078 19.3259L25.163 3.69531L40.2056 18.7379L24.5806 25.3993Z" fill="#4DBAF6"/>
    <path d="M36.2017 20.4474L40.2115 18.7379L25.1689 3.69531L23.4609 7.70674L36.2017 20.4474Z" fill="white"/>
    <path d="M18.6455 6.5127C18.4639 6.69434 18.3594 6.94629 18.3594 7.20312C18.3594 7.45996 18.4639 7.71191 18.6455 7.89346C18.8271 8.0752 19.0791 8.17969 19.3359 8.17969C19.5928 8.17969 19.8447 8.0752 20.0264 7.89346C20.208 7.71191 20.3125 7.45996 20.3125 7.20312C20.3125 6.94629 20.208 6.69434 20.0264 6.5127C19.8447 6.33105 19.5928 6.22656 19.3359 6.22656C19.0791 6.22656 18.8271 6.33096 18.6455 6.5127Z" fill="black"/>
    <path d="M11.8047 8.17969H15.7278C16.2672 8.17969 16.7044 7.74238 16.7044 7.20312C16.7044 6.66387 16.2672 6.22656 15.7278 6.22656H11.8047C11.2653 6.22656 10.8281 6.66387 10.8281 7.20312C10.8281 7.74238 11.2653 8.17969 11.8047 8.17969Z" fill="black"/>
    <path d="M11.8047 13.6484H16.5111C17.0505 13.6484 17.4877 13.2111 17.4877 12.6719C17.4877 12.1326 17.0505 11.6953 16.5111 11.6953H11.8047C11.2653 11.6953 10.8281 12.1326 10.8281 12.6719C10.8281 13.2111 11.2653 13.6484 11.8047 13.6484Z" fill="black"/>
    <path d="M49.623 21.0818C49.6231 21.0815 49.6233 21.0813 49.6234 21.0811L43.1781 16.0618C43.1735 16.0583 43.1687 16.0555 43.1641 16.052V15.0156C43.1641 14.4764 42.7269 14.0391 42.1875 14.0391C41.6481 14.0391 41.2109 14.4764 41.2109 15.0156V28.2644C41.2109 28.2703 41.2117 28.2761 41.2118 28.282L33.1313 36.3626L32.1956 35.5127C30.7333 34.1842 28.9514 33.2985 27.0417 32.9285L29.5772 30.393C29.9586 30.0116 29.9586 29.3933 29.5772 29.0118L26.297 25.7314L40.5923 19.6369C40.8906 19.5097 41.1064 19.2426 41.1681 18.9241C41.2297 18.6057 41.1292 18.2773 40.8998 18.0479L36.2319 13.38C36.6271 12.7352 36.8389 11.9926 36.8389 11.2172C36.8389 10.1084 36.4071 9.06611 35.6231 8.28203C34.8392 7.49805 33.7968 7.06631 32.688 7.06631C31.9126 7.06631 31.17 7.27813 30.5252 7.67324L25.8572 3.00527C25.6277 2.77578 25.2996 2.675 24.9809 2.73711C24.6623 2.79883 24.3953 3.01475 24.2682 3.31318L17.687 18.7697L14.1448 22.3118C13.1495 23.3071 12.6013 24.6306 12.6013 26.0382C12.6013 27.4458 13.1495 28.7691 14.1448 29.7645C15.1401 30.7598 16.4636 31.308 17.8712 31.308C19.2788 31.308 20.6021 30.7599 21.5975 29.7645L21.9699 29.392L25.315 32.7371C25.2102 32.7341 25.1051 32.7319 24.9998 32.7319C22.3333 32.7319 19.7778 33.7193 17.8041 35.5124L16.8685 36.3623L8.78789 28.2817C8.78799 28.2758 8.78877 28.27 8.78877 28.264V2.71094H19.725C20.2644 2.71094 20.7016 2.27363 20.7016 1.73438C20.7016 1.19512 20.2644 0.757812 19.725 0.757812H7.8125C7.27314 0.757812 6.83594 1.19512 6.83594 1.73438V15.8959C6.82754 15.9022 6.81865 15.9077 6.81045 15.9144L0.365137 21.0901C0.365234 21.0903 0.365234 21.0904 0.365332 21.0906C0.142773 21.2696 0 21.5438 0 21.8516V45.7773C0 48.5235 2.23418 50.7578 4.98047 50.7578H45.0195C47.7658 50.7578 50 48.5235 50 45.7773V21.8516C50 21.5385 49.8521 21.2605 49.623 21.0818ZM23.7908 9.42051L34.4869 20.1166L24.8088 24.2428L19.6685 19.1024L23.7908 9.42051ZM32.6881 9.01963C33.2751 9.01963 33.8271 9.24824 34.2422 9.66338C34.6572 10.0784 34.8858 10.6303 34.8858 11.2174C34.8858 11.4596 34.8448 11.695 34.7699 11.9182L31.9873 9.13545C32.2104 9.06055 32.4459 9.01963 32.6881 9.01963ZM25.4988 5.40908L29.7518 9.66201C29.7521 9.6624 29.7525 9.66289 29.7529 9.66338C29.7533 9.66387 29.7538 9.66416 29.7543 9.66455L34.2421 14.1523L34.2422 14.1525L34.2424 14.1526L38.4969 18.4071L36.4236 19.291L24.6157 7.48311L25.4988 5.40908ZM17.8714 29.3551C16.9855 29.3551 16.1525 29.0101 15.5261 28.3836C14.8996 27.7572 14.5546 26.9243 14.5546 26.0384C14.5546 25.1524 14.8996 24.3195 15.5261 23.6931L18.5115 20.7076L23.2019 25.3984L20.2166 28.3836C19.5902 29.0101 18.7573 29.3551 17.8714 29.3551ZM24.5828 26.7796L27.5057 29.7024L26.274 30.934L23.3512 28.0111L24.5828 26.7796ZM43.1641 18.5263L47.5512 21.9427L43.1641 26.3298V18.5263ZM19.1177 36.9582C22.4712 33.9118 27.5289 33.9118 30.8824 36.9582L43.9229 48.8047H6.07715L9.30215 45.875H16.4704C17.0098 45.875 17.447 45.4377 17.447 44.8984C17.447 44.3592 17.0098 43.9219 16.4704 43.9219H11.4521L19.1177 36.9582ZM6.83594 18.3987V26.3299L2.43721 21.9312L6.83594 18.3987ZM1.95312 45.7773V24.2093L15.4214 37.6774L3.64561 48.3749C3.61797 48.4 3.59248 48.4267 3.56836 48.454C2.60869 47.9457 1.95312 46.9369 1.95312 45.7773ZM46.4316 48.454C46.4075 48.4266 46.382 48.4 46.3544 48.3749L34.5787 37.6774L48.0469 24.2093V45.7773C48.0469 46.9369 47.3913 47.9457 46.4316 48.454Z" fill="black"/>
    <path d="M38.2812 6.69492C38.5311 6.69492 38.7811 6.59951 38.9718 6.40889L42.9167 2.46396C43.298 2.08262 43.298 1.46426 42.9167 1.08281C42.5353 0.701562 41.917 0.701562 41.5356 1.08281L37.5907 5.02773C37.2094 5.40908 37.2094 6.02744 37.5907 6.40889C37.7814 6.59951 38.0313 6.69492 38.2812 6.69492Z" fill="black"/>
    <path d="M34.6094 4.67256C35.1487 4.67256 35.5859 4.23525 35.5859 3.696V1.73438C35.5859 1.19512 35.1487 0.757812 34.6094 0.757812C34.07 0.757812 33.6328 1.19512 33.6328 1.73438V3.696C33.6328 4.23525 34.07 4.67256 34.6094 4.67256Z" fill="black"/>
    <path d="M42.2538 8.32812H40.2266C39.6872 8.32812 39.25 8.76543 39.25 9.30469C39.25 9.84395 39.6872 10.2812 40.2266 10.2812H42.2538C42.7932 10.2812 43.2304 9.84395 43.2304 9.30469C43.2304 8.76543 42.7932 8.32812 42.2538 8.32812Z" fill="black"/>
    <path d="M20.4766 45.875C20.7334 45.875 20.9844 45.7705 21.167 45.5888C21.3486 45.4072 21.4531 45.1553 21.4531 44.8984C21.4531 44.6416 21.3486 44.3896 21.167 44.208C20.9844 44.0264 20.7334 43.9219 20.4766 43.9219C20.2188 43.9219 19.9678 44.0263 19.7852 44.208C19.6035 44.3896 19.5 44.6416 19.5 44.8984C19.5 45.1553 19.6035 45.4072 19.7852 45.5888C19.9678 45.7705 20.2197 45.875 20.4766 45.875Z" fill="black"/>
  </g>
  <defs>
    <clipPath id="clip0_3224_28833">
      <rect width="50" height="50" fill="white" transform="translate(0 0.757812)"/>
    </clipPath>
  </defs>
</svg>