<svg xmlns="http://www.w3.org/2000/svg" width="51" height="51" viewBox="0 0 51 51" fill="none">
  <path d="M44.3064 45.5859H24.7344C24.7344 41.7676 25.3476 37.1708 25.6394 35.1952C25.7352 34.5514 26.104 33.9821 26.648 33.647C27.6843 33.0094 28.7785 32.5039 29.8104 32.1076C31.7172 31.3725 33.4123 31.0098 34.1412 30.8751C34.3924 30.8281 34.6481 30.8281 34.8994 30.8751C35.6282 31.0099 37.3235 31.3725 39.2303 32.1076C40.2623 32.5039 41.3563 33.0094 42.3927 33.647C42.9367 33.9821 43.3055 34.5514 43.4013 35.1952C43.6932 37.1708 44.3064 41.7677 44.3064 45.5859Z" fill="#5766CB"/>
  <path d="M31.4375 36.7433C31.4375 36.7433 32.7233 39.1347 34.5228 40.4495C36.3224 39.1347 37.6082 36.7433 37.6082 36.7433V32.7344H31.4375V36.7433Z" fill="#ECF4FF"/>
  <path d="M36.227 38.7716C35.7485 39.3622 35.1674 39.9749 34.5197 40.4484C33.8721 39.9749 33.2909 39.3622 32.8125 38.7716L34.5197 37.0859L36.227 38.7716Z" fill="#D57080"/>
  <path d="M31.4375 34.0391L34.523 37.0849L37.6085 34.0391" fill="#D57080"/>
  <path d="M29.5004 39.688C29.5004 39.688 28.5859 43.0487 28.5859 45.5874H24.7344C24.7344 41.7691 25.3476 37.1723 25.6394 35.1967C25.7352 34.5529 26.104 33.9836 26.648 33.6484C29.6964 35.2587 29.5004 39.688 29.5004 39.688Z" fill="#ECF4FF"/>
  <path d="M44.3067 45.5874H40.4561C40.4561 43.0487 39.5416 39.688 39.5416 39.688C39.5416 39.688 39.3456 35.2587 42.3931 33.6484C42.9372 33.9836 43.3059 34.5529 43.4017 35.1967C43.6937 37.1723 44.3067 41.7692 44.3067 45.5874Z" fill="#ECF4FF"/>
  <path d="M30.0445 45.5868H28.5938C28.5938 43.0482 29.5082 39.6875 29.5082 39.6875C29.5082 39.6875 29.5307 43.0109 30.0445 45.5868Z" fill="#3D4FC3"/>
  <path d="M42.0839 45.5868H40.4535C40.4535 43.0482 39.5391 39.6875 39.5391 39.6875C39.5391 39.6875 42.0244 41.0123 42.0839 45.5868Z" fill="#DDEAFB"/>
  <path d="M26.6402 33.6504C27.1964 33.3081 27.7698 33.004 28.3406 32.7344C27.92 33.0971 27.6342 33.7062 27.56 34.3944C27.332 36.5235 26.8519 41.4758 26.8519 45.5894H24.7266C24.7266 41.7711 25.3397 37.1743 25.6316 35.1987C25.7275 34.5549 26.0961 33.9856 26.6402 33.6504Z" fill="#DDEAFB"/>
  <path d="M39.2167 32.1076L37.5923 36.74L34.5068 33.694L31.4212 36.74L29.7969 32.1076C31.7037 31.3725 33.3988 31.0098 34.1276 30.8751C34.3789 30.8281 34.6345 30.8281 34.8859 30.8751C35.6147 31.0098 37.3099 31.3725 39.2167 32.1076Z" fill="#DDEAFB"/>
  <path d="M46.0433 18.8966L29.1305 19.1432L22.2305 19.244C22.2305 19.244 18.7651 14.0413 19.8154 8.95647C20.8657 3.8728 27.2429 6.95386 27.2429 6.95386C27.2429 6.95386 30.7117 1.51562 35.2877 1.51562C42.0871 1.51562 44.9492 8.18651 48.0255 5.79892C48.0256 5.79892 52.0598 13.6296 46.0433 18.8966Z" fill="#9D6B6B"/>
  <path d="M29.1305 19.1418L22.2305 19.2425C22.2305 19.2425 18.7651 14.0399 19.8154 8.95504C20.8657 3.87137 27.2429 6.95243 27.2429 6.95243C27.2429 6.95243 25.0561 10.7063 29.0193 13.7023C30.2978 14.6677 30.0518 16.7566 29.1305 19.1418Z" fill="#8B5E5E"/>
  <path d="M36.8728 27.2734V31.2904C36.8728 32.6185 35.8239 33.6956 34.5305 33.6956C33.2363 33.6956 32.1875 32.6185 32.1875 31.2904V27.2734H36.8728Z" fill="#FFDDCE"/>
  <path d="M35.2953 33.5646C35.0557 33.6493 34.7984 33.6956 34.5305 33.6956C33.2363 33.6956 32.1875 32.6185 32.1875 31.2904V27.2734H33.7171V31.2904C33.717 32.3443 34.3768 33.2396 35.2953 33.5646Z" fill="#FFCBBE"/>
  <path d="M24.7457 23.9275C23.0567 23.9275 21.6875 22.5215 21.6875 20.7873C21.6875 20.5485 21.7134 20.3161 21.7626 20.0927C22.1593 18.2885 24.7458 18.5844 24.7458 20.434H44.3183C44.3183 18.5844 46.9047 18.2885 47.3014 20.0927C47.3506 20.3161 47.3765 20.5486 47.3765 20.7873C47.3765 22.5215 46.0073 23.9275 44.3184 23.9275" fill="#FFCBBE"/>
  <path d="M32.1875 27.2734H36.8728V30.9741H32.1875V27.2734Z" fill="#FFCBBE"/>
  <path d="M44.3072 16.7456V22.3757C44.3072 26.421 41.1138 29.7 37.1742 29.7H31.8673C27.9277 29.7 24.7344 26.421 24.7344 22.3757V16.7456C27.2619 16.7456 29.3115 14.6422 29.3115 12.0469C29.3115 12.0469 29.3482 12.0821 29.4203 12.1465C30.1867 12.8254 35.0181 16.7456 44.3072 16.7456Z" fill="#FFDDCE"/>
  <path d="M36.5533 29.7H31.8674C27.9277 29.7 24.7344 26.421 24.7344 22.3757V16.7456C27.2619 16.7456 29.3115 14.6422 29.3115 12.0469C29.3115 12.0469 29.3482 12.0821 29.4203 12.1465V22.3756C29.4203 26.4211 32.6137 29.7 36.5533 29.7Z" fill="#FFCBBE"/>
  <path d="M40.9769 23.188C41.8617 23.188 42.5789 22.7402 42.5789 22.1877C42.5789 21.6353 41.8617 21.1875 40.9769 21.1875C40.0922 21.1875 39.375 21.6353 39.375 22.1877C39.375 22.7402 40.0922 23.188 40.9769 23.188Z" fill="#EAAFA5"/>
  <path d="M28.0707 23.188C28.9554 23.188 29.6726 22.7402 29.6726 22.1877C29.6726 21.6353 28.9554 21.1875 28.0707 21.1875C27.186 21.1875 26.4688 21.6353 26.4688 22.1877C26.4688 22.7402 27.186 23.188 28.0707 23.188Z" fill="#EAAFA5"/>
  <path d="M13.4186 1.51562C20.4066 1.51562 26.0715 7.33252 26.0715 14.5079V26.8396C26.0715 30.3247 23.9102 33.4229 20.6967 34.5444L13.4186 37.0844L6.14041 34.5444C2.9269 33.423 0.765625 30.3247 0.765625 26.8396V14.5078C0.765723 7.33242 6.43057 1.51562 13.4186 1.51562Z" fill="#E4936B"/>
  <path d="M10.3352 34.5444L13.4186 37.0842L6.141 34.5444C2.92749 33.4232 0.765625 30.3243 0.765625 26.8399V14.5079C0.765625 7.33252 6.43048 1.51562 13.4186 1.51562C10.4583 1.51562 8.05825 7.33242 8.05825 14.5079V26.84C8.05825 30.3243 8.9742 33.4232 10.3352 34.5444Z" fill="#E27D47"/>
  <path d="M23.2048 45.5859H3.63281C3.63281 41.7676 4.24599 37.1708 4.53782 35.1952C4.63363 34.5514 5.00239 33.9821 5.54645 33.647C6.58275 33.0094 7.67693 32.5039 8.70883 32.1076C10.6156 31.3725 12.3108 31.0098 13.0397 30.8751C13.2909 30.8281 13.5466 30.8281 13.7979 30.8751C14.5268 31.0099 16.222 31.3725 18.1288 32.1076C19.1608 32.5039 20.2549 33.0094 21.2912 33.647C21.8352 33.9821 22.204 34.5514 22.2998 35.1952C22.5916 37.1708 23.2048 41.7677 23.2048 45.5859Z" fill="#5766CB"/>
  <path d="M10.336 36.7433C10.336 36.7433 11.6218 39.1347 13.4214 40.4495C15.2209 39.1347 16.5067 36.7433 16.5067 36.7433V32.7344H10.3359L10.336 36.7433Z" fill="#ECF4FF"/>
  <path d="M15.1332 38.7716C14.6548 39.3622 14.0737 39.9749 13.426 40.4484C12.7783 39.9749 12.1971 39.3622 11.7188 38.7716L13.426 37.0859L15.1332 38.7716Z" fill="#D57080"/>
  <path d="M10.3359 34.0352L13.4214 37.081L16.5069 34.0352" fill="#D57080"/>
  <path d="M8.39882 39.6841C8.39882 39.6841 7.48433 43.0448 7.48433 45.5835H3.63281C3.63281 41.7652 4.24599 37.1684 4.53782 35.1928C4.63363 34.549 5.00239 33.9797 5.54645 33.6445C8.59484 35.2548 8.39882 39.6841 8.39882 39.6841Z" fill="#ECF4FF"/>
  <path d="M23.2052 45.5835H19.3545C19.3545 43.0448 18.44 39.6841 18.44 39.6841C18.44 39.6841 18.244 35.2548 21.2915 33.6445C21.8356 33.9797 22.2044 34.549 22.3002 35.1928C22.5921 37.1684 23.2052 41.7653 23.2052 45.5835Z" fill="#ECF4FF"/>
  <path d="M8.93517 45.5868H7.48438C7.48438 43.0482 8.39885 39.6875 8.39885 39.6875C8.39885 39.6875 8.42133 43.0109 8.93517 45.5868Z" fill="#3D4FC3"/>
  <path d="M20.9902 45.5868H19.3598C19.3598 43.0482 18.4453 39.6875 18.4453 39.6875C18.4453 39.6875 20.9306 41.0123 20.9902 45.5868Z" fill="#DDEAFB"/>
  <path d="M5.54645 33.6504C6.10263 33.3081 6.67602 33.004 7.24686 32.7344C6.82628 33.0971 6.54042 33.7062 6.46622 34.3944C6.23823 36.5235 5.75811 41.4758 5.75811 45.5894H3.63281C3.63281 41.7711 4.24599 37.1743 4.53782 35.1987C4.63372 34.5549 5.00239 33.9856 5.54645 33.6504Z" fill="#DDEAFB"/>
  <path d="M18.1229 32.1076L16.4986 36.74L13.413 33.694L10.3275 36.74L8.70312 32.1076C10.6099 31.3725 12.3051 31.0098 13.034 30.8751C13.2852 30.8281 13.5409 30.8281 13.7922 30.8751C14.521 31.0098 16.2161 31.3725 18.1229 32.1076Z" fill="#DDEAFB"/>
  <path d="M15.7634 27.2734V31.2904C15.7634 32.6185 14.7145 33.6956 13.4211 33.6956C12.1269 33.6956 11.0781 32.6185 11.0781 31.2904V27.2734H15.7634Z" fill="#FFDDCE"/>
  <path d="M14.1859 33.5646C13.9463 33.6493 13.689 33.6956 13.4211 33.6956C12.1269 33.6956 11.0781 32.6185 11.0781 31.2904V27.2734H12.6077V31.2904C12.6077 32.3443 13.2675 33.2395 14.1859 33.5646Z" fill="#FFCBBE"/>
  <path d="M11.0781 27.2734H15.7634V30.9741H11.0781V27.2734Z" fill="#FFCBBE"/>
  <path d="M23.2052 16.8572V22.3768C23.2052 26.4214 20.012 29.7009 16.0725 29.7009H10.7655C6.82657 29.7009 3.63281 26.4221 3.63281 22.3768V16.9201C4.84734 16.8839 6.51862 16.6712 8.31885 16.2955C12.0082 15.5255 16.2431 14.0699 18.2133 12.0469C18.2133 12.0469 20.1622 16.1362 23.2052 16.8572Z" fill="#FFDDCE"/>
  <path d="M15.4515 29.6984H10.7655C6.82657 29.6984 3.63281 26.4196 3.63281 22.3743V16.9176C4.84734 16.8813 6.51862 16.6686 8.31885 16.293V22.3743C8.31875 26.4189 11.5119 29.6984 15.4515 29.6984Z" fill="#FFCBBE"/>
  <path d="M19.1879 23.895C20.0726 23.895 20.7898 23.4472 20.7898 22.8948C20.7898 22.3424 20.0726 21.8945 19.1879 21.8945C18.3032 21.8945 17.5859 22.3424 17.5859 22.8948C17.5859 23.4472 18.3032 23.895 19.1879 23.895Z" fill="#EAAFA5"/>
  <path d="M7.65663 23.895C8.54135 23.895 9.25857 23.4472 9.25857 22.8948C9.25857 22.3424 8.54135 21.8945 7.65663 21.8945C6.7719 21.8945 6.05469 22.3424 6.05469 22.8948C6.05469 23.4472 6.7719 23.895 7.65663 23.895Z" fill="#EAAFA5"/>
  <path d="M3.8125 45.543H45.1035V50.062H3.8125V45.543Z" fill="#8B5E5E"/>
  <path d="M46.2425 46.6471H2.68147C2.08501 46.6471 1.60156 46.1506 1.60156 45.5382V44.1284C1.60156 43.5159 2.0851 43.0195 2.68147 43.0195H46.2424C46.8388 43.0195 47.3223 43.516 47.3223 44.1284V45.5382C47.3224 46.1506 46.8388 46.6471 46.2425 46.6471Z" fill="#9D6B6B"/>
  <path d="M29.9345 20.6039C30.4454 20.6039 30.8611 19.8963 30.8611 19.0266C30.8611 18.1568 30.4454 17.4492 29.9345 17.4492C29.4235 17.4492 29.0078 18.1568 29.0078 19.0266C29.0078 19.8963 29.4236 20.6039 29.9345 20.6039Z" fill="black"/>
  <path d="M39.1142 20.6039C39.6251 20.6039 40.0408 19.8963 40.0408 19.0266C40.0408 18.1568 39.6251 17.4492 39.1142 17.4492C38.6032 17.4492 38.1875 18.1568 38.1875 19.0266C38.1875 19.8963 38.6032 20.6039 39.1142 20.6039Z" fill="black"/>
  <path d="M34.522 25.7164C35.2137 25.7164 35.8639 25.4398 36.3529 24.9377C36.6393 24.6437 36.6393 24.167 36.3528 23.8729C36.0667 23.579 35.6024 23.5789 35.3159 23.8729C35.1039 24.0907 34.822 24.2105 34.5221 24.2105C34.2223 24.2105 33.9403 24.0907 33.7282 23.8728C33.4419 23.5788 32.9777 23.5789 32.6913 23.8728C32.405 24.1669 32.405 24.6436 32.6914 24.9376C33.1802 25.4398 33.8303 25.7164 34.522 25.7164Z" fill="black"/>
  <path d="M44.7229 24.6558C46.6208 24.4446 48.1033 22.79 48.1033 20.786C48.1033 20.4959 48.072 20.2064 48.0101 19.9256C47.8998 19.4238 47.6551 19.0044 47.3215 18.6964C49.4136 16.4642 50.346 13.583 50.0235 10.296C49.7554 7.56501 48.7205 5.53118 48.6766 5.44595C48.5761 5.2508 48.3973 5.11086 48.1873 5.06308C47.9776 5.01529 47.7577 5.06438 47.5862 5.1976C46.5885 5.97258 45.6646 5.47055 43.6403 4.04928C43.3058 3.81447 42.8497 3.90261 42.6211 4.24583C42.3925 4.58905 42.4782 5.05756 42.8125 5.29226C44.3951 6.40344 46.0239 7.54754 47.6904 6.8597C47.9879 7.615 48.4137 8.9117 48.5644 10.4471C48.8696 13.5564 47.9353 16.1392 45.7873 18.1289C45.7167 18.1307 45.6453 18.1355 45.5733 18.1437C45.3872 18.165 45.2111 18.2088 45.0446 18.2685V16.7439C45.0446 16.3281 44.7164 15.991 44.3114 15.991C39.232 15.991 35.5625 14.7693 33.3785 13.7444C31.0129 12.6342 29.8307 11.5089 29.8203 11.4991C29.6078 11.2921 29.2956 11.2349 29.0263 11.3538C28.7571 11.4727 28.5827 11.7446 28.5827 12.0455C28.5827 13.4305 27.897 14.6691 26.8038 15.3778V14.5073C26.8038 11.6908 25.974 9.0697 24.5529 6.8874C25.8374 7.11387 26.9204 7.62715 26.9348 7.63408C27.0351 7.68256 27.1415 7.70575 27.2465 7.70575C27.4872 7.70575 27.7209 7.58378 27.8602 7.36524C27.8927 7.31425 31.1596 2.26762 35.2909 2.26762C37.0398 2.26762 38.6679 2.7299 40.4145 3.72242C40.769 3.92379 41.215 3.79209 41.4111 3.42818C41.6072 3.06438 41.4789 2.60622 41.1246 2.40484C39.1517 1.28383 37.298 0.761719 35.2908 0.761719C31.1977 0.761719 28.0222 4.60522 26.9878 6.02709C26.2174 5.72503 24.7772 5.25612 23.3291 5.27811C20.8782 2.50553 17.3425 0.76192 13.4174 0.76192C6.03622 0.76192 0.03125 6.92796 0.03125 14.5071V26.8391C0.03125 29.9066 1.54366 32.7064 4.02619 34.3293C3.92412 34.5663 3.85119 34.8184 3.81189 35.0813C3.59309 36.5623 3.21514 39.3707 3.02127 42.2611H2.68017C1.68034 42.2611 0.867036 43.0963 0.867036 44.1229V45.5327C0.867036 46.5593 1.68043 47.3944 2.68017 47.3944H3.08228V50.0633C3.08228 50.4791 3.41057 50.8162 3.81551 50.8162H8.82104C9.22598 50.8162 9.55427 50.4791 9.55427 50.0633C9.55427 49.6475 9.22598 49.3104 8.82104 49.3104H4.54874V47.3946H44.373V49.3105H11.6875C11.2825 49.3105 10.9543 49.6476 10.9543 50.0634C10.9543 50.4792 11.2825 50.8163 11.6875 50.8163H45.1062C45.5113 50.8163 45.8395 50.4792 45.8395 50.0634V47.3946H46.2411C47.2409 47.3946 48.0543 46.5593 48.0543 45.5328V44.123C48.0543 43.0963 47.2409 42.2612 46.2411 42.2612H44.9223C44.7286 39.3712 44.3506 36.5625 44.1315 35.08C44.0014 34.2097 43.5071 33.4519 42.7748 33.0004C41.8043 32.4035 40.6999 31.8659 39.493 31.4026C38.876 31.1652 38.2418 30.9501 37.6015 30.7593V30.4397C40.9812 30.255 43.7998 27.8688 44.7229 24.6558ZM45.0449 20.4327C45.0449 19.7535 45.6204 19.6534 45.7356 19.6401C45.851 19.6268 46.4339 19.5945 46.5796 20.2573C46.6176 20.4294 46.6367 20.6073 46.6367 20.7859C46.6367 21.851 45.9538 22.7552 45.0139 23.0617C45.0327 22.8348 45.0444 22.6059 45.0444 22.3741V20.4327H45.0449ZM29.8738 13.4484C31.7803 14.8125 36.2667 17.3292 43.578 17.4886V22.374C43.578 25.9976 40.7075 28.9455 37.1791 28.9455H31.8722C29.8901 28.9455 28.0125 27.9926 26.8036 26.3855V17.0672C28.3391 16.4068 29.46 15.0681 29.8738 13.4484ZM38.8137 39.7202C38.8162 39.777 38.8251 39.8335 38.84 39.8884C38.8435 39.9008 39.1223 40.9339 39.3658 42.2611H29.6856C29.9291 40.9339 30.208 39.9008 30.2114 39.8884C30.2262 39.8335 30.2351 39.777 30.2377 39.7202C30.2398 39.6703 30.2877 38.483 29.932 37.0803C29.5735 35.6668 28.9285 34.5275 28.0429 33.7205C28.4671 33.5003 28.9145 33.2908 29.3819 33.0925L30.7501 36.9944C30.7634 37.0323 30.7803 37.0679 30.7989 37.1024L30.7977 37.1031C30.8205 37.1457 31.3684 38.1584 32.2541 39.2505C32.8596 39.998 33.4806 40.6065 34.0998 41.0592C34.2271 41.1522 34.376 41.1987 34.5251 41.1987C34.6742 41.1987 34.8231 41.1522 34.9504 41.0592C35.5696 40.6065 36.1906 39.998 36.7958 39.2508C37.6818 38.1583 38.2298 37.1457 38.2526 37.1031L38.252 37.1027C38.2707 37.068 38.2877 37.0323 38.3011 36.9943L39.6694 33.0923C40.1364 33.2904 40.5839 33.5 41.0086 33.7205C40.123 34.5275 39.4781 35.6667 39.1195 37.0802C38.7637 38.483 38.8115 39.6703 38.8137 39.7202ZM8.82397 37.0803C8.46547 35.6669 7.82061 34.5277 6.93497 33.7207C7.35975 33.5002 7.80722 33.2906 8.27424 33.0925L9.64255 36.9945C9.65584 37.0324 9.67276 37.068 9.69133 37.1026L9.69016 37.1033C9.71304 37.1459 10.2609 38.1586 11.1466 39.2507C11.752 39.9981 12.373 40.6066 12.9922 41.0594C13.1195 41.1524 13.2685 41.1989 13.4175 41.1989C13.5665 41.1989 13.7155 41.1524 13.8428 41.0594C14.462 40.6066 15.083 39.9981 15.6882 39.251C16.5741 38.1585 17.1221 37.1459 17.1449 37.1033L17.1442 37.1029C17.1629 37.0682 17.1799 37.0325 17.1932 36.9945L18.5614 33.0926C19.0288 33.2909 19.4763 33.5003 19.9006 33.7206C19.0149 34.5276 18.37 35.6669 18.0115 37.0804C17.6557 38.4831 17.7035 39.6704 17.7058 39.7203C17.7083 39.7771 17.7171 39.8336 17.732 39.8885C17.7354 39.9009 18.0143 40.934 18.2578 42.2612H8.5777C8.82123 40.934 9.10015 39.9009 9.10348 39.8885C9.11834 39.8336 9.12723 39.7771 9.12978 39.7203C9.13193 39.6703 9.17983 38.483 8.82397 37.0803ZM10.4993 32.2826C10.7497 33.0554 11.2831 33.6965 11.9732 34.0753L10.6393 35.392L9.64734 32.5631C9.9289 32.4645 10.2132 32.3711 10.4993 32.2826ZM11.8085 30.4515H15.0274V31.2879C15.0274 32.1991 14.3054 32.9405 13.418 32.9405C12.5306 32.9405 11.8086 32.1991 11.8086 31.2879L11.8085 30.4515ZM13.4176 36.039L12.7587 35.3886L13.418 34.7378L14.0769 35.3883L13.4176 36.039ZM11.7007 36.433L12.3596 37.0835L11.7877 37.6481C11.5748 37.3507 11.3974 37.0796 11.2635 36.8646L11.7007 36.433ZM13.4176 38.1279L14.1102 38.8116C13.8788 39.0642 13.6475 39.2917 13.4176 39.4917C13.1879 39.2917 12.9566 39.0643 12.7251 38.8116L13.4176 38.1279ZM15.0474 37.6481L14.4755 37.0835L15.1348 36.4326L15.5719 36.8641C15.438 37.0792 15.2606 37.3505 15.0474 37.6481ZM14.8628 34.0752C15.553 33.6964 16.0863 33.0553 16.3368 32.2825C16.6232 32.3711 16.9075 32.4645 17.1887 32.5631L16.1968 35.3919L14.8628 34.0752ZM16.071 28.9457H10.7639C7.2352 28.9457 4.36445 25.9979 4.36445 22.3746V17.6338C6.38964 17.4886 9.06398 16.9841 11.4129 16.293C13.4856 15.6833 16.1912 14.679 18.0155 13.221C18.7446 14.4404 20.3004 16.6248 22.4705 17.4176V22.3747C22.4705 25.9979 19.5997 28.9457 16.071 28.9457ZM19.7491 42.2611C19.5228 40.9603 19.2524 39.8932 19.1695 39.5769C19.1671 39.3167 19.1807 38.425 19.4404 37.4224C19.7784 36.1174 20.3787 35.1572 21.2276 34.56C21.4092 34.7663 21.5317 35.024 21.574 35.3071C21.7866 36.7466 22.1523 39.46 22.3453 42.2611H19.7491ZM23.8153 42.2611C23.6206 39.3697 23.2425 36.5616 23.0236 35.0798C22.9843 34.8173 22.9114 34.5654 22.8094 34.3287C24.8553 32.9906 26.2418 30.8534 26.6659 28.4259C27.9861 29.6206 29.6721 30.3402 31.4496 30.4391V30.7592C30.8073 30.9505 30.1732 31.1656 29.559 31.4022C28.3488 31.8667 27.2442 32.4044 26.276 33.0006C25.5444 33.4517 25.05 34.2095 24.9197 35.0812C24.701 36.5617 24.3229 39.3697 24.1283 42.261H23.8153V42.2611ZM34.5251 36.039L33.8662 35.3886L34.5255 34.7377L35.1844 35.3882L34.5251 36.039ZM32.8082 36.4332L33.4671 37.0836L32.8952 37.6482C32.6823 37.3508 32.5049 37.0797 32.371 36.8647L32.8082 36.4332ZM34.5251 38.1279L35.2176 38.8116C34.9861 39.0642 34.7549 39.2917 34.5251 39.4917C34.2954 39.2917 34.0642 39.0643 33.8326 38.8116L34.5251 38.1279ZM36.1549 37.6482L35.583 37.0836L36.2423 36.4327L36.6794 36.8643C36.5455 37.0792 36.3681 37.3506 36.1549 37.6482ZM31.7468 35.392L30.7548 32.5631C31.0359 32.4647 31.3203 32.3713 31.6068 32.2826C31.8572 33.0554 32.3905 33.6965 33.0807 34.0753L31.7468 35.392ZM26.3693 35.3085C26.4119 35.0244 26.5344 34.7664 26.7159 34.56C27.5647 35.1572 28.1653 36.1174 28.5031 37.4224C28.763 38.4259 28.7764 39.3184 28.774 39.5768C28.6911 39.8929 28.4206 40.9601 28.1943 42.2611H25.5982C25.7912 39.46 26.1569 36.7467 26.3693 35.3085ZM37.3042 35.392L35.9702 34.0753C36.6604 33.6965 37.1938 33.0554 37.4442 32.2826C37.7301 32.3711 38.0144 32.4645 38.2961 32.5631L37.3042 35.392ZM36.1349 31.2879C36.1349 32.199 35.4132 32.9402 34.5259 32.9405C34.5256 32.9405 34.5252 32.9405 34.5249 32.9405C33.6377 32.9402 32.916 32.199 32.916 31.2879V30.4514H36.1349V31.2879ZM1.49771 26.8391V14.5071C1.49771 7.75826 6.84483 2.26772 13.4174 2.26772C19.99 2.26772 25.3371 7.75826 25.3371 14.5071V26.8391C25.3371 29.4425 24.0257 31.8151 21.8828 33.1486C21.8133 33.0965 21.7418 33.0465 21.6673 33.0005C20.6993 32.4045 19.5948 31.8668 18.3854 31.4026C17.7705 31.1657 17.1362 30.9506 16.4939 30.7593V30.4396C20.6353 30.2132 23.937 26.6826 23.937 22.3746V16.855C23.937 16.5043 23.7012 16.2002 23.3686 16.1214C20.7074 15.4909 18.888 11.7507 18.8703 11.7138C18.7662 11.4953 18.5658 11.3421 18.3322 11.3021C18.0988 11.262 17.8607 11.3403 17.6932 11.5124C14.9036 14.3768 7.04212 16.0642 3.61011 16.1655C3.21348 16.1772 2.89789 16.5107 2.89789 16.9181V22.3747C2.89789 26.683 6.20017 30.2139 10.3421 30.4398V30.7593C9.7017 30.9501 9.0676 31.1652 8.4511 31.4024C7.24332 31.866 6.13907 32.4036 5.16798 33.0008C5.09338 33.0468 5.02192 33.0968 4.95241 33.149C2.80922 31.8158 1.49771 29.4432 1.49771 26.8391ZM5.26154 35.3085C5.30407 35.0244 5.42666 34.7663 5.60802 34.56C6.4569 35.1572 7.05727 36.1174 7.39524 37.4224C7.6552 38.4259 7.66859 39.3184 7.66625 39.5768C7.58334 39.8929 7.31293 40.9601 7.0865 42.2611H4.49116C4.68336 39.461 5.049 36.7472 5.26154 35.3085ZM46.5877 44.1229V45.5327C46.5877 45.729 46.4322 45.8887 46.241 45.8887H2.68007C2.48885 45.8887 2.3334 45.7289 2.3334 45.5327V44.1229C2.3334 43.9265 2.48895 43.7669 2.68007 43.7669H46.241C46.4323 43.7669 46.5877 43.9266 46.5877 44.1229ZM43.4524 42.2611H40.8569C40.6306 40.9603 40.3602 39.8932 40.2772 39.5769C40.2749 39.3167 40.2884 38.425 40.5481 37.4224C40.8861 36.1173 41.4865 35.1571 42.3354 34.56C42.5168 34.7663 42.6393 35.024 42.6817 35.3071C42.8945 36.7473 43.2601 39.4614 43.4524 42.2611Z" fill="black"/>
  <path d="M8.98907 18.2461C8.9569 18.2461 7.87995 18.2544 7.83429 18.2548C7.52927 18.2548 7.28125 18.5096 7.28125 18.8227C7.28125 19.1358 7.52937 19.3906 7.83429 19.3906H8.0876C8.06286 19.535 8.05025 19.6847 8.05025 19.836C8.05025 20.7127 8.47141 21.4259 8.98907 21.4259C9.50672 21.4259 9.92788 20.7127 9.92788 19.836C9.92778 18.9593 9.50672 18.2461 8.98907 18.2461Z" fill="black"/>
  <path d="M19.0078 18.2548C18.9571 18.2544 17.8146 18.2461 17.7826 18.2461C17.2649 18.2461 16.8438 18.9593 16.8438 19.836C16.8438 20.7127 17.2649 21.4259 17.7826 21.4259C18.3002 21.4259 18.7214 20.7127 18.7214 19.836C18.7214 19.6848 18.7089 19.5352 18.684 19.3906H19.0078C19.3128 19.3906 19.561 19.1358 19.561 18.8227C19.5609 18.5096 19.3127 18.2548 19.0078 18.2548Z" fill="black"/>
  <path d="M14.1474 23.9197C13.7455 24.3325 13.0913 24.3326 12.6891 23.9197C12.4028 23.6257 11.9385 23.6258 11.6523 23.9197C11.3659 24.2137 11.3659 24.6905 11.6523 24.9845C12.1391 25.4844 12.7787 25.7344 13.4182 25.7344C14.0578 25.7344 14.6974 25.4844 15.1842 24.9845C15.4706 24.6905 15.4706 24.2137 15.1842 23.9197C14.898 23.6257 14.4337 23.6258 14.1474 23.9197Z" fill="black"/>
</svg>