<svg xmlns="http://www.w3.org/2000/svg" width="51" height="51" viewBox="0 0 51 51" fill="none">
  <g clip-path="url(#clip0_3224_28268)">
    <path d="M8.35144 42.9665H5.22302C3.06334 42.9665 1.3125 41.2156 1.3125 39.0559V5.6488C1.3125 3.48912 3.06334 1.73828 5.22302 1.73828H45.5014C47.6611 1.73828 49.4119 3.48912 49.4119 5.6488V39.0559C49.4119 41.2156 47.6611 42.9665 45.5014 42.9665H41.4931H8.35144Z" fill="white"/>
    <path d="M45.5014 1.73828H5.22302C3.06334 1.73828 1.3125 3.48912 1.3125 5.6488V8.77721H49.4119V5.6488C49.4119 3.48912 47.6611 1.73828 45.5014 1.73828Z" fill="#FF5A5A"/>
    <path d="M12.0693 39.082H5.8125V49.8359H12.0693V39.082Z" fill="#A5DC69"/>
    <path d="M33.9678 36.543H27.7109V49.8387H33.9678V36.543Z" fill="#78D2FA"/>
    <path d="M23.0225 28.2734H16.7656V49.837H23.0225V28.2734Z" fill="#F5C86E"/>
    <path d="M44.9209 26.8125H38.6641V49.8357H44.9209V26.8125Z" fill="#FF5A5A"/>
    <path d="M19.3387 20.111C20.7425 20.111 21.8806 18.973 21.8806 17.5692C21.8806 16.1654 20.7425 15.0273 19.3387 15.0273C17.9349 15.0273 16.7969 16.1654 16.7969 17.5692C16.7969 18.973 17.9349 20.111 19.3387 20.111Z" fill="#F5C86E"/>
    <path d="M30.7528 31.7516C32.1566 31.7516 33.2946 30.6136 33.2946 29.2098C33.2946 27.806 32.1566 26.668 30.7528 26.668C29.349 26.668 28.2109 27.806 28.2109 29.2098C28.2109 30.6136 29.349 31.7516 30.7528 31.7516Z" fill="#78D2FA"/>
    <path d="M41.7918 20.111C43.1957 20.111 44.3337 18.973 44.3337 17.5692C44.3337 16.1654 43.1957 15.0273 41.7918 15.0273C40.388 15.0273 39.25 16.1654 39.25 17.5692C39.25 18.973 40.388 20.111 41.7918 20.111Z" fill="#FF5A5A"/>
    <path d="M8.87778 30.818C10.2816 30.818 11.4196 29.68 11.4196 28.2762C11.4196 26.8724 10.2816 25.7344 8.87778 25.7344C7.47396 25.7344 6.33594 26.8724 6.33594 28.2762C6.33594 29.68 7.47396 30.818 8.87778 30.818Z" fill="#A5DC69"/>
    <path d="M46.977 43.8265C48.8592 43.8265 50.3906 42.2951 50.3906 40.4128V5.64986C50.3906 2.95454 48.1978 0.761719 45.5025 0.761719H5.22409C2.52876 0.761719 0.335938 2.95454 0.335938 5.64986V40.4128C0.335938 42.2951 1.8673 43.8265 3.74953 43.8265H4.83304V48.8611H1.31357C0.773623 48.8611 0.335938 49.2988 0.335938 49.8387C0.335938 50.3785 0.773623 50.8163 1.31357 50.8163H49.413C49.9529 50.8163 50.3906 50.3785 50.3906 49.8387C50.3906 49.2988 49.9529 48.8611 49.413 48.8611H45.8935V43.8265H46.977ZM5.22409 2.71698H45.5025C47.1197 2.71698 48.4353 4.03267 48.4353 5.64986V7.80065H2.38935C2.35621 7.80065 2.32346 7.80241 2.2912 7.80563V5.64986C2.2912 4.03267 3.60689 2.71698 5.22409 2.71698ZM6.7883 48.8611V40.0624H11.0899V48.8611H6.7883ZM17.7378 48.8611V29.253H22.0393V48.8611H17.7378ZM28.6872 48.8611V37.5206H32.9888V48.8611H28.6872ZM39.6367 48.8611V38.3271C39.6367 37.7873 39.199 37.3495 38.659 37.3495C38.1191 37.3495 37.6814 37.7873 37.6814 38.3271V48.8611H34.944V36.5429C34.944 36.0031 34.5064 35.5653 33.9664 35.5653H27.7096C27.1696 35.5653 26.732 36.0031 26.732 36.5429V48.8611H23.9946V28.2753C23.9946 27.7355 23.5569 27.2977 23.017 27.2977H16.7601C16.2202 27.2977 15.7825 27.7355 15.7825 28.2753V48.8611H13.0451V39.0848C13.0451 38.5449 12.6074 38.1071 12.0675 38.1071H5.81067C5.27072 38.1071 4.83304 38.5449 4.83304 39.0848V41.8712H3.74953C2.94533 41.8712 2.2912 41.217 2.2912 40.4128V9.75092C2.32346 9.75415 2.35621 9.75591 2.38935 9.75591H48.4353V40.4128C48.4353 41.217 47.7811 41.8712 46.977 41.8712H45.8935V26.8155C45.8935 26.2757 45.4558 25.8379 44.9159 25.8379H38.659C38.1191 25.8379 37.6814 26.2757 37.6814 26.8155V31.7525C37.6814 32.2923 38.1191 32.7301 38.659 32.7301C39.199 32.7301 39.6367 32.2923 39.6367 31.7525V27.7932H43.9383V48.8611H39.6367Z" fill="black"/>
    <path d="M22.0479 6.23651H44.136C44.676 6.23651 45.1137 5.79873 45.1137 5.25888C45.1137 4.71903 44.676 4.28125 44.136 4.28125H22.0479C21.508 4.28125 21.0703 4.71903 21.0703 5.25888C21.0703 5.79873 21.508 6.23651 22.0479 6.23651Z" fill="black"/>
    <path d="M10.5011 6.23651C10.7582 6.23651 11.0104 6.1319 11.1923 5.94996C11.3741 5.76822 11.4787 5.516 11.4787 5.25888C11.4787 5.00176 11.3741 4.74953 11.1923 4.5677C11.0104 4.38586 10.7582 4.28125 10.5011 4.28125C10.244 4.28125 9.99172 4.38576 9.80988 4.5677C9.62804 4.74953 9.52344 5.00176 9.52344 5.25888C9.52344 5.516 9.62804 5.76822 9.80988 5.94996C9.99172 6.1319 10.244 6.23651 10.5011 6.23651Z" fill="black"/>
    <path d="M6.59482 6.23651C6.85193 6.23651 7.10416 6.1319 7.286 5.94996C7.46784 5.76822 7.57245 5.516 7.57245 5.25888C7.57245 5.00176 7.46784 4.74953 7.286 4.5677C7.10416 4.38586 6.85193 4.28125 6.59482 4.28125C6.3377 4.28125 6.08547 4.38576 5.90363 4.5677C5.72179 4.74953 5.61719 5.00176 5.61719 5.25888C5.61719 5.516 5.72179 5.76822 5.90363 5.94996C6.08547 6.1319 6.3377 6.23651 6.59482 6.23651Z" fill="black"/>
    <path d="M14.4151 6.23651C14.6722 6.23651 14.9245 6.1319 15.1063 5.94996C15.2882 5.76822 15.3928 5.516 15.3928 5.25888C15.3928 5.00176 15.2882 4.74953 15.1063 4.5677C14.9245 4.38586 14.6732 4.28125 14.4151 4.28125C14.158 4.28125 13.9058 4.38576 13.7239 4.5677C13.5421 4.74953 13.4375 5.00176 13.4375 5.25888C13.4375 5.516 13.5421 5.76822 13.7239 5.94996C13.9058 6.1319 14.158 6.23651 14.4151 6.23651Z" fill="black"/>
    <path d="M38.6573 34.2578C38.4002 34.2578 38.148 34.3615 37.9661 34.5443C37.7843 34.7261 37.6797 34.9783 37.6797 35.2354C37.6797 35.4926 37.7843 35.7448 37.9661 35.9266C38.148 36.1084 38.4002 36.2131 38.6573 36.2131C38.9144 36.2131 39.1667 36.1085 39.3485 35.9266C39.5303 35.7448 39.6349 35.4926 39.6349 35.2354C39.6349 34.9773 39.5303 34.7261 39.3485 34.5443C39.1667 34.3614 38.9144 34.2578 38.6573 34.2578Z" fill="black"/>
    <path d="M41.7843 21.0858C43.725 21.0858 45.3038 19.507 45.3038 17.5663C45.3038 15.6256 43.725 14.0469 41.7843 14.0469C39.8436 14.0469 38.2649 15.6256 38.2649 17.5663C38.2649 18.3372 38.5146 19.0505 38.9366 19.6309L32.4427 26.1248C31.9387 25.8459 31.3598 25.6865 30.744 25.6865C30.1892 25.6865 29.6643 25.8161 29.197 26.0457L22.4163 19.265C22.6952 18.761 22.8546 18.1821 22.8546 17.5663C22.8546 15.6256 21.2758 14.0469 19.3351 14.0469C17.3944 14.0469 15.8156 15.6256 15.8156 17.5663C15.8156 18.2446 16.009 18.8783 16.3428 19.4162L10.5696 25.1893C10.0656 24.9104 9.48665 24.751 8.87103 24.751C6.93034 24.751 5.35156 26.3298 5.35156 28.2705C5.35156 30.2112 6.93034 31.79 8.87103 31.79C10.8117 31.79 12.3905 30.2112 12.3905 28.2705C12.3905 27.6548 12.2311 27.0758 11.9522 26.5719L17.7944 20.7298C18.26 20.9574 18.7828 21.0857 19.3351 21.0857C19.9507 21.0857 20.5297 20.9264 21.0336 20.6474L27.748 27.3617C27.4165 27.8984 27.2246 28.53 27.2246 29.2058C27.2246 31.1465 28.8034 32.7253 30.744 32.7253C32.6847 32.7253 34.2635 31.1465 34.2635 29.2058C34.2635 28.5901 34.1042 28.0111 33.8252 27.5072L40.4932 20.8392C40.8933 20.9978 41.3287 21.0858 41.7843 21.0858ZM41.7843 16.0021C42.6468 16.0021 43.3485 16.7039 43.3485 17.5663C43.3485 18.4288 42.6468 19.1305 41.7843 19.1305C40.9219 19.1305 40.2201 18.4288 40.2201 17.5663C40.2201 16.7039 40.9219 16.0021 41.7843 16.0021ZM8.87113 29.8349C8.00866 29.8349 7.30692 29.1332 7.30692 28.2707C7.30692 27.4082 8.00866 26.7065 8.87113 26.7065C9.73359 26.7065 10.4353 27.4082 10.4353 28.2707C10.4353 29.1332 9.73359 29.8349 8.87113 29.8349ZM19.3352 19.1305C18.4727 19.1305 17.771 18.4288 17.771 17.5663C17.771 16.7039 18.4727 16.0021 19.3352 16.0021C20.1977 16.0021 20.8994 16.7039 20.8994 17.5663C20.8994 18.4288 20.1977 19.1305 19.3352 19.1305ZM30.7441 30.7702C29.8817 30.7702 29.1799 30.0685 29.1799 29.206C29.1799 28.3435 29.8817 27.6418 30.7441 27.6418C31.6066 27.6418 32.3084 28.3435 32.3084 29.206C32.3084 30.0685 31.6066 30.7702 30.7441 30.7702Z" fill="black"/>
    <path d="M14.1495 15.0334C14.4066 15.0334 14.6579 14.9289 14.8407 14.7469C15.0225 14.5651 15.1271 14.3129 15.1271 14.0558C15.1271 13.7986 15.0225 13.5464 14.8407 13.3647C14.6579 13.1828 14.4066 13.0781 14.1495 13.0781C13.8914 13.0781 13.6392 13.1827 13.4573 13.3647C13.2755 13.5464 13.1719 13.7986 13.1719 14.0558C13.1719 14.3129 13.2755 14.5651 13.4573 14.7469C13.6402 14.9288 13.8914 15.0334 14.1495 15.0334Z" fill="black"/>
    <path d="M5.81357 15.0373H10.5062C11.0461 15.0373 11.4838 14.5995 11.4838 14.0597C11.4838 13.5198 11.0461 13.082 10.5062 13.082H5.81357C5.27362 13.082 4.83594 13.5198 4.83594 14.0597C4.83594 14.5995 5.27362 15.0373 5.81357 15.0373Z" fill="black"/>
    <path d="M10.5062 19.7287C11.0461 19.7287 11.4838 19.2909 11.4838 18.7511C11.4838 18.2112 11.0461 17.7734 10.5062 17.7734H5.81357C5.27362 17.7734 4.83594 18.2112 4.83594 18.7511C4.83594 19.2909 5.27362 19.7287 5.81357 19.7287H10.5062Z" fill="black"/>
  </g>
  <defs>
    <clipPath id="clip0_3224_28268">
      <rect width="50.0546" height="50.0546" fill="white" transform="translate(0.335938 0.761719)"/>
    </clipPath>
  </defs>
</svg>