<svg xmlns="http://www.w3.org/2000/svg" width="51" height="51" viewBox="0 0 51 51" fill="none">
  <path d="M19.1719 49.8341H32.359L30.6859 42.2773H20.9897L19.1719 49.8341Z" fill="#5C90AE"/>
  <path d="M2.02344 37.5781V39.3181C2.02344 40.9536 3.48082 42.2793 5.27866 42.2793H46.6732C48.4711 42.2793 49.9285 40.9536 49.9285 39.3181V37.5781H2.02344Z" fill="#EAF0F0"/>
  <path d="M49.9286 37.5776V10.7847C49.9286 10.376 49.8372 9.98695 49.6728 9.63207C49.172 8.5557 47.9092 7.73742 46.6734 7.62891H37.9136V31.4088H14.0384V7.62891H5.27866C3.50435 7.75307 2.02344 9.1237 2.02344 10.7847V37.5776" fill="#5C90AE"/>
  <path d="M45.1727 37.5836V11.957H37.9067V31.4148H14.0315V11.957H6.76562V37.5836" fill="#8CC8FF"/>
  <path d="M14.0391 7.63143L20.6775 1.73828V7.63143H14.0391Z" fill="#EAF0F0"/>
  <path d="M20.6775 1.73828V7.63143H14.0391V31.4117H37.915V1.73828H20.6775Z" fill="#EAF0F0"/>
  <path d="M51.0077 10.7844C51.0077 8.76733 48.9948 6.65096 46.6778 6.65096H38.9931V1.73544C38.9931 1.1955 38.5118 0.757812 37.9184 0.757812H20.6809C20.4039 0.757812 20.1284 0.859681 19.9303 1.03575L13.605 6.65096H5.28303C5.25552 6.65096 5.228 6.65194 5.2006 6.65379C2.81878 6.82048 0.953125 8.63486 0.953125 10.7844L0.953555 39.317C0.953555 41.4889 2.89583 43.2558 5.28335 43.2558H19.657L18.3096 48.8572H15.0679C14.4745 48.8572 13.9932 49.2948 13.9932 49.8348C13.9932 50.3747 14.4745 50.8124 15.0679 50.8124H36.4682C37.0617 50.8124 37.5429 50.3747 37.5429 49.8348C37.5429 49.2948 37.0617 48.8572 36.4682 48.8572H33.2414L32.0013 43.2558H46.6778C49.0653 43.2558 51.0077 41.4889 51.0077 39.317V10.7844ZM46.6204 8.60622C47.7908 8.7339 48.8584 9.6909 48.8584 10.7844V36.5995H46.2587V11.9507C46.2587 11.4107 45.7775 10.9731 45.184 10.9731H38.9932V8.60622H46.6204ZM36.8434 30.4308H15.1176V8.60622H20.6809C21.2743 8.60622 21.7556 8.16853 21.7556 7.62859V2.71307H36.8437L36.8434 30.4308ZM19.6062 4.05545V6.65096H16.6825L19.6062 4.05545ZM5.32827 8.60622H12.9678V10.9731H6.77695C6.18351 10.9731 5.70226 11.4107 5.70226 11.9507V36.5995H3.1026V10.7844C3.10249 9.68014 4.09754 8.71014 5.32827 8.60622ZM31.0489 48.8572H20.5098L21.8573 43.2558H29.8089L31.0489 48.8572ZM46.6779 41.3006H5.28335C4.08099 41.3006 3.10292 40.4107 3.10292 39.317V38.5549H21.3268C21.9202 38.5549 22.4015 38.1172 22.4015 37.5773C22.4015 37.4423 22.3714 37.3136 22.317 37.1967C22.1539 36.8457 21.7719 36.5995 21.3267 36.5995H7.85163V12.9283H12.9678V31.4088C12.9678 31.9488 13.449 32.3865 14.0425 32.3865H37.9184C38.5118 32.3865 38.9931 31.9488 38.9931 31.4088V12.9283H44.1092V36.5995H30.7812C30.1878 36.5995 29.7065 37.0371 29.7065 37.5771V37.5773C29.7065 38.1172 30.1878 38.5549 30.7812 38.5549H48.8585V39.317C48.8585 40.4107 47.8802 41.3006 46.6779 41.3006Z" fill="black"/>
  <path d="M30.2047 23.2773H21.7622C21.1687 23.2773 20.6875 23.715 20.6875 24.255C20.6875 24.7949 21.1687 25.2326 21.7622 25.2326H30.2047C30.7981 25.2326 31.2794 24.7949 31.2794 24.255C31.2794 23.715 30.7982 23.2773 30.2047 23.2773Z" fill="black"/>
  <path d="M25.8148 10.475C25.6129 10.5111 25.421 10.6028 25.2735 10.7334L21.3016 14.2508C20.8763 14.6275 20.8672 15.2464 21.2813 15.6333C21.6952 16.0201 22.3757 16.0284 22.801 15.6519L24.9485 13.75V20.4426C24.9485 20.9826 25.4297 21.4203 26.0232 21.4203C26.6166 21.4203 27.0979 20.9826 27.0979 20.4426V13.75L29.2454 15.6519C29.4543 15.8368 29.7248 15.9289 29.995 15.9289C30.2749 15.9289 30.5545 15.8301 30.7651 15.6333C31.1792 15.2463 31.1701 14.6274 30.7448 14.2508L26.7729 10.7334C26.5224 10.5118 26.1573 10.4136 25.8148 10.475Z" fill="black"/>
  <path d="M27.0675 37.2048C26.8937 36.8193 26.4518 36.5732 25.9958 36.6042C25.5276 36.636 25.131 36.9483 25.0271 37.3644C24.8138 38.2177 25.9067 38.8785 26.6934 38.377C27.0996 38.118 27.2583 37.6216 27.0675 37.2048Z" fill="black"/>
</svg>