<svg xmlns="http://www.w3.org/2000/svg" width="50" height="51" viewBox="0 0 50 51" fill="none">
  <g clip-path="url(#clip0_3224_28803)">
    <path d="M25.002 13.2109L6.59375 19.0703V50.0273H43.4102C46.6462 50.0273 49.2695 47.404 49.2695 44.168V19.0703L25.002 13.2109Z" fill="#EFEDFF"/>
    <path d="M12.4531 44.168V19.0703H0.734375V44.168C0.734375 47.404 3.35771 50.0273 6.59375 50.0273H18.3125C15.0765 50.0273 12.4531 47.404 12.4531 44.168Z" fill="#D4D4FF"/>
    <path d="M43.4102 7.35156H6.59375V19.0703H49.2695V13.2109C49.2695 9.9749 46.6462 7.35156 43.4102 7.35156Z" fill="#FF8E9E"/>
    <path d="M6.59375 7.35156C3.35771 7.35156 0.734375 9.9749 0.734375 13.2109V19.0703H12.4531C12.4531 16.0986 13.5599 13.3858 15.3828 11.3201V7.35156C11.1002 7.35156 6.81953 7.35156 6.59375 7.35156Z" fill="#EA5B70"/>
    <path d="M13.5234 1.49219C11.9055 1.49219 10.5938 2.80391 10.5938 4.42188V13.2109C10.5938 13.9307 10.8534 14.5892 11.284 15.0991C11.8214 15.7357 12.6252 16.1406 13.5234 16.1406C15.1414 16.1406 16.4531 14.8289 16.4531 13.2109V8.91973V4.42188C16.4531 2.80391 15.1414 1.49219 13.5234 1.49219Z" fill="#D4D4FF"/>
    <path d="M36.5703 16.1406C34.9523 16.1406 33.6406 14.8289 33.6406 13.2109V4.42188C33.6406 2.80391 34.9523 1.49219 36.5703 1.49219C38.1883 1.49219 39.5 2.80391 39.5 4.42188V13.2109C39.5 14.8289 38.1883 16.1406 36.5703 16.1406Z" fill="#D4D4FF"/>
    <path d="M24.9951 44.6689C28.3579 46.4469 27.2507 45.8615 28.7162 46.6363C31.6009 48.1615 34.9725 45.698 34.4214 42.4676L33.7107 38.3004L36.7213 35.3493C39.0551 33.0615 37.7673 29.0755 34.542 28.6041L30.3816 27.9961H21.7344V42.9361L24.9951 44.6689Z" fill="#FFCE71"/>
    <path d="M23.647 35.0248C24.6974 31.7736 27.1794 29.1829 30.3827 27.9943L28.9794 25.1347L28.5222 24.2029C27.8033 22.7382 26.3989 22.0018 24.9961 22C23.5952 21.9998 22.1918 22.732 21.47 24.2029L21.0128 25.1348L19.6095 27.9943L15.4491 28.6023C12.2238 29.0737 10.9361 33.0598 13.2698 35.3476L16.2803 38.2986L15.5696 42.4658C15.0188 45.6962 18.3902 48.1598 21.2749 46.6346L24.9961 44.6672C23.0938 41.8292 22.5967 38.276 23.647 35.0248Z" fill="#FFB357"/>
    <path d="M18.2104 36.1439C19.7937 36.1439 21.0771 35.1219 21.0771 33.861C21.0771 32.6002 19.7937 31.5781 18.2104 31.5781C16.6272 31.5781 15.3438 32.6002 15.3438 33.861C15.3438 35.1219 16.6272 36.1439 18.2104 36.1439Z" fill="#FF8E9E"/>
    <path d="M31.7964 36.1439C33.3796 36.1439 34.6631 35.1219 34.6631 33.861C34.6631 32.6002 33.3796 31.5781 31.7964 31.5781C30.2132 31.5781 28.9297 32.6002 28.9297 33.861C28.9297 35.1219 30.2132 36.1439 31.7964 36.1439Z" fill="#FF8E9E"/>
    <path d="M49.2676 14.9652C49.6722 14.9652 50 14.6374 50 14.2328V13.209C50 9.57422 47.043 6.61719 43.4082 6.61719H40.2344V4.41992C40.2344 2.40059 38.5916 0.757812 36.5723 0.757812C34.5529 0.757812 32.9102 2.40059 32.9102 4.41992V6.61719H17.1875V4.41992C17.1875 2.40059 15.5447 0.757812 13.5254 0.757812C11.5061 0.757812 9.86328 2.40059 9.86328 4.41992V6.61719H6.5918C2.95703 6.61719 0 9.57422 0 13.209V35.6699C0 36.0745 0.327832 36.4023 0.732422 36.4023C1.13701 36.4023 1.46484 36.0745 1.46484 35.6699V19.8008H48.5352V44.166C48.5352 46.993 46.2352 49.293 43.4082 49.293H6.5918C3.76484 49.293 1.46484 46.993 1.46484 44.166V38.5996C1.46484 38.195 1.13701 37.8672 0.732422 37.8672C0.327832 37.8672 0 38.195 0 38.5996V44.166C0 47.8008 2.95703 50.7578 6.5918 50.7578H43.4082C47.043 50.7578 50 47.8008 50 44.166C50 43.1382 50 18.1919 50 17.1625C50 16.7579 49.6722 16.4301 49.2676 16.4301C48.863 16.4301 48.5352 16.7579 48.5352 17.1625V18.3359H1.46484V13.209C1.46484 10.382 3.76484 8.08203 6.5918 8.08203H9.86328V13.209C9.86328 15.2283 11.5061 16.8711 13.5254 16.8711C15.5447 16.8711 17.1875 15.2283 17.1875 13.209V8.08203H32.9102V13.209C32.9102 15.2283 34.5529 16.8711 36.5723 16.8711C38.5916 16.8711 40.2344 15.2283 40.2344 13.209V8.08203H43.4082C46.2352 8.08203 48.5352 10.382 48.5352 13.209V14.2328C48.5352 14.6374 48.863 14.9652 49.2676 14.9652ZM15.7227 13.209C15.7227 14.4205 14.7369 15.4062 13.5254 15.4062C12.3139 15.4062 11.3281 14.4205 11.3281 13.209V4.41992C11.3281 3.2084 12.3139 2.22266 13.5254 2.22266C14.7369 2.22266 15.7227 3.2084 15.7227 4.41992V13.209ZM38.7695 13.209C38.7695 14.4205 37.7838 15.4062 36.5723 15.4062C35.3607 15.4062 34.375 14.4205 34.375 13.209V4.41992C34.375 3.2084 35.3607 2.22266 36.5723 2.22266C37.7838 2.22266 38.7695 3.2084 38.7695 4.41992V13.209Z" fill="black"/>
    <path d="M19.8809 29.7578C19.4764 29.7578 19.1484 30.0857 19.1484 30.4902V31.6621C19.1484 32.0666 19.4764 32.3945 19.8809 32.3945C20.2854 32.3945 20.6133 32.0666 20.6133 31.6621V30.4902C20.6133 30.0856 20.2854 29.7578 19.8809 29.7578Z" fill="black"/>
    <path d="M30.123 29.7578C29.7186 29.7578 29.3906 30.0857 29.3906 30.4902V31.6621C29.3906 32.0666 29.7186 32.3945 30.123 32.3945C30.5275 32.3945 30.8555 32.0666 30.8555 31.6621V30.4902C30.8555 30.0856 30.5275 29.7578 30.123 29.7578Z" fill="black"/>
    <path d="M27.0856 31.0748C26.7806 30.8091 26.3179 30.8408 26.0522 31.1458C25.7857 31.4516 25.401 31.6271 24.9966 31.6271C24.5922 31.6271 24.2074 31.4517 23.9409 31.1458C23.6752 30.8408 23.2125 30.8092 22.9075 31.0748C22.6025 31.3406 22.5708 31.8032 22.8365 32.1082C23.3813 32.7334 24.1686 33.0919 24.9966 33.0919C25.8245 33.0919 26.6118 32.7334 27.1566 32.1082C27.4223 31.8032 27.3906 31.3406 27.0856 31.0748Z" fill="black"/>
    <path d="M30.6804 27.3231L28.9897 23.878C27.283 20.4 22.3343 20.3897 20.6225 23.878L18.9319 27.323L15.1533 27.8752C11.3296 28.434 9.8032 33.1584 12.5672 35.8682L15.3039 38.551L14.6578 42.3404C14.0013 46.1893 18.0276 49.0774 21.4274 47.2797L24.8061 45.4934L28.1849 47.2798C31.6071 49.0892 35.6068 46.1645 34.9546 42.3404L34.3082 38.5511L37.045 35.8683C39.8154 33.1526 38.2733 28.4327 34.4591 27.8753L30.6804 27.3231ZM36.0196 34.8222L33.0091 37.7734C32.8376 37.9414 32.7594 38.1828 32.7997 38.4196L33.5104 42.5866C33.9612 45.229 31.2168 47.226 28.8696 45.9848L25.1484 44.0174C25.0413 43.9608 24.9237 43.9324 24.8061 43.9324C24.6886 43.9324 24.5709 43.9608 24.4638 44.0174L20.7428 45.9848C18.3919 47.2278 15.6516 45.2256 16.1018 42.5866L16.8124 38.4195C16.8528 38.1828 16.7746 37.9413 16.6031 37.7733L13.5927 34.8221C11.6863 32.9533 12.7354 29.7089 15.3651 29.3246L19.5255 28.7166C19.7643 28.6817 19.9707 28.5313 20.077 28.3146L21.9376 24.5232C23.1133 22.1273 26.5026 22.1347 27.6748 24.5232L29.5353 28.3146C29.6417 28.5313 29.848 28.6817 30.0869 28.7166L34.2472 29.3246C36.8773 29.7092 37.9256 32.9537 36.0196 34.8222Z" fill="black"/>
  </g>
  <defs>
    <clipPath id="clip0_3224_28803">
      <rect width="50" height="50" fill="white" transform="translate(0 0.757812)"/>
    </clipPath>
  </defs>
</svg>