<svg xmlns="http://www.w3.org/2000/svg" width="50" height="51" viewBox="0 0 50 51" fill="none">
  <g clip-path="url(#clip0_3224_28769)">
    <path d="M49.2656 50.0273H46.3359L40.4766 28.6895L46.3359 1.49219H49.2656V50.0273Z" fill="#ACD2F6"/>
    <path d="M46.3359 50.0273H43.4062L37.5469 28.6895L43.4062 1.49219H46.3359V50.0273Z" fill="#95B0ED"/>
    <path d="M10.9844 39.7734H43.4062V50.0273H10.9844V39.7734Z" fill="#ACD2F6"/>
    <path d="M31.6875 27.0781L10.9844 39.7734H2.19531C2.19531 42.2005 4.16279 44.168 6.58984 44.168H36.082L31.6875 27.0781Z" fill="#C4F3FF"/>
    <path d="M31.6875 27.0781V39.7734C31.6875 42.2005 33.655 44.168 36.082 44.168H39.0117V27.0781H31.6875Z" fill="#ACD2F6"/>
    <path d="M40.4766 1.49219L37.5469 43.9169C38.0052 44.0789 38.4979 44.168 39.0117 44.168C41.4388 44.168 43.4062 42.2005 43.4062 39.7734V1.49219H40.4766Z" fill="#C4F3FF"/>
    <path d="M10.9844 1.49219V39.7734H34.6172C34.6172 41.6867 35.8402 43.3135 37.5469 43.9169C39.2535 43.3135 40.4766 41.6867 40.4766 39.7734V36.8438V4.42188V1.49219H10.9844Z" fill="white"/>
    <path d="M37.549 4.42188H25.7326L22.6094 14.6758L37.549 10.2812V4.42188Z" fill="#FF545A"/>
    <path d="M13.9141 4.42188V10.2812L25.7305 14.6758V4.42188H13.9141Z" fill="#FF7647"/>
    <path d="M25.7318 10.2812L21.0469 22.8301L25.7318 36.8438H37.5482V10.2812H25.7318Z" fill="#C4F3FF"/>
    <path d="M13.9141 10.2812H25.7305V36.8438H13.9141V10.2812Z" fill="white"/>
    <path d="M10.9844 13.3398V33.8477C16.6475 33.8477 21.2383 29.2568 21.2383 23.5938C21.2383 17.9307 16.6475 13.3398 10.9844 13.3398Z" fill="#C4F3FF"/>
    <path d="M18.3125 23.5938C18.3125 17.9307 15.0333 13.3398 10.9883 13.3398C5.3252 13.3398 0.734375 17.9307 0.734375 23.5938C0.734375 29.2568 5.3252 33.8477 10.9883 33.8477C15.0333 33.8477 18.3125 29.2568 18.3125 23.5938Z" fill="white"/>
    <path d="M40.4824 26.9492C40.8869 26.9492 41.2148 26.6213 41.2148 26.2168C41.2148 25.8123 40.8869 25.4844 40.4824 25.4844C40.0779 25.4844 39.75 25.8123 39.75 26.2168C39.75 26.6213 40.0779 26.9492 40.4824 26.9492Z" fill="black"/>
    <path d="M40.4824 32.2617C40.8869 32.2617 41.2148 31.9338 41.2148 31.5293C41.2148 31.1248 40.8869 30.7969 40.4824 30.7969C40.0779 30.7969 39.75 31.1248 39.75 31.5293C39.75 31.9338 40.0779 32.2617 40.4824 32.2617Z" fill="black"/>
    <path d="M40.4824 21.6367C40.8869 21.6367 41.2148 21.3088 41.2148 20.9043C41.2148 20.4998 40.8869 20.1719 40.4824 20.1719C40.0779 20.1719 39.75 20.4998 39.75 20.9043C39.75 21.3088 40.0779 21.6367 40.4824 21.6367Z" fill="black"/>
    <path d="M40.4824 16.3242C40.8869 16.3242 41.2148 15.9963 41.2148 15.5918C41.2148 15.1873 40.8869 14.8594 40.4824 14.8594C40.0779 14.8594 39.75 15.1873 39.75 15.5918C39.75 15.9963 40.0779 16.3242 40.4824 16.3242Z" fill="black"/>
    <path d="M10.9824 31.6484C11.3869 31.6484 11.7148 31.3205 11.7148 30.916C11.7148 30.5115 11.3869 30.1836 10.9824 30.1836C10.5779 30.1836 10.25 30.5115 10.25 30.916C10.25 31.3205 10.5779 31.6484 10.9824 31.6484Z" fill="black"/>
    <path d="M14.2804 29.3014C13.9301 29.5036 13.8101 29.9516 14.0123 30.3019C14.2146 30.6522 14.6625 30.7722 15.0128 30.5699C15.3631 30.3677 15.4831 29.9197 15.2809 29.5694C15.0786 29.2191 14.6307 29.0991 14.2804 29.3014Z" fill="black"/>
    <path d="M7.32617 17.9805C7.73068 17.9805 8.05859 17.6526 8.05859 17.248C8.05859 16.8435 7.73068 16.5156 7.32617 16.5156C6.92167 16.5156 6.59375 16.8435 6.59375 17.248C6.59375 17.6526 6.92167 17.9805 7.32617 17.9805Z" fill="black"/>
    <path d="M17.3265 28.0084C17.7311 28.0084 18.0592 27.6803 18.0592 27.2757C18.0592 26.871 17.7311 26.543 17.3265 26.543C16.9218 26.543 16.5938 26.871 16.5938 27.2757C16.5938 27.6803 16.9218 28.0084 17.3265 28.0084Z" fill="black"/>
    <path d="M5.0128 19.2975C4.6625 19.0952 4.21455 19.2152 4.01231 19.5655C3.81006 19.9158 3.93008 20.3638 4.28037 20.566C4.63067 20.7683 5.07862 20.6482 5.28086 20.298C5.48311 19.9477 5.36309 19.4997 5.0128 19.2975Z" fill="black"/>
    <path d="M3.66211 24.3242C4.06661 24.3242 4.39453 23.9963 4.39453 23.5918C4.39453 23.1873 4.06661 22.8594 3.66211 22.8594C3.2576 22.8594 2.92969 23.1873 2.92969 23.5918C2.92969 23.9963 3.2576 24.3242 3.66211 24.3242Z" fill="black"/>
    <path d="M17.6925 20.566C18.0428 20.3638 18.1628 19.9158 17.9606 19.5655C17.7583 19.2152 17.3104 19.0952 16.9601 19.2975C16.6098 19.4997 16.4897 19.9477 16.692 20.298C16.8942 20.6483 17.3422 20.7684 17.6925 20.566Z" fill="black"/>
    <path d="M4.28037 26.6217C3.93008 26.8239 3.81006 27.2719 4.01231 27.6222C4.21455 27.9725 4.6625 28.0925 5.0128 27.8902C5.36309 27.688 5.48311 27.24 5.28086 26.8897C5.07862 26.5395 4.63067 26.4194 4.28037 26.6217Z" fill="black"/>
    <path d="M14.6545 17.9691C15.0591 17.9691 15.3871 17.6411 15.3871 17.2365C15.3871 16.8319 15.0591 16.5039 14.6545 16.5039C14.2499 16.5039 13.9219 16.8319 13.9219 17.2365C13.9219 17.6411 14.2499 17.9691 14.6545 17.9691Z" fill="black"/>
    <path d="M7.31865 30.6842C7.72332 30.6842 8.05137 30.3561 8.05137 29.9515C8.05137 29.5468 7.72332 29.2188 7.31865 29.2188C6.91398 29.2188 6.58594 29.5468 6.58594 29.9515C6.58594 30.3561 6.91398 30.6842 7.31865 30.6842Z" fill="black"/>
    <path d="M10.9824 24.3242H18.3066C18.7111 24.3242 19.0391 23.9964 19.0391 23.5918C19.0391 23.1872 18.7111 22.8594 18.3066 22.8594H11.7148V16.2676C11.7148 15.863 11.3869 15.5352 10.9824 15.5352C10.5779 15.5352 10.25 15.863 10.25 16.2676V23.5918C10.25 23.9964 10.5779 24.3242 10.9824 24.3242Z" fill="black"/>
    <path d="M49.2676 0.758436H10.9863C10.5818 0.758436 10.2539 1.08627 10.2539 1.49086V12.6324C4.53623 13.0106 0 17.782 0 23.5937C0 29.4054 4.53623 34.1768 10.2539 34.555V39.0397H2.19727C1.79277 39.0397 1.46484 39.3675 1.46484 39.7721C1.46484 42.5991 3.76475 44.8991 6.5918 44.8991H10.2539V50.026C10.2539 50.4306 10.5818 50.7584 10.9863 50.7584H49.2676C49.6721 50.7584 50 50.4306 50 50.026V1.49086C50.0021 1.44838 50.0105 1.17123 49.79 0.95619C49.5769 0.748182 49.3115 0.756385 49.2676 0.758436ZM1.46484 23.5937C1.46484 18.3435 5.73613 14.0722 10.9863 14.0722C16.2365 14.0722 20.5078 18.3435 20.5078 23.5937C20.5078 28.8439 16.2365 33.1152 10.9863 33.1152C5.73613 33.1152 1.46484 28.8439 1.46484 23.5937ZM14.6484 11.0123H25V36.11H14.6484V33.9516C18.9111 32.4401 21.9727 28.368 21.9727 23.5937C21.9727 18.8194 18.9111 14.7473 14.6484 13.2358V11.0123ZM14.6484 9.5475V5.15297H25V9.5475H14.6484ZM26.4648 11.0123H36.8164V36.11H26.4648V11.0123ZM11.7188 34.555C12.2167 34.5221 12.7058 34.4565 13.1836 34.3591V36.8424C13.1836 37.247 13.5115 37.5748 13.916 37.5748H37.5488C37.9533 37.5748 38.2813 37.247 38.2813 36.8424V10.2799C38.2813 9.87533 37.9533 9.5475 37.5488 9.5475H26.4648V5.15297H36.8164V7.35023C36.8164 7.75482 37.1443 8.08265 37.5488 8.08265C37.9533 8.08265 38.2813 7.75482 38.2813 7.35023V4.42055C38.2813 4.01596 37.9533 3.68812 37.5488 3.68812H13.916C13.5115 3.68812 13.1836 4.01596 13.1836 4.42055V12.8283C12.7058 12.7309 12.2167 12.6653 11.7188 12.6324V2.22328H42.6758V39.7721C42.6758 41.7914 41.033 43.4342 39.0137 43.4342C36.9943 43.4342 35.3516 41.7914 35.3516 39.7721C35.3516 39.3675 35.0236 39.0397 34.6191 39.0397H11.7188V34.555ZM3.00322 40.5045H33.9389C34.1026 41.6445 34.6428 42.6645 35.429 43.4342H6.5918C4.82334 43.4342 3.34355 42.1741 3.00322 40.5045ZM11.7188 44.8991H39.0137C41.8407 44.8991 44.1406 42.5991 44.1406 39.7721V2.22328H45.6055V49.2936H11.7188V44.8991ZM47.0703 49.2936V2.22328H48.5352V49.2936H47.0703Z" fill="black"/>
  </g>
  <defs>
    <clipPath id="clip0_3224_28769">
      <rect width="50" height="50" fill="white" transform="translate(0 0.757812)"/>
    </clipPath>
  </defs>
</svg>