<svg xmlns="http://www.w3.org/2000/svg" width="50" height="51" viewBox="0 0 50 51" fill="none">
  <g clip-path="url(#clip0_3224_28882)">
    <path d="M11.7167 17.1792H2.06416C1.64473 17.1792 1.30469 16.8391 1.30469 16.4197V14.289C1.30469 11.204 3.80556 8.70312 6.89052 8.70312C9.97547 8.70312 12.4763 11.204 12.4763 14.289V16.4197C12.4762 16.8392 12.1362 17.1792 11.7167 17.1792Z" fill="#C3DA40"/>
    <path d="M17.3758 36.0898C16.2936 35.3754 15.5985 34.5564 15.3095 33.6555C13.4882 32.8822 12.3125 31.0724 12.3125 29.0387C12.3125 26.2862 14.4815 24.0469 17.1478 24.0469H23.3017C25.9679 24.0469 28.1371 26.2862 28.1371 29.0387C28.1371 31.7911 25.968 34.0304 23.3017 34.0304H18.5297C18.4887 34.4423 18.5053 34.8711 18.579 35.3056L18.8002 36.6101C18.8307 36.7898 18.6321 36.9192 18.4801 36.8188L17.3758 36.0898Z" fill="#FF62A7"/>
    <path d="M28.1432 29.0387C28.1432 26.2862 25.9742 24.0469 23.3079 24.0469H17.154C16.46 24.0469 15.8003 24.1998 15.2031 24.4729C15.4601 28.6053 18.9704 31.8332 23.1544 31.8332H27.3125C27.8367 31.0352 28.1432 30.0731 28.1432 29.0387Z" fill="#FC5479"/>
    <path d="M30.0642 32.5317C30.2182 31.8687 30.2631 31.2179 30.1981 30.5969H24.2234C20.8635 30.5969 18.0597 27.9288 18.0085 24.5692C17.9564 21.1499 20.7228 18.3516 24.1304 18.3516H31.8538C35.2208 18.3516 38.0223 21.0339 38.0617 24.4007C38.0914 26.9274 36.5939 29.1831 34.2613 30.1397C33.7592 31.6602 32.3308 32.7442 31.2181 33.3868L30.0718 34.0487C29.914 34.1399 29.7235 33.9987 29.7647 33.8212L30.0642 32.5317Z" fill="#31D2F7"/>
    <path d="M23.0129 26.2324C22.9608 22.813 25.7272 20.0147 29.1348 20.0147H36.0987C34.9827 18.9825 33.4853 18.3516 31.8538 18.3516H24.1304C20.7228 18.3516 17.9564 21.1499 18.0085 24.5692C18.0598 27.9287 20.8635 30.5969 24.2234 30.5969H24.9783C23.7949 29.5037 23.0394 27.96 23.0129 26.2324Z" fill="#13ACE8"/>
    <path d="M47.8964 17.1792H38.2438C37.8244 17.1792 37.4844 16.8391 37.4844 16.4197V14.289C37.4844 11.204 39.9852 8.70312 43.0702 8.70312C46.1552 8.70312 48.656 11.204 48.656 14.289V16.4197C48.6558 16.8392 48.3158 17.1792 47.8964 17.1792Z" fill="#FFCF59"/>
    <path d="M11.7167 47.0152H2.06416C1.64473 47.0152 1.30469 46.6752 1.30469 46.2556V44.1249C1.30469 41.0399 3.80556 38.5391 6.89052 38.5391C9.97547 38.5391 12.4763 41.0399 12.4763 44.1249V46.2556C12.4762 46.6751 12.1362 47.0152 11.7167 47.0152Z" fill="#FF62A7"/>
    <path d="M47.8964 47.0152H38.2438C37.8244 47.0152 37.4844 46.6752 37.4844 46.2556V44.1249C37.4844 41.0399 39.9852 38.5391 43.0702 38.5391C46.1552 38.5391 48.656 41.0399 48.656 44.1249V46.2556C48.6558 46.6751 48.3158 47.0152 47.8964 47.0152Z" fill="#31D2F7"/>
    <path d="M5.59706 16.4197V14.289C5.59706 11.9646 7.01708 9.97246 9.0367 9.13105C8.37587 8.85576 7.65106 8.70312 6.89052 8.70312C3.80556 8.70312 1.30469 11.204 1.30469 14.289V16.4197C1.30469 16.8391 1.64473 17.1792 2.06426 17.1792H6.35653C5.9371 17.1792 5.59706 16.8392 5.59706 16.4197Z" fill="#ADBC15"/>
    <path d="M41.7767 16.4197V14.289C41.7767 11.9646 43.1968 9.97246 45.2164 9.13105C44.5556 8.85576 43.8307 8.70312 43.0702 8.70312C39.9852 8.70312 37.4844 11.204 37.4844 14.289V16.4197C37.4844 16.8391 37.8244 17.1792 38.2439 17.1792H42.5362C42.1168 17.1792 41.7767 16.8392 41.7767 16.4197Z" fill="#FFB55C"/>
    <path d="M5.59706 46.2556V44.1249C5.59706 41.8006 7.01708 39.8083 9.0367 38.967C8.37587 38.6918 7.65106 38.5391 6.89052 38.5391C3.80556 38.5391 1.30469 41.0399 1.30469 44.1249V46.2556C1.30469 46.6751 1.64473 47.0152 2.06426 47.0152H6.35653C5.9371 47.0152 5.59706 46.6751 5.59706 46.2556Z" fill="#FC5479"/>
    <path d="M41.7767 46.2556V44.1249C41.7767 41.8006 43.1968 39.8083 45.2164 38.967C44.5556 38.6918 43.8307 38.5391 43.0702 38.5391C39.9852 38.5391 37.4844 41.0399 37.4844 44.1249V46.2556C37.4844 46.6751 37.8244 47.0152 38.2439 47.0152H42.5362C42.1168 47.0152 41.7767 46.6751 41.7767 46.2556Z" fill="#13ACE8"/>
    <path d="M6.83847 11.8803C4.84257 11.8803 3.21875 10.2564 3.21875 8.26044C3.21875 6.26445 4.84257 4.64062 6.83847 4.64062C8.83446 4.64062 10.4583 6.26445 10.4583 8.26044C10.4583 10.2564 8.83446 11.8803 6.83847 11.8803Z" fill="#FAD393"/>
    <path d="M43.0182 11.8803C41.0223 11.8803 39.3984 10.2564 39.3984 8.26044C39.3984 6.26445 41.0223 4.64062 43.0182 4.64062C45.0141 4.64062 46.638 6.26445 46.638 8.26044C46.638 10.2564 45.0141 11.8803 43.0182 11.8803Z" fill="#FAD393"/>
    <path d="M6.83847 41.7162C4.84257 41.7162 3.21875 40.0923 3.21875 38.0964C3.21875 36.1005 4.84257 34.4766 6.83847 34.4766C8.83446 34.4766 10.4583 36.1004 10.4583 38.0964C10.4583 40.0924 8.83446 41.7162 6.83847 41.7162Z" fill="#FAD393"/>
    <path d="M43.0182 41.7162C41.0223 41.7162 39.3984 40.0923 39.3984 38.0964C39.3984 36.1005 41.0223 34.4766 43.0182 34.4766C45.0141 34.4766 46.638 36.1004 46.638 38.0964C46.638 40.0924 45.0141 41.7162 43.0182 41.7162Z" fill="#FAD393"/>
    <path d="M6.6374 8.26054C6.6374 6.88242 7.41161 5.68203 8.54784 5.0707C8.03847 4.79668 7.45634 4.64062 6.83847 4.64062C4.84257 4.64062 3.21875 6.26445 3.21875 8.26044C3.21875 10.2564 4.84257 11.8803 6.83847 11.8803C7.45634 11.8803 8.03837 11.7243 8.54784 11.4502C7.41161 10.839 6.6374 9.63866 6.6374 8.26054Z" fill="#EDB769"/>
    <path d="M42.8171 8.26054C42.8171 6.88242 43.5913 5.68203 44.7275 5.0707C44.2181 4.79668 43.636 4.64062 43.0182 4.64062C41.0223 4.64062 39.3984 6.26445 39.3984 8.26044C39.3984 10.2564 41.0223 11.8803 43.0182 11.8803C43.636 11.8803 44.2181 11.7243 44.7275 11.4502C43.5914 10.839 42.8171 9.63866 42.8171 8.26054Z" fill="#EDB769"/>
    <path d="M6.6374 38.0965C6.6374 36.7184 7.41161 35.518 8.54784 34.9066C8.03847 34.6326 7.45634 34.4766 6.83847 34.4766C4.84257 34.4766 3.21875 36.1004 3.21875 38.0964C3.21875 40.0924 4.84257 41.7162 6.83847 41.7162C7.45634 41.7162 8.03837 41.5602 8.54784 41.2861C7.41161 40.6749 6.6374 39.4745 6.6374 38.0965Z" fill="#EDB769"/>
    <path d="M42.8171 38.0965C42.8171 36.7184 43.5913 35.518 44.7275 34.9066C44.2181 34.6326 43.636 34.4766 43.0182 34.4766C41.0223 34.4766 39.3984 36.1004 39.3984 38.0964C39.3984 40.0924 41.0223 41.7162 43.0182 41.7162C43.636 41.7162 44.2181 41.5602 44.7275 41.2861C43.5914 40.6749 42.8171 39.4745 42.8171 38.0965Z" fill="#EDB769"/>
    <path d="M12.8769 5.65561C13.0155 5.65561 13.156 5.62007 13.2845 5.54556C14.0656 5.09214 14.8812 4.68042 15.7086 4.32163C16.1208 4.14282 16.3101 3.66392 16.1312 3.25171C15.9525 2.8396 15.4735 2.65035 15.0614 2.82906C14.1762 3.21294 13.3035 3.65347 12.4678 4.13853C12.0791 4.36411 11.9471 4.86177 12.1726 5.25034C12.3235 5.5104 12.5964 5.65561 12.8769 5.65561Z" fill="black"/>
    <path d="M29.0182 2.74791C29.9083 2.9022 30.7981 3.1107 31.6633 3.36763C31.7406 3.39058 31.8185 3.40152 31.8953 3.40152C32.2461 3.40152 32.5697 3.17281 32.6748 2.81939C32.8028 2.38873 32.5573 1.9359 32.1266 1.80807C31.2008 1.53316 30.2486 1.30992 29.2963 1.14488C28.854 1.06822 28.4325 1.36471 28.3558 1.80738C28.2791 2.25015 28.5757 2.67115 29.0182 2.74791Z" fill="black"/>
    <path d="M23.5548 2.44668C23.5709 2.44668 23.5871 2.44629 23.6034 2.44521C24.0651 2.41797 24.5341 2.4042 24.9975 2.4042C24.9984 2.4042 24.9992 2.4042 25 2.4042C25.4403 2.4042 25.8851 2.4166 26.3221 2.44101C26.773 2.4667 27.1547 2.12275 27.1797 1.67422C27.2046 1.22568 26.8614 0.841699 26.4129 0.816699C25.9458 0.790625 25.4704 0.777344 25.0002 0.777344C24.9992 0.777344 24.9984 0.777344 24.9974 0.777344C24.5024 0.777344 24.0011 0.791992 23.5078 0.821191C23.0593 0.847656 22.7172 1.23262 22.7436 1.68105C22.7689 2.11328 23.1274 2.44668 23.5548 2.44668Z" fill="black"/>
    <path d="M48.3438 19.3584C47.9068 19.4625 47.637 19.9012 47.7411 20.3382C47.9502 21.2157 48.1096 22.1158 48.2154 23.0135C48.2641 23.4274 48.6155 23.732 49.0221 23.732C49.054 23.732 49.086 23.7301 49.1183 23.7263C49.5644 23.6738 49.8836 23.2696 49.831 22.8234C49.718 21.863 49.5473 20.9001 49.3237 19.9613C49.2194 19.5241 48.7809 19.254 48.3438 19.3584Z" fill="black"/>
    <path d="M46.9711 33.7703C46.8175 34.1925 47.0352 34.6593 47.4575 34.8129C47.5493 34.8464 47.6431 34.8621 47.7356 34.8621C48.0679 34.8621 48.3798 34.6569 48.5 34.3266C48.8308 33.418 49.1109 32.4803 49.333 31.5395C49.4362 31.1023 49.1654 30.6641 48.7282 30.561C48.2915 30.4579 47.8528 30.7283 47.7495 31.1658C47.5419 32.045 47.2801 32.9213 46.9711 33.7703Z" fill="black"/>
    <path d="M34.219 4.29555C35.0482 4.652 35.8657 5.06167 36.6491 5.51303C36.7772 5.58676 36.9167 5.62182 37.0546 5.62182C37.3359 5.62182 37.6095 5.47563 37.76 5.2144C37.9843 4.82514 37.8507 4.32778 37.4614 4.10347C36.6233 3.62046 35.7486 3.18228 34.8614 2.80093C34.4484 2.623 33.9702 2.81421 33.7928 3.227C33.6155 3.6397 33.8063 4.11802 34.219 4.29555Z" fill="black"/>
    <path d="M1.27436 30.5885C0.837255 30.6922 0.566943 31.1306 0.670556 31.5677C0.893602 32.5082 1.17456 33.4451 1.50591 34.3525C1.62632 34.6825 1.93813 34.8871 2.27006 34.8871C2.36264 34.8871 2.45698 34.8712 2.54897 34.8375C2.97094 34.6835 3.18823 34.2165 3.03413 33.7945C2.72465 32.9466 2.46196 32.0712 2.25356 31.1924C2.14985 30.7552 1.71235 30.4849 1.27436 30.5885Z" fill="black"/>
    <path d="M18.0243 3.42608C18.1018 3.42608 18.1807 3.41495 18.2589 3.39141C19.1228 3.13174 20.0121 2.92032 20.9018 2.76309C21.3443 2.68487 21.6396 2.2629 21.5614 1.82051C21.4832 1.37804 21.0616 1.08292 20.6188 1.16095C19.6668 1.32911 18.7152 1.55538 17.7904 1.83331C17.3601 1.9627 17.1163 2.41631 17.2456 2.84649C17.3514 3.19883 17.6746 3.42608 18.0243 3.42608Z" fill="black"/>
    <path d="M49.1855 24.9141C48.7362 24.9141 48.3722 25.2782 48.3722 25.7274V25.7789C48.3722 26.685 48.3197 27.5979 48.2164 28.4926C48.1648 28.9389 48.4847 29.3425 48.9309 29.394C48.9628 29.3977 48.9941 29.3995 49.0255 29.3995C49.4329 29.3995 49.7846 29.0939 49.8325 28.6795C49.943 27.7231 49.9991 26.7472 49.9991 25.779V25.7275C49.9989 25.2782 49.6347 24.9141 49.1855 24.9141Z" fill="black"/>
    <path d="M29.0674 48.7976C28.18 48.9533 27.2718 49.0589 26.368 49.1112C25.9195 49.1371 25.577 49.5217 25.6029 49.9701C25.6278 50.4027 25.9865 50.7365 26.4143 50.7365C26.43 50.7365 26.4461 50.7362 26.462 50.7352C27.4282 50.6793 28.3996 50.5665 29.3487 50.3997C29.7912 50.322 30.087 49.9004 30.0092 49.4578C29.9316 49.0156 29.5097 48.7198 29.0674 48.7976Z" fill="black"/>
    <path d="M23.653 49.1121C22.7491 49.0607 21.8409 48.9561 20.9536 48.8014C20.5102 48.7239 20.0896 49.0203 20.0122 49.4628C19.935 49.9054 20.2312 50.3267 20.6737 50.404C21.6229 50.5696 22.5942 50.6815 23.5608 50.7364C23.5764 50.7373 23.592 50.7377 23.6077 50.7377C24.0358 50.7377 24.3946 50.4031 24.4191 49.9704C24.4445 49.5218 24.1015 49.1376 23.653 49.1121Z" fill="black"/>
    <path d="M18.3075 48.1784C17.4422 47.9204 16.5828 47.6081 15.7529 47.2502C15.3405 47.0725 14.8617 47.2625 14.6839 47.6751C14.5059 48.0876 14.6963 48.5662 15.1087 48.7441C15.9969 49.127 16.9167 49.4611 17.8426 49.7372C17.9202 49.7604 17.9984 49.7714 18.0754 49.7714C18.4258 49.7714 18.7494 49.5431 18.8547 49.1903C18.983 48.7599 18.738 48.3069 18.3075 48.1784Z" fill="black"/>
    <path d="M0.877338 23.8061C0.908881 23.8097 0.940033 23.8115 0.97099 23.8115C1.3788 23.8115 1.73066 23.5054 1.77802 23.0906C1.88085 22.1924 2.03749 21.2918 2.24374 20.4138C2.34638 19.9764 2.07519 19.5386 1.63779 19.4359C1.20048 19.3329 0.762495 19.6044 0.659761 20.0419C0.439253 20.9812 0.271578 21.9447 0.161617 22.9054C0.110445 23.3518 0.430952 23.755 0.877338 23.8061Z" fill="black"/>
    <path d="M34.2656 47.2428C33.4363 47.6013 32.5775 47.9143 31.7131 48.1732C31.2827 48.3021 31.0384 48.7554 31.1672 49.1858C31.2727 49.5384 31.5961 49.7661 31.9462 49.7661C32.0234 49.7661 32.102 49.755 32.1799 49.7318C33.1051 49.4547 34.024 49.1198 34.9114 48.7361C35.3237 48.5577 35.5136 48.0789 35.3352 47.6666C35.1568 47.2542 34.6782 47.0645 34.2656 47.2428Z" fill="black"/>
    <path d="M1.07168 29.4167C1.51797 29.3646 1.8374 28.9607 1.78535 28.5144C1.68105 27.62 1.62773 26.707 1.62685 25.8009C1.62646 25.3519 1.2623 24.9883 0.813475 24.9883C0.81328 24.9883 0.812987 24.9883 0.812596 24.9883C0.363379 24.9888 -0.00039031 25.3532 3.14302e-07 25.8025C0.000976875 26.7708 0.058008 27.7467 0.169531 28.7029C0.217871 29.1172 0.569335 29.4222 0.976366 29.4222C1.00781 29.4222 1.03974 29.4204 1.07168 29.4167Z" fill="black"/>
    <path d="M2.18974 17.8263H11.588C12.5413 17.8263 13.3169 17.0508 13.3169 16.0974V14.1374C13.3169 13.4865 13.2112 12.8467 13.0026 12.2356C12.8717 11.852 12.454 11.6473 12.0711 11.7781C11.6874 11.9091 11.4826 12.3261 11.6136 12.7098C11.7699 13.1678 11.8491 13.6482 11.8491 14.1375V16.0975C11.8491 16.2416 11.732 16.3587 11.588 16.3587H2.18965C2.0456 16.3587 1.92851 16.2416 1.92851 16.0975V14.1375C1.92851 12.8752 2.4706 11.6793 3.3999 10.8459C4.18613 11.89 5.43563 12.5666 6.84042 12.5666C9.21405 12.5666 11.1452 10.6354 11.1452 8.26181C11.1452 5.88818 9.21414 3.95703 6.84061 3.95703C4.46708 3.95703 2.53584 5.88818 2.53584 8.26181C2.53584 8.69355 2.60039 9.11024 2.71923 9.5037C1.3001 10.6162 0.460938 12.3251 0.460938 14.1376V16.0976C0.46084 17.0508 1.23642 17.8263 2.18974 17.8263ZM6.84061 5.4247C8.40496 5.4247 9.67772 6.69736 9.67772 8.26181C9.67772 9.82626 8.40506 11.0989 6.84061 11.0989C5.27636 11.0989 4.00361 9.82626 4.00361 8.26181C4.00361 6.69736 5.27616 5.4247 6.84061 5.4247Z" fill="black"/>
    <path d="M36.6875 14.1374V16.0974C36.6875 17.0508 37.463 17.8263 38.4164 17.8263H47.8146C48.7679 17.8263 49.5435 17.0508 49.5435 16.0974V14.1374C49.5435 13.4865 49.4379 12.8467 49.2293 12.2356C49.0983 11.852 48.6808 11.6473 48.2977 11.7781C47.914 11.9091 47.7093 12.3261 47.8402 12.7098C47.9965 13.1678 48.0758 13.6482 48.0758 14.1375V16.0975C48.0758 16.2416 47.9587 16.3587 47.8146 16.3587H38.4164C38.2724 16.3587 38.1553 16.2416 38.1553 16.0975V14.1375C38.1553 12.8752 38.6974 11.6793 39.6267 10.8459C40.4129 11.89 41.6624 12.5666 43.0672 12.5666C45.4408 12.5666 47.372 10.6354 47.372 8.26181C47.372 5.88818 45.4408 3.95703 43.0672 3.95703C40.6935 3.95703 38.7625 5.88818 38.7625 8.26181C38.7625 8.69355 38.827 9.11024 38.9459 9.5037C37.5266 10.6161 36.6875 12.3249 36.6875 14.1374ZM43.0671 5.42461C44.6314 5.42461 45.9042 6.69726 45.9042 8.26171C45.9042 9.82616 44.6315 11.0988 43.0671 11.0988C41.5028 11.0988 40.2301 9.82616 40.2301 8.26171C40.2301 6.69726 41.5028 5.42461 43.0671 5.42461Z" fill="black"/>
    <path d="M48.2976 41.5515C47.9139 41.6825 47.7092 42.0995 47.8401 42.4832C47.9964 42.9412 48.0757 43.4216 48.0757 43.9109V45.871C48.0757 46.015 47.9586 46.1321 47.8145 46.1321H38.4163C38.2723 46.1321 38.1552 46.015 38.1552 45.871V43.9109C38.1552 42.6486 38.6973 41.4527 39.6266 40.6193C40.4128 41.6635 41.6623 42.34 43.0671 42.34C45.4407 42.34 47.3719 40.4089 47.3719 38.0352C47.3719 35.6616 45.4407 33.7305 43.0671 33.7305C40.6934 33.7305 38.7624 35.6616 38.7624 38.0352C38.7624 38.467 38.8269 38.8837 38.9458 39.2771C37.5267 40.3896 36.6875 42.0985 36.6875 43.911V45.8711C36.6875 46.8244 37.463 47.6 38.4164 47.6H47.8146C48.7679 47.6 49.5435 46.8245 49.5435 45.8711V43.911C49.5435 43.2601 49.4379 42.6203 49.2293 42.0093C49.0982 41.6254 48.6806 41.4205 48.2976 41.5515ZM43.0671 35.198C44.6314 35.198 45.9042 36.4707 45.9042 38.0351C45.9042 39.5996 44.6315 40.8723 43.0671 40.8723C41.5028 40.8723 40.2301 39.5996 40.2301 38.0351C40.2301 36.4707 41.5028 35.198 43.0671 35.198Z" fill="black"/>
    <path d="M12.0711 41.5515C11.6874 41.6825 11.4826 42.0995 11.6136 42.4832C11.7699 42.9412 11.8491 43.4216 11.8491 43.9109V45.871C11.8491 46.015 11.732 46.1321 11.588 46.1321H2.18974C2.0457 46.1321 1.92861 46.015 1.92861 45.871V43.9109C1.92861 42.6486 2.4707 41.4527 3.39999 40.6193C4.18622 41.6635 5.43573 42.34 6.84052 42.34C9.21414 42.34 11.1453 40.4089 11.1453 38.0352C11.1453 35.6616 9.21414 33.7305 6.84052 33.7305C4.46689 33.7305 2.53584 35.6616 2.53584 38.0352C2.53584 38.467 2.60039 38.8837 2.71923 39.2771C1.3001 40.3896 0.460938 42.0985 0.460938 43.911V45.8711C0.460938 46.8244 1.23652 47.6 2.18984 47.6H11.5881C12.5414 47.6 13.317 46.8245 13.317 45.8711V43.911C13.317 43.2601 13.2113 42.6203 13.0027 42.0093C12.8716 41.6254 12.4539 41.4205 12.0711 41.5515ZM6.84061 35.198C8.40497 35.198 9.67772 36.4707 9.67772 38.0351C9.67772 39.5996 8.40506 40.8723 6.84061 40.8723C5.27636 40.8723 4.00361 39.5996 4.00361 38.0351C4.00361 36.4707 5.27616 35.198 6.84061 35.198Z" fill="black"/>
    <path d="M31.9435 17.668H24.1344C20.7599 17.668 17.9525 20.1363 17.4194 23.3621H17.153C14.1092 23.3621 11.6328 25.9087 11.6328 29.0388C11.6328 31.244 12.8538 33.2189 14.7705 34.1597C15.7126 36.4418 18.6519 37.5363 18.7821 37.5837C18.8641 37.6136 18.9491 37.6281 19.0333 37.6281C19.234 37.6281 19.4304 37.5456 19.5719 37.3928C19.7726 37.176 19.8238 36.8599 19.7016 36.5909C19.4062 35.9403 19.2401 35.312 19.205 34.7155H23.3069C25.5758 34.7155 27.5285 33.3002 28.3761 31.2833H29.5446C29.524 32.0869 29.3059 32.9363 28.893 33.8172C28.7675 34.0849 28.815 34.402 29.0134 34.6212C29.1551 34.7776 29.354 34.8625 29.5576 34.8625C29.6394 34.8625 29.7218 34.8488 29.8017 34.8206C29.9647 34.7631 33.6693 33.4271 34.8062 30.6523C37.2136 29.5387 38.7512 27.1493 38.7512 24.4757C38.7512 20.7219 35.6973 17.668 31.9435 17.668ZM33.9501 29.4243C33.7513 29.5051 33.5959 29.6658 33.5304 29.8701C33.1186 31.1558 31.865 32.113 30.8307 32.7102C31.0085 31.9452 31.0573 31.1968 30.9757 30.4721C30.9338 30.0992 30.6213 29.8155 30.246 29.8155H24.1344C23.4317 29.8155 22.7608 29.6782 22.1459 29.4301C21.8736 29.3202 21.5626 29.3801 21.355 29.5877L21.3445 29.5981C20.9755 29.9672 21.1045 30.5919 21.5883 30.7881C22.3751 31.107 23.2345 31.2832 24.1344 31.2832H26.7324C26.0137 32.4626 24.7471 33.2476 23.3067 33.2476H18.4906C18.1185 33.2476 17.8027 33.5262 17.7617 33.8961C17.7061 34.3974 17.7231 34.9119 17.8121 35.4366C17.0997 34.9663 16.3392 34.2867 16.0598 33.4165C15.992 33.2053 15.8424 33.0282 15.6379 32.9425C14.0963 32.2964 13.1003 30.7639 13.1003 29.0388C13.1003 26.7181 14.9182 24.8299 17.1528 24.8299H17.336C17.3756 25.597 17.5431 26.3306 17.8172 27.0104C18.0129 27.4959 18.6381 27.6272 19.0082 27.2571C19.0118 27.2535 19.0154 27.2499 19.0189 27.2464C19.2257 27.0396 19.2867 26.7299 19.1776 26.4586C18.9171 25.8106 18.7794 25.1006 18.7957 24.3567C18.8599 21.442 21.2944 19.1358 24.2098 19.1358H31.8537C34.8004 19.1358 37.2926 21.5464 37.2833 24.4931C37.2765 26.6701 35.9696 28.6045 33.9501 29.4243Z" fill="black"/>
  </g>
  <defs>
    <clipPath id="clip0_3224_28882">
      <rect width="50" height="50" fill="white" transform="translate(0 0.757812)"/>
    </clipPath>
  </defs>
</svg>