<svg xmlns="http://www.w3.org/2000/svg" width="50" height="51" viewBox="0 0 50 51" fill="none">
  <path d="M41.26 1.51953H7.75781C7.21846 1.51953 6.78125 1.97451 6.78125 2.53579V34.482L7.75781 37.4141L6.78125 41.2552V45.9017L42.2365 46.918V2.53579C42.2365 1.97451 41.7993 1.51953 41.26 1.51953Z" fill="#A4CCFF"/>
  <path d="M42.2422 1.51953H39.3125C39.8519 1.51953 40.2891 1.97451 40.2891 2.53579V46.918L43.2188 45.9017V41.2552L42.2422 37.8731L43.2188 34.482V2.53579C43.2188 1.97451 42.7815 1.51953 42.2422 1.51953Z" fill="#8BB3EA"/>
  <path d="M40.2912 41.2575H6.78906V34.4844H40.2912L41.58 37.4638L40.2912 41.2575Z" fill="#FDE588"/>
  <path d="M40.2891 34.4844H43.2188V41.2575H40.2891V34.4844Z" fill="#FDD76F"/>
  <path d="M44.8598 19.9773H3.97656C3.43721 19.9773 3 19.5223 3 18.961V6.86782C3 6.30654 3.43721 5.85156 3.97656 5.85156H44.8597C45.399 5.85156 45.8362 6.30654 45.8362 6.86782V18.961C45.8363 19.5223 45.399 19.9773 44.8598 19.9773Z" fill="#FDE588"/>
  <path d="M46.0312 5.85156H43.1016C43.6409 5.85156 44.0781 6.30654 44.0781 6.86782V18.961C44.0781 19.5223 43.6409 19.9773 43.1016 19.9773H46.0312C46.5706 19.9773 47.0078 19.5223 47.0078 18.961V6.86782C47.0078 6.30654 46.5706 5.85156 46.0312 5.85156Z" fill="#FDD76F"/>
  <path d="M17.0469 28.9297H31.7331V46.9303H17.0469V28.9297Z" fill="#EEF5F6"/>
  <path d="M32.9598 28.9297H17.0469V31.8714H29.0535C29.5929 31.8714 30.0301 32.3263 30.0301 32.8876V46.9303H32.9598V28.9297Z" fill="#DEECF1"/>
  <path d="M33.5817 29.8387H29.6436L24.8506 28.8224L20.3526 29.8387H15.145C14.8066 29.8387 14.5708 29.4892 14.6857 29.158L16.1697 24.882C16.3094 24.4792 16.6767 24.2109 17.0881 24.2109H22.3056L25.7304 25.2272L27.6904 24.2109H31.6383C32.0498 24.2109 32.417 24.4792 32.5568 24.882L34.0408 29.158C34.1558 29.4891 33.9201 29.8387 33.5817 29.8387Z" fill="#F26C72"/>
  <path d="M35.3166 29.158L33.8326 24.882C33.6929 24.4792 33.3256 24.2109 32.9141 24.2109H29.9844C30.3958 24.2109 30.7631 24.4792 30.9028 24.882L32.3868 29.158C32.5018 29.4892 32.2659 29.8387 31.9275 29.8387H34.8572C35.1958 29.8388 35.4315 29.4892 35.3166 29.158Z" fill="#E95059"/>
  <path d="M29.6504 29.8387H20.3594L22.3125 24.2109H27.6973L29.6504 29.8387Z" fill="#EEF5F6"/>
  <path d="M44.875 45.9102H3.17578C1.82744 45.9102 0.734375 47.0477 0.734375 48.4508V49.4865C0.734375 49.7672 0.953027 49.9946 1.22266 49.9946H46.8281C47.0978 49.9946 47.3164 49.7672 47.3164 49.4865V48.4508C47.3164 47.0477 46.2233 45.9102 44.875 45.9102Z" fill="#7F8C93"/>
  <path d="M46.8223 45.9102H43.8438C45.1921 45.9102 46.2852 47.0477 46.2852 48.4508V49.4865C46.2852 49.7672 46.0665 49.9946 45.7969 49.9946H48.7754C49.045 49.9946 49.2637 49.7672 49.2637 49.4865V48.4508C49.2637 47.0477 48.1706 45.9102 46.8223 45.9102Z" fill="#455B6B"/>
  <path d="M46.8262 45.149H43.9483V20.7349H46.0274C46.9697 20.7349 47.7364 19.9371 47.7364 18.9565V6.8633C47.7364 5.88271 46.9697 5.08485 46.0274 5.08485H43.9483V2.53627C43.9483 1.55568 43.1816 0.757812 42.2394 0.757812H7.76064C6.81836 0.757812 6.05166 1.55568 6.05166 2.53627V5.08485H3.97256C3.03027 5.08485 2.26357 5.88271 2.26357 6.8633V18.9565C2.26357 19.9371 3.03027 20.7349 3.97256 20.7349H6.05176V25.8824C6.05176 26.3033 6.37969 26.6446 6.78418 26.6446C7.18867 26.6446 7.5166 26.3033 7.5166 25.8824V20.7349H42.4836V33.7202H39.8347C39.4301 33.7202 39.1022 34.0615 39.1022 34.4824C39.1022 34.9033 39.4301 35.2446 39.8347 35.2446H42.4836V40.4934H33.689V35.2446H36.6202C37.0248 35.2446 37.3526 34.9033 37.3526 34.4824C37.3526 34.0615 37.0248 33.7202 36.6202 33.7202H33.689V30.5981H34.8531C35.2504 30.5981 35.6239 30.396 35.8521 30.0577C36.0805 29.7194 36.1361 29.2852 36.0012 28.8962L34.5173 24.6203C34.2735 23.9179 33.6276 23.4459 32.9099 23.4459H17.0901C16.3725 23.4459 15.7266 23.9178 15.4828 24.6203L13.9989 28.8962C13.864 29.2851 13.9196 29.7193 14.1479 30.0576C14.3762 30.396 14.7497 30.5981 15.147 30.5981H16.3111V33.7202H7.5165V29.2041C7.5165 28.7831 7.18857 28.4419 6.78408 28.4419C6.37959 28.4419 6.05166 28.7831 6.05166 29.2041V45.1489H3.17383C1.42383 45.1489 0 46.6306 0 48.4517V49.4875C0 50.188 0.547559 50.7578 1.2207 50.7578H48.7793C49.4524 50.7578 50 50.188 50 49.4875V48.4518C50 46.6307 48.5763 45.149 46.8262 45.149ZM3.72842 18.9565V6.8633C3.72842 6.72326 3.83799 6.60924 3.97256 6.60924H36.3394C36.7439 6.60924 37.0718 6.26797 37.0718 5.84704C37.0718 5.42611 36.7439 5.08485 36.3394 5.08485H7.5165V2.53627C7.5165 2.39623 7.62607 2.2822 7.76064 2.2822H42.2394C42.374 2.2822 42.4835 2.39623 42.4835 2.53627V5.08485H39.5313C39.1268 5.08485 38.7989 5.42611 38.7989 5.84704C38.7989 6.26797 39.1268 6.60924 39.5313 6.60924H46.0274C46.1621 6.60924 46.2716 6.72326 46.2716 6.8633V18.9565C46.2716 19.0965 46.1621 19.2106 46.0274 19.2106H3.97256C3.83789 19.2106 3.72842 19.0966 3.72842 18.9565ZM42.4835 42.0179V45.149H33.6889V42.0179H42.4835ZM32.2241 45.149H25.7324V30.5981H32.2241V45.149ZM27.1781 24.9704L28.6022 29.0738H21.3979L22.8219 24.9704H27.1781ZM33.1395 25.1381L34.5054 29.0737H30.1597L28.7355 24.9703H32.9099C33.0124 24.9704 33.1047 25.0378 33.1395 25.1381ZM16.8605 25.1381C16.8953 25.0378 16.9876 24.9703 17.0901 24.9703H21.2644L19.8403 29.0737H15.4947L16.8605 25.1381ZM24.2676 30.5981V45.149H17.776V30.5981H24.2676ZM16.3111 35.2447V40.4935H7.5165V35.2447H16.3111ZM7.5165 42.0179H16.3111V45.149H7.5165V42.0179ZM48.5352 49.2334H1.46484V48.4518C1.46484 47.4712 2.23154 46.6734 3.17383 46.6734H46.8262C47.7685 46.6734 48.5352 47.4712 48.5352 48.4518V49.2334Z" fill="black"/>
  <path d="M22.6257 8C22.2212 8 21.8933 8.34126 21.8933 8.7622V12.0012H17.8477V8.7622C17.8477 8.34126 17.5197 8 17.1152 8C16.7107 8 16.3828 8.34126 16.3828 8.7622V17.0489C16.3828 17.4698 16.7107 17.8111 17.1152 17.8111C17.5197 17.8111 17.8477 17.4698 17.8477 17.0489V13.5256H21.8933V17.0489C21.8933 17.4698 22.2212 17.8111 22.6257 17.8111C23.0302 17.8111 23.3581 17.4698 23.3581 17.0489V8.7622C23.3581 8.34126 23.0302 8 22.6257 8Z" fill="black"/>
  <path d="M12.5928 12.2561C11.5719 11.8643 10.6246 11.4364 10.3812 11.3251C10.135 11.1362 10.0156 10.8352 10.0605 10.5096C10.1175 10.0968 10.4231 9.76517 10.8783 9.62248C12.1465 9.22492 13.2941 10.1847 13.3125 10.2004C13.622 10.4685 14.0821 10.4261 14.3416 10.1049C14.6018 9.78264 14.5618 9.30185 14.2522 9.03102C14.1815 8.96913 12.4963 7.5233 10.4558 8.16293C9.45564 8.47645 8.74861 9.2926 8.61052 10.2929C8.48191 11.2249 8.8698 12.1213 9.62273 12.6321C9.65515 12.6541 9.68904 12.6733 9.72439 12.6897C9.77019 12.711 10.8591 13.2153 12.0859 13.6863C12.9552 14.0199 13.3969 14.5422 13.2978 15.1193C13.1994 15.6933 12.5552 16.287 11.6479 16.287C10.7835 16.287 9.949 15.9214 9.4158 15.309C9.14421 14.9971 8.68103 14.9732 8.38123 15.256C8.08152 15.5386 8.05867 16.0208 8.33035 16.3326C9.13669 17.2586 10.3769 17.8114 11.648 17.8114C13.1736 17.8114 14.5028 16.7692 14.7399 15.3872C14.9194 14.3409 14.4496 12.9688 12.5928 12.2561Z" fill="black"/>
  <path d="M38.8402 8H36.623C36.2239 8 35.8906 8.34685 35.8906 8.7622V17.0489C35.8906 17.4698 36.2185 17.8111 36.623 17.8111C37.0276 17.8111 37.3555 17.4698 37.3555 17.0489V14.2074C37.8585 14.2046 38.5011 14.2014 38.8402 14.2014C40.5074 14.2014 41.8639 12.8105 41.8639 11.1007C41.8639 9.39096 40.5075 8 38.8402 8ZM38.8402 12.6769C38.5026 12.6769 37.8687 12.6801 37.3668 12.6829C37.3641 12.1453 37.3609 11.4595 37.3609 11.1007C37.3609 10.797 37.3591 10.0842 37.3576 9.52439H38.8402C39.6852 9.52439 40.399 10.2462 40.399 11.1007C40.399 11.9552 39.6853 12.6769 38.8402 12.6769Z" fill="black"/>
  <path d="M29.5733 8C26.9741 8 24.8594 10.2006 24.8594 12.9055C24.8594 15.6105 26.974 17.8111 29.5733 17.8111C32.1726 17.8111 34.2872 15.6105 34.2872 12.9055C34.2871 10.2005 32.1726 8 29.5733 8ZM29.5733 16.2866C27.7817 16.2866 26.3242 14.7698 26.3242 12.9054C26.3242 11.0411 27.7817 9.52429 29.5733 9.52429C31.3648 9.52429 32.8224 11.0411 32.8224 12.9054C32.8223 14.7698 31.3647 16.2866 29.5733 16.2866Z" fill="black"/>
</svg>