<svg xmlns="http://www.w3.org/2000/svg" width="50" height="51" viewBox="0 0 50 51" fill="none">
  <path d="M43.0151 12.5195C42.3353 12.5195 7.17899 12.5195 6.98192 12.5195C5.10507 12.5195 3.57812 14.0465 3.57812 15.9234V41.4551C3.57812 43.1152 4.8083 44.6514 6.4453 44.9137H43.5518C45.1888 44.6514 46.419 43.1152 46.419 41.4551C46.419 40.6056 46.419 16.6919 46.419 15.9234C46.4189 14.0465 44.8919 12.5195 43.0151 12.5195Z" fill="#695D67"/>
  <path d="M7.5576 41.4551V15.9234C7.5576 14.0466 9.08455 12.5195 10.9614 12.5195C8.55311 12.5195 7.02264 12.5195 6.98192 12.5195C5.10507 12.5195 3.57812 14.0465 3.57812 15.9234V41.4551C3.57812 43.1152 4.8083 44.6514 6.4453 44.9137H10.4248C8.78777 44.6514 7.5576 43.1151 7.5576 41.4551Z" fill="#544E55"/>
  <path d="M48.7012 44.8164H1.30263C0.988769 44.8164 0.734375 45.0733 0.734375 45.3902V47.3641C0.734375 48.8288 1.92109 50.0271 3.37157 50.0271H46.6323C48.0828 50.0271 49.2695 48.8288 49.2695 47.3641V45.3902C49.2695 45.0733 49.015 44.8164 48.7012 44.8164Z" fill="#DFEBFA"/>
  <path d="M48.7012 44.8164H1.30263C0.988769 44.8164 0.734375 45.0733 0.734375 45.3902V47.3641C0.734375 48.8288 1.92109 50.0271 3.37157 50.0271H46.6323C48.0828 50.0271 49.2695 48.8288 49.2695 47.3641V45.3902C49.2695 45.0733 49.015 44.8164 48.7012 44.8164Z" fill="#DFEBFA"/>
  <path d="M8.9345 47.3642V45.3902C8.9345 45.0733 9.1889 44.8164 9.50277 44.8164H1.30264C0.98877 44.8164 0.734375 45.0733 0.734375 45.3902V47.3642C0.734375 48.8288 1.9211 50.0271 3.37159 50.0271H11.5717C10.1212 50.0271 8.9345 48.8287 8.9345 47.3642Z" fill="#B1DBFC"/>
  <path d="M17.9219 44.8164V46.1407C17.9219 46.7916 18.4492 47.3241 19.0938 47.3241H30.9086C31.5533 47.3241 32.0806 46.7916 32.0806 46.1407V44.8164" fill="#B1DBFC"/>
  <path d="M24.3184 46.1407V44.8164H17.9219V46.1407C17.9219 46.7916 18.4492 47.3241 19.0939 47.3241H25.4904C24.8457 47.3241 24.3184 46.7916 24.3184 46.1407Z" fill="#8BCAFF"/>
  <path d="M42.7551 15.5547C41.4025 15.5547 8.68456 15.5547 7.25127 15.5547C6.91396 15.5547 6.64062 15.8281 6.64062 16.1654V41.1752C6.64062 41.5125 6.91406 41.7859 7.25127 41.7859H42.7551C43.0923 41.7859 43.3658 41.5125 43.3658 41.1752C43.3658 40.6231 43.3658 21.4082 43.3658 19.1765C43.3658 19.0766 43.3658 19.0098 43.3658 18.9812V16.1654C43.3658 15.8281 43.0923 15.5547 42.7551 15.5547Z" fill="#FFE181"/>
  <path d="M10.6201 41.1752C10.6201 40.3883 10.6201 17.7529 10.6201 16.1654C10.6201 15.8281 10.8935 15.5547 11.2307 15.5547C9.0164 15.5547 7.53232 15.5547 7.25127 15.5547C6.91396 15.5547 6.64062 15.8281 6.64062 16.1654V41.1752C6.64062 41.5125 6.91406 41.7859 7.25127 41.7859H11.2307C10.8935 41.7859 10.6201 41.5125 10.6201 41.1752Z" fill="#FEC458"/>
  <path d="M37.0481 1.49219H17.3575L11.6719 7.17779V36.5228C11.6719 37.2185 12.2358 37.7824 12.9315 37.7824H37.0704C37.7661 37.7824 38.3301 37.2185 38.3301 36.5228V2.77411C38.3301 2.06611 37.7561 1.49219 37.0481 1.49219Z" fill="#DFEBFA"/>
  <path d="M14.0644 36.4233V4.78516L11.6719 7.17772V36.5227C11.6719 37.2184 12.2358 37.7824 12.9315 37.7824H15.0001C14.4533 37.5725 14.0644 37.044 14.0644 36.4233Z" fill="#B1DBFC"/>
  <path d="M11.6719 7.17783H16.0756C16.7836 7.17783 17.3575 6.60391 17.3575 5.8959V1.49219L11.6719 7.17783Z" fill="#B1DBFC"/>
  <path d="M17.3575 1.49219L11.6719 7.17783H14.0408L17.3575 3.86104V1.49219Z" fill="#8BCAFF"/>
  <path d="M20.1844 9.40984C19.8982 9.1238 19.4346 9.1238 19.1485 9.40984L17.3646 11.1937L16.3519 10.1809C16.0659 9.8949 15.6021 9.8949 15.3162 10.1809C15.03 10.467 15.03 10.9306 15.3161 11.2167L16.8467 12.7473C17.1327 13.0332 17.5965 13.0334 17.8826 12.7473L20.1844 10.4456C20.4704 10.1596 20.4704 9.69587 20.1844 9.40984Z" fill="black"/>
  <path d="M20.1844 16.0114C19.8982 15.7254 19.4346 15.7254 19.1485 16.0114L17.3646 17.7953L16.3519 16.7825C16.0659 16.4965 15.6021 16.4964 15.3162 16.7825C15.03 17.0685 15.03 17.5322 15.3161 17.8182L16.8467 19.3489C17.1327 19.6347 17.5965 19.6349 17.8826 19.3489L20.1844 17.0471C20.4704 16.7611 20.4704 16.2973 20.1844 16.0114Z" fill="black"/>
  <path d="M20.1844 22.7536C19.8982 22.4676 19.4346 22.4676 19.1485 22.7536L17.3646 24.5375L16.3519 23.5247C16.0659 23.2386 15.6021 23.2386 15.3162 23.5247C15.03 23.8107 15.03 24.2744 15.3161 24.5604L16.8467 26.0911C17.1327 26.3769 17.5965 26.3771 17.8826 26.0911L20.1844 23.7893C20.4704 23.5034 20.4704 23.0396 20.1844 22.7536Z" fill="black"/>
  <path d="M3.36962 50.7578H46.6304C48.4884 50.7578 50 49.2347 50 47.3624V45.3885C50 44.6682 49.4165 44.0823 48.6993 44.0823H46.195C46.7938 43.3591 47.1529 42.4372 47.1529 41.4538V30.9226C47.1529 30.5181 46.8251 30.1902 46.4205 30.1902C46.0159 30.1902 45.6881 30.5181 45.6881 30.9226V41.4537C45.6881 42.7335 44.7475 43.8539 43.4914 44.0822H6.50857C5.25252 43.8539 4.31199 42.7336 4.31199 41.4537V15.922C4.31199 14.449 5.51033 13.2507 6.98337 13.2507H10.9384V14.8208H7.24802C6.50749 14.8208 5.90496 15.4233 5.90496 16.1639V41.1737C5.90496 41.9143 6.50749 42.5169 7.24802 42.5169H42.7519C43.4924 42.5169 44.0949 41.9143 44.0949 41.1737V16.1638C44.0949 15.4232 43.4924 14.8207 42.7519 14.8207H39.0616V13.2506H43.0166C44.4897 13.2506 45.688 14.4489 45.688 15.922V27.5047C45.688 27.9092 46.0158 28.2371 46.4204 28.2371C46.825 28.2371 47.1528 27.9092 47.1528 27.5047V15.922C47.1528 13.6413 45.2973 11.7859 43.0166 11.7859H39.0616V2.77225C39.0616 1.66142 38.1579 0.757812 37.0471 0.757812H26.709C26.3044 0.757812 25.9766 1.08574 25.9766 1.49023C25.9766 1.89472 26.3044 2.22264 26.709 2.22264H37.0471C37.3502 2.22264 37.5967 2.46913 37.5967 2.77215V36.5208C37.5967 36.8115 37.3602 37.0481 37.0695 37.0481H12.9306C12.6398 37.0481 12.4034 36.8115 12.4034 36.5208C12.4034 35.4572 12.4034 9.04173 12.4034 7.90824H16.0746C17.1854 7.90824 18.089 7.00464 18.089 5.89391V2.22264H23.2911C23.6957 2.22264 24.0235 1.89472 24.0235 1.49023C24.0235 1.08574 23.6957 0.757813 23.2911 0.757813H17.3566C17.157 0.757813 16.9702 0.84082 16.8386 0.972362L11.153 6.65796C11.0224 6.78853 10.9385 6.97729 10.9385 7.17583V11.7858H6.98347C4.70281 11.7858 2.84725 13.6412 2.84725 15.922V41.4537C2.84725 42.4371 3.20634 43.359 3.80516 44.0822H1.30068C0.583396 44.0822 0 44.6681 0 45.3884V47.3623C0 49.2347 1.51152 50.7578 3.36962 50.7578ZM16.6241 3.25848V5.89391C16.6241 6.19693 16.3776 6.44341 16.0745 6.44341H13.4391L16.6241 3.25848ZM12.9306 38.513H37.0695C38.1677 38.513 39.0616 37.6195 39.0616 36.5209V16.2855H42.6301V41.0519H7.36989V16.2855H10.9385V36.5208C10.9385 37.6192 11.8321 38.513 12.9306 38.513ZM18.6531 45.5471H31.3469V46.139C31.3469 46.3834 31.1456 46.59 30.9074 46.59H19.0926C18.8544 46.59 18.6531 46.3834 18.6531 46.139V45.5471ZM1.46484 45.5471H17.1882V46.139C17.1882 47.1953 18.0425 48.0548 19.0926 48.0548H30.9074C31.9575 48.0548 32.8118 47.1953 32.8118 46.139V45.5471H48.5352V47.3624C48.5352 48.427 47.6807 49.293 46.6304 49.293H3.36962C2.31933 49.293 1.46484 48.427 1.46484 47.3624V45.5471Z" fill="black"/>
  <path d="M34.6191 9.05469H22.6855C22.281 9.05469 21.9531 9.38261 21.9531 9.7871C21.9531 10.1916 22.281 10.5195 22.6855 10.5195H34.6191C35.0237 10.5195 35.3515 10.1916 35.3515 9.7871C35.3515 9.38261 35.0237 9.05469 34.6191 9.05469Z" fill="black"/>
  <path d="M34.6191 11.9453H22.6855C22.281 11.9453 21.9531 12.2732 21.9531 12.6777C21.9531 13.0822 22.281 13.4101 22.6855 13.4101H34.6191C35.0237 13.4101 35.3515 13.0822 35.3515 12.6777C35.3515 12.2732 35.0237 11.9453 34.6191 11.9453Z" fill="black"/>
  <path d="M34.6191 15.7969H22.6855C22.281 15.7969 21.9531 16.1248 21.9531 16.5293C21.9531 16.9338 22.281 17.2617 22.6855 17.2617H34.6191C35.0237 17.2617 35.3515 16.9338 35.3515 16.5293C35.3515 16.1248 35.0237 15.7969 34.6191 15.7969Z" fill="black"/>
  <path d="M34.6191 18.6875H22.6855C22.281 18.6875 21.9531 19.0154 21.9531 19.4199C21.9531 19.8244 22.281 20.1523 22.6855 20.1523H34.6191C35.0237 20.1523 35.3515 19.8244 35.3515 19.4199C35.3515 19.0154 35.0237 18.6875 34.6191 18.6875Z" fill="black"/>
  <path d="M34.6191 22.5391H22.6855C22.281 22.5391 21.9531 22.867 21.9531 23.2715C21.9531 23.676 22.281 24.0039 22.6855 24.0039H34.6191C35.0237 24.0039 35.3515 23.676 35.3515 23.2715C35.3515 22.867 35.0237 22.5391 34.6191 22.5391Z" fill="black"/>
  <path d="M34.6191 25.4297H22.6855C22.281 25.4297 21.9531 25.7576 21.9531 26.1621C21.9531 26.5666 22.281 26.8945 22.6855 26.8945H34.6191C35.0237 26.8945 35.3515 26.5666 35.3515 26.1621C35.3515 25.7576 35.0237 25.4297 34.6191 25.4297Z" fill="black"/>
  <path d="M19.1485 29.4919L17.3646 31.2758L16.3519 30.263C16.0658 29.9769 15.6021 29.9769 15.3161 30.263C15.0301 30.549 15.0301 31.0128 15.3161 31.2987L16.8468 32.8294C17.1329 33.1154 17.5966 33.1154 17.8826 32.8294L20.1844 30.5276C20.4704 30.2416 20.4704 29.7778 20.1844 29.4919C19.8982 29.2058 19.4346 29.2058 19.1485 29.4919Z" fill="black"/>
  <path d="M34.6191 29.2773H22.6855C22.281 29.2773 21.9531 29.6053 21.9531 30.0098C21.9531 30.4142 22.281 30.7422 22.6855 30.7422H34.6191C35.0237 30.7422 35.3515 30.4142 35.3515 30.0098C35.3515 29.6053 35.0237 29.2773 34.6191 29.2773Z" fill="black"/>
  <path d="M34.6191 32.168H22.6855C22.281 32.168 21.9531 32.4959 21.9531 32.9004C21.9531 33.3049 22.281 33.6328 22.6855 33.6328H34.6191C35.0237 33.6328 35.3515 33.3049 35.3515 32.9004C35.3515 32.4959 35.0237 32.168 34.6191 32.168Z" fill="black"/>
</svg>