<svg xmlns="http://www.w3.org/2000/svg" width="50" height="51" viewBox="0 0 50 51" fill="none">
  <path d="M13.9704 36.4208C14.1373 39.8585 16.9413 42.6285 20.4911 42.8631C23.6666 43.0731 27.6206 43.2714 31.257 43.2744C35.1195 43.2776 39.3209 43.0787 42.6907 42.8669C46.3759 42.6353 49.241 39.6755 49.241 36.1036V8.65918C49.241 5.08733 46.3759 2.12741 42.6907 1.89586C39.3208 1.68403 35.1195 1.48519 31.2569 1.48832C27.6205 1.49125 23.6665 1.6896 20.491 1.89957C16.9412 2.13425 14.1372 4.90421 13.9703 8.34188C13.7659 12.5522 13.5391 18.1742 13.5391 22.3814C13.5391 26.5885 13.766 32.2106 13.9704 36.4208Z" fill="#EEECFF"/>
  <path d="M30.9576 1.49609C27.4043 1.50928 23.5797 1.70187 20.491 1.90608C16.9412 2.14075 14.1372 4.91072 13.9703 8.34839C13.7659 12.5587 13.5391 18.1807 13.5391 22.3879C13.5391 26.595 13.7659 32.2171 13.9703 36.4273C14.1372 39.865 16.9412 42.635 20.491 42.8696C23.6665 43.0796 27.6205 43.2779 31.2569 43.2809C33.38 43.2826 35.6047 43.2232 37.7381 43.1342C28.0306 35.4246 27.9783 8.34214 30.9576 1.49609Z" fill="#D3D3FF"/>
  <path d="M13.6252 18.4492H12.4041C10.1574 18.4492 8.33594 20.2108 8.33594 22.384C8.33594 24.557 10.1573 26.3188 12.4041 26.3188H13.6252C15.872 26.3188 17.6933 24.5571 17.6933 22.384C17.6933 20.2109 15.872 18.4492 13.6252 18.4492Z" fill="#5972A4"/>
  <path d="M13.6252 5.11719H12.4041C10.1574 5.11719 8.33594 6.8788 8.33594 9.05195C8.33594 11.2251 10.1573 12.9867 12.4041 12.9867H13.6252C15.872 12.9867 17.6933 11.2251 17.6933 9.05195C17.6933 6.8788 15.872 5.11719 13.6252 5.11719Z" fill="#5972A4"/>
  <path d="M14.802 27.2646C13.4262 26.0157 12.0172 24.7769 10.8294 23.7465C9.16047 22.2987 6.61314 22.3652 5.02788 23.8986L2.00155 26.8256C0.416286 28.3589 0.347524 30.8227 1.84443 32.4369C2.91009 33.5862 4.19153 34.9496 5.48317 36.2808L14.802 27.2646Z" fill="#FF6E80"/>
  <path d="M8.74609 33.1231C6.41293 31.0613 6.44686 25.8816 8.32625 22.7144C7.14124 22.6293 5.92907 23.0261 5.0279 23.8979L2.00156 26.825C0.4163 28.3582 0.347538 30.822 1.84435 32.4363C2.91001 33.5856 4.19144 34.949 5.48318 36.2801L8.74609 33.1231Z" fill="#F8475E"/>
  <path d="M28.8546 46.1597L27.1419 41.1862C26.7955 40.1803 26.2933 39.2339 25.6538 38.378L25.6537 38.3781C22.2935 37.6058 19.4969 37.794 17.9804 39.4591C16.4638 41.1241 16.5049 44.256 16.9787 46.7686H16.9784C17.8633 47.3872 18.8419 47.873 19.8819 48.208L25.024 49.8645C27.3913 50.6272 29.6431 48.4493 28.8546 46.1597Z" fill="#FFBD73"/>
  <path d="M20.0354 38.2344C19.212 38.4768 18.5161 38.8798 17.9804 39.4678C16.4638 41.1329 16.5049 44.2648 16.9787 46.7774H16.9784C17.8633 47.396 18.8419 47.8817 19.8819 48.2168L22.0873 48.9272C20.4934 46.1877 19.5194 42.4953 20.0354 38.2344Z" fill="#FF995C"/>
  <path d="M14.8032 27.2617C15.7572 28.1278 16.6952 28.9986 17.5323 29.8082C20.0687 32.2616 23.187 35.6113 24.9844 37.5722C25.2216 37.831 25.4444 38.1007 25.653 38.3799C25.216 38.9833 24.5782 39.4387 23.8292 39.6572L21.3471 40.381C20.2435 40.7029 19.3799 41.5381 19.047 42.6056L18.2986 45.0064C18.0728 45.7308 17.6019 46.3477 16.978 46.7704C16.6894 46.5686 16.4106 46.3531 16.143 46.1237C14.1155 44.3852 10.6522 41.3692 8.11581 38.9159C7.27925 38.1068 6.37929 37.2001 5.48438 36.2779L14.8032 27.2617Z" fill="#9BD981"/>
  <path d="M21.1815 33.5036C19.9642 32.2298 18.688 30.9261 17.5323 29.8082C16.6952 28.9986 15.7573 28.1278 14.8032 27.2617L5.48438 36.2779C6.37929 37.2001 7.27915 38.1068 8.11581 38.9159C10.6522 41.3692 14.1156 44.3852 16.143 46.1237C16.4106 46.3531 16.6894 46.5686 16.978 46.7704C17.6019 46.3477 18.0728 45.7308 18.2986 45.0064L19.047 42.6056C19.2133 42.0721 19.5123 41.5966 19.9075 41.2143C19.8153 38.8521 20.1786 36.2549 21.1815 33.5036Z" fill="#54D37B"/>
  <path d="M24.7637 45.9094C25.9282 44.7831 27.04 44.0292 27.9486 43.5234L28.858 46.1645C29.6464 48.4541 27.3948 50.632 25.0275 49.8695L22.2969 48.9898C22.8198 48.1111 23.5992 47.0357 24.7637 45.9094Z" fill="#5972A4"/>
  <path d="M6.83618 38.1466L16.7338 28.5737C17.4638 27.8676 17.4638 26.7229 16.7338 26.0168L16.0887 25.3928C15.3586 24.6868 14.1751 24.6868 13.4451 25.3928L3.54752 34.9658C2.81749 35.6719 2.81749 36.8166 3.54752 37.5227L4.19263 38.1466C4.92266 38.8527 6.10626 38.8527 6.83618 38.1466Z" fill="#A3E6FF"/>
  <path d="M10.1126 28.6172L3.54745 34.9671C2.81752 35.6732 2.81752 36.8179 3.54745 37.524L4.19256 38.1479C4.92258 38.854 6.10608 38.854 6.83611 38.1479L10.8726 34.2438C9.82387 33.4852 9.20542 30.7591 10.1126 28.6172Z" fill="#59D5FF"/>
  <path d="M24.3894 17.5045C26.0758 17.5045 27.4429 16.4516 27.4429 15.1527C27.4429 13.8538 26.0758 12.8008 24.3894 12.8008C22.703 12.8008 21.3359 13.8538 21.3359 15.1527C21.3359 16.4516 22.703 17.5045 24.3894 17.5045Z" fill="#FFA1AC"/>
  <path d="M40.9441 17.5045C42.6305 17.5045 43.9976 16.4516 43.9976 15.1527C43.9976 13.8538 42.6305 12.8008 40.9441 12.8008C39.2577 12.8008 37.8906 13.8538 37.8906 15.1527C37.8906 16.4516 39.2577 17.5045 40.9441 17.5045Z" fill="#FFA1AC"/>
  <path d="M34.9454 13.3367C35.2202 13.0317 35.1873 12.569 34.872 12.3032C34.5564 12.0375 34.0784 12.0692 33.8035 12.3741C33.5153 12.6941 33.0991 12.8776 32.6618 12.8776C32.2245 12.8776 31.8084 12.6941 31.5201 12.3741C31.2451 12.0692 30.7668 12.0375 30.4516 12.3032C30.1364 12.569 30.1035 13.0317 30.3782 13.3367C30.9541 13.976 31.7865 14.3426 32.6617 14.3426C33.5369 14.3426 34.3694 13.976 34.9454 13.3367ZM39.9151 12.8913V11.684C39.9151 11.2794 39.5761 10.9516 39.1578 10.9516C38.7395 10.9516 38.4005 11.2794 38.4005 11.684V12.8913C38.4005 13.2959 38.7395 13.6238 39.1578 13.6238C39.5761 13.6238 39.9151 13.2959 39.9151 12.8913ZM26.9233 12.8913V11.684C26.9233 11.2794 26.5844 10.9516 26.166 10.9516C25.7477 10.9516 25.4088 11.2794 25.4088 11.684V12.8913C25.4088 13.2959 25.7477 13.6238 26.166 13.6238C26.5843 13.6238 26.9233 13.2959 26.9233 12.8913ZM49.2426 14.6863C49.6609 14.6863 49.9999 14.3585 49.9999 13.9539V8.66114C49.9999 4.71455 46.8116 1.42269 42.7414 1.16692C38.3809 0.892781 34.5196 0.757423 31.2579 0.757813C28.1864 0.760353 24.5471 0.899324 20.441 1.17072C18.0355 1.32972 15.8669 2.55038 14.5323 4.46806C14.2393 4.41415 13.9375 4.38475 13.6285 4.38475H12.4075C9.74668 4.38475 7.58204 6.47841 7.58204 9.05198C7.58204 11.6255 9.74668 13.7192 12.4075 13.7192H12.9808C12.9271 15.1425 12.8841 16.4809 12.8523 17.7161H12.4075C9.88349 17.7161 7.8073 19.6005 7.60041 21.9908C6.46155 22.0798 5.35035 22.5457 4.48361 23.3839L1.45727 26.311C-0.411721 28.1188 -0.493104 31.0258 1.27189 32.9294C1.80653 33.5059 2.33533 34.0713 2.85008 34.6171C1.98849 35.6067 2.02453 37.0986 3.00447 38.0462L3.64958 38.6703C4.58135 39.5716 6.02787 39.6497 7.0485 38.9309C8.12557 39.9906 9.22647 41.0138 10.3471 42.0305C10.652 42.3072 11.1314 42.2924 11.4175 41.9974C11.7036 41.7023 11.6884 41.2388 11.3832 40.9621C10.2797 39.9607 9.19426 38.9519 8.14253 37.9175L16.4835 29.8499C16.6584 30.0162 16.8266 30.1775 16.9869 30.3326C19.7202 32.9762 24.1007 37.6902 24.6676 38.3605C24.3656 38.6367 24.0004 38.8457 23.6007 38.9624L21.1187 39.6862C19.7686 40.0799 18.7194 41.0947 18.3121 42.4006L17.5637 44.8013C17.4432 45.1879 17.2271 45.541 16.9416 45.8331C16.5075 45.4895 14.4428 43.6844 14.001 43.2964C13.6915 43.0244 13.2124 43.0465 12.9313 43.3462C12.6501 43.6456 12.6731 44.1089 12.9828 44.3808C13.8336 45.1281 14.7245 45.9011 15.6308 46.6782C16.8011 47.6815 18.1474 48.4329 19.6322 48.9111L24.7743 50.5676C26.143 51.0089 27.6277 50.6696 28.6477 49.6827C29.668 48.6958 30.0185 47.2603 29.5625 45.9363L28.8896 43.9817C29.7166 43.9989 30.5105 44.0082 31.2582 44.0089H31.3507C34.5896 44.0089 38.4213 43.8714 42.7415 43.5999C46.8117 43.344 50 40.0522 50 36.1056V17.5073C50 17.1027 49.661 16.7748 49.2427 16.7748C48.8244 16.7748 48.4854 17.1027 48.4854 17.5073V36.1056C48.4854 39.2823 45.9193 41.9321 42.6434 42.1381C38.3556 42.4075 34.5572 42.544 31.351 42.544H31.2595C30.3605 42.5433 29.3941 42.5301 28.381 42.5049L27.85 40.9628C27.3555 39.5267 26.5787 38.2246 25.5413 37.0926C23.2067 34.5456 20.0598 31.1962 17.5312 28.7918C18.2737 27.8056 18.1945 26.4066 17.2618 25.5045L17.2375 25.4809C18.0183 24.6335 18.4542 23.5412 18.4542 22.3834C18.4542 20.0523 16.6781 18.115 14.366 17.7707C14.3988 16.4986 14.4435 15.1151 14.4995 13.6418C16.7459 13.244 18.4542 11.338 18.4542 9.05207C18.4542 7.31449 17.4666 5.79674 16.0066 4.99338C17.0909 3.61919 18.7343 2.75205 20.5447 2.63232C24.6169 2.36307 28.2219 2.22537 31.2595 2.22283H31.351C34.558 2.22283 38.3569 2.35936 42.6435 2.62881C45.9194 2.83458 48.4855 5.48432 48.4855 8.66123V13.954C48.4853 14.3585 48.8243 14.6863 49.2426 14.6863ZM28.1255 46.3992C28.4032 47.2056 28.198 48.0458 27.5766 48.6469C26.9553 49.248 26.0866 49.4464 25.2528 49.1778L23.4337 48.5917C23.9579 47.8387 24.5781 47.1144 25.2852 46.4305C25.9921 45.7468 26.7408 45.1469 27.5196 44.6398L28.1255 46.3992ZM26.4128 41.4258L27.0252 43.2043C26.0386 43.8088 25.0948 44.5428 24.2141 45.3947C23.3332 46.2468 22.5744 47.1595 21.9494 48.1136L20.1105 47.5212C19.4362 47.304 18.7952 47.0214 18.1914 46.6772C18.5632 46.2536 18.8468 45.7593 19.0136 45.2242L19.762 42.8236C20.0222 41.9889 20.6928 41.3405 21.5557 41.0887L24.0379 40.3649C24.591 40.2035 25.103 39.9304 25.5407 39.5707C25.8965 40.1544 26.1884 40.774 26.4128 41.4258ZM2.39934 31.9513C1.17142 30.627 1.22796 28.6045 2.52828 27.3469L5.55462 24.4198C6.85484 23.1621 8.94577 23.1075 10.3149 24.2951C10.8874 24.7918 11.4485 25.2826 11.9913 25.7613L3.91524 33.5726C3.42027 33.0476 2.91289 32.505 2.39934 31.9513ZM16.1906 28.0612L6.29313 37.6343C5.85976 38.0537 5.15426 38.0537 4.72069 37.6344L4.07548 37.0102C3.64089 36.5899 3.64089 35.9096 4.07558 35.4893L13.9731 25.9163C14.4076 25.496 15.111 25.496 15.5455 25.9164L16.1907 26.5403C16.6253 26.9607 16.6253 27.641 16.1906 28.0612ZM16.9394 22.3834C16.9394 23.1731 16.6433 23.9185 16.1129 24.4987C15.182 23.9554 13.9508 24.0145 13.071 24.7313C12.5065 24.2332 11.9228 23.7222 11.3263 23.2047C10.6751 22.6399 9.91015 22.2718 9.11065 22.0959C9.26151 20.4645 10.6822 19.1811 12.4075 19.1811H13.6285C15.4541 19.1811 16.9394 20.6177 16.9394 22.3834ZM16.9394 9.05207C16.9394 10.8178 15.4541 12.2544 13.6285 12.2544H12.4075C10.5819 12.2544 9.09662 10.8178 9.09662 9.05207C9.09662 7.28636 10.5819 5.84977 12.4075 5.84977H13.6285C15.4541 5.84977 16.9394 7.28636 16.9394 9.05207ZM37.0495 29.7696C37.4678 29.7696 37.8068 29.4418 37.8068 29.0372V26.4901H40.3605C40.7788 26.4901 41.1178 26.1623 41.1178 25.7577C41.1178 25.3531 40.7788 25.0252 40.3605 25.0252H37.8068V22.5554C37.8068 22.1508 37.4678 21.8229 37.0495 21.8229C36.6312 21.8229 36.2922 22.1508 36.2922 22.5554V25.0252H33.659C33.2407 25.0252 32.9017 25.3531 32.9017 25.7577C32.9017 26.1623 33.2407 26.4901 33.659 26.4901H36.2922V29.0372C36.2922 29.4418 36.6312 29.7696 37.0495 29.7696ZM24.6939 30.5857C25.0845 30.7298 25.5222 30.5398 25.6711 30.1618L26.2791 28.6178H30.3547L30.9564 30.1599C31.104 30.5383 31.5412 30.7293 31.9323 30.5864C32.3235 30.4437 32.521 30.0211 32.3733 29.6426L29.2151 21.5481C29.2126 21.5415 29.2098 21.5347 29.2069 21.5281C29.0599 21.1823 28.7153 20.959 28.3287 20.959C28.3284 20.959 28.3279 20.959 28.3276 20.959C27.9406 20.9594 27.596 21.1835 27.4497 21.53C27.4474 21.5355 27.4452 21.5409 27.443 21.5464L24.2559 29.6406C24.1067 30.0184 24.303 30.4416 24.6939 30.5857ZM28.3261 23.419L29.783 27.1528H26.8558L28.3261 23.419Z" fill="black"/>
</svg>