<svg xmlns="http://www.w3.org/2000/svg" width="209" height="60" viewBox="0 0 209 60" fill="none">
  <path d="M200.416 60H8.37314C4.15011 60 0.691406 56.6231 0.691406 52.5V7.5C0.691406 3.37688 4.15011 3.17096e-06 8.37314 3.17096e-06H200.416C204.64 3.17096e-06 208.098 3.37688 208.098 7.5V52.5C208.098 56.6231 204.64 60 200.416 60Z" fill="black"/>
  <path d="M200.416 1.20187C203.973 1.20187 206.867 4.0275 206.867 7.5V52.5C206.867 55.9725 203.973 58.7981 200.416 58.7981H8.37314C4.8165 58.7981 1.9224 55.9725 1.9224 52.5V7.5C1.9224 4.0275 4.8165 1.20187 8.37314 1.20187H200.416ZM200.416 3.17096e-06H8.37314C4.15011 3.17096e-06 0.691406 3.37688 0.691406 7.5V52.5C0.691406 56.6231 4.15011 60 8.37314 60H200.416C204.64 60 208.098 56.6231 208.098 52.5V7.5C208.098 3.37688 204.64 3.17096e-06 200.416 3.17096e-06Z" fill="#A6A6A6"/>
  <path d="M73.5406 15.365C73.5406 16.6175 73.1565 17.6206 72.3999 18.3688C71.5299 19.2556 70.3969 19.7019 69.0084 19.7019C67.6814 19.7019 66.5483 19.2481 65.6188 18.3537C64.6874 17.4462 64.2227 16.3325 64.2227 14.9994C64.2227 13.6662 64.6874 12.5525 65.6188 11.6525C66.5483 10.7506 67.6814 10.2969 69.0084 10.2969C69.669 10.2969 70.2989 10.43 70.9 10.6775C71.4992 10.9269 71.987 11.2644 72.3403 11.6806L71.5376 12.4719C70.9211 11.7613 70.0819 11.4106 69.0084 11.4106C68.0405 11.4106 67.2012 11.7406 66.4888 12.4062C65.784 13.0737 65.4306 13.9381 65.4306 14.9994C65.4306 16.0606 65.784 16.9325 66.4888 17.6C67.2012 18.2581 68.0405 18.5956 69.0084 18.5956C70.0358 18.5956 70.9 18.2581 71.5818 17.5925C72.0311 17.1519 72.2866 16.5444 72.3538 15.7681H69.0084V14.6844H73.4715C73.5252 14.9187 73.5406 15.1456 73.5406 15.365Z" fill="white" stroke="white" stroke-width="0.184615" stroke-miterlimit="10"/>
  <path d="M80.6174 11.6083H76.4251V14.4583H80.2045V15.542H76.4251V18.392H80.6174V19.4964H75.2383V10.5039H80.6174V11.6083Z" fill="white" stroke="white" stroke-width="0.184615" stroke-miterlimit="10"/>
  <path d="M85.6177 19.4964H84.4308V11.6083H81.8594V10.5039H88.191V11.6083H85.6177V19.4964Z" fill="white" stroke="white" stroke-width="0.184615" stroke-miterlimit="10"/>
  <path d="M92.7734 19.4964V10.5039H93.9583V19.4964H92.7734Z" fill="white" stroke="white" stroke-width="0.184615" stroke-miterlimit="10"/>
  <path d="M99.2075 19.4964H98.0303V11.6083H95.4492V10.5039H101.789V11.6083H99.2075V19.4964Z" fill="white" stroke="white" stroke-width="0.184615" stroke-miterlimit="10"/>
  <path d="M113.782 18.3387C112.873 19.2481 111.748 19.7019 110.406 19.7019C109.056 19.7019 107.93 19.2481 107.022 18.3387C106.115 17.4312 105.664 16.3175 105.664 14.9994C105.664 13.6812 106.115 12.5675 107.022 11.66C107.93 10.7506 109.056 10.2969 110.406 10.2969C111.74 10.2969 112.866 10.7506 113.774 11.6675C114.688 12.5825 115.139 13.6887 115.139 14.9994C115.139 16.3175 114.688 17.4312 113.782 18.3387ZM107.899 17.585C108.583 18.2581 109.415 18.5956 110.406 18.5956C111.389 18.5956 112.228 18.2581 112.904 17.585C113.586 16.9119 113.932 16.0475 113.932 14.9994C113.932 13.9512 113.586 13.0869 112.904 12.4138C112.228 11.7406 111.389 11.4031 110.406 11.4031C109.415 11.4031 108.583 11.7406 107.899 12.4138C107.218 13.0869 106.872 13.9512 106.872 14.9994C106.872 16.0475 107.218 16.9119 107.899 17.585Z" fill="white" stroke="white" stroke-width="0.184615" stroke-miterlimit="10"/>
  <path d="M116.805 19.4964V10.5039H118.245L122.723 17.4977H122.775L122.723 15.7689V10.5039H123.908V19.4964H122.672L117.982 12.1577H117.93L117.982 13.8939V19.4964H116.805Z" fill="white" stroke="white" stroke-width="0.184615" stroke-miterlimit="10"/>
  <path d="M105.369 32.6297C101.761 32.6297 98.8131 35.3109 98.8131 39.0103C98.8131 42.6797 101.761 45.3891 105.369 45.3891C108.986 45.3891 111.934 42.6797 111.934 39.0103C111.934 35.3109 108.986 32.6297 105.369 32.6297ZM105.369 42.8766C103.39 42.8766 101.686 41.2809 101.686 39.0103C101.686 36.7097 103.39 35.1422 105.369 35.1422C107.349 35.1422 109.061 36.7097 109.061 39.0103C109.061 41.2809 107.349 42.8766 105.369 42.8766ZM91.0642 32.6297C87.448 32.6297 84.5078 35.3109 84.5078 39.0103C84.5078 42.6797 87.448 45.3891 91.0642 45.3891C94.6784 45.3891 97.6205 42.6797 97.6205 39.0103C97.6205 35.3109 94.6784 32.6297 91.0642 32.6297ZM91.0642 42.8766C89.0823 42.8766 87.3731 41.2809 87.3731 39.0103C87.3731 36.7097 89.0823 35.1422 91.0642 35.1422C93.0441 35.1422 94.7476 36.7097 94.7476 39.0103C94.7476 41.2809 93.0441 42.8766 91.0642 42.8766ZM74.0415 34.5853V37.2966H80.6727C80.4788 38.8116 79.9602 39.9253 79.1652 40.7016C78.1973 41.6391 76.6897 42.6797 74.0415 42.6797C69.9605 42.6797 66.7649 39.4641 66.7649 35.4797C66.7649 31.4953 69.9605 28.2797 74.0415 28.2797C76.248 28.2797 77.8535 29.1216 79.0384 30.2128L80.9954 28.3022C79.338 26.7572 77.1334 25.5703 74.0415 25.5703C68.4453 25.5703 63.7422 30.0159 63.7422 35.4797C63.7422 40.9434 68.4453 45.3891 74.0415 45.3891C77.0661 45.3891 79.338 44.4216 81.124 42.6066C82.9542 40.8197 83.5246 38.3072 83.5246 36.2784C83.5246 35.6484 83.4708 35.0691 83.3748 34.5853H74.0415ZM143.649 36.6872C143.11 35.2603 141.445 32.6297 138.053 32.6297C134.693 32.6297 131.895 35.2153 131.895 39.0103C131.895 42.5841 134.664 45.3891 138.376 45.3891C141.378 45.3891 143.11 43.6022 143.822 42.5616L141.595 41.1122C140.851 42.1734 139.839 42.8766 138.376 42.8766C136.922 42.8766 135.879 42.2259 135.211 40.9434L143.951 37.4128L143.649 36.6872ZM134.739 38.8116C134.664 36.3516 136.696 35.0916 138.151 35.0916C139.292 35.0916 140.26 35.6484 140.583 36.4453L134.739 38.8116ZM127.635 45.0009H130.508V26.2509H127.635V45.0009ZM122.93 34.0509H122.834C122.189 33.3047 120.958 32.6297 119.398 32.6297C116.126 32.6297 113.134 35.4347 113.134 39.0309C113.134 42.6066 116.126 45.3891 119.398 45.3891C120.958 45.3891 122.189 44.7084 122.834 43.9397H122.93V44.8547C122.93 47.2941 121.595 48.6047 119.442 48.6047C117.687 48.6047 116.598 47.3672 116.149 46.3266L113.65 47.3447C114.371 49.0359 116.278 51.1172 119.442 51.1172C122.811 51.1172 125.653 49.1822 125.653 44.4741V33.0178H122.93V34.0509ZM119.644 42.8766C117.664 42.8766 116.007 41.2584 116.007 39.0309C116.007 36.7828 117.664 35.1422 119.644 35.1422C121.595 35.1422 123.133 36.7828 123.133 39.0309C123.133 41.2584 121.595 42.8766 119.644 42.8766ZM157.1 26.2509H150.229V45.0009H153.094V37.8966H157.1C160.282 37.8966 163.403 35.6484 163.403 32.0728C163.403 28.4991 160.275 26.2509 157.1 26.2509ZM157.175 35.2884H153.094V28.8591H157.175C159.314 28.8591 160.536 30.5934 160.536 32.0728C160.536 33.5241 159.314 35.2884 157.175 35.2884ZM174.887 32.5941C172.817 32.5941 170.664 33.4866 169.779 35.4647L172.322 36.5053C172.869 35.4647 173.875 35.1272 174.939 35.1272C176.426 35.1272 177.933 35.9991 177.956 37.5384V37.7353C177.438 37.4428 176.328 37.0097 174.962 37.0097C172.224 37.0097 169.433 38.4816 169.433 41.2284C169.433 43.7409 171.676 45.3591 174.198 45.3591C176.126 45.3591 177.19 44.5097 177.858 43.5216H177.956V44.9709H180.723V37.7784C180.723 34.4541 178.181 32.5941 174.887 32.5941ZM174.542 42.8691C173.604 42.8691 172.298 42.4153 172.298 41.2809C172.298 39.8297 173.927 39.2728 175.337 39.2728C176.598 39.2728 177.19 39.5447 177.956 39.9028C177.731 41.6391 176.201 42.8691 174.542 42.8691ZM190.806 33.0047L187.512 41.1328H187.414L184.009 33.0047H180.919L186.035 44.3634L183.116 50.6841H186.11L193.994 33.0047H190.806ZM164.978 45.0009H167.851V26.2509H164.978V45.0009Z" fill="white"/>
  <path d="M16.7242 11.3044C16.2729 11.7656 16.0117 12.4837 16.0117 13.4137V46.5862C16.0117 47.5162 16.2729 48.2344 16.7242 48.6956L16.8356 48.7969L35.8748 30.2156V29.7769L16.8356 11.1956L16.7242 11.3044Z" fill="url(#paint0_linear_6406_11730)"/>
  <path d="M42.2144 36.418L35.875 30.2211V29.7823L42.222 23.5855L42.3641 23.6661L49.8807 27.8417C52.0258 29.0267 52.0258 30.9767 49.8807 32.1692L42.3641 36.3373L42.2144 36.418Z" fill="url(#paint1_linear_6406_11730)"/>
  <path d="M42.3663 36.3347L35.8771 29.9991L16.7266 48.6985C17.439 49.4297 18.6009 49.5179 19.9222 48.7866L42.3663 36.3347Z" fill="url(#paint2_linear_6406_11730)"/>
  <path d="M42.3663 23.6644L19.9222 11.2125C18.6009 10.4888 17.439 10.5769 16.7266 11.3081L35.8771 30L42.3663 23.6644Z" fill="url(#paint3_linear_6406_11730)"/>
  <defs>
    <linearGradient id="paint0_linear_6406_11730" x1="34.1843" y1="46.9317" x2="9.01792" y2="21.1555" gradientUnits="userSpaceOnUse">
      <stop stop-color="#00A0FF"/>
      <stop offset="0.0066" stop-color="#00A1FF"/>
      <stop offset="0.2601" stop-color="#00BEFF"/>
      <stop offset="0.5122" stop-color="#00D2FF"/>
      <stop offset="0.7604" stop-color="#00DFFF"/>
      <stop offset="1" stop-color="#00E3FF"/>
    </linearGradient>
    <linearGradient id="paint1_linear_6406_11730" x1="52.674" y1="29.9996" x2="15.4992" y2="29.9996" gradientUnits="userSpaceOnUse">
      <stop stop-color="#FFE000"/>
      <stop offset="0.4087" stop-color="#FFBD00"/>
      <stop offset="0.7754" stop-color="#FFA500"/>
      <stop offset="1" stop-color="#FF9C00"/>
    </linearGradient>
    <linearGradient id="paint2_linear_6406_11730" x1="38.8377" y1="26.555" x2="4.71" y2="-8.39966" gradientUnits="userSpaceOnUse">
      <stop stop-color="#FF3A44"/>
      <stop offset="1" stop-color="#C31162"/>
    </linearGradient>
    <linearGradient id="paint3_linear_6406_11730" x1="11.906" y1="59.7357" x2="27.1455" y2="44.127" gradientUnits="userSpaceOnUse">
      <stop stop-color="#32A071"/>
      <stop offset="0.0685" stop-color="#2DA771"/>
      <stop offset="0.4762" stop-color="#15CF74"/>
      <stop offset="0.8009" stop-color="#06E775"/>
      <stop offset="1" stop-color="#00F076"/>
    </linearGradient>
  </defs>
</svg>