<svg width="60" height="60" viewBox="0 0 60 60" fill="none" xmlns="http://www.w3.org/2000/svg">
<path d="M30.1172 0C13.6395 0 0 13.4051 0 29.8828C0 46.3605 13.6395 60 30.1172 60C46.5949 60 60 46.3605 60 29.8828C60 13.4051 46.5949 0 30.1172 0ZM44.9086 39.702C46.2797 41.073 46.2797 43.3031 44.9086 44.6754C43.548 46.0348 41.318 46.057 39.9352 44.6754L30.1172 34.8539L20.0637 44.6766C18.6926 46.0477 16.4625 46.0477 15.0902 44.6766C13.7191 43.3055 13.7191 41.0754 15.0902 39.7031L24.9105 29.8828L15.0902 20.0625C13.7191 18.6902 13.7191 16.4602 15.0902 15.0891C16.4625 13.718 18.6926 13.718 20.0637 15.0891L30.1172 24.9117L39.9352 15.0891C41.3039 13.7203 43.534 13.7156 44.9086 15.0891C46.2797 16.4602 46.2797 18.6902 44.9086 20.0625L35.0883 29.8828L44.9086 39.702Z" fill="#888888" fill-opacity="0.6"/>
</svg>
