<svg xmlns="http://www.w3.org/2000/svg" width="22" height="22" viewBox="0 0 22 22" fill="none">
  <path d="M7.66667 11H2.77778C2.1555 11 1.84436 11 1.60668 11.1211C1.39761 11.2276 1.22763 11.3976 1.1211 11.6067C1 11.8444 1 12.1555 1 12.7778V19.2222C1 19.8445 1 20.1556 1.1211 20.3933C1.22763 20.6024 1.39761 20.7724 1.60668 20.8789C1.84436 21 2.1555 21 2.77778 21H7.66667M7.66667 21H14.3333M7.66667 21L7.66667 7.22222C7.66667 6.59994 7.66667 6.2888 7.78777 6.05112C7.8943 5.84205 8.06428 5.67207 8.27334 5.56555C8.51102 5.44444 8.82216 5.44444 9.44444 5.44444H12.5556C13.1778 5.44444 13.489 5.44444 13.7267 5.56555C13.9357 5.67207 14.1057 5.84205 14.2122 6.05112C14.3333 6.2888 14.3333 6.59994 14.3333 7.22222V21M14.3333 21H19.2222C19.8445 21 20.1556 21 20.3933 20.8789C20.6024 20.7724 20.7724 20.6024 20.8789 20.3933C21 20.1556 21 19.8445 21 19.2222V2.77778C21 2.1555 21 1.84436 20.8789 1.60668C20.7724 1.39761 20.6024 1.22763 20.3933 1.1211C20.1556 1 19.8445 1 19.2222 1H16.1111C15.4888 1 15.1777 1 14.94 1.1211C14.7309 1.22763 14.561 1.39761 14.4544 1.60668C14.3333 1.84436 14.3333 2.1555 14.3333 2.77778V6.55556" stroke="black" stroke-width="2" stroke-linecap="round" stroke-linejoin="round"/>
</svg>