<svg xmlns="http://www.w3.org/2000/svg" width="22" height="22" viewBox="0 0 22 22" fill="none">
  <path d="M11 15.4444V11M11 6.55556H11.0111M6.33333 21H15.6667C17.5335 21 18.4669 21 19.18 20.6367C19.8072 20.3171 20.3171 19.8072 20.6367 19.18C21 18.4669 21 17.5335 21 15.6667V6.33333C21 4.46649 21 3.53307 20.6367 2.82003C20.3171 2.19282 19.8072 1.68289 19.18 1.36331C18.4669 1 17.5335 1 15.6667 1H6.33333C4.46649 1 3.53307 1 2.82003 1.36331C2.19282 1.68289 1.68289 2.19282 1.36331 2.82003C1 3.53307 1 4.46649 1 6.33333V15.6667C1 17.5335 1 18.4669 1.36331 19.18C1.68289 19.8072 2.19282 20.3171 2.82003 20.6367C3.53307 21 4.46649 21 6.33333 21Z" stroke="black" stroke-width="2" stroke-linecap="round" stroke-linejoin="round"/>
</svg>