<svg xmlns="http://www.w3.org/2000/svg" width="22" height="22" viewBox="0 0 22 22" fill="none">
  <path d="M16 13.6187V10.1522C16 9.94522 16 9.84172 15.9727 9.75034C15.9485 9.66954 15.9091 9.59594 15.8572 9.53487C15.7986 9.46582 15.7183 9.41953 15.5578 9.32696L11 6.69863M3 7.85197V15.7023C3 16.1312 3 16.3457 3.05802 16.5335C3.10931 16.6995 3.1929 16.8498 3.30238 16.9727C3.42622 17.1118 3.59527 17.2011 3.93335 17.3798L10.3334 20.763C10.5786 20.8926 10.7012 20.9574 10.8289 20.983C10.9421 21.0057 11.0579 21.0057 11.1711 20.983C11.2988 20.9574 11.4214 20.8926 11.6666 20.763L18.0666 17.3798C18.4047 17.2011 18.5738 17.1118 18.6976 16.9727C18.8071 16.8498 18.8907 16.6995 18.942 16.5335C19 16.3457 19 16.1312 19 15.7023V7.85197M1 6.69863L10.6422 1.13825C10.7734 1.0626 10.839 1.02478 10.9078 1.00989C10.9687 0.996704 11.0313 0.996704 11.0922 1.00989C11.161 1.02478 11.2266 1.0626 11.3578 1.13825L21 6.69863L11.3578 12.259C11.2266 12.3347 11.161 12.3725 11.0922 12.3874C11.0313 12.4006 10.9687 12.4006 10.9078 12.3874C10.839 12.3725 10.7734 12.3347 10.6422 12.259L1 6.69863Z" stroke="black" stroke-width="2" stroke-linecap="round" stroke-linejoin="round"/>
</svg>