<svg xmlns="http://www.w3.org/2000/svg" width="22" height="22" viewBox="0 0 22 22" fill="none">
  <path d="M3.27209 20.6977L9.86863 13.3682C10.2646 12.9282 10.4627 12.7082 10.691 12.6257C10.8918 12.5532 11.1082 12.5532 11.309 12.6257C11.5373 12.7082 11.7354 12.9282 12.1314 13.3682L18.6839 20.6488M13 14.3333L15.8686 11.146C16.2646 10.7059 16.4627 10.4859 16.691 10.4035C16.8918 10.331 17.1082 10.331 17.309 10.4035C17.5373 10.4859 17.7354 10.7059 18.1314 11.146L21 14.3333M9 7.66667C9 8.89397 8.10457 9.88889 7 9.88889C5.89543 9.88889 5 8.89397 5 7.66667C5 6.43937 5.89543 5.44444 7 5.44444C8.10457 5.44444 9 6.43937 9 7.66667ZM5.8 21H16.2C17.8802 21 18.7202 21 19.362 20.6367C19.9265 20.3171 20.3854 19.8072 20.673 19.18C21 18.4669 21 17.5335 21 15.6667V6.33333C21 4.46649 21 3.53307 20.673 2.82003C20.3854 2.19282 19.9265 1.68289 19.362 1.36331C18.7202 1 17.8802 1 16.2 1H5.8C4.11984 1 3.27976 1 2.63803 1.36331C2.07354 1.68289 1.6146 2.19282 1.32698 2.82003C1 3.53307 1 4.46649 1 6.33333V15.6667C1 17.5335 1 18.4669 1.32698 19.18C1.6146 19.8072 2.07354 20.3171 2.63803 20.6367C3.27976 21 4.11984 21 5.8 21Z" stroke="black" stroke-width="2" stroke-linecap="round" stroke-linejoin="round"/>
</svg>