<svg xmlns="http://www.w3.org/2000/svg" width="22" height="22" viewBox="0 0 22 22" fill="none">
  <path d="M15.3656 8V5C15.3656 2.79086 13.4111 1 11 1C8.58893 1 6.63437 2.79086 6.63437 5V8M1.82345 9.35196L1.1686 15.752C0.982412 17.5717 0.889316 18.4815 1.21886 19.1843C1.50835 19.8016 2.01566 20.3121 2.65948 20.6338C3.39237 21 4.38974 21 6.38449 21H15.6155C17.6103 21 18.6076 21 19.3405 20.6338C19.9843 20.3121 20.4916 19.8016 20.7811 19.1843C21.1107 18.4815 21.0176 17.5717 20.8314 15.752L20.1766 9.35197C20.0193 7.81535 19.9407 7.04704 19.5636 6.46616C19.2314 5.95458 18.7406 5.54511 18.1537 5.28984C17.4873 5 16.6451 5 14.9607 5L7.03933 5C5.3549 5 4.51269 5 3.84628 5.28984C3.25937 5.54511 2.76861 5.95458 2.43644 6.46616C2.05929 7.04704 1.98067 7.81534 1.82345 9.35196Z" stroke="black" stroke-width="2" stroke-linecap="round" stroke-linejoin="round"/>
</svg>