<svg xmlns="http://www.w3.org/2000/svg" width="22" height="22" viewBox="0 0 22 22" fill="none">
  <path d="M6.55556 1H6.33333C4.46649 1 3.53307 1 2.82003 1.36331C2.19282 1.68289 1.68289 2.19282 1.36331 2.82003C1 3.53307 1 4.46649 1 6.33333V6.55556M6.55556 21H6.33333C4.46649 21 3.53307 21 2.82003 20.6367C2.19282 20.3171 1.68289 19.8072 1.36331 19.18C1 18.4669 1 17.5335 1 15.6667V15.4444M21 6.55556V6.33333C21 4.46649 21 3.53307 20.6367 2.82003C20.3171 2.19282 19.8072 1.68289 19.18 1.36331C18.4669 1 17.5335 1 15.6667 1H15.4444M21 15.4444V15.6667C21 17.5335 21 18.4669 20.6367 19.18C20.3171 19.8072 19.8072 20.3171 19.18 20.6367C18.4669 21 17.5335 21 15.6667 21H15.4444M6 6.55556V8.22222M16 6.55556V8.22222M9.88889 11.6668C10.7778 11.6668 11.5556 10.889 11.5556 10.0001V6.55556M14.5558 14.5555C12.5558 16.5555 9.33355 16.5555 7.33355 14.5555" stroke="black" stroke-width="2" stroke-linecap="round" stroke-linejoin="round"/>
</svg>