<svg width="41" height="30" viewBox="0 0 41 30" fill="none" xmlns="http://www.w3.org/2000/svg">
<path d="M26.9738 1C32.4332 1 36.1016 6.215 36.1016 11.08C36.1016 20.9325 20.8771 29 20.6016 29C20.326 29 5.10156 20.9325 5.10156 11.08C5.10156 6.215 8.7699 1 14.2293 1C17.3638 1 19.4132 2.5925 20.6016 3.9925C21.7899 2.5925 23.8393 1 26.9738 1Z" fill="white" stroke="#F67F00" stroke-width="1.71429" stroke-linecap="round" stroke-linejoin="round"/>
<mask id="path-2-outside-1_4042_34124" maskUnits="userSpaceOnUse" x="1" y="5" width="40" height="19" fill="black">
<rect fill="white" x="1" y="5" width="40" height="19"/>
<path d="M4.38824 12.69C4.38824 12.7767 4.18158 12.8467 3.76824 12.9C3.36158 12.9533 2.95491 12.98 2.54824 12.98C2.14158 12.98 1.88158 12.9567 1.76824 12.91C1.65491 12.8633 1.59824 12.79 1.59824 12.69V6.56C1.59824 6.38667 1.78491 6.23333 2.15824 6.1C2.53824 5.96667 2.97491 5.9 3.46824 5.9C3.87491 5.9 4.13824 5.98 4.25824 6.14C4.34491 6.25333 4.38824 6.35667 4.38824 6.45V8.1H4.46824C4.46824 8.06667 4.56824 7.79 4.76824 7.27C5.14824 6.29 5.42491 5.8 5.59824 5.8C5.92491 5.8 6.38491 5.89667 6.97824 6.09C7.26491 6.18333 7.51158 6.32 7.71824 6.5C7.92491 6.67333 8.02824 6.86667 8.02824 7.08C8.02824 7.21333 7.89158 7.47333 7.61824 7.86C7.35158 8.24 6.94491 8.75 6.39824 9.39C6.52491 9.52333 6.68491 9.69333 6.87824 9.9C7.07158 10.1067 7.32824 10.4167 7.64824 10.83C7.97491 11.2367 8.13824 11.5267 8.13824 11.7C8.13824 11.8733 7.98158 12.0767 7.66824 12.31C7.35491 12.5367 7.02158 12.7233 6.66824 12.87C6.31491 13.01 6.05158 13.08 5.87824 13.08C5.76491 13.08 5.60824 12.91 5.40824 12.57C5.21491 12.2233 4.97824 11.7067 4.69824 11.02L4.38824 11.39V12.69ZM11.4781 12.76C11.4781 12.8333 11.2748 12.8933 10.8681 12.94C10.4614 12.98 10.0514 13 9.63809 13C9.23142 13 8.97142 12.9833 8.85809 12.95C8.74475 12.91 8.68809 12.8467 8.68809 12.76V6.54C8.68809 6.39333 8.88142 6.25 9.26809 6.11C9.65475 5.96333 10.0881 5.89 10.5681 5.89C10.9948 5.89 11.2748 5.98 11.4081 6.16C11.4548 6.22667 11.4781 6.29333 11.4781 6.36V12.76ZM15.0718 12.71C15.0718 12.7967 14.8652 12.8667 14.4518 12.92C14.0452 12.9733 13.6385 13 13.2318 13C12.8252 13 12.5652 12.9767 12.4518 12.93C12.3385 12.8833 12.2818 12.81 12.2818 12.71V6.57C12.2818 6.40333 12.4718 6.25 12.8518 6.11C13.2385 5.97 13.6752 5.9 14.1618 5.9C14.3352 5.9 14.4652 5.90667 14.5518 5.92C14.7785 5.95333 14.9385 6.09667 15.0318 6.35L15.9918 8.93H16.0318V6.57C16.0318 6.40333 16.2218 6.25 16.6018 6.11C16.9818 5.97 17.4152 5.9 17.9018 5.9C18.3218 5.9 18.5885 5.98 18.7018 6.14C18.7818 6.25333 18.8218 6.35667 18.8218 6.45V12.71C18.8218 12.7967 18.6152 12.8667 18.2018 12.92C17.7952 12.9733 17.3452 13 16.8518 13C16.3652 13 16.0985 12.9367 16.0518 12.81L15.1218 10.35H15.0718V12.71ZM22.8156 13H20.4556C20.1289 13 19.9089 12.9767 19.7956 12.93C19.6823 12.8833 19.6256 12.8067 19.6256 12.7V6.39C19.6256 6.21667 19.6989 6.09333 19.8456 6.02C19.9923 5.94 20.2456 5.9 20.6056 5.9H22.8556C24.1356 5.9 25.0189 6.15333 25.5056 6.66C25.9923 7.16 26.2356 8.07333 26.2356 9.4C26.2356 10.7267 25.9823 11.66 25.4756 12.2C24.9689 12.7333 24.0823 13 22.8156 13ZM22.7356 7.39C22.5756 7.39 22.4689 7.40333 22.4156 7.43V11.47L22.7956 11.51C22.9956 11.51 23.1456 11.35 23.2456 11.03C23.3523 10.71 23.4056 10.1567 23.4056 9.37C23.4056 8.58333 23.3523 8.05667 23.2456 7.79C23.1389 7.52333 22.9689 7.39 22.7356 7.39ZM32.01 13H27.77C27.4434 13 27.2234 12.9767 27.11 12.93C26.9967 12.8833 26.94 12.81 26.94 12.71V6.38C26.94 6.20667 27.0167 6.08333 27.17 6.01C27.33 5.93667 27.6134 5.9 28.02 5.9H32.04C32.18 5.9 32.25 6.13333 32.25 6.6C32.25 7.06 32.22 7.41333 32.16 7.66C32.1 7.9 32.02 8.02 31.92 8.02C31.4867 8.02 30.7567 7.97667 29.73 7.89V8.56C30.7167 8.52 31.36 8.5 31.66 8.5C31.84 8.5 31.93 8.71 31.93 9.13C31.93 9.55 31.8934 9.87 31.82 10.09C31.7534 10.3033 31.66 10.41 31.54 10.41L29.73 10.37V11.01C30.89 10.9233 31.69 10.88 32.13 10.88C32.27 10.88 32.34 11.1133 32.34 11.58C32.34 12.0467 32.31 12.4 32.25 12.64C32.19 12.88 32.11 13 32.01 13ZM35.8436 12.71C35.8436 12.7967 35.6402 12.8667 35.2336 12.92C34.8269 12.9733 34.4169 13 34.0036 13C33.5969 13 33.3336 12.9767 33.2136 12.93C33.1002 12.8833 33.0436 12.81 33.0436 12.71V6.28C33.0436 6.10667 33.2602 5.98333 33.6936 5.91C34.1336 5.83667 34.6869 5.8 35.3536 5.8C36.0202 5.8 36.4502 5.80333 36.6436 5.81C36.8436 5.81 37.0769 5.82 37.3436 5.84C37.6102 5.86 37.8202 5.89333 37.9736 5.94C38.1336 5.98667 38.3069 6.04667 38.4936 6.12C38.6869 6.19333 38.8369 6.29 38.9436 6.41C39.0502 6.52333 39.1536 6.66 39.2536 6.82C39.4336 7.10667 39.5236 7.51667 39.5236 8.05C39.5236 8.57667 39.4336 9.02333 39.2536 9.39C39.0802 9.75 38.8469 10.0233 38.5536 10.21C39.3202 11.4167 39.7036 12.1833 39.7036 12.51C39.7036 12.8367 39.0469 13 37.7336 13C37.3536 13 37.0902 12.9833 36.9436 12.95C36.7969 12.9167 36.7036 12.8433 36.6636 12.73L36.0136 10.67L35.8436 10.66V12.71ZM35.8436 9.12H36.1036C36.4902 9.12 36.6836 8.82 36.6836 8.22C36.6836 7.91333 36.6302 7.69667 36.5236 7.57C36.4236 7.44333 36.3069 7.38 36.1736 7.38H35.8436V9.12ZM9.51523 22.76C9.51523 22.8333 9.30857 22.8933 8.89523 22.94C8.48857 22.98 8.07857 23 7.66523 23C7.25857 23 6.99857 22.9833 6.88523 22.95C6.77857 22.91 6.72523 22.8467 6.72523 22.76V18.46H5.33523C5.2619 18.46 5.19857 18.3667 5.14523 18.18C5.0919 17.9933 5.06523 17.7167 5.06523 17.35C5.06523 16.9767 5.10523 16.6433 5.18523 16.35C5.26523 16.05 5.3719 15.9 5.50523 15.9H10.9152C11.0152 15.9 11.0819 15.9933 11.1152 16.18C11.1552 16.3667 11.1752 16.6367 11.1752 16.99C11.1752 17.3433 11.1386 17.6767 11.0652 17.99C10.9919 18.3033 10.8919 18.46 10.7652 18.46H9.51523V22.76ZM15.1589 23.09C14.6056 23.09 14.1289 23.04 13.7289 22.94C13.3356 22.8333 12.9722 22.6467 12.6389 22.38C11.9656 21.8533 11.6289 20.8433 11.6289 19.35C11.6289 18.7233 11.7189 18.1767 11.8989 17.71C12.0856 17.2433 12.3422 16.8733 12.6689 16.6C13.3089 16.0667 14.1389 15.8 15.1589 15.8C15.6856 15.8 16.1422 15.8467 16.5289 15.94C16.9222 16.0333 17.2922 16.2033 17.6389 16.45C18.3389 16.9567 18.6889 17.9233 18.6889 19.35C18.6889 20.63 18.3722 21.5733 17.7389 22.18C17.1056 22.7867 16.2456 23.09 15.1589 23.09ZM14.8289 21.38C14.9089 21.4733 15.0189 21.52 15.1589 21.52C15.2989 21.52 15.4089 21.4733 15.4889 21.38C15.5689 21.28 15.6356 21.0733 15.6889 20.76C15.7422 20.44 15.7689 19.9967 15.7689 19.43C15.7689 18.8633 15.7422 18.4267 15.6889 18.12C15.6356 17.8133 15.5689 17.6133 15.4889 17.52C15.4089 17.4267 15.2989 17.38 15.1589 17.38C15.0189 17.38 14.9089 17.4267 14.8289 17.52C14.7489 17.6133 14.6822 17.8133 14.6289 18.12C14.5756 18.4267 14.5489 18.8633 14.5489 19.43C14.5489 19.9967 14.5756 20.44 14.6289 20.76C14.6822 21.0733 14.7489 21.28 14.8289 21.38ZM21.7848 23C21.4648 23 21.2548 22.9767 21.1548 22.93C21.0548 22.8833 20.9848 22.8033 20.9448 22.69L18.7348 16.59C18.7348 16.4633 18.9714 16.3167 19.4448 16.15C19.9248 15.9833 20.4081 15.9 20.8948 15.9C21.5214 15.9 21.8548 16.0967 21.8948 16.49L22.2348 19.66H22.3748L22.6548 16.49C22.6881 16.0967 23.1381 15.9 24.0048 15.9C24.3381 15.9 24.5614 15.9467 24.6748 16.04C24.7881 16.1267 24.8514 16.2433 24.8648 16.39L25.1948 19.66H25.3348L25.5948 16.49C25.6148 16.2967 25.8414 16.15 26.2748 16.05C26.7148 15.95 27.1481 15.9 27.5748 15.9C28.0081 15.9 28.3014 15.9633 28.4548 16.09C28.6148 16.2167 28.6948 16.35 28.6948 16.49L26.5548 22.69C26.4814 22.8967 25.9881 23 25.0748 23C24.8014 23 24.6181 22.9767 24.5248 22.93C24.4314 22.8833 24.3681 22.8033 24.3348 22.69L23.8148 20.95H23.6948L23.1648 22.69C23.1048 22.8967 22.6448 23 21.7848 23ZM31.981 22.71C31.981 22.7967 31.7743 22.8667 31.361 22.92C30.9543 22.9733 30.5477 23 30.141 23C29.7343 23 29.4743 22.9767 29.361 22.93C29.2477 22.8833 29.191 22.81 29.191 22.71V16.57C29.191 16.4033 29.381 16.25 29.761 16.11C30.1477 15.97 30.5843 15.9 31.071 15.9C31.2443 15.9 31.3743 15.9067 31.461 15.92C31.6877 15.9533 31.8477 16.0967 31.941 16.35L32.901 18.93H32.941V16.57C32.941 16.4033 33.131 16.25 33.511 16.11C33.891 15.97 34.3243 15.9 34.811 15.9C35.231 15.9 35.4977 15.98 35.611 16.14C35.691 16.2533 35.731 16.3567 35.731 16.45V22.71C35.731 22.7967 35.5243 22.8667 35.111 22.92C34.7043 22.9733 34.2543 23 33.761 23C33.2743 23 33.0077 22.9367 32.961 22.81L32.031 20.35H31.981V22.71Z"/>
</mask>
<path d="M4.38824 12.69C4.38824 12.7767 4.18158 12.8467 3.76824 12.9C3.36158 12.9533 2.95491 12.98 2.54824 12.98C2.14158 12.98 1.88158 12.9567 1.76824 12.91C1.65491 12.8633 1.59824 12.79 1.59824 12.69V6.56C1.59824 6.38667 1.78491 6.23333 2.15824 6.1C2.53824 5.96667 2.97491 5.9 3.46824 5.9C3.87491 5.9 4.13824 5.98 4.25824 6.14C4.34491 6.25333 4.38824 6.35667 4.38824 6.45V8.1H4.46824C4.46824 8.06667 4.56824 7.79 4.76824 7.27C5.14824 6.29 5.42491 5.8 5.59824 5.8C5.92491 5.8 6.38491 5.89667 6.97824 6.09C7.26491 6.18333 7.51158 6.32 7.71824 6.5C7.92491 6.67333 8.02824 6.86667 8.02824 7.08C8.02824 7.21333 7.89158 7.47333 7.61824 7.86C7.35158 8.24 6.94491 8.75 6.39824 9.39C6.52491 9.52333 6.68491 9.69333 6.87824 9.9C7.07158 10.1067 7.32824 10.4167 7.64824 10.83C7.97491 11.2367 8.13824 11.5267 8.13824 11.7C8.13824 11.8733 7.98158 12.0767 7.66824 12.31C7.35491 12.5367 7.02158 12.7233 6.66824 12.87C6.31491 13.01 6.05158 13.08 5.87824 13.08C5.76491 13.08 5.60824 12.91 5.40824 12.57C5.21491 12.2233 4.97824 11.7067 4.69824 11.02L4.38824 11.39V12.69ZM11.4781 12.76C11.4781 12.8333 11.2748 12.8933 10.8681 12.94C10.4614 12.98 10.0514 13 9.63809 13C9.23142 13 8.97142 12.9833 8.85809 12.95C8.74475 12.91 8.68809 12.8467 8.68809 12.76V6.54C8.68809 6.39333 8.88142 6.25 9.26809 6.11C9.65475 5.96333 10.0881 5.89 10.5681 5.89C10.9948 5.89 11.2748 5.98 11.4081 6.16C11.4548 6.22667 11.4781 6.29333 11.4781 6.36V12.76ZM15.0718 12.71C15.0718 12.7967 14.8652 12.8667 14.4518 12.92C14.0452 12.9733 13.6385 13 13.2318 13C12.8252 13 12.5652 12.9767 12.4518 12.93C12.3385 12.8833 12.2818 12.81 12.2818 12.71V6.57C12.2818 6.40333 12.4718 6.25 12.8518 6.11C13.2385 5.97 13.6752 5.9 14.1618 5.9C14.3352 5.9 14.4652 5.90667 14.5518 5.92C14.7785 5.95333 14.9385 6.09667 15.0318 6.35L15.9918 8.93H16.0318V6.57C16.0318 6.40333 16.2218 6.25 16.6018 6.11C16.9818 5.97 17.4152 5.9 17.9018 5.9C18.3218 5.9 18.5885 5.98 18.7018 6.14C18.7818 6.25333 18.8218 6.35667 18.8218 6.45V12.71C18.8218 12.7967 18.6152 12.8667 18.2018 12.92C17.7952 12.9733 17.3452 13 16.8518 13C16.3652 13 16.0985 12.9367 16.0518 12.81L15.1218 10.35H15.0718V12.71ZM22.8156 13H20.4556C20.1289 13 19.9089 12.9767 19.7956 12.93C19.6823 12.8833 19.6256 12.8067 19.6256 12.7V6.39C19.6256 6.21667 19.6989 6.09333 19.8456 6.02C19.9923 5.94 20.2456 5.9 20.6056 5.9H22.8556C24.1356 5.9 25.0189 6.15333 25.5056 6.66C25.9923 7.16 26.2356 8.07333 26.2356 9.4C26.2356 10.7267 25.9823 11.66 25.4756 12.2C24.9689 12.7333 24.0823 13 22.8156 13ZM22.7356 7.39C22.5756 7.39 22.4689 7.40333 22.4156 7.43V11.47L22.7956 11.51C22.9956 11.51 23.1456 11.35 23.2456 11.03C23.3523 10.71 23.4056 10.1567 23.4056 9.37C23.4056 8.58333 23.3523 8.05667 23.2456 7.79C23.1389 7.52333 22.9689 7.39 22.7356 7.39ZM32.01 13H27.77C27.4434 13 27.2234 12.9767 27.11 12.93C26.9967 12.8833 26.94 12.81 26.94 12.71V6.38C26.94 6.20667 27.0167 6.08333 27.17 6.01C27.33 5.93667 27.6134 5.9 28.02 5.9H32.04C32.18 5.9 32.25 6.13333 32.25 6.6C32.25 7.06 32.22 7.41333 32.16 7.66C32.1 7.9 32.02 8.02 31.92 8.02C31.4867 8.02 30.7567 7.97667 29.73 7.89V8.56C30.7167 8.52 31.36 8.5 31.66 8.5C31.84 8.5 31.93 8.71 31.93 9.13C31.93 9.55 31.8934 9.87 31.82 10.09C31.7534 10.3033 31.66 10.41 31.54 10.41L29.73 10.37V11.01C30.89 10.9233 31.69 10.88 32.13 10.88C32.27 10.88 32.34 11.1133 32.34 11.58C32.34 12.0467 32.31 12.4 32.25 12.64C32.19 12.88 32.11 13 32.01 13ZM35.8436 12.71C35.8436 12.7967 35.6402 12.8667 35.2336 12.92C34.8269 12.9733 34.4169 13 34.0036 13C33.5969 13 33.3336 12.9767 33.2136 12.93C33.1002 12.8833 33.0436 12.81 33.0436 12.71V6.28C33.0436 6.10667 33.2602 5.98333 33.6936 5.91C34.1336 5.83667 34.6869 5.8 35.3536 5.8C36.0202 5.8 36.4502 5.80333 36.6436 5.81C36.8436 5.81 37.0769 5.82 37.3436 5.84C37.6102 5.86 37.8202 5.89333 37.9736 5.94C38.1336 5.98667 38.3069 6.04667 38.4936 6.12C38.6869 6.19333 38.8369 6.29 38.9436 6.41C39.0502 6.52333 39.1536 6.66 39.2536 6.82C39.4336 7.10667 39.5236 7.51667 39.5236 8.05C39.5236 8.57667 39.4336 9.02333 39.2536 9.39C39.0802 9.75 38.8469 10.0233 38.5536 10.21C39.3202 11.4167 39.7036 12.1833 39.7036 12.51C39.7036 12.8367 39.0469 13 37.7336 13C37.3536 13 37.0902 12.9833 36.9436 12.95C36.7969 12.9167 36.7036 12.8433 36.6636 12.73L36.0136 10.67L35.8436 10.66V12.71ZM35.8436 9.12H36.1036C36.4902 9.12 36.6836 8.82 36.6836 8.22C36.6836 7.91333 36.6302 7.69667 36.5236 7.57C36.4236 7.44333 36.3069 7.38 36.1736 7.38H35.8436V9.12ZM9.51523 22.76C9.51523 22.8333 9.30857 22.8933 8.89523 22.94C8.48857 22.98 8.07857 23 7.66523 23C7.25857 23 6.99857 22.9833 6.88523 22.95C6.77857 22.91 6.72523 22.8467 6.72523 22.76V18.46H5.33523C5.2619 18.46 5.19857 18.3667 5.14523 18.18C5.0919 17.9933 5.06523 17.7167 5.06523 17.35C5.06523 16.9767 5.10523 16.6433 5.18523 16.35C5.26523 16.05 5.3719 15.9 5.50523 15.9H10.9152C11.0152 15.9 11.0819 15.9933 11.1152 16.18C11.1552 16.3667 11.1752 16.6367 11.1752 16.99C11.1752 17.3433 11.1386 17.6767 11.0652 17.99C10.9919 18.3033 10.8919 18.46 10.7652 18.46H9.51523V22.76ZM15.1589 23.09C14.6056 23.09 14.1289 23.04 13.7289 22.94C13.3356 22.8333 12.9722 22.6467 12.6389 22.38C11.9656 21.8533 11.6289 20.8433 11.6289 19.35C11.6289 18.7233 11.7189 18.1767 11.8989 17.71C12.0856 17.2433 12.3422 16.8733 12.6689 16.6C13.3089 16.0667 14.1389 15.8 15.1589 15.8C15.6856 15.8 16.1422 15.8467 16.5289 15.94C16.9222 16.0333 17.2922 16.2033 17.6389 16.45C18.3389 16.9567 18.6889 17.9233 18.6889 19.35C18.6889 20.63 18.3722 21.5733 17.7389 22.18C17.1056 22.7867 16.2456 23.09 15.1589 23.09ZM14.8289 21.38C14.9089 21.4733 15.0189 21.52 15.1589 21.52C15.2989 21.52 15.4089 21.4733 15.4889 21.38C15.5689 21.28 15.6356 21.0733 15.6889 20.76C15.7422 20.44 15.7689 19.9967 15.7689 19.43C15.7689 18.8633 15.7422 18.4267 15.6889 18.12C15.6356 17.8133 15.5689 17.6133 15.4889 17.52C15.4089 17.4267 15.2989 17.38 15.1589 17.38C15.0189 17.38 14.9089 17.4267 14.8289 17.52C14.7489 17.6133 14.6822 17.8133 14.6289 18.12C14.5756 18.4267 14.5489 18.8633 14.5489 19.43C14.5489 19.9967 14.5756 20.44 14.6289 20.76C14.6822 21.0733 14.7489 21.28 14.8289 21.38ZM21.7848 23C21.4648 23 21.2548 22.9767 21.1548 22.93C21.0548 22.8833 20.9848 22.8033 20.9448 22.69L18.7348 16.59C18.7348 16.4633 18.9714 16.3167 19.4448 16.15C19.9248 15.9833 20.4081 15.9 20.8948 15.9C21.5214 15.9 21.8548 16.0967 21.8948 16.49L22.2348 19.66H22.3748L22.6548 16.49C22.6881 16.0967 23.1381 15.9 24.0048 15.9C24.3381 15.9 24.5614 15.9467 24.6748 16.04C24.7881 16.1267 24.8514 16.2433 24.8648 16.39L25.1948 19.66H25.3348L25.5948 16.49C25.6148 16.2967 25.8414 16.15 26.2748 16.05C26.7148 15.95 27.1481 15.9 27.5748 15.9C28.0081 15.9 28.3014 15.9633 28.4548 16.09C28.6148 16.2167 28.6948 16.35 28.6948 16.49L26.5548 22.69C26.4814 22.8967 25.9881 23 25.0748 23C24.8014 23 24.6181 22.9767 24.5248 22.93C24.4314 22.8833 24.3681 22.8033 24.3348 22.69L23.8148 20.95H23.6948L23.1648 22.69C23.1048 22.8967 22.6448 23 21.7848 23ZM31.981 22.71C31.981 22.7967 31.7743 22.8667 31.361 22.92C30.9543 22.9733 30.5477 23 30.141 23C29.7343 23 29.4743 22.9767 29.361 22.93C29.2477 22.8833 29.191 22.81 29.191 22.71V16.57C29.191 16.4033 29.381 16.25 29.761 16.11C30.1477 15.97 30.5843 15.9 31.071 15.9C31.2443 15.9 31.3743 15.9067 31.461 15.92C31.6877 15.9533 31.8477 16.0967 31.941 16.35L32.901 18.93H32.941V16.57C32.941 16.4033 33.131 16.25 33.511 16.11C33.891 15.97 34.3243 15.9 34.811 15.9C35.231 15.9 35.4977 15.98 35.611 16.14C35.691 16.2533 35.731 16.3567 35.731 16.45V22.71C35.731 22.7967 35.5243 22.8667 35.111 22.92C34.7043 22.9733 34.2543 23 33.761 23C33.2743 23 33.0077 22.9367 32.961 22.81L32.031 20.35H31.981V22.71Z" fill="#FFE0BF"/>
<path d="M3.76824 12.9L3.69512 12.3333L3.69394 12.3334L3.76824 12.9ZM1.76824 12.91L1.98581 12.3816H1.98581L1.76824 12.91ZM2.15824 6.1L1.96905 5.56079L1.96605 5.56186L2.15824 6.1ZM4.25824 6.14L3.80108 6.48287L3.80432 6.48711L4.25824 6.14ZM4.38824 8.1H3.81681V8.67143H4.38824V8.1ZM4.46824 8.1V8.67143H5.03967V8.1H4.46824ZM4.76824 7.27L4.23546 7.06341L4.2349 7.06487L4.76824 7.27ZM6.97824 6.09L6.80121 6.63331L6.80134 6.63335L6.97824 6.09ZM7.71824 6.5L7.34287 6.93098L7.35104 6.93782L7.71824 6.5ZM7.61824 7.86L7.15162 7.53015L7.1505 7.53176L7.61824 7.86ZM6.39824 9.39L5.96374 9.01886L5.62937 9.41032L5.98396 9.78357L6.39824 9.39ZM6.87824 9.9L6.46094 10.2904H6.46094L6.87824 9.9ZM7.64824 10.83L7.19633 11.1799L7.20274 11.1879L7.64824 10.83ZM7.66824 12.31L8.0032 12.773L8.00954 12.7683L7.66824 12.31ZM6.66824 12.87L6.87876 13.4013L6.88732 13.3978L6.66824 12.87ZM5.40824 12.57L4.90905 12.8484L4.91571 12.8597L5.40824 12.57ZM4.69824 11.02L5.22737 10.8042L4.86929 9.92608L4.26023 10.653L4.69824 11.02ZM4.38824 11.39L3.95023 11.023L3.81681 11.1823V11.39H4.38824ZM3.81681 12.69C3.81681 12.4575 3.96084 12.3294 4.00429 12.2965C4.04962 12.2621 4.0774 12.257 4.04992 12.2663C4.00141 12.2827 3.89159 12.3079 3.69512 12.3333L3.84137 13.4667C4.05822 13.4387 4.25841 13.4023 4.41656 13.3487C4.49242 13.323 4.59769 13.2808 4.69469 13.2072C4.78981 13.1351 4.95967 12.9658 4.95967 12.69H3.81681ZM3.69394 12.3334C3.3117 12.3836 2.92985 12.4086 2.54824 12.4086V13.5514C2.97997 13.5514 3.41146 13.5231 3.84255 13.4666L3.69394 12.3334ZM2.54824 12.4086C2.3537 12.4086 2.20573 12.4029 2.09932 12.3934C2.04631 12.3886 2.00955 12.3834 1.98605 12.379C1.95934 12.374 1.96394 12.3726 1.98581 12.3816L1.55067 13.4384C1.69241 13.4967 1.85947 13.5193 1.99717 13.5316C2.15076 13.5454 2.33612 13.5514 2.54824 13.5514V12.4086ZM1.98581 12.3816C1.99274 12.3845 2.04342 12.4066 2.09291 12.4706C2.14816 12.5421 2.16967 12.6242 2.16967 12.69H1.02681C1.02681 12.8558 1.07666 13.0246 1.18858 13.1694C1.29473 13.3068 1.43041 13.3889 1.55067 13.4384L1.98581 12.3816ZM2.16967 12.69V6.56H1.02681V12.69H2.16967ZM2.16967 6.56C2.16967 6.6245 2.15105 6.67934 2.12938 6.71726C2.10997 6.75122 2.09345 6.76272 2.10095 6.75656C2.10819 6.75061 2.12977 6.73486 2.17363 6.71241C2.21675 6.69033 2.27474 6.66517 2.35043 6.63814L1.96605 5.56186C1.75188 5.63835 1.54188 5.7368 1.37553 5.87344C1.20468 6.01379 1.02681 6.24238 1.02681 6.56H2.16967ZM2.34743 6.6392C2.65471 6.53138 3.02535 6.47143 3.46824 6.47143V5.32857C2.92446 5.32857 2.42177 5.40195 1.96905 5.5608L2.34743 6.6392ZM3.46824 6.47143C3.63947 6.47143 3.74589 6.48891 3.80464 6.50675C3.86289 6.52445 3.83688 6.53057 3.8011 6.48286L4.71538 5.79714C4.5596 5.58943 4.34193 5.47555 4.13685 5.41325C3.93226 5.35109 3.70368 5.32857 3.46824 5.32857V6.47143ZM3.80432 6.48711C3.81461 6.50057 3.82119 6.51057 3.82512 6.51712C3.82906 6.52369 3.82974 6.52578 3.82877 6.52349C3.82686 6.51891 3.81681 6.49282 3.81681 6.45H4.95967C4.95967 6.18034 4.83695 5.95607 4.71216 5.79289L3.80432 6.48711ZM3.81681 6.45V8.1H4.95967V6.45H3.81681ZM4.38824 8.67143H4.46824V7.52857H4.38824V8.67143ZM5.03967 8.1C5.03967 8.15489 5.03115 8.19585 5.03017 8.20085C5.02766 8.21361 5.02547 8.22182 5.02523 8.22272C5.02465 8.22488 5.02591 8.22005 5.03083 8.2048C5.04029 8.17547 5.05642 8.12877 5.08064 8.06174C5.12864 7.92895 5.20198 7.73409 5.30158 7.47513L4.2349 7.06487C4.1345 7.32591 4.05785 7.52938 4.00584 7.67326C3.98007 7.74456 3.95869 7.80578 3.94316 7.85394C3.93558 7.87745 3.92746 7.90377 3.92063 7.92947C3.92047 7.93007 3.89681 8.0093 3.89681 8.1H5.03967ZM5.30102 7.47659C5.48804 6.99428 5.64046 6.65721 5.75833 6.44845C5.8186 6.34171 5.85636 6.29297 5.86974 6.27839C5.90699 6.23783 5.81107 6.37143 5.59824 6.37143V5.22857C5.29875 5.22857 5.10324 5.42342 5.02799 5.50536C4.92888 5.61328 4.84121 5.74829 4.76315 5.88655C4.60436 6.16779 4.42845 6.56572 4.23546 7.06341L5.30102 7.47659ZM5.59824 6.37143C5.83249 6.37143 6.22296 6.4449 6.80121 6.63331L7.15528 5.54669C6.54686 5.34844 6.01732 5.22857 5.59824 5.22857V6.37143ZM6.80134 6.63335C7.02233 6.70531 7.19973 6.80617 7.34294 6.9309L8.09355 6.0691C7.82342 5.83383 7.50749 5.66136 7.15515 5.54664L6.80134 6.63335ZM7.35104 6.93782C7.41093 6.98806 7.43645 7.02503 7.44678 7.04436C7.45542 7.06053 7.45681 7.06996 7.45681 7.08H8.59967C8.59967 6.65466 8.3845 6.31299 8.08545 6.06218L7.35104 6.93782ZM7.45681 7.08C7.45681 7.02405 7.46938 6.9974 7.46284 7.0162C7.45804 7.03002 7.44577 7.05998 7.41993 7.10913C7.36808 7.20777 7.28143 7.34652 7.15163 7.53015L8.08486 8.18985C8.22839 7.98681 8.34673 7.80223 8.43155 7.64087C8.50297 7.50501 8.59967 7.29816 8.59967 7.08H7.45681ZM7.1505 7.53176C6.89938 7.8896 6.50644 8.38351 5.96374 9.01886L6.83274 9.76113C7.38337 9.11649 7.80378 8.5904 8.08599 8.18824L7.1505 7.53176ZM5.98396 9.78357C6.10923 9.91544 6.26814 10.0843 6.46094 10.2904L7.29554 9.50962C7.10168 9.30239 6.94059 9.13123 6.81253 8.99643L5.98396 9.78357ZM6.46094 10.2904C6.63598 10.4775 6.87983 10.7709 7.1964 11.1798L8.10008 10.4802C7.77665 10.0624 7.50717 9.73585 7.29554 9.50962L6.46094 10.2904ZM7.20274 11.1879C7.35617 11.3789 7.45756 11.5259 7.51785 11.6329C7.54772 11.6859 7.5624 11.7202 7.56869 11.7381C7.57584 11.7584 7.56681 11.7422 7.56681 11.7H8.70967C8.70967 11.4604 8.60667 11.2373 8.51363 11.0721C8.41059 10.8891 8.26698 10.6878 8.09374 10.4721L7.20274 11.1879ZM7.56681 11.7C7.56681 11.6126 7.6049 11.586 7.56809 11.6337C7.5337 11.6784 7.46109 11.7518 7.32695 11.8517L8.00954 12.7683C8.18873 12.6349 8.35112 12.49 8.47339 12.3313C8.59325 12.1757 8.70967 11.9607 8.70967 11.7H7.56681ZM7.33332 11.847C7.05556 12.0479 6.76105 12.2128 6.44917 12.3422L6.88732 13.3978C7.2821 13.2339 7.65426 13.0254 8.00317 12.773L7.33332 11.847ZM6.45775 12.3388C6.11056 12.4763 5.93462 12.5086 5.87824 12.5086V13.6514C6.16853 13.6514 6.51926 13.5437 6.87874 13.4012L6.45775 12.3388ZM5.87824 12.5086C5.99308 12.5086 6.06768 12.5508 6.08958 12.5646C6.11289 12.5792 6.11481 12.5857 6.09595 12.5653C6.0577 12.5238 5.99244 12.4361 5.90078 12.2803L4.91571 12.8597C5.02405 13.0439 5.13712 13.2112 5.25554 13.3397C5.31501 13.4043 5.38985 13.4745 5.48065 13.5317C5.57006 13.588 5.70674 13.6514 5.87824 13.6514V12.5086ZM5.90731 12.2917C5.73106 11.9757 5.50474 11.4844 5.22737 10.8042L4.16911 11.2358C4.45175 11.9289 4.69875 12.471 4.90918 12.8483L5.90731 12.2917ZM4.26023 10.653L3.95023 11.023L4.82625 11.757L5.13625 11.387L4.26023 10.653ZM3.81681 11.39V12.69H4.95967V11.39H3.81681ZM10.8681 12.94L10.924 13.5088L10.9332 13.5077L10.8681 12.94ZM8.85809 12.95L8.6679 13.4889L8.68225 13.4939L8.69685 13.4982L8.85809 12.95ZM9.26809 6.11L9.46265 6.64736L9.47075 6.64428L9.26809 6.11ZM11.4081 6.16L11.8762 5.83231L11.8718 5.82603L11.8673 5.81987L11.4081 6.16ZM10.9067 12.76C10.9067 12.628 10.9548 12.5219 11.0062 12.4511C11.0533 12.3862 11.1031 12.3501 11.1266 12.3346C11.1703 12.306 11.1946 12.3029 11.1639 12.3119C11.1107 12.3276 10.9978 12.3499 10.8029 12.3723L10.9332 13.5077C11.1451 13.4834 11.3371 13.4524 11.4873 13.4081C11.5583 13.3871 11.6588 13.3523 11.7533 13.2904C11.832 13.2387 12.0495 13.0715 12.0495 12.76H10.9067ZM10.8122 12.3713C10.4243 12.4095 10.033 12.4286 9.63809 12.4286V13.5714C10.0699 13.5714 10.4986 13.5505 10.924 13.5087L10.8122 12.3713ZM9.63809 12.4286C9.44102 12.4286 9.28772 12.4245 9.17464 12.4172C9.04882 12.4092 9.01036 12.3992 9.01932 12.4018L8.69685 13.4982C8.81915 13.5342 8.96735 13.5492 9.10153 13.5578C9.24845 13.5672 9.42849 13.5714 9.63809 13.5714V12.4286ZM9.04827 12.4111C9.04972 12.4117 9.06196 12.416 9.08052 12.4273C9.09935 12.4388 9.12735 12.459 9.15644 12.4915C9.22388 12.5668 9.25951 12.6658 9.25951 12.76H8.11666C8.11666 12.9409 8.18063 13.1148 8.30473 13.2535C8.41817 13.3803 8.55603 13.4494 8.6679 13.4889L9.04827 12.4111ZM9.25951 12.76V6.54H8.11666V12.76H9.25951ZM9.25951 6.54C9.25951 6.63598 9.22622 6.70796 9.19979 6.7476C9.17644 6.78262 9.15928 6.79201 9.1734 6.78154C9.18599 6.7722 9.2142 6.75396 9.26515 6.72906C9.31517 6.70463 9.38022 6.67713 9.46262 6.64729L9.07355 5.57271C8.8594 5.65024 8.65454 5.74353 8.49277 5.86346C8.34388 5.97385 8.11666 6.19474 8.11666 6.54H9.25951ZM9.47075 6.64428C9.78316 6.52578 10.1464 6.46143 10.5681 6.46143V5.31857C10.0298 5.31857 9.52634 5.40089 9.06543 5.57572L9.47075 6.64428ZM10.5681 6.46143C10.7463 6.46143 10.8589 6.48086 10.9232 6.50152C10.9848 6.52132 10.9727 6.53221 10.9489 6.50013L11.8673 5.81987C11.5596 5.40457 11.0231 5.31857 10.5681 5.31857V6.46143ZM10.94 6.48769C10.9344 6.47982 10.9067 6.43434 10.9067 6.36H12.0495C12.0495 6.15232 11.9751 5.97351 11.8762 5.83231L10.94 6.48769ZM10.9067 6.36V12.76H12.0495V6.36H10.9067ZM14.4518 12.92L14.3787 12.3533L14.3775 12.3534L14.4518 12.92ZM12.4518 12.93L12.6694 12.4016L12.4518 12.93ZM12.8518 6.11L12.6573 5.5727L12.6543 5.5738L12.8518 6.11ZM14.5518 5.92L14.4649 6.4848L14.4687 6.48535L14.5518 5.92ZM15.0318 6.35L14.4956 6.54755L14.4963 6.54928L15.0318 6.35ZM15.9918 8.93L15.4563 9.12928L15.5948 9.50143H15.9918V8.93ZM16.0318 8.93V9.50143H16.6033V8.93H16.0318ZM16.6018 6.11L16.7994 6.6462L16.7994 6.6462L16.6018 6.11ZM18.7018 6.14L19.1687 5.81047L19.1681 5.8097L18.7018 6.14ZM18.2018 12.92L18.1287 12.3533L18.1275 12.3534L18.2018 12.92ZM16.0518 12.81L16.5881 12.6124L16.5863 12.6079L16.0518 12.81ZM15.1218 10.35L15.6563 10.1479L15.5167 9.77857H15.1218V10.35ZM15.0718 10.35V9.77857H14.5004V10.35H15.0718ZM14.5004 12.71C14.5004 12.4775 14.6444 12.3494 14.6879 12.3165C14.7332 12.2821 14.761 12.277 14.7335 12.2863C14.685 12.3027 14.5752 12.3279 14.3787 12.3533L14.525 13.4867C14.7418 13.4587 14.942 13.4223 15.1002 13.3687C15.176 13.343 15.2813 13.3008 15.3783 13.2272C15.4734 13.1551 15.6433 12.9858 15.6433 12.71H14.5004ZM14.3775 12.3534C13.9953 12.4036 13.6134 12.4286 13.2318 12.4286V13.5714C13.6636 13.5714 14.095 13.5431 14.5261 13.4866L14.3775 12.3534ZM13.2318 12.4286C13.0373 12.4286 12.8893 12.4229 12.7829 12.4134C12.7299 12.4086 12.6931 12.4034 12.6696 12.399C12.6429 12.394 12.6475 12.3926 12.6694 12.4016L12.2343 13.4584C12.376 13.5167 12.5431 13.5393 12.6808 13.5516C12.8344 13.5654 13.0197 13.5714 13.2318 13.5714V12.4286ZM12.6694 12.4016C12.6763 12.4045 12.727 12.4266 12.7765 12.4906C12.8318 12.5621 12.8533 12.6442 12.8533 12.71H11.7104C11.7104 12.8758 11.7603 13.0446 11.8722 13.1894C11.9783 13.3268 12.114 13.4089 12.2343 13.4584L12.6694 12.4016ZM12.8533 12.71V6.57H11.7104V12.71H12.8533ZM12.8533 6.57C12.8533 6.64261 12.8312 6.70149 12.8088 6.73924C12.7889 6.77276 12.773 6.78292 12.7832 6.77468C12.7928 6.76694 12.8172 6.74966 12.8639 6.7256C12.9099 6.70193 12.9708 6.67513 13.0494 6.6462L12.6543 5.5738C12.439 5.65311 12.2303 5.75227 12.0655 5.88532C11.9006 6.01836 11.7104 6.24524 11.7104 6.57H12.8533ZM13.0464 6.64729C13.3604 6.5336 13.7296 6.47143 14.1618 6.47143V5.32857C13.6207 5.32857 13.1166 5.4064 12.6573 5.57271L13.0464 6.64729ZM14.1618 6.47143C14.3284 6.47143 14.4229 6.47831 14.4649 6.48478L14.6387 5.35522C14.5075 5.33502 14.3419 5.32857 14.1618 5.32857V6.47143ZM14.4687 6.48535C14.4762 6.48645 14.4762 6.48737 14.4719 6.48537C14.4672 6.48325 14.463 6.48032 14.4606 6.47812C14.4555 6.47358 14.4731 6.48639 14.4956 6.54755L15.568 6.15245C15.4179 5.74488 15.1094 5.42443 14.635 5.35465L14.4687 6.48535ZM14.4963 6.54928L15.4563 9.12928L16.5274 8.73072L15.5674 6.15072L14.4963 6.54928ZM15.9918 9.50143H16.0318V8.35857H15.9918V9.50143ZM16.6033 8.93V6.57H15.4604V8.93H16.6033ZM16.6033 6.57C16.6033 6.64261 16.5812 6.70149 16.5588 6.73924C16.5389 6.77276 16.523 6.78292 16.5332 6.77468C16.5428 6.76694 16.5672 6.74966 16.6139 6.7256C16.6599 6.70193 16.7208 6.67513 16.7994 6.6462L16.4043 5.5738C16.189 5.65311 15.9803 5.75227 15.8155 5.88532C15.6506 6.01836 15.4604 6.24524 15.4604 6.57H16.6033ZM16.7994 6.6462C17.1048 6.53367 17.4694 6.47143 17.9018 6.47143V5.32857C17.361 5.32857 16.8589 5.40633 16.4043 5.5738L16.7994 6.6462ZM17.9018 6.47143C18.0814 6.47143 18.1923 6.48922 18.2526 6.50733C18.3139 6.52571 18.2779 6.53012 18.2355 6.4703L19.1681 5.8097C19.0124 5.58988 18.7864 5.47429 18.581 5.41267C18.3747 5.35078 18.1422 5.32857 17.9018 5.32857V6.47143ZM18.235 6.46953C18.2444 6.4829 18.2506 6.49305 18.2545 6.49998C18.2583 6.50692 18.2593 6.50982 18.2589 6.50878C18.2581 6.5067 18.2504 6.48574 18.2504 6.45H19.3933C19.3933 6.19397 19.2854 5.97579 19.1687 5.81047L18.235 6.46953ZM18.2504 6.45V12.71H19.3933V6.45H18.2504ZM18.2504 12.71C18.2504 12.4775 18.3944 12.3494 18.4379 12.3165C18.4832 12.2821 18.511 12.277 18.4835 12.2863C18.435 12.3027 18.3252 12.3279 18.1287 12.3533L18.275 13.4867C18.4918 13.4587 18.692 13.4223 18.8502 13.3687C18.926 13.343 19.0313 13.3008 19.1283 13.2272C19.2234 13.1551 19.3933 12.9858 19.3933 12.71H18.2504ZM18.1275 12.3534C17.7498 12.403 17.3251 12.4286 16.8518 12.4286V13.5714C17.3652 13.5714 17.8405 13.5437 18.2761 13.4866L18.1275 12.3534ZM16.8518 12.4286C16.6244 12.4286 16.4879 12.4129 16.4189 12.3965C16.3844 12.3883 16.3941 12.3861 16.4244 12.4045C16.4565 12.424 16.5413 12.4857 16.588 12.6125L15.5156 13.0075C15.5857 13.1976 15.7213 13.3147 15.8318 13.3817C15.9404 13.4476 16.056 13.485 16.1548 13.5085C16.3524 13.5554 16.5926 13.5714 16.8518 13.5714V12.4286ZM16.5863 12.6079L15.6563 10.1479L14.5873 10.5521L15.5173 13.0121L16.5863 12.6079ZM15.1218 9.77857H15.0718V10.9214H15.1218V9.77857ZM14.5004 10.35V12.71H15.6433V10.35H14.5004ZM19.7956 12.93L20.0132 12.4016L19.7956 12.93ZM19.8456 6.02L20.1011 6.5311L20.1103 6.52654L20.1192 6.52165L19.8456 6.02ZM25.5056 6.66L25.0935 7.05585L25.0961 7.05856L25.5056 6.66ZM25.4756 12.2L25.8899 12.5936L25.8923 12.591L25.4756 12.2ZM22.4156 7.43L22.16 6.9189L21.8442 7.07684V7.43H22.4156ZM22.4156 11.47H21.8442V11.9844L22.3558 12.0383L22.4156 11.47ZM22.7956 11.51L22.7358 12.0783L22.7656 12.0814H22.7956V11.51ZM23.2456 11.03L22.7034 10.8493L22.7002 10.8596L23.2456 11.03ZM23.2456 7.79L22.715 8.00222L23.2456 7.79ZM22.8156 12.4286H20.4556V13.5714H22.8156V12.4286ZM20.4556 12.4286C20.3039 12.4286 20.1889 12.4231 20.1059 12.4143C20.0139 12.4045 19.9945 12.3939 20.0132 12.4016L19.578 13.4584C19.71 13.5127 19.8573 13.5372 19.9853 13.5507C20.1223 13.5653 20.2806 13.5714 20.4556 13.5714V12.4286ZM20.0132 12.4016C20.0258 12.4068 20.0787 12.4316 20.1276 12.4978C20.1805 12.5694 20.197 12.6463 20.197 12.7H19.0542C19.0542 12.8604 19.099 13.0289 19.2086 13.1772C19.3142 13.32 19.452 13.4065 19.578 13.4584L20.0132 12.4016ZM20.197 12.7V6.39H19.0542V12.7H20.197ZM20.197 6.39C20.197 6.38471 20.1976 6.4161 20.1717 6.45954C20.1448 6.50485 20.1114 6.52599 20.1011 6.5311L19.59 5.5089C19.4332 5.58734 19.2897 5.70682 19.1894 5.87546C19.0903 6.04223 19.0542 6.22195 19.0542 6.39H20.197ZM20.1192 6.52165C20.1129 6.52508 20.1419 6.5091 20.2347 6.49444C20.3228 6.48053 20.4445 6.47143 20.6056 6.47143V5.32857C20.2364 5.32857 19.855 5.36396 19.572 5.51835L20.1192 6.52165ZM20.6056 6.47143H22.8556V5.32857H20.6056V6.47143ZM22.8556 6.47143C24.0968 6.47143 24.775 6.72424 25.0935 7.05585L25.9177 6.26415C25.2629 5.58242 24.1743 5.32857 22.8556 5.32857V6.47143ZM25.0961 7.05856C25.4182 7.38949 25.6642 8.10328 25.6642 9.4H26.807C26.807 8.04339 26.5663 6.93051 25.9151 6.26144L25.0961 7.05856ZM25.6642 9.4C25.6642 10.6857 25.4125 11.4321 25.0589 11.809L25.8923 12.591C26.552 11.8879 26.807 10.7676 26.807 9.4H25.6642ZM25.0613 11.8064C24.7186 12.1672 24.0318 12.4286 22.8156 12.4286V13.5714C24.1327 13.5714 25.2193 13.2995 25.8899 12.5936L25.0613 11.8064ZM22.7356 6.81857C22.6421 6.81857 22.5499 6.82233 22.4647 6.83298C22.3901 6.84231 22.2737 6.86208 22.16 6.9189L22.6711 7.9411C22.6527 7.95034 22.6373 7.95631 22.6269 7.95997C22.6162 7.96369 22.6084 7.96581 22.6042 7.96687C22.5964 7.96882 22.5962 7.9683 22.6065 7.96702C22.6162 7.9658 22.6317 7.96434 22.6541 7.96322C22.6763 7.96211 22.7033 7.96143 22.7356 7.96143V6.81857ZM21.8442 7.43V11.47H22.987V7.43H21.8442ZM22.3558 12.0383L22.7358 12.0783L22.8554 10.9417L22.4754 10.9017L22.3558 12.0383ZM22.7956 12.0814C23.3966 12.0814 23.6744 11.5735 23.791 11.2004L22.7002 10.8596C22.683 10.9146 22.6669 10.9521 22.6544 10.976C22.6418 11.0002 22.6359 11.0048 22.6412 10.9992C22.6475 10.9925 22.666 10.9752 22.6986 10.9603C22.7324 10.9449 22.7669 10.9386 22.7956 10.9386V12.0814ZM23.7877 11.2107C23.9264 10.7945 23.977 10.1581 23.977 9.37H22.8342C22.8342 10.1552 22.7781 10.6255 22.7035 10.8493L23.7877 11.2107ZM23.977 9.37C23.977 8.96571 23.9634 8.61665 23.9341 8.32743C23.9058 8.04767 23.8594 7.786 23.7761 7.57778L22.715 8.00222C22.7384 8.06066 22.7721 8.19566 22.7971 8.44257C22.8211 8.68001 22.8342 8.98762 22.8342 9.37H23.977ZM23.7761 7.57778C23.6974 7.38081 23.5768 7.18631 23.3907 7.04037C23.1969 6.88831 22.9692 6.81857 22.7356 6.81857V7.96143C22.7389 7.96143 22.7322 7.9618 22.7194 7.95755C22.706 7.95313 22.694 7.94634 22.6854 7.93963C22.6694 7.92702 22.6871 7.93252 22.715 8.00222L23.7761 7.57778ZM27.11 12.93L27.3276 12.4016L27.11 12.93ZM27.17 6.01L26.9319 5.49046L26.9235 5.49449L27.17 6.01ZM32.16 7.66L32.7144 7.79859L32.7153 7.79506L32.16 7.66ZM29.73 7.89L29.7781 7.3206L29.1586 7.2683V7.89H29.73ZM29.73 8.56H29.1586V9.15506L29.7532 9.13096L29.73 8.56ZM31.82 10.09L31.2778 9.90927L31.2746 9.91956L31.82 10.09ZM31.54 10.41L31.5274 10.9814H31.54V10.41ZM29.73 10.37L29.7427 9.79871L29.1586 9.7858V10.37H29.73ZM29.73 11.01H29.1586V11.6257L29.7726 11.5798L29.73 11.01ZM32.01 12.4286H27.77V13.5714H32.01V12.4286ZM27.77 12.4286C27.6183 12.4286 27.5033 12.4231 27.4203 12.4143C27.3284 12.4045 27.3089 12.3939 27.3276 12.4016L26.8925 13.4584C27.0245 13.5127 27.1717 13.5372 27.2998 13.5507C27.4368 13.5653 27.5951 13.5714 27.77 13.5714V12.4286ZM27.3276 12.4016C27.3345 12.4045 27.3852 12.4266 27.4347 12.4906C27.49 12.5621 27.5115 12.6442 27.5115 12.71H26.3686C26.3686 12.8758 26.4185 13.0446 26.5304 13.1894C26.6365 13.3268 26.7722 13.4089 26.8925 13.4584L27.3276 12.4016ZM27.5115 12.71V6.38H26.3686V12.71H27.5115ZM27.5115 6.38C27.5115 6.37912 27.5109 6.41409 27.4828 6.45918C27.4544 6.50496 27.4212 6.52329 27.4166 6.5255L26.9235 5.49449C26.7655 5.57004 26.6174 5.68671 26.5122 5.85582C26.4075 6.02424 26.3686 6.20755 26.3686 6.38H27.5115ZM27.4081 6.52947C27.4079 6.52956 27.4203 6.52405 27.4508 6.51649C27.4805 6.5091 27.5216 6.50123 27.5759 6.4942C27.6854 6.48002 27.8319 6.47143 28.02 6.47143V5.32857C27.6116 5.32857 27.2156 5.36052 26.932 5.49053L27.4081 6.52947ZM28.02 6.47143H32.04V5.32857H28.02V6.47143ZM32.04 6.47143C31.9753 6.47143 31.9075 6.45729 31.8436 6.42686C31.7812 6.39715 31.7366 6.35866 31.7072 6.32602C31.6544 6.26735 31.6449 6.22155 31.6502 6.2392C31.6537 6.25087 31.6618 6.28497 31.6683 6.35061C31.6747 6.41427 31.6786 6.4966 31.6786 6.6H32.8215C32.8215 6.35207 32.8044 6.10937 32.7449 5.9108C32.7152 5.81179 32.662 5.67848 32.5567 5.56148C32.4366 5.42812 32.2576 5.32857 32.04 5.32857V6.47143ZM31.6786 6.6C31.6786 7.04488 31.6487 7.34456 31.6048 7.52494L32.7153 7.79506C32.7914 7.48211 32.8215 7.07512 32.8215 6.6H31.6786ZM31.6057 7.52141C31.595 7.56424 31.5855 7.59293 31.5787 7.61039C31.5715 7.62891 31.5704 7.62682 31.5796 7.61303C31.5882 7.60004 31.6169 7.56032 31.6743 7.52204C31.7377 7.47981 31.823 7.44857 31.92 7.44857V8.59143C32.2369 8.59143 32.4349 8.39032 32.5305 8.24697C32.6238 8.10701 32.6782 7.94344 32.7144 7.79859L31.6057 7.52141ZM31.92 7.44857C31.5132 7.44857 30.8045 7.40724 29.7781 7.3206L29.682 8.4594C30.7089 8.54609 31.4602 8.59143 31.92 8.59143V7.44857ZM29.1586 7.89V8.56H30.3015V7.89H29.1586ZM29.7532 9.13096C30.7426 9.09085 31.3738 9.07143 31.66 9.07143V7.92857C31.3463 7.92857 30.6908 7.94915 29.7069 7.98904L29.7532 9.13096ZM31.66 9.07143C31.5851 9.07143 31.4994 9.04648 31.4273 8.99043C31.3634 8.94071 31.3406 8.89023 31.3373 8.8826C31.334 8.87491 31.3408 8.88823 31.3475 8.93519C31.3539 8.98027 31.3586 9.04404 31.3586 9.13H32.5015C32.5015 8.89662 32.4791 8.64541 32.3878 8.4324C32.3395 8.31977 32.2604 8.19054 32.129 8.08832C31.9894 7.97977 31.825 7.92857 31.66 7.92857V9.07143ZM31.3586 9.13C31.3586 9.52989 31.3221 9.77688 31.2779 9.9093L32.3621 10.2707C32.4647 9.96312 32.5015 9.57011 32.5015 9.13H31.3586ZM31.2746 9.91956C31.2528 9.98933 31.2428 9.98478 31.27 9.95371C31.2865 9.93486 31.3185 9.90438 31.3695 9.8789C31.4227 9.8523 31.4819 9.83857 31.54 9.83857V10.9814C31.795 10.9814 31.9965 10.8589 32.1301 10.7063C32.2506 10.5686 32.3206 10.404 32.3655 10.2604L31.2746 9.91956ZM31.5527 9.83871L29.7427 9.79871L29.7174 10.9413L31.5274 10.9813L31.5527 9.83871ZM29.1586 10.37V11.01H30.3015V10.37H29.1586ZM29.7726 11.5798C30.9341 11.4931 31.7142 11.4514 32.13 11.4514V10.3086C31.6659 10.3086 30.846 10.3536 29.6875 10.4402L29.7726 11.5798ZM32.13 11.4514C32.0653 11.4514 31.9975 11.4373 31.9336 11.4069C31.8712 11.3772 31.8266 11.3387 31.7972 11.306C31.7444 11.2473 31.7349 11.2015 31.7402 11.2192C31.7437 11.2309 31.7518 11.265 31.7583 11.3306C31.7647 11.3943 31.7686 11.4766 31.7686 11.58H32.9115C32.9115 11.3321 32.8944 11.0894 32.8349 10.8908C32.8052 10.7918 32.752 10.6585 32.6467 10.5415C32.5266 10.4081 32.3476 10.3086 32.13 10.3086V11.4514ZM31.7686 11.58C31.7686 12.0334 31.7384 12.3306 31.6957 12.5014L32.8044 12.7786C32.8817 12.4694 32.9115 12.0599 32.9115 11.58H31.7686ZM31.6957 12.5014C31.685 12.5442 31.6755 12.5729 31.6687 12.5904C31.6615 12.6089 31.6604 12.6068 31.6696 12.593C31.6782 12.58 31.7069 12.5403 31.7643 12.502C31.8277 12.4598 31.913 12.4286 32.01 12.4286V13.5714C32.3269 13.5714 32.5249 13.3703 32.6205 13.227C32.7138 13.087 32.7682 12.9234 32.8044 12.7786L31.6957 12.5014ZM35.2336 12.92L35.1592 12.3534L35.2336 12.92ZM33.2136 12.93L32.9959 13.4585L33.0064 13.4626L33.2136 12.93ZM33.6936 5.91L33.5996 5.34634L33.5982 5.34658L33.6936 5.91ZM36.6436 5.81L36.6239 6.38109L36.6337 6.38143H36.6436V5.81ZM37.3436 5.84L37.3008 6.40983L37.3436 5.84ZM37.9736 5.94L37.8072 6.48671L37.8136 6.48857L37.9736 5.94ZM38.4936 6.12L38.2846 6.65189L38.2909 6.65428L38.4936 6.12ZM38.9436 6.41L38.5165 6.78964L38.5219 6.79571L38.5274 6.80164L38.9436 6.41ZM39.2536 6.82L38.769 7.12286L38.7696 7.12387L39.2536 6.82ZM39.2536 9.39L38.7406 9.13818L38.7387 9.14211L39.2536 9.39ZM38.5536 10.21L38.2468 9.72791L37.765 10.0345L38.0712 10.5164L38.5536 10.21ZM36.9436 12.95L36.8169 13.5072L36.9436 12.95ZM36.6636 12.73L36.1186 12.9019L36.1215 12.9111L36.1247 12.9202L36.6636 12.73ZM36.0136 10.67L36.5585 10.4981L36.4401 10.1227L36.0471 10.0996L36.0136 10.67ZM35.8436 10.66L35.8771 10.0896L35.2721 10.054V10.66H35.8436ZM35.8436 9.12H35.2721V9.69143H35.8436V9.12ZM36.5236 7.57L36.0751 7.92408L36.0806 7.93117L36.0865 7.93808L36.5236 7.57ZM35.8436 7.38V6.80857H35.2721V7.38H35.8436ZM35.2721 12.71C35.2721 12.4816 35.4117 12.3539 35.4567 12.3192C35.5025 12.2839 35.5312 12.2782 35.505 12.2872C35.4589 12.3031 35.3522 12.3281 35.1592 12.3534L35.3079 13.4866C35.5216 13.4585 35.7199 13.4219 35.8771 13.3678C35.9525 13.3418 36.0575 13.299 36.1542 13.2245C36.25 13.1507 36.415 12.9817 36.415 12.71H35.2721ZM35.1592 12.3534C34.7774 12.4035 34.3922 12.4286 34.0036 12.4286V13.5714C34.4415 13.5714 34.8764 13.5432 35.3079 13.4866L35.1592 12.3534ZM34.0036 12.4286C33.8091 12.4286 33.66 12.4229 33.5515 12.4133C33.4295 12.4025 33.4013 12.3899 33.4207 12.3974L33.0064 13.4626C33.1458 13.5168 33.3093 13.5392 33.4506 13.5517C33.6054 13.5654 33.7913 13.5714 34.0036 13.5714V12.4286ZM33.4311 12.4016C33.4381 12.4045 33.4887 12.4266 33.5382 12.4906C33.5935 12.5621 33.615 12.6442 33.615 12.71H32.4721C32.4721 12.8758 32.522 13.0446 32.6339 13.1894C32.74 13.3268 32.8757 13.4089 32.996 13.4584L33.4311 12.4016ZM33.615 12.71V6.28H32.4721V12.71H33.615ZM33.615 6.28C33.615 6.36529 33.5855 6.44185 33.5456 6.4964C33.5113 6.54344 33.4811 6.55845 33.4887 6.55411C33.4953 6.5504 33.5206 6.53766 33.5747 6.52132C33.6274 6.50537 33.6978 6.48884 33.7889 6.47342L33.5982 5.34658C33.358 5.38724 33.118 5.45009 32.9234 5.56089C32.7233 5.67478 32.4721 5.90453 32.4721 6.28H33.615ZM33.7875 6.47365C34.1853 6.40735 34.7046 6.37143 35.3536 6.37143V5.22857C34.6692 5.22857 34.0818 5.26598 33.5996 5.34635L33.7875 6.47365ZM35.3536 6.37143C36.0229 6.37143 36.4423 6.37483 36.6239 6.38109L36.6632 5.23891C36.4581 5.23184 36.0176 5.22857 35.3536 5.22857V6.37143ZM36.6436 6.38143C36.8255 6.38143 37.044 6.39056 37.3008 6.40983L37.3863 5.27017C37.1098 5.24944 36.8616 5.23857 36.6436 5.23857V6.38143ZM37.3008 6.40983C37.5494 6.42847 37.7119 6.45766 37.8072 6.48667L38.1399 5.39333C37.9286 5.329 37.671 5.29153 37.3863 5.27017L37.3008 6.40983ZM37.8136 6.48857C37.9541 6.52956 38.1109 6.58361 38.2846 6.65186L38.7025 5.58814C38.5029 5.50972 38.313 5.44378 38.1336 5.39143L37.8136 6.48857ZM38.2909 6.65428C38.4221 6.70406 38.4861 6.7555 38.5165 6.78964L39.3706 6.03036C39.1877 5.8245 38.9517 5.68261 38.6962 5.58572L38.2909 6.65428ZM38.5274 6.80164C38.6037 6.88267 38.6848 6.98819 38.769 7.12286L39.7381 6.51714C39.6223 6.33181 39.4967 6.164 39.3597 6.01836L38.5274 6.80164ZM38.7696 7.12387C38.8684 7.28119 38.9521 7.56757 38.9521 8.05H40.095C40.095 7.46576 39.9987 6.93215 39.7375 6.51613L38.7696 7.12387ZM38.9521 8.05C38.9521 8.51376 38.8727 8.86919 38.7406 9.13819L39.7665 9.64181C39.9945 9.17748 40.095 8.63957 40.095 8.05H38.9521ZM38.7387 9.14211C38.6045 9.42079 38.4375 9.60652 38.2468 9.72791L38.8603 10.6921C39.2563 10.4401 39.5559 10.0792 39.7684 9.63789L38.7387 9.14211ZM38.0712 10.5164C38.45 11.1126 38.7258 11.5873 38.905 11.9456C38.9946 12.1248 39.0553 12.2656 39.0924 12.3716C39.1329 12.4869 39.1321 12.5243 39.1321 12.51H40.275C40.275 12.3324 40.2263 12.1515 40.1709 11.9934C40.1122 11.8261 40.0292 11.6385 39.9272 11.4344C39.7229 11.026 39.4238 10.5141 39.0359 9.90356L38.0712 10.5164ZM39.1321 12.51C39.1321 12.3659 39.217 12.2826 39.2387 12.2664C39.2445 12.2621 39.2055 12.2901 39.0731 12.323C38.8144 12.3873 38.3786 12.4286 37.7336 12.4286V13.5714C38.4018 13.5714 38.951 13.531 39.349 13.432C39.545 13.3833 39.7522 13.3092 39.9222 13.1824C40.1081 13.0436 40.275 12.8174 40.275 12.51H39.1321ZM37.7336 12.4286C37.3509 12.4286 37.1469 12.4102 37.0702 12.3928L36.8169 13.5072C37.0336 13.5565 37.3562 13.5714 37.7336 13.5714V12.4286ZM37.0702 12.3928C37.058 12.39 37.0814 12.393 37.1166 12.4207C37.1563 12.4519 37.1868 12.4956 37.2024 12.5398L36.1247 12.9202C36.2468 13.2661 36.534 13.4429 36.8169 13.5072L37.0702 12.3928ZM37.2085 12.5581L36.5585 10.4981L35.4686 10.8419L36.1186 12.9019L37.2085 12.5581ZM36.0471 10.0996L35.8771 10.0896L35.81 11.2304L35.98 11.2404L36.0471 10.0996ZM35.2721 10.66V12.71H36.415V10.66H35.2721ZM35.8436 9.69143H36.1036V8.54857H35.8436V9.69143ZM36.1036 9.69143C36.4718 9.69143 36.807 9.53339 37.0189 9.20454C37.203 8.91879 37.255 8.56306 37.255 8.22H36.1121C36.1121 8.34109 36.1022 8.43047 36.0886 8.49374C36.0749 8.55742 36.0602 8.58246 36.0582 8.58546C36.0577 8.58629 36.0604 8.58189 36.0676 8.57521C36.075 8.56834 36.0844 8.56159 36.0948 8.5562C36.1171 8.54464 36.1256 8.54857 36.1036 8.54857V9.69143ZM37.255 8.22C37.255 7.87963 37.2023 7.48884 36.9606 7.20192L36.0865 7.93808C36.0672 7.91518 36.0761 7.91276 36.0887 7.96408C36.1011 8.0146 36.1121 8.09687 36.1121 8.22H37.255ZM36.9721 7.21592C36.789 6.98406 36.5189 6.80857 36.1736 6.80857V7.95143C36.1612 7.95143 36.1463 7.9499 36.1301 7.9458C36.1139 7.94171 36.0998 7.93588 36.0884 7.9297C36.0657 7.91736 36.0629 7.90873 36.0751 7.92408L36.9721 7.21592ZM36.1736 6.80857H35.8436V7.95143H36.1736V6.80857ZM35.2721 7.38V9.12H36.415V7.38H35.2721ZM8.89524 22.94L8.95118 23.5087L8.95934 23.5078L8.89524 22.94ZM6.88523 22.95L6.68459 23.485L6.70406 23.4923L6.724 23.4982L6.88523 22.95ZM6.72523 18.46H7.29666V17.8886H6.72523V18.46ZM5.14523 18.18L4.59579 18.337V18.337L5.14523 18.18ZM5.18523 16.35L5.73654 16.5004L5.73737 16.4972L5.18523 16.35ZM11.1152 16.18L10.5527 16.2805L10.5544 16.2901L10.5565 16.2997L11.1152 16.18ZM11.0652 17.99L10.5088 17.8598V17.8598L11.0652 17.99ZM9.51523 18.46V17.8886H8.94381V18.46H9.51523ZM8.94381 22.76C8.94381 22.6255 8.99364 22.5182 9.04579 22.4475C9.09357 22.3828 9.14366 22.3472 9.1667 22.3323C9.2097 22.3046 9.23285 22.302 9.20091 22.3112C9.14546 22.3273 9.02945 22.3498 8.83113 22.3722L8.95934 23.5078C9.17435 23.4835 9.36834 23.4527 9.51956 23.4088C9.59095 23.388 9.6916 23.3537 9.78627 23.2927C9.86317 23.2431 10.0867 23.076 10.0867 22.76H8.94381ZM8.8393 22.3713C8.45143 22.4095 8.0601 22.4286 7.66523 22.4286V23.5714C8.09703 23.5714 8.5257 23.5505 8.95117 23.5087L8.8393 22.3713ZM7.66523 22.4286C7.46816 22.4286 7.31487 22.4245 7.20179 22.4172C7.07597 22.4092 7.03751 22.3992 7.04647 22.4018L6.724 23.4982C6.84629 23.5342 6.9945 23.5492 7.12868 23.5578C7.2756 23.5672 7.45564 23.5714 7.66523 23.5714V22.4286ZM7.08588 22.415C7.09145 22.417 7.14648 22.4381 7.20233 22.5044C7.26672 22.5809 7.29666 22.6755 7.29666 22.76H6.15381C6.15381 22.9312 6.21041 23.1008 6.32814 23.2406C6.43732 23.3702 6.57235 23.443 6.68459 23.485L7.08588 22.415ZM7.29666 22.76V18.46H6.15381V22.76H7.29666ZM6.72523 17.8886H5.33523V19.0314H6.72523V17.8886ZM5.33523 17.8886C5.57406 17.8886 5.69066 18.0472 5.70558 18.0691C5.72394 18.0962 5.71486 18.0937 5.69468 18.023L4.59579 18.337C4.62894 18.453 4.6782 18.5905 4.75989 18.7109C4.83814 18.8262 5.02307 19.0314 5.33523 19.0314V17.8886ZM5.69468 18.023C5.66363 17.9143 5.63666 17.7018 5.63666 17.35H4.49381C4.49381 17.7316 4.52017 18.0723 4.59579 18.337L5.69468 18.023ZM5.63666 17.35C5.63666 17.0164 5.67252 16.735 5.73653 16.5004L4.63394 16.1996C4.53795 16.5516 4.49381 16.9369 4.49381 17.35H5.63666ZM5.73737 16.4972C5.75253 16.4404 5.76661 16.3997 5.77805 16.3721C5.78989 16.3435 5.79561 16.3371 5.79092 16.3437C5.78646 16.3499 5.76301 16.3815 5.71309 16.4127C5.65809 16.4471 5.58566 16.4714 5.50523 16.4714V15.3286C5.18876 15.3286 4.97598 15.5176 4.85955 15.6813C4.74858 15.8374 4.68031 16.0257 4.6331 16.2028L5.73737 16.4972ZM5.50523 16.4714H10.9152V15.3286H5.50523V16.4714ZM10.9152 16.4714C10.8472 16.4714 10.7733 16.4545 10.7048 16.4161C10.6389 16.3792 10.5978 16.3337 10.5752 16.3021C10.5372 16.2489 10.5424 16.2228 10.5527 16.2805L11.6778 16.0795C11.6547 15.9506 11.6099 15.7845 11.5052 15.6379C11.3828 15.4664 11.1789 15.3286 10.9152 15.3286V16.4714ZM10.5565 16.2997C10.5837 16.4269 10.6038 16.6491 10.6038 16.99H11.7467C11.7467 16.6242 11.7267 16.3064 11.674 16.0603L10.5565 16.2997ZM10.6038 16.99C10.6038 17.3037 10.5713 17.5931 10.5088 17.8598L11.6216 18.1202C11.7059 17.7603 11.7467 17.3829 11.7467 16.99H10.6038ZM10.5088 17.8598C10.4944 17.9213 10.4807 17.9664 10.4691 17.9979C10.4571 18.0306 10.4504 18.04 10.4536 18.0351C10.456 18.0312 10.4784 17.9965 10.5303 17.9606C10.5887 17.9202 10.6706 17.8886 10.7652 17.8886V19.0314C11.1049 19.0314 11.3148 18.81 11.4169 18.6499C11.5181 18.4914 11.5794 18.3008 11.6216 18.1202L10.5088 17.8598ZM10.7652 17.8886H9.51523V19.0314H10.7652V17.8886ZM8.94381 18.46V22.76H10.0867V18.46H8.94381ZM13.7289 22.94L13.5793 23.4916L13.5903 23.4944L13.7289 22.94ZM12.6389 22.38L12.9959 21.9338L12.991 21.9299L12.6389 22.38ZM11.8989 17.71L11.3683 17.4978L11.3658 17.5044L11.8989 17.71ZM12.6689 16.6L12.3031 16.161L12.3022 16.1617L12.6689 16.6ZM16.5289 15.94L16.3948 16.4955L16.397 16.496L16.5289 15.94ZM17.6389 16.45L17.974 15.9871L17.9702 15.9844L17.6389 16.45ZM17.7389 22.18L18.1342 22.5927H18.1342L17.7389 22.18ZM14.8289 21.38L14.3827 21.737L14.3887 21.7445L14.395 21.7519L14.8289 21.38ZM15.4889 21.38L15.9228 21.7519L15.9291 21.7445L15.9351 21.737L15.4889 21.38ZM15.6889 20.76L16.2522 20.8559L16.2526 20.8539L15.6889 20.76ZM15.6889 18.12L16.2519 18.0221V18.0221L15.6889 18.12ZM14.8289 17.52L15.2628 17.8919L15.2628 17.8919L14.8289 17.52ZM14.6289 18.12L15.1919 18.2179H15.1919L14.6289 18.12ZM14.6289 20.76L14.0652 20.8539L14.0656 20.8559L14.6289 20.76ZM15.1589 22.5186C14.6375 22.5186 14.2098 22.4712 13.8675 22.3856L13.5903 23.4944C14.048 23.6088 14.5737 23.6614 15.1589 23.6614V22.5186ZM13.8785 22.3885C13.5643 22.3033 13.271 22.1539 12.9959 21.9338L12.2819 22.8262C12.6735 23.1395 13.1068 23.3634 13.5793 23.4915L13.8785 22.3885ZM12.991 21.9299C12.5319 21.5709 12.2003 20.794 12.2003 19.35H11.0575C11.0575 20.8927 11.3992 22.1358 12.2868 22.8301L12.991 21.9299ZM12.2003 19.35C12.2003 18.7766 12.2829 18.3024 12.432 17.9156L11.3658 17.5044C11.155 18.0509 11.0575 18.6701 11.0575 19.35H12.2003ZM12.4295 17.9222C12.5874 17.5275 12.7934 17.2409 13.0356 17.0382L12.3022 16.1617C11.8911 16.5058 11.5838 16.9592 11.3683 17.4978L12.4295 17.9222ZM13.0347 17.039C13.5505 16.6092 14.2415 16.3714 15.1589 16.3714V15.2286C14.0363 15.2286 13.0674 15.5241 12.3031 16.161L13.0347 17.039ZM15.1589 16.3714C15.654 16.3714 16.0636 16.4155 16.3948 16.4955L16.663 15.3845C16.2209 15.2778 15.7171 15.2286 15.1589 15.2286V16.3714ZM16.397 16.496C16.7149 16.5714 17.0178 16.7094 17.3076 16.9156L17.9702 15.9844C17.5667 15.6973 17.1295 15.4952 16.6608 15.384L16.397 16.496ZM17.3039 16.9129C17.7797 17.2573 18.1175 17.9871 18.1175 19.35H19.2603C19.2603 17.8595 18.8981 16.656 17.974 15.9871L17.3039 16.9129ZM18.1175 19.35C18.1175 20.5462 17.8213 21.3098 17.3436 21.7673L18.1342 22.5927C18.9232 21.8369 19.2603 20.7138 19.2603 19.35H18.1175ZM17.3436 21.7673C16.8407 22.2491 16.1353 22.5186 15.1589 22.5186V23.6614C16.3558 23.6614 17.3704 23.3243 18.1342 22.5927L17.3436 21.7673ZM14.395 21.7519C14.5994 21.9903 14.8779 22.0914 15.1589 22.0914V20.9486C15.1526 20.9486 15.1679 20.9477 15.1946 20.959C15.2231 20.9711 15.2471 20.9898 15.2628 21.0081L14.395 21.7519ZM15.1589 22.0914C15.4399 22.0914 15.7184 21.9903 15.9228 21.7519L15.055 21.0081C15.0707 20.9898 15.0947 20.9711 15.1232 20.959C15.1499 20.9477 15.1652 20.9486 15.1589 20.9486V22.0914ZM15.9351 21.737C16.0383 21.608 16.1008 21.4554 16.1427 21.3254C16.1873 21.1872 16.2229 21.0284 16.2522 20.8559L15.1256 20.6641C15.1016 20.805 15.0771 20.9062 15.0551 20.9746C15.0303 21.0513 15.0195 21.052 15.0427 21.023L15.9351 21.737ZM16.2526 20.8539C16.3135 20.4882 16.3403 20.0086 16.3403 19.43H15.1975C15.1975 19.9847 15.171 20.3918 15.1253 20.6661L16.2526 20.8539ZM16.3403 19.43C16.3403 18.8525 16.3137 18.3773 16.2519 18.0221L15.1259 18.2179C15.1708 18.4761 15.1975 18.8742 15.1975 19.43H16.3403ZM16.2519 18.0221C16.2224 17.8526 16.1865 17.6958 16.141 17.5593C16.0986 17.4321 16.0335 17.2773 15.9228 17.1481L15.055 17.8919C15.0365 17.8702 15.0314 17.8577 15.0353 17.8656C15.0387 17.8723 15.0464 17.8895 15.0568 17.9207C15.078 17.9842 15.1021 18.0808 15.1259 18.2179L16.2519 18.0221ZM15.9228 17.1481C15.7184 16.9097 15.4399 16.8086 15.1589 16.8086V17.9514C15.1652 17.9514 15.1499 17.9523 15.1232 17.941C15.0947 17.9289 15.0707 17.9102 15.055 17.8919L15.9228 17.1481ZM15.1589 16.8086C14.8779 16.8086 14.5994 16.9097 14.395 17.1481L15.2628 17.8919C15.2471 17.9102 15.2231 17.9289 15.1946 17.941C15.1679 17.9523 15.1526 17.9514 15.1589 17.9514V16.8086ZM14.395 17.1481C14.2843 17.2773 14.2192 17.4321 14.1768 17.5593C14.1313 17.6958 14.0954 17.8526 14.0659 18.0221L15.1919 18.2179C15.2157 18.0808 15.2398 17.9842 15.261 17.9207C15.2714 17.8895 15.2791 17.8723 15.2825 17.8656C15.2864 17.8577 15.2813 17.8702 15.2628 17.8919L14.395 17.1481ZM14.0659 18.0221C14.0042 18.3773 13.9775 18.8525 13.9775 19.43H15.1203C15.1203 18.8742 15.147 18.4761 15.1919 18.2179L14.0659 18.0221ZM13.9775 19.43C13.9775 20.0086 14.0043 20.4882 14.0653 20.8539L15.1926 20.6661C15.1468 20.3918 15.1203 19.9847 15.1203 19.43H13.9775ZM14.0656 20.8559C14.0949 21.0284 14.1305 21.1872 14.1751 21.3254C14.217 21.4554 14.2795 21.608 14.3827 21.737L15.2751 21.023C15.2983 21.052 15.2875 21.0513 15.2627 20.9746C15.2407 20.9062 15.2162 20.805 15.1922 20.6641L14.0656 20.8559ZM21.1548 22.93L20.9131 23.4478L21.1548 22.93ZM20.9448 22.69L21.4836 22.4998L21.482 22.4954L20.9448 22.69ZM18.7348 16.59H18.1633V16.6903L18.1975 16.7846L18.7348 16.59ZM19.4448 16.15L19.2573 15.6102L19.255 15.611L19.4448 16.15ZM21.8948 16.49L21.3263 16.5478L21.3266 16.5509L21.8948 16.49ZM22.2348 19.66L21.6666 19.7209L21.7213 20.2314H22.2348V19.66ZM22.3748 19.66V20.2314H22.8979L22.944 19.7103L22.3748 19.66ZM22.6548 16.49L23.224 16.5403L23.2242 16.5383L22.6548 16.49ZM24.6748 16.04L24.3115 16.4811L24.3195 16.4877L24.3277 16.4939L24.6748 16.04ZM24.8648 16.39L24.2957 16.4417L24.2962 16.4474L24.8648 16.39ZM25.1948 19.66L24.6262 19.7174L24.6781 20.2314H25.1948V19.66ZM25.3348 19.66V20.2314H25.8612L25.9043 19.7067L25.3348 19.66ZM25.5948 16.49L25.0262 16.4312L25.0252 16.4433L25.5948 16.49ZM26.2748 16.05L26.1481 15.4928L26.1463 15.4932L26.2748 16.05ZM28.4548 16.09L28.0908 16.5306L28.1001 16.538L28.4548 16.09ZM28.6948 16.49L29.2349 16.6764L29.2662 16.5858V16.49H28.6948ZM26.5548 22.69L27.0933 22.8811L27.0949 22.8764L26.5548 22.69ZM24.3348 22.69L24.883 22.5288L24.8823 22.5264L24.3348 22.69ZM23.8148 20.95L24.3623 20.7864L24.2404 20.3786H23.8148V20.95ZM23.6948 20.95V20.3786H23.2715L23.1481 20.7835L23.6948 20.95ZM23.1648 22.69L22.6181 22.5235L22.616 22.5307L23.1648 22.69ZM21.7848 22.4286C21.6363 22.4286 21.5267 22.423 21.4504 22.4146C21.4126 22.4104 21.3888 22.4061 21.3763 22.4032C21.3616 22.3999 21.3721 22.4008 21.3964 22.4122L20.9131 23.4478C21.0499 23.5117 21.2031 23.537 21.3242 23.5504C21.4578 23.5653 21.6132 23.5714 21.7848 23.5714V22.4286ZM21.3964 22.4122C21.4156 22.4211 21.438 22.4367 21.4573 22.4587C21.4759 22.4799 21.4826 22.497 21.4836 22.4998L20.4059 22.8802C20.492 23.124 20.661 23.3301 20.9131 23.4478L21.3964 22.4122ZM21.482 22.4954L19.272 16.3954L18.1975 16.7846L20.4075 22.8846L21.482 22.4954ZM19.3062 16.59C19.3062 16.7443 19.2336 16.8394 19.2111 16.8653C19.1883 16.8916 19.1797 16.8915 19.2133 16.8707C19.2792 16.8298 19.4111 16.7677 19.6346 16.689L19.255 15.611C19.0051 15.699 18.782 15.7935 18.6113 15.8993C18.5265 15.9518 18.4291 16.0226 18.3471 16.1172C18.2655 16.2115 18.1633 16.3724 18.1633 16.59H19.3062ZM19.6322 16.6898C20.0546 16.5431 20.4747 16.4714 20.8948 16.4714V15.3286C20.3415 15.3286 19.7949 15.4235 19.2573 15.6102L19.6322 16.6898ZM20.8948 16.4714C21.1628 16.4714 21.2843 16.516 21.3244 16.5397C21.3383 16.5478 21.3338 16.5483 21.3269 16.5374C21.3203 16.527 21.324 16.5258 21.3263 16.5478L22.4633 16.4322C22.4253 16.0594 22.2322 15.7483 21.9051 15.5553C21.6119 15.3823 21.2534 15.3286 20.8948 15.3286V16.4714ZM21.3266 16.5509L21.6666 19.7209L22.8029 19.5991L22.4629 16.4291L21.3266 16.5509ZM22.2348 20.2314H22.3748V19.0886H22.2348V20.2314ZM22.944 19.7103L23.224 16.5403L22.0856 16.4397L21.8056 19.6097L22.944 19.7103ZM23.2242 16.5383C23.2231 16.5507 23.2154 16.5751 23.1999 16.594C23.189 16.6074 23.1933 16.5942 23.2461 16.5711C23.3635 16.5198 23.5991 16.4714 24.0048 16.4714V15.3286C23.5438 15.3286 23.1211 15.3785 22.7884 15.5239C22.4267 15.682 22.1243 15.9821 22.0854 16.4417L23.2242 16.5383ZM24.0048 16.4714C24.1484 16.4714 24.2453 16.4818 24.3054 16.4943C24.372 16.5083 24.355 16.5169 24.3115 16.4811L25.038 15.5989C24.8812 15.4697 24.6959 15.4084 24.5391 15.3757C24.3759 15.3415 24.1945 15.3286 24.0048 15.3286V16.4714ZM24.3277 16.4939C24.3253 16.4921 24.3146 16.4826 24.3051 16.4651C24.2958 16.448 24.2953 16.4373 24.2957 16.4417L25.4338 16.3383C25.4066 16.0382 25.2668 15.7733 25.0219 15.5861L24.3277 16.4939ZM24.2962 16.4474L24.6262 19.7174L25.7633 19.6026L25.4333 16.3326L24.2962 16.4474ZM25.1948 20.2314H25.3348V19.0886H25.1948V20.2314ZM25.9043 19.7067L26.1643 16.5367L25.0252 16.4433L24.7652 19.6133L25.9043 19.7067ZM26.1632 16.5488C26.157 16.6084 26.1343 16.6572 26.111 16.6893C26.0906 16.7175 26.0766 16.7236 26.0902 16.7148C26.1035 16.7061 26.1337 16.6895 26.1886 16.669C26.2426 16.6488 26.3132 16.6276 26.4033 16.6068L26.1463 15.4932C25.9012 15.5498 25.6628 15.63 25.4693 15.7552C25.2703 15.884 25.0604 16.1024 25.0264 16.4312L26.1632 16.5488ZM26.4014 16.6072C26.8022 16.5161 27.1931 16.4714 27.5748 16.4714V15.3286C27.1031 15.3286 26.6273 15.3839 26.1481 15.4928L26.4014 16.6072ZM27.5748 16.4714C27.7671 16.4714 27.9053 16.4858 27.9992 16.5061C28.0981 16.5274 28.1115 16.5476 28.0908 16.5305L28.8187 15.6495C28.6447 15.5057 28.4348 15.4309 28.2404 15.3889C28.0409 15.3459 27.8158 15.3286 27.5748 15.3286V16.4714ZM28.1001 16.538C28.1203 16.554 28.1328 16.5662 28.1399 16.5738C28.1469 16.5815 28.1474 16.5834 28.1448 16.579C28.142 16.5743 28.1362 16.5635 28.1313 16.5468C28.1263 16.5297 28.1233 16.5103 28.1233 16.49H29.2662C29.2662 16.1065 29.0413 15.8255 28.8095 15.642L28.1001 16.538ZM28.1546 16.3036L26.0146 22.5036L27.0949 22.8764L29.2349 16.6764L28.1546 16.3036ZM26.0162 22.4989C26.0391 22.4344 26.0735 22.389 26.1007 22.3614C26.1264 22.3353 26.1459 22.3248 26.1468 22.3243C26.1481 22.3236 26.139 22.3286 26.1147 22.3367C26.091 22.3446 26.0576 22.3538 26.0126 22.3632C25.8237 22.4028 25.5183 22.4286 25.0748 22.4286V23.5714C25.5446 23.5714 25.9425 23.5455 26.2469 23.4818C26.3981 23.4501 26.5557 23.4033 26.6953 23.3269C26.8323 23.252 27.01 23.1157 27.0933 22.8811L26.0162 22.4989ZM25.0748 22.4286C24.952 22.4286 24.8638 22.4232 24.8044 22.4156C24.7752 22.4119 24.7586 22.4084 24.7518 22.4067C24.7437 22.4046 24.7562 22.4068 24.7803 22.4189L24.2692 23.4411C24.4016 23.5073 24.5459 23.5348 24.6601 23.5494C24.7841 23.5651 24.9242 23.5714 25.0748 23.5714V22.4286ZM24.7803 22.4189C24.8067 22.4321 24.8338 22.4532 24.8553 22.4803C24.8757 22.5061 24.8822 22.5261 24.883 22.5288L23.7866 22.8512C23.8581 23.0946 24.0146 23.3138 24.2692 23.4411L24.7803 22.4189ZM24.8823 22.5264L24.3623 20.7864L23.2673 21.1136L23.7873 22.8536L24.8823 22.5264ZM23.8148 20.3786H23.6948V21.5214H23.8148V20.3786ZM23.1481 20.7835L22.6181 22.5235L23.7114 22.8565L24.2414 21.1165L23.1481 20.7835ZM22.616 22.5307C22.6552 22.3956 22.7435 22.3399 22.7522 22.3348C22.7596 22.3304 22.7346 22.3459 22.6495 22.365C22.4813 22.4028 22.2011 22.4286 21.7848 22.4286V23.5714C22.2285 23.5714 22.6082 23.5456 22.9 23.48C23.0449 23.4475 23.1999 23.3984 23.3374 23.3165C23.476 23.2338 23.6443 23.0878 23.7135 22.8493L22.616 22.5307ZM31.361 22.92L31.2879 22.3533L31.2867 22.3534L31.361 22.92ZM29.361 22.93L29.5786 22.4016L29.361 22.93ZM29.761 16.11L29.5665 15.5727L29.5635 15.5738L29.761 16.11ZM31.461 15.92L31.3741 16.4848L31.3779 16.4853L31.461 15.92ZM31.941 16.35L31.4048 16.5475L31.4055 16.5493L31.941 16.35ZM32.901 18.93L32.3655 19.1293L32.5039 19.5014H32.901V18.93ZM32.941 18.93V19.5014H33.5124V18.93H32.941ZM33.511 16.11L33.7086 16.6462V16.6462L33.511 16.11ZM35.611 16.14L36.0779 15.8105L36.0773 15.8097L35.611 16.14ZM35.111 22.92L35.0379 22.3533L35.0367 22.3534L35.111 22.92ZM32.961 22.81L33.4972 22.6124L33.4955 22.6079L32.961 22.81ZM32.031 20.35L32.5655 20.1479L32.4259 19.7786H32.031V20.35ZM31.981 20.35V19.7786H31.4096V20.35H31.981ZM31.4096 22.71C31.4096 22.4775 31.5536 22.3494 31.5971 22.3165C31.6424 22.2821 31.6702 22.277 31.6427 22.2863C31.5942 22.3027 31.4844 22.3279 31.2879 22.3533L31.4341 23.4867C31.651 23.4587 31.8512 23.4223 32.0093 23.3687C32.0852 23.343 32.1905 23.3008 32.2875 23.2272C32.3826 23.1551 32.5524 22.9858 32.5524 22.71H31.4096ZM31.2867 22.3534C30.9045 22.4036 30.5226 22.4286 30.141 22.4286V23.5714C30.5727 23.5714 31.0042 23.5431 31.4353 23.4866L31.2867 22.3534ZM30.141 22.4286C29.9465 22.4286 29.7985 22.4229 29.6921 22.4134C29.6391 22.4086 29.6023 22.4034 29.5788 22.399C29.5521 22.394 29.5567 22.3926 29.5786 22.4016L29.1434 23.4584C29.2852 23.5168 29.4522 23.5393 29.5899 23.5516C29.7435 23.5654 29.9289 23.5714 30.141 23.5714V22.4286ZM29.5786 22.4016C29.5855 22.4045 29.6362 22.4266 29.6857 22.4906C29.7409 22.5621 29.7624 22.6442 29.7624 22.71H28.6196C28.6196 22.8758 28.6694 23.0446 28.7814 23.1894C28.8875 23.3268 29.0232 23.4089 29.1434 23.4584L29.5786 22.4016ZM29.7624 22.71V16.57H28.6196V22.71H29.7624ZM29.7624 16.57C29.7624 16.6426 29.7404 16.7015 29.718 16.7392C29.6981 16.7728 29.6822 16.7829 29.6924 16.7747C29.702 16.7669 29.7264 16.7497 29.7731 16.7256C29.8191 16.7019 29.88 16.6751 29.9586 16.6462L29.5635 15.5738C29.3482 15.6531 29.1395 15.7523 28.9746 15.8853C28.8098 16.0184 28.6196 16.2452 28.6196 16.57H29.7624ZM29.9556 16.6473C30.2696 16.5336 30.6388 16.4714 31.071 16.4714V15.3286C30.5299 15.3286 30.0258 15.4064 29.5665 15.5727L29.9556 16.6473ZM31.071 16.4714C31.2376 16.4714 31.332 16.4783 31.3741 16.4848L31.5479 15.3552C31.4167 15.335 31.2511 15.3286 31.071 15.3286V16.4714ZM31.3779 16.4853C31.3853 16.4864 31.3854 16.4874 31.381 16.4854C31.3764 16.4833 31.3722 16.4803 31.3697 16.4781C31.3647 16.4736 31.3823 16.4864 31.4048 16.5475L32.4772 16.1525C32.3271 15.7449 32.0186 15.4244 31.5442 15.3547L31.3779 16.4853ZM31.4055 16.5493L32.3655 19.1293L33.4366 18.7307L32.4766 16.1507L31.4055 16.5493ZM32.901 19.5014H32.941V18.3586H32.901V19.5014ZM33.5124 18.93V16.57H32.3696V18.93H33.5124ZM33.5124 16.57C33.5124 16.6426 33.4904 16.7015 33.468 16.7392C33.4481 16.7728 33.4322 16.7829 33.4424 16.7747C33.452 16.7669 33.4764 16.7497 33.5231 16.7256C33.5691 16.7019 33.63 16.6751 33.7086 16.6462L33.3135 15.5738C33.0982 15.6531 32.8895 15.7523 32.7246 15.8853C32.5598 16.0184 32.3696 16.2452 32.3696 16.57H33.5124ZM33.7086 16.6462C34.014 16.5337 34.3785 16.4714 34.811 16.4714V15.3286C34.2702 15.3286 33.768 15.4063 33.3135 15.5738L33.7086 16.6462ZM34.811 16.4714C34.9906 16.4714 35.1015 16.4892 35.1618 16.5073C35.2231 16.5257 35.1871 16.5301 35.1447 16.4703L36.0773 15.8097C35.9216 15.5899 35.6956 15.4743 35.4902 15.4127C35.2839 15.3508 35.0514 15.3286 34.811 15.3286V16.4714ZM35.1442 16.4695C35.1536 16.4829 35.1598 16.493 35.1636 16.5C35.1675 16.5069 35.1685 16.5098 35.1681 16.5088C35.1673 16.5067 35.1596 16.4857 35.1596 16.45H36.3024C36.3024 16.194 36.1946 15.9758 36.0779 15.8105L35.1442 16.4695ZM35.1596 16.45V22.71H36.3024V16.45H35.1596ZM35.1596 22.71C35.1596 22.4775 35.3036 22.3494 35.3471 22.3165C35.3924 22.2821 35.4202 22.277 35.3927 22.2863C35.3442 22.3027 35.2344 22.3279 35.0379 22.3533L35.1841 23.4867C35.401 23.4587 35.6012 23.4223 35.7593 23.3687C35.8352 23.343 35.9405 23.3008 36.0375 23.2272C36.1326 23.1551 36.3024 22.9858 36.3024 22.71H35.1596ZM35.0367 22.3534C34.659 22.403 34.2343 22.4286 33.761 22.4286V23.5714C34.2744 23.5714 34.7497 23.5437 35.1853 23.4866L35.0367 22.3534ZM33.761 22.4286C33.5336 22.4286 33.3971 22.4129 33.3281 22.3965C33.2936 22.3883 33.3033 22.3861 33.3336 22.4045C33.3657 22.424 33.4505 22.4857 33.4972 22.6125L32.4248 23.0075C32.4949 23.1976 32.6305 23.3147 32.741 23.3817C32.8496 23.4476 32.9651 23.485 33.064 23.5085C33.2616 23.5554 33.5018 23.5714 33.761 23.5714V22.4286ZM33.4955 22.6079L32.5655 20.1479L31.4965 20.5521L32.4265 23.0121L33.4955 22.6079ZM32.031 19.7786H31.981V20.9214H32.031V19.7786ZM31.4096 20.35V22.71H32.5524V20.35H31.4096Z" fill="#F67F00" mask="url(#path-2-outside-1_4042_34124)"/>
</svg>
