<svg width="300" height="271" viewBox="0 0 300 271" fill="none" xmlns="http://www.w3.org/2000/svg">
<path d="M37.2648 38.1742C41.7604 38.1742 45.4047 34.5299 45.4047 30.0344C45.4047 25.5389 41.7604 21.8945 37.2648 21.8945C32.7693 21.8945 29.125 25.5389 29.125 30.0344C29.125 34.5299 32.7693 38.1742 37.2648 38.1742Z" fill="black"/>
<path d="M62.3117 38.1742C66.8072 38.1742 70.4516 34.5299 70.4516 30.0344C70.4516 25.5389 66.8072 21.8945 62.3117 21.8945C57.8162 21.8945 54.1719 25.5389 54.1719 30.0344C54.1719 34.5299 57.8162 38.1742 62.3117 38.1742Z" fill="black"/>
<path d="M87.3352 38.1742C91.8307 38.1742 95.475 34.5299 95.475 30.0344C95.475 25.5389 91.8307 21.8945 87.3352 21.8945C82.8396 21.8945 79.1953 25.5389 79.1953 30.0344C79.1953 34.5299 82.8396 38.1742 87.3352 38.1742Z" fill="black"/>
<path d="M253.769 140.779C252.644 140.779 251.519 140.351 250.662 139.493L237.373 126.204C235.657 124.488 235.657 121.705 237.373 119.989C239.089 118.274 241.872 118.274 243.588 119.989L253.768 130.171L277.238 106.701C278.954 104.985 281.737 104.986 283.452 106.701C285.169 108.418 285.169 111.2 283.452 112.916L256.875 139.492C256.018 140.351 254.894 140.779 253.769 140.779Z" fill="black"/>
<path d="M200.022 166.429H81.2561C78.8291 166.429 76.8615 164.462 76.8615 162.035C76.8615 159.607 78.8291 157.64 81.2561 157.64H200.021C206.968 157.64 212.619 151.989 212.619 145.043V108.52C212.619 101.573 206.968 95.9219 200.021 95.9219H50.0508C43.1045 95.9219 37.4531 101.573 37.4531 108.52V145.043C37.4531 151.989 43.1045 157.64 50.0508 157.64H59.891C62.318 157.64 64.2855 159.607 64.2855 162.035C64.2855 164.462 62.318 166.429 59.891 166.429H50.0508C38.2582 166.429 28.6641 156.835 28.6641 145.043V108.52C28.6641 96.727 38.2582 87.1328 50.0508 87.1328H200.021C211.814 87.1328 221.408 96.727 221.408 108.52V145.043C221.409 156.835 211.814 166.429 200.022 166.429Z" fill="black"/>
<path d="M96.7862 115.791C95.5727 113.689 92.885 112.97 90.7832 114.183L82.9844 118.685V109.68C82.9844 107.252 81.0168 105.285 78.5899 105.285C76.1629 105.285 74.1953 107.252 74.1953 109.68V118.684L66.3971 114.182C64.2953 112.969 61.6076 113.688 60.3942 115.79C59.1807 117.892 59.9008 120.58 62.0026 121.793L69.8008 126.296L62.0026 130.798C59.9008 132.012 59.1807 134.699 60.3942 136.801C61.208 138.211 62.6852 138.999 64.2039 138.999C64.9492 138.999 65.7051 138.809 66.3971 138.409L74.1953 133.907V142.912C74.1953 145.339 76.1629 147.306 78.5899 147.306C81.0168 147.306 82.9844 145.339 82.9844 142.912V133.906L90.7832 138.409C91.4752 138.808 92.2311 138.998 92.9764 138.998C94.4951 138.998 95.9723 138.21 96.7862 136.8C97.9996 134.699 97.2795 132.011 95.1778 130.797L87.3795 126.295L95.1778 121.793C97.2801 120.58 98.0002 117.892 96.7862 115.791Z" fill="black"/>
<path d="M143.177 115.791C141.963 113.689 139.276 112.97 137.174 114.183L129.375 118.685V109.68C129.375 107.252 127.407 105.285 124.98 105.285C122.554 105.285 120.586 107.252 120.586 109.68V118.684L112.788 114.182C110.686 112.969 107.998 113.688 106.785 115.79C105.571 117.892 106.291 120.58 108.393 121.793L116.191 126.296L108.393 130.798C106.291 132.012 105.571 134.699 106.785 136.801C107.599 138.211 109.076 138.999 110.595 138.999C111.34 138.999 112.096 138.809 112.788 138.409L120.586 133.907V142.912C120.586 145.339 122.554 147.306 124.98 147.306C127.407 147.306 129.375 145.339 129.375 142.912V133.906L137.174 138.409C137.866 138.808 138.622 138.998 139.367 138.998C140.886 138.998 142.363 138.21 143.177 136.8C144.39 134.699 143.67 132.011 141.568 130.797L133.77 126.295L141.568 121.793C143.67 120.58 144.39 117.892 143.177 115.791Z" fill="black"/>
<path d="M188.084 130.799L180.286 126.296L188.084 121.794C190.186 120.58 190.906 117.893 189.692 115.791C188.479 113.689 185.791 112.97 183.689 114.183L175.891 118.685V109.68C175.891 107.252 173.923 105.285 171.496 105.285C169.069 105.285 167.102 107.252 167.102 109.68V118.684L159.303 114.182C157.201 112.969 154.514 113.688 153.3 115.79C152.087 117.892 152.807 120.58 154.909 121.793L162.707 126.296L154.909 130.798C152.807 132.012 152.087 134.699 153.3 136.801C154.114 138.211 155.591 138.999 157.11 138.999C157.855 138.999 158.611 138.809 159.303 138.409L167.102 133.907V142.912C167.102 145.339 169.069 147.306 171.496 147.306C173.923 147.306 175.891 145.339 175.891 142.912V133.906L183.689 138.409C184.381 138.808 185.137 138.998 185.883 138.998C187.401 138.998 188.879 138.21 189.692 136.8C190.906 134.7 190.186 132.012 188.084 130.799Z" fill="black"/>
<path d="M277.461 0.605469H268.246C265.819 0.605469 263.851 2.57246 263.851 5C263.851 7.42754 265.819 9.39453 268.246 9.39453H277.461C285.043 9.39453 291.211 15.5621 291.211 23.1441V50.6779H8.78906V23.1441C8.78906 15.5627 14.9572 9.39453 22.5387 9.39453H245.921C248.348 9.39453 250.316 7.42754 250.316 5C250.316 2.57246 248.348 0.605469 245.921 0.605469H22.5387C10.1109 0.605469 0 10.7164 0 23.1441V206.925C0 219.353 10.1109 229.464 22.5387 229.464H145.345L158.994 266.139C159.799 268.3 161.623 269.882 163.875 270.372C166.129 270.866 168.445 270.183 170.074 268.553L184.907 253.72L200.006 268.82C201.434 270.248 203.309 270.961 205.184 270.961C207.06 270.961 208.935 270.247 210.364 268.82L219.703 259.481C221.086 258.098 221.848 256.258 221.848 254.302C221.848 252.345 221.087 250.506 219.703 249.123L204.605 234.024L219.437 219.192C221.067 217.562 221.747 215.245 221.256 212.993C220.766 210.741 219.183 208.916 217.022 208.111L139.598 179.296C136.88 178.285 133.917 178.931 131.865 180.982C129.813 183.034 129.168 185.997 130.179 188.715L142.074 220.676H22.5387C14.9572 220.675 8.78906 214.507 8.78906 206.926V59.467H291.211V206.925C291.211 214.507 285.043 220.675 277.461 220.675H235.62C233.193 220.675 231.226 222.642 231.226 225.069C231.226 227.497 233.193 229.464 235.62 229.464H277.461C289.889 229.464 300 219.353 300 206.925V23.1441C300 10.7164 289.889 0.605469 277.461 0.605469ZM210.963 215.233L195.281 230.915C193.565 232.632 193.565 235.414 195.281 237.13L212.451 254.301L205.184 261.568L188.013 244.397C187.189 243.573 186.071 243.11 184.906 243.11C183.741 243.11 182.623 243.573 181.799 244.397L166.117 260.08L139.533 188.649L210.963 215.233Z" fill="black"/>
</svg>
