<svg xmlns="http://www.w3.org/2000/svg" width="300" height="242" viewBox="0 0 300 242" fill="none">
  <path d="M234.083 206.636H30.7618C28.3348 206.636 26.3672 208.603 26.3672 211.03C26.3672 213.457 28.3348 215.425 30.7618 215.425H234.083C236.509 215.425 238.477 213.457 238.477 211.03C238.477 208.603 236.509 206.636 234.083 206.636ZM234.083 189.057H30.7618C28.3348 189.057 26.3672 191.025 26.3672 193.452C26.3672 195.879 28.3348 197.846 30.7618 197.846H234.083C236.509 197.846 238.477 195.879 238.477 193.452C238.477 191.025 236.509 189.057 234.083 189.057ZM260.45 131.783C258.023 131.783 256.055 133.751 256.055 136.178V219.819C256.055 227.089 250.141 233.003 242.872 233.003H21.9727C14.703 233.003 8.78908 227.089 8.78908 219.819V79.4142C8.78908 72.1445 14.703 66.2306 21.9727 66.2306H159.285C161.711 66.2306 163.679 64.263 163.679 61.8361C163.679 59.4091 161.711 57.4415 159.285 57.4415H21.9727C9.85666 57.4415 0 67.2982 0 79.4142V219.819C0 231.935 9.85666 241.792 21.9727 241.792H242.872C254.988 241.792 264.844 231.935 264.844 219.819V136.178C264.844 133.751 262.877 131.783 260.45 131.783ZM236.235 0.605469C201.074 0.605469 172.468 29.211 172.468 64.3714C172.468 71.1472 173.535 77.6775 175.501 83.8088H145.02C142.593 83.8088 140.625 85.7763 140.625 88.2033C140.625 90.6302 142.593 92.5978 145.02 92.5978H179.067C180.593 95.6752 182.357 98.6143 184.34 101.387H145.02C142.593 101.387 140.625 103.354 140.625 105.781C140.625 108.208 142.593 110.176 145.02 110.176H191.92C203.402 121.288 219.032 128.138 236.234 128.138C271.395 128.138 300 99.5324 300 64.3714C300.001 29.211 271.395 0.605469 236.235 0.605469ZM236.235 119.349C205.92 119.349 181.257 94.6861 181.257 64.3714C181.257 34.0573 205.92 9.39455 236.235 9.39455C266.549 9.39455 291.212 34.0573 291.212 64.3714C291.212 94.6861 266.549 119.349 236.235 119.349ZM42.3722 179.438C43.7116 179.812 45.7589 180.207 48.3399 180.268H100.855C112.033 180.487 123.058 170.501 122.827 158.296V105.781C122.827 93.6654 112.971 83.8088 100.855 83.8088H48.3399C36.2239 83.8088 26.3672 93.6654 26.3672 105.781V158.296C26.3672 168.343 33.1483 176.831 42.3722 179.438ZM48.8655 171.479C52.3607 160.478 62.7365 152.629 74.597 152.629C86.4582 152.629 96.834 160.478 100.329 171.479H48.8655ZM57.7648 127.008C57.7648 117.727 65.3158 110.176 74.597 110.176C83.8783 110.176 91.4293 117.727 91.4293 127.008C91.4293 136.29 83.8783 143.841 74.597 143.841C65.3158 143.841 57.7648 136.289 57.7648 127.008ZM35.1563 105.781C35.1563 98.5117 41.0702 92.5978 48.3399 92.5978H100.855C108.124 92.5978 114.038 98.5117 114.038 105.781V158.296C114.038 162.62 111.945 166.465 108.719 168.871C105.713 159.375 98.8484 151.646 90.0834 147.402C96.2363 142.718 100.218 135.32 100.218 127.008C100.218 112.881 88.7246 101.387 74.597 101.387C60.4695 101.387 48.9757 112.881 48.9757 127.008C48.9757 135.32 52.9571 142.718 59.1107 147.402C50.3462 151.646 43.4813 159.375 40.4761 168.871C37.2499 166.465 35.1563 162.62 35.1563 158.296V105.781ZM258.165 48.9448L227.678 79.4312C227.252 79.8572 226.56 79.8572 226.133 79.4312L214.304 67.6023C212.588 65.8861 209.805 65.8861 208.09 67.6023C206.373 69.3185 206.373 72.1011 208.09 73.8167L219.919 85.6457C221.845 87.5722 224.375 88.5355 226.906 88.5355C229.437 88.5355 231.967 87.5722 233.893 85.6457L264.38 55.1593C266.096 53.4431 266.096 50.6604 264.38 48.9448C262.663 47.2286 259.88 47.2286 258.165 48.9448ZM234.083 153.901H145.02C142.593 153.901 140.625 155.869 140.625 158.296C140.625 160.723 142.593 162.69 145.02 162.69H234.083C236.509 162.69 238.477 160.723 238.477 158.296C238.477 155.869 236.509 153.901 234.083 153.901ZM234.083 171.479H145.02C142.593 171.479 140.625 173.447 140.625 175.874C140.625 178.301 142.593 180.268 145.02 180.268H234.083C236.509 180.268 238.477 178.301 238.477 175.874C238.477 173.447 236.509 171.479 234.083 171.479Z" fill="black"/>
</svg>