<svg width="300" height="340" viewBox="0 0 300 340" fill="none" xmlns="http://www.w3.org/2000/svg">
<path d="M129.896 9.94907H212.805C222.258 9.94907 229.948 17.6397 229.948 27.0926V205.754C229.948 208.501 232.175 210.729 234.923 210.729C237.67 210.729 239.897 208.501 239.897 205.754V27.0926C239.897 12.1538 227.743 0 212.805 0H129.896C127.149 0 124.922 2.22726 124.922 4.97453C124.922 7.7218 127.149 9.94907 129.896 9.94907Z" fill="black"/>
<path d="M160.809 304.924H27.0926C17.6397 304.924 9.9484 297.233 9.9484 287.779V27.0926C9.94907 17.6397 17.6397 9.94907 27.0926 9.94907H110.001C112.748 9.94907 114.975 7.7218 114.975 4.97453C114.975 2.22726 112.748 0 110.001 0H27.0926C12.1538 0 0 12.1538 0 27.0926V287.779C0 302.718 12.1538 314.873 27.0933 314.873H160.809C163.557 314.873 165.784 312.645 165.784 309.898C165.784 307.151 163.557 304.924 160.809 304.924Z" fill="black"/>
<path d="M144.301 62.4763C147.048 62.4763 149.275 60.249 149.275 57.5018V51.3924H155.385C158.132 51.3924 160.359 49.1651 160.359 46.4178C160.359 43.6706 158.132 41.4433 155.385 41.4433H149.275V35.3339C149.275 32.5866 147.048 30.3594 144.301 30.3594C141.553 30.3594 139.326 32.5866 139.326 35.3339V41.4433H133.217C130.469 41.4433 128.242 43.6706 128.242 46.4178C128.242 49.1651 130.469 51.3924 133.217 51.3924H139.326V57.5018C139.326 60.249 141.553 62.4763 144.301 62.4763Z" fill="black"/>
<path d="M112.248 86.943C109.501 86.943 107.273 89.1703 107.273 91.9175C107.273 94.6648 109.501 96.8921 112.248 96.8921H127.65C130.397 96.8921 132.624 94.6648 132.624 91.9175C132.624 89.1703 130.397 86.943 127.65 86.943H124.924V53.873C124.924 51.1257 122.696 48.8984 119.949 48.8984H112.249C109.501 48.8984 107.274 51.1257 107.274 53.873C107.274 56.6202 109.501 58.8475 112.249 58.8475H114.975V86.943H112.248Z" fill="black"/>
<path d="M75.2812 72.8912C75.2812 97.5198 95.3173 117.556 119.946 117.556C144.574 117.556 164.611 97.5198 164.611 72.8912C164.611 70.144 162.383 67.9167 159.636 67.9167C156.889 67.9167 154.662 70.144 154.662 72.8912C154.662 92.0332 139.088 107.607 119.946 107.607C100.804 107.607 85.2303 92.0332 85.2303 72.8912C85.2303 53.7492 100.803 38.1756 119.946 38.1756C122.693 38.1756 124.92 35.9484 124.92 33.2011C124.92 30.4538 122.693 28.2266 119.946 28.2266C95.3173 28.2272 75.2812 48.2633 75.2812 72.8912Z" fill="black"/>
<path d="M295.027 266.966C297.775 266.966 300.002 264.739 300.002 261.992V238.782C300.002 228.793 292.327 220.696 282.528 220.347C277.241 220.15 272.243 222.319 268.734 225.993C265.388 222.456 260.673 220.336 255.559 220.336C250.456 220.336 245.748 222.449 242.403 225.973C239.059 222.449 234.351 220.336 229.247 220.336C226.306 220.336 223.525 221.04 221.066 222.288V193.963C221.066 183.974 213.391 175.877 203.591 175.528C198.63 175.345 193.918 177.153 190.346 180.6C186.977 183.852 185.037 188.156 184.826 192.799H41.7885C36.1195 192.799 31.5078 197.41 31.5078 203.079V223.369C31.5078 229.038 36.1195 233.649 41.7885 233.649H184.805V260.429L171.467 244.534C168.161 240.593 163.586 238.302 158.588 238.084C153.587 237.866 148.832 239.749 145.195 243.387C137.946 250.636 137.41 262.923 143.999 270.776L184.805 319.406V327.865C184.805 334.332 190.067 339.594 196.534 339.594H262.282C283.081 339.594 300.003 322.673 300.003 301.874V281.89C300.003 279.143 297.775 276.915 295.028 276.915C292.281 276.915 290.053 279.143 290.053 281.89V301.874C290.053 317.187 277.595 329.645 262.282 329.645H196.534C195.553 329.645 194.754 328.846 194.754 327.865V317.596C194.754 316.426 194.342 315.294 193.59 314.398L151.62 264.38C148.318 260.446 148.598 254.053 152.23 250.421C153.871 248.779 155.98 247.929 158.154 248.023C160.332 248.118 162.354 249.15 163.846 250.928L185.969 277.293C187.313 278.895 189.516 279.485 191.481 278.77C193.446 278.055 194.754 276.187 194.754 274.096V193.648C194.754 191.407 195.642 189.316 197.255 187.76C198.867 186.204 200.997 185.39 203.239 185.471C207.583 185.626 211.117 189.436 211.117 193.963V238.467C211.117 241.214 213.344 243.441 216.091 243.441C218.839 243.441 221.066 241.214 221.066 238.467C221.066 233.955 224.737 230.285 229.247 230.285C232.8 230.285 235.927 232.552 237.028 235.924C237.789 238.258 239.949 239.827 242.402 239.828H242.403C244.856 239.828 247.016 238.26 247.779 235.924C248.88 232.552 252.007 230.285 255.559 230.285C259.109 230.285 262.235 232.55 263.338 235.92C264.1 238.251 266.257 239.818 268.705 239.819C268.705 239.819 268.707 239.819 268.708 239.819C271.163 239.819 273.327 238.249 274.095 235.911C275.225 232.473 278.534 230.163 282.174 230.291C286.518 230.445 290.052 234.255 290.052 238.782V261.992C290.053 264.74 292.28 266.966 295.027 266.966ZM41.7885 223.701C41.6088 223.701 41.4569 223.549 41.4569 223.369V203.08C41.4569 202.903 41.6121 202.748 41.7885 202.748H184.805V223.701H41.7885Z" fill="black"/>
<path d="M82.6082 286.864C91.116 286.864 98.0372 279.943 98.0372 271.435V263.742C98.0372 255.234 91.116 248.312 82.6082 248.312H46.9368C38.429 248.312 31.5078 255.234 31.5078 263.742V271.435C31.5078 279.943 38.429 286.864 46.9368 286.864H82.6082ZM41.4575 271.435V263.742C41.4575 260.72 43.9156 258.262 46.9375 258.262H82.6089C85.6307 258.262 88.0888 260.72 88.0888 263.742V271.435C88.0888 274.457 85.6307 276.915 82.6089 276.915H46.9375C43.9156 276.915 41.4575 274.457 41.4575 271.435Z" fill="black"/>
<path d="M41.7885 133.695C36.1195 133.695 31.5078 138.307 31.5078 143.976V164.265C31.5078 169.934 36.1195 174.546 41.7885 174.546H198.108C203.777 174.546 208.389 169.934 208.389 164.265V143.976C208.389 138.307 203.777 133.695 198.108 133.695H41.7885ZM198.44 143.976V164.265C198.44 164.449 198.291 164.597 198.108 164.597H41.7885C41.6055 164.597 41.4569 164.449 41.4569 164.265V143.976C41.4569 143.793 41.6055 143.644 41.7885 143.644H198.108C198.291 143.644 198.44 143.793 198.44 143.976Z" fill="black"/>
<path d="M56.1683 208.25H54.8417C52.0945 208.25 49.8672 210.477 49.8672 213.225C49.8672 215.972 52.0945 218.199 54.8417 218.199H56.1683C58.9155 218.199 61.1428 215.972 61.1428 213.225C61.1428 210.477 58.9155 208.25 56.1683 208.25Z" fill="black"/>
<path d="M76.512 208.25H75.1855C72.4382 208.25 70.2109 210.477 70.2109 213.225C70.2109 215.972 72.4382 218.199 75.1855 218.199H76.512C79.2593 218.199 81.4865 215.972 81.4865 213.225C81.4865 210.477 79.2593 208.25 76.512 208.25Z" fill="black"/>
<path d="M96.8479 208.25H95.5214C92.7741 208.25 90.5469 210.477 90.5469 213.225C90.5469 215.972 92.7741 218.199 95.5214 218.199H96.8479C99.5952 218.199 101.822 215.972 101.822 213.225C101.822 210.477 99.5952 208.25 96.8479 208.25Z" fill="black"/>
<path d="M117.192 208.25H115.865C113.118 208.25 110.891 210.477 110.891 213.225C110.891 215.972 113.118 218.199 115.865 218.199H117.192C119.939 218.199 122.166 215.972 122.166 213.225C122.166 210.477 119.939 208.25 117.192 208.25Z" fill="black"/>
<path d="M137.535 208.25H136.209C133.462 208.25 131.234 210.477 131.234 213.225C131.234 215.972 133.462 218.199 136.209 218.199H137.535C140.283 218.199 142.51 215.972 142.51 213.225C142.51 210.477 140.283 208.25 137.535 208.25Z" fill="black"/>
</svg>
