<svg width="300" height="310" viewBox="0 0 300 310" fill="none" xmlns="http://www.w3.org/2000/svg">
<path d="M194.816 113.869L180.679 127.325C178.815 129.098 178.815 131.973 180.679 133.746C181.611 134.633 182.832 135.076 184.053 135.076C185.273 135.076 186.495 134.633 187.427 133.746L201.564 120.29C203.427 118.516 203.427 115.641 201.563 113.868C199.7 112.096 196.679 112.096 194.816 113.869Z" fill="black"/>
<path d="M232.92 104.533L208.96 127.337C207.097 129.111 207.097 131.986 208.96 133.76C209.892 134.646 211.113 135.089 212.334 135.089C213.555 135.089 214.776 134.646 215.708 133.76L239.668 110.955C241.532 109.181 241.532 106.306 239.668 104.533C237.804 102.76 234.783 102.76 232.92 104.533Z" fill="black"/>
<path d="M98.4292 113.868C96.5654 115.642 96.5654 118.517 98.4286 120.29L112.566 133.746C113.497 134.633 114.718 135.076 115.94 135.076C117.16 135.076 118.382 134.633 119.313 133.746C121.177 131.973 121.177 129.098 119.314 127.325L105.177 113.869C103.313 112.096 100.292 112.096 98.4292 113.868Z" fill="black"/>
<path d="M60.3349 110.955L84.295 133.76C85.227 134.646 86.4484 135.089 87.6691 135.089C88.8899 135.089 90.1113 134.646 91.0432 133.76C92.9065 131.986 92.9065 129.111 91.0432 127.337L67.083 104.533C65.2191 102.76 62.1987 102.76 60.3355 104.533C58.4716 106.307 58.4716 109.181 60.3349 110.955Z" fill="black"/>
<path d="M244.912 58.363C247.547 58.363 249.683 56.3304 249.683 53.822V47.705C249.683 45.1966 247.547 43.1641 244.912 43.1641C242.276 43.1641 240.141 45.1966 240.141 47.705V53.822C240.141 56.3298 242.277 58.363 244.912 58.363Z" fill="black"/>
<path d="M253.06 66.1522H259.486C262.122 66.1522 264.257 64.1197 264.257 61.6113C264.257 59.1028 262.122 57.0703 259.486 57.0703H253.06C250.425 57.0703 248.289 59.1028 248.289 61.6113C248.289 64.1197 250.425 66.1522 253.06 66.1522Z" fill="black"/>
<path d="M244.912 80.042C247.547 80.042 249.683 78.0095 249.683 75.5011V69.3847C249.683 66.8763 247.547 64.8438 244.912 64.8438C242.276 64.8438 240.141 66.8763 240.141 69.3847V75.5011C240.141 78.0089 242.277 80.042 244.912 80.042Z" fill="black"/>
<path d="M230.318 66.1522H236.744C239.38 66.1522 241.515 64.1197 241.515 61.6113C241.515 59.1028 239.38 57.0703 236.744 57.0703H230.318C227.682 57.0703 225.547 59.1028 225.547 61.6113C225.547 64.1197 227.682 66.1522 230.318 66.1522Z" fill="black"/>
<path d="M63.0679 51.0967C65.7034 51.0967 67.839 49.0642 67.839 46.5558V40.4394C67.839 37.931 65.7034 35.8984 63.0679 35.8984C60.4324 35.8984 58.2969 37.931 58.2969 40.4394V46.5558C58.2969 49.0636 60.433 51.0967 63.0679 51.0967Z" fill="black"/>
<path d="M48.4898 58.8475H54.9161C57.5516 58.8475 59.6871 56.815 59.6871 54.3066C59.6871 51.7982 57.5516 49.7656 54.9161 49.7656H48.4898C45.8543 49.7656 43.7188 51.7982 43.7188 54.3066C43.7188 56.815 45.8543 58.8475 48.4898 58.8475Z" fill="black"/>
<path d="M67.839 68.1958V62.08C67.839 59.5716 65.7034 57.5391 63.0679 57.5391C60.4324 57.5391 58.2969 59.5716 58.2969 62.08V68.1964C58.2969 70.7048 60.4324 72.7373 63.0679 72.7373C65.7034 72.7373 67.839 70.7042 67.839 68.1958Z" fill="black"/>
<path d="M71.2242 58.8475H77.6511C80.2866 58.8475 82.4221 56.815 82.4221 54.3066C82.4221 51.7982 80.2866 49.7656 77.6511 49.7656H71.2242C68.5886 49.7656 66.4531 51.7982 66.4531 54.3066C66.4531 56.815 68.5886 58.8475 71.2242 58.8475Z" fill="black"/>
<path d="M298.603 99.1746L287.036 88.1655C285.172 86.3933 282.152 86.3921 280.289 88.1655L214.854 150.444H85.1465L19.7119 88.1661C17.848 86.3933 14.8276 86.3933 12.9644 88.1661L1.39744 99.1752C-0.465813 100.949 -0.465813 103.824 1.39744 105.597L55.2645 156.867V261.849C55.2645 264.357 57.4 266.39 60.0355 266.39C62.671 266.39 64.8065 264.357 64.8065 261.849V159.526H132.377V300.901H64.8065V283.126C64.8065 280.618 62.671 278.585 60.0355 278.585C57.4 278.585 55.2645 280.618 55.2645 283.126V305.442C55.2645 307.95 57.4 309.983 60.0355 309.983H239.965C242.601 309.983 244.736 307.95 244.736 305.442V206.179C244.736 203.671 242.601 201.638 239.965 201.638C237.329 201.638 235.194 203.671 235.194 206.179V300.901H167.623V159.526H235.194V184.869C235.194 187.377 237.329 189.41 239.965 189.41C242.601 189.41 244.736 187.377 244.736 184.869V156.866L298.603 105.597C300.466 103.823 300.466 100.949 298.603 99.1746ZM16.3384 97.799L71.6508 150.444H62.0126L11.5191 102.386L16.3384 97.799ZM158.081 300.901H141.919V159.526H158.081V300.901ZM237.988 150.444H228.35L283.662 97.799L288.481 102.386L237.988 150.444Z" fill="black"/>
<path d="M154.285 79.5206H144.432C140.684 79.5206 137.636 76.6193 137.636 73.0525C137.636 70.5441 135.5 68.5115 132.865 68.5115C130.229 68.5115 128.094 70.5441 128.094 73.0525C128.094 81.6264 135.423 88.6025 144.432 88.6025H145.23V96.2937C145.23 98.8021 147.366 100.835 150.001 100.835C152.637 100.835 154.772 98.8021 154.772 96.2937V88.5904C164.265 88.3434 171.908 80.9223 171.908 71.8288C171.908 62.5804 164.003 55.0558 154.286 55.0558H145.717C141.261 55.0558 137.636 51.6052 137.636 47.364C137.636 43.1227 141.261 39.6728 145.717 39.6728H155.571C159.318 39.6728 162.366 42.5748 162.366 46.1416C162.366 48.65 164.502 50.6825 167.137 50.6825C169.773 50.6825 171.908 48.65 171.908 46.1416C171.908 37.567 164.58 30.5909 155.571 30.5909H154.772V22.9003C154.772 20.3919 152.637 18.3594 150.001 18.3594C147.366 18.3594 145.23 20.3919 145.23 22.9003V30.6036C135.738 30.8506 128.094 38.2718 128.094 47.3652C128.094 56.6142 136 64.1389 145.717 64.1389H154.285C158.741 64.1389 162.366 67.5888 162.366 71.8301C162.366 76.0713 158.741 79.5206 154.285 79.5206Z" fill="black"/>
<path d="M149.996 119.172C184.518 119.172 212.602 92.4424 212.602 59.5864C212.602 26.7299 184.518 0 149.996 0C137.536 0 125.499 3.47595 115.187 10.0531C112.998 11.4493 112.413 14.2695 113.879 16.3529C115.345 18.4363 118.31 18.9945 120.498 17.5977C129.233 12.0263 139.434 9.08191 149.996 9.08191C179.256 9.08191 203.06 31.7383 203.06 59.5864C203.06 87.4346 179.256 110.09 149.996 110.09C120.737 110.09 96.9327 87.4346 96.9327 59.5864C96.9327 49.4843 100.054 39.737 105.96 31.398C107.432 29.3176 106.855 26.4956 104.671 25.0945C102.485 23.6929 99.5205 24.2427 98.0479 26.3212C91.0758 36.166 87.3906 47.6692 87.3906 59.5858C87.3906 92.4424 115.475 119.172 149.996 119.172Z" fill="black"/>
<path d="M94.2404 7.33898C93.0748 6.736 91.6159 7.14622 90.9821 8.25569L88.882 11.9322L86.7978 8.26106C86.1671 7.14987 84.7094 6.73611 83.5421 7.33624C82.3747 7.93659 81.9398 9.32388 82.5705 10.435L85.1339 14.9502L82.5705 19.4655C81.9398 20.5766 82.3749 21.9639 83.5421 22.5642C83.9052 22.751 84.2964 22.8395 84.6821 22.8395C85.5362 22.8394 86.3633 22.4048 86.7978 21.6394L88.882 17.9682L90.9821 21.6448C91.6159 22.754 93.0747 23.1645 94.2404 22.5615C95.4061 21.9583 95.8373 20.5697 95.2035 19.4603L92.6272 14.9503L95.2035 10.4404C95.8373 9.33074 95.4061 7.9423 94.2404 7.33898ZM110.751 18.2658H104.265C104.268 18.204 104.29 18.1103 104.37 17.9999C106.969 14.0267 112.697 11.1598 112.793 6.41713C112.523 0.0079525 105.209 -1.61646 101.083 1.61659C100.532 2.03562 100.18 2.6801 100.18 3.40279C100.161 5.31429 102.57 6.38706 104.097 5.17789C104.147 5.14177 104.983 4.5461 106.006 4.5461C107.099 4.5461 107.988 5.3854 107.988 6.41701C107.988 7.42347 106.491 8.88199 104.906 10.4261C103.474 11.8208 101.851 13.4015 100.403 15.4197C98.1308 18.4775 100.181 22.8789 104.222 22.8391H110.751C113.935 22.7266 113.933 18.3772 110.751 18.2658Z" fill="black"/>
</svg>
