<svg width="300" height="312" viewBox="0 0 300 312" fill="none" xmlns="http://www.w3.org/2000/svg">
<path d="M152.311 0H22.3758C10.0384 0 0.000608781 10.0408 0.000608781 22.3819V229.152C0.000608781 232.513 2.72563 235.237 6.08596 235.237C9.44629 235.237 12.1713 232.513 12.1713 229.152V22.3819C12.1713 16.7518 16.7487 12.1707 22.3765 12.1707H37.9373C37.961 12.1707 37.9842 12.1744 38.0079 12.1744C43.1865 12.1744 47.8759 15.8365 49.6772 21.2866C53.13 31.7321 62.4637 38.7497 72.9025 38.7497H101.785C112.224 38.7497 121.557 31.7315 125.01 21.286C126.811 15.8359 131.501 12.1737 136.679 12.1737C136.703 12.1737 136.726 12.1707 136.75 12.1701H152.312C157.943 12.1701 162.523 16.7505 162.523 22.3813V142.681L147.203 151.872C145.367 152.974 144.245 154.959 144.249 157.101V157.103V157.104C144.253 159.246 145.382 161.227 147.222 162.323L162.524 171.429V289.194C162.524 294.821 157.943 299.399 152.313 299.399H22.3758C16.7487 299.399 12.1707 294.821 12.1707 289.194V282.688C12.1707 279.327 9.44569 276.602 6.08535 276.602C2.72502 276.602 0 279.327 0 282.688V289.194C0 301.532 10.0378 311.57 22.3758 311.57H152.311C164.652 311.57 174.693 301.532 174.693 289.194V183.573C177.925 190.493 182.359 196.852 187.785 202.278C200.604 215.097 217.441 221.506 234.279 221.506C251.117 221.506 267.955 215.097 280.773 202.278C306.409 176.641 306.409 134.928 280.773 109.291C255.136 83.6554 213.422 83.6547 187.785 109.291C182.337 114.739 177.916 121.071 174.692 127.98V22.3819C174.693 10.0408 164.652 0 152.311 0ZM113.453 17.4674C111.652 22.9174 106.962 26.5796 101.784 26.5796H72.9013C67.7227 26.5796 63.0333 22.9174 61.232 17.4674C60.6101 15.5846 59.7965 13.8138 58.8198 12.175H115.865C114.889 13.8131 114.075 15.5846 113.453 17.4674ZM182.261 142.941C184.588 133.475 189.474 124.815 196.392 117.898C217.284 97.0066 251.276 97.0066 272.167 117.898C293.058 138.789 293.058 172.781 272.167 193.673C251.277 214.564 217.284 214.565 196.392 193.673C190.158 187.438 185.524 179.702 182.992 171.299C182.517 169.723 181.438 168.444 180.044 167.697L162.197 157.072L179.256 146.836C180.74 146.03 181.846 144.628 182.261 142.941Z" fill="black"/>
<path d="M68.3354 271.625C64.975 271.625 62.25 274.349 62.25 277.71C62.25 281.071 64.975 283.796 68.3354 283.796H106.353C109.713 283.796 112.438 281.071 112.438 277.71C112.438 274.349 109.713 271.625 106.353 271.625H68.3354Z" fill="black"/>
<path d="M54.2956 88.2305H29.8197C26.4594 88.2305 23.7344 90.9549 23.7344 94.3158V118.792C23.7344 122.153 26.4594 124.878 29.8197 124.878C33.1801 124.878 35.9051 122.153 35.9051 118.792V100.401H54.2962C57.6566 100.401 60.3816 97.6768 60.3816 94.3158C60.3816 90.9549 57.6566 88.2305 54.2956 88.2305Z" fill="black"/>
<path d="M23.7344 215.975C23.7344 219.336 26.4594 222.061 29.8197 222.061H54.2962C57.6566 222.061 60.3816 219.336 60.3816 215.975C60.3816 212.614 57.6566 209.89 54.2962 209.89H35.9051V191.499C35.9051 188.138 33.1801 185.414 29.8197 185.414C26.4594 185.414 23.7344 188.138 23.7344 191.499V215.975Z" fill="black"/>
<path d="M151.03 118.792V94.3158C151.03 90.9549 148.305 88.2305 144.945 88.2305H120.468C117.108 88.2305 114.383 90.9549 114.383 94.3158C114.383 97.6768 117.108 100.401 120.468 100.401H138.859V118.792C138.859 122.153 141.584 124.878 144.945 124.878C148.305 124.878 151.03 122.153 151.03 118.792Z" fill="black"/>
<path d="M120.468 222.061H144.945C148.305 222.061 151.03 219.336 151.03 215.975V191.499C151.03 188.138 148.305 185.414 144.945 185.414C141.584 185.414 138.859 188.138 138.859 191.499V209.89H120.468C117.108 209.89 114.383 212.614 114.383 215.975C114.383 219.336 117.107 222.061 120.468 222.061Z" fill="black"/>
<path d="M78.2762 111.84H52.226C48.8656 111.84 46.1406 114.564 46.1406 117.925V144.138C46.1406 147.499 48.8656 150.223 52.226 150.223H78.2762C81.6365 150.223 84.3615 147.499 84.3615 144.138V117.925C84.3615 114.564 81.6365 111.84 78.2762 111.84ZM72.1908 138.053H58.3113V124.011H72.1908V138.053Z" fill="black"/>
<path d="M95.4849 117.925V162.747H74.2963C70.936 162.747 68.2109 165.472 68.2109 168.833C68.2109 172.194 70.936 174.918 74.2963 174.918H101.57C104.931 174.918 107.656 172.194 107.656 168.833V124.011H116.444V138.463C116.444 141.824 119.169 144.548 122.529 144.548C125.89 144.548 128.615 141.824 128.615 138.463V117.925C128.615 114.564 125.89 111.84 122.529 111.84H101.57C98.2093 111.84 95.4849 114.564 95.4849 117.925Z" fill="black"/>
<path d="M128.616 192.367C128.616 189.007 125.891 186.282 122.531 186.282H58.3113V169.992C58.3113 166.631 55.5863 163.906 52.226 163.906C48.8656 163.906 46.1406 166.631 46.1406 169.992V192.367C46.1406 195.728 48.8656 198.453 52.226 198.453H122.531C125.892 198.453 128.616 195.728 128.616 192.367Z" fill="black"/>
<path d="M128.624 170.645V162.371C128.624 159.01 125.899 156.285 122.538 156.285C119.178 156.285 116.453 159.01 116.453 162.371V170.645C116.453 174.006 119.178 176.731 122.538 176.731C125.899 176.731 128.624 174.006 128.624 170.645Z" fill="black"/>
<path d="M217.722 184.372C221.903 187.077 225.065 188.255 228.793 188.726V189.225C228.793 192.466 231.239 195.296 234.473 195.506C238.017 195.736 240.964 192.929 240.964 189.434V188.105C249.049 185.654 254.22 178.568 255.396 171.579C256.973 162.197 251.886 153.721 242.739 150.487C235.942 148.085 231.821 146.171 229.376 144.281C227.996 143.215 228.065 141.572 228.228 140.687C228.525 139.074 229.759 136.924 232.252 136.173C237.821 134.496 241.356 137.322 241.74 137.649L242.995 138.614C245.389 140.457 248.783 140.219 250.897 138.061C253.116 135.795 253.176 132.189 251.031 129.851L249.909 128.627C248.19 127.042 245.051 125.099 240.963 124.116V122.591C240.963 119.35 238.518 116.52 235.284 116.31C231.74 116.08 228.793 118.887 228.793 122.382V124.505C228.775 124.509 228.758 124.514 228.741 124.519C222.272 126.468 217.49 131.816 216.259 138.476C215.14 144.53 217.261 150.3 221.932 153.911C225.542 156.7 230.394 159.033 238.682 161.962C243.599 163.7 243.744 167.469 243.392 169.561C242.807 173.039 239.88 176.799 234.836 176.832C229.61 176.875 228.119 176.631 224.168 174.045C221.256 172.14 217.318 173.054 215.557 176.111C213.925 178.951 214.972 182.592 217.722 184.372Z" fill="black"/>
<path d="M0.117085 257.104C0.776128 260.351 4.01354 262.537 7.27346 261.881C10.5176 261.228 12.7004 257.983 12.0511 254.731C11.4018 251.481 8.14427 249.307 4.89469 249.954C1.65303 250.599 -0.541959 253.856 0.117085 257.104Z" fill="black"/>
</svg>
