<svg width="100" height="100" viewBox="0 0 100 100" fill="none" xmlns="http://www.w3.org/2000/svg">
<g clip-path="url(#clip0_3586_6470)">
<path d="M94.1116 48.5352H59.2972L62.2559 45.5765V33.7891H59.3262V44.3634L55.1544 48.5352H17.8925L13.7207 44.3634V7.10144L17.8925 2.92969H55.1544L59.3262 7.10144V29.8828H62.2559V5.88837L56.3675 0H16.6794L10.791 5.88837V45.5765L13.7497 48.5352H5.88837L0 54.4235V94.1116L5.88837 100H45.5765L50 95.5765L54.4235 100H94.1116L100 94.1116V54.4235L94.1116 48.5352ZM51.4938 51.4648L50 52.9587L48.5062 51.4648H51.4938ZM44.3634 97.0703H7.10144L2.92969 92.8986V55.6366L7.10144 51.4648H44.3634L48.5352 55.6366V92.8986L44.3634 97.0703ZM97.0703 92.8986L92.8986 97.0703H55.6366L51.4648 92.8986V55.6366L55.6366 51.4648H92.8986L97.0703 55.6366V92.8986Z" fill="black"/>
<path d="M7.91092 53.418L4.88281 56.4461V71.6797H7.8125V57.6591L9.12399 56.3477H42.3409L43.6523 57.6591V90.876L42.3409 92.1875H9.12399L7.8125 90.876V75.5859H4.88281V92.0891L7.91092 95.1172H43.5539L46.582 92.0891V56.4461L43.5539 53.418H7.91092Z" fill="black"/>
<path d="M17.125 81.3328V89.1453H35.9086V59.3906H17.125V67.2031H28.0961V70.3617H17.125V78.1742H28.0961V81.3328H17.125ZM20.0547 75.2445V73.2914H31.0258V64.2734H20.0547V62.3203H32.9789V86.2156H20.0547V84.2625H31.0258V75.2445H20.0547Z" fill="black"/>
<path d="M42.7318 42.7502V8.71094H33.765V11.266H30.3203V20.2336H33.765V42.7502H42.7318ZM33.25 17.3039V14.1957H36.6947V11.6406H39.8021V39.8206H36.6947V17.3039H33.25Z" fill="black"/>
<path d="M80.5726 74.5992V61.3477H67.3203V64.2773H77.6429V71.6695H67.3203V84.9217H80.5726V81.992H70.25V74.5992H80.5726Z" fill="black"/>
<path d="M74.271 53.5273C62.8353 53.5273 53.5312 62.8314 53.5312 74.2671C53.5312 85.7028 62.8353 95.0068 74.271 95.0068C79.0356 95.0068 83.6895 93.3497 87.3752 90.3422L85.5228 88.0725C82.3582 90.655 78.3626 92.0772 74.271 92.0772C64.4512 92.0772 56.4609 84.0876 56.4609 74.2671C56.4609 64.4465 64.4504 56.457 74.271 56.457C84.0916 56.457 92.0811 64.4465 92.0811 74.2671C92.0811 78.358 90.6589 82.3542 88.0764 85.5182L90.3461 87.3706C93.3536 83.6848 95.0107 79.0316 95.0107 74.2671C95.0107 62.8314 85.7067 53.5273 74.271 53.5273Z" fill="black"/>
<path d="M57.375 29.881H54.4453V18.2812H57.375V29.881ZM57.375 16.3281H54.4453V13.3984H57.375V16.3281ZM57.375 11.4453H54.4453V8.51562H57.375V11.4453Z" fill="black"/>
<path d="M41.6953 78.7109H38.7656V69.5313H41.6953V78.7109ZM41.6953 67.5781H38.7656V64.6484H41.6953V67.5781ZM41.6953 62.6953H38.7656V59.7656H41.6953V62.6953Z" fill="black"/>
<path d="M85.4776 85.479L83.4062 83.4076C85.8438 80.97 87.1859 77.7237 87.1859 74.2668C87.1859 73.8076 87.1614 73.3437 87.1126 72.8875L90.0263 72.5777C90.0858 73.1362 90.1155 73.7046 90.1155 74.2668C90.1155 78.5065 88.4684 82.4883 85.4776 85.479ZM86.8105 71.1602C86.6007 70.308 86.3039 69.4763 85.9278 68.6875L88.5714 67.4256C89.0337 68.3945 89.3984 69.4153 89.6555 70.4613L86.8105 71.1602ZM85.0672 67.1616C84.5873 66.433 84.0288 65.7479 83.4062 65.1261L85.4776 63.0547C86.2398 63.8169 86.9249 64.6569 87.5139 65.551L85.0672 67.1616Z" fill="black"/>
</g>
<defs>
<clipPath id="clip0_3586_6470">
<rect width="100" height="100" fill="white"/>
</clipPath>
</defs>
</svg>
