<svg xmlns="http://www.w3.org/2000/svg" width="129" height="128" viewBox="0 0 129 128" fill="none">
  <g clip-path="url(#clip0_3092_4186)">
    <path d="M120.525 62.125H75.9629L79.75 58.3379V43.25H76V56.7852L70.6602 62.125H22.9648L17.625 56.7852V9.08984L22.9648 3.75H70.6602L76 9.08984V38.25H79.75V7.53711L72.2129 0H21.4121L13.875 7.53711V58.3379L17.6621 62.125H7.59961L0.0625 69.6621V120.463L7.59961 128H58.4004L64.0625 122.338L69.7246 128H120.525L128.062 120.463V69.6621L120.525 62.125ZM65.9746 65.875L64.0625 67.7871L62.1504 65.875H65.9746ZM56.8477 124.25H9.15234L3.8125 118.91V71.2148L9.15234 65.875H56.8477L62.1875 71.2148V118.91L56.8477 124.25ZM124.312 118.91L118.973 124.25H71.2773L65.9375 118.91V71.2148L71.2773 65.875H118.973L124.312 71.2148V118.91Z" fill="black"/>
    <path d="M10.1885 68.375L6.3125 72.251V91.75H10.0625V73.8037L11.7412 72.125H54.2588L55.9375 73.8037V116.321L54.2588 118H11.7412L10.0625 116.321V96.75H6.3125V117.874L10.1885 121.75H55.8115L59.6875 117.874V72.251L55.8115 68.375H10.1885Z" fill="black"/>
    <path d="M21.9766 104.105V114.105H46.0195V76.0195H21.9766V86.0195H36.0195V90.0625H21.9766V100.062H36.0195V104.105H21.9766ZM25.7266 96.3125V93.8125H39.7695V82.2695H25.7266V79.7695H42.2695V110.355H25.7266V107.855H39.7695V96.3125H25.7266Z" fill="black"/>
    <path d="M54.7539 54.7227V11.1523H43.2764V14.4229H38.8672V25.9014H43.2764V54.7227H54.7539ZM42.6172 22.1514V18.1729H47.0264V14.9023H51.0039V50.9727H47.0264V22.1514H42.6172Z" fill="black"/>
    <path d="M103.197 95.4854V78.5234H86.2344V82.2734H99.4473V91.7354H86.2344V108.698H103.197V104.948H89.9844V95.4854H103.197Z" fill="black"/>
    <path d="M95.125 68.5156C80.4873 68.5156 68.5781 80.4248 68.5781 95.0625C68.5781 109.7 80.4873 121.609 95.125 121.609C101.224 121.609 107.181 119.488 111.898 115.639L109.527 112.733C105.477 116.039 100.362 117.859 95.125 117.859C82.5557 117.859 72.3281 107.633 72.3281 95.0625C72.3281 82.4922 82.5547 72.2656 95.125 72.2656C107.695 72.2656 117.922 82.4922 117.922 95.0625C117.922 100.299 116.102 105.414 112.796 109.464L115.701 111.835C119.551 107.117 121.672 101.161 121.672 95.0625C121.672 80.4248 109.763 68.5156 95.125 68.5156Z" fill="black"/>
    <path d="M73.5 38.25H69.75V23.4023H73.5V38.25ZM73.5 20.9023H69.75V17.1523H73.5V20.9023ZM73.5 14.6523H69.75V10.9023H73.5V14.6523Z" fill="black"/>
    <path d="M53.4375 100.75H49.6875V89H53.4375V100.75ZM53.4375 86.5H49.6875V82.75H53.4375V86.5ZM53.4375 80.25H49.6875V76.5H53.4375V80.25Z" fill="black"/>
    <path d="M109.479 109.414L106.828 106.763C109.948 103.643 111.666 99.4873 111.666 95.0625C111.666 94.4746 111.635 93.8809 111.572 93.2969L115.302 92.9004C115.378 93.6152 115.416 94.3428 115.416 95.0625C115.416 100.489 113.308 105.586 109.479 109.414ZM111.186 91.0859C110.917 89.9951 110.537 88.9307 110.056 87.9209L113.439 86.3057C114.031 87.5459 114.498 88.8525 114.827 90.1914L111.186 91.0859ZM108.954 85.9678C108.34 85.0352 107.625 84.1582 106.828 83.3623L109.479 80.7109C110.455 81.6865 111.332 82.7617 112.086 83.9063L108.954 85.9678Z" fill="black"/>
  </g>
  <defs>
    <clipPath id="clip0_3092_4186">
      <rect width="128" height="128" fill="white" transform="translate(0.0625)"/>
    </clipPath>
  </defs>
</svg>