<svg xmlns="http://www.w3.org/2000/svg" width="129" height="129" viewBox="0 0 129 129" fill="none">
  <path d="M127.884 124.653L107.409 104.473V78.523C107.409 77.1423 106.255 76.023 104.831 76.023C103.407 76.023 102.253 77.1423 102.253 78.523V99.3923L96.3135 93.539V31.5665H102.253V56.073C102.253 57.4538 103.407 58.573 104.831 58.573C106.255 58.573 107.409 57.4538 107.409 56.073V29.0665C107.409 28.7345 107.34 28.4058 107.208 28.0998L96.1133 2.4395C95.7116 1.51075 94.7746 0.90625 93.7365 0.90625C92.6981 0.90625 91.7608 1.5105 91.3591 2.439L80.2568 28.0993C80.1243 28.4055 80.0559 28.7345 80.0559 29.0665V77.516L38.3336 36.3975V3.40625C38.3336 2.0255 37.1795 0.90625 35.7557 0.90625H3.20287C1.77911 0.90625 0.625 2.0255 0.625 3.40625V126.406C0.625 127.787 1.77911 128.906 3.20287 128.906H126.047C127.086 128.906 128.023 128.302 128.425 127.372C128.826 126.443 128.613 125.371 127.884 124.653ZM33.1779 123.906H5.78074V116.604H14.0562C15.48 116.604 16.6341 115.485 16.6341 114.104C16.6341 112.723 15.48 111.604 14.0562 111.604H5.78074V104.302H19.4757C20.8994 104.302 22.0536 103.183 22.0536 101.802C22.0536 100.422 20.8994 99.3023 19.4757 99.3023H5.78074V92.0072H14.0562C15.48 92.0072 16.6341 90.888 16.6341 89.5072C16.6341 88.1265 15.48 87.0072 14.0562 87.0072H5.78074V79.7053H19.4757C20.8994 79.7053 22.0536 78.586 22.0536 77.2053C22.0536 75.8245 20.8994 74.7053 19.4757 74.7053H5.78074V67.4033H14.0562C15.48 67.4033 16.6341 66.284 16.6341 64.9033C16.6341 63.5225 15.48 62.4033 14.0562 62.4033H5.78074V55.1082H19.4757C20.8994 55.1082 22.0536 53.989 22.0536 52.6082C22.0536 51.2275 20.8994 50.1082 19.4757 50.1082H5.78074V42.8063H14.0562C15.48 42.8063 16.6341 41.687 16.6341 40.3063C16.6341 38.9255 15.48 37.8063 14.0562 37.8063H5.78074V30.5042H19.4757C20.8994 30.5042 22.0536 29.385 22.0536 28.0042C22.0536 26.6235 20.8994 25.5042 19.4757 25.5042H5.78074V18.2092H14.0562C15.48 18.2092 16.6341 17.09 16.6341 15.7093C16.6341 14.3285 15.48 13.2093 14.0562 13.2093H5.78074V5.90625H33.1779V123.906ZM93.7352 9.8695L100.955 26.5665H86.5109L93.7352 9.8695ZM85.2114 31.5665H91.1581V88.4577L85.2114 82.597V31.5665ZM104.23 123.906V121.332C104.23 119.951 103.076 118.832 101.653 118.832C100.229 118.832 99.0747 119.951 99.0747 121.332V123.906H90.5649V118.547C90.5649 117.166 89.4108 116.047 87.987 116.047C86.5633 116.047 85.4091 117.166 85.4091 118.547V123.906H76.8919V121.332C76.8919 119.951 75.7377 118.832 74.314 118.832C72.8902 118.832 71.7361 119.951 71.7361 121.332V123.906H63.2263V118.547C63.2263 117.166 62.0722 116.047 60.6484 116.047C59.2247 116.047 58.0706 117.166 58.0706 118.547V123.906H49.5607V121.332C49.5607 119.951 48.4066 118.832 46.9829 118.832C45.5591 118.832 44.405 119.951 44.405 121.332V123.906H38.3339V43.5265L119.894 123.906H104.23Z" fill="black"/>
  <path d="M52.7341 110.906H79.2611C80.2686 110.906 81.1776 110.302 81.5669 109.372C81.9564 108.443 81.7496 107.371 81.0431 106.653L54.5161 79.6959C53.8044 78.9727 52.7256 78.7509 51.7869 79.1359C50.8476 79.5204 50.2344 80.4347 50.2344 81.4494V108.406C50.2341 109.787 51.3534 110.906 52.7341 110.906ZM55.2341 87.5544L73.2936 105.907H55.2341V87.5544Z" fill="black"/>
  <path d="M101.68 64.7891C100.299 64.7891 99.1797 65.9153 99.1797 67.2961C99.1797 68.6768 100.299 69.7961 101.68 69.7961C103.06 69.7961 104.18 68.6768 104.18 67.2961V67.2818C104.18 65.9011 103.06 64.7891 101.68 64.7891Z" fill="black"/>
</svg>