<svg xmlns="http://www.w3.org/2000/svg" width="150" height="150" viewBox="0 0 150 150" fill="none">
  <g clip-path="url(#clip0_3688_12085)">
    <path d="M73.4317 124.823C65.0643 124.824 56.8453 121.249 51.1497 114.606L42.2977 104.281H0V39.8281H28.909L30.8707 36.5586C35.0821 29.5396 42.7828 25.1797 50.9681 25.1797H99.0319C107.217 25.1797 114.918 29.5399 119.129 36.5586L121.091 39.8281H150V104.281H123.316L85.9474 122.007C81.9445 123.906 77.6681 124.823 73.4317 124.823ZM11.7188 92.5625H47.6868L60.0466 106.979C65.194 112.982 73.7798 114.809 80.925 111.419L112.558 96.4142L86.7188 65.9184L76.8797 75.5316C73.5079 78.9034 68.8295 80.8162 64.0392 80.7652C59.2831 80.7198 54.8719 78.8328 51.6185 75.4522C48.411 72.1197 47.1264 67.6173 47.168 62.9887C47.2096 58.3536 48.8704 54.2547 52.1484 50.977L66.2109 36.8984H50.9684C46.8759 36.8984 43.0254 39.0784 40.9198 42.5879L35.5444 51.5469H11.7188V92.5625ZM124.692 92.5625H138.867V51.5629L114.551 51.2699L109.57 42.4809C107.465 38.9714 103.124 36.8984 99.0319 36.8984H82.3673L60.1433 59.1225C57.9021 61.3637 57.8654 65.0437 60.0618 67.3256C61.1156 68.4204 62.5679 69.0315 64.1514 69.0468C64.171 69.0468 64.1906 69.0471 64.2105 69.0471C65.8518 69.0471 67.7007 68.4729 68.8477 67.3256L87.3047 49.2191L124.692 92.5625Z" fill="url(#paint0_linear_3688_12085)"/>
    <path d="M51.785 75.4679L52.024 50.8518L65.9612 36.9141L77.8033 25.1953L99.1985 25.1953C107.384 25.1953 115.085 29.5556 119.296 36.5742L121.258 39.8438H150.167V104.297H123.483L64.2057 80.7809L51.785 75.4679ZM52.024 50.8518L51.785 75.4679L64.2057 80.7809L116.769 101.633L86.6158 65.9777L77.0462 75.5473C73.6745 78.919 68.996 80.8318 64.2057 80.7809C59.4497 80.7354 55.0384 78.8484 51.785 75.4679C48.5776 72.1353 46.8341 67.7511 46.8757 63.1225C46.9173 58.4874 48.746 54.1295 52.024 50.8518ZM124.858 92.5781H138.448V51.5625H114.622L109.247 42.6035C107.141 39.094 103.291 36.9141 99.1985 36.9141H82.5338L60.3098 59.1381C58.0686 61.3793 58.032 65.0593 60.2284 67.3412C61.2822 68.436 62.7344 69.0472 64.3179 69.0624C64.3375 69.0624 64.3572 69.0627 64.3771 69.0627C66.0183 69.0627 67.6129 68.4079 68.7599 67.2606L87.2767 48.7438L124.858 92.5781Z" fill="#FFB600"/>
  </g>
  <defs>
    <linearGradient id="paint0_linear_3688_12085" x1="75" y1="25.1797" x2="75" y2="124.823" gradientUnits="userSpaceOnUse">
      <stop stop-color="#F67F00"/>
      <stop offset="1" stop-color="#F67F00" stop-opacity="0.59"/>
    </linearGradient>
    <clipPath id="clip0_3688_12085">
      <rect width="150" height="150" fill="white"/>
    </clipPath>
  </defs>
</svg>