<svg width="74" height="54" viewBox="0 0 74 54" fill="none" xmlns="http://www.w3.org/2000/svg">
<path d="M48.6837 2C58.5374 2 65.1582 11.4124 65.1582 20.1932C65.1582 37.9757 37.68 52.5366 37.1826 52.5366C36.6853 52.5366 9.20703 37.9757 9.20703 20.1932C9.20703 11.4124 15.8279 2 25.6816 2C31.3388 2 35.0378 4.87427 37.1826 7.4011C39.3274 4.87427 43.0264 2 48.6837 2Z" fill="white" stroke="#F67F00" stroke-width="2.70732" stroke-linecap="round" stroke-linejoin="round"/>
<mask id="path-2-outside-1_3700_12124" maskUnits="userSpaceOnUse" x="1" y="8.41406" width="72" height="36" fill="black">
<rect fill="white" x="1" y="8.41406" width="72" height="36"/>
<path d="M7.92024 22.8546C7.92024 23.011 7.54723 23.1373 6.80122 23.2336C6.06723 23.3298 5.33325 23.378 4.59927 23.378C3.86528 23.378 3.39601 23.3359 3.19146 23.2516C2.98691 23.1674 2.88463 23.035 2.88463 22.8546V11.7906C2.88463 11.4778 3.22154 11.2011 3.89536 10.9604C4.58122 10.7198 5.36935 10.5994 6.25975 10.5994C6.99374 10.5994 7.46902 10.7438 7.68561 11.0326C7.84203 11.2372 7.92024 11.4237 7.92024 11.5921V14.5702H8.06463C8.06463 14.51 8.24512 14.0106 8.6061 13.0721C9.29195 11.3033 9.7913 10.4189 10.1041 10.4189C10.6937 10.4189 11.524 10.5934 12.5949 10.9424C13.1123 11.1108 13.5575 11.3575 13.9305 11.6824C14.3035 11.9952 14.49 12.3441 14.49 12.7292C14.49 12.9698 14.2433 13.4391 13.75 14.137C13.2687 14.8228 12.5347 15.7433 11.548 16.8985C11.7767 17.1391 12.0654 17.4459 12.4144 17.8189C12.7633 18.1919 13.2266 18.7515 13.8041 19.4975C14.3937 20.2315 14.6885 20.7549 14.6885 21.0677C14.6885 21.3806 14.4058 21.7476 13.8402 22.1687C13.2747 22.5778 12.6731 22.9147 12.0354 23.1794C11.3976 23.4321 10.9224 23.5585 10.6095 23.5585C10.405 23.5585 10.1222 23.2516 9.76122 22.638C9.41228 22.0123 8.98512 21.0798 8.47976 19.8404L7.92024 20.5082V22.8546ZM20.7165 22.9809C20.7165 23.1132 20.3496 23.2215 19.6156 23.3058C18.8816 23.378 18.1416 23.4141 17.3956 23.4141C16.6616 23.4141 16.1923 23.384 15.9878 23.3238C15.7832 23.2516 15.6809 23.1373 15.6809 22.9809V11.7545C15.6809 11.4898 16.0299 11.2311 16.7278 10.9785C17.4257 10.7137 18.2078 10.5814 19.0741 10.5814C19.8442 10.5814 20.3496 10.7438 20.5902 11.0687C20.6744 11.189 20.7165 11.3093 20.7165 11.4297V22.9809ZM27.2028 22.8906C27.2028 23.0471 26.8298 23.1734 26.0838 23.2697C25.3498 23.3659 24.6158 23.4141 23.8819 23.4141C23.1479 23.4141 22.6786 23.3719 22.474 23.2877C22.2695 23.2035 22.1672 23.0711 22.1672 22.8906V11.8087C22.1672 11.5079 22.5101 11.2311 23.196 10.9785C23.8939 10.7258 24.682 10.5994 25.5604 10.5994C25.8732 10.5994 26.1079 10.6115 26.2643 10.6355C26.6734 10.6957 26.9622 10.9544 27.1306 11.4116L28.8633 16.0682H28.9355V11.8087C28.9355 11.5079 29.2784 11.2311 29.9643 10.9785C30.6501 10.7258 31.4323 10.5994 32.3106 10.5994C33.0687 10.5994 33.55 10.7438 33.7545 11.0326C33.8989 11.2372 33.9711 11.4237 33.9711 11.5921V22.8906C33.9711 23.0471 33.5981 23.1734 32.8521 23.2697C32.1181 23.3659 31.3059 23.4141 30.4155 23.4141C29.5371 23.4141 29.0558 23.2998 28.9716 23.0711L27.2931 18.6311H27.2028V22.8906ZM41.1793 23.4141H36.9198C36.3302 23.4141 35.9332 23.3719 35.7286 23.2877C35.5241 23.2035 35.4218 23.0651 35.4218 22.8726V11.4838C35.4218 11.171 35.5541 10.9484 35.8189 10.816C36.0836 10.6716 36.5408 10.5994 37.1906 10.5994H41.2515C43.5618 10.5994 45.1561 11.0567 46.0345 11.9711C46.9128 12.8736 47.352 14.522 47.352 16.9165C47.352 19.311 46.8948 20.9955 45.9803 21.9702C45.0659 22.9328 43.4655 23.4141 41.1793 23.4141ZM41.035 13.2887C40.7462 13.2887 40.5537 13.3128 40.4574 13.3609V20.6526L41.1433 20.7248C41.5042 20.7248 41.775 20.436 41.9554 19.8585C42.148 19.2809 42.2442 18.2822 42.2442 16.8624C42.2442 15.4425 42.148 14.4919 41.9554 14.0106C41.7629 13.5293 41.4561 13.2887 41.035 13.2887ZM57.7742 23.4141H50.1215C49.5319 23.4141 49.1349 23.3719 48.9303 23.2877C48.7258 23.2035 48.6235 23.0711 48.6235 22.8906V11.4658C48.6235 11.1529 48.7619 10.9303 49.0386 10.798C49.3274 10.6656 49.8388 10.5994 50.5728 10.5994H57.8284C58.081 10.5994 58.2074 11.0206 58.2074 11.8628C58.2074 12.6931 58.1532 13.3308 58.045 13.776C57.9367 14.2092 57.7923 14.4258 57.6118 14.4258C56.8297 14.4258 55.5121 14.3476 53.6591 14.1911V15.4004C55.4399 15.3282 56.601 15.2921 57.1425 15.2921C57.4674 15.2921 57.6298 15.6711 57.6298 16.4292C57.6298 17.1872 57.5636 17.7648 57.4313 18.1619C57.311 18.5469 57.1425 18.7394 56.9259 18.7394L53.6591 18.6672V19.8224C55.7528 19.6659 57.1967 19.5877 57.9908 19.5877C58.2435 19.5877 58.3698 20.0089 58.3698 20.8511C58.3698 21.6934 58.3157 22.3311 58.2074 22.7643C58.0991 23.1975 57.9547 23.4141 57.7742 23.4141ZM64.6932 22.8906C64.6932 23.0471 64.3263 23.1734 63.5923 23.2697C62.8583 23.3659 62.1183 23.4141 61.3723 23.4141C60.6383 23.4141 60.163 23.3719 59.9464 23.2877C59.7419 23.2035 59.6396 23.0711 59.6396 22.8906V11.2853C59.6396 10.9724 60.0306 10.7498 60.8128 10.6175C61.6069 10.4851 62.6056 10.4189 63.8089 10.4189C65.0121 10.4189 65.7882 10.425 66.1371 10.437C66.4981 10.437 66.9193 10.455 67.4006 10.4911C67.8819 10.5272 68.2609 10.5874 68.5376 10.6716C68.8264 10.7559 69.1393 10.8641 69.4762 10.9965C69.8251 11.1289 70.0958 11.3033 70.2884 11.5199C70.4809 11.7245 70.6674 11.9711 70.8479 12.2599C71.1728 12.7773 71.3352 13.5173 71.3352 14.4799C71.3352 15.4305 71.1728 16.2367 70.8479 16.8985C70.535 17.5482 70.1139 18.0415 69.5845 18.3785C70.9682 20.5563 71.6601 21.9401 71.6601 22.5297C71.6601 23.1193 70.4749 23.4141 68.1045 23.4141C67.4186 23.4141 66.9433 23.384 66.6786 23.3238C66.4139 23.2637 66.2454 23.1313 66.1732 22.9267L65.0001 19.2087L64.6932 19.1906V22.8906ZM64.6932 16.4111H65.1625C65.8604 16.4111 66.2093 15.8697 66.2093 14.7867C66.2093 14.2332 66.1131 13.8422 65.9206 13.6136C65.7401 13.385 65.5295 13.2706 65.2889 13.2706H64.6932V16.4111ZM17.1738 41.9809C17.1738 42.1132 16.8008 42.2215 16.0548 42.3058C15.3208 42.378 14.5808 42.4141 13.8348 42.4141C13.1008 42.4141 12.6316 42.384 12.427 42.3238C12.2345 42.2516 12.1382 42.1373 12.1382 41.9809V34.2199H9.62945C9.49709 34.2199 9.38278 34.0515 9.28652 33.7145C9.19026 33.3776 9.14213 32.8783 9.14213 32.2165C9.14213 31.5427 9.21433 30.9411 9.35872 30.4116C9.50311 29.8702 9.69563 29.5994 9.93628 29.5994H19.7007C19.8812 29.5994 20.0015 29.7679 20.0616 30.1048C20.1338 30.4417 20.1699 30.929 20.1699 31.5667C20.1699 32.2045 20.1038 32.8061 19.9714 33.3716C19.839 33.9372 19.6586 34.2199 19.4299 34.2199H17.1738V41.9809ZM27.36 42.5765C26.3613 42.5765 25.501 42.4863 24.779 42.3058C24.0691 42.1132 23.4133 41.7763 22.8117 41.295C21.5964 40.3445 20.9888 38.5215 20.9888 35.8263C20.9888 34.6952 21.1512 33.7085 21.4761 32.8663C21.813 32.024 22.2762 31.3562 22.8658 30.8628C24.021 29.9002 25.519 29.4189 27.36 29.4189C28.3105 29.4189 29.1348 29.5032 29.8327 29.6716C30.5426 29.8401 31.2104 30.1469 31.8361 30.5921C33.0995 31.5066 33.7312 33.2513 33.7312 35.8263C33.7312 38.1365 33.1597 39.8391 32.0166 40.9341C30.8735 42.029 29.3213 42.5765 27.36 42.5765ZM26.7644 39.4902C26.9088 39.6586 27.1073 39.7428 27.36 39.7428C27.6127 39.7428 27.8112 39.6586 27.9556 39.4902C28.1 39.3097 28.2203 38.9367 28.3166 38.3711C28.4128 37.7936 28.461 36.9934 28.461 35.9706C28.461 34.9479 28.4128 34.1598 28.3166 33.6063C28.2203 33.0528 28.1 32.6918 27.9556 32.5233C27.8112 32.3549 27.6127 32.2706 27.36 32.2706C27.1073 32.2706 26.9088 32.3549 26.7644 32.5233C26.62 32.6918 26.4997 33.0528 26.4034 33.6063C26.3071 34.1598 26.259 34.9479 26.259 35.9706C26.259 36.9934 26.3071 37.7936 26.4034 38.3711C26.4997 38.9367 26.62 39.3097 26.7644 39.4902ZM39.3188 42.4141C38.7413 42.4141 38.3623 42.3719 38.1818 42.2877C38.0013 42.2035 37.8749 42.0591 37.8027 41.8546L33.814 30.8448C33.814 30.6162 34.2411 30.3515 35.0954 30.0506C35.9618 29.7498 36.8341 29.5994 37.7125 29.5994C38.8436 29.5994 39.4452 29.9544 39.5174 30.6643L40.131 36.3858H40.3837L40.8891 30.6643C40.9493 29.9544 41.7614 29.5994 43.3257 29.5994C43.9273 29.5994 44.3304 29.6837 44.5349 29.8521C44.7395 30.0085 44.8538 30.2191 44.8779 30.4838L45.4735 36.3858H45.7262L46.1954 30.6643C46.2315 30.3154 46.6406 30.0506 47.4227 29.8702C48.2169 29.6897 48.999 29.5994 49.7691 29.5994C50.5512 29.5994 51.0806 29.7137 51.3574 29.9424C51.6462 30.171 51.7906 30.4116 51.7906 30.6643L47.9281 41.8546C47.7958 42.2276 46.9054 42.4141 45.2569 42.4141C44.7636 42.4141 44.4327 42.3719 44.2642 42.2877C44.0958 42.2035 43.9814 42.0591 43.9213 41.8546L42.9827 38.7141H42.7662L41.8096 41.8546C41.7013 42.2276 40.871 42.4141 39.3188 42.4141ZM57.7218 41.8906C57.7218 42.0471 57.3488 42.1734 56.6028 42.2697C55.8688 42.3659 55.1348 42.4141 54.4009 42.4141C53.6669 42.4141 53.1976 42.3719 52.9931 42.2877C52.7885 42.2035 52.6862 42.0711 52.6862 41.8906V30.8087C52.6862 30.5079 53.0291 30.2311 53.715 29.9785C54.4129 29.7258 55.201 29.5994 56.0794 29.5994C56.3922 29.5994 56.6269 29.6115 56.7833 29.6355C57.1924 29.6957 57.4812 29.9544 57.6496 30.4116L59.3823 35.0682H59.4545V30.8087C59.4545 30.5079 59.7974 30.2311 60.4833 29.9785C61.1692 29.7258 61.9513 29.5994 62.8296 29.5994C63.5877 29.5994 64.069 29.7438 64.2735 30.0326C64.4179 30.2372 64.4901 30.4237 64.4901 30.5921V41.8906C64.4901 42.0471 64.1171 42.1734 63.3711 42.2697C62.6371 42.3659 61.8249 42.4141 60.9345 42.4141C60.0561 42.4141 59.5748 42.2998 59.4906 42.0711L57.8121 37.6311H57.7218V41.8906Z"/>
</mask>
<path d="M7.92024 22.8546C7.92024 23.011 7.54723 23.1373 6.80122 23.2336C6.06723 23.3298 5.33325 23.378 4.59927 23.378C3.86528 23.378 3.39601 23.3359 3.19146 23.2516C2.98691 23.1674 2.88463 23.035 2.88463 22.8546V11.7906C2.88463 11.4778 3.22154 11.2011 3.89536 10.9604C4.58122 10.7198 5.36935 10.5994 6.25975 10.5994C6.99374 10.5994 7.46902 10.7438 7.68561 11.0326C7.84203 11.2372 7.92024 11.4237 7.92024 11.5921V14.5702H8.06463C8.06463 14.51 8.24512 14.0106 8.6061 13.0721C9.29195 11.3033 9.7913 10.4189 10.1041 10.4189C10.6937 10.4189 11.524 10.5934 12.5949 10.9424C13.1123 11.1108 13.5575 11.3575 13.9305 11.6824C14.3035 11.9952 14.49 12.3441 14.49 12.7292C14.49 12.9698 14.2433 13.4391 13.75 14.137C13.2687 14.8228 12.5347 15.7433 11.548 16.8985C11.7767 17.1391 12.0654 17.4459 12.4144 17.8189C12.7633 18.1919 13.2266 18.7515 13.8041 19.4975C14.3937 20.2315 14.6885 20.7549 14.6885 21.0677C14.6885 21.3806 14.4058 21.7476 13.8402 22.1687C13.2747 22.5778 12.6731 22.9147 12.0354 23.1794C11.3976 23.4321 10.9224 23.5585 10.6095 23.5585C10.405 23.5585 10.1222 23.2516 9.76122 22.638C9.41228 22.0123 8.98512 21.0798 8.47976 19.8404L7.92024 20.5082V22.8546ZM20.7165 22.9809C20.7165 23.1132 20.3496 23.2215 19.6156 23.3058C18.8816 23.378 18.1416 23.4141 17.3956 23.4141C16.6616 23.4141 16.1923 23.384 15.9878 23.3238C15.7832 23.2516 15.6809 23.1373 15.6809 22.9809V11.7545C15.6809 11.4898 16.0299 11.2311 16.7278 10.9785C17.4257 10.7137 18.2078 10.5814 19.0741 10.5814C19.8442 10.5814 20.3496 10.7438 20.5902 11.0687C20.6744 11.189 20.7165 11.3093 20.7165 11.4297V22.9809ZM27.2028 22.8906C27.2028 23.0471 26.8298 23.1734 26.0838 23.2697C25.3498 23.3659 24.6158 23.4141 23.8819 23.4141C23.1479 23.4141 22.6786 23.3719 22.474 23.2877C22.2695 23.2035 22.1672 23.0711 22.1672 22.8906V11.8087C22.1672 11.5079 22.5101 11.2311 23.196 10.9785C23.8939 10.7258 24.682 10.5994 25.5604 10.5994C25.8732 10.5994 26.1079 10.6115 26.2643 10.6355C26.6734 10.6957 26.9622 10.9544 27.1306 11.4116L28.8633 16.0682H28.9355V11.8087C28.9355 11.5079 29.2784 11.2311 29.9643 10.9785C30.6501 10.7258 31.4323 10.5994 32.3106 10.5994C33.0687 10.5994 33.55 10.7438 33.7545 11.0326C33.8989 11.2372 33.9711 11.4237 33.9711 11.5921V22.8906C33.9711 23.0471 33.5981 23.1734 32.8521 23.2697C32.1181 23.3659 31.3059 23.4141 30.4155 23.4141C29.5371 23.4141 29.0558 23.2998 28.9716 23.0711L27.2931 18.6311H27.2028V22.8906ZM41.1793 23.4141H36.9198C36.3302 23.4141 35.9332 23.3719 35.7286 23.2877C35.5241 23.2035 35.4218 23.0651 35.4218 22.8726V11.4838C35.4218 11.171 35.5541 10.9484 35.8189 10.816C36.0836 10.6716 36.5408 10.5994 37.1906 10.5994H41.2515C43.5618 10.5994 45.1561 11.0567 46.0345 11.9711C46.9128 12.8736 47.352 14.522 47.352 16.9165C47.352 19.311 46.8948 20.9955 45.9803 21.9702C45.0659 22.9328 43.4655 23.4141 41.1793 23.4141ZM41.035 13.2887C40.7462 13.2887 40.5537 13.3128 40.4574 13.3609V20.6526L41.1433 20.7248C41.5042 20.7248 41.775 20.436 41.9554 19.8585C42.148 19.2809 42.2442 18.2822 42.2442 16.8624C42.2442 15.4425 42.148 14.4919 41.9554 14.0106C41.7629 13.5293 41.4561 13.2887 41.035 13.2887ZM57.7742 23.4141H50.1215C49.5319 23.4141 49.1349 23.3719 48.9303 23.2877C48.7258 23.2035 48.6235 23.0711 48.6235 22.8906V11.4658C48.6235 11.1529 48.7619 10.9303 49.0386 10.798C49.3274 10.6656 49.8388 10.5994 50.5728 10.5994H57.8284C58.081 10.5994 58.2074 11.0206 58.2074 11.8628C58.2074 12.6931 58.1532 13.3308 58.045 13.776C57.9367 14.2092 57.7923 14.4258 57.6118 14.4258C56.8297 14.4258 55.5121 14.3476 53.6591 14.1911V15.4004C55.4399 15.3282 56.601 15.2921 57.1425 15.2921C57.4674 15.2921 57.6298 15.6711 57.6298 16.4292C57.6298 17.1872 57.5636 17.7648 57.4313 18.1619C57.311 18.5469 57.1425 18.7394 56.9259 18.7394L53.6591 18.6672V19.8224C55.7528 19.6659 57.1967 19.5877 57.9908 19.5877C58.2435 19.5877 58.3698 20.0089 58.3698 20.8511C58.3698 21.6934 58.3157 22.3311 58.2074 22.7643C58.0991 23.1975 57.9547 23.4141 57.7742 23.4141ZM64.6932 22.8906C64.6932 23.0471 64.3263 23.1734 63.5923 23.2697C62.8583 23.3659 62.1183 23.4141 61.3723 23.4141C60.6383 23.4141 60.163 23.3719 59.9464 23.2877C59.7419 23.2035 59.6396 23.0711 59.6396 22.8906V11.2853C59.6396 10.9724 60.0306 10.7498 60.8128 10.6175C61.6069 10.4851 62.6056 10.4189 63.8089 10.4189C65.0121 10.4189 65.7882 10.425 66.1371 10.437C66.4981 10.437 66.9193 10.455 67.4006 10.4911C67.8819 10.5272 68.2609 10.5874 68.5376 10.6716C68.8264 10.7559 69.1393 10.8641 69.4762 10.9965C69.8251 11.1289 70.0958 11.3033 70.2884 11.5199C70.4809 11.7245 70.6674 11.9711 70.8479 12.2599C71.1728 12.7773 71.3352 13.5173 71.3352 14.4799C71.3352 15.4305 71.1728 16.2367 70.8479 16.8985C70.535 17.5482 70.1139 18.0415 69.5845 18.3785C70.9682 20.5563 71.6601 21.9401 71.6601 22.5297C71.6601 23.1193 70.4749 23.4141 68.1045 23.4141C67.4186 23.4141 66.9433 23.384 66.6786 23.3238C66.4139 23.2637 66.2454 23.1313 66.1732 22.9267L65.0001 19.2087L64.6932 19.1906V22.8906ZM64.6932 16.4111H65.1625C65.8604 16.4111 66.2093 15.8697 66.2093 14.7867C66.2093 14.2332 66.1131 13.8422 65.9206 13.6136C65.7401 13.385 65.5295 13.2706 65.2889 13.2706H64.6932V16.4111ZM17.1738 41.9809C17.1738 42.1132 16.8008 42.2215 16.0548 42.3058C15.3208 42.378 14.5808 42.4141 13.8348 42.4141C13.1008 42.4141 12.6316 42.384 12.427 42.3238C12.2345 42.2516 12.1382 42.1373 12.1382 41.9809V34.2199H9.62945C9.49709 34.2199 9.38278 34.0515 9.28652 33.7145C9.19026 33.3776 9.14213 32.8783 9.14213 32.2165C9.14213 31.5427 9.21433 30.9411 9.35872 30.4116C9.50311 29.8702 9.69563 29.5994 9.93628 29.5994H19.7007C19.8812 29.5994 20.0015 29.7679 20.0616 30.1048C20.1338 30.4417 20.1699 30.929 20.1699 31.5667C20.1699 32.2045 20.1038 32.8061 19.9714 33.3716C19.839 33.9372 19.6586 34.2199 19.4299 34.2199H17.1738V41.9809ZM27.36 42.5765C26.3613 42.5765 25.501 42.4863 24.779 42.3058C24.0691 42.1132 23.4133 41.7763 22.8117 41.295C21.5964 40.3445 20.9888 38.5215 20.9888 35.8263C20.9888 34.6952 21.1512 33.7085 21.4761 32.8663C21.813 32.024 22.2762 31.3562 22.8658 30.8628C24.021 29.9002 25.519 29.4189 27.36 29.4189C28.3105 29.4189 29.1348 29.5032 29.8327 29.6716C30.5426 29.8401 31.2104 30.1469 31.8361 30.5921C33.0995 31.5066 33.7312 33.2513 33.7312 35.8263C33.7312 38.1365 33.1597 39.8391 32.0166 40.9341C30.8735 42.029 29.3213 42.5765 27.36 42.5765ZM26.7644 39.4902C26.9088 39.6586 27.1073 39.7428 27.36 39.7428C27.6127 39.7428 27.8112 39.6586 27.9556 39.4902C28.1 39.3097 28.2203 38.9367 28.3166 38.3711C28.4128 37.7936 28.461 36.9934 28.461 35.9706C28.461 34.9479 28.4128 34.1598 28.3166 33.6063C28.2203 33.0528 28.1 32.6918 27.9556 32.5233C27.8112 32.3549 27.6127 32.2706 27.36 32.2706C27.1073 32.2706 26.9088 32.3549 26.7644 32.5233C26.62 32.6918 26.4997 33.0528 26.4034 33.6063C26.3071 34.1598 26.259 34.9479 26.259 35.9706C26.259 36.9934 26.3071 37.7936 26.4034 38.3711C26.4997 38.9367 26.62 39.3097 26.7644 39.4902ZM39.3188 42.4141C38.7413 42.4141 38.3623 42.3719 38.1818 42.2877C38.0013 42.2035 37.8749 42.0591 37.8027 41.8546L33.814 30.8448C33.814 30.6162 34.2411 30.3515 35.0954 30.0506C35.9618 29.7498 36.8341 29.5994 37.7125 29.5994C38.8436 29.5994 39.4452 29.9544 39.5174 30.6643L40.131 36.3858H40.3837L40.8891 30.6643C40.9493 29.9544 41.7614 29.5994 43.3257 29.5994C43.9273 29.5994 44.3304 29.6837 44.5349 29.8521C44.7395 30.0085 44.8538 30.2191 44.8779 30.4838L45.4735 36.3858H45.7262L46.1954 30.6643C46.2315 30.3154 46.6406 30.0506 47.4227 29.8702C48.2169 29.6897 48.999 29.5994 49.7691 29.5994C50.5512 29.5994 51.0806 29.7137 51.3574 29.9424C51.6462 30.171 51.7906 30.4116 51.7906 30.6643L47.9281 41.8546C47.7958 42.2276 46.9054 42.4141 45.2569 42.4141C44.7636 42.4141 44.4327 42.3719 44.2642 42.2877C44.0958 42.2035 43.9814 42.0591 43.9213 41.8546L42.9827 38.7141H42.7662L41.8096 41.8546C41.7013 42.2276 40.871 42.4141 39.3188 42.4141ZM57.7218 41.8906C57.7218 42.0471 57.3488 42.1734 56.6028 42.2697C55.8688 42.3659 55.1348 42.4141 54.4009 42.4141C53.6669 42.4141 53.1976 42.3719 52.9931 42.2877C52.7885 42.2035 52.6862 42.0711 52.6862 41.8906V30.8087C52.6862 30.5079 53.0291 30.2311 53.715 29.9785C54.4129 29.7258 55.201 29.5994 56.0794 29.5994C56.3922 29.5994 56.6269 29.6115 56.7833 29.6355C57.1924 29.6957 57.4812 29.9544 57.6496 30.4116L59.3823 35.0682H59.4545V30.8087C59.4545 30.5079 59.7974 30.2311 60.4833 29.9785C61.1692 29.7258 61.9513 29.5994 62.8296 29.5994C63.5877 29.5994 64.069 29.7438 64.2735 30.0326C64.4179 30.2372 64.4901 30.4237 64.4901 30.5921V41.8906C64.4901 42.0471 64.1171 42.1734 63.3711 42.2697C62.6371 42.3659 61.8249 42.4141 60.9345 42.4141C60.0561 42.4141 59.5748 42.2998 59.4906 42.0711L57.8121 37.6311H57.7218V41.8906Z" fill="#FFE0BF"/>
<path d="M6.80122 23.2336L6.66923 22.2107L6.66711 22.211L6.80122 23.2336ZM3.19146 23.2516L3.58415 22.2979H3.58415L3.19146 23.2516ZM3.89536 10.9604L3.55389 9.9872L3.54848 9.98913L3.89536 10.9604ZM7.68561 11.0326L6.86049 11.6514L6.86634 11.6591L7.68561 11.0326ZM7.92024 14.5702H6.88888V15.6015H7.92024V14.5702ZM8.06463 14.5702V15.6015H9.09599V14.5702H8.06463ZM8.6061 13.0721L7.64449 12.6992L7.64348 12.7019L8.6061 13.0721ZM12.5949 10.9424L12.2754 11.923L12.2756 11.923L12.5949 10.9424ZM13.9305 11.6824L13.2531 12.4601L13.2604 12.4664L13.2677 12.4726L13.9305 11.6824ZM13.75 14.137L12.9078 13.5416L12.9058 13.5446L13.75 14.137ZM11.548 16.8985L10.7638 16.2286L10.1603 16.9351L10.8003 17.6088L11.548 16.8985ZM12.4144 17.8189L11.6612 18.5235H11.6612L12.4144 17.8189ZM13.8041 19.4975L12.9886 20.1288L12.9943 20.1362L13.0001 20.1434L13.8041 19.4975ZM13.8402 22.1687L14.4447 23.0043L14.4505 23.0001L14.4562 22.9959L13.8402 22.1687ZM12.0354 23.1794L12.4153 24.1383L12.423 24.1352L12.4308 24.132L12.0354 23.1794ZM9.76122 22.638L8.86047 23.1403L8.86624 23.1507L8.87226 23.1609L9.76122 22.638ZM8.47976 19.8404L9.43477 19.451L8.78847 17.866L7.6892 19.178L8.47976 19.8404ZM7.92024 20.5082L7.12968 19.8458L6.88888 20.1333V20.5082H7.92024ZM6.88888 22.8546C6.88888 22.435 7.14884 22.2038 7.22725 22.1443C7.30908 22.0823 7.35921 22.073 7.30962 22.0898C7.22205 22.1194 7.02385 22.1649 6.66923 22.2107L6.9332 24.2565C7.3246 24.206 7.68591 24.1402 7.97135 24.0435C8.10827 23.9971 8.29828 23.9208 8.47335 23.7881C8.64502 23.658 8.9516 23.3524 8.9516 22.8546H6.88888ZM6.66711 22.211C5.97721 22.3015 5.28802 22.3466 4.59927 22.3466V24.4093C5.37848 24.4093 6.15726 24.3582 6.93533 24.2562L6.66711 22.211ZM4.59927 22.3466C4.24814 22.3466 3.98107 22.3364 3.78902 22.3191C3.69333 22.3106 3.62699 22.3012 3.58458 22.2932C3.53636 22.2842 3.54467 22.2817 3.58415 22.2979L2.79877 24.2053C3.05459 24.3106 3.35612 24.3513 3.60464 24.3736C3.88186 24.3985 4.21641 24.4093 4.59927 24.4093V22.3466ZM3.58415 22.2979C3.59666 22.3031 3.68812 22.343 3.77744 22.4586C3.87716 22.5876 3.91599 22.7358 3.91599 22.8546H1.85327C1.85327 23.1538 1.94324 23.4584 2.14524 23.7198C2.33684 23.9678 2.58171 24.1159 2.79877 24.2053L3.58415 22.2979ZM3.91599 22.8546V11.7906H1.85327V22.8546H3.91599ZM3.91599 11.7906C3.91599 11.9071 3.88238 12.006 3.84327 12.0745C3.80824 12.1358 3.77843 12.1565 3.79196 12.1454C3.80503 12.1347 3.84397 12.1062 3.92313 12.0657C4.00097 12.0259 4.10563 11.9805 4.24225 11.9317L3.54848 9.98913C3.16193 10.1272 2.78291 10.3049 2.48267 10.5515C2.1743 10.8048 1.85327 11.2174 1.85327 11.7906H3.91599ZM4.23683 11.9336C4.79143 11.739 5.46039 11.6308 6.25976 11.6308V9.56807C5.2783 9.56807 4.37101 9.70051 3.55389 9.98721L4.23683 11.9336ZM6.25976 11.6308C6.5688 11.6308 6.76087 11.6623 6.86691 11.6945C6.97205 11.7265 6.92511 11.7375 6.86052 11.6514L8.5107 10.4138C8.22953 10.0389 7.83665 9.83335 7.4665 9.7209C7.09726 9.60872 6.6847 9.56807 6.25976 9.56807V11.6308ZM6.86634 11.6591C6.88491 11.6834 6.89679 11.7014 6.90388 11.7133C6.91099 11.7251 6.91221 11.7289 6.91047 11.7247C6.90701 11.7165 6.88888 11.6694 6.88888 11.5921H8.9516C8.9516 11.1054 8.7301 10.7006 8.50488 10.4061L6.86634 11.6591ZM6.88888 11.5921V14.5702H8.9516V11.5921H6.88888ZM7.92024 15.6015H8.06463V13.5388H7.92024V15.6015ZM9.09599 14.5702C9.09599 14.6692 9.0806 14.7432 9.07883 14.7522C9.07432 14.7752 9.07035 14.79 9.06992 14.7917C9.06889 14.7955 9.07115 14.7868 9.08003 14.7593C9.09711 14.7064 9.12621 14.6221 9.16994 14.5011C9.25657 14.2614 9.38894 13.9097 9.56871 13.4423L7.64348 12.7019C7.46227 13.173 7.32392 13.5403 7.23005 13.7999C7.18354 13.9286 7.14496 14.0391 7.11692 14.1261C7.10324 14.1685 7.08858 14.216 7.07627 14.2624C7.07598 14.2635 7.03327 14.4065 7.03327 14.5702H9.09599ZM9.5677 13.445C9.90524 12.5745 10.1803 11.9661 10.3931 11.5893C10.5019 11.3967 10.57 11.3087 10.5942 11.2824C10.6614 11.2092 10.4883 11.4503 10.1041 11.4503V9.38758C9.5636 9.38758 9.21074 9.73925 9.07491 9.88715C8.89602 10.0819 8.7378 10.3256 8.59691 10.5751C8.3103 11.0827 7.99281 11.801 7.6445 12.6992L9.5677 13.445ZM10.1041 11.4503C10.5269 11.4503 11.2317 11.5829 12.2754 11.923L12.9144 9.96174C11.8163 9.60393 10.8605 9.38758 10.1041 9.38758V11.4503ZM12.2756 11.923C12.6744 12.0529 12.9946 12.235 13.2531 12.4601L14.6079 10.9046C14.1203 10.48 13.5501 10.1687 12.9142 9.96166L12.2756 11.923ZM13.2677 12.4726C13.3758 12.5632 13.4219 12.63 13.4405 12.6649C13.4561 12.694 13.4586 12.7111 13.4586 12.7292H15.5214C15.5214 11.9615 15.133 11.3448 14.5933 10.8921L13.2677 12.4726ZM13.4586 12.7292C13.4586 12.6282 13.4813 12.5801 13.4695 12.614C13.4609 12.639 13.4387 12.6931 13.3921 12.7818C13.2985 12.9598 13.1421 13.2102 12.9078 13.5417L14.5922 14.7323C14.8512 14.3659 15.0648 14.0327 15.2179 13.7415C15.3468 13.4963 15.5214 13.1229 15.5214 12.7292H13.4586ZM12.9058 13.5446C12.4525 14.1904 11.7433 15.0819 10.7638 16.2286L12.3323 17.5683C13.3261 16.4048 14.0849 15.4553 14.5942 14.7294L12.9058 13.5446ZM10.8003 17.6088C11.0264 17.8468 11.3132 18.1515 11.6612 18.5235L13.1676 17.1144C12.8177 16.7403 12.5269 16.4314 12.2958 16.1881L10.8003 17.6088ZM11.6612 18.5235C11.9771 18.8612 12.4173 19.3908 12.9886 20.1288L14.6197 18.8661C14.0359 18.1121 13.5495 17.5227 13.1676 17.1144L11.6612 18.5235ZM13.0001 20.1434C13.277 20.4881 13.46 20.7534 13.5688 20.9467C13.6227 21.0423 13.6492 21.1042 13.6606 21.1365C13.6735 21.1731 13.6572 21.1439 13.6572 21.0677H15.7199C15.7199 20.6353 15.534 20.2325 15.3661 19.9344C15.1801 19.6042 14.9209 19.2408 14.6082 18.8516L13.0001 20.1434ZM13.6572 21.0677C13.6572 20.91 13.7259 20.8619 13.6595 20.9481C13.5974 21.0287 13.4664 21.1612 13.2242 21.3415L14.4562 22.9959C14.7797 22.755 15.0728 22.4935 15.2934 22.2071C15.5098 21.9263 15.7199 21.5383 15.7199 21.0677H13.6572ZM13.2357 21.3331C12.7344 21.6957 12.2029 21.9932 11.64 22.2269L12.4308 24.132C13.1433 23.8362 13.815 23.4599 14.4447 23.0043L13.2357 21.3331ZM11.6554 22.2206C11.0288 22.4689 10.7113 22.5271 10.6095 22.5271V24.5898C11.1334 24.5898 11.7665 24.3953 12.4153 24.1383L11.6554 22.2206ZM10.6095 22.5271C10.8168 22.5271 10.9514 22.6033 10.991 22.6282C11.033 22.6546 11.0365 22.6663 11.0024 22.6294C10.9334 22.5545 10.8156 22.3963 10.6502 22.115L8.87226 23.1609C9.06779 23.4933 9.27187 23.7953 9.48561 24.0273C9.59295 24.1437 9.72802 24.2705 9.89191 24.3737C10.0533 24.4753 10.3 24.5898 10.6095 24.5898V22.5271ZM10.662 22.1356C10.3439 21.5652 9.93538 20.6787 9.43477 19.451L7.52474 20.2298C8.03486 21.4808 8.48068 22.4593 8.86047 23.1403L10.662 22.1356ZM7.6892 19.178L7.12968 19.8458L8.7108 21.1706L9.27031 20.5028L7.6892 19.178ZM6.88888 20.5082V22.8546H8.9516V20.5082H6.88888ZM19.6156 23.3058L19.7165 24.3322L19.7248 24.3314L19.7332 24.3304L19.6156 23.3058ZM15.9878 23.3238L15.6445 24.2964L15.6704 24.3055L15.6968 24.3133L15.9878 23.3238ZM16.7278 10.9785L17.0789 11.9482L17.0862 11.9455L17.0935 11.9428L16.7278 10.9785ZM20.5902 11.0687L21.4351 10.4773L21.4272 10.4659L21.419 10.4548L20.5902 11.0687ZM19.6852 22.9809C19.6852 22.7426 19.772 22.5511 19.8648 22.4234C19.9499 22.3061 20.0398 22.241 20.0822 22.2132C20.1611 22.1615 20.2048 22.1558 20.1494 22.1722C20.0535 22.2005 19.8496 22.2408 19.498 22.2811L19.7332 24.3304C20.1155 24.2865 20.4621 24.2306 20.7332 24.1506C20.8613 24.1128 21.0427 24.05 21.2133 23.9381C21.3554 23.845 21.7479 23.5432 21.7479 22.9809H19.6852ZM19.5146 22.2794C18.8146 22.3482 18.1083 22.3827 17.3956 22.3827V24.4454C18.1749 24.4454 18.9486 24.4077 19.7165 24.3322L19.5146 22.2794ZM17.3956 22.3827C17.0399 22.3827 16.7632 22.3753 16.5591 22.3623C16.332 22.3477 16.2626 22.3296 16.2788 22.3344L15.6968 24.3133C15.9175 24.3782 16.185 24.4052 16.4272 24.4207C16.6923 24.4377 17.0173 24.4454 17.3956 24.4454V22.3827ZM16.331 22.3513C16.3336 22.3522 16.3557 22.3601 16.3892 22.3805C16.4232 22.4011 16.4738 22.4376 16.5263 22.4962C16.648 22.6323 16.7123 22.8109 16.7123 22.9809H14.6496C14.6496 23.3073 14.765 23.6213 14.989 23.8716C15.1938 24.1005 15.4426 24.2251 15.6445 24.2964L16.331 22.3513ZM16.7123 22.9809V11.7545H14.6496V22.9809H16.7123ZM16.7123 11.7545C16.7123 11.9278 16.6522 12.0577 16.6045 12.1292C16.5624 12.1925 16.5314 12.2094 16.5569 12.1905C16.5796 12.1736 16.6305 12.1407 16.7225 12.0958C16.8128 12.0517 16.9302 12.0021 17.0789 11.9482L16.3766 10.0087C15.9901 10.1486 15.6204 10.317 15.3284 10.5335C15.0597 10.7327 14.6496 11.1314 14.6496 11.7545H16.7123ZM17.0935 11.9428C17.6574 11.7289 18.313 11.6127 19.0741 11.6127V9.55002C18.1025 9.55002 17.1939 9.69859 16.362 10.0141L17.0935 11.9428ZM19.0741 11.6127C19.3958 11.6127 19.5991 11.6478 19.7151 11.6851C19.8263 11.7208 19.8043 11.7405 19.7614 11.6826L21.419 10.4548C20.8637 9.70524 19.8954 9.55002 19.0741 9.55002V11.6127ZM19.7453 11.6601C19.7353 11.6459 19.6852 11.5639 19.6852 11.4297H21.7479C21.7479 11.0548 21.6135 10.7321 21.4351 10.4773L19.7453 11.6601ZM19.6852 11.4297V22.9809H21.7479V11.4297H19.6852ZM26.0838 23.2697L25.9518 22.2468L25.9497 22.2471L26.0838 23.2697ZM22.474 23.2877L22.8667 22.334L22.474 23.2877ZM23.196 10.9785L22.8449 10.0087L22.8395 10.0107L23.196 10.9785ZM26.2643 10.6355L26.1075 11.6549L26.1142 11.6559L26.2643 10.6355ZM27.1306 11.4116L26.1629 11.7682L26.164 11.7713L27.1306 11.4116ZM28.8633 16.0682L27.8967 16.4279L28.1466 17.0996H28.8633V16.0682ZM28.9355 16.0682V17.0996H29.9669V16.0682H28.9355ZM29.9643 10.9785L30.3208 11.9462L30.3208 11.9462L29.9643 10.9785ZM33.7545 11.0326L34.5971 10.4378L34.5961 10.4365L33.7545 11.0326ZM32.8521 23.2697L32.7201 22.2468L32.718 22.2471L32.8521 23.2697ZM28.9716 23.0711L29.9394 22.7146L29.9363 22.7064L28.9716 23.0711ZM27.2931 18.6311L28.2578 18.2664L28.0058 17.5998H27.2931V18.6311ZM27.2028 18.6311V17.5998H26.1715V18.6311H27.2028ZM26.1715 22.8906C26.1715 22.4711 26.4314 22.2399 26.5098 22.1804C26.5917 22.1184 26.6418 22.1091 26.5922 22.1259C26.5046 22.1555 26.3064 22.201 25.9518 22.2468L26.2158 24.2926C26.6072 24.242 26.9685 24.1762 27.2539 24.0796C27.3909 24.0332 27.5809 23.9569 27.7559 23.8242C27.9276 23.6941 28.2342 23.3884 28.2342 22.8906H26.1715ZM25.9497 22.2471C25.2598 22.3375 24.5706 22.3827 23.8819 22.3827V24.4454C24.6611 24.4454 25.4398 24.3943 26.2179 24.2923L25.9497 22.2471ZM23.8819 22.3827C23.5307 22.3827 23.2637 22.3725 23.0716 22.3552C22.9759 22.3467 22.9096 22.3373 22.8672 22.3293C22.8189 22.3203 22.8273 22.3178 22.8667 22.334L22.0814 24.2414C22.3372 24.3467 22.6387 24.3874 22.8872 24.4097C23.1644 24.4346 23.499 24.4454 23.8819 24.4454V22.3827ZM22.8667 22.334C22.8792 22.3392 22.9707 22.3791 23.06 22.4947C23.1597 22.6237 23.1986 22.7719 23.1986 22.8906H21.1359C21.1359 23.1899 21.2258 23.4945 21.4278 23.7559C21.6194 24.0039 21.8643 24.152 22.0814 24.2414L22.8667 22.334ZM23.1986 22.8906V11.8087H21.1359V22.8906H23.1986ZM23.1986 11.8087C23.1986 11.9398 23.1588 12.046 23.1183 12.1141C23.0824 12.1747 23.0537 12.193 23.0721 12.1781C23.0894 12.1642 23.1334 12.133 23.2178 12.0895C23.3008 12.0468 23.4108 11.9984 23.5525 11.9462L22.8395 10.0107C22.451 10.1538 22.0743 10.3328 21.7767 10.5729C21.4791 10.8131 21.1359 11.2225 21.1359 11.8087H23.1986ZM23.5471 11.9482C24.1139 11.743 24.7803 11.6308 25.5604 11.6308V9.56807C24.5837 9.56807 23.6739 9.70855 22.8449 10.0087L23.5471 11.9482ZM25.5604 11.6308C25.861 11.6308 26.0315 11.6432 26.1075 11.6549L26.4211 9.61616C26.1842 9.57971 25.8855 9.56807 25.5604 9.56807V11.6308ZM26.1142 11.6559C26.1277 11.6579 26.1278 11.6596 26.12 11.656C26.1116 11.6521 26.104 11.6468 26.0995 11.6429C26.0904 11.6347 26.1222 11.6578 26.1629 11.7682L28.0984 11.0551C27.8274 10.3195 27.2707 9.74108 26.4143 9.61514L26.1142 11.6559ZM26.164 11.7713L27.8967 16.4279L29.8299 15.7085L28.0972 11.052L26.164 11.7713ZM28.8633 17.0996H28.9355V15.0368H28.8633V17.0996ZM29.9669 16.0682V11.8087H27.9042V16.0682H29.9669ZM29.9669 11.8087C29.9669 11.9398 29.9271 12.046 29.8866 12.1141C29.8507 12.1747 29.822 12.193 29.8404 12.1781C29.8577 12.1642 29.9017 12.133 29.9861 12.0895C30.0691 12.0468 30.1791 11.9984 30.3208 11.9462L29.6077 10.0107C29.2192 10.1538 28.8426 10.3328 28.545 10.5729C28.2474 10.8131 27.9042 11.2225 27.9042 11.8087H29.9669ZM30.3208 11.9462C30.8721 11.7431 31.5301 11.6308 32.3106 11.6308V9.56807C31.3345 9.56807 30.4282 9.70841 29.6077 10.0107L30.3208 11.9462ZM32.3106 11.6308C32.6348 11.6308 32.8349 11.6629 32.9438 11.6956C33.0543 11.7287 32.9894 11.7367 32.9129 11.6287L34.5961 10.4365C34.3151 10.0397 33.9072 9.83108 33.5365 9.71986C33.1641 9.60815 32.7445 9.56807 32.3106 9.56807V11.6308ZM32.9119 11.6274C32.929 11.6515 32.9401 11.6698 32.9471 11.6823C32.954 11.6949 32.9559 11.7001 32.9552 11.6982C32.9537 11.6945 32.9398 11.6566 32.9398 11.5921H35.0025C35.0025 11.13 34.8078 10.7362 34.5971 10.4378L32.9119 11.6274ZM32.9398 11.5921V22.8906H35.0025V11.5921H32.9398ZM32.9398 22.8906C32.9398 22.4711 33.1997 22.2399 33.2781 22.1804C33.36 22.1184 33.4101 22.1091 33.3605 22.1259C33.2729 22.1555 33.0747 22.201 32.7201 22.2468L32.9841 24.2926C33.3755 24.242 33.7368 24.1762 34.0222 24.0796C34.1591 24.0332 34.3492 23.9569 34.5242 23.8242C34.6959 23.6941 35.0025 23.3884 35.0025 22.8906H32.9398ZM32.718 22.2471C32.0363 22.3365 31.2697 22.3827 30.4155 22.3827V24.4454C31.3421 24.4454 32.1999 24.3954 32.9862 24.2923L32.718 22.2471ZM30.4155 22.3827C30.005 22.3827 29.7587 22.3545 29.6341 22.3249C29.5718 22.3101 29.5893 22.3061 29.644 22.3393C29.702 22.3745 29.8551 22.4858 29.9394 22.7146L28.0038 23.4277C28.1302 23.7708 28.3751 23.9821 28.5745 24.1031C28.7705 24.2219 28.9791 24.2894 29.1574 24.3318C29.5141 24.4165 29.9477 24.4454 30.4155 24.4454V22.3827ZM29.9363 22.7064L28.2578 18.2664L26.3284 18.9958L28.0069 23.4358L29.9363 22.7064ZM27.2931 17.5998H27.2028V19.6625H27.2931V17.5998ZM26.1715 18.6311V22.8906H28.2342V18.6311H26.1715ZM35.7286 23.2877L36.1213 22.334L35.7286 23.2877ZM35.8189 10.816L36.2801 11.7385L36.2966 11.7303L36.3127 11.7214L35.8189 10.816ZM46.0345 11.9711L45.2906 12.6856L45.2954 12.6905L46.0345 11.9711ZM45.9803 21.9702L46.7281 22.6805L46.7324 22.6759L45.9803 21.9702ZM40.4574 13.3609L39.9962 12.4384L39.426 12.7235V13.3609H40.4574ZM40.4574 20.6526H39.426V21.5811L40.3494 21.6783L40.4574 20.6526ZM41.1433 20.7248L41.0353 21.7505L41.0891 21.7562H41.1433V20.7248ZM41.9554 19.8585L40.977 19.5323L40.9739 19.5415L40.971 19.5508L41.9554 19.8585ZM41.9554 14.0106L40.9979 14.3937L41.9554 14.0106ZM41.1793 22.3827H36.9198V24.4454H41.1793V22.3827ZM36.9198 22.3827C36.646 22.3827 36.4384 22.3728 36.2886 22.3569C36.1227 22.3393 36.0876 22.3202 36.1213 22.334L35.3359 24.2414C35.5742 24.3395 35.8399 24.3836 36.0711 24.4081C36.3183 24.4343 36.6041 24.4454 36.9198 24.4454V22.3827ZM36.1213 22.334C36.1441 22.3434 36.2395 22.3882 36.3279 22.5077C36.4234 22.6369 36.4531 22.7757 36.4531 22.8726H34.3904C34.3904 23.162 34.4713 23.4662 34.6691 23.7338C34.8597 23.9917 35.1086 24.1478 35.3359 24.2414L36.1213 22.334ZM36.4531 22.8726V11.4838H34.3904V22.8726H36.4531ZM36.4531 11.4838C36.4531 11.4743 36.4542 11.5309 36.4075 11.6093C36.3589 11.6911 36.2985 11.7293 36.2801 11.7385L35.3576 9.89354C35.0745 10.0351 34.8155 10.2508 34.6346 10.5551C34.4556 10.8561 34.3904 11.1805 34.3904 11.4838H36.4531ZM36.3127 11.7214C36.3014 11.7276 36.3536 11.6988 36.5212 11.6723C36.6801 11.6472 36.8999 11.6308 37.1906 11.6308V9.56807C36.5242 9.56807 35.8358 9.63194 35.325 9.91059L36.3127 11.7214ZM37.1906 11.6308H41.2515V9.56807H37.1906V11.6308ZM41.2515 11.6308C43.4918 11.6308 44.7158 12.0871 45.2907 12.6856L46.7783 11.2567C45.5964 10.0262 43.6317 9.56807 41.2515 9.56807V11.6308ZM45.2954 12.6905C45.8768 13.2878 46.3207 14.5761 46.3207 16.9165H48.3834C48.3834 14.468 47.9489 12.4594 46.7735 11.2518L45.2954 12.6905ZM46.3207 16.9165C46.3207 19.237 45.8664 20.5843 45.2282 21.2645L46.7324 22.6759C47.9232 21.4068 48.3834 19.3849 48.3834 16.9165H46.3207ZM45.2326 21.2598C44.614 21.9109 43.3745 22.3827 41.1793 22.3827V24.4454C43.5566 24.4454 45.5177 23.9546 46.7281 22.6805L45.2326 21.2598ZM41.035 12.2573C40.8663 12.2573 40.6998 12.2641 40.5461 12.2833C40.4113 12.3002 40.2013 12.3359 39.9962 12.4384L40.9186 14.2834C40.8853 14.3 40.8576 14.3108 40.8387 14.3174C40.8196 14.3241 40.8054 14.328 40.7978 14.3299C40.7837 14.3334 40.7833 14.3325 40.8019 14.3301C40.8195 14.3279 40.8475 14.3253 40.8879 14.3233C40.928 14.3213 40.9767 14.3201 41.035 14.3201V12.2573ZM39.426 13.3609V20.6526H41.4888V13.3609H39.426ZM40.3494 21.6783L41.0353 21.7505L41.2512 19.6991L40.5654 19.6269L40.3494 21.6783ZM41.1433 21.7562C42.228 21.7562 42.7295 20.8394 42.9399 20.1661L40.971 19.5508C40.94 19.6502 40.9109 19.7179 40.8884 19.7611C40.8657 19.8046 40.8551 19.813 40.8646 19.8028C40.8759 19.7908 40.9094 19.7596 40.9683 19.7327C41.0292 19.7048 41.0915 19.6934 41.1433 19.6934V21.7562ZM42.9339 20.1846C43.1843 19.4334 43.2756 18.2848 43.2756 16.8624H41.2129C41.2129 18.2795 41.1117 19.1284 40.977 19.5323L42.9339 20.1846ZM43.2756 16.8624C43.2756 16.1327 43.251 15.5027 43.1981 14.9806C43.147 14.4757 43.0634 14.0034 42.913 13.6276L40.9979 14.3937C41.04 14.4992 41.1008 14.7428 41.1459 15.1885C41.1893 15.617 41.2129 16.1722 41.2129 16.8624H43.2756ZM42.913 13.6276C42.7708 13.2721 42.5533 12.9211 42.2174 12.6577C41.8675 12.3832 41.4566 12.2573 41.035 12.2573V14.3201C41.041 14.3201 41.0289 14.3207 41.0057 14.3131C40.9815 14.3051 40.9599 14.2928 40.9444 14.2807C40.9154 14.2579 40.9475 14.2679 40.9979 14.3937L42.913 13.6276ZM48.9303 23.2877L49.323 22.334L48.9303 23.2877ZM49.0386 10.798L48.6089 9.86039L48.6012 9.8639L48.5936 9.86754L49.0386 10.798ZM58.0449 13.776L59.0455 14.0262L59.0471 14.0198L58.0449 13.776ZM53.6591 14.1911L53.7458 13.1634L52.6277 13.069V14.1911H53.6591ZM53.6591 15.4004H52.6277V16.4744L53.7009 16.4309L53.6591 15.4004ZM57.4313 18.1619L56.4529 17.8357L56.4498 17.845L56.4469 17.8542L57.4313 18.1619ZM56.9259 18.7394L56.9031 19.7705L56.9145 19.7708H56.9259V18.7394ZM53.6591 18.6672L53.6819 17.6361L52.6277 17.6128V18.6672H53.6591ZM53.6591 19.8224H52.6277V20.9336L53.7359 20.8508L53.6591 19.8224ZM57.7742 22.3827H50.1215V24.4454H57.7742V22.3827ZM50.1215 22.3827C49.8477 22.3827 49.6401 22.3728 49.4903 22.3569C49.3244 22.3393 49.2893 22.3202 49.323 22.334L48.5376 24.2414C48.7759 24.3395 49.0416 24.3836 49.2728 24.4081C49.52 24.4343 49.8058 24.4454 50.1215 24.4454V22.3827ZM49.323 22.334C49.3355 22.3392 49.427 22.3791 49.5163 22.4947C49.616 22.6237 49.6548 22.7719 49.6548 22.8906H47.5921C47.5921 23.1899 47.6821 23.4945 47.8841 23.7559C48.0757 24.0039 48.3206 24.152 48.5376 24.2414L49.323 22.334ZM49.6548 22.8906V11.4658H47.5921V22.8906H49.6548ZM49.6548 11.4658C49.6548 11.4642 49.6538 11.5273 49.6032 11.6087C49.5518 11.6913 49.4919 11.7244 49.4836 11.7284L48.5936 9.86754C48.3085 10.0039 48.0411 10.2145 47.8513 10.5197C47.6624 10.8237 47.5921 11.1545 47.5921 11.4658H49.6548ZM49.4683 11.7355C49.4679 11.7357 49.4903 11.7258 49.5453 11.7121C49.599 11.6988 49.6731 11.6846 49.7711 11.6719C49.9689 11.6463 50.2332 11.6308 50.5728 11.6308V9.56807C49.8355 9.56807 49.1209 9.62573 48.6089 9.86039L49.4683 11.7355ZM50.5728 11.6308H57.8284V9.56807H50.5728V11.6308ZM57.8284 11.6308C57.7116 11.6308 57.5891 11.6053 57.4738 11.5503C57.3612 11.4967 57.2806 11.4273 57.2276 11.3683C57.1323 11.2624 57.1152 11.1798 57.1248 11.2116C57.1311 11.2327 57.1456 11.2943 57.1575 11.4127C57.1689 11.5276 57.176 11.6762 57.176 11.8628H59.2387C59.2387 11.4154 59.208 10.9773 59.1005 10.6189C59.0469 10.4402 58.9508 10.1996 58.7608 9.98845C58.5442 9.74775 58.2211 9.56807 57.8284 9.56807V11.6308ZM57.176 11.8628C57.176 12.6658 57.122 13.2067 57.0428 13.5322L59.0471 14.0198C59.1845 13.4549 59.2387 12.7204 59.2387 11.8628H57.176ZM57.0444 13.5259C57.0251 13.6032 57.008 13.655 56.9957 13.6865C56.9827 13.7199 56.9807 13.7161 56.9973 13.6912C57.0129 13.6678 57.0646 13.5961 57.1683 13.527C57.2826 13.4508 57.4366 13.3944 57.6118 13.3944V15.4571C58.1837 15.4571 58.5411 15.0942 58.7136 14.8354C58.882 14.5828 58.9802 14.2876 59.0455 14.0262L57.0444 13.5259ZM57.6118 13.3944C56.8774 13.3944 55.5984 13.3198 53.7458 13.1634L53.5723 15.2188C55.4258 15.3753 56.7819 15.4571 57.6118 15.4571V13.3944ZM52.6277 14.1911V15.4004H54.6905V14.1911H52.6277ZM53.7009 16.4309C55.4866 16.3585 56.6259 16.3235 57.1425 16.3235V14.2608C56.5762 14.2608 55.3932 14.2979 53.6173 14.3699L53.7009 16.4309ZM57.1425 16.3235C57.0073 16.3235 56.8526 16.2784 56.7225 16.1773C56.6071 16.0875 56.5659 15.9964 56.56 15.9827C56.5541 15.9688 56.5663 15.9928 56.5784 16.0776C56.59 16.1589 56.5985 16.274 56.5985 16.4292H58.6612C58.6612 16.008 58.6207 15.5546 58.456 15.1701C58.3688 14.9668 58.2261 14.7336 57.9889 14.5491C57.737 14.3532 57.4402 14.2608 57.1425 14.2608V16.3235ZM56.5985 16.4292C56.5985 17.1509 56.5325 17.5967 56.4529 17.8357L58.4097 18.488C58.5948 17.9329 58.6612 17.2235 58.6612 16.4292H56.5985ZM56.4469 17.8542C56.4075 17.9802 56.3895 17.972 56.4385 17.9159C56.4683 17.8819 56.5261 17.8268 56.6181 17.7809C56.7141 17.7329 56.821 17.7081 56.9259 17.7081V19.7708C57.3861 19.7708 57.7498 19.5497 57.9909 19.2742C58.2084 19.0256 58.3347 18.7286 58.4157 18.4695L56.4469 17.8542ZM56.9487 17.7083L53.6819 17.6361L53.6363 19.6983L56.9031 19.7705L56.9487 17.7083ZM52.6277 18.6672V19.8224H54.6905V18.6672H52.6277ZM53.7359 20.8508C55.8323 20.6942 57.2402 20.6191 57.9908 20.6191V18.5564C57.1531 18.5564 55.6732 18.6376 53.5823 18.7939L53.7359 20.8508ZM57.9908 20.6191C57.874 20.6191 57.7516 20.5936 57.6362 20.5386C57.5236 20.485 57.4431 20.4155 57.39 20.3566C57.2947 20.2507 57.2777 20.1681 57.2872 20.1999C57.2935 20.221 57.3081 20.2826 57.3199 20.401C57.3314 20.5159 57.3385 20.6645 57.3385 20.8511H59.4012C59.4012 20.4037 59.3705 19.9656 59.2629 19.6072C59.2093 19.4285 59.1133 19.1879 58.9232 18.9767C58.7066 18.736 58.3835 18.5564 57.9908 18.5564V20.6191ZM57.3385 20.8511C57.3385 21.6695 57.2839 22.2058 57.2068 22.5142L59.208 23.0144C59.3474 22.4565 59.4012 21.7174 59.4012 20.8511H57.3385ZM57.2068 22.5142C57.1875 22.5915 57.1704 22.6433 57.1582 22.6748C57.1452 22.7082 57.1431 22.7044 57.1597 22.6795C57.1754 22.6561 57.2271 22.5844 57.3307 22.5153C57.4451 22.4391 57.599 22.3827 57.7742 22.3827V24.4454C58.3462 24.4454 58.7035 24.0825 58.876 23.8237C59.0444 23.5711 59.1426 23.2759 59.208 23.0144L57.2068 22.5142ZM63.5923 23.2697L63.4582 22.2471L63.5923 23.2697ZM59.9464 23.2877L59.5537 24.2414L59.5631 24.2453L59.5726 24.249L59.9464 23.2877ZM60.8128 10.6175L60.6432 9.60015L60.6407 9.60058L60.8128 10.6175ZM66.1371 10.437L66.1016 11.4677L66.1194 11.4683H66.1371V10.437ZM67.4006 10.4911L67.3234 11.5196L67.4006 10.4911ZM68.5376 10.6716L68.2373 11.6584L68.2489 11.6617L68.5376 10.6716ZM69.4762 10.9965L69.099 11.9565L69.1104 11.9608L69.4762 10.9965ZM70.2884 11.5199L69.5175 12.2051L69.5273 12.2161L69.5373 12.2268L70.2884 11.5199ZM70.8479 12.2599L69.9733 12.8065L69.9744 12.8084L70.8479 12.2599ZM70.8479 16.8985L69.922 16.4439L69.9186 16.451L70.8479 16.8985ZM69.5845 18.3785L69.0308 17.5083L68.1613 18.0617L68.714 18.9315L69.5845 18.3785ZM66.6786 23.3238L66.45 24.3295L66.6786 23.3238ZM66.1732 22.9267L65.1897 23.2371L65.1949 23.2536L65.2007 23.27L66.1732 22.9267ZM65.0001 19.2087L65.9836 18.8984L65.7699 18.2208L65.0606 18.1791L65.0001 19.2087ZM64.6932 19.1906L64.7538 18.1611L63.6619 18.0968V19.1906H64.6932ZM64.6932 16.4111H63.6619V17.4425H64.6932V16.4111ZM65.9206 13.6136L65.1111 14.2526L65.1212 14.2654L65.1317 14.2779L65.9206 13.6136ZM64.6932 13.2706V12.2393H63.6619V13.2706H64.6932ZM63.6619 22.8906C63.6619 22.4784 63.9138 22.2479 63.995 22.1853C64.0777 22.1216 64.1295 22.1113 64.0823 22.1275C63.9989 22.1562 63.8064 22.2014 63.4582 22.2471L63.7264 24.2923C64.1121 24.2417 64.4701 24.1756 64.7537 24.0779C64.89 24.031 65.0795 23.9537 65.2539 23.8193C65.4268 23.6861 65.7246 23.3811 65.7246 22.8906H63.6619ZM63.4582 22.2471C62.769 22.3375 62.0738 22.3827 61.3723 22.3827V24.4454C62.1628 24.4454 62.9476 24.3944 63.7264 24.2923L63.4582 22.2471ZM61.3723 22.3827C61.0214 22.3827 60.7522 22.3725 60.5563 22.3551C60.3361 22.3356 60.2854 22.3129 60.3202 22.3265L59.5726 24.249C59.8241 24.3467 60.1192 24.3872 60.3743 24.4098C60.6537 24.4346 60.9892 24.4454 61.3723 24.4454V22.3827ZM60.3391 22.334C60.3516 22.3392 60.4431 22.3791 60.5324 22.4947C60.6321 22.6237 60.6709 22.7719 60.6709 22.8906H58.6082C58.6082 23.1899 58.6982 23.4945 58.9002 23.7559C59.0918 24.0039 59.3367 24.152 59.5537 24.2414L60.3391 22.334ZM60.6709 22.8906V11.2853H58.6082V22.8906H60.6709ZM60.6709 11.2853C60.6709 11.4392 60.6177 11.5774 60.5458 11.6759C60.4838 11.7608 60.4293 11.7879 60.4431 11.78C60.4548 11.7733 60.5007 11.7503 60.5982 11.7208C60.6933 11.692 60.8204 11.6622 60.9848 11.6344L60.6407 9.60058C60.2071 9.67395 59.774 9.7874 59.4227 9.98738C59.0615 10.1929 58.6082 10.6076 58.6082 11.2853H60.6709ZM60.9823 11.6348C61.7003 11.5151 62.6375 11.4503 63.8089 11.4503V9.38758C62.5737 9.38758 61.5135 9.4551 60.6432 9.60015L60.9823 11.6348ZM63.8089 11.4503C65.0169 11.4503 65.7739 11.4564 66.1016 11.4677L66.1727 9.40624C65.8025 9.39348 65.0073 9.38758 63.8089 9.38758V11.4503ZM66.1371 11.4683C66.4655 11.4683 66.8598 11.4848 67.3234 11.5196L67.4777 9.46267C66.9787 9.42524 66.5308 9.40563 66.1371 9.40563V11.4683ZM67.3234 11.5196C67.7721 11.5533 68.0653 11.6059 68.2373 11.6583L68.8379 9.68495C68.4565 9.56885 67.9916 9.50121 67.4777 9.46266L67.3234 11.5196ZM68.2489 11.6617C68.5025 11.7357 68.7855 11.8333 69.0991 11.9564L69.8533 10.0366C69.493 9.89502 69.1504 9.776 68.8264 9.68152L68.2489 11.6617ZM69.1104 11.9608C69.3472 12.0507 69.4628 12.1435 69.5175 12.2051L71.0592 10.8347C70.7289 10.4632 70.303 10.2071 69.8419 10.0322L69.1104 11.9608ZM69.5373 12.2268C69.675 12.373 69.8214 12.5635 69.9733 12.8065L71.7225 11.7133C71.5134 11.3788 71.2868 11.0759 71.0394 10.8131L69.5373 12.2268ZM69.9744 12.8084C70.1527 13.0923 70.3038 13.6092 70.3038 14.4799H72.3666C72.3666 13.4254 72.1928 12.4623 71.7213 11.7115L69.9744 12.8084ZM70.3038 14.4799C70.3038 15.317 70.1604 15.9584 69.9221 16.444L71.7737 17.3529C72.1851 16.5149 72.3666 15.544 72.3666 14.4799H70.3038ZM69.9186 16.451C69.6764 16.954 69.375 17.2892 69.0308 17.5083L70.1382 19.2486C70.8528 18.7938 71.3936 18.1424 71.7771 17.3459L69.9186 16.451ZM68.714 18.9315C69.3976 20.0075 69.8954 20.8643 70.2187 21.5109C70.3805 21.8345 70.49 22.0886 70.5571 22.2798C70.63 22.4879 70.6287 22.5554 70.6287 22.5297H72.6914C72.6914 22.2091 72.6036 21.8826 72.5036 21.5973C72.3977 21.2953 72.2478 20.9567 72.0636 20.5884C71.6951 19.8513 71.1551 18.9272 70.455 17.8254L68.714 18.9315ZM70.6287 22.5297C70.6287 22.2696 70.7818 22.1193 70.821 22.09C70.8315 22.0822 70.7611 22.1327 70.5222 22.1921C70.0553 22.3082 69.2687 22.3827 68.1045 22.3827V24.4454C69.3106 24.4454 70.3018 24.3725 71.0201 24.1938C71.3739 24.1058 71.7479 23.972 72.0546 23.7432C72.3902 23.4928 72.6914 23.0845 72.6914 22.5297H70.6287ZM68.1045 22.3827C67.4139 22.3827 67.0456 22.3496 66.9072 22.3181L66.45 24.3295C66.841 24.4184 67.4234 24.4454 68.1045 24.4454V22.3827ZM66.9072 22.3181C66.8852 22.3131 66.9274 22.3185 66.9909 22.3685C67.0626 22.4248 67.1176 22.5036 67.1458 22.5835L65.2007 23.27C65.4211 23.8944 65.9395 24.2135 66.45 24.3295L66.9072 22.3181ZM67.1568 22.6164L65.9836 18.8984L64.0165 19.519L65.1897 23.2371L67.1568 22.6164ZM65.0606 18.1791L64.7538 18.1611L64.6327 20.2202L64.9395 20.2383L65.0606 18.1791ZM63.6619 19.1906V22.8906H65.7246V19.1906H63.6619ZM64.6932 17.4425H65.1625V15.3798H64.6932V17.4425ZM65.1625 17.4425C65.8271 17.4425 66.4321 17.1573 66.8146 16.5637C67.1469 16.048 67.2407 15.4059 67.2407 14.7867H65.178C65.178 15.0053 65.1601 15.1666 65.1356 15.2808C65.1109 15.3958 65.0842 15.4409 65.0807 15.4463C65.0797 15.4479 65.0847 15.4399 65.0976 15.4279C65.111 15.4155 65.1279 15.4033 65.1467 15.3935C65.187 15.3727 65.2024 15.3798 65.1625 15.3798V17.4425ZM67.2407 14.7867C67.2407 14.1724 67.1455 13.4671 66.7095 12.9492L65.1317 14.2779C65.0969 14.2366 65.1129 14.2322 65.1357 14.3248C65.1581 14.416 65.178 14.5645 65.178 14.7867H67.2407ZM66.7301 12.9745C66.3997 12.556 65.9122 12.2393 65.2889 12.2393V14.302C65.2665 14.302 65.2396 14.2992 65.2104 14.2919C65.1812 14.2845 65.1557 14.2739 65.1352 14.2628C65.0942 14.2405 65.0892 14.2249 65.1111 14.2526L66.7301 12.9745ZM65.2889 12.2393H64.6932V14.302H65.2889V12.2393ZM63.6619 13.2706V16.4111H65.7246V13.2706H63.6619ZM16.0548 42.3058L16.1558 43.3322L16.1632 43.3314L16.1705 43.3306L16.0548 42.3058ZM12.427 42.3238L12.0649 43.2895L12.1 43.3027L12.136 43.3133L12.427 42.3238ZM12.1382 34.2199H13.1696V33.1886H12.1382V34.2199ZM9.28652 33.7146L8.29484 33.9979V33.9979L9.28652 33.7146ZM9.35872 30.4116L10.3537 30.683L10.3553 30.6774L9.35872 30.4116ZM20.0616 30.1048L19.0463 30.2861L19.0495 30.3036L19.0532 30.3209L20.0616 30.1048ZM19.9714 33.3716L18.9672 33.1366V33.1366L19.9714 33.3716ZM17.1738 34.2199V33.1886H16.1425V34.2199H17.1738ZM16.1425 41.9809C16.1425 41.7381 16.2324 41.5444 16.3265 41.4169C16.4128 41.3001 16.5032 41.2358 16.5448 41.209C16.6224 41.1589 16.6642 41.1542 16.6065 41.1709C16.5064 41.2 16.2971 41.2405 15.9391 41.2809L16.1705 43.3306C16.5586 43.2868 16.9087 43.2311 17.1816 43.1518C17.3105 43.1144 17.4922 43.0525 17.663 42.9423C17.8018 42.8528 18.2052 42.5512 18.2052 41.9809H16.1425ZM15.9539 41.2794C15.2538 41.3482 14.5475 41.3827 13.8348 41.3827V43.4454C14.6142 43.4454 15.3879 43.4077 16.1558 43.3322L15.9539 41.2794ZM13.8348 41.3827C13.4791 41.3827 13.2024 41.3753 12.9984 41.3623C12.7713 41.3477 12.7018 41.3296 12.718 41.3344L12.136 43.3133C12.3567 43.3782 12.6242 43.4052 12.8664 43.4207C13.1316 43.4377 13.4565 43.4454 13.8348 43.4454V41.3827ZM12.7891 41.3581C12.7992 41.3619 12.8985 41.3999 12.9993 41.5196C13.1155 41.6576 13.1696 41.8283 13.1696 41.9809H11.1069C11.1069 42.2899 11.209 42.596 11.4215 42.8483C11.6186 43.0823 11.8623 43.2135 12.0649 43.2895L12.7891 41.3581ZM13.1696 41.9809V34.2199H11.1069V41.9809H13.1696ZM12.1382 33.1886H9.62945V35.2513H12.1382V33.1886ZM9.62945 33.1886C10.0605 33.1886 10.271 33.4748 10.2979 33.5145C10.331 33.5633 10.3146 33.5587 10.2782 33.4312L8.29484 33.9979C8.35467 34.2073 8.44358 34.4554 8.59102 34.6727C8.73225 34.8808 9.06603 35.2513 9.62945 35.2513V33.1886ZM10.2782 33.4312C10.2222 33.2351 10.1735 32.8514 10.1735 32.2165H8.11077C8.11077 32.9052 8.15836 33.5202 8.29484 33.9979L10.2782 33.4312ZM10.1735 32.2165C10.1735 31.6144 10.2382 31.1066 10.3537 30.683L8.3637 30.1403C8.19044 30.7755 8.11077 31.471 8.11077 32.2165H10.1735ZM10.3553 30.6774C10.3826 30.5747 10.408 30.5013 10.4287 30.4515C10.4501 30.3999 10.4604 30.3883 10.4519 30.4002C10.4439 30.4115 10.4015 30.4685 10.3114 30.5248C10.2122 30.5868 10.0814 30.6308 9.93628 30.6308V28.5681C9.36509 28.5681 8.98104 28.9092 8.77089 29.2048C8.57061 29.4864 8.44739 29.8263 8.36218 30.1459L10.3553 30.6774ZM9.93628 30.6308H19.7007V28.5681H9.93628V30.6308ZM19.7007 30.6308C19.5779 30.6308 19.4445 30.6002 19.3208 30.5309C19.2019 30.4643 19.1278 30.3823 19.087 30.3252C19.0184 30.2291 19.0278 30.182 19.0463 30.2861L21.0769 29.9235C21.0354 29.6907 20.9545 29.3909 20.7655 29.1263C20.5445 28.8169 20.1766 28.5681 19.7007 28.5681V30.6308ZM19.0532 30.3209C19.1024 30.5504 19.1386 30.9514 19.1386 31.5667H21.2013C21.2013 30.9066 21.1653 30.333 21.0701 29.8887L19.0532 30.3209ZM19.1386 31.5667C19.1386 32.133 19.0798 32.6552 18.9672 33.1366L20.9756 33.6067C21.1277 32.957 21.2013 32.276 21.2013 31.5667H19.1386ZM18.9672 33.1366C18.9412 33.2476 18.9164 33.329 18.8955 33.3859C18.8737 33.4448 18.8618 33.4618 18.8674 33.4529C18.8718 33.446 18.9122 33.3833 19.006 33.3185C19.1113 33.2456 19.2591 33.1886 19.4299 33.1886V35.2513C20.043 35.2513 20.4218 34.8516 20.6061 34.5627C20.7888 34.2766 20.8993 33.9326 20.9756 33.6067L18.9672 33.1366ZM19.4299 33.1886H17.1738V35.2513H19.4299V33.1886ZM16.1425 34.2199V41.9809H18.2052V34.2199H16.1425ZM24.779 42.3058L24.5091 43.3012L24.5189 43.3039L24.5289 43.3063L24.779 42.3058ZM22.8117 41.295L23.456 40.4896L23.4471 40.4827L22.8117 41.295ZM21.4761 32.8663L20.5184 32.4832L20.5138 32.4951L21.4761 32.8663ZM22.8658 30.8628L22.2056 30.0705L22.204 30.0719L22.8658 30.8628ZM29.8327 29.6716L29.5907 30.6742L29.5945 30.6751L29.8327 29.6716ZM31.8361 30.5921L32.4408 29.7566L32.434 29.7518L31.8361 30.5921ZM32.0166 40.9341L32.73 41.6789L32.0166 40.9341ZM26.7644 39.4902L25.959 40.1344L25.9699 40.1481L25.9813 40.1614L26.7644 39.4902ZM27.9556 39.4902L28.7387 40.1614L28.75 40.1481L28.7609 40.1344L27.9556 39.4902ZM28.3166 38.3711L29.3333 38.5442L29.3339 38.5407L28.3166 38.3711ZM28.3166 33.6063L29.3327 33.4295L28.3166 33.6063ZM26.7644 32.5233L27.5474 33.1945V33.1945L26.7644 32.5233ZM26.4034 33.6063L27.4195 33.783L27.4195 33.783L26.4034 33.6063ZM26.4034 38.3711L25.3861 38.5407L25.3867 38.5442L26.4034 38.3711ZM27.36 41.5451C26.4189 41.5451 25.6469 41.4596 25.0291 41.3052L24.5289 43.3063C25.355 43.5129 26.3037 43.6079 27.36 43.6079V41.5451ZM25.0489 41.3104C24.482 41.1566 23.9525 40.8869 23.456 40.4897L22.1674 42.1004C22.8741 42.6658 23.6562 43.0699 24.5091 43.3012L25.0489 41.3104ZM23.4471 40.4827C22.6186 39.8346 22.0201 38.4324 22.0201 35.8263H19.9574C19.9574 38.6106 20.5742 40.8543 22.1763 42.1074L23.4471 40.4827ZM22.0201 35.8263C22.0201 34.7913 22.1691 33.9355 22.4383 33.2374L20.5138 32.4951C20.1333 33.4815 19.9574 34.5991 19.9574 35.8263H22.0201ZM22.4337 33.2493C22.7186 32.5368 23.0906 32.0196 23.5277 31.6538L22.204 30.0719C21.4619 30.6928 20.9073 31.5111 20.5185 32.4832L22.4337 33.2493ZM23.5261 31.6552C24.4569 30.8795 25.7042 30.4503 27.36 30.4503V28.3876C25.3338 28.3876 23.585 28.921 22.2056 30.0705L23.5261 31.6552ZM27.36 30.4503C28.2536 30.4503 28.9928 30.5299 29.5907 30.6742L30.0747 28.6691C29.2768 28.4765 28.3675 28.3876 27.36 28.3876V30.4503ZM29.5945 30.6751C30.1684 30.8113 30.715 31.0602 31.2381 31.4325L32.434 29.7518C31.7058 29.2336 30.9167 28.8689 30.0708 28.6681L29.5945 30.6751ZM31.2314 31.4276C32.0902 32.0492 32.6998 33.3665 32.6998 35.8263H34.7626C34.7626 33.1361 34.1088 30.9639 32.4408 29.7566L31.2314 31.4276ZM32.6998 35.8263C32.6998 37.9852 32.1653 39.3634 31.3031 40.1893L32.73 41.6789C34.154 40.3148 34.7626 38.2878 34.7626 35.8263H32.6998ZM31.3031 40.1893C30.3954 41.0588 29.1223 41.5451 27.36 41.5451V43.6079C29.5203 43.6079 31.3515 42.9993 32.73 41.6789L31.3031 40.1893ZM25.9813 40.1614C26.3501 40.5916 26.8529 40.7742 27.36 40.7742V38.7115C27.3486 38.7115 27.3763 38.7098 27.4244 38.7302C27.4759 38.7521 27.5191 38.7859 27.5474 38.819L25.9813 40.1614ZM27.36 40.7742C27.8671 40.7742 28.3699 40.5916 28.7387 40.1614L27.1725 38.819C27.2008 38.7859 27.244 38.7521 27.2956 38.7302C27.3437 38.7098 27.3714 38.7115 27.36 38.7115V40.7742ZM28.7609 40.1344C28.9472 39.9016 29.06 39.6262 29.1357 39.3917C29.2162 39.1421 29.2803 38.8555 29.3333 38.5442L27.2998 38.1981C27.2566 38.4523 27.2124 38.6349 27.1726 38.7584C27.1279 38.8969 27.1084 38.8982 27.1502 38.8459L28.7609 40.1344ZM29.3339 38.5407C29.4439 37.8806 29.4923 37.015 29.4923 35.9706H27.4296C27.4296 36.9719 27.3817 37.7065 27.2992 38.2016L29.3339 38.5407ZM29.4923 35.9706C29.4923 34.9283 29.4442 34.0706 29.3327 33.4295L27.3005 33.783C27.3815 34.2489 27.4296 34.9674 27.4296 35.9706H29.4923ZM29.3327 33.4295C29.2795 33.1236 29.2147 32.8406 29.1326 32.5943C29.056 32.3647 28.9385 32.0853 28.7387 31.8521L27.1725 33.1945C27.139 33.1554 27.1298 33.1329 27.1369 33.147C27.143 33.1593 27.1569 33.1903 27.1757 33.2465C27.2139 33.3612 27.2574 33.5354 27.3005 33.783L29.3327 33.4295ZM28.7387 31.8521C28.3699 31.4219 27.8671 31.2393 27.36 31.2393V33.302C27.3714 33.302 27.3437 33.3037 27.2956 33.2833C27.244 33.2614 27.2008 33.2276 27.1725 33.1945L28.7387 31.8521ZM27.36 31.2393C26.8529 31.2393 26.3501 31.4219 25.9813 31.8521L27.5474 33.1945C27.5191 33.2276 27.4759 33.2614 27.4244 33.2833C27.3763 33.3037 27.3486 33.302 27.36 33.302V31.2393ZM25.9813 31.8521C25.7815 32.0853 25.6639 32.3647 25.5874 32.5943C25.5053 32.8406 25.4405 33.1236 25.3873 33.4295L27.4195 33.783C27.4625 33.5354 27.506 33.3612 27.5443 33.2465C27.563 33.1903 27.5769 33.1593 27.5831 33.147C27.5901 33.1329 27.581 33.1554 27.5474 33.1945L25.9813 31.8521ZM25.3873 33.4295C25.2758 34.0706 25.2276 34.9283 25.2276 35.9706H27.2904C27.2904 34.9674 27.3385 34.2489 27.4195 33.783L25.3873 33.4295ZM25.2276 35.9706C25.2276 37.015 25.2761 37.8806 25.3861 38.5407L27.4207 38.2016C27.3382 37.7065 27.2904 36.9719 27.2904 35.9706H25.2276ZM25.3867 38.5442C25.4396 38.8555 25.5038 39.1421 25.5843 39.3917C25.6599 39.6262 25.7727 39.9016 25.959 40.1344L27.5697 38.8459C27.6116 38.8982 27.5921 38.8969 27.5474 38.7584C27.5076 38.6349 27.4634 38.4523 27.4201 38.1981L25.3867 38.5442ZM38.1818 42.2877L37.7456 43.2223H37.7456L38.1818 42.2877ZM37.8027 41.8545L38.7753 41.5113L38.7724 41.5032L37.8027 41.8545ZM33.814 30.8448H32.7826V31.0259L32.8443 31.1961L33.814 30.8448ZM35.0954 30.0506L34.7571 29.0763L34.7529 29.0778L35.0954 30.0506ZM39.5174 30.6643L38.4913 30.7687L38.4919 30.7743L39.5174 30.6643ZM40.131 36.3858L39.1056 36.4958L39.2044 37.4171H40.131V36.3858ZM40.3837 36.3858V37.4171H41.328L41.4111 36.4765L40.3837 36.3858ZM40.8891 30.6643L41.9165 30.7551L41.9168 30.7514L40.8891 30.6643ZM44.5349 29.8521L43.8793 30.6482L43.8937 30.6601L43.9084 30.6714L44.5349 29.8521ZM44.8779 30.4838L43.8507 30.5772L43.8517 30.5874L44.8779 30.4838ZM45.4735 36.3858L44.4473 36.4893L44.541 37.4171H45.4735V36.3858ZM45.7262 36.3858V37.4171H46.6764L46.7541 36.4701L45.7262 36.3858ZM46.1954 30.6643L45.1695 30.5582L45.1684 30.5691L45.1675 30.58L46.1954 30.6643ZM47.4227 29.8702L47.1942 28.8644L47.1908 28.8652L47.4227 29.8702ZM51.3574 29.9424L50.7005 30.7375L50.7088 30.7443L50.7172 30.751L51.3574 29.9424ZM51.7906 30.6643L52.7655 31.0008L52.8219 30.8373V30.6643H51.7906ZM47.9281 41.8545L48.9001 42.1995L48.903 42.1911L47.9281 41.8545ZM43.9213 41.8545L44.9107 41.5635L44.9095 41.5592L43.9213 41.8545ZM42.9827 38.7141L43.9709 38.4187L43.751 37.6827H42.9827V38.7141ZM42.7662 38.7141V37.6827H42.0022L41.7796 38.4135L42.7662 38.7141ZM41.8096 41.8545L40.8229 41.554L40.8191 41.567L41.8096 41.8545ZM39.3188 41.3827C39.0509 41.3827 38.8531 41.3727 38.7153 41.3574C38.6471 41.3498 38.6042 41.3421 38.5815 41.337C38.5551 41.331 38.574 41.3326 38.6179 41.3531L37.7456 43.2223C37.9925 43.3375 38.269 43.3832 38.4875 43.4075C38.7288 43.4343 39.0092 43.4454 39.3188 43.4454V41.3827ZM38.6179 41.3531C38.6525 41.3692 38.693 41.3973 38.7278 41.4371C38.7614 41.4754 38.7735 41.5062 38.7753 41.5113L36.8302 42.1978C36.9855 42.6378 37.2905 43.0099 37.7456 43.2223L38.6179 41.3531ZM38.7724 41.5032L34.7836 30.4935L32.8443 31.1961L36.8331 42.2059L38.7724 41.5032ZM34.8453 30.8448C34.8453 31.1232 34.7143 31.2949 34.6738 31.3417C34.6326 31.3892 34.617 31.389 34.6776 31.3515C34.7967 31.2777 35.0347 31.1655 35.438 31.0235L34.7529 29.0778C34.3019 29.2366 33.8992 29.4072 33.591 29.5981C33.4381 29.6929 33.2623 29.8206 33.1144 29.9915C32.9671 30.1616 32.7826 30.452 32.7826 30.8448H34.8453ZM35.4337 31.0249C36.1961 30.7602 36.9543 30.6308 37.7125 30.6308V28.5681C36.714 28.5681 35.7274 28.7394 34.7571 29.0763L35.4337 31.0249ZM37.7125 30.6308C38.1963 30.6308 38.4156 30.7113 38.4879 30.7539C38.513 30.7687 38.5048 30.7695 38.4924 30.7499C38.4805 30.731 38.4873 30.729 38.4913 30.7687L40.5434 30.56C40.475 29.887 40.1265 29.3257 39.5361 28.9774C39.0068 28.6651 38.3597 28.5681 37.7125 28.5681V30.6308ZM38.4919 30.7743L39.1056 36.4958L41.1565 36.2758L40.5429 30.5543L38.4919 30.7743ZM40.131 37.4171H40.3837V35.3544H40.131V37.4171ZM41.4111 36.4765L41.9165 30.7551L39.8617 30.5736L39.3564 36.295L41.4111 36.4765ZM41.9168 30.7514C41.9149 30.7739 41.901 30.8179 41.873 30.852C41.8533 30.8762 41.8612 30.8523 41.9564 30.8107C42.1682 30.7181 42.5934 30.6308 43.3257 30.6308V28.5681C42.4937 28.5681 41.7307 28.6582 41.1303 28.9206C40.4774 29.206 39.9317 29.7477 39.8614 30.5772L41.9168 30.7514ZM43.3257 30.6308C43.5849 30.6308 43.7598 30.6495 43.8683 30.6722C43.9885 30.6973 43.9578 30.7129 43.8793 30.6482L45.1906 29.056C44.9075 28.8229 44.5731 28.7122 44.2902 28.653C43.9955 28.5915 43.6681 28.5681 43.3257 28.5681V30.6308ZM43.9084 30.6714C43.9042 30.6681 43.8848 30.651 43.8677 30.6194C43.8509 30.5885 43.85 30.5692 43.8507 30.5772L45.905 30.3904C45.8558 29.8489 45.6034 29.3708 45.1614 29.0328L43.9084 30.6714ZM43.8517 30.5874L44.4473 36.4893L46.4996 36.2822L45.904 30.3803L43.8517 30.5874ZM45.4735 37.4171H45.7262V35.3544H45.4735V37.4171ZM46.7541 36.4701L47.2233 30.7486L45.1675 30.58L44.6983 36.3015L46.7541 36.4701ZM47.2213 30.7704C47.2102 30.878 47.1692 30.9661 47.1272 31.024C47.0903 31.075 47.065 31.0859 47.0896 31.07C47.1137 31.0544 47.1682 31.0244 47.2672 30.9874C47.3647 30.951 47.4922 30.9126 47.6547 30.8751L47.1908 28.8652C46.7485 28.9673 46.3183 29.1122 45.969 29.3382C45.6099 29.5706 45.2309 29.9647 45.1695 30.5582L47.2213 30.7704ZM47.6513 30.8759C48.3748 30.7115 49.0802 30.6308 49.7691 30.6308V28.5681C48.9178 28.5681 48.059 28.6679 47.1942 28.8644L47.6513 30.8759ZM49.7691 30.6308C50.1162 30.6308 50.3657 30.6567 50.5351 30.6933C50.7136 30.7318 50.7378 30.7683 50.7005 30.7375L52.0142 29.1472C51.7002 28.8878 51.3213 28.7528 50.9704 28.677C50.6103 28.5993 50.2041 28.5681 49.7691 28.5681V30.6308ZM50.7172 30.751C50.7536 30.7798 50.7763 30.8018 50.7891 30.8156C50.8018 30.8294 50.8026 30.8329 50.7979 30.8249C50.7928 30.8165 50.7825 30.7969 50.7736 30.7668C50.7646 30.736 50.7592 30.7009 50.7592 30.6643H52.8219C52.8219 29.9721 52.416 29.465 51.9976 29.1337L50.7172 30.751ZM50.8156 30.3278L46.9532 41.518L48.903 42.1911L52.7655 31.0008L50.8156 30.3278ZM46.9561 41.5097C46.9975 41.3931 47.0595 41.3113 47.1086 41.2615C47.1551 41.2144 47.1902 41.1954 47.1917 41.1945C47.1941 41.1932 47.1776 41.2023 47.1339 41.2169C47.0911 41.2311 47.0308 41.2477 46.9496 41.2647C46.6086 41.3362 46.0574 41.3827 45.2569 41.3827V43.4454C46.1049 43.4454 46.8231 43.3987 47.3725 43.2836C47.6453 43.2265 47.9298 43.142 48.1817 43.0042C48.429 42.8689 48.7498 42.6229 48.9001 42.1994L46.9561 41.5097ZM45.2569 41.3827C45.0353 41.3827 44.8761 41.373 44.7689 41.3594C44.7162 41.3527 44.6862 41.3462 44.674 41.3431C44.6593 41.3394 44.6819 41.3435 44.7254 41.3652L43.803 43.2102C44.0419 43.3297 44.3024 43.3793 44.5085 43.4056C44.7323 43.4341 44.9852 43.4454 45.2569 43.4454V41.3827ZM44.7254 41.3652C44.7731 41.3891 44.822 41.4271 44.8608 41.4761C44.8976 41.5226 44.9093 41.5587 44.9107 41.5635L42.9318 42.1456C43.061 42.5848 43.3434 42.9804 43.803 43.2102L44.7254 41.3652ZM44.9095 41.5592L43.9709 38.4187L41.9946 39.0094L42.9331 42.1499L44.9095 41.5592ZM42.9827 37.6827H42.7662V39.7454H42.9827V37.6827ZM41.7796 38.4135L40.823 41.554L42.7962 42.1551L43.7528 39.0146L41.7796 38.4135ZM40.8191 41.567C40.8899 41.3231 41.0493 41.2227 41.0649 41.2135C41.0783 41.2054 41.0332 41.2334 40.8796 41.2679C40.576 41.3361 40.0702 41.3827 39.3188 41.3827V43.4454C40.1197 43.4454 40.8051 43.3988 41.3317 43.2805C41.5933 43.2217 41.873 43.1331 42.1211 42.9852C42.3713 42.8361 42.6751 42.5725 42.8 42.1421L40.8191 41.567ZM56.6028 42.2697L56.4708 41.2468L56.4687 41.2471L56.6028 42.2697ZM52.9931 42.2877L53.3857 41.334L52.9931 42.2877ZM53.715 29.9785L53.3639 29.0087L53.3585 29.0107L53.715 29.9785ZM56.7833 29.6355L56.6265 30.6549L56.6332 30.6559L56.7833 29.6355ZM57.6496 30.4116L56.6819 30.7682L56.683 30.7713L57.6496 30.4116ZM59.3823 35.0682L58.4157 35.4279L58.6656 36.0996H59.3823V35.0682ZM59.4545 35.0682V36.0996H60.4859V35.0682H59.4545ZM60.4833 29.9785L60.8398 30.9462L60.4833 29.9785ZM64.2735 30.0326L65.1161 29.4378L65.1152 29.4365L64.2735 30.0326ZM63.3711 42.2697L63.2391 41.2468L63.237 41.2471L63.3711 42.2697ZM59.4906 42.0711L60.4584 41.7146L60.4553 41.7064L59.4906 42.0711ZM57.8121 37.6311L58.7768 37.2664L58.5248 36.5998H57.8121V37.6311ZM57.7218 37.6311V36.5998H56.6905V37.6311H57.7218ZM56.6905 41.8906C56.6905 41.4711 56.9504 41.2399 57.0288 41.1804C57.1107 41.1184 57.1608 41.1091 57.1112 41.1259C57.0236 41.1555 56.8254 41.201 56.4708 41.2468L56.7348 43.2926C57.1262 43.2421 57.4875 43.1762 57.7729 43.0796C57.9099 43.0332 58.0999 42.9569 58.2749 42.8242C58.4466 42.6941 58.7532 42.3885 58.7532 41.8906H56.6905ZM56.4687 41.2471C55.7788 41.3375 55.0896 41.3827 54.4009 41.3827V43.4454C55.1801 43.4454 55.9589 43.3943 56.7369 43.2923L56.4687 41.2471ZM54.4009 41.3827C54.0497 41.3827 53.7827 41.3725 53.5906 41.3552C53.4949 41.3467 53.4286 41.3373 53.3862 41.3293C53.338 41.3203 53.3463 41.3178 53.3857 41.334L52.6004 43.2414C52.8562 43.3467 53.1577 43.3874 53.4062 43.4097C53.6834 43.4346 54.018 43.4454 54.4009 43.4454V41.3827ZM53.3857 41.334C53.3983 41.3392 53.4897 41.3791 53.579 41.4947C53.6788 41.6237 53.7176 41.7719 53.7176 41.8906H51.6549C51.6549 42.1899 51.7448 42.4945 51.9468 42.7559C52.1384 43.0038 52.3833 43.152 52.6004 43.2414L53.3857 41.334ZM53.7176 41.8906V30.8087H51.6549V41.8906H53.7176ZM53.7176 30.8087C53.7176 30.9398 53.6778 31.046 53.6373 31.1141C53.6014 31.1747 53.5727 31.193 53.5911 31.1781C53.6084 31.1642 53.6524 31.133 53.7368 31.0895C53.8198 31.0468 53.9298 30.9984 54.0715 30.9462L53.3585 29.0107C52.97 29.1538 52.5933 29.3328 52.2957 29.5729C51.9982 29.8131 51.6549 30.2225 51.6549 30.8087H53.7176ZM54.0661 30.9482C54.6329 30.743 55.2993 30.6308 56.0794 30.6308V28.5681C55.1027 28.5681 54.1929 28.7085 53.3639 29.0087L54.0661 30.9482ZM56.0794 30.6308C56.38 30.6308 56.5505 30.6432 56.6265 30.6549L56.9401 28.6162C56.7032 28.5797 56.4045 28.5681 56.0794 28.5681V30.6308ZM56.6332 30.6559C56.6467 30.6579 56.6468 30.6596 56.639 30.656C56.6306 30.6521 56.623 30.6468 56.6185 30.6429C56.6094 30.6347 56.6412 30.6578 56.6819 30.7682L58.6174 30.0551C58.3464 29.3195 57.7897 28.7411 56.9334 28.6151L56.6332 30.6559ZM56.683 30.7713L58.4157 35.4279L60.3489 34.7085L58.6162 30.052L56.683 30.7713ZM59.3823 36.0996H59.4545V34.0368H59.3823V36.0996ZM60.4859 35.0682V30.8087H58.4232V35.0682H60.4859ZM60.4859 30.8087C60.4859 30.9398 60.4461 31.046 60.4056 31.1141C60.3697 31.1747 60.341 31.193 60.3594 31.1781C60.3767 31.1642 60.4207 31.133 60.5051 31.0895C60.5881 31.0468 60.6981 30.9984 60.8398 30.9462L60.1268 29.0107C59.7383 29.1538 59.3616 29.3328 59.064 29.5729C58.7664 29.8131 58.4232 30.2225 58.4232 30.8087H60.4859ZM60.8398 30.9462C61.3911 30.7431 62.0491 30.6308 62.8296 30.6308V28.5681C61.8535 28.5681 60.9472 28.7084 60.1268 29.0107L60.8398 30.9462ZM62.8296 30.6308C63.1538 30.6308 63.3539 30.6629 63.4628 30.6956C63.5733 30.7288 63.5084 30.7367 63.4319 30.6287L65.1152 29.4365C64.8341 29.0397 64.4263 28.8311 64.0555 28.7199C63.6831 28.6081 63.2635 28.5681 62.8296 28.5681V30.6308ZM63.431 30.6274C63.448 30.6515 63.4591 30.6698 63.4661 30.6823C63.473 30.6949 63.4749 30.7001 63.4742 30.6982C63.4727 30.6945 63.4588 30.6566 63.4588 30.5921H65.5215C65.5215 30.13 65.3268 29.7362 65.1161 29.4378L63.431 30.6274ZM63.4588 30.5921V41.8906H65.5215V30.5921H63.4588ZM63.4588 41.8906C63.4588 41.4711 63.7187 41.2399 63.7971 41.1804C63.879 41.1184 63.9291 41.1091 63.8795 41.1259C63.7919 41.1555 63.5937 41.201 63.2391 41.2468L63.5031 43.2926C63.8945 43.2421 64.2558 43.1762 64.5412 43.0796C64.6781 43.0332 64.8682 42.9569 65.0432 42.8242C65.2149 42.6941 65.5215 42.3885 65.5215 41.8906H63.4588ZM63.237 41.2471C62.5553 41.3365 61.7887 41.3827 60.9345 41.3827V43.4454C61.8611 43.4454 62.7189 43.3954 63.5052 43.2923L63.237 41.2471ZM60.9345 41.3827C60.524 41.3827 60.2777 41.3545 60.1531 41.3249C60.0908 41.3101 60.1083 41.3061 60.163 41.3393C60.221 41.3745 60.3741 41.4858 60.4584 41.7146L58.5228 42.4277C58.6492 42.7708 58.8941 42.9821 59.0935 43.1031C59.2895 43.2219 59.4981 43.2894 59.6764 43.3318C60.0331 43.4165 60.4667 43.4454 60.9345 43.4454V41.3827ZM60.4553 41.7064L58.7768 37.2664L56.8474 37.9958L58.5259 42.4358L60.4553 41.7064ZM57.8121 36.5998H57.7218V38.6625H57.8121V36.5998ZM56.6905 37.6311V41.8906H58.7532V37.6311H56.6905Z" fill="#F67F00" mask="url(#path-2-outside-1_3700_12124)"/>
</svg>
