<svg xmlns="http://www.w3.org/2000/svg" width="40" height="40" viewBox="0 0 40 40" fill="none">
  <path d="M20 0C8.972 0 0 8.972 0 20C0 31.028 8.972 40 20 40C31.028 40 40 31.028 40 20C40 8.972 31.028 0 20 0ZM10.303 23.0303C8.63212 23.0303 7.27273 21.6709 7.27273 20C7.27273 18.3291 8.63212 16.9697 10.303 16.9697C11.9739 16.9697 13.3333 18.3291 13.3333 20C13.3333 21.6709 11.9739 23.0303 10.303 23.0303ZM20 23.0303C18.3291 23.0303 16.9697 21.6709 16.9697 20C16.9697 18.3291 18.3291 16.9697 20 16.9697C21.6709 16.9697 23.0303 18.3291 23.0303 20C23.0303 21.6709 21.6709 23.0303 20 23.0303ZM29.697 23.0303C28.0261 23.0303 26.6667 21.6709 26.6667 20C26.6667 18.3291 28.0261 16.9697 29.697 16.9697C31.3679 16.9697 32.7273 18.3291 32.7273 20C32.7273 21.6709 31.3679 23.0303 29.697 23.0303Z" fill="#176200"/>
</svg>