<svg xmlns="http://www.w3.org/2000/svg" width="200" height="183" viewBox="0 0 200 183" fill="none">
  <path d="M190.797 14.8332H173.942V8.20311C173.942 3.68007 170.262 0 165.739 0C161.216 0 157.536 3.68007 157.536 8.20311V14.8332H147.152V8.20311C147.152 3.68007 143.471 0 138.948 0C134.425 0 130.745 3.68007 130.745 8.20311V14.8332H80.168C78.55 14.8332 77.2383 16.1445 77.2383 17.7629C77.2383 19.3812 78.55 20.6926 80.168 20.6926H130.745V27.3492C130.745 31.8722 134.425 35.5523 138.948 35.5523C143.471 35.5523 147.151 31.8722 147.151 27.3492V20.6926H157.536V27.3492C157.536 31.8722 161.216 35.5523 165.739 35.5523C170.262 35.5523 173.942 31.8722 173.942 27.3492V20.6926H190.797C192.641 20.6926 194.141 22.1945 194.141 24.0402V41.5945C194.141 43.4386 192.641 44.9386 190.797 44.9386H9.20323C7.35948 44.9386 5.85948 43.4386 5.85948 41.5945V24.0402C5.85948 22.1941 7.35948 20.6926 9.20323 20.6926H26.0579V27.3492C26.0579 31.8722 29.7376 35.5523 34.261 35.5523C38.7844 35.5523 42.4641 31.8722 42.4641 27.3492V20.6926H52.8485V27.3492C52.8485 31.8722 56.5282 35.5523 61.0516 35.5523C65.575 35.5523 69.2547 31.8722 69.2547 27.3492V8.20311C69.2547 3.68007 65.575 0 61.0516 0C56.5282 0 52.8485 3.68007 52.8485 8.20311V14.8332H42.4641V8.20311C42.4641 3.68007 38.7844 0 34.261 0C29.7376 0 26.0579 3.68007 26.0579 8.20311V14.8332H9.20323C4.12862 14.8332 0.000113632 18.9633 0.000113632 24.0402V41.5945C-0.0268395 47.0484 4.74503 51.2273 10.1235 50.798V173.953C10.1235 178.855 14.1114 182.843 19.013 182.843H180.987C185.889 182.843 189.876 178.855 189.876 173.953V50.798C195.255 51.2277 200.027 47.048 200 41.5945V24.0402C200 18.9633 195.872 14.8332 190.797 14.8332ZM141.292 27.3492C141.292 28.6418 140.241 29.6929 138.948 29.6929C137.655 29.6929 136.604 28.6418 136.604 27.3492V8.20311C136.604 6.91054 137.655 5.85937 138.948 5.85937C140.241 5.85937 141.292 6.91054 141.292 8.20311V27.3492ZM165.739 29.6929C164.446 29.6929 163.395 28.6418 163.395 27.3492V8.20311C163.395 6.91054 164.446 5.85937 165.739 5.85937C167.032 5.85937 168.083 6.91054 168.083 8.20311V27.3492C168.083 28.6418 167.032 29.6929 165.739 29.6929ZM58.7082 8.20311C58.7082 6.91054 59.7594 5.85937 61.052 5.85937C62.3446 5.85937 63.3957 6.91054 63.3957 8.20311V27.3492C63.3957 28.6418 62.3446 29.6929 61.052 29.6929C59.7594 29.6929 58.7082 28.6418 58.7082 27.3492V8.20311ZM34.261 5.85937C35.5536 5.85937 36.6048 6.91054 36.6048 8.20311V27.3492C36.6048 28.6418 35.5536 29.6929 34.261 29.6929C32.9684 29.6929 31.9173 28.6418 31.9173 27.3492V8.20311C31.9173 6.91093 32.9688 5.85937 34.261 5.85937ZM184.017 173.954C184.017 175.624 182.658 176.984 180.987 176.984H19.0134C17.3427 176.984 15.9833 175.625 15.9833 173.954V50.7984H184.017L184.017 173.954Z" fill="#00FFFF"/>
  <path d="M26.7266 169.173H63.3269C63.3398 169.173 63.3519 169.175 63.3648 169.175C64.9828 169.175 66.2945 167.864 66.2945 166.245V138.719C70.7324 141.454 75.9531 143.036 81.5374 143.036C87.2456 143.036 92.5714 141.38 97.0718 138.533V163.314H77.1109C75.4929 163.314 74.1812 164.625 74.1812 166.244C74.1812 167.862 75.4929 169.173 77.1109 169.173H173.276C174.895 169.173 176.206 167.862 176.206 166.244V61.543C176.206 59.9246 174.895 58.6133 173.276 58.6133H26.7266C25.1086 58.6133 23.7969 59.9246 23.7969 61.543V166.243C23.7969 167.862 25.1086 169.173 26.7266 169.173ZM170.347 128.413H139.569V99.3742H170.347V128.413ZM133.709 128.413H106.79C109.26 124.135 110.681 119.178 110.681 113.893C110.681 108.609 109.26 103.652 106.79 99.3742H133.709V128.413ZM102.931 93.5148V64.4726H133.709V93.5148H102.931ZM97.0718 89.2539C92.5714 86.4062 87.2456 84.7504 81.5374 84.7504C75.9531 84.7504 70.7324 86.3324 66.2945 89.0672V64.473H97.0718V89.2539ZM29.6562 99.3742H56.2847C53.8152 103.652 52.3941 108.609 52.3941 113.893C52.3941 119.178 53.8152 124.135 56.2851 128.413H29.6562V99.3742ZM29.6562 134.273H60.4351V163.314H29.6562V134.273ZM58.2539 113.893C58.2539 101.055 68.6988 90.6097 81.5374 90.6097C94.3761 90.6097 104.821 101.055 104.821 113.893C104.821 126.732 94.3761 137.177 81.5374 137.177C68.6988 137.177 58.2539 126.732 58.2539 113.893ZM102.931 134.273H133.709V163.314H102.931V134.273ZM139.569 163.314V134.272H170.347V163.314H139.569ZM170.347 93.5148H139.569V64.4726H170.347V93.5148ZM60.4351 64.4726V93.5148H29.6562V64.4726H60.4351Z" fill="white"/>
  <path d="M90.594 108.194L78.9456 118.178L73.4073 112.639C72.2632 111.496 70.4081 111.496 69.2644 112.639C68.1202 113.784 68.1202 115.639 69.2644 116.783L76.721 124.239C77.2905 124.809 78.0409 125.097 78.7932 125.097C79.4702 125.097 80.1487 124.864 80.6991 124.392L94.4073 112.642C95.6358 111.589 95.778 109.739 94.7249 108.511C93.6717 107.283 91.8221 107.141 90.594 108.194Z" fill="#FF0000"/>
  <path d="M151.789 82.6055H158.427C160.045 82.6055 161.356 81.2941 161.356 79.6758C161.356 78.0574 160.045 76.7461 158.427 76.7461H151.789C150.171 76.7461 148.859 78.0574 148.859 79.6758C148.859 81.2941 150.171 82.6055 151.789 82.6055Z" fill="#FCBF4A"/>
  <path d="M121.637 145.891H115C113.382 145.891 112.07 147.202 112.07 148.82C112.07 150.439 113.382 151.75 115 151.75H121.637C123.255 151.75 124.567 150.439 124.567 148.82C124.567 147.202 123.255 145.891 121.637 145.891Z" fill="#FCBF4A"/>
</svg>