<svg xmlns="http://www.w3.org/2000/svg" width="200" height="197" viewBox="0 0 200 197" fill="none">
  <path d="M199.28 155.403L187.664 121.597C193.263 110.151 196.222 97.4216 196.242 84.6134C196.276 62.3426 187.66 41.2852 171.98 25.3203C156.296 9.35234 135.397 0.363662 113.131 0.0109273C90.0431 -0.353917 68.3415 8.42812 52.0263 24.743C36.2942 40.4746 27.5684 61.2141 27.2923 83.3766C11.7868 95.0509 2.63482 113.252 2.6649 132.693C2.67935 141.791 4.72701 150.834 8.60709 159.012L0.60591 182.296C-0.769482 186.299 0.235206 190.645 3.22818 193.638C5.33443 195.745 8.11139 196.866 10.9672 196.866C12.1688 196.866 13.3844 196.668 14.57 196.26L37.8548 188.259C46.0325 192.139 55.0759 194.187 64.1736 194.201C64.2064 194.201 64.2376 194.201 64.2704 194.201C84.0009 194.201 102.341 184.813 113.972 168.927C126.077 168.608 138.053 165.678 148.88 160.382L182.686 171.998C184.095 172.482 185.539 172.718 186.967 172.718C190.361 172.718 193.661 171.385 196.164 168.881C199.721 165.325 200.914 160.16 199.28 155.403ZM64.2697 182.297C64.2443 182.297 64.2173 182.297 64.1919 182.297C56.1396 182.285 48.1431 180.299 41.0685 176.556C39.6138 175.787 37.906 175.654 36.3505 176.188L12.4743 184.393L20.6786 160.517C21.213 158.961 21.0802 157.253 20.3106 155.799C16.5676 148.724 14.5825 140.728 14.57 132.675C14.5501 119.722 19.5887 107.445 28.4001 98.2524C31.2782 115.798 39.6403 131.966 52.6021 144.697C65.4681 157.334 81.6408 165.38 99.0908 168.011C89.8767 177.092 77.4564 182.297 64.2697 182.297ZM187.746 160.463C187.407 160.802 187.005 160.894 186.554 160.739L150.363 148.303C149.735 148.087 149.081 147.98 148.429 147.98C147.469 147.98 146.512 148.212 145.646 148.671C135.312 154.137 123.636 157.036 111.877 157.054C111.838 157.054 111.803 157.054 111.765 157.054C72.365 157.054 39.8208 125.049 39.1966 85.6587C38.8821 65.8208 46.4282 47.1766 60.4443 33.1606C74.4603 19.1445 93.1076 11.6012 112.943 11.9137C152.371 12.5391 184.398 45.1434 184.337 84.5946C184.319 96.3532 181.42 108.03 175.954 118.363C175.185 119.817 175.052 121.525 175.586 123.081L188.022 159.271C188.177 159.724 188.084 160.126 187.746 160.463Z" fill="#176200"/>
  <path d="M147.226 52.9375H76.3039C73.0164 52.9375 70.3516 55.6027 70.3516 58.8899C70.3516 62.1774 73.0168 64.8422 76.3039 64.8422H147.226C150.513 64.8422 153.178 62.177 153.178 58.8899C153.178 55.6027 150.513 52.9375 147.226 52.9375Z" fill="black"/>
  <path d="M147.226 77.4141H76.3039C73.0164 77.4141 70.3516 80.0793 70.3516 83.3664C70.3516 86.6535 73.0168 89.3188 76.3039 89.3188H147.226C150.513 89.3188 153.178 86.6535 153.178 83.3664C153.178 80.0793 150.513 77.4141 147.226 77.4141Z" fill="black"/>
  <path d="M119.926 101.895H76.3039C73.0164 101.895 70.3516 104.56 70.3516 107.847C70.3516 111.134 73.0168 113.799 76.3039 113.799H119.926C123.213 113.799 125.878 111.134 125.878 107.847C125.878 104.56 123.214 101.895 119.926 101.895Z" fill="black"/>
</svg>