<svg width="276" height="321" viewBox="0 0 276 321" fill="none" xmlns="http://www.w3.org/2000/svg">
<path d="M15.5365 127.611L15.5365 127.611C11.308 134.862 9.48567 144.016 10.3326 153.377L12.2103 174.13C12.5025 177.36 15.357 179.741 18.5873 179.449C21.8177 179.157 24.1983 176.302 23.9061 173.072L22.0284 152.319C21.4065 145.445 22.7667 138.98 25.3624 134.177C27.9707 129.351 31.698 126.399 35.7577 126.031L232.384 108.242C236.444 107.874 240.64 110.109 244.072 114.389C247.488 118.648 249.986 124.764 250.608 131.638L262.492 262.984C263.114 269.858 261.754 276.323 259.158 281.126C256.55 285.952 252.822 288.904 248.763 289.271L226.116 291.32C222.886 291.612 220.505 294.468 220.798 297.697C221.09 300.927 223.944 303.308 227.175 303.016L249.821 300.967C257.673 300.257 264.457 295.453 268.983 287.692L267.687 286.936L268.983 287.692C273.212 280.44 275.034 271.287 274.187 261.926L262.303 130.58C261.457 121.219 258.021 112.541 252.559 106.166C246.714 99.3429 239.178 95.8353 231.326 96.5457L205.529 98.8797L146.95 42.0214C148.178 38.7668 148.71 35.1938 148.377 31.5054C147.194 18.4275 135.595 8.75318 122.517 9.93636C109.44 11.1195 99.765 22.7186 100.948 35.7965C101.281 39.4768 102.442 42.8889 104.227 45.8654L56.7893 112.337L34.6989 114.336C26.8473 115.046 20.0625 119.85 15.5365 127.611ZM123.575 21.6322C130.201 21.0328 136.081 25.9374 136.681 32.5635C137.28 39.1897 132.376 45.0701 125.75 45.6696C119.124 46.2691 113.244 41.3644 112.644 34.7383C112.045 28.1122 116.949 22.2317 123.575 21.6322ZM72.2983 110.934L112.749 54.253C116.861 56.6385 121.722 57.8256 126.808 57.3654C131.887 56.906 136.45 54.871 140.064 51.7937L190.02 100.283L72.2983 110.934Z" fill="black" stroke="black" stroke-width="3"/>
<path d="M205.266 293.207L52.1382 307.062C48.0789 307.429 43.8822 305.194 40.4501 300.914C37.0345 296.656 34.5358 290.54 33.9139 283.666L25.7131 193.025C25.4209 189.795 22.5664 187.414 19.3361 187.706C16.1057 187.998 13.725 190.853 14.0172 194.083L22.218 284.724C23.065 294.085 26.5006 302.763 31.962 309.138C37.8075 315.961 45.3443 319.468 53.1959 318.758L206.324 304.903C209.554 304.611 211.935 301.756 211.643 298.526C211.351 295.297 208.496 292.915 205.266 293.207Z" fill="black" stroke="black" stroke-width="3"/>
<path d="M68.4039 238.506C70.809 238.288 72.5815 236.162 72.3639 233.758C72.1464 231.353 70.0212 229.58 67.616 229.798L50.9087 231.309C48.5036 231.527 46.7311 233.653 46.9486 236.057L50.5361 275.708C50.7536 278.112 52.8788 279.886 55.284 279.668L71.9913 278.156C74.3965 277.939 76.1689 275.813 75.9514 273.408C75.7338 271.004 73.6086 269.231 71.2034 269.448L58.8502 270.566L57.8443 259.449L68.9657 258.442C71.3708 258.225 73.1433 256.099 72.9258 253.694C72.7082 251.29 70.583 249.517 68.1778 249.734L57.0565 250.741L56.0506 239.623L68.4039 238.506Z" fill="black"/>
<path d="M142.289 231.296C142.077 231.421 140.645 232.3 138.82 234.085C138.295 232.047 136.362 230.629 134.198 230.825C131.793 231.042 130.02 233.168 130.238 235.573L133.193 268.233C133.41 270.637 135.535 272.41 137.941 272.193C140.346 271.975 142.118 269.849 141.901 267.445L140.14 247.983C140.125 247.815 140.086 246.222 143.365 242.08C145.104 239.883 146.681 238.86 146.776 238.8C148.824 237.562 149.498 234.901 148.277 232.835C147.048 230.757 144.367 230.069 142.289 231.296Z" fill="black"/>
<path d="M102.194 235.336C99.5266 235.577 96.9173 236.527 94.6711 238.204C93.8365 236.807 92.2553 235.93 90.5259 236.087C88.1207 236.304 86.3483 238.43 86.5658 240.834L89.4028 272.191C89.6204 274.596 91.7456 276.369 94.1508 276.151C96.5559 275.934 98.3284 273.808 98.1109 271.403L96.7416 256.269C96.1059 249.243 98.5555 244.444 102.982 244.044C105.145 243.848 106.17 244.49 106.752 244.99C108.445 246.443 109.537 249.789 109.827 254.415C109.829 254.455 109.832 254.496 109.836 254.536L111.241 270.065C111.458 272.47 113.584 274.243 115.989 274.026C118.394 273.808 120.166 271.682 119.949 269.278L118.549 253.807C118.09 246.634 116.037 241.435 112.445 238.354C109.723 236.019 106.178 234.975 102.194 235.336Z" fill="black"/>
<path d="M215.307 219.532C212.902 219.749 211.13 221.875 211.347 224.28L214.657 260.859C214.874 263.263 216.999 265.037 219.405 264.819C221.81 264.601 223.582 262.476 223.365 260.071L220.055 223.492C219.838 221.087 217.712 219.314 215.307 219.532Z" fill="black"/>
<path d="M236.659 217.598C234.254 217.816 232.481 219.942 232.699 222.346L236.008 258.925C236.226 261.33 238.351 263.103 240.756 262.885C243.161 262.668 244.934 260.542 244.716 258.137L241.407 221.558C241.189 219.154 239.063 217.381 236.659 217.598Z" fill="black"/>
<path d="M176.382 228.324C165.338 229.324 157.165 239.123 158.164 250.168C159.163 261.212 168.962 269.385 180.007 268.386C191.052 267.387 199.225 257.588 198.226 246.543C197.226 235.498 187.427 227.325 176.382 228.324ZM179.219 259.678C172.975 260.243 167.437 255.623 166.872 249.38C166.307 243.136 170.927 237.597 177.17 237.032C183.414 236.468 188.953 241.088 189.518 247.331C190.082 253.574 185.463 259.113 179.219 259.678Z" fill="black"/>
<path d="M239.697 140.58C239.457 138.192 237.339 136.447 234.954 136.663C234.939 136.664 234.925 136.665 234.911 136.666C232.508 136.907 230.756 139.05 230.996 141.452L234.132 172.733L207.779 141.101C206.554 139.631 204.518 139.128 202.748 139.86C200.98 140.591 199.893 142.388 200.066 144.293L204.106 188.951C204.324 191.355 206.449 193.129 208.854 192.911C211.259 192.693 213.032 190.568 212.814 188.163L210.037 157.472L235.212 187.69C236.714 189.49 238.987 190.113 240.998 189.279C243.063 188.424 244.253 186.28 244.026 183.776L239.697 140.58Z" fill="black"/>
<path d="M164.364 196.733L183.044 195.043C185.449 194.826 187.222 192.7 187.004 190.295C186.786 187.891 184.661 186.118 182.256 186.335L167.93 187.631L166.712 174.173L179.661 173.001C182.066 172.784 183.839 170.658 183.621 168.253C183.404 165.849 181.279 164.076 178.873 164.293L165.925 165.465L164.707 152.006L179.033 150.71C181.438 150.492 183.21 148.367 182.993 145.962C182.775 143.557 180.65 141.784 178.245 142.002L159.565 143.692C157.16 143.91 155.387 146.035 155.605 148.44L159.616 192.773C159.834 195.178 161.959 196.951 164.364 196.733Z" fill="black"/>
<path d="M139.663 162.401C138.816 153.038 130.398 146.12 120.899 146.98L108.441 148.107C106.096 148.272 104.229 150.523 104.481 152.855L108.529 197.596C108.746 200.001 110.871 201.774 113.277 201.556C115.682 201.339 117.454 199.213 117.237 196.808L115.87 181.704C118.651 181.438 122.106 181.109 123.972 180.94C133.471 180.08 140.51 171.764 139.663 162.401ZM114.362 164.69C114.218 163.094 113.874 159.403 113.596 156.42L121.687 155.688C126.305 155.27 130.55 158.705 130.955 163.189C131.361 167.673 127.802 171.814 123.184 172.232C121.332 172.399 117.921 172.724 115.145 172.99C114.872 170.134 114.534 166.588 114.362 164.69Z" fill="black"/>
<path d="M76.737 167.775C78.942 170.475 80.3916 173.838 80.7287 177.563C81.0556 181.177 80.291 184.642 78.7074 187.632L75.6801 197.618L79.6481 199.996C86.323 194.545 90.27 185.985 89.4367 176.774C88.6178 167.723 83.3696 160.118 76.0277 155.905L71.1875 160.261L76.737 167.775Z" fill="black"/>
<path d="M65.1228 205.91C70.7244 205.404 75.7696 203.197 79.802 199.851L78.6957 187.622C75.9257 192.852 70.6552 196.63 64.3349 197.202C54.4008 198.101 45.5873 190.75 44.6885 180.815C43.7896 170.881 51.1406 162.067 61.0748 161.168C67.3951 160.597 73.2587 163.367 76.9217 168.015L76.2294 160.364C76.094 158.867 76.0286 157.381 76.0168 155.905C71.4053 153.259 65.9716 151.947 60.2869 152.461C45.5506 153.794 34.6472 166.868 35.9805 181.604C37.3137 196.34 50.3865 207.244 65.1228 205.91Z" fill="black"/>
</svg>
