<svg width="96" height="95" viewBox="0 0 96 95" fill="none" xmlns="http://www.w3.org/2000/svg">
<rect x="0.976562" width="94.0476" height="94.0476" rx="12.5" fill="url(#paint0_linear_3428_38085)"/>
<mask id="mask0_3428_38085" style="mask-type:alpha" maskUnits="userSpaceOnUse" x="2" y="1" width="92" height="92">
<rect x="2.17188" y="1.1875" width="91.0714" height="91.6667" rx="12.5" fill="#D9D9D9"/>
</mask>
<g mask="url(#mask0_3428_38085)">
<path d="M111.879 48.7086L108.282 49.6139L63.7031 46.0524L67.3748 45.4922L111.879 48.7086Z" fill="#FFB680"/>
<path d="M105.779 50.2418C105.365 54.6623 96.7306 60.102 86.5015 59.2009C76.2725 58.2998 67.3586 51.3222 68.4594 47.0145C69.0497 44.7046 72.9678 42.3631 75.6422 41.5425C79.0417 40.4999 83.1433 40.2937 88.0071 40.6062C98.4927 41.28 106.193 45.8213 105.779 50.2418Z" fill="#FFB680"/>
<path d="M104.754 49.3292C103.678 45.4208 96.1884 41.9967 86.8765 41.4052C77.7423 40.825 70.549 42.9024 68.8772 46.4627L63.7031 46.0494L64.2745 97.9654L106.169 108.943L108.282 49.6109L104.754 49.3292Z" fill="#F49540"/>
<path d="M64.4506 72.3281L-5.74219 77.2466L33.965 87.4872L106.166 82.4537L64.4506 72.3281Z" fill="#FFFBD7"/>
<path d="M105.424 103.239L28.8438 108.303V97.5128L105.838 92.4492L105.424 103.239Z" fill="#EF8333"/>
<path d="M105.822 93.6876L28.8438 98.8844V87.4591L106.17 82.457L105.822 93.6876Z" fill="#FFF2BB"/>
<path opacity="0.16" d="M106.379 70.3276C106.379 70.3276 102.336 70.9193 100.512 70.697C100.091 70.6457 99.6144 70.6721 99.078 70.8145C99.0102 70.8325 98.9537 70.8694 98.8899 70.8944C95.5634 67.1258 77.7572 62.7017 70.413 62.7464C70.0574 62.7486 57.4578 67.091 56.4594 70.606C56.3774 70.5969 56.2945 70.5896 56.2096 70.5976C55.363 70.6769 54.1484 71.7197 54.1484 71.7197C54.1484 71.7197 56.4386 73.0193 57.6149 72.6959C58.8894 74.789 71.7703 79.9289 77.7087 79.8673C78.1721 80.6368 78.3845 81.3285 78.7996 81.5648C78.9252 81.6364 80.4364 82.0197 82.2517 80.8976C87.9584 80.4903 95.4837 80.0634 96.1707 79.9423C96.2408 79.93 106.379 70.3276 106.379 70.3276Z" fill="#BF3C02"/>
<path d="M67.8768 60.4645C68.2925 61.5487 70.5948 62.605 70.9111 61.9313C71.6297 60.4004 68.5354 58.25 68.5354 58.25C68.5354 58.25 67.4613 59.3803 67.8768 60.4645Z" fill="white"/>
<path opacity="0.11" d="M70.416 62.0534C70.8089 61.7532 71.1891 61.6204 70.9207 60.9207C70.1934 60.4938 68.627 60.3355 67.875 60.5132C68.3397 61.5075 69.9324 62.4233 70.416 62.0534Z" fill="black"/>
<path d="M77.9775 79.9002C69.4128 78.3303 56.4137 73.86 57.5458 69.2089C57.4879 68.4906 58.3376 67.013 58.7045 66.5412C61.5225 62.9163 68.1883 60.7793 72.2999 60.7543C81.2226 60.6998 104.826 66.9104 102.735 71.0967C101.692 80.6594 82.7779 80.78 77.9775 79.9002Z" fill="white"/>
<path opacity="0.11" d="M102.872 71.6258C102.872 71.6258 101.047 71.5684 100.93 72.1045C100.777 72.7999 101.148 73.3908 101.835 73.8544C102.467 72.881 102.872 71.6258 102.872 71.6258ZM80.375 78.0939C79.7017 78.2996 79.6819 78.8358 79.448 80.023C80.7016 80.2329 81.7848 80.3284 82.6151 80.2076C82.1184 78.8253 81.1908 77.8447 80.375 78.0939ZM57.2969 68.8945C57.3021 68.9462 57.3322 70.5743 58.0239 71.4208C58.4707 70.9118 58.7218 69.9142 58.5184 69.4161C58.2977 68.8761 57.7168 69.0484 57.2969 68.8945Z" fill="black"/>
<path d="M77.7747 78.6697C78.1495 77.7347 80.9997 76.4022 81.6854 78.3619C81.6274 81.4402 78.7981 81.5672 78.7981 81.5672C78.7981 81.5672 77.4 79.6048 77.7747 78.6697Z" fill="white"/>
<path opacity="0.05" d="M98.8917 70.6364C95.2995 75.8386 82.1871 76.844 78.4407 76.1873C76.1491 75.7857 60.7512 72.7399 57.3066 69.0781C56.5403 73.6515 69.2277 78.0157 77.6847 79.5785C77.9938 80.4208 78.9236 81.6869 78.9236 81.6869C78.9236 81.6869 80.8161 81.2252 81.1782 79.7938C87.8042 79.935 99.7258 78.4167 102.322 72.392C100.239 72.7411 99.2711 70.9157 98.8917 70.6364Z" fill="black"/>
<path d="M57.5432 68.4894C58.4371 68.4469 59.2009 69.5908 58.721 70.0538C57.2891 71.4345 55.1875 70.019 55.1875 70.019C55.1875 70.019 56.0819 68.5589 57.5432 68.4894Z" fill="white"/>
<path opacity="0.12" d="M33.3463 87.4724C34.1271 92.125 33.1094 104.683 32.8828 106.206C35.873 105.913 68.9491 104.424 69.2263 104.227C70.3183 103.452 68.1449 87.7607 67.5077 83.6019C67.3504 82.5757 60.4781 77.1016 60.4781 77.1016C60.4781 77.1016 33.2073 86.6455 33.3463 87.4724Z" fill="#BF3C02"/>
<path d="M67.7934 102.804C66.1321 103.995 28.8343 106.015 28.8343 106.015L28.3984 86.3118L66.9629 84.1836C66.9629 84.1836 69.1258 101.849 67.7934 102.804Z" fill="#005F99"/>
<path d="M31.7449 69.174C22.0411 69.9154 25.2519 70.455 16.7354 71.5227C15.6315 71.6611 16.4094 72.7962 13.3753 72.1971C10.102 71.5508 8.36835 73.5032 7.03136 73.4336C1.73363 73.1572 0.571652 73.9955 -0.905743 76.5245C-5.96977 85.1934 27.8984 86.6059 27.8984 86.6059L66.9649 84.1778C66.9939 82.1077 64.9566 81.6863 61.1908 79.4101C58.5133 77.7918 52.5555 69.1089 47.4197 67.6433C43.7659 67.4613 38.115 68.6872 31.7449 69.174Z" fill="#026DA8"/>
<path opacity="0.11" d="M66.628 82.9336L20.5516 85.2132L19.7344 87.1165C19.7344 87.1165 66.7082 84.2216 66.9688 84.1842C66.9881 83.4415 66.628 82.9336 66.628 82.9336Z" fill="white"/>
<path opacity="0.12" d="M16.2409 71.7031C15.6741 72.376 15.2836 72.543 13.4688 72.2242C17.2317 73.0643 20.0659 73.8817 23.7127 76.8351C20.8688 73.4273 19.3298 72.4212 16.2409 71.7031Z" fill="black"/>
<path opacity="0.12" d="M0.351562 74.7542C5.34558 75.3917 14.1888 75.9625 18.3114 79.2669C14.2603 75.7838 9.93895 74.1723 6.71008 73.4204C4.37707 73.3163 1.98832 73.2648 0.351562 74.7542Z" fill="black"/>
<path opacity="0.25" d="M42.6052 76.013L43.4103 76.967C43.482 77.0519 43.5921 77.0971 43.7047 77.088L44.9714 76.9855C45.2551 76.9624 45.4428 77.265 45.289 77.4976L44.6025 78.5352C44.5414 78.6275 44.531 78.743 44.5747 78.8442L45.0667 79.981C45.177 80.2356 44.9383 80.5024 44.6628 80.4323L43.4332 80.1195C43.3239 80.0917 43.2075 80.1179 43.1219 80.1894L42.1592 80.9946C41.9435 81.175 41.6083 81.0372 41.5919 80.7615L41.5186 79.5306C41.5122 79.4211 41.4504 79.3217 41.3539 79.2649L40.267 78.6256C40.0235 78.4823 40.0551 78.1305 40.3203 78.0302L41.5045 77.5822C41.6098 77.5422 41.6882 77.4547 41.714 77.3481L42.0049 76.1477C42.0702 75.8789 42.4248 75.7993 42.6052 76.013Z" fill="white"/>
<path opacity="0.25" d="M42.8709 68.2192C42.9675 68.276 43.0292 68.3754 43.0356 68.485L43.109 69.7157C43.1254 69.9915 43.4606 70.1294 43.6763 69.949L44.6388 69.1438C44.7244 69.0722 44.841 69.046 44.9503 69.0738L46.1797 69.3866C46.4552 69.4567 46.6938 69.1901 46.5836 68.9353L46.0917 67.7983C46.054 67.7112 46.0751 67.6165 46.1154 67.532C44.8539 67.5154 43.3801 67.785 41.9609 67.9805L42.8709 68.2192Z" fill="white"/>
<path opacity="0.25" d="M22.5271 79.7865L23.3323 80.7405C23.4039 80.8254 23.514 80.8706 23.6267 80.8615L24.8934 80.7589C25.1771 80.7359 25.3648 81.0385 25.211 81.271L24.5243 82.3086C24.4633 82.401 24.453 82.5165 24.4967 82.6176L24.9887 83.7544C25.0988 84.0091 24.8601 84.2758 24.5847 84.2058L23.3553 83.893C23.2459 83.8652 23.1294 83.8914 23.0438 83.9629L22.0812 84.7681C21.8656 84.9485 21.5303 84.8107 21.514 84.535L21.4407 83.3039C21.4341 83.1945 21.3725 83.0951 21.2757 83.0383L20.1889 82.399C19.9454 82.2558 19.977 81.904 20.2422 81.8036L21.4264 81.3556C21.5317 81.3157 21.6101 81.2282 21.6361 81.1214L21.927 79.9212C21.992 79.6523 22.3467 79.5727 22.5271 79.7865Z" fill="white"/>
<path opacity="0.25" d="M5.15914 75.7168L6.33377 76.188C6.43813 76.23 6.55724 76.2193 6.65202 76.1596L7.71804 75.488C7.95682 75.3377 8.26982 75.5182 8.24761 75.7935L8.14862 77.0227C8.1399 77.1321 8.18705 77.2386 8.27493 77.3077L9.26271 78.0836C9.48392 78.2574 9.40372 78.6019 9.12695 78.6665L7.89119 78.9551C7.78124 78.9807 7.69145 79.0572 7.6509 79.1597L7.19537 80.3108C7.09327 80.5686 6.7307 80.601 6.58183 80.3655L5.91711 79.3147C5.85795 79.2212 5.75519 79.1619 5.64225 79.1562L4.37288 79.0917C4.08855 79.0772 3.94485 78.7528 4.12959 78.5426L4.95458 77.6046C5.02788 77.5211 5.0543 77.408 5.02502 77.302L4.69611 76.111C4.62237 75.8442 4.89598 75.6112 5.15914 75.7168Z" fill="white"/>
<path opacity="0.25" d="M28.1335 70.2345L29.2581 70.8092C29.3582 70.8602 29.4777 70.8604 29.5777 70.8094L30.7034 70.2365C30.9554 70.1083 31.2498 70.3161 31.2014 70.5882L30.9856 71.8032C30.9664 71.9113 31.0032 72.0218 31.0841 72.0983L31.9935 72.9597C32.1973 73.1526 32.0845 73.4884 31.8026 73.5279L30.5446 73.7042C30.4327 73.72 30.336 73.788 30.2859 73.8863L29.7224 74.9915C29.5962 75.2391 29.2321 75.2388 29.1063 74.9911L28.5447 73.8849C28.4947 73.7866 28.3982 73.7182 28.2863 73.7025L27.0286 73.5242C26.7469 73.4841 26.6347 73.1481 26.8386 72.9556L27.7495 72.0957C27.8306 72.0192 27.8677 71.9089 27.8486 71.8008L27.6347 70.5854C27.5868 70.3131 27.8816 70.1057 28.1335 70.2345Z" fill="white"/>
<path opacity="0.25" d="M55.9979 86.569L57.1362 87.1173C57.2376 87.1661 57.3571 87.1635 57.456 87.1102L58.5671 86.5114C58.8159 86.3773 59.1152 86.5783 59.0736 86.8515L58.8877 88.0712C58.8712 88.1798 58.9108 88.2892 58.9936 88.3639L59.9239 89.2039C60.1324 89.392 60.0279 89.7305 59.7472 89.7763L58.4939 89.9818C58.3824 90.0001 58.2872 90.0703 58.2396 90.1698L57.7036 91.2878C57.5834 91.5383 57.2195 91.5464 57.0877 91.3015L56.4989 90.2089C56.4465 90.1117 56.3483 90.0457 56.236 90.0325L54.9742 89.8833C54.6917 89.8499 54.5711 89.5167 54.7704 89.3193L55.6598 88.4386C55.739 88.3602 55.7734 88.2491 55.7516 88.1414L55.5078 86.9314C55.4533 86.6603 55.7429 86.4462 55.9979 86.569Z" fill="white"/>
<path opacity="0.25" d="M42.0115 92.7161L42.8166 93.6701C42.8883 93.755 42.9984 93.8002 43.111 93.7911L44.3777 93.6885C44.6614 93.6655 44.8491 93.9681 44.6953 94.2006L44.0086 95.2382C43.9476 95.3306 43.9373 95.4461 43.981 95.5472L44.473 96.684C44.5831 96.9387 44.3444 97.2055 44.0691 97.1354L42.8395 96.8226C42.7302 96.7948 42.6138 96.821 42.5281 96.8925L41.5655 97.6978C41.3499 97.8782 41.0146 97.7403 40.9983 97.4647L40.925 96.2338C40.9185 96.1242 40.8568 96.0248 40.7601 95.968L39.6733 95.3287C39.4298 95.1855 39.4612 94.8336 39.7265 94.7333L40.9107 94.2853C41.0161 94.2454 41.0944 94.1578 41.1204 94.0512L41.4113 92.8509C41.4765 92.5821 41.8311 92.5024 42.0115 92.7161Z" fill="white"/>
<path d="M34.9999 88.8898C35.3274 84.5977 24.7524 78.1963 12.9301 75.5997C0.763867 72.9277 -5.43498 75.5647 -5.5 77.7451L-2.60333 97.8083L34.5007 112.861L35.0607 88.9066L34.9999 88.8898Z" fill="#FFAE6C"/>
<path d="M31.32 89.4468C31.6475 85.1545 21.0724 78.7532 9.25006 76.1565C-2.91605 73.4845 -8.45824 76.5149 -8.52344 78.6954L-6.28325 98.3653L30.8326 113.421L31.3807 89.4634L31.32 89.4468Z" fill="#F49540"/>
<path d="M61.2656 84.5163C62.2335 86.7116 63.1235 101.757 62.8566 103.55C65.847 103.258 67.7603 103.001 68.0376 102.804C69.3843 101.849 67.1982 84.1836 67.1982 84.1836L61.2656 84.5163Z" fill="#F4F4F4"/>
<path d="M61.3591 79.4114C58.6528 77.793 55.6057 68.7716 48.0517 67.7039C46.7873 67.5251 45.0653 67.5768 43.0625 67.5156C47.1503 69.4848 51.6205 72.9074 55.3343 79.5609C57.0049 82.5537 60.7046 83.7699 61.1524 84.3143C61.1925 84.3629 61.2324 84.4426 61.2724 84.5367L67.1954 84.179C67.2247 82.109 65.1655 81.6875 61.3591 79.4114Z" fill="white"/>
<path d="M111.856 48.7086L108.259 49.6139L63.6797 46.0524L67.3512 45.4922L111.856 48.7086Z" fill="#C9B3B3"/>
<path d="M105.756 50.2418C105.342 54.6623 96.7072 60.102 86.4782 59.2009C76.2491 58.2998 67.3351 51.3222 68.436 47.0145C69.0264 44.7046 72.9444 42.3631 75.6189 41.5425C79.0183 40.4999 83.1199 40.2937 87.9837 40.6062C98.4694 41.28 106.17 45.8213 105.756 50.2418Z" fill="#C9B3B3"/>
<path d="M104.731 49.3292C103.654 45.4208 96.1649 41.9967 86.853 41.4052C77.7189 40.825 70.5255 42.9024 68.8538 46.4627L63.6797 46.0494L64.251 97.9654L106.146 108.943L108.259 49.6109L104.731 49.3292Z" fill="#5E4848"/>
<path d="M64.4271 72.3281L-5.76562 77.2466L33.9417 87.4872L106.142 82.4537L64.4271 72.3281Z" fill="#BEBEBE"/>
<path d="M105.401 103.239L28.8203 108.303V97.5128L105.814 92.4492L105.401 103.239Z" fill="#393838"/>
<path d="M105.798 93.6876L28.8203 98.8844V87.4591L106.147 82.457L105.798 93.6876Z" fill="#7A7A7A"/>
<path opacity="0.16" d="M106.356 70.3276C106.356 70.3276 102.312 70.9193 100.489 70.697C100.068 70.6457 99.591 70.6721 99.0547 70.8145C98.9868 70.8325 98.9303 70.8694 98.8666 70.8944C95.5401 67.1258 77.7337 62.7017 70.3896 62.7464C70.0339 62.7486 57.4344 67.091 56.4361 70.606C56.354 70.5969 56.2711 70.5896 56.1862 70.5976C55.3397 70.6769 54.125 71.7197 54.125 71.7197C54.125 71.7197 56.4152 73.0193 57.5915 72.6959C58.8661 74.789 71.747 79.9289 77.6852 79.8673C78.1487 80.6368 78.3612 81.3285 78.7763 81.5648C78.9019 81.6364 80.4131 82.0197 82.2284 80.8976C87.9349 80.4903 95.4602 80.0634 96.1472 79.9423C96.2174 79.93 106.356 70.3276 106.356 70.3276Z" fill="#190701"/>
<path d="M67.8534 60.4645C68.269 61.5487 70.5712 62.605 70.8875 61.9313C71.6063 60.4004 68.5118 58.25 68.5118 58.25C68.5118 58.25 67.4378 59.3803 67.8534 60.4645Z" fill="#CDCDCD"/>
<path opacity="0.11" d="M70.3927 62.0534C70.7854 61.7532 71.1656 61.6204 70.8972 60.9207C70.17 60.4938 68.6037 60.3355 67.8516 60.5132C68.3162 61.5075 69.909 62.4233 70.3927 62.0534Z" fill="black"/>
<path d="M77.9542 79.9002C69.3893 78.3303 56.3904 73.86 57.5224 69.2089C57.4644 68.4906 58.3141 67.013 58.6811 66.5412C61.499 62.9163 68.1648 60.7793 72.2765 60.7543C81.1991 60.6998 104.803 66.9104 102.712 71.0967C101.669 80.6594 82.7547 80.78 77.9542 79.9002Z" fill="#CDCDCD"/>
<path opacity="0.11" d="M102.848 71.6258C102.848 71.6258 101.024 71.5684 100.906 72.1045C100.753 72.7999 101.124 73.3908 101.811 73.8544C102.444 72.881 102.848 71.6258 102.848 71.6258ZM80.3516 78.0939C79.6783 78.2996 79.6583 78.8358 79.4246 80.023C80.6782 80.2329 81.7614 80.3284 82.5918 80.2076C82.0948 78.8253 81.1674 77.8447 80.3516 78.0939ZM57.2734 68.8945C57.2787 68.9462 57.3087 70.5743 58.0005 71.4208C58.4473 70.9118 58.6984 69.9142 58.4949 69.4161C58.2741 68.8761 57.6934 69.0484 57.2734 68.8945Z" fill="black"/>
<path d="M77.7513 78.6697C78.1262 77.7347 80.9764 76.4022 81.662 78.3619C81.6041 81.4402 78.7748 81.5672 78.7748 81.5672C78.7748 81.5672 77.3766 79.6048 77.7513 78.6697Z" fill="#CDCDCD"/>
<path opacity="0.05" d="M98.8683 70.6364C95.2759 75.8386 82.1637 76.844 78.4173 76.1873C76.1255 75.7857 60.7277 72.7399 57.2832 69.0781C56.5168 73.6515 69.2043 78.0157 77.6611 79.5785C77.9702 80.4208 78.9 81.6869 78.9 81.6869C78.9 81.6869 80.7925 81.2252 81.1546 79.7938C87.7807 79.935 99.7022 78.4167 102.299 72.392C100.216 72.7411 99.2477 70.9157 98.8683 70.6364Z" fill="black"/>
<path d="M57.5196 68.4894C58.4135 68.4469 59.1775 69.5908 58.6974 70.0538C57.2657 71.4345 55.1641 70.019 55.1641 70.019C55.1641 70.019 56.0583 68.5589 57.5196 68.4894Z" fill="#CDCDCD"/>
<path d="M39.8828 73.6361C39.9605 78.6937 44.7465 85.8438 49.8204 89.0197C49.8204 89.0197 61.6259 80.0796 64.2348 77.7397C63.3783 74.8376 60.6956 70.884 58.4742 68.096C57.5811 66.9748 55.9778 66.4547 54.6422 67.0285C50.526 68.7969 44.8271 71.2667 39.8828 73.6361Z" fill="#A45500"/>
<path d="M62.6199 75.4608C62.8173 75.3553 62.9826 75.2144 63.1366 75.0619C62.066 73.0702 60.301 70.1719 58.8433 68.2227C58.7507 68.256 58.6517 68.2677 58.5634 68.3149C57.0375 69.13 56.7087 71.3904 57.8289 73.3636C58.9491 75.3369 61.094 76.2759 62.6199 75.4608Z" fill="#C56601"/>
<path d="M66.0942 72.0012L61.871 74.4412C60.963 74.9659 59.5392 74.2718 58.6913 72.8907C57.8433 71.5097 57.8923 69.9646 58.8003 69.44L63.0234 67L66.0942 72.0012Z" fill="#EFB6A3"/>
<path opacity="0.19" d="M64.6259 74.3736C64.8154 74.2722 64.9743 74.1368 65.1223 73.9902C64.0936 72.0762 62.3974 69.2911 60.9966 67.418C60.9076 67.45 60.8125 67.4612 60.7275 67.5067C59.2613 68.2899 58.9452 70.462 60.0217 72.3583C61.0983 74.2546 63.1595 75.1568 64.6259 74.3736Z" fill="#820303"/>
<path d="M77.519 72.8284C76.2633 74.0485 74.7386 74.1568 74.1725 73.4224C73.6068 72.6879 74.315 71.3991 75.4135 70.1244C76.5124 68.8499 77.8649 68.409 78.428 69.1466C79.1976 70.1551 78.6989 71.6816 77.519 72.8284Z" fill="#F7A981"/>
<path d="M81.4318 66.352C77.6843 73.1612 71.497 73.7461 65.1926 70.2764C58.8881 66.8068 55.95 61.1995 59.6975 54.3903C63.4451 47.5812 68.9389 48.5445 75.2434 52.0142C81.5477 55.4838 85.1792 59.5428 81.4318 66.352Z" fill="#6E230C"/>
<path d="M74.7003 74.0177C72.5352 76.6144 67.5904 76.6044 65.1691 75.332C59.3971 72.2986 55.4144 65.5198 59.806 57.54C64.1975 49.5607 68.4198 51.61 74.0184 54.6912C77.757 56.7489 80.8362 58.5402 81.0203 61.8621C81.1341 63.9121 76.0304 72.4221 74.7003 74.0177Z" fill="#EFB6A3"/>
<path d="M84.2941 54.345C83.9584 55.3771 83.066 55.9093 81.8893 56.1326C83.0656 55.2863 83.7837 54.0194 83.549 51.5161C82.2021 51.7814 81.1443 51.7573 79.848 51.9749C80.1958 51.5384 80.4748 51.0103 80.655 50.3675C78.64 51.3553 76.587 50.4322 71.1454 48.5936C68.0487 47.5472 66.2982 48.6065 65.7384 49.9684C65.6341 50.222 65.3226 51.4125 65.5895 51.4755C68.1609 52.083 70.5632 55.0861 72.9038 56.3744C76.0076 58.0826 78.6702 58.8412 80.3809 58.6438C82.4563 58.4043 84.7835 56.9603 84.2941 54.345Z" fill="#6E230C"/>
<path d="M76.4379 62.6542C77.7126 62.7859 78.9525 63.7221 79.4482 64.9068C79.548 65.1453 79.4259 65.4194 79.1861 65.5148C79.057 65.566 78.9191 65.5556 78.804 65.4983C78.7049 65.4488 78.6334 65.359 78.5781 65.2527C78.1753 64.4771 77.2605 63.7609 76.3379 63.5849C76.0858 63.5368 75.8956 63.3265 75.9224 63.0696C75.95 62.8129 76.1811 62.6278 76.4379 62.6542Z" fill="#752912"/>
<path d="M66.0568 57.4488C67.3027 57.0634 69.2295 57.7185 70.2471 58.818C70.4224 59.0075 70.4216 59.3001 70.2354 59.4799C70.0501 59.6592 69.7624 59.6419 69.5736 59.4681C68.4938 58.4739 67.3142 58.1174 66.3176 58.348C66.2007 58.375 66.0849 58.3683 65.985 58.3204C65.8691 58.2648 65.7763 58.1623 65.7376 58.0289C65.6659 57.781 65.8099 57.5252 66.0568 57.4488Z" fill="#752912"/>
<path d="M63.913 57.6535C61.9832 60.9464 59.5736 62.3899 58.1571 61.6051C56.7407 60.8203 57.9077 56.2302 59.7574 52.8916C61.8757 49.0682 65.3272 48.1768 66.8764 48.7334C68.4002 49.281 66.1063 53.9106 63.913 57.6535Z" fill="#6E230C"/>
<path d="M55.4535 61.1188C55.1055 63.2027 56.4408 65.0758 57.7718 65.4945C58.8077 65.8205 59.7345 64.2678 60.2349 62.593C60.7737 60.7892 60.3554 59.3765 59.1037 58.6988C57.4236 57.789 55.7634 59.2642 55.4535 61.1188Z" fill="#EFB6A3"/>
<path d="M57.1441 61.8357C56.8489 62.6918 57.4566 63.8842 58.3008 63.9779C58.585 64.0095 59.3745 61.1223 59.015 60.9143C58.198 60.4412 57.4392 60.9795 57.1441 61.8357Z" fill="#E0956C"/>
<path d="M65.6897 71.3571C65.9808 70.9154 67.1997 70.5935 67.8717 71.0814C68.4232 71.4819 68.3027 72.2897 68.0203 72.737C67.814 73.0636 67.5606 72.6364 66.9842 72.2725C66.4079 71.9085 65.4013 71.7948 65.6897 71.3571Z" fill="#8E2E2E"/>
<path d="M61.6613 63.8183C61.3968 64.2319 61.7572 64.9348 62.4664 65.3882C63.1751 65.8414 63.9645 65.874 64.2291 65.4603C64.4935 65.0467 64.1331 64.3437 63.4242 63.8905C62.715 63.437 61.9258 63.4046 61.6613 63.8183Z" fill="#FF8A8A"/>
<path d="M76.2091 71.9118C76.0051 72.3316 75.2877 72.4036 74.6064 72.0727C73.9254 71.7419 73.5385 71.1333 73.7425 70.7134C73.9463 70.2936 74.6641 70.2216 75.345 70.5524C76.0263 70.8834 76.413 71.492 76.2091 71.9118Z" fill="#FF8A8A"/>
<path d="M72.8175 67.2351C72.9073 67.2758 72.9792 67.3526 73.011 67.4541C73.1864 68.0229 73.667 68.5546 74.2977 68.8766C74.896 69.1794 75.5309 69.2531 76.048 69.0788C76.2326 69.0152 76.4351 69.114 76.4998 69.3005C76.5619 69.4867 76.4625 69.6887 76.2768 69.7517C75.5798 69.9895 74.7423 69.8911 73.9748 69.5107C73.1643 69.0971 72.565 68.4237 72.3297 67.6638C72.273 67.4762 72.3773 67.2764 72.5653 67.2189C72.6522 67.192 72.7416 67.2006 72.8175 67.2351Z" fill="#63190D"/>
<path d="M68.3243 64.665C68.4007 64.7132 68.4596 64.7916 68.4816 64.8868C68.5248 65.0785 68.4046 65.2689 68.2128 65.3122C66.515 65.6992 64.3191 64.3922 63.9441 62.7693C63.8992 62.5774 64.0195 62.3871 64.2104 62.3424C64.4024 62.2985 64.5936 62.4177 64.6372 62.6089C64.9244 63.8457 66.7422 64.9156 68.0555 64.6193C68.1518 64.597 68.2466 64.6158 68.3243 64.665Z" fill="#63190D"/>
<path d="M70.5354 68.5424C70.4905 68.5169 70.4694 68.4622 70.4875 68.4121C70.6176 68.0572 70.4798 67.7022 70.1366 67.5079C69.7914 67.3124 69.4079 67.3775 69.182 67.67C69.1457 67.7167 69.0779 67.7254 69.0315 67.6892C68.9845 67.653 68.9759 67.5857 69.0123 67.5388C69.3015 67.1641 69.8074 67.0746 70.2423 67.321C70.6749 67.5659 70.8544 68.0342 70.6892 68.4859C70.6687 68.5416 70.607 68.5701 70.5514 68.5499L70.5354 68.5424Z" fill="#C4735B"/>
<path opacity="0.17" d="M33.3228 87.4724C34.1038 92.125 33.086 104.683 32.8594 106.206C35.8498 105.913 68.9257 104.424 69.203 104.227C70.295 103.452 68.1216 87.7607 67.4842 83.6019C67.327 82.5757 60.4548 77.1016 60.4548 77.1016C60.4548 77.1016 33.184 86.6455 33.3228 87.4724Z" fill="#561609"/>
<path d="M67.7698 102.804C66.1087 103.995 28.8107 106.015 28.8107 106.015L28.375 86.3118L66.9394 84.1836C66.9394 84.1836 69.1023 101.849 67.7698 102.804Z" fill="#3C0048"/>
<path d="M31.6897 67.9972C21.9859 68.7386 25.2362 70.4562 16.7199 71.524C15.6158 71.6624 16.3938 72.7974 13.3596 72.1984C10.0862 71.5521 8.35275 73.5045 7.01563 73.4348C1.7179 73.1585 0.555922 73.9967 -0.921342 76.5257C-5.9855 85.1946 27.8827 86.6071 27.8827 86.6071L66.9493 84.179C66.9783 82.109 64.9408 81.6875 61.1751 79.4114C58.4975 77.7931 57.7666 68.9582 50.2931 67.8904C47.4077 67.4784 40.1482 67.3509 31.6897 67.9972Z" fill="#3C0048"/>
<path opacity="0.11" d="M66.6047 82.9336L20.5281 85.2132L19.7109 87.1165C19.7109 87.1165 66.6847 84.2216 66.9454 84.1842C66.9645 83.4415 66.6047 82.9336 66.6047 82.9336Z" fill="white"/>
<path opacity="0.12" d="M16.2254 71.7031C15.6585 72.376 15.268 72.543 13.4531 72.2242C17.2162 73.0643 20.0503 73.8817 23.6971 76.8351C20.8533 73.4273 19.3142 72.4212 16.2254 71.7031Z" fill="black"/>
<path opacity="0.12" d="M0.335938 74.7542C5.33 75.3917 14.1732 75.9625 18.2958 79.2669C14.2446 75.7838 9.92315 74.1723 6.6944 73.4204C4.36126 73.3163 1.97252 73.2648 0.335938 74.7542Z" fill="black"/>
<path opacity="0.25" d="M42.5818 76.013L43.387 76.967C43.4586 77.0519 43.5687 77.0971 43.6814 77.088L44.9481 76.9855C45.2318 76.9624 45.4195 77.265 45.2657 77.4976L44.579 78.5352C44.5179 78.6275 44.5077 78.743 44.5514 78.8442L45.0433 79.981C45.1535 80.2356 44.9149 80.5024 44.6394 80.4323L43.41 80.1195C43.3006 80.0917 43.1841 80.1179 43.0985 80.1894L42.1359 80.9946C41.9203 81.175 41.585 81.0372 41.5687 80.7615L41.4954 79.5306C41.4888 79.4211 41.4272 79.3217 41.3305 79.2649L40.2436 78.6256C40.0001 78.4823 40.0316 78.1305 40.2969 78.0302L41.4811 77.5822C41.5864 77.5422 41.6648 77.4547 41.6906 77.3481L41.9815 76.1477C42.0467 75.8789 42.4015 75.7993 42.5818 76.013Z" fill="white"/>
<path opacity="0.25" d="M42.84 68.2172C42.9366 68.274 42.9983 68.3734 43.0048 68.483L43.0781 69.7137C43.0944 69.9895 43.4297 70.1273 43.6453 69.9469L44.6079 69.1417C44.6935 69.0702 44.8101 69.044 44.9194 69.0718L46.149 69.3846C46.4243 69.4547 46.6629 69.1881 46.5528 68.9333L46.0608 67.7963C46.0231 67.7092 46.0442 67.6145 46.0847 67.53C44.823 67.5133 43.4019 67.5273 41.7656 67.5852L42.84 68.2172Z" fill="white"/>
<path opacity="0.25" d="M22.5035 79.7865L23.3087 80.7405C23.3803 80.8254 23.4904 80.8706 23.603 80.8615L24.8697 80.7589C25.1534 80.7359 25.3412 81.0385 25.1873 81.271L24.5008 82.3086C24.4397 82.401 24.4294 82.5165 24.4732 82.6176L24.9651 83.7544C25.0753 84.0091 24.8367 84.2758 24.5612 84.2058L23.3318 83.893C23.2223 83.8652 23.1059 83.8914 23.0203 83.9629L22.0576 84.7681C21.8421 84.9485 21.5067 84.8107 21.4904 84.535L21.4171 83.3039C21.4106 83.1945 21.3489 83.0951 21.2523 83.0383L20.1654 82.399C19.922 82.2558 19.9535 81.904 20.2187 81.8036L21.403 81.3556C21.5082 81.3157 21.5867 81.2282 21.6125 81.1214L21.9034 79.9212C21.9685 79.6523 22.3233 79.5727 22.5035 79.7865Z" fill="white"/>
<path opacity="0.25" d="M5.1356 75.7168L6.31024 76.188C6.41477 76.23 6.53388 76.2193 6.62865 76.1596L7.69468 75.488C7.93346 75.3377 8.24632 75.5182 8.22424 75.7935L8.12526 77.0227C8.11641 77.1321 8.16369 77.2386 8.25157 77.3077L9.23935 78.0836C9.46056 78.2574 9.38036 78.6019 9.10359 78.6665L7.8677 78.9551C7.75775 78.9807 7.66796 79.0572 7.6274 79.1597L7.17188 80.3108C7.06991 80.5686 6.70733 80.601 6.55834 80.3655L5.89362 79.3147C5.83446 79.2212 5.7317 79.1619 5.61875 79.1562L4.34951 79.0917C4.06519 79.0772 3.92132 78.7528 4.10623 78.5426L4.93104 77.6046C5.00448 77.5211 5.03076 77.408 5.00148 77.302L4.67257 76.111C4.59883 75.8442 4.87262 75.6112 5.1356 75.7168Z" fill="white"/>
<path opacity="0.25" d="M27.907 69.3868L29.0316 69.9614C29.1316 70.0125 29.2512 70.0127 29.3512 69.9617L30.4769 69.3889C30.7289 69.2605 31.0233 69.4684 30.9749 69.7405L30.7591 70.9556C30.7399 71.0637 30.7766 71.1739 30.8576 71.2506L31.767 72.1121C31.9708 72.3049 31.858 72.6408 31.5761 72.6803L30.3181 72.8565C30.2062 72.8723 30.1095 72.9403 30.0593 73.0386L29.4959 74.1438C29.3697 74.3914 29.0055 74.3911 28.8798 74.1434L28.3183 73.0372C28.2683 72.9389 28.1717 72.8705 28.0598 72.8548L26.802 72.6765C26.5204 72.6364 26.408 72.3004 26.6121 72.1079L27.523 71.248C27.6041 71.1715 27.6411 71.0612 27.6221 70.9531L27.4082 69.7377C27.3603 69.4655 27.6552 69.258 27.907 69.3868Z" fill="white"/>
<path opacity="0.25" d="M55.9744 86.565L57.1128 87.1134C57.2141 87.1622 57.3336 87.1596 57.4324 87.1063L58.5435 86.5075C58.7924 86.3734 59.0919 86.5744 59.0503 86.8476L58.8643 88.0673C58.8478 88.1759 58.8873 88.2853 58.9701 88.36L59.9005 89.2C60.1089 89.3881 60.0044 89.7266 59.7237 89.7724L58.4704 89.9779C58.359 89.9962 58.2639 90.0664 58.2161 90.1659L57.6801 91.2839C57.5601 91.5344 57.196 91.5425 57.0642 91.2976L56.4754 90.205C56.4232 90.1078 56.3248 90.0418 56.2126 90.0285L54.9509 89.8794C54.6682 89.846 54.5478 89.5128 54.7469 89.3154L55.6365 88.4347C55.7156 88.3563 55.7499 88.2452 55.7283 88.1375L55.4845 86.9274C55.4298 86.6564 55.7194 86.4423 55.9744 86.565Z" fill="white"/>
<path opacity="0.25" d="M41.988 92.7161L42.7931 93.6701C42.8646 93.755 42.9747 93.8002 43.0875 93.7911L44.3541 93.6885C44.6379 93.6655 44.8255 93.9681 44.6717 94.2006L43.9852 95.2382C43.9241 95.3306 43.9137 95.4461 43.9576 95.5472L44.4495 96.684C44.5597 96.9387 44.3211 97.2055 44.0456 97.1354L42.8162 96.8226C42.7068 96.7948 42.5903 96.821 42.5047 96.8925L41.542 97.6978C41.3265 97.8782 40.9913 97.7403 40.9747 97.4647L40.9014 96.2338C40.895 96.1242 40.8334 96.0248 40.7367 95.968L39.6498 95.3287C39.4063 95.1855 39.4379 94.8336 39.7031 94.7333L40.8873 94.2853C40.9926 94.2454 41.071 94.1578 41.0968 94.0512L41.3878 92.8509C41.4529 92.5821 41.8076 92.5024 41.988 92.7161Z" fill="white"/>
<path d="M34.9844 88.8898C35.312 84.5977 24.7368 78.1963 12.9145 75.5997C0.748373 72.9277 -5.45048 75.5647 -5.51562 77.7451L-2.61878 97.8083L34.5075 112.861L35.0451 88.9066L34.9844 88.8898Z" fill="#6F5454"/>
<path d="M31.2964 89.4468C31.6239 85.1545 21.0489 78.7532 9.22662 76.1565C-2.93962 73.4845 -8.48186 76.5149 -8.54688 78.6954L-6.30682 98.3653L30.8092 113.421L31.3572 89.4634L31.2964 89.4468Z" fill="#5E4848"/>
<path d="M61.2422 84.5163C62.21 86.7116 63.1002 101.757 62.8331 103.55C65.8235 103.258 67.7371 103.001 68.0143 102.804C69.3611 101.849 67.1749 84.1836 67.1749 84.1836L61.2422 84.5163Z" fill="#7E7E7E"/>
<path d="M61.3377 79.4143C58.6314 77.7959 57.8884 68.9173 50.3345 67.8494C49.07 67.6708 47.6123 67.5099 45.6719 67.4375C49.7597 69.4065 52.5642 73.388 54.1913 79.4257C54.7034 81.3269 56.7826 82.1769 58.6155 82.927C59.6795 83.3619 60.6832 83.7727 61.1312 84.3172C61.1713 84.3658 61.2112 84.4456 61.2512 84.5396L67.1741 84.182C67.2032 82.1119 65.144 81.6904 61.3377 79.4143Z" fill="#CDCDCD"/>
<g filter="url(#filter0_d_3428_38085)">
<path d="M52.5731 78.7918C54.4755 79.2726 57.1127 79.7018 58.6579 79.9958C59.2773 80.1136 59.4952 81.1502 58.9289 81.4206C56.8749 82.4017 52.5988 82.3697 51.4809 81.8455C49.9535 81.1291 51.0309 78.4021 52.5731 78.7918Z" fill="#933019"/>
<path d="M53.4359 80.023C53.1902 81.0798 52.4675 82.0581 51.6789 81.9203C50.8613 81.7773 50.5977 80.835 50.6183 79.7481C50.6458 78.3029 51.5808 77.5409 52.479 77.806C53.3264 78.0561 53.6945 78.9102 53.4359 80.023Z" fill="#933019"/>
<path d="M52.0507 81.2725C53.999 81.5276 56.6703 81.6456 58.2407 81.7571C58.8703 81.8017 59.2153 82.8051 58.6868 83.1398C56.7695 84.3537 52.5206 84.8214 51.3458 84.4315C49.7404 83.8988 50.4715 81.0658 52.0507 81.2725Z" fill="#C94C27"/>
<path d="M52.6119 81.9339C52.8379 82.995 52.5961 84.1753 51.8191 84.3656C51.0135 84.5629 50.3723 83.8101 49.9285 82.812C49.3384 81.4846 49.8659 80.4161 50.7968 80.2979C51.6751 80.1863 52.3737 80.8168 52.6119 81.9339Z" fill="#C94C27"/>
<path d="M59.4432 77.6033C58.3106 77.969 57.3096 79.4304 57.4799 81.0251C57.6675 82.7836 58.6933 84.0395 60.2028 84.1251C63.2193 84.2963 66.994 82.7968 66.4493 80.3715C66.0209 78.4645 61.6732 76.883 59.4432 77.6033Z" fill="#C94C27"/>
<path d="M62.0873 81.3295C60.48 81.5454 58.8523 80.913 59.0848 78.8784C59.2079 77.8014 60.6732 77.5091 62.0682 77.7517C63.3866 77.9809 64.495 78.2325 64.7007 79.1674C64.9709 80.3954 63.8172 81.097 62.0873 81.3295Z" fill="#EF8D65"/>
<path d="M70.7026 75.0611C70.3671 74.4365 70.5914 73.1464 70.9821 72.4733C71.9639 70.7813 74.6489 71.1728 74.2791 73.3498C74.0486 74.7062 71.038 75.6859 70.7026 75.0611Z" fill="#C94C27"/>
<path d="M71.4421 73.7158C71.2347 73.5295 71.1561 72.8199 71.6551 72.3277C72.2474 71.7434 73.2776 72.5297 72.6169 73.3247C72.2755 73.7355 71.5074 73.7746 71.4421 73.7158Z" fill="#7C2923"/>
<path d="M68.0933 73.2445C65.3224 73.9742 64.1993 75.9664 64.5566 78.1957C65.1357 81.8091 67.7141 84.3068 70.9807 83.6837C74.6279 82.9879 75.8191 80.0471 74.911 77.0525C74.0028 74.0577 71.6817 72.2995 68.0933 73.2445Z" fill="#C94C27"/>
<path d="M65.9919 75.4857C66.9421 74.9442 68.5973 75.3013 69.0002 76.4611C69.5024 77.9075 68.2417 79.7859 66.9578 79.6226C65.2786 79.4088 64.7046 76.2191 65.9919 75.4857Z" fill="#EF8D65"/>
<path d="M66.6606 76.6757C66.6328 76.6757 66.5975 76.6606 66.5843 76.6337C66.5683 76.5967 66.5843 76.554 66.6225 76.537C66.9452 76.3961 67.4395 76.2438 67.9498 76.3149C67.9908 76.3206 68.0203 76.3576 68.0144 76.3975C68.0086 76.4373 67.9675 76.4729 67.9293 76.4601C67.8458 76.4474 67.7621 76.443 67.6815 76.443C67.2943 76.443 66.9357 76.5647 66.6848 76.6757L66.6606 76.6757Z" fill="#722411"/>
<path d="M66.921 77.8063C66.6541 77.7921 66.4583 77.6641 66.3732 77.4435C66.2662 77.1676 66.3557 76.7863 66.5785 76.5742C66.6078 76.5487 66.6563 76.5472 66.6856 76.5756C66.7134 76.6042 66.7128 76.6462 66.6834 76.6746C66.503 76.8453 66.4275 77.1704 66.5126 77.3924C66.577 77.5573 66.7208 77.6498 66.9276 77.6612C66.9687 77.6626 67.0009 77.6981 66.998 77.7381C66.9965 77.7764 66.9606 77.8063 66.921 77.8063Z" fill="#722411"/>
<path d="M66.5496 76.6845C66.3222 76.6845 66.1815 76.5436 66.1227 76.3985C66.0451 76.2036 66.0831 75.9262 66.3061 75.7952C66.3398 75.7754 66.3868 75.7853 66.4087 75.8209C66.4293 75.8551 66.4191 75.8991 66.3824 75.9205C66.2357 76.0059 66.2064 76.2036 66.2636 76.3459C66.2914 76.4156 66.3985 76.5671 66.6463 76.5287C66.6816 76.5287 66.7197 76.5522 66.7271 76.5863C66.7358 76.6262 66.7022 76.6653 66.6611 76.6724C66.6186 76.681 66.5862 76.6845 66.5496 76.6845Z" fill="#722411"/>
<path d="M68.1742 75.6794C67.8527 75.7556 67.6628 76.146 67.7215 76.3587C67.8014 76.6475 68.2636 77.2331 68.5832 77.1499C68.9363 77.0581 68.5344 75.5941 68.1742 75.6794Z" fill="#441911"/>
<path d="M69.9211 77.8342C69.6203 77.9102 69.4399 78.2084 69.5183 78.5003C69.5967 78.7922 69.9043 78.9669 70.2051 78.891C70.5058 78.815 70.686 78.5168 70.6078 78.2249C70.5294 77.9331 70.2219 77.7581 69.9211 77.8342Z" fill="#441911"/>
<path d="M69.0452 74.6394C68.7446 74.7154 68.5511 74.9646 68.6131 75.1957C68.6752 75.4271 68.9695 75.553 69.2703 75.4769C69.5712 75.401 69.7646 75.1519 69.7026 74.9206C69.6404 74.6892 69.346 74.5633 69.0452 74.6394Z" fill="#441911"/>
<path d="M71.1288 73.8364C70.9834 73.8903 70.9334 74.107 71.0172 74.3201C71.1012 74.5334 71.2871 74.6626 71.4326 74.6087C71.5781 74.5549 71.628 74.3383 71.5442 74.125C71.4604 73.9119 71.2745 73.7826 71.1288 73.8364Z" fill="#661C1B"/>
<path d="M72.3912 77.6802C72.2359 77.6929 72.1287 77.9176 72.1515 78.1824C72.1742 78.4471 72.3185 78.6517 72.4738 78.6392C72.629 78.6265 72.7363 78.4018 72.7135 78.137C72.6908 77.8723 72.5465 77.6677 72.3912 77.6802Z" fill="#661C1B"/>
<path d="M72.5626 80.1212C73.2521 79.5171 74.7169 79.3171 75.4936 79.5246C77.4453 80.0463 77.1235 83.249 74.652 83.5972C73.112 83.8141 71.8732 80.7249 72.5626 80.1212Z" fill="#C94C27"/>
<path d="M73.6744 80.9174C73.8528 80.6402 74.5497 80.3256 75.0466 80.6841C75.637 81.1099 74.8884 82.441 74.0889 82.0133C73.6757 81.7921 73.6182 81.0048 73.6744 80.9174Z" fill="#7C2923"/>
</g>
<path opacity="0.19" d="M57.1839 74.1951C58.1542 74.8604 61.0467 76.5656 61.878 77.0542C61.7063 77.3412 61.2069 78.4425 60.8786 78.4634C58.6482 78.6058 53.6075 76.8109 53.1572 75.1788C52.4843 72.7401 55.9347 69.3776 56.135 69.6614C56.5699 70.2781 56.8326 72.3615 57.1839 74.1951Z" fill="#820303"/>
<path d="M61.9403 83.2438C62.1336 83.3858 63.7798 80.7046 63.5939 80.5518C60.2471 77.8012 57.9273 75.8271 55.2049 72.2344C53.8277 73.8965 52.7658 75.0989 54.1953 77.3112C54.8866 78.3809 58.8724 80.9914 61.9403 83.2438Z" fill="#EFB6A3"/>
<path d="M61.9162 80.2152C63.0329 79.8208 65.2602 79.9395 65.8357 80.0676C66.445 80.203 67.0614 80.4507 67.5345 80.679C67.9907 80.8991 67.4052 81.4353 67.0129 81.3959C66.7208 81.3668 66.1101 81.2658 65.927 81.2692C65.8503 81.2706 65.0032 81.3992 64.8147 81.6467C64.2464 82.3926 61.8314 80.3208 61.9162 80.2152Z" fill="#EFB6A3"/>
<path d="M65.7422 84.9283C66.5712 85.2196 67.2647 84.7422 67.4039 84.337C67.543 83.9317 66.2808 83.8148 65.4519 83.5234C64.6229 83.232 64.2071 83.1066 64.0679 83.5119C63.9288 83.9172 64.9131 84.6368 65.7422 84.9283Z" fill="#F29D77"/>
<path d="M61.0932 82.5453C60.5732 82.1044 60.9244 80.2556 62.4192 80.0894C62.6623 80.0324 64.649 80.6888 65.5664 81.3074C65.3918 81.3675 64.8213 81.4593 64.8258 81.5984C64.8317 81.7816 64.9985 81.9437 65.3256 82.0601C65.8801 82.2576 66.5414 82.4066 67.0959 82.5042C67.9509 82.4962 68.8484 82.4172 69.1668 82.4802C69.4616 82.5383 69.8314 82.9381 69.4749 83.0623C68.9654 83.2398 67.6274 83.645 67.2819 83.6547C67.0056 83.6627 66.1991 83.5517 65.5405 83.4606C65.4838 83.5195 66.9258 83.8257 67.3091 83.8426C67.6085 83.8559 68.7394 83.3135 68.8364 83.7501C68.5772 84.1826 67.1522 84.8408 66.7188 84.7869C66.4058 84.7478 65.4281 84.596 65.0127 84.502C65.3108 84.7215 66.3961 84.8984 66.7852 84.9061C66.4223 85.2364 66.2576 85.1127 66.0357 85.1549C65.7466 85.21 65.3122 85.2132 64.6713 85.1236C63.8913 85.0144 62.2055 83.4885 61.0932 82.5453Z" fill="#EFB6A3"/>
<path d="M62.9448 79.1152C61.3072 77.6988 59.4463 76.242 57.7683 74.6988C57.5894 74.6674 53.6428 73.5992 53.2464 73.7298C53.2583 74.6493 53.0987 76.5779 53.6656 77.5167C54.3549 78.6576 59.0647 81.9834 60.1301 82.7052C60.8842 81.6894 62.6812 79.4969 62.9448 79.1152Z" fill="#A45500"/>
<path d="M62.8118 81.4058C64.2147 80.7685 65.497 79.6918 65.0574 79.3583C64.1879 78.6984 62.0175 79.9271 59.0611 79.5852C57.2866 79.3799 57.488 81.2857 58.3711 81.5871C59.529 81.9822 61.205 82.136 62.8118 81.4058Z" fill="#C94C27"/>
<path d="M58.514 76.6596C58.561 76.1992 59.3801 70.2596 59.3297 69.2422C59.1586 65.794 55.4517 66.1715 53.3681 67.6967C53.1542 69.1703 53.185 74.8145 53.2568 75.8573C54.6659 76.282 56.8834 76.4986 58.514 76.6596Z" fill="#A45500"/>
<g filter="url(#filter1_d_3428_38085)">
<path d="M82.6683 23.437C78.3182 22.0344 75.9136 17.4168 77.298 13.1233C78.3476 9.868 81.2746 7.73852 84.5245 7.50818C84.1089 7.31597 83.6831 7.13832 83.2364 6.99432C77.3717 5.10334 71.1042 8.26266 69.2379 14.051C67.3716 19.8391 70.6132 26.0645 76.4779 27.9555C81.7914 29.6687 87.424 27.2277 89.8259 22.4509C87.7989 23.8 85.1856 24.2487 82.6683 23.437Z" fill="#FF9700"/>
<path d="M84.524 7.51059C84.1085 7.31818 83.6826 7.14073 83.236 6.99672C78.1266 5.34928 72.7173 7.5391 70.1729 11.9561C68.5003 18.1342 71.9827 24.6191 78.2195 26.63C81.0519 27.5433 83.948 27.3302 86.501 26.3196C87.868 25.3177 89.0339 24.0283 89.8255 22.4532C87.7988 23.8024 85.1853 24.2511 82.668 23.4394C78.3179 22.0368 75.9133 17.4191 77.2977 13.1257C78.3471 9.87069 81.2742 7.74095 84.524 7.51059Z" fill="#FFBE06"/>
</g>
</g>
<g filter="url(#filter2_d_3428_38085)">
<path d="M16.2831 39.4652V43.6914H15.4676V41.8878H13.551V43.6914H12.7295V39.4652H13.551V41.1735H15.4676V39.4652H16.2831ZM17.1358 42.7688C17.1358 42.5664 17.1914 42.3898 17.3025 42.239C17.4176 42.0843 17.5763 41.9652 17.7787 41.8819C17.9811 41.7985 18.2132 41.7569 18.4751 41.7569C18.6061 41.7569 18.739 41.7668 18.8739 41.7866C19.0089 41.8065 19.1259 41.8382 19.2251 41.8819V41.7152C19.2251 41.5168 19.1656 41.364 19.0465 41.2569C18.9315 41.1497 18.7589 41.0962 18.5287 41.0962C18.3581 41.0962 18.1954 41.1259 18.0406 41.1855C17.8858 41.245 17.7231 41.3323 17.5525 41.4474L17.2965 40.9235C17.5029 40.7886 17.7132 40.6874 17.9275 40.62C18.1458 40.5525 18.3739 40.5188 18.612 40.5188C19.0565 40.5188 19.4017 40.6299 19.6477 40.8521C19.8977 41.0743 20.0227 41.3918 20.0227 41.8045V42.7985C20.0227 42.8819 20.0366 42.9414 20.0644 42.9771C20.0962 43.0128 20.1458 43.0347 20.2132 43.0426V43.6914C20.1418 43.7033 20.0763 43.7132 20.0168 43.7212C19.9612 43.7291 19.9136 43.7331 19.8739 43.7331C19.7152 43.7331 19.5942 43.6974 19.5108 43.6259C19.4315 43.5545 19.3819 43.4672 19.362 43.364L19.3442 43.2033C19.2092 43.3779 19.0406 43.5128 18.8382 43.6081C18.6358 43.7033 18.4295 43.7509 18.2192 43.7509C18.0128 43.7509 17.8263 43.7093 17.6596 43.6259C17.4969 43.5386 17.368 43.4216 17.2727 43.2747C17.1815 43.1239 17.1358 42.9553 17.1358 42.7688ZM19.0763 42.9295C19.12 42.8819 19.1557 42.8343 19.1835 42.7866C19.2112 42.739 19.2251 42.6954 19.2251 42.6557V42.3402C19.1299 42.3005 19.0267 42.2708 18.9156 42.2509C18.8045 42.2271 18.6993 42.2152 18.6001 42.2152C18.3938 42.2152 18.2231 42.2609 18.0882 42.3521C17.9573 42.4394 17.8918 42.5565 17.8918 42.7033C17.8918 42.7827 17.9136 42.8581 17.9573 42.9295C18.0009 43.0009 18.0644 43.0585 18.1477 43.1021C18.2311 43.1458 18.3303 43.1676 18.4454 43.1676C18.5644 43.1676 18.6815 43.1458 18.7965 43.1021C18.9116 43.0545 19.0049 42.997 19.0763 42.9295ZM21.7945 43.6914L20.6457 40.5724H21.4731L22.2588 42.9652L23.0505 40.5724H23.8065L22.6636 43.6914H21.7945ZM25.8673 43.7509C25.6173 43.7509 25.3911 43.7093 25.1888 43.6259C24.9864 43.5386 24.8138 43.4216 24.6709 43.2747C24.528 43.1239 24.4169 42.9533 24.3376 42.7628C24.2622 42.5684 24.2245 42.364 24.2245 42.1497C24.2245 41.8521 24.2899 41.5803 24.4209 41.3343C24.5558 41.0882 24.7463 40.8918 24.9923 40.745C25.2423 40.5942 25.536 40.5188 25.8733 40.5188C26.2145 40.5188 26.5062 40.5942 26.7483 40.745C26.9903 40.8918 27.1749 41.0882 27.3019 41.3343C27.4328 41.5763 27.4983 41.8382 27.4983 42.12C27.4983 42.1676 27.4963 42.2172 27.4923 42.2688C27.4884 42.3164 27.4844 42.3561 27.4804 42.3878H25.0697C25.0856 42.5466 25.1312 42.6855 25.2066 42.8045C25.286 42.9235 25.3852 43.0148 25.5042 43.0783C25.6272 43.1378 25.7582 43.1676 25.8971 43.1676C26.0558 43.1676 26.2046 43.1299 26.3435 43.0545C26.4864 42.9751 26.5836 42.872 26.6352 42.745L27.3197 42.9355C27.2443 43.0942 27.1352 43.2351 26.9923 43.3581C26.8534 43.4811 26.6888 43.5783 26.4983 43.6497C26.3078 43.7172 26.0975 43.7509 25.8673 43.7509ZM25.0519 41.8819H26.6828C26.6669 41.7232 26.6213 41.5862 26.5459 41.4712C26.4745 41.3521 26.3792 41.2609 26.2602 41.1974C26.1411 41.1299 26.0082 41.0962 25.8614 41.0962C25.7185 41.0962 25.5876 41.1299 25.4685 41.1974C25.3534 41.2609 25.2582 41.3521 25.1828 41.4712C25.1114 41.5862 25.0677 41.7232 25.0519 41.8819ZM29.7951 42.7688C29.7951 42.5664 29.8507 42.3898 29.9618 42.239C30.0769 42.0843 30.2356 41.9652 30.438 41.8819C30.6403 41.7985 30.8725 41.7569 31.1344 41.7569C31.2653 41.7569 31.3983 41.7668 31.5332 41.7866C31.6681 41.8065 31.7852 41.8382 31.8844 41.8819V41.7152C31.8844 41.5168 31.8249 41.364 31.7058 41.2569C31.5907 41.1497 31.4181 41.0962 31.188 41.0962C31.0173 41.0962 30.8546 41.1259 30.6999 41.1855C30.5451 41.245 30.3824 41.3323 30.2118 41.4474L29.9558 40.9235C30.1622 40.7886 30.3725 40.6874 30.5868 40.62C30.805 40.5525 31.0332 40.5188 31.2713 40.5188C31.7157 40.5188 32.061 40.6299 32.307 40.8521C32.557 41.0743 32.682 41.3918 32.682 41.8045V42.7985C32.682 42.8819 32.6959 42.9414 32.7237 42.9771C32.7554 43.0128 32.805 43.0347 32.8725 43.0426V43.6914C32.8011 43.7033 32.7356 43.7132 32.6761 43.7212C32.6205 43.7291 32.5729 43.7331 32.5332 43.7331C32.3745 43.7331 32.2534 43.6974 32.1701 43.6259C32.0907 43.5545 32.0411 43.4672 32.0213 43.364L32.0034 43.2033C31.8685 43.3779 31.6999 43.5128 31.4975 43.6081C31.2951 43.7033 31.0888 43.7509 30.8784 43.7509C30.6721 43.7509 30.4856 43.7093 30.3189 43.6259C30.1562 43.5386 30.0273 43.4216 29.932 43.2747C29.8407 43.1239 29.7951 42.9553 29.7951 42.7688ZM31.7356 42.9295C31.7792 42.8819 31.815 42.8343 31.8427 42.7866C31.8705 42.739 31.8844 42.6954 31.8844 42.6557V42.3402C31.7892 42.3005 31.686 42.2708 31.5749 42.2509C31.4638 42.2271 31.3586 42.2152 31.2594 42.2152C31.053 42.2152 30.8824 42.2609 30.7475 42.3521C30.6165 42.4394 30.5511 42.5565 30.5511 42.7033C30.5511 42.7827 30.5729 42.8581 30.6165 42.9295C30.6602 43.0009 30.7237 43.0585 30.807 43.1021C30.8903 43.1458 30.9896 43.1676 31.1046 43.1676C31.2237 43.1676 31.3407 43.1458 31.4558 43.1021C31.5709 43.0545 31.6642 42.997 31.7356 42.9295ZM15.551 48.6914H14.7533V46.9414C14.7533 46.6914 14.7097 46.5089 14.6224 46.3938C14.5351 46.2787 14.4141 46.2212 14.2593 46.2212C14.1522 46.2212 14.043 46.2489 13.9319 46.3045C13.8248 46.3601 13.7276 46.4374 13.6403 46.5366C13.553 46.6319 13.4895 46.743 13.4498 46.87V48.6914H12.6522V45.5724H13.3724V46.1497C13.4518 46.0148 13.553 45.9017 13.676 45.8105C13.799 45.7152 13.9399 45.6438 14.0986 45.5962C14.2613 45.5446 14.4319 45.5188 14.6105 45.5188C14.8049 45.5188 14.9637 45.5545 15.0867 45.6259C15.2137 45.6934 15.3089 45.7866 15.3724 45.9057C15.4399 46.0208 15.4855 46.1517 15.5093 46.2985C15.5371 46.4454 15.551 46.5942 15.551 46.745V48.6914ZM16.5421 48.6914V45.5724H17.3398V48.6914H16.5421ZM16.5421 45.1378V44.3462H17.3398V45.1378H16.5421ZM19.8093 48.7509C19.5553 48.7509 19.3271 48.7093 19.1248 48.6259C18.9224 48.5386 18.7498 48.4196 18.6069 48.2688C18.4641 48.114 18.3529 47.9394 18.2736 47.745C18.1982 47.5505 18.1605 47.3462 18.1605 47.1319C18.1605 46.8382 18.226 46.5704 18.3569 46.3283C18.4918 46.0823 18.6823 45.8859 18.9283 45.739C19.1744 45.5922 19.466 45.5188 19.8033 45.5188C20.1406 45.5188 20.4303 45.5922 20.6724 45.739C20.9145 45.8859 21.095 46.0783 21.2141 46.3164L20.4343 46.5545C20.3668 46.4394 20.2775 46.3521 20.1664 46.2926C20.0553 46.2291 19.9323 46.1974 19.7974 46.1974C19.6466 46.1974 19.5077 46.237 19.3807 46.3164C19.2577 46.3918 19.1605 46.5009 19.0891 46.6438C19.0176 46.7827 18.9819 46.9454 18.9819 47.1319C18.9819 47.3144 19.0176 47.4771 19.0891 47.62C19.1645 47.7589 19.2637 47.87 19.3867 47.9533C19.5097 48.0327 19.6466 48.0724 19.7974 48.0724C19.8926 48.0724 19.9819 48.0565 20.0652 48.0247C20.1525 47.993 20.2299 47.9493 20.2974 47.8938C20.3648 47.8382 20.4145 47.7747 20.4462 47.7033L21.226 47.9414C21.1545 48.0962 21.0494 48.2351 20.9105 48.3581C20.7756 48.4811 20.6148 48.5783 20.4283 48.6497C20.2458 48.7172 20.0395 48.7509 19.8093 48.7509ZM23.4317 48.7509C23.1817 48.7509 22.9555 48.7093 22.7532 48.6259C22.5508 48.5386 22.3782 48.4216 22.2353 48.2747C22.0924 48.1239 21.9813 47.9533 21.902 47.7628C21.8266 47.5684 21.7889 47.364 21.7889 47.1497C21.7889 46.8521 21.8544 46.5803 21.9853 46.3343C22.1202 46.0882 22.3107 45.8918 22.5567 45.745C22.8067 45.5942 23.1004 45.5188 23.4377 45.5188C23.779 45.5188 24.0706 45.5942 24.3127 45.745C24.5548 45.8918 24.7393 46.0882 24.8663 46.3343C24.9972 46.5763 25.0627 46.8382 25.0627 47.12C25.0627 47.1676 25.0607 47.2172 25.0567 47.2688C25.0528 47.3164 25.0488 47.3561 25.0448 47.3878H22.6341C22.65 47.5466 22.6956 47.6855 22.771 47.8045C22.8504 47.9235 22.9496 48.0148 23.0686 48.0783C23.1917 48.1378 23.3226 48.1676 23.4615 48.1676C23.6202 48.1676 23.769 48.1299 23.9079 48.0545C24.0508 47.9751 24.148 47.872 24.1996 47.745L24.8841 47.9355C24.8087 48.0942 24.6996 48.2351 24.5567 48.3581C24.4178 48.4811 24.2532 48.5783 24.0627 48.6497C23.8722 48.7172 23.6619 48.7509 23.4317 48.7509ZM22.6163 46.8819H24.2472C24.2313 46.7232 24.1857 46.5862 24.1103 46.4712C24.0389 46.3521 23.9436 46.2609 23.8246 46.1974C23.7055 46.1299 23.5726 46.0962 23.4258 46.0962C23.2829 46.0962 23.152 46.1299 23.0329 46.1974C22.9178 46.2609 22.8226 46.3521 22.7472 46.4712C22.6758 46.5862 22.6321 46.7232 22.6163 46.8819ZM13.801 53.7509C13.5351 53.7509 13.2811 53.7073 13.0391 53.62C12.797 53.5327 12.5887 53.4037 12.4141 53.2331L12.6998 52.7152C12.8863 52.866 13.0688 52.9771 13.2474 53.0485C13.4299 53.12 13.6045 53.1557 13.7712 53.1557C13.926 53.1557 14.049 53.1279 14.1403 53.0724C14.2355 53.0168 14.2831 52.9335 14.2831 52.8224C14.2831 52.747 14.2573 52.6894 14.2057 52.6497C14.1541 52.6061 14.0787 52.5684 13.9795 52.5366C13.8843 52.5049 13.7672 52.4692 13.6283 52.4295C13.3982 52.3541 13.2057 52.2807 13.051 52.2093C12.8962 52.1378 12.7791 52.0485 12.6998 51.9414C12.6244 51.8303 12.5867 51.6894 12.5867 51.5188C12.5867 51.3124 12.6383 51.1359 12.7414 50.989C12.8486 50.8382 12.9954 50.7212 13.1819 50.6378C13.3724 50.5545 13.5946 50.5128 13.8486 50.5128C14.0708 50.5128 14.2811 50.5485 14.4795 50.62C14.678 50.6874 14.8585 50.7985 15.0212 50.9533L14.6998 51.4593C14.541 51.3362 14.3903 51.247 14.2474 51.1914C14.1045 51.1319 13.9597 51.1021 13.8129 51.1021C13.7295 51.1021 13.6502 51.112 13.5748 51.1319C13.5033 51.1517 13.4438 51.1855 13.3962 51.2331C13.3526 51.2767 13.3307 51.3402 13.3307 51.4235C13.3307 51.4989 13.3506 51.5585 13.3903 51.6021C13.4339 51.6418 13.4974 51.6775 13.5807 51.7093C13.668 51.741 13.7732 51.7767 13.8962 51.8164C14.1462 51.8878 14.3565 51.9612 14.5272 52.0366C14.7018 52.112 14.8327 52.2053 14.92 52.3164C15.0073 52.4235 15.051 52.5724 15.051 52.7628C15.051 53.0724 14.9379 53.3144 14.7117 53.489C14.4855 53.6636 14.1819 53.7509 13.801 53.7509ZM15.8851 49.3462H16.6828V52.6914C16.6828 52.8343 16.7066 52.9315 16.7542 52.9831C16.8018 53.0307 16.8673 53.0545 16.9506 53.0545C17.0141 53.0545 17.0796 53.0466 17.147 53.0307C17.2145 53.0148 17.274 52.995 17.3256 52.9712L17.4328 53.5783C17.3256 53.6299 17.2006 53.6696 17.0578 53.6974C16.9149 53.7251 16.7859 53.739 16.6709 53.739C16.4209 53.739 16.2264 53.6735 16.0875 53.5426C15.9526 53.4077 15.8851 53.2172 15.8851 52.9712V49.3462ZM19.5243 53.7509C19.2743 53.7509 19.0481 53.7093 18.8457 53.6259C18.6434 53.5386 18.4707 53.4216 18.3279 53.2747C18.185 53.1239 18.0739 52.9533 17.9946 52.7628C17.9192 52.5684 17.8815 52.364 17.8815 52.1497C17.8815 51.8521 17.9469 51.5803 18.0779 51.3343C18.2128 51.0882 18.4033 50.8918 18.6493 50.745C18.8993 50.5942 19.193 50.5188 19.5303 50.5188C19.8715 50.5188 20.1632 50.5942 20.4053 50.745C20.6473 50.8918 20.8319 51.0882 20.9588 51.3343C21.0898 51.5763 21.1553 51.8382 21.1553 52.12C21.1553 52.1676 21.1533 52.2172 21.1493 52.2688C21.1454 52.3164 21.1414 52.3561 21.1374 52.3878H18.7267C18.7426 52.5466 18.7882 52.6855 18.8636 52.8045C18.943 52.9235 19.0422 53.0148 19.1612 53.0783C19.2842 53.1378 19.4152 53.1676 19.5541 53.1676C19.7128 53.1676 19.8616 53.1299 20.0005 53.0545C20.1434 52.9751 20.2406 52.872 20.2922 52.745L20.9767 52.9355C20.9013 53.0942 20.7922 53.2351 20.6493 53.3581C20.5104 53.4811 20.3458 53.5783 20.1553 53.6497C19.9648 53.7172 19.7545 53.7509 19.5243 53.7509ZM18.7088 51.8819H20.3398C20.3239 51.7232 20.2783 51.5862 20.2029 51.4712C20.1315 51.3521 20.0362 51.2609 19.9172 51.1974C19.7981 51.1299 19.6652 51.0962 19.5184 51.0962C19.3755 51.0962 19.2446 51.1299 19.1255 51.1974C19.0104 51.2609 18.9152 51.3521 18.8398 51.4712C18.7684 51.5862 18.7247 51.7232 18.7088 51.8819ZM23.3852 53.7509C23.1352 53.7509 22.909 53.7093 22.7067 53.6259C22.5043 53.5386 22.3317 53.4216 22.1888 53.2747C22.0459 53.1239 21.9348 52.9533 21.8555 52.7628C21.7801 52.5684 21.7424 52.364 21.7424 52.1497C21.7424 51.8521 21.8079 51.5803 21.9388 51.3343C22.0737 51.0882 22.2642 50.8918 22.5102 50.745C22.7602 50.5942 23.0539 50.5188 23.3912 50.5188C23.7325 50.5188 24.0241 50.5942 24.2662 50.745C24.5082 50.8918 24.6928 51.0882 24.8198 51.3343C24.9507 51.5763 25.0162 51.8382 25.0162 52.12C25.0162 52.1676 25.0142 52.2172 25.0102 52.2688C25.0063 52.3164 25.0023 52.3561 24.9983 52.3878H22.5876C22.6035 52.5466 22.6491 52.6855 22.7245 52.8045C22.8039 52.9235 22.9031 53.0148 23.0221 53.0783C23.1452 53.1378 23.2761 53.1676 23.415 53.1676C23.5737 53.1676 23.7225 53.1299 23.8614 53.0545C24.0043 52.9751 24.1015 52.872 24.1531 52.745L24.8376 52.9355C24.7622 53.0942 24.6531 53.2351 24.5102 53.3581C24.3713 53.4811 24.2067 53.5783 24.0162 53.6497C23.8257 53.7172 23.6154 53.7509 23.3852 53.7509ZM22.5698 51.8819H24.2007C24.1848 51.7232 24.1392 51.5862 24.0638 51.4712C23.9924 51.3521 23.8971 51.2609 23.7781 51.1974C23.659 51.1299 23.5261 51.0962 23.3793 51.0962C23.2364 51.0962 23.1055 51.1299 22.9864 51.1974C22.8713 51.2609 22.7761 51.3521 22.7007 51.4712C22.6293 51.5862 22.5856 51.7232 22.5698 51.8819ZM27.6688 53.7509C27.4267 53.7509 27.2124 53.6974 27.0259 53.5902C26.8434 53.4791 26.7005 53.3303 26.5973 53.1438V54.9593H25.7997V50.5724H26.4961V51.1081C26.6152 50.9255 26.766 50.7827 26.9485 50.6795C27.1311 50.5724 27.3394 50.5188 27.5735 50.5188C27.7838 50.5188 27.9763 50.5605 28.1509 50.6438C28.3295 50.7271 28.4842 50.8442 28.6152 50.995C28.7461 51.1418 28.8473 51.3124 28.9188 51.5069C28.9942 51.6974 29.0319 51.9037 29.0319 52.1259C29.0319 52.4275 28.9723 52.7013 28.8533 52.9474C28.7382 53.1934 28.5775 53.3898 28.3711 53.5366C28.1688 53.6795 27.9346 53.7509 27.6688 53.7509ZM27.4009 53.0724C27.5239 53.0724 27.635 53.0466 27.7342 52.995C27.8334 52.9434 27.9188 52.8739 27.9902 52.7866C28.0656 52.6954 28.1211 52.5942 28.1569 52.4831C28.1965 52.368 28.2164 52.2489 28.2164 52.1259C28.2164 51.995 28.1946 51.8739 28.1509 51.7628C28.1112 51.6517 28.0517 51.5545 27.9723 51.4712C27.893 51.3839 27.7997 51.3164 27.6926 51.2688C27.5894 51.2212 27.4763 51.1974 27.3533 51.1974C27.2779 51.1974 27.2005 51.2112 27.1211 51.239C27.0457 51.2628 26.9723 51.2985 26.9009 51.3462C26.8295 51.3938 26.766 51.4493 26.7104 51.5128C26.6588 51.5763 26.6211 51.6458 26.5973 51.7212V52.4533C26.645 52.5684 26.7084 52.6735 26.7878 52.7688C26.8711 52.864 26.9664 52.9394 27.0735 52.995C27.1807 53.0466 27.2898 53.0724 27.4009 53.0724Z" fill="#FCBF4A"/>
</g>
<rect x="4.84598" y="4.46317" width="86.3095" height="85.119" rx="11.6071" stroke="white" stroke-width="1.78571" stroke-dasharray="4.76 4.76"/>
<path d="M2.46168 13.6914C2.46168 6.95221 7.92487 1.48903 14.6641 1.48903H81.3307C88.0699 1.48903 93.5331 6.95222 93.5331 13.6914V80.3581C93.5331 87.0973 88.0699 92.5604 81.3307 92.5604H14.6641C7.92486 92.5604 2.46168 87.0973 2.46168 80.3581V13.6914Z" stroke="#F7CFFF" stroke-width="0.595238"/>
<g filter="url(#filter3_d_3428_38085)">
<path d="M21.2414 22.8124V25.1172H13.5081V22.8124H16.2129V17.041C16.0986 17.1934 15.9208 17.3521 15.6795 17.5172C15.4383 17.6696 15.1653 17.8156 14.8605 17.9553C14.5557 18.095 14.251 18.2093 13.9462 18.2981C13.6414 18.387 13.3684 18.4315 13.1272 18.4315V16.0505C13.3557 16.0505 13.6287 15.9807 13.9462 15.841C14.2764 15.6886 14.6002 15.5108 14.9176 15.3077C15.2478 15.1045 15.5272 14.9077 15.7557 14.7172C15.997 14.514 16.1494 14.3553 16.2129 14.241H18.8224V22.8124H21.2414ZM33.4156 19.5362C33.4156 20.6537 33.1997 21.6505 32.7679 22.5267C32.3489 23.3902 31.7648 24.0696 31.0156 24.5648C30.279 25.06 29.4409 25.3077 28.5013 25.3077C27.5616 25.3077 26.7171 25.06 25.9679 24.5648C25.2314 24.0696 24.6473 23.3902 24.2156 22.5267C23.7965 21.6505 23.587 20.6537 23.587 19.5362C23.587 18.4188 23.7965 17.4283 24.2156 16.5648C24.6473 15.6886 25.2314 15.0029 25.9679 14.5077C26.7171 13.9997 27.5616 13.7458 28.5013 13.7458C29.4409 13.7458 30.279 13.9997 31.0156 14.5077C31.7648 15.0029 32.3489 15.6886 32.7679 16.5648C33.1997 17.4283 33.4156 18.4188 33.4156 19.5362ZM30.8441 19.5362C30.8441 18.8505 30.7425 18.2537 30.5394 17.7458C30.3489 17.2251 30.0759 16.8188 29.7203 16.5267C29.3648 16.2346 28.9584 16.0886 28.5013 16.0886C28.0314 16.0886 27.6187 16.2346 27.2632 16.5267C26.9076 16.8188 26.6282 17.2251 26.4251 17.7458C26.2346 18.2537 26.1394 18.8505 26.1394 19.5362C26.1394 20.2219 26.2346 20.8188 26.4251 21.3267C26.6282 21.8346 26.9076 22.2346 27.2632 22.5267C27.6187 22.8188 28.0314 22.9648 28.5013 22.9648C28.9584 22.9648 29.3584 22.8188 29.7013 22.5267C30.0568 22.2346 30.3362 21.8346 30.5394 21.3267C30.7425 20.8061 30.8441 20.2093 30.8441 19.5362ZM36.6205 17.9934V15.2505H38.6967V17.9934H36.6205ZM36.6205 25.1172V22.3743H38.6967V25.1172H36.6205ZM51.7266 19.5362C51.7266 20.6537 51.5107 21.6505 51.0789 22.5267C50.6599 23.3902 50.0758 24.0696 49.3266 24.5648C48.5901 25.06 47.752 25.3077 46.8123 25.3077C45.8726 25.3077 45.0281 25.06 44.2789 24.5648C43.5424 24.0696 42.9583 23.3902 42.5266 22.5267C42.1075 21.6505 41.898 20.6537 41.898 19.5362C41.898 18.4188 42.1075 17.4283 42.5266 16.5648C42.9583 15.6886 43.5424 15.0029 44.2789 14.5077C45.0281 13.9997 45.8726 13.7458 46.8123 13.7458C47.752 13.7458 48.5901 13.9997 49.3266 14.5077C50.0758 15.0029 50.6599 15.6886 51.0789 16.5648C51.5107 17.4283 51.7266 18.4188 51.7266 19.5362ZM49.1551 19.5362C49.1551 18.8505 49.0535 18.2537 48.8504 17.7458C48.6599 17.2251 48.3869 16.8188 48.0313 16.5267C47.6758 16.2346 47.2694 16.0886 46.8123 16.0886C46.3424 16.0886 45.9297 16.2346 45.5742 16.5267C45.2186 16.8188 44.9393 17.2251 44.7361 17.7458C44.5456 18.2537 44.4504 18.8505 44.4504 19.5362C44.4504 20.2219 44.5456 20.8188 44.7361 21.3267C44.9393 21.8346 45.2186 22.2346 45.5742 22.5267C45.9297 22.8188 46.3424 22.9648 46.8123 22.9648C47.2694 22.9648 47.6694 22.8188 48.0123 22.5267C48.3678 22.2346 48.6472 21.8346 48.8504 21.3267C49.0535 20.8061 49.1551 20.2093 49.1551 19.5362ZM54.341 25.1172C54.341 24.5458 54.3854 24.0315 54.4743 23.5743C54.5632 23.1172 54.7156 22.6918 54.9315 22.2981C55.16 21.9045 55.4648 21.5362 55.8458 21.1934C56.2394 20.8378 56.7346 20.495 57.3315 20.1648C57.8521 19.8854 58.3093 19.6442 58.7029 19.441C59.0966 19.2251 59.4267 19.0283 59.6934 18.8505C59.9727 18.6727 60.1823 18.495 60.3219 18.3172C60.4616 18.1267 60.5315 17.9108 60.5315 17.6696C60.5315 17.4156 60.4616 17.187 60.3219 16.9839C60.1823 16.768 59.9854 16.5966 59.7315 16.4696C59.4775 16.3426 59.16 16.2791 58.7791 16.2791C58.4743 16.2791 58.1886 16.3172 57.9219 16.3934C57.668 16.4696 57.4267 16.5775 57.1981 16.7172C56.9823 16.8569 56.7791 17.0156 56.5886 17.1934C56.3981 17.3585 56.2267 17.5362 56.0743 17.7267L54.4553 15.86C54.6331 15.6823 54.868 15.4918 55.16 15.2886C55.4648 15.0727 55.8204 14.8759 56.2267 14.6981C56.6458 14.5077 57.1029 14.3553 57.5981 14.241C58.1061 14.114 58.6458 14.0505 59.2172 14.0505C60.0807 14.0505 60.8172 14.1902 61.4267 14.4696C62.0362 14.7362 62.4997 15.1108 62.8172 15.5934C63.1473 16.0759 63.3124 16.641 63.3124 17.2886C63.3124 17.7331 63.2299 18.1267 63.0648 18.4696C62.8997 18.8124 62.6902 19.1172 62.4362 19.3839C62.1823 19.6378 61.9029 19.8664 61.5981 20.0696C61.3061 20.2727 61.0204 20.4505 60.741 20.6029C60.3473 20.8061 59.9918 20.9966 59.6743 21.1743C59.3569 21.3394 59.0775 21.5108 58.8362 21.6886C58.595 21.8537 58.3791 22.0251 58.1886 22.2029C58.0108 22.3807 57.8521 22.5839 57.7124 22.8124H63.522V25.1172H54.341ZM15.4141 32.2005C15.0752 32.2005 14.7752 32.1255 14.5141 31.9755C14.2585 31.82 14.0585 31.6116 13.9141 31.3505V33.8922H12.7974V27.7505H13.7724V28.5005C13.9391 28.245 14.1502 28.045 14.4057 27.9005C14.6613 27.7505 14.953 27.6755 15.2807 27.6755C15.5752 27.6755 15.8446 27.7339 16.0891 27.8505C16.3391 27.9672 16.5557 28.1311 16.7391 28.3422C16.9224 28.5477 17.0641 28.7866 17.1641 29.0589C17.2696 29.3255 17.3224 29.6144 17.3224 29.9255C17.3224 30.3477 17.2391 30.7311 17.0724 31.0755C16.9113 31.42 16.6863 31.695 16.3974 31.9005C16.1141 32.1005 15.7863 32.2005 15.4141 32.2005ZM15.0391 31.2505C15.2113 31.2505 15.3668 31.2144 15.5057 31.1422C15.6446 31.07 15.7641 30.9727 15.8641 30.8505C15.9696 30.7227 16.0474 30.5811 16.0974 30.4255C16.153 30.2644 16.1807 30.0977 16.1807 29.9255C16.1807 29.7422 16.1502 29.5727 16.0891 29.4172C16.0335 29.2616 15.9502 29.1255 15.8391 29.0089C15.728 28.8866 15.5974 28.7922 15.4474 28.7255C15.303 28.6589 15.1446 28.6255 14.9724 28.6255C14.8668 28.6255 14.7585 28.645 14.6474 28.6839C14.5418 28.7172 14.4391 28.7672 14.3391 28.8339C14.2391 28.9005 14.1502 28.9783 14.0724 29.0672C14.0002 29.1561 13.9474 29.2533 13.9141 29.3589V30.3839C13.9807 30.545 14.0696 30.6922 14.1807 30.8255C14.2974 30.9589 14.4307 31.0644 14.5807 31.1422C14.7307 31.2144 14.8835 31.2505 15.0391 31.2505ZM18.4706 32.1172V30.9172H19.3873V32.1172H18.4706ZM27.5674 32.1172H26.4507V29.6672C26.4507 29.3227 26.3896 29.07 26.2674 28.9089C26.1507 28.7422 25.9868 28.6589 25.7757 28.6589C25.559 28.6589 25.3507 28.745 25.1507 28.9172C24.9563 29.0839 24.8174 29.3033 24.734 29.5755V32.1172H23.6174V29.6672C23.6174 29.3172 23.5563 29.0616 23.434 28.9005C23.3174 28.7394 23.1535 28.6589 22.9424 28.6589C22.7257 28.6589 22.5174 28.7422 22.3174 28.9089C22.1229 29.0755 21.984 29.295 21.9007 29.5672V32.1172H20.784V27.7505H21.7924V28.5589C21.959 28.2755 22.1813 28.0589 22.459 27.9089C22.7368 27.7533 23.0563 27.6755 23.4174 27.6755C23.7785 27.6755 24.059 27.7644 24.259 27.9422C24.4646 28.12 24.5952 28.3394 24.6507 28.6005C24.8285 28.3005 25.0535 28.0727 25.3257 27.9172C25.6035 27.7561 25.9146 27.6755 26.259 27.6755C26.5313 27.6755 26.7507 27.7255 26.9174 27.8255C27.0896 27.92 27.2229 28.0505 27.3174 28.2172C27.4118 28.3783 27.4757 28.5616 27.509 28.7672C27.5479 28.9727 27.5674 29.1811 27.5674 29.3922V32.1172ZM28.9312 32.1172V30.9172H29.8479V32.1172H28.9312Z" fill="white"/>
</g>
<path d="M60.5767 48.5092L60.6215 49.1649C60.6262 49.234 60.5696 49.2863 60.495 49.2816L60.0714 49.2547L59.2024 48.7486L60.0094 48.3486L60.433 48.3755C60.5076 48.3802 60.572 48.44 60.5767 48.5092Z" fill="#09466A"/>
<path d="M59.7883 45.1148L58.5811 48.2604L60.3821 46.0886C60.3995 46.0677 60.4079 46.0409 60.4059 46.0128L60.3555 45.2754C60.3508 45.2062 60.2865 45.1463 60.2119 45.1416L59.7883 45.1148Z" fill="#09466A"/>
<g filter="url(#filter4_d_3428_38085)">
<path d="M60.0056 48.3469L60.0676 49.253L57.549 49.0934C57.4744 49.0887 57.4101 49.0288 57.4054 48.9596L57.3549 48.2222C57.353 48.194 57.3614 48.1673 57.3788 48.1464L59.1798 45.9746L57.3277 45.8573C57.2532 45.8526 57.1888 45.7927 57.1841 45.7235L57.1392 45.0678C57.1345 44.9987 57.1911 44.9465 57.2657 44.9512L59.7843 45.1108L59.8463 46.0169L58.5771 48.2564L60.0056 48.3469Z" fill="#3A83AD"/>
</g>
<path d="M55.0132 44.9904L55.085 46.0396C55.0925 46.1502 55.0019 46.2337 54.8825 46.2262L54.2048 46.1832L52.8145 45.3734L54.1057 44.7335L54.7834 44.7765C54.9028 44.784 55.0057 44.8798 55.0132 44.9904Z" fill="#09466A"/>
<path d="M53.7503 39.5571L51.8189 44.5898L54.7005 41.1151C54.7282 41.0816 54.7416 41.0389 54.7385 40.9938L54.6579 39.814C54.6503 39.7034 54.5474 39.6076 54.428 39.6L53.7503 39.5571Z" fill="#09466A"/>
<g filter="url(#filter5_d_3428_38085)">
<path d="M54.1073 44.7337L54.2064 46.1834L50.1769 45.928C50.0575 45.9204 49.9546 45.8246 49.9471 45.714L49.8664 44.5342C49.8633 44.4891 49.8767 44.4464 49.9045 44.4129L52.7861 40.9382L49.8229 40.7505C49.7035 40.7429 49.6006 40.6471 49.593 40.5365L49.5212 39.4873C49.5137 39.3767 49.6043 39.2932 49.7237 39.3007L53.7532 39.5561L53.8523 41.0058L51.8217 44.5888L54.1073 44.7337Z" fill="#3A83AD"/>
</g>
<path d="M47.3934 39.8543L47.8172 41.0913C47.8618 41.2217 47.7799 41.3513 47.6341 41.3806L46.8063 41.5472L44.8757 41.0219L46.2206 39.8378L47.0484 39.6713C47.1942 39.6419 47.3487 39.7238 47.3934 39.8543Z" fill="#09466A"/>
<path d="M44.129 33.7332L43.4288 40.3998L45.7716 35.2988C45.7942 35.2497 45.7965 35.194 45.7784 35.1409L45.3018 33.7497C45.2571 33.6193 45.1026 33.5373 44.9568 33.5666L44.129 33.7332Z" fill="#09466A"/>
<g filter="url(#filter6_d_3428_38085)">
<path d="M46.2274 39.8365L46.8131 41.5459L41.8909 42.536C41.7451 42.5653 41.5907 42.4834 41.5459 42.3529L41.0693 40.9618C41.0512 40.9086 41.0534 40.853 41.076 40.8039L43.4189 35.7029L39.7993 36.4311C39.6535 36.4604 39.4991 36.3784 39.4544 36.248L39.0305 35.0109C38.9858 34.8805 39.0678 34.751 39.2136 34.7216L44.1358 33.7315L44.7214 35.4409L43.4355 40.3981L46.2274 39.8365Z" fill="#3A83AD"/>
</g>
<defs>
<filter id="filter0_d_3428_38085" x="47.2987" y="71.4219" width="31.84" height="17.9064" filterUnits="userSpaceOnUse" color-interpolation-filters="sRGB">
<feFlood flood-opacity="0" result="BackgroundImageFix"/>
<feColorMatrix in="SourceAlpha" type="matrix" values="0 0 0 0 0 0 0 0 0 0 0 0 0 0 0 0 0 0 127 0" result="hardAlpha"/>
<feOffset dy="2.38095"/>
<feGaussianBlur stdDeviation="1.19048"/>
<feComposite in2="hardAlpha" operator="out"/>
<feColorMatrix type="matrix" values="0 0 0 0 0 0 0 0 0 0 0 0 0 0 0 0 0 0 0.25 0"/>
<feBlend mode="normal" in2="BackgroundImageFix" result="effect1_dropShadow_3428_38085"/>
<feBlend mode="normal" in="SourceGraphic" in2="effect1_dropShadow_3428_38085" result="shape"/>
</filter>
<filter id="filter1_d_3428_38085" x="58.3538" y="-3.91183" width="41.8315" height="42.7729" filterUnits="userSpaceOnUse" color-interpolation-filters="sRGB">
<feFlood flood-opacity="0" result="BackgroundImageFix"/>
<feColorMatrix in="SourceAlpha" type="matrix" values="0 0 0 0 0 0 0 0 0 0 0 0 0 0 0 0 0 0 127 0" result="hardAlpha"/>
<feOffset/>
<feGaussianBlur stdDeviation="5.17857"/>
<feComposite in2="hardAlpha" operator="out"/>
<feColorMatrix type="matrix" values="0 0 0 0 1 0 0 0 0 0.657956 0 0 0 0 0.0019043 0 0 0 1 0"/>
<feBlend mode="normal" in2="BackgroundImageFix" result="effect1_dropShadow_3428_38085"/>
<feBlend mode="normal" in="SourceGraphic" in2="effect1_dropShadow_3428_38085" result="shape"/>
</filter>
<filter id="filter2_d_3428_38085" x="7.29501" y="34.3458" width="30.699" height="25.7342" filterUnits="userSpaceOnUse" color-interpolation-filters="sRGB">
<feFlood flood-opacity="0" result="BackgroundImageFix"/>
<feColorMatrix in="SourceAlpha" type="matrix" values="0 0 0 0 0 0 0 0 0 0 0 0 0 0 0 0 0 0 127 0" result="hardAlpha"/>
<feOffset/>
<feGaussianBlur stdDeviation="2.55952"/>
<feComposite in2="hardAlpha" operator="out"/>
<feColorMatrix type="matrix" values="0 0 0 0 1 0 0 0 0 0.657398 0 0 0 0 0.000276693 0 0 0 1 0"/>
<feBlend mode="normal" in2="BackgroundImageFix" result="effect1_dropShadow_3428_38085"/>
<feBlend mode="normal" in="SourceGraphic" in2="effect1_dropShadow_3428_38085" result="shape"/>
</filter>
<filter id="filter3_d_3428_38085" x="2.97545" y="3.92467" width="70.3694" height="39.7874" filterUnits="userSpaceOnUse" color-interpolation-filters="sRGB">
<feFlood flood-opacity="0" result="BackgroundImageFix"/>
<feColorMatrix in="SourceAlpha" type="matrix" values="0 0 0 0 0 0 0 0 0 0 0 0 0 0 0 0 0 0 127 0" result="hardAlpha"/>
<feOffset/>
<feGaussianBlur stdDeviation="4.91071"/>
<feComposite in2="hardAlpha" operator="out"/>
<feColorMatrix type="matrix" values="0 0 0 0 1 0 0 0 0 1 0 0 0 0 1 0 0 0 0.7 0"/>
<feBlend mode="normal" in2="BackgroundImageFix" result="effect1_dropShadow_3428_38085"/>
<feBlend mode="normal" in="SourceGraphic" in2="effect1_dropShadow_3428_38085" result="shape"/>
</filter>
<filter id="filter4_d_3428_38085" x="53.9263" y="41.7349" width="9.35826" height="10.7333" filterUnits="userSpaceOnUse" color-interpolation-filters="sRGB">
<feFlood flood-opacity="0" result="BackgroundImageFix"/>
<feColorMatrix in="SourceAlpha" type="matrix" values="0 0 0 0 0 0 0 0 0 0 0 0 0 0 0 0 0 0 127 0" result="hardAlpha"/>
<feOffset/>
<feGaussianBlur stdDeviation="1.60714"/>
<feComposite in2="hardAlpha" operator="out"/>
<feColorMatrix type="matrix" values="0 0 0 0 0.200726 0 0 0 0 0.457619 0 0 0 0 0.609228 0 0 0 1 0"/>
<feBlend mode="normal" in2="BackgroundImageFix" result="effect1_dropShadow_3428_38085"/>
<feBlend mode="normal" in="SourceGraphic" in2="effect1_dropShadow_3428_38085" result="shape"/>
</filter>
<filter id="filter5_d_3428_38085" x="46.3092" y="36.0865" width="11.1083" height="13.3114" filterUnits="userSpaceOnUse" color-interpolation-filters="sRGB">
<feFlood flood-opacity="0" result="BackgroundImageFix"/>
<feColorMatrix in="SourceAlpha" type="matrix" values="0 0 0 0 0 0 0 0 0 0 0 0 0 0 0 0 0 0 127 0" result="hardAlpha"/>
<feOffset/>
<feGaussianBlur stdDeviation="1.60714"/>
<feComposite in2="hardAlpha" operator="out"/>
<feColorMatrix type="matrix" values="0 0 0 0 0.200726 0 0 0 0 0.457619 0 0 0 0 0.609228 0 0 0 1 0"/>
<feBlend mode="normal" in2="BackgroundImageFix" result="effect1_dropShadow_3428_38085"/>
<feBlend mode="normal" in="SourceGraphic" in2="effect1_dropShadow_3428_38085" result="shape"/>
</filter>
<filter id="filter6_d_3428_38085" x="35.8013" y="30.5162" width="14.2254" height="15.2411" filterUnits="userSpaceOnUse" color-interpolation-filters="sRGB">
<feFlood flood-opacity="0" result="BackgroundImageFix"/>
<feColorMatrix in="SourceAlpha" type="matrix" values="0 0 0 0 0 0 0 0 0 0 0 0 0 0 0 0 0 0 127 0" result="hardAlpha"/>
<feOffset/>
<feGaussianBlur stdDeviation="1.60714"/>
<feComposite in2="hardAlpha" operator="out"/>
<feColorMatrix type="matrix" values="0 0 0 0 0.200726 0 0 0 0 0.457619 0 0 0 0 0.609228 0 0 0 1 0"/>
<feBlend mode="normal" in2="BackgroundImageFix" result="effect1_dropShadow_3428_38085"/>
<feBlend mode="normal" in="SourceGraphic" in2="effect1_dropShadow_3428_38085" result="shape"/>
</filter>
<linearGradient id="paint0_linear_3428_38085" x1="48.0004" y1="0" x2="48.0004" y2="94.0476" gradientUnits="userSpaceOnUse">
<stop stop-color="#100013"/>
<stop offset="1" stop-color="#100644"/>
</linearGradient>
</defs>
</svg>
