<svg width="95" height="95" viewBox="0 0 95 95" fill="none" xmlns="http://www.w3.org/2000/svg">
<rect width="94.0476" height="94.0476" rx="12.5" fill="white"/>
<mask id="mask0_3428_37805" style="mask-type:alpha" maskUnits="userSpaceOnUse" x="1" y="1" width="92" height="92">
<rect x="1.19531" y="1.1875" width="91.0714" height="91.6667" rx="12.5" fill="#D9D9D9"/>
</mask>
<g mask="url(#mask0_3428_37805)">
<path d="M110.721 -2.28906L1.69531 -2.28906L1.69531 89.285L110.721 89.285L110.721 -2.28906Z" fill="white"/>
<path d="M45.5368 54.3355C45.4607 53.7512 44.0206 53.3509 42.104 53.3157C42.5969 52.6996 42.8848 51.9623 42.8842 51.1693C42.8831 49.0126 40.7574 47.2648 38.1365 47.2656C35.881 47.2662 33.9955 48.5616 33.5134 50.297C33.249 49.9285 32.778 49.64 32.1783 49.5315C31.068 49.3308 29.9433 49.8204 29.6663 50.6251C29.4974 51.1155 29.684 51.6093 30.1059 51.9661C29.9439 51.9225 29.7753 51.8843 29.6007 51.8526C27.8744 51.5406 26.2404 51.9697 25.9505 52.8112C25.6606 53.6527 26.8252 54.5881 28.5515 54.9003C29.3591 55.0463 30.1462 55.0301 30.7853 54.8854C30.2746 55.2683 30.0378 55.6794 30.1888 56.0402C30.5117 56.8122 32.4864 57.0617 34.5999 56.5976C35.6237 56.3728 36.4913 56.0215 37.0779 55.6316C37.9554 55.9297 39.42 56.0666 41.0511 55.9552C43.622 55.7796 45.6301 55.0544 45.5368 54.3355Z" fill="white"/>
<path d="M69.9959 26.7727C70.8041 26.7741 71.585 26.8027 72.323 26.8544C72.0583 26.2852 71.9145 25.6759 71.9142 25.0421C71.9122 21.8942 75.4477 19.341 79.8095 19.3398C84.1724 19.3386 87.7099 21.8896 87.7116 25.0376C87.7119 25.2766 87.6914 25.5121 87.652 25.7433C87.7376 25.7357 87.8246 25.7313 87.913 25.7313C88.7149 25.7311 89.4128 26.0536 89.77 26.5288C90.3066 25.8492 91.4614 25.4729 92.6485 25.6568C94.1026 25.8822 95.0543 26.8625 94.7741 27.846C94.737 27.9761 94.6797 28.0995 94.6058 28.2155C98.4269 28.3979 101.181 28.8987 101.178 29.4824C101.176 30.2124 96.8655 30.796 91.5504 30.7854C91.2991 30.785 91.0502 30.7831 90.8041 30.78C89.6327 31.8144 86.7399 32.5425 83.3584 32.5356C82.306 32.5338 81.3012 32.4604 80.3814 32.3295C79.4619 32.9965 77.9607 33.4299 76.265 33.4264C73.4735 33.4212 71.2137 32.235 71.2194 30.7775C71.2194 30.7163 71.2251 30.6557 71.2334 30.5953C70.8251 30.609 70.4075 30.6156 69.9821 30.6148C65.4153 30.6061 61.7145 29.7385 61.7188 28.6778C61.7224 27.6167 65.4289 26.7638 69.9959 26.7727Z" fill="white"/>
<g filter="url(#filter0_d_3428_37805)">
<path d="M92.8447 12.4121C92.8469 18.1649 88.4027 22.8302 82.9185 22.8326C77.4342 22.8349 72.9866 18.1731 72.9844 12.4204C72.9822 6.66768 77.4264 2.00209 82.9106 2C88.3949 1.99769 92.8425 6.65942 92.8447 12.4121Z" fill="#FFB600"/>
<path d="M82.9019 2C79.077 2.00157 75.7968 4.29607 74.1392 7.62092C74.0164 8.27643 73.9453 8.95183 73.9453 9.64534C73.9478 15.3981 78.3954 20.0598 83.8796 20.0575C87.7045 20.0557 90.9846 17.7612 92.642 14.4366C92.765 13.7811 92.8361 13.1056 92.8358 12.4121C92.8338 6.65942 88.3859 1.99769 82.9019 2Z" fill="#FCCD06"/>
<path d="M70.348 14.7344C70.6473 14.7344 70.9226 14.9415 71.0074 15.2586C71.1095 15.6407 70.8974 16.0372 70.5332 16.1445C69.3202 16.5018 68.5479 16.5722 67.4789 16.6689L66.8271 16.7301C66.4531 16.7765 66.1166 16.4775 66.0811 16.0823C66.046 15.6871 66.3221 15.3371 66.699 15.3002L67.3605 15.238C68.3922 15.1441 69.0735 15.0822 70.1626 14.7612C70.2246 14.7429 70.2871 14.7346 70.348 14.7344Z" fill="#FFB600"/>
<path d="M73.502 19.9453C73.7122 19.9453 73.9201 20.0467 74.0544 20.2383C74.2784 20.5583 74.213 21.0082 73.9081 21.2424C72.6124 22.2406 71.6046 22.8285 70.8257 23.0405C70.458 23.1381 70.0854 22.909 69.9909 22.5256C69.8957 22.1418 70.1159 21.7496 70.4818 21.6498C70.8933 21.5381 71.6815 21.1751 73.0972 20.0849C73.2191 19.9907 73.3611 19.9453 73.502 19.9453Z" fill="#FFB600"/>
<path d="M88.427 22.8164C88.7066 22.8164 88.9688 22.9967 89.0706 23.288C89.4714 24.4376 90.2784 25.6284 90.6067 26.0872C90.8337 26.4045 90.7725 26.8549 90.4702 27.093C90.1672 27.3303 89.7382 27.2659 89.511 26.9498C89.1463 26.4398 88.2478 25.1104 87.784 23.7816C87.6542 23.4088 87.8368 22.9963 88.192 22.8601C88.2698 22.8306 88.349 22.8164 88.427 22.8164Z" fill="#FFB600"/>
<path d="M82.9705 24.7813C83.3471 24.7797 83.6565 25.0996 83.6595 25.4943L83.6595 25.8155C83.6702 27.1141 83.6764 27.7664 83.4376 29.1989C83.3722 29.5898 83.0178 29.8513 82.6452 29.7827C82.2724 29.7146 82.0235 29.3426 82.0884 28.9515C82.3058 27.6474 82.3002 27.077 82.2899 25.8279L82.2899 25.5052C82.2868 25.1081 82.5926 24.7827 82.9705 24.7813Z" fill="#FFB600"/>
<path d="M77.609 23.7383C77.7204 23.7381 77.833 23.7667 77.9376 23.8265C78.2693 24.0166 78.3911 24.4534 78.2093 24.8014C77.6833 25.8099 77.0657 26.7755 76.3731 27.672C76.136 27.9808 75.7037 28.028 75.4101 27.778C75.1161 27.5283 75.0709 27.076 75.309 26.7678C75.9499 25.9379 76.5215 25.0445 77.0079 24.1116C77.1323 23.873 77.3667 23.7383 77.609 23.7383Z" fill="#FFB600"/>
<path d="M66.8175 8.33594C66.8888 8.33594 66.9616 8.34756 67.033 8.3723L67.1766 8.42237C68.363 8.83439 68.3859 8.84184 69.6901 9.03355C70.0646 9.08875 70.3261 9.45145 70.2735 9.8444C70.2211 10.2373 69.8731 10.511 69.5007 10.4563C68.0733 10.2471 67.973 10.2125 66.7459 9.78636L66.6028 9.73629C66.2438 9.61172 66.0487 9.20536 66.1678 8.82872C66.2626 8.52712 66.5305 8.33616 66.8175 8.33594Z" fill="#FFB600"/>
<path d="M92.2248 5.08252C92.0142 5.08252 91.8064 4.98112 91.6722 4.78949C91.4481 4.46985 91.5136 4.01991 91.8185 3.78543C93.1141 2.78727 94.122 2.19934 94.9009 1.98729C95.2688 1.88977 95.6411 2.11887 95.7358 2.50221C95.8308 2.88607 95.6107 3.27819 95.2447 3.37803C94.8332 3.49001 94.045 3.85271 92.6293 4.94297C92.5073 5.03715 92.3654 5.08252 92.2248 5.08252Z" fill="#FFB600"/>
<path d="M72.2566 5.36202C72.1514 5.36202 72.0444 5.33698 71.944 5.28259L71.4807 5.03181C70.5599 4.53134 70.1393 4.30276 69.0102 3.94438C68.6482 3.82957 68.4433 3.42865 68.553 3.04896C68.663 2.66868 69.0486 2.45641 69.4066 2.56936C70.6573 2.96589 71.1732 3.24655 72.1108 3.7561L72.5695 4.00481C72.906 4.18563 73.0388 4.61852 72.8661 4.97175C72.7448 5.21963 72.505 5.36202 72.2566 5.36202Z" fill="#FFB600"/>
<path d="M77.3013 2.20884C77.0216 2.20906 76.7594 2.02853 76.6577 1.73721C76.2568 0.587871 75.4498 -0.602968 75.1215 -1.06163C74.8945 -1.37918 74.9557 -1.82964 75.258 -2.06776C75.561 -2.30507 75.99 -2.24062 76.2172 -1.92456C76.5819 -1.41457 77.4806 -0.0851441 77.9442 1.24368C78.0741 1.61644 77.8916 2.02898 77.5362 2.16518C77.4587 2.1949 77.3792 2.20884 77.3013 2.20884Z" fill="#FFB600"/>
<path d="M88.1068 1.29409C87.9951 1.29409 87.8825 1.26548 87.778 1.20587C87.4462 1.01551 87.3245 0.578751 87.5062 0.230731C88.0323 -0.777715 88.6499 -1.74332 89.3424 -2.63986C89.5795 -2.94839 90.0121 -2.99585 90.3055 -2.74588C90.5994 -2.49613 90.6447 -2.04388 90.4066 -1.73565C89.7659 -0.90572 89.1941 -0.0123098 88.7076 0.920512C88.5832 1.15916 88.3488 1.29386 88.1068 1.29409Z" fill="#FFB600"/>
</g>
<path d="M112.618 50.9617L109.005 51.9052L64.2266 48.1932L67.9145 47.6094L112.618 50.9617Z" fill="#C9B3B3"/>
<path d="M106.493 52.5608C106.077 57.168 97.404 62.8375 87.1294 61.8984C76.8548 60.9592 67.901 53.6868 69.0067 49.1971C69.5997 46.7896 73.5353 44.3492 76.2217 43.494C79.6362 42.4073 83.7561 42.1924 88.6418 42.5181C99.1742 43.2204 106.909 47.9535 106.493 52.5608Z" fill="#C9B3B3"/>
<path d="M105.461 51.6094C104.38 47.5359 96.8568 43.9671 87.5033 43.3506C78.3284 42.746 71.1029 44.9112 69.4238 48.6219L64.2266 48.1911L64.8005 102.3L106.882 113.742L109.005 51.9031L105.461 51.6094Z" fill="#9C7878"/>
<path d="M64.9745 75.582L-5.53125 80.7083L34.3531 91.3815L106.876 86.1354L64.9745 75.582Z" fill="white"/>
<path d="M106.525 97.8378L29.2031 103.254V91.3462L106.875 86.1328L106.525 97.8378Z" fill="#D1D1D1"/>
<path opacity="0.16" d="M107.089 73.5112C107.089 73.5112 103.027 74.1279 101.195 73.8962C100.773 73.8427 100.294 73.8702 99.755 74.0187C99.687 74.0374 99.6301 74.0759 99.5661 74.1019C96.2248 70.1741 78.339 65.5631 70.9622 65.6097C70.6048 65.612 57.9492 70.1378 56.9462 73.8014C56.8639 73.7918 56.7805 73.7842 56.6952 73.7926C55.845 73.8752 54.625 74.962 54.625 74.962C54.625 74.962 56.9254 76.3166 58.1068 75.9795C59.3871 78.1611 72.3255 83.5181 78.2904 83.4539C78.7559 84.2559 78.9693 84.9769 79.3862 85.2231C79.5123 85.2977 81.0303 85.6972 82.8537 84.5277C88.5857 84.1032 96.1447 83.6583 96.8347 83.5321C96.9051 83.5192 107.089 73.5112 107.089 73.5112Z" fill="#BF3C02"/>
<path d="M68.4085 63.2338C68.826 64.3638 71.1384 65.4647 71.4561 64.7626C72.1782 63.167 69.0699 60.9258 69.0699 60.9258C69.0699 60.9258 67.9911 62.1038 68.4085 63.2338Z" fill="white"/>
<path opacity="0.11" d="M70.9666 64.891C71.361 64.5781 71.7429 64.4398 71.4733 63.7105C70.743 63.2656 69.1696 63.1005 68.4141 63.2858C68.8808 64.3221 70.4808 65.2766 70.9666 64.891Z" fill="black"/>
<path d="M78.5535 83.4904C69.9505 81.8541 56.8935 77.1949 58.0305 72.3473C57.9724 71.5987 58.8258 70.0587 59.1943 69.5669C62.025 65.7889 68.7204 63.5616 72.8504 63.5355C81.8131 63.4787 105.522 69.9517 103.421 74.3149C102.374 84.2816 83.3753 84.4073 78.5535 83.4904Z" fill="white"/>
<path opacity="0.11" d="M103.552 74.8662C103.552 74.8662 101.719 74.8064 101.601 75.3651C101.447 76.0899 101.82 76.7058 102.51 77.189C103.145 76.1744 103.552 74.8662 103.552 74.8662ZM80.9545 81.6076C80.2782 81.822 80.2582 82.3807 80.0234 83.6181C81.2827 83.8369 82.3707 83.9364 83.2047 83.8105C82.7056 82.3698 81.774 81.3478 80.9545 81.6076ZM57.7734 72.0195C57.7787 72.0734 57.8089 73.7703 58.5037 74.6525C58.9525 74.122 59.2047 73.0823 59.0004 72.5631C58.7788 72.0003 58.1953 72.1799 57.7734 72.0195Z" fill="black"/>
<path d="M78.3532 82.2059C78.7296 81.2314 81.5926 79.8426 82.2812 81.8851C82.223 85.0934 79.3812 85.2258 79.3812 85.2258C79.3812 85.2258 77.9766 83.1805 78.3532 82.2059Z" fill="white"/>
<path opacity="0.05" d="M99.5618 73.8312C95.9536 79.2531 82.7827 80.3009 79.0195 79.6166C76.7178 79.1979 61.2511 76.0235 57.7911 72.207C57.0213 76.9736 69.7655 81.5222 78.26 83.151C78.5704 84.0289 79.5044 85.3485 79.5044 85.3485C79.5044 85.3485 81.4055 84.8673 81.7692 83.3755C88.4248 83.5226 100.399 81.9401 103.008 75.6609C100.915 76.0247 99.9429 74.1223 99.5618 73.8312Z" fill="black"/>
<path d="M58.0301 71.5989C58.9282 71.5545 59.6955 72.7468 59.2132 73.2294C57.775 74.6684 55.6641 73.1931 55.6641 73.1931C55.6641 73.1931 56.5623 71.6713 58.0301 71.5989Z" fill="white"/>
<g clip-path="url(#clip0_3428_37805)">
<path d="M74.8793 35.0996C74.465 35.0328 74.1831 34.641 74.2494 34.224L74.7941 30.7978C74.8604 30.3807 75.2496 30.097 75.664 30.1637C76.0783 30.2305 76.3602 30.6223 76.2939 31.0393L75.7492 34.4655C75.6829 34.8826 75.2937 35.1663 74.8793 35.0996Z" fill="#FFC700" fill-opacity="0.6"/>
<path d="M75.9964 28.1354C75.5821 28.0686 75.3002 27.6768 75.3665 27.2598L75.9113 23.8329C75.9776 23.4159 76.3668 23.1322 76.7812 23.1989C77.1955 23.2656 77.4774 23.6575 77.4111 24.0745L76.8664 27.5007C76.8 27.9184 76.4108 28.2021 75.9964 28.1354Z" fill="#FFC700" fill-opacity="0.6"/>
<path d="M72.5648 49.7355C72.1505 49.6688 71.8686 49.277 71.9349 48.8599L73.5909 38.4423C73.6572 38.0253 74.0465 37.7415 74.4608 37.8083C74.8752 37.875 75.1571 38.2668 75.0908 38.6839L73.4346 49.1021C73.3684 49.5185 72.9791 49.8023 72.5648 49.7355Z" fill="#FFC700" fill-opacity="0.6"/>
<path d="M64.8949 97.901C64.4805 97.8343 64.1987 97.4424 64.2649 97.0254L64.8097 93.5986C64.876 93.1815 65.2653 92.8978 65.6796 92.9645C66.0939 93.0313 66.3758 93.4231 66.3095 93.8401L65.7648 97.2669C65.6986 97.6834 65.3092 97.9677 64.8949 97.901Z" fill="#FFC700" fill-opacity="0.6"/>
<path d="M66.1116 90.2557C65.6973 90.189 65.4154 89.7971 65.4817 89.3801L67.1378 78.9618C67.2041 78.5448 67.5934 78.2611 68.0077 78.3278C68.422 78.3945 68.7039 78.7864 68.6376 79.2034L66.9815 89.6217C66.9152 90.0387 66.5259 90.3224 66.1116 90.2557Z" fill="#FFC700" fill-opacity="0.6"/>
<path d="M63.2236 35.5488C62.9293 35.5014 62.6785 35.281 62.6053 34.9712L61.8056 31.5956C61.7081 31.185 61.9601 30.7728 62.3679 30.6752C62.7732 30.5766 63.1846 30.8313 63.2822 31.2412L64.0819 34.6168C64.1795 35.0273 63.9274 35.4396 63.519 35.537C63.4197 35.561 63.3192 35.5642 63.2236 35.5488Z" fill="#FFC700" fill-opacity="0.6"/>
<path d="M66.6443 49.9674C66.35 49.92 66.0991 49.7002 66.026 49.3898L63.5947 39.1267C63.4971 38.7162 63.7492 38.3039 64.1569 38.2064C64.5628 38.1085 64.9745 38.3613 65.0713 38.7723L67.5026 49.0354C67.6002 49.4459 67.3481 49.8582 66.9404 49.9557C66.8404 49.9796 66.7399 49.9828 66.6443 49.9674Z" fill="#FFC700" fill-opacity="0.6"/>
<path d="M52.6495 40.4383C52.4576 40.4074 52.2774 40.3029 52.1541 40.1314L50.1321 37.3202C49.886 36.978 49.9619 36.4999 50.3018 36.2527C50.6418 36.0049 51.1161 36.0813 51.3623 36.4235L53.3843 39.2348C53.6305 39.577 53.5545 40.0551 53.2146 40.3022C53.0449 40.4265 52.8413 40.4692 52.6495 40.4383Z" fill="#FFC700" fill-opacity="0.6"/>
<path d="M48.5481 34.722C48.3563 34.6911 48.1761 34.5866 48.0528 34.4151L46.0306 31.6051C45.7844 31.2629 45.8604 30.7848 46.2003 30.5377C46.5402 30.2905 47.0146 30.3663 47.2608 30.7085L49.2835 33.5192C49.5297 33.8614 49.4537 34.3394 49.1138 34.5866C48.9435 34.7102 48.7406 34.753 48.5481 34.722Z" fill="#FFC700" fill-opacity="0.6"/>
<path d="M61.2912 52.4455C61.0994 52.4146 60.9192 52.3102 60.7959 52.1387L54.6478 43.5936C54.4016 43.2514 54.4776 42.7734 54.8175 42.5262C55.1574 42.2784 55.6324 42.3549 55.878 42.697L62.0266 51.2428C62.2728 51.585 62.1969 52.0624 61.8569 52.3102C61.6867 52.4337 61.4831 52.4764 61.2912 52.4455Z" fill="#FFC700" fill-opacity="0.6"/>
<path d="M44.705 49.0422C44.6094 49.0268 44.5148 48.9928 44.4274 48.9381L41.49 47.12C41.1329 46.8992 41.0212 46.4284 41.2411 46.069C41.4611 45.7096 41.9289 45.5972 42.2853 45.8185L45.222 47.6365C45.5792 47.8572 45.6909 48.3281 45.4709 48.6875C45.3061 48.9583 44.9988 49.0895 44.705 49.0422Z" fill="#FFC700" fill-opacity="0.6"/>
<path d="M38.7434 45.347C38.6478 45.3316 38.5532 45.2977 38.4658 45.2429L35.529 43.4249C35.1719 43.2042 35.0602 42.7333 35.2802 42.3739C35.5001 42.0146 35.968 41.9015 36.3243 42.1234L39.2611 43.9415C39.6182 44.1622 39.7299 44.633 39.51 44.9924C39.3444 45.2638 39.0378 45.3944 38.7434 45.347Z" fill="#FFC700" fill-opacity="0.6"/>
<path d="M57.2596 56.8059C57.164 56.7905 57.0694 56.7566 56.9819 56.7018L48.0526 51.1744C47.6954 50.9537 47.5837 50.4828 47.8037 50.1234C48.0236 49.764 48.4907 49.6522 48.8478 49.8729L57.7772 55.4004C58.1343 55.6211 58.246 56.0919 58.0267 56.4514C57.8605 56.7227 57.5533 56.8532 57.2596 56.8059Z" fill="#FFC700" fill-opacity="0.6"/>
<path d="M91.9933 78.3022C91.8977 78.2868 91.8031 78.2528 91.7156 78.1981L82.7869 72.6707C82.4297 72.45 82.3181 71.9792 82.538 71.6198C82.7579 71.2604 83.2257 71.148 83.5822 71.3693L92.5109 76.8966C92.8681 77.1173 92.9797 77.5882 92.7598 77.9476C92.5942 78.219 92.2876 78.3496 91.9933 78.3022Z" fill="#FFC700" fill-opacity="0.6"/>
<path d="M40.6561 60.038L37.2521 59.4898C36.8378 59.423 36.5559 59.0312 36.6222 58.6142C36.6885 58.1972 37.0778 57.9134 37.4921 57.9801L40.8961 58.5284C41.3104 58.5951 41.5923 58.9869 41.526 59.4039C41.4597 59.821 41.0704 60.1047 40.6561 60.038Z" fill="#FFC700" fill-opacity="0.6"/>
<path d="M33.7433 58.9249L30.3381 58.3765C29.9237 58.3098 29.6418 57.9179 29.7081 57.5009C29.7744 57.0839 30.1637 56.8001 30.578 56.8669L33.9826 57.4152C34.3969 57.4819 34.6788 57.8737 34.6125 58.2908C34.5462 58.7078 34.1576 58.9916 33.7433 58.9249Z" fill="#FFC700" fill-opacity="0.6"/>
<path d="M55.1965 62.3794L44.8459 60.7124C44.4315 60.6457 44.1497 60.2539 44.2159 59.8368C44.2822 59.4198 44.6715 59.1361 45.0858 59.2028L55.4365 60.8698C55.8508 60.9365 56.1327 61.3283 56.0664 61.7454C56.0001 62.1624 55.6108 62.4461 55.1965 62.3794Z" fill="#FFC700" fill-opacity="0.6"/>
<path d="M95.4699 68.8716L85.1193 67.2046C84.705 67.1379 84.4231 66.7461 84.4894 66.329C84.5557 65.912 84.945 65.6283 85.3593 65.695L95.7099 67.362C96.1242 67.4287 96.4061 67.8205 96.3398 68.2376C96.2735 68.6546 95.8842 68.9383 95.4699 68.8716Z" fill="#FFC700" fill-opacity="0.6"/>
<path d="M37.7623 72.5704C37.468 72.523 37.2172 72.3026 37.144 71.9928C37.0465 71.5823 37.2985 71.17 37.7063 71.0725L41.06 70.2675C41.4665 70.1698 41.8768 70.4229 41.9744 70.8335C42.0719 71.244 41.8199 71.6562 41.4121 71.7538L38.0584 72.5587C37.9591 72.5827 37.8586 72.5859 37.7623 72.5704Z" fill="#FFC700" fill-opacity="0.6"/>
<path d="M45.2432 70.7775C44.9489 70.7301 44.6981 70.5097 44.6249 70.1998C44.5274 69.7893 44.7794 69.3771 45.1872 69.2795L55.3842 66.8324C55.7932 66.7351 56.2011 66.9878 56.2986 67.3983C56.3961 67.8088 56.1441 68.2211 55.7357 68.3186L45.5386 70.7657C45.4386 70.7902 45.3388 70.7929 45.2432 70.7775Z" fill="#FFC700" fill-opacity="0.6"/>
<path d="M84.8917 61.2541C84.5973 61.2067 84.3464 60.987 84.2733 60.6765C84.1758 60.266 84.4278 59.8537 84.8356 59.7562L95.032 57.3089C95.4385 57.2112 95.849 57.4637 95.9464 57.8749C96.0439 58.2854 95.7919 58.6977 95.3841 58.7952L85.1877 61.2424C85.0883 61.2671 84.9879 61.2696 84.8917 61.2541Z" fill="#FFC700" fill-opacity="0.6"/>
<path d="M43.1799 84.4597C42.9874 84.4287 42.8079 84.3243 42.6846 84.1528C42.4384 83.8106 42.5144 83.3325 42.8542 83.0854L45.6466 81.0501C45.9879 80.8025 46.4626 80.8803 46.7071 81.2209C46.9533 81.5631 46.8773 82.0412 46.5374 82.2883L43.7451 84.3236C43.576 84.4473 43.3718 84.4906 43.1799 84.4597Z" fill="#FFC700" fill-opacity="0.6"/>
<path d="M37.508 88.5929C37.3161 88.562 37.136 88.4576 37.0125 88.2867C36.7663 87.9445 36.8423 87.4665 37.1822 87.2193L39.9747 85.1834C40.3146 84.9356 40.7896 85.0121 41.0352 85.3542C41.2814 85.6964 41.2054 86.1744 40.8655 86.4216L38.0724 88.4574C37.904 88.5812 37.6998 88.6238 37.508 88.5929Z" fill="#FFC700" fill-opacity="0.6"/>
<path d="M49.4095 79.9159C49.2177 79.885 49.0375 79.7805 48.9142 79.609C48.668 79.2668 48.744 78.7887 49.0839 78.5416L57.5741 72.3534C57.9141 72.1056 58.3884 72.182 58.6346 72.5242C58.8808 72.8664 58.8048 73.3444 58.4649 73.5916L49.9753 79.7799C49.8049 79.9041 49.6014 79.9468 49.4095 79.9159Z" fill="#FFC700" fill-opacity="0.6"/>
<path d="M82.4408 55.8495C82.2489 55.8186 82.0688 55.7141 81.9454 55.5426C81.6992 55.2004 81.7752 54.7223 82.1151 54.4752L90.6053 48.287C90.9453 48.0392 91.4203 48.1157 91.6658 48.4578C91.912 48.8 91.836 49.278 91.4961 49.5252L83.0058 55.714C82.8362 55.8377 82.632 55.8803 82.4408 55.8495Z" fill="#FFC700" fill-opacity="0.6"/>
<path d="M52.7176 93.3544C52.622 93.339 52.5274 93.3051 52.4399 93.2503C52.0828 93.0296 51.9711 92.5588 52.191 92.1994L53.9973 89.2434C54.2172 88.884 54.6843 88.7722 55.0414 88.9929C55.3986 89.2136 55.5102 89.6845 55.2909 90.044L53.4847 92.9999C53.3186 93.2706 53.0119 93.4018 52.7176 93.3544Z" fill="#FFC700" fill-opacity="0.6"/>
<path d="M56.7453 86.7635C56.6497 86.7481 56.5551 86.7142 56.4677 86.6595C56.1105 86.4388 55.9989 85.9679 56.2188 85.6085L61.7104 76.6208C61.9303 76.2614 62.3974 76.1495 62.7545 76.3703C63.1117 76.591 63.2233 77.0618 63.0034 77.4212L57.5119 86.409C57.3463 86.6803 57.0397 86.8109 56.7453 86.7635Z" fill="#FFC700" fill-opacity="0.6"/>
<path d="M85.8113 39.1788C85.7157 39.1634 85.6211 39.1295 85.5337 39.0747C85.1765 38.854 85.0648 38.3832 85.2848 38.0238L87.091 35.0678C87.3108 34.7091 87.7781 34.5959 88.1351 34.8173C88.4923 35.038 88.604 35.5089 88.384 35.8683L86.5778 38.8242C86.4123 39.095 86.1056 39.2262 85.8113 39.1788Z" fill="#FFC700" fill-opacity="0.6"/>
<path d="M78.097 51.8098C78.0014 51.7944 77.9068 51.7605 77.8194 51.7057C77.4622 51.485 77.3506 51.0141 77.5705 50.6548L83.0619 41.6677C83.2819 41.3083 83.7502 41.1966 84.1061 41.4171C84.4632 41.6379 84.5749 42.1087 84.355 42.4681L78.8641 51.4553C78.6981 51.726 78.3914 51.8572 78.097 51.8098Z" fill="#FFC700" fill-opacity="0.6"/>
</g>
<path opacity="0.12" d="M33.7312 91.3676C34.5156 96.2167 33.4934 109.305 33.2656 110.892C36.2694 110.588 69.4929 109.035 69.7714 108.83C70.8683 108.023 68.6853 91.6681 68.045 87.3336C67.8871 86.264 60.9843 80.5586 60.9843 80.5586C60.9843 80.5586 33.5917 90.5057 33.7312 91.3676Z" fill="#BF3C02"/>
<path d="M68.3284 107.345C66.6599 108.586 29.1955 110.692 29.1955 110.692L28.7578 90.1556L67.4943 87.9375C67.4943 87.9375 69.6668 106.349 68.3284 107.345Z" fill="#5F0471"/>
<g filter="url(#filter1_d_3428_37805)">
<path d="M43.1938 53.707C49.3218 51.0166 49.4593 48.9911 54.4268 36.293L78.9078 40.8397C79.8892 52.9458 81.4232 55.1477 85.4062 60.6154C81.867 57.3312 80.1602 54.609 79.0069 47.3208C78.6929 57.1478 81.3538 60.1783 76.8281 63.726C79.2746 60.8705 77.6064 58.222 77.4194 55.4042C76.9619 57.8733 77.6741 61.4272 74.437 64.1765C73.5933 64.6086 70.1465 65.2128 69.0886 65.2345C60.4454 65.4121 52.0555 61.9346 48.9438 59.5848C50.6579 57.8986 51.2925 56.1746 51.7823 55.2091C51.8455 55.2019 49.7913 58.4706 47.9721 58.804C47.7005 58.8537 46.8533 57.8009 46.5451 57.5018C46.8509 57.2653 47.6597 56.698 48.0883 55.7029C47.1126 56.4261 45.544 56.5816 45.4826 56.5439C48.0883 55.7029 51.0124 50.8193 52.6493 42.9508C50.0634 50.485 47.7989 52.5915 43.1938 53.707Z" fill="#AA3900"/>
<path d="M65.1473 56.7093L57.8047 56.0938L57.58 58.8095L64.9226 59.4251L65.1473 56.7093Z" fill="#F4387C"/>
<path d="M45.9847 49.0302C50.4985 53.0104 56.4192 57.6736 57.7042 58.5537L54.7966 61.5352L43.665 51.2377C43.3801 50.9549 45.6827 48.7638 45.9847 49.0302Z" fill="#FFD5C7"/>
<path d="M47.7681 50.2344C46.8008 51.1586 45.5045 52.7114 44.5859 53.9488C46.8031 56.0659 54.4377 63.5892 54.6711 63.6179C57.0997 63.9172 58.6163 58.6429 58.8627 58.4349C57.5042 57.6029 50.196 52.1895 47.7681 50.2344Z" fill="#F67F00"/>
<path d="M80.3936 54.2941C74.7698 56.4015 67.5899 58.6449 66.0781 59.0084L67.7445 62.8349L81.7835 57.1869C82.1494 57.0243 80.7698 54.1531 80.3936 54.2941Z" fill="#FFD5C7"/>
<path d="M78.3113 54.7852C78.8897 55.9949 79.5537 57.9098 79.9761 59.395C77.1563 60.5816 69.0968 64.2661 68.8684 64.2095C66.4926 63.6212 65.2039 58.7686 65.0469 58.4862C66.6104 58.1939 75.352 55.7453 78.3113 54.7852Z" fill="#F67F00"/>
<path d="M67.8251 82.5245C67.3896 82.8815 63.7254 84.4171 61.9028 84.458C56.0145 84.5896 48.9312 79.6207 45.1328 79.6207C46.0738 78.9781 50.6473 77.1498 54.063 75.218C56.1343 74.0467 64.862 74.5528 69.9256 74.3047C69.9539 76.5702 70.0835 77.6422 69.9592 78.939C69.816 80.4317 69.0014 81.5605 67.8251 82.5245Z" fill="#D62829"/>
<path opacity="0.2" d="M69.9822 76.4232C69.9665 76.1738 69.9348 74.426 69.9348 74.426C69.2963 74.409 55.2689 75.2379 53.7273 75.4056C53.4471 75.6423 52.2831 76.2992 52.0469 76.3979C56.6695 78.6806 64.7542 78.924 69.9822 76.4232Z" fill="#600319"/>
<path d="M52.9375 75.3447C56.2982 77.5773 63.3576 77.8371 70.4374 75.6947C69.5973 70.6207 68.6899 62.8068 68.4547 58.8154C64.5045 58.2825 58.288 57.7849 54.8814 57.0508C53.9404 62.0063 53.6004 68.4052 52.9375 75.3447Z" fill="#F67F00"/>
<path d="M64.8567 53.9287L64.3934 58.8763C64.2936 59.9402 62.2928 60.6626 60.6356 60.5054C58.9785 60.3481 58.2926 59.3709 58.3922 58.3069L58.8557 53.3594L64.8567 53.9287Z" fill="#FFC19F"/>
<path opacity="0.19" d="M65.3912 55.6839C65.6438 56.8139 64.1336 58.1182 62.0182 58.597C59.9027 59.076 57.9832 58.5481 57.7307 57.418C57.4783 56.2879 58.9884 54.9837 61.1038 54.5048C63.2192 54.026 65.1387 54.5539 65.3912 55.6839Z" fill="#820303"/>
<path d="M60.3921 63.5078C60.3921 63.7819 60.1714 64.004 59.8991 64.004C59.627 64.004 59.4062 63.7818 59.4062 63.5078C59.4062 63.2338 59.627 63.0117 59.8991 63.0117C60.1714 63.0117 60.3921 63.2338 60.3921 63.5078Z" fill="#A81852"/>
<path d="M60.3921 68.375C60.3921 68.6491 60.1714 68.8712 59.8991 68.8712C59.627 68.8712 59.4062 68.649 59.4062 68.375C59.4062 68.101 59.627 67.8789 59.8991 67.8789C60.1714 67.8789 60.3921 68.1011 60.3921 68.375Z" fill="#A81852"/>
<path d="M60.3921 73.9687C60.3921 74.2428 60.1714 74.4649 59.8991 74.4649C59.627 74.4649 59.4062 74.2428 59.4062 73.9687C59.4062 73.6948 59.627 73.4727 59.8991 73.4727C60.1714 73.4727 60.3921 73.6948 60.3921 73.9687Z" fill="#A81852"/>
<path d="M51.4383 46.3306C51.3786 48.9073 53.1455 51.0082 54.8388 51.2078C56.5322 51.4072 57.3704 49.504 57.6999 47.0942C58.0288 44.6845 56.9238 42.563 55.2297 42.3694C52.9139 42.1054 51.4946 43.909 51.4383 46.3306Z" fill="#F4B18C"/>
<path d="M79.0625 42.0085C76.909 52.6267 69.0342 56.4585 61.8925 54.4434C54.751 52.4285 51.2361 44.5501 54.3095 35.8065C56.016 30.9519 60.5268 28.684 67.9347 30.2474C73.4535 31.4124 78.7857 35.0008 79.0625 42.0085Z" fill="#AA3900"/>
<path d="M75.7862 40.5238C76.0441 42.1999 71.5772 55.1822 69.628 56.6031C67.5603 58.1105 60.557 57.8766 59.228 57.5017C57.8046 57.1001 53.5466 53.9801 52.9048 51.5012C52.1455 48.5675 54.6147 37.0709 55.4351 35.805C58.2074 31.5297 62.2006 32.4861 67.3691 33.9444C72.2044 35.3088 75.117 36.175 75.7862 40.5238Z" fill="#FFC19F"/>
<path d="M76.3453 53.9256C75.0207 56.2923 72.1977 57.2041 70.4655 56.436C68.7335 55.6677 70.9824 48.1498 74.4033 48.4254C77.2523 48.6549 77.5903 51.7014 76.3453 53.9256Z" fill="#FFC19F"/>
<path d="M74.3763 53.2451C73.948 54.2826 72.5389 54.8587 71.7384 54.3092C71.4263 54.0949 73.0059 50.5009 73.5534 50.6573C74.479 50.9217 74.8047 52.2075 74.3763 53.2451Z" fill="#E0956C"/>
<path d="M76.7479 43.9432C77.663 43.9596 77.6264 37.063 73.8304 33.9903C67.4763 29.5301 62.2747 29.5327 60.2057 30.2631C57.1953 31.3258 54.3771 33.2841 52.6574 37.8726C51.6319 40.609 51.6507 41.5966 50.0985 41.8955C51.5072 42.7216 51.6267 42.4224 52.2436 41.7719C51.8644 44.1068 51.5393 45.1967 50.4915 45.6565C52.2392 46.6274 52.8692 45.6261 53.4377 43.8331C54.3878 40.8357 55.3201 37.4977 55.7944 36.7943C56.069 36.3872 58.2472 34.1735 58.9037 34.3121C60.3347 34.6142 60.7212 40.1618 65.7713 41.3C64.0004 39.6625 63.2602 37.7743 62.6665 35.1947C63.0051 35.5369 63.3329 35.9319 63.6424 36.3906C66.9017 41.2213 70.4921 43.1066 74.113 43.6485C72.6515 47.4186 71.0045 52.2549 74.968 53.4074C74.6807 52.782 74.2546 49.8946 75.7934 48.1208C76.2033 48.5481 76.2493 46.5387 76.7479 43.9432Z" fill="#AA3900"/>
<path d="M59.7586 45.0392C59.4718 43.9943 58.692 43.2454 57.7085 43.0594C57.2369 42.9673 56.7696 43.0153 56.3396 43.1656C56.0583 42.8977 55.9772 42.5098 55.91 42.5238C55.814 42.5442 55.6807 43.1198 55.8688 43.4013C55.7973 43.4441 55.7197 43.4737 55.6521 43.5236C55.1443 43.4266 54.7685 42.9714 54.7202 43.0895C54.6753 43.1997 54.83 43.787 55.1875 43.9803C55.1556 44.0187 55.1145 44.0451 55.0846 44.0857C54.958 44.2571 54.981 44.5059 55.1358 44.6398C55.176 44.6749 55.221 44.6985 55.2687 44.7116C55.4021 44.7485 55.5513 44.6985 55.6445 44.5714C56.0848 43.9732 56.8205 43.6916 57.5654 43.8373C58.3127 43.9718 58.8538 44.5092 59.0646 45.281C59.1217 45.4888 59.3226 45.6019 59.5146 45.5365C59.7062 45.4694 59.8149 45.2474 59.7586 45.0392Z" fill="#6B1A11"/>
<path d="M64.9398 46.4828C65.7947 45.6229 67.0089 45.338 68.1373 45.7229C68.6799 45.9048 69.1436 46.2215 69.5141 46.6173C69.9508 46.5168 70.2416 46.1827 70.3044 46.2354C70.3942 46.3107 70.2282 46.9525 69.8818 47.1205C69.9339 47.2037 69.9993 47.2776 70.0437 47.3654C70.6268 47.5633 71.262 47.3335 71.2498 47.4773C71.2384 47.6115 70.7647 48.0986 70.2877 48.0819C70.3005 48.138 70.3296 48.1875 70.3394 48.2446C70.381 48.4859 70.2249 48.717 69.9917 48.7591C69.931 48.7702 69.8712 48.7674 69.8145 48.7529C69.6552 48.712 69.5255 48.5768 69.4954 48.3984C69.352 47.557 68.7312 46.8561 67.874 46.5693C67.0203 46.2698 66.1683 46.4848 65.5381 47.1209C65.3679 47.2918 65.0975 47.2869 64.9313 47.1118C64.7664 46.9354 64.7704 46.6548 64.9398 46.4828Z" fill="#6B1A11"/>
<path d="M72.0434 51.4359C71.9299 52.0294 70.9939 52.3372 69.9526 52.1232C68.9118 51.9094 68.1595 51.255 68.2729 50.6615C68.3864 50.0682 69.3226 49.7604 70.3634 49.9742C71.4047 50.188 72.1567 50.8425 72.0434 51.4359Z" fill="#D62829"/>
<path d="M56.3202 47.024C56.1497 47.5308 55.332 47.6959 54.4939 47.393C53.6561 47.0899 53.1147 46.4335 53.2852 45.9267C53.4557 45.4201 54.2735 45.255 55.1114 45.5578C55.9496 45.8608 56.4907 46.5173 56.3202 47.024Z" fill="#D62829"/>
<path d="M56.3454 39.3736C56.2505 39.3542 56.1654 39.2892 56.1164 39.1864C56.0278 39.0009 56.0914 38.7626 56.2574 38.6546C57.4692 37.8681 59.3143 38.0034 60.6473 38.9759C60.8036 39.0902 60.8437 39.3301 60.7376 39.5124C60.6315 39.6948 60.4179 39.749 60.2631 39.636C59.1475 38.8217 57.5635 38.6874 56.5795 39.3267C56.5043 39.3752 56.422 39.3894 56.3454 39.3736Z" fill="#4C0B00"/>
<path d="M72.3067 43.7118C72.2119 43.6842 72.1276 43.6212 72.0733 43.5274C71.4026 42.3743 69.7156 41.575 68.1459 41.6691C67.9196 41.6821 67.7383 41.5078 67.7252 41.2808C67.7124 41.0532 67.8804 40.8581 68.0993 40.8452C69.9704 40.7313 71.93 41.6818 72.755 43.1012C72.869 43.2968 72.8081 43.5504 72.6201 43.6682C72.5218 43.729 72.4086 43.7413 72.3067 43.7118Z" fill="#4C0B00"/>
<path d="M66.8626 51.3699C66.9712 50.0266 65.1376 49.8804 62.2865 49.0767C62.1374 49.0347 61.5562 48.8755 61.4063 48.8356C58.5442 48.0752 56.88 47.2638 56.335 48.4877C55.2851 50.845 57.3553 54.3003 60.2541 55.1045L60.3043 55.1184C63.208 55.9026 66.6534 53.9573 66.8626 51.3699Z" fill="#701608"/>
<path d="M60.2952 55.1726L60.245 55.1589C59.3049 54.8972 58.406 54.3292 57.6414 53.5178L57.5943 53.4693L57.6531 53.4352C58.6009 52.8793 59.7234 52.737 60.8134 53.0354C61.9016 53.3334 62.81 54.0316 63.3714 55.0008L63.4062 55.0605L63.3424 55.0786C62.2893 55.3924 61.2353 55.4257 60.2952 55.1726Z" fill="#DD6B5B"/>
<path d="M61.3582 50.3443C59.3619 49.7979 57.9511 48.8701 57.979 47.8867C57.979 47.8867 60.8729 48.6059 61.4243 48.7483L65.7109 50.0035C65.2653 50.8725 63.3527 50.8904 61.3582 50.3443Z" fill="white"/>
<path d="M60.8886 47.1819C60.9406 47.197 60.9969 47.1715 61.0207 47.1192C61.1885 46.7478 61.5538 46.5826 61.9512 46.6984C62.3509 46.815 62.5851 47.1603 62.5343 47.5576C62.5263 47.6213 62.5698 47.6801 62.631 47.6883C62.6925 47.6968 62.7488 47.6519 62.757 47.5881C62.822 47.0792 62.5157 46.6211 62.012 46.4743C61.5112 46.3285 61.031 46.5478 60.8173 47.0203C60.791 47.0785 60.8152 47.1478 60.8712 47.1751L60.8886 47.1819Z" fill="#C4735B"/>
<path d="M47.4674 46.7974C47.7775 48.0891 47.7531 49.4367 47.2865 50.4313C46.6586 51.77 45.1374 52.2562 43.8812 51.9446C43.194 51.7742 42.085 50.9104 40.9062 49.1432C41.612 48.4335 43.8519 46.161 45.3132 45.4375C46.2412 46.7892 46.9661 46.7467 47.4674 46.7974Z" fill="#FFC19F"/>
<path opacity="0.19" d="M45.4539 49.9931C44.1069 51.2858 42.3041 50.4373 41.6406 49.1032C41.9769 48.9291 43.2424 46.3772 44.4839 45.9131C45.828 45.8309 45.7914 47.5252 46.2204 47.3647C45.4118 47.9015 45.1008 48.8523 45.4539 49.9931Z" fill="#820303"/>
<path d="M44.5732 46.6452C45.0927 47.4977 45.1987 48.367 44.8102 48.587C44.4218 48.807 43.6857 48.2944 43.1664 47.442C42.6469 46.5895 42.5409 45.7202 42.9293 45.5002C43.3178 45.2802 44.0538 45.7928 44.5732 46.6452Z" fill="#FFC19F"/>
<path d="M45.7794 45.9494C46.1787 46.8414 46.1599 47.6901 45.7372 47.8448C45.3146 47.9996 44.6481 47.4019 44.2486 46.5097C43.8492 45.6176 43.868 44.7689 44.2907 44.6142C44.7134 44.4595 45.3799 45.0573 45.7794 45.9494Z" fill="#FFC19F"/>
<path d="M43.2288 47.2806C43.8468 48.0717 44.0462 48.9491 43.6745 49.2405C43.3027 49.5317 42.5005 49.1265 41.8826 48.3355C41.2648 47.5444 41.0654 46.6669 41.4371 46.3756C41.8088 46.0844 42.6111 46.4896 43.2288 47.2806Z" fill="#FFC19F"/>
<path d="M42.2568 48.288C42.9214 48.8294 43.2465 49.5634 42.9828 49.9274C42.7193 50.2915 41.9668 50.1477 41.3021 49.6063C40.6374 49.065 40.3123 48.3308 40.5759 47.9668C40.8396 47.6027 41.5921 47.7465 42.2568 48.288Z" fill="#FFC19F"/>
<path opacity="0.2" d="M44.0156 46.3838C44.0156 46.9318 44.8268 47.9107 45.7099 47.8913C46.5268 47.8732 46.5045 47.6353 46.3161 47.1211C46.1534 46.6771 45.855 46.0522 45.7172 45.833C44.8318 45.7886 44.0156 45.8358 44.0156 46.3838Z" fill="#961208"/>
<path d="M44.2097 46.7211C44.6415 47.6359 46.5059 48.0295 47.4409 48.0766C47.4743 47.8429 47.632 47.3661 47.4865 46.8465C47.3426 46.3323 46.7431 45.9243 45.807 45.942C45.0372 45.9564 44.8922 45.9711 44.5104 46.0153C44.1078 46.0619 44.1153 46.521 44.2097 46.7211Z" fill="#FFC19F"/>
<path d="M81.5161 51.4141C80.3887 52.1055 79.4584 53.0749 79.0886 54.1099C78.5909 55.5029 79.3238 56.9302 80.4302 57.605C81.0356 57.9742 82.4263 58.1538 84.5016 57.7452C84.5023 56.7411 84.5176 53.5399 83.994 51.9878C82.3882 52.2815 81.9059 51.735 81.5161 51.4141Z" fill="#FFC19F"/>
<path opacity="0.19" d="M80.6953 55.1061C80.738 56.9788 82.6082 57.6636 84.0151 57.1938C83.8998 56.8313 84.8 54.127 84.2496 52.9147C83.3577 51.8992 82.1923 53.1221 82.0021 52.7032C82.1957 53.6584 81.7469 54.5517 80.6953 55.1061Z" fill="#820303"/>
<path d="M83.6714 53.3717C82.7051 53.6038 82.0188 54.1424 82.1386 54.5746C82.2583 55.0067 83.1388 55.1687 84.105 54.9366C85.0714 54.7044 85.7576 54.1658 85.6379 53.7337C85.5181 53.3015 84.6377 53.1393 83.6714 53.3717Z" fill="#FFC19F"/>
<path d="M83.3077 52.0215C82.3983 52.3671 81.8148 52.9801 82.0046 53.3905C82.1945 53.8009 83.0856 53.8535 83.9951 53.5077C84.9045 53.1621 85.488 52.5491 85.2981 52.1387C85.1083 51.7283 84.2172 51.6757 83.3077 52.0215Z" fill="#FFC19F"/>
<path d="M84.1803 54.7847C83.1875 54.9035 82.4295 55.3812 82.4875 55.8517C82.5453 56.3224 83.3968 56.6076 84.3896 56.4889C85.3823 56.3701 86.1402 55.8924 86.0824 55.4219C86.0246 54.9512 85.1731 54.666 84.1803 54.7847Z" fill="#FFC19F"/>
<path d="M84.1476 56.1887C83.2973 56.0977 82.5515 56.3847 82.4818 56.8296C82.412 57.2747 83.0447 57.7091 83.8951 57.8C84.7453 57.8911 85.4911 57.6041 85.5608 57.1591C85.6305 56.7142 84.9978 56.2796 84.1476 56.1887Z" fill="#FFC19F"/>
<path opacity="0.2" d="M84.2379 53.5855C83.8526 53.9727 82.5912 54.0863 81.9809 53.4436C81.4164 52.8488 81.5997 52.6967 82.0942 52.4677C82.5212 52.2698 83.1716 52.041 83.423 51.9844C84.0799 52.5837 84.6231 53.1985 84.2379 53.5855Z" fill="#961208"/>
<path d="M83.8765 53.6852C82.9282 54.024 81.3342 52.9738 80.6406 52.3409C80.7814 52.1522 81.0052 51.7031 81.4735 51.4395C81.9365 51.1787 82.647 51.3177 83.2959 51.997C83.8296 52.5557 83.9218 52.6692 84.1603 52.9724C84.4119 53.2923 84.0838 53.6113 83.8765 53.6852Z" fill="#FFC19F"/>
<path opacity="0.11" d="M76.2031 85.0552C76.2031 85.3013 74.2391 85.501 71.8165 85.501C69.3937 85.501 67.4297 85.3013 67.4297 85.0552C67.4297 84.8089 69.3937 84.6094 71.8165 84.6094C74.2391 84.6094 76.2031 84.8089 76.2031 85.0552Z" fill="black"/>
<path opacity="0.11" d="M79.6652 84.4793C79.1918 85.2274 76.4607 86.7005 75.2686 86.9176C73.9174 87.1639 73.3281 86.8363 73.3281 86.5901C73.3281 86.3438 77.3675 84.2675 78.5543 84.0233C79.3851 83.8523 79.9591 84.0148 79.6652 84.4793Z" fill="black"/>
<path d="M74.3418 79.654C74.8696 78.1129 75.0422 77.1715 74.4788 77.2869C73.9152 77.4024 72.66 79.2069 70.2807 81.2457C68.8527 82.4693 70.3803 83.5905 71.2316 83.1078C72.2301 82.5418 73.7371 81.4192 74.3418 79.654Z" fill="#963522"/>
<path d="M69.0534 81.9634C71.5687 82.1852 75.0476 82.7382 76.1769 82.7164C75.2755 84.629 70.0092 86.05 68.2718 84.9679C66.8225 84.0653 67.4589 81.8227 69.0534 81.9634Z" fill="#C94C27"/>
<path d="M72.522 82.3288C72.5917 83.5335 73.9229 84.8418 75.583 84.8546C77.2432 84.8673 79.6618 84.6522 79.8213 83.1319C80.07 80.7607 79.0759 76.3193 76.5087 76.1933C74.4899 76.0943 72.3847 79.9565 72.522 82.3288Z" fill="#C94C27"/>
<path d="M73.3722 70.9132C72.6601 71.0721 71.4284 70.5047 70.8568 69.9415C69.4199 68.526 70.51 66.0097 72.5911 66.9585C73.8877 67.5499 74.0842 70.7542 73.3722 70.9132Z" fill="#C94C27"/>
<path d="M72.2147 69.8298C71.9743 69.9821 71.2441 69.8671 70.8816 69.2471C70.4514 68.5108 71.5057 67.7172 72.1289 68.5771C72.4511 69.0213 72.2903 69.7818 72.2147 69.8298Z" fill="#7C2923"/>
<path d="M70.8829 72.9797C70.8917 75.8826 72.5921 77.5171 74.9147 77.7699C78.6794 78.1797 81.8481 76.3362 82.0747 72.9782C82.3277 69.2287 79.6966 67.2714 76.4652 67.3499C73.2336 67.4286 70.8714 69.2204 70.8829 72.9797Z" fill="#C94C27"/>
<path d="M72.5772 75.6354C72.2831 74.5615 73.0707 73.0413 74.3356 72.9612C75.9127 72.861 77.4635 74.5993 76.966 75.809C76.3155 77.3909 72.9759 77.0904 72.5772 75.6354Z" fill="#EF8D65"/>
<path d="M73.8706 75.3621C73.8338 75.3621 73.7968 75.3354 73.7896 75.2984C73.7335 74.9439 73.7084 74.4204 73.9148 73.9415C73.931 73.9014 73.981 73.8837 74.0135 73.9014C74.0518 73.9178 74.0694 73.9623 74.0533 74.0009C73.8602 74.4471 73.8904 74.9394 73.945 75.2745C73.9509 75.3161 73.9118 75.3547 73.8706 75.3621Z" fill="#722411"/>
<path d="M74.5652 75.788C74.2763 75.788 73.9566 75.6041 73.8138 75.3477C73.7946 75.3106 73.8064 75.2646 73.8432 75.2438C73.8771 75.2245 73.9191 75.235 73.9413 75.2734C74.0562 75.4812 74.3309 75.6353 74.5652 75.6353C74.5814 75.6353 74.599 75.6352 74.6153 75.6337C74.7965 75.6159 74.9275 75.5004 74.9909 75.3016C75.0027 75.2646 75.0497 75.2453 75.0867 75.2527C75.1264 75.2661 75.1471 75.3091 75.1353 75.349C75.0512 75.6056 74.8716 75.7599 74.6299 75.7851C74.6079 75.7865 74.5872 75.788 74.5652 75.788Z" fill="#722411"/>
<path d="M73.4576 75.7537C73.2276 75.7537 73.0229 75.6128 72.964 75.4096C72.9522 75.3695 72.9757 75.328 73.0156 75.3162C73.0598 75.3013 73.0981 75.3265 73.1083 75.3681C73.1569 75.534 73.3485 75.6112 73.5017 75.5993C73.5813 75.5905 73.7668 75.5415 73.7846 75.282C73.7875 75.242 73.8221 75.2109 73.8618 75.2109C73.9045 75.2138 73.9377 75.2494 73.9349 75.291C73.9142 75.5979 73.7065 75.7298 73.5179 75.7491C73.4972 75.7521 73.4781 75.7537 73.4576 75.7537Z" fill="#722411"/>
<path d="M73.3361 73.5577C73.3286 73.8922 73.6697 74.183 73.8979 74.183C74.2073 74.183 74.9133 73.8898 74.9133 73.5553C74.9133 73.1857 73.3443 73.1829 73.3361 73.5577Z" fill="#441911"/>
<path d="M75.9375 72.4245C75.9352 72.7388 76.1866 72.9955 76.4989 72.9976C76.8111 72.9999 77.0661 72.7468 77.0683 72.4326C77.0704 72.1184 76.8191 71.8618 76.507 71.8594C76.1947 71.8572 75.9397 72.1102 75.9375 72.4245Z" fill="#441911"/>
<path d="M72.5156 72.4253C72.5135 72.7395 72.7122 72.9956 72.9596 72.9975C73.2072 72.9993 73.4096 72.7458 73.4119 72.4315C73.4142 72.1174 73.2153 71.8611 72.9678 71.8594C72.7204 71.8575 72.5179 72.111 72.5156 72.4253Z" fill="#441911"/>
<path d="M72.251 70.1672C72.267 70.3237 72.4707 70.431 72.7056 70.4066C72.9407 70.3823 73.1184 70.2355 73.1025 70.0789C73.0865 69.9224 72.8828 69.8152 72.6476 69.8393C72.4126 69.8638 72.235 70.0105 72.251 70.1672Z" fill="#661C1B"/>
<path d="M76.4323 69.9788C76.4045 70.1338 76.6014 70.2992 76.8722 70.3485C77.1429 70.3977 77.385 70.3121 77.4129 70.1571C77.4405 70.0021 77.2438 69.8367 76.973 69.7873C76.7022 69.7381 76.4602 69.8237 76.4323 69.9788Z" fill="#661C1B"/>
<path d="M78.9149 70.4646C78.4903 69.6282 78.6712 68.1438 79.0807 67.4414C80.1103 65.6762 83.2297 66.8551 82.935 69.3627C82.7513 70.925 79.3395 71.3008 78.9149 70.4646Z" fill="#C94C27"/>
<path d="M80.0046 69.5918C79.7737 69.3427 79.6404 68.5773 80.1283 68.1887C80.7076 67.7271 81.8442 68.8175 81.2084 69.4828C80.8797 69.8267 80.0775 69.6703 80.0046 69.5918Z" fill="#7C2923"/>
<path d="M70.7415 83.1634C70.5567 84.2828 69.7656 85.3636 68.7625 85.2919C67.7225 85.2175 67.2832 84.263 67.183 83.133C67.0497 81.6304 68.1316 80.7547 69.2866 80.9486C70.3763 81.1314 70.9361 81.9847 70.7415 83.1634Z" fill="#C94C27"/>
<path d="M68.5534 84.8044C68.9237 84.8044 69.2239 84.3769 69.2239 83.8495C69.2239 83.3221 68.9237 82.8945 68.5534 82.8945C68.183 82.8945 67.8828 83.3221 67.8828 83.8495C67.8828 84.3769 68.183 84.8044 68.5534 84.8044Z" fill="#EF8D65"/>
<path d="M68.9175 82.1276C68.8931 82.3713 68.7299 82.5544 68.5527 82.5364C68.3758 82.5185 68.2521 82.3062 68.2765 82.0625C68.301 81.8186 68.4643 81.6355 68.6413 81.6536C68.8184 81.6715 68.9421 81.8838 68.9175 82.1276Z" fill="#EF8D65"/>
<path d="M69.8471 82.6465C69.7659 82.8569 69.5784 82.9799 69.4282 82.9213C69.2778 82.8625 69.2216 82.6445 69.3028 82.434C69.3838 82.2236 69.5713 82.1004 69.7217 82.1592C69.8719 82.2178 69.9281 82.436 69.8471 82.6465Z" fill="#EF8D65"/>
<path d="M67.9722 82.5214C67.9929 82.7355 67.9047 82.9193 67.7752 82.932C67.6456 82.9447 67.5237 82.7815 67.503 82.5676C67.4822 82.3535 67.5705 82.1697 67.7001 82.157C67.8295 82.1442 67.9514 82.3074 67.9722 82.5214Z" fill="#EF8D65"/>
<path d="M76.8817 80.9164C76.8346 82.3813 76.0748 83.5092 74.0151 83.1547C72.9092 82.9643 72.7462 81.4471 73.1389 80.2082C73.5813 78.8124 74.1272 78.2025 75.1135 78.1954C76.4092 78.1863 76.9322 79.3401 76.8817 80.9164Z" fill="#EF8D65"/>
<path opacity="0.25" d="M76.5192 83.1451C76.2903 82.6294 75.7187 82.1651 74.8912 82.1178C73.7161 82.0503 72.3809 82.7347 72.6632 84.9316C73.0695 84.8039 75.4218 84.1998 75.5745 84.1575C77.3039 83.6763 78.1054 83.3978 78.3046 83.1383C78.0373 82.9785 77.4317 83.0236 76.5192 83.1451Z" fill="#60130B"/>
<path d="M74.0365 83.7235C75.3661 83.7679 77.2199 83.3646 78.4741 83.1024C79.0997 82.9715 79.4424 83.1017 79.7764 83.3579C79.5817 85.4412 75.7772 86.835 74.225 86.5579C72.6827 86.2824 72.7522 83.6809 74.0365 83.7235Z" fill="#C94C27"/>
<path d="M76.3665 84.5384C76.1817 85.6578 75.3906 86.7387 74.3875 86.6669C73.3475 86.5925 72.9084 85.6382 72.808 84.5081C72.6747 83.0053 73.7568 82.1298 74.9116 82.3235C76.0013 82.5065 76.5611 83.3597 76.3665 84.5384Z" fill="#C94C27"/>
<path d="M75.013 85.2284C75.013 85.7559 74.7128 86.1835 74.3424 86.1835C73.9721 86.1835 73.6719 85.7559 73.6719 85.2284C73.6719 84.7011 73.9721 84.2734 74.3424 84.2734C74.7128 84.2734 75.013 84.701 75.013 85.2284Z" fill="#EF8D65"/>
<path d="M74.7066 83.5065C74.6822 83.7504 74.519 83.9333 74.3418 83.9154C74.1648 83.8974 74.0411 83.6853 74.0656 83.4414C74.09 83.1975 74.2534 83.0146 74.4304 83.0325C74.6075 83.0504 74.7312 83.2626 74.7066 83.5065Z" fill="#EF8D65"/>
<path d="M75.6361 84.0253C75.555 84.2358 75.3674 84.3588 75.2172 84.3001C75.0668 84.2416 75.0107 84.0233 75.0919 83.8129C75.1729 83.6024 75.3604 83.4794 75.5108 83.5381C75.661 83.5966 75.7171 83.8149 75.6361 84.0253Z" fill="#EF8D65"/>
<path d="M73.7611 83.9004C73.7819 84.1145 73.6937 84.2982 73.5642 84.311C73.4347 84.3238 73.3128 84.1605 73.2921 83.9464C73.2713 83.7325 73.3595 83.5486 73.4891 83.5358C73.6185 83.5232 73.7404 83.6863 73.7611 83.9004Z" fill="#EF8D65"/>
<path opacity="0.25" d="M79.8105 81.3934C80.0657 82.8197 79.6506 84.2678 79.4033 84.2678C79.1561 84.2678 79.0752 82.5062 78.9038 81.5575C78.6905 80.3756 77.9181 78.1797 78.1655 78.1797C78.4128 78.1796 79.6407 80.4444 79.8105 81.3934Z" fill="#3A0E08"/>
<path d="M80.6945 79.0843C79.5965 77.8859 78.1071 76.9518 77.9264 77.5013C77.5692 78.5882 79.5065 80.3628 80.1622 83.4379C80.5558 85.2836 82.3631 84.46 82.3631 83.4763C82.3632 82.1869 81.9522 80.4568 80.6945 79.0843Z" fill="#C94C27"/>
</g>
<path d="M32.1193 72.3019C22.3724 73.0746 25.5974 73.637 17.043 74.7499C15.9342 74.8941 16.7155 76.0772 13.6677 75.4528C10.3798 74.7792 8.63857 76.8141 7.29566 76.7415C1.97416 76.4534 0.806959 77.3271 -0.676854 79.963C-5.76361 88.9981 28.2559 90.4703 28.2559 90.4703L67.4967 87.9396C67.5258 85.7821 65.4792 85.3428 61.6968 82.9705C59.0071 81.2838 53.0229 72.2341 47.8642 70.7065C44.194 70.5168 38.5181 71.7946 32.1193 72.3019Z" fill="#5F0471"/>
<path opacity="0.11" d="M67.1576 86.6367L20.8755 89.0126L20.0547 90.9963C20.0547 90.9963 67.238 87.9792 67.4999 87.9401C67.5191 87.166 67.1576 86.6367 67.1576 86.6367Z" fill="white"/>
<path opacity="0.12" d="M16.5502 74.9336C15.9807 75.6349 15.5884 75.8089 13.7656 75.4767C17.5454 76.3522 20.3922 77.2042 24.0553 80.2824C21.1987 76.7307 19.6529 75.682 16.5502 74.9336Z" fill="black"/>
<path opacity="0.12" d="M0.59375 78.121C5.61005 78.7855 14.4927 79.3804 18.6338 82.8244C14.5645 79.1941 10.2237 77.5146 6.98063 76.7309C4.63704 76.6224 2.23763 76.5687 0.59375 78.121Z" fill="black"/>
<path opacity="0.25" d="M43.0382 79.4283L43.847 80.4226C43.919 80.5112 44.0295 80.5582 44.1426 80.5488L45.415 80.4419C45.7 80.4179 45.8885 80.7333 45.734 80.9756L45.0443 82.057C44.983 82.1533 44.9726 82.2737 45.0165 82.3791L45.5107 83.5639C45.6213 83.8294 45.3816 84.1074 45.1049 84.0343L43.87 83.7083C43.7602 83.6793 43.6431 83.7067 43.5572 83.7812L42.5903 84.6204C42.3737 84.8084 42.037 84.6648 42.0206 84.3775L41.9469 83.0946C41.9403 82.9804 41.8784 82.8768 41.7813 82.8176L40.6897 82.1513C40.4451 82.002 40.4767 81.6353 40.7431 81.5307L41.9326 81.0638C42.0385 81.0222 42.1171 80.9309 42.1432 80.8198L42.4354 79.5687C42.5007 79.2886 42.857 79.2056 43.0382 79.4283Z" fill="white"/>
<path opacity="0.25" d="M43.2968 71.2952C43.3938 71.3544 43.4559 71.458 43.4623 71.5722L43.5359 72.8549C43.5525 73.1423 43.8891 73.286 44.1057 73.098L45.0727 72.2588C45.1587 72.1842 45.2756 72.1569 45.3855 72.1859L46.6205 72.5119C46.8971 72.585 47.1368 72.3071 47.0262 72.0415L46.5321 70.8565C46.4943 70.7657 46.5152 70.667 46.556 70.5789C45.2886 70.5616 43.8082 70.8426 42.3828 71.0464L43.2968 71.2952Z" fill="white"/>
<path opacity="0.25" d="M22.8585 83.3541L23.6673 84.3484C23.7391 84.437 23.8497 84.484 23.963 84.4746L25.2352 84.3677C25.5203 84.3437 25.7089 84.6591 25.5542 84.9014L24.8647 85.9829C24.8033 86.0791 24.7929 86.1995 24.8369 86.3049L25.331 87.4897C25.4417 87.7551 25.202 88.0332 24.9253 87.9601L23.6904 87.6341C23.5806 87.6051 23.4635 87.6325 23.3776 87.707L22.4106 88.5462C22.1941 88.7342 21.8574 88.5906 21.8408 88.3033L21.7671 87.0202C21.7606 86.9062 21.6988 86.8026 21.6017 86.7434L20.5099 86.0771C20.2654 85.9278 20.297 85.5611 20.5635 85.4565L21.753 84.9896C21.8587 84.948 21.9375 84.8567 21.9634 84.7454L22.2556 83.4946C22.321 83.2143 22.6774 83.1314 22.8585 83.3541Z" fill="white"/>
<path opacity="0.25" d="M5.42194 79.1155L6.60165 79.6066C6.70665 79.6503 6.82629 79.6392 6.92148 79.577L7.99227 78.877C8.23211 78.7203 8.5465 78.9085 8.5242 79.1954L8.42477 80.4765C8.41588 80.5905 8.46337 80.7016 8.55164 80.7735L9.54383 81.5822C9.76603 81.7634 9.68547 82.1225 9.40746 82.1898L8.16619 82.4906C8.05574 82.5173 7.96539 82.597 7.92483 82.7038L7.46714 83.9035C7.36471 84.1723 7.00052 84.206 6.85104 83.9606L6.18317 82.8654C6.12388 82.7679 6.02053 82.7061 5.90726 82.7002L4.63222 82.6329C4.34663 82.6179 4.20211 82.2797 4.38785 82.0606L5.21634 81.0831C5.29011 80.9961 5.31651 80.8781 5.2871 80.7677L4.95672 79.5263C4.88278 79.2482 5.15766 79.0054 5.42194 79.1155Z" fill="white"/>
<path opacity="0.25" d="M28.4993 73.3963L29.6287 73.9953C29.7292 74.0485 29.8493 74.0486 29.9499 73.9955L31.0804 73.3984C31.3337 73.2648 31.6294 73.4813 31.5808 73.765L31.3639 75.0313C31.3447 75.144 31.3817 75.2591 31.4628 75.3388L32.3764 76.2367C32.581 76.4377 32.4677 76.7877 32.1847 76.8289L30.9211 77.0126C30.8087 77.029 30.7114 77.0999 30.6612 77.2024L30.0952 78.3543C29.9683 78.6123 29.6026 78.612 29.4764 78.3539L28.9123 77.2009C28.8621 77.0984 28.7649 77.0272 28.6525 77.0108L27.3893 76.825C27.1062 76.7832 26.9936 76.4331 27.1986 76.2323L28.1135 75.3361C28.195 75.2564 28.2321 75.1415 28.2131 75.0288L27.9982 73.762C27.9501 73.4783 28.2461 73.2621 28.4993 73.3963Z" fill="white"/>
<path opacity="0.25" d="M56.4881 90.4169L57.6316 90.9885C57.7333 91.0393 57.8534 91.0366 57.9526 90.9811L59.0687 90.357C59.3188 90.2171 59.6195 90.4267 59.5777 90.7114L59.3909 91.9827C59.3743 92.0958 59.414 92.2098 59.4971 92.2877L60.4319 93.1632C60.6411 93.3593 60.5363 93.712 60.2541 93.7598L58.9952 93.9739C58.8833 93.993 58.7878 94.0662 58.74 94.1699L58.2014 95.3352C58.0809 95.5962 57.7152 95.6047 57.5827 95.3495L56.9915 94.2106C56.9389 94.1094 56.8401 94.0406 56.7274 94.0268L55.46 93.8713C55.1761 93.8365 55.0551 93.4892 55.2553 93.2835L56.1486 92.3656C56.2282 92.2839 56.2625 92.168 56.2408 92.0559L55.996 90.7946C55.9412 90.5122 56.232 90.289 56.4881 90.4169Z" fill="white"/>
<path d="M35.3994 92.8388C35.7284 88.3653 25.1061 81.6934 13.231 78.9871C1.01057 76.2023 -5.21594 78.9507 -5.28125 81.2232L-2.37166 102.134L34.9142 117.83L35.4603 92.8562L35.3994 92.8388Z" fill="#AF8E8E"/>
<path d="M31.7009 93.4197C32.0299 88.9461 21.4076 82.2743 9.5325 79.5679C-2.6879 76.7831 -8.255 79.9414 -8.32031 82.2141L-6.07013 102.715L31.2114 118.407L31.7619 93.437L31.7009 93.4197Z" fill="#9C7878"/>
<path d="M61.7734 88.2843C62.7454 90.5723 63.6396 106.253 63.3713 108.123C66.3751 107.818 68.2971 107.55 68.5756 107.345C69.9284 106.349 67.7325 87.9375 67.7325 87.9375L61.7734 88.2843Z" fill="#F4F4F4"/>
<path d="M61.8626 82.9687C59.1443 81.2819 56.0836 71.8794 48.4959 70.7665C47.2258 70.5802 45.4959 70.6341 43.4844 70.5703C47.5903 72.6226 52.0805 76.1899 55.811 83.1245C57.4889 86.2437 61.205 87.5112 61.655 88.0786C61.6953 88.1293 61.7354 88.2125 61.7756 88.3105L67.7249 87.9377C67.7542 85.7802 65.686 85.3409 61.8626 82.9687Z" fill="white"/>
</g>
<g filter="url(#filter2_d_3428_37805)">
<path d="M15.3065 39.4652L15.3065 43.6914L14.4911 43.6914L14.4911 41.8878L12.5744 41.8878L12.5744 43.6914L11.753 43.6914L11.753 39.4652L12.5744 39.4652L12.5744 41.1735L14.4911 41.1735L14.4911 39.4652L15.3065 39.4652ZM16.1593 42.7688C16.1593 42.5664 16.2148 42.3898 16.3259 42.239C16.441 42.0843 16.5997 41.9652 16.8021 41.8819C17.0045 41.7985 17.2367 41.7569 17.4986 41.7569C17.6295 41.7569 17.7624 41.7668 17.8974 41.7866C18.0323 41.8065 18.1494 41.8382 18.2486 41.8819L18.2486 41.7152C18.2486 41.5168 18.189 41.364 18.07 41.2569C17.9549 41.1497 17.7823 41.0962 17.5521 41.0962C17.3815 41.0962 17.2188 41.1259 17.064 41.1855C16.9093 41.245 16.7466 41.3323 16.5759 41.4474L16.32 40.9235C16.5263 40.7886 16.7367 40.6874 16.9509 40.62C17.1692 40.5525 17.3974 40.5188 17.6355 40.5188C18.0799 40.5188 18.4251 40.6299 18.6712 40.8521C18.9212 41.0743 19.0462 41.3918 19.0462 41.8045L19.0462 42.7985C19.0462 42.8819 19.0601 42.9414 19.0878 42.9771C19.1196 43.0128 19.1692 43.0347 19.2367 43.0426L19.2367 43.6914C19.1652 43.7033 19.0997 43.7132 19.0402 43.7212C18.9847 43.7291 18.9371 43.7331 18.8974 43.7331C18.7386 43.7331 18.6176 43.6974 18.5343 43.6259C18.4549 43.5545 18.4053 43.4672 18.3855 43.364L18.3676 43.2033C18.2327 43.3779 18.064 43.5128 17.8617 43.6081C17.6593 43.7033 17.4529 43.7509 17.2426 43.7509C17.0363 43.7509 16.8497 43.7093 16.6831 43.6259C16.5204 43.5386 16.3914 43.4216 16.2962 43.2747C16.2049 43.1239 16.1593 42.9553 16.1593 42.7688ZM18.0997 42.9295C18.1434 42.8819 18.1791 42.8343 18.2069 42.7866C18.2347 42.739 18.2486 42.6954 18.2486 42.6557L18.2486 42.3402C18.1533 42.3005 18.0501 42.2708 17.939 42.2509C17.8279 42.2271 17.7228 42.2152 17.6236 42.2152C17.4172 42.2152 17.2466 42.2609 17.1117 42.3521C16.9807 42.4394 16.9152 42.5565 16.9152 42.7033C16.9152 42.7827 16.9371 42.8581 16.9807 42.9295C17.0244 43.0009 17.0878 43.0585 17.1712 43.1021C17.2545 43.1458 17.3537 43.1676 17.4688 43.1676C17.5878 43.1676 17.7049 43.1458 17.82 43.1021C17.9351 43.0545 18.0283 42.997 18.0997 42.9295ZM20.818 43.6914L19.6692 40.5724L20.4966 40.5724L21.2823 42.9652L22.0739 40.5724L22.8299 40.5724L21.687 43.6914L20.818 43.6914ZM24.8908 43.7509C24.6408 43.7509 24.4146 43.7093 24.2122 43.6259C24.0098 43.5386 23.8372 43.4216 23.6943 43.2747C23.5515 43.1239 23.4404 42.9533 23.361 42.7628C23.2856 42.5684 23.2479 42.364 23.2479 42.1497C23.2479 41.8521 23.3134 41.5803 23.4443 41.3343C23.5793 41.0882 23.7697 40.8918 24.0158 40.745C24.2658 40.5942 24.5594 40.5188 24.8967 40.5188C25.238 40.5188 25.5297 40.5942 25.7717 40.745C26.0138 40.8918 26.1983 41.0882 26.3253 41.3343C26.4562 41.5763 26.5217 41.8382 26.5217 42.12C26.5217 42.1676 26.5197 42.2172 26.5158 42.2688C26.5118 42.3164 26.5078 42.3561 26.5039 42.3878L24.0931 42.3878C24.109 42.5466 24.1547 42.6855 24.2301 42.8045C24.3094 42.9235 24.4086 43.0148 24.5277 43.0783C24.6507 43.1378 24.7816 43.1676 24.9205 43.1676C25.0793 43.1676 25.2281 43.1299 25.367 43.0545C25.5098 42.9751 25.607 42.872 25.6586 42.745L26.3431 42.9355C26.2677 43.0942 26.1586 43.2351 26.0158 43.3581C25.8769 43.4811 25.7122 43.5783 25.5217 43.6497C25.3312 43.7172 25.1209 43.7509 24.8908 43.7509ZM24.0753 41.8819L25.7062 41.8819C25.6904 41.7232 25.6447 41.5862 25.5693 41.4712C25.4979 41.3521 25.4027 41.2609 25.2836 41.1974C25.1646 41.1299 25.0316 41.0962 24.8848 41.0962C24.742 41.0962 24.611 41.1299 24.492 41.1974C24.3769 41.2609 24.2816 41.3521 24.2062 41.4712C24.1348 41.5862 24.0912 41.7232 24.0753 41.8819ZM28.8185 42.7688C28.8185 42.5664 28.8741 42.3898 28.9852 42.239C29.1003 42.0843 29.259 41.9652 29.4614 41.8819C29.6638 41.7985 29.8959 41.7569 30.1578 41.7569C30.2888 41.7569 30.4217 41.7668 30.5566 41.7866C30.6916 41.8065 30.8086 41.8382 30.9078 41.8819L30.9078 41.7152C30.9078 41.5168 30.8483 41.364 30.7293 41.2569C30.6142 41.1497 30.4416 41.0962 30.2114 41.0962C30.0408 41.0962 29.8781 41.1259 29.7233 41.1855C29.5685 41.245 29.4058 41.3323 29.2352 41.4474L28.9793 40.9235C29.1856 40.7886 29.3959 40.6874 29.6102 40.62C29.8285 40.5525 30.0566 40.5188 30.2947 40.5188C30.7392 40.5188 31.0844 40.6299 31.3305 40.8521C31.5805 41.0743 31.7055 41.3918 31.7055 41.8045L31.7055 42.7985C31.7055 42.8819 31.7193 42.9414 31.7471 42.9771C31.7789 43.0128 31.8285 43.0347 31.8959 43.0426L31.8959 43.6914C31.8245 43.7033 31.759 43.7132 31.6995 43.7212C31.6439 43.7291 31.5963 43.7331 31.5566 43.7331C31.3979 43.7331 31.2769 43.6974 31.1935 43.6259C31.1142 43.5545 31.0646 43.4672 31.0447 43.364L31.0269 43.2033C30.892 43.3779 30.7233 43.5128 30.5209 43.6081C30.3185 43.7033 30.1122 43.7509 29.9019 43.7509C29.6955 43.7509 29.509 43.7093 29.3424 43.6259C29.1797 43.5386 29.0507 43.4216 28.9555 43.2747C28.8642 43.1239 28.8185 42.9553 28.8185 42.7688ZM30.759 42.9295C30.8027 42.8819 30.8384 42.8343 30.8662 42.7866C30.8939 42.739 30.9078 42.6954 30.9078 42.6557L30.9078 42.3402C30.8126 42.3005 30.7094 42.2708 30.5983 42.2509C30.4872 42.2271 30.382 42.2152 30.2828 42.2152C30.0765 42.2152 29.9058 42.2609 29.7709 42.3521C29.64 42.4394 29.5745 42.5565 29.5745 42.7033C29.5745 42.7827 29.5963 42.8581 29.64 42.9295C29.6836 43.0009 29.7471 43.0585 29.8305 43.1021C29.9138 43.1458 30.013 43.1676 30.1281 43.1676C30.2471 43.1676 30.3642 43.1458 30.4793 43.1021C30.5943 43.0545 30.6876 42.997 30.759 42.9295ZM12.8958 48.7093C12.6895 48.7093 12.499 48.6696 12.3244 48.5902C12.1538 48.5069 12.005 48.3918 11.878 48.245C11.755 48.0982 11.6597 47.9295 11.5923 47.739C11.5248 47.5485 11.4911 47.3462 11.4911 47.1319C11.4911 46.9057 11.5268 46.6954 11.5982 46.5009C11.6696 46.3065 11.7688 46.1359 11.8958 45.989C12.0268 45.8382 12.1796 45.7232 12.3542 45.6438C12.5327 45.5605 12.7292 45.5188 12.9435 45.5188C13.1855 45.5188 13.3978 45.5743 13.5804 45.6855C13.7629 45.7926 13.9137 45.9374 14.0327 46.12L14.0327 45.5724L14.7292 45.5724L14.7292 48.5426C14.7292 48.8521 14.6538 49.116 14.503 49.3343C14.3562 49.5565 14.1518 49.7251 13.8899 49.8402C13.628 49.9593 13.3304 50.0188 12.997 50.0188C12.6597 50.0188 12.374 49.9612 12.1399 49.8462C11.9058 49.7351 11.7054 49.5763 11.5387 49.37L11.9732 48.9474C12.0923 49.0942 12.2411 49.2093 12.4196 49.2926C12.6022 49.3759 12.7946 49.4176 12.997 49.4176C13.1677 49.4176 13.3224 49.3859 13.4613 49.3224C13.6042 49.2628 13.7173 49.1676 13.8006 49.0366C13.8879 48.9097 13.9315 48.745 13.9315 48.5426L13.9315 48.1497C13.8284 48.3283 13.6815 48.4672 13.4911 48.5664C13.3046 48.6616 13.1062 48.7093 12.8958 48.7093ZM13.1637 48.0724C13.251 48.0724 13.3343 48.0585 13.4137 48.0307C13.4931 48.0029 13.5665 47.9652 13.6339 47.9176C13.7014 47.87 13.7609 47.8144 13.8125 47.7509C13.8641 47.6835 13.9038 47.616 13.9315 47.5485L13.9315 46.8045C13.8839 46.6815 13.8165 46.5743 13.7292 46.4831C13.6458 46.3918 13.5506 46.3224 13.4435 46.2747C13.3403 46.2232 13.2312 46.1974 13.1161 46.1974C12.9931 46.1974 12.8819 46.2232 12.7827 46.2747C12.6835 46.3263 12.5982 46.3997 12.5268 46.495C12.4554 46.5862 12.3998 46.6894 12.3601 46.8045C12.3244 46.9156 12.3065 47.0327 12.3065 47.1557C12.3065 47.2827 12.3284 47.4017 12.372 47.5128C12.4157 47.6239 12.4752 47.7212 12.5506 47.8045C12.63 47.8878 12.7212 47.9533 12.8244 48.0009C12.9315 48.0485 13.0446 48.0724 13.1637 48.0724ZM17.6029 46.2628C17.3608 46.2628 17.1446 46.3105 16.9541 46.4057C16.7636 46.497 16.6267 46.6299 16.5434 46.8045L16.5434 48.6914L15.7458 48.6914L15.7458 45.5724L16.4779 45.5724L16.4779 46.239C16.589 46.0247 16.7299 45.8561 16.9005 45.7331C17.0712 45.6101 17.2517 45.5426 17.4422 45.5307C17.4858 45.5307 17.5196 45.5307 17.5434 45.5307C17.5672 45.5307 17.587 45.5327 17.6029 45.5366L17.6029 46.2628ZM19.751 48.7509C19.501 48.7509 19.2748 48.7093 19.0725 48.6259C18.8701 48.5386 18.6975 48.4216 18.5546 48.2747C18.4117 48.1239 18.3006 47.9533 18.2213 47.7628C18.1459 47.5684 18.1082 47.364 18.1082 47.1497C18.1082 46.8521 18.1736 46.5803 18.3046 46.3343C18.4395 46.0882 18.63 45.8918 18.876 45.745C19.126 45.5942 19.4197 45.5188 19.757 45.5188C20.0982 45.5188 20.3899 45.5942 20.632 45.745C20.874 45.8918 21.0586 46.0882 21.1855 46.3343C21.3165 46.5763 21.382 46.8382 21.382 47.12C21.382 47.1676 21.38 47.2172 21.376 47.2688C21.3721 47.3164 21.3681 47.3561 21.3641 47.3878L18.9534 47.3878C18.9693 47.5466 19.0149 47.6855 19.0903 47.8045C19.1697 47.9235 19.2689 48.0148 19.3879 48.0783C19.5109 48.1378 19.6419 48.1676 19.7808 48.1676C19.9395 48.1676 20.0883 48.1299 20.2272 48.0545C20.3701 47.9751 20.4673 47.872 20.5189 47.745L21.2034 47.9355C21.128 48.0942 21.0189 48.2351 20.876 48.3581C20.7371 48.4811 20.5725 48.5783 20.382 48.6497C20.1915 48.7172 19.9812 48.7509 19.751 48.7509ZM18.9355 46.8819L20.5665 46.8819C20.5506 46.7232 20.505 46.5862 20.4296 46.4712C20.3582 46.3521 20.2629 46.2609 20.1439 46.1974C20.0248 46.1299 19.8919 46.0962 19.7451 46.0962C19.6022 46.0962 19.4713 46.1299 19.3522 46.1974C19.2371 46.2609 19.1419 46.3521 19.0665 46.4712C18.9951 46.5862 18.9514 46.7232 18.9355 46.8819ZM21.9512 47.7688C21.9512 47.5664 22.0068 47.3898 22.1179 47.239C22.233 47.0843 22.3917 46.9652 22.5941 46.8819C22.7965 46.7985 23.0286 46.7569 23.2905 46.7569C23.4215 46.7569 23.5544 46.7668 23.6893 46.7866C23.8242 46.8065 23.9413 46.8382 24.0405 46.8819L24.0405 46.7152C24.0405 46.5168 23.981 46.364 23.8619 46.2569C23.7469 46.1497 23.5742 46.0962 23.3441 46.0962C23.1734 46.0962 23.0107 46.1259 22.856 46.1855C22.7012 46.245 22.5385 46.3323 22.3679 46.4474L22.1119 45.9235C22.3183 45.7886 22.5286 45.6874 22.7429 45.62C22.9611 45.5525 23.1893 45.5188 23.4274 45.5188C23.8719 45.5188 24.2171 45.6299 24.4631 45.8521C24.7131 46.0743 24.8381 46.3918 24.8381 46.8045L24.8381 47.7985C24.8381 47.8819 24.852 47.9414 24.8798 47.9771C24.9115 48.0128 24.9611 48.0347 25.0286 48.0426L25.0286 48.6914C24.9572 48.7033 24.8917 48.7132 24.8322 48.7212C24.7766 48.7291 24.729 48.7331 24.6893 48.7331C24.5306 48.7331 24.4096 48.6974 24.3262 48.6259C24.2469 48.5545 24.1973 48.4672 24.1774 48.364L24.1596 48.2033C24.0246 48.3779 23.856 48.5128 23.6536 48.6081C23.4512 48.7033 23.2449 48.7509 23.0346 48.7509C22.8282 48.7509 22.6417 48.7093 22.475 48.6259C22.3123 48.5386 22.1834 48.4216 22.0881 48.2747C21.9969 48.1239 21.9512 47.9553 21.9512 47.7688ZM23.8917 47.9295C23.9353 47.8819 23.9711 47.8343 23.9988 47.7866C24.0266 47.739 24.0405 47.6954 24.0405 47.6557L24.0405 47.3402C23.9453 47.3005 23.8421 47.2708 23.731 47.2509C23.6199 47.2271 23.5147 47.2152 23.4155 47.2152C23.2092 47.2152 23.0385 47.2609 22.9036 47.3521C22.7726 47.4394 22.7072 47.5565 22.7072 47.7033C22.7072 47.7827 22.729 47.8581 22.7726 47.9295C22.8163 48.0009 22.8798 48.0585 22.9631 48.1021C23.0465 48.1458 23.1457 48.1676 23.2607 48.1676C23.3798 48.1676 23.4969 48.1458 23.6119 48.1021C23.727 48.0545 23.8203 47.997 23.8917 47.9295ZM27.7211 48.5307C27.6536 48.5585 27.5723 48.5902 27.477 48.6259C27.3818 48.6616 27.2786 48.6894 27.1675 48.7093C27.0604 48.7331 26.9512 48.745 26.8401 48.745C26.6933 48.745 26.5584 48.7192 26.4354 48.6676C26.3123 48.616 26.2131 48.5347 26.1377 48.4235C26.0663 48.3085 26.0306 48.1597 26.0306 47.9771L26.0306 46.1855L25.6199 46.1855L25.6199 45.5724L26.0306 45.5724L26.0306 44.5605L26.8282 44.5605L26.8282 45.5724L27.483 45.5724L27.483 46.1855L26.8282 46.1855L26.8282 47.7093C26.8322 47.8164 26.8619 47.8938 26.9175 47.9414C26.9731 47.989 27.0425 48.0128 27.1258 48.0128C27.2092 48.0128 27.2905 47.9989 27.3699 47.9712C27.4493 47.9434 27.5127 47.9196 27.5604 47.8997L27.7211 48.5307ZM29.9712 47.1319C29.9712 46.8303 30.0307 46.5585 30.1498 46.3164C30.2688 46.0704 30.4335 45.8759 30.6438 45.7331C30.8542 45.5902 31.0942 45.5188 31.3641 45.5188C31.5942 45.5188 31.8006 45.5763 31.9831 45.6914C32.1696 45.8025 32.3145 45.9454 32.4176 46.12L32.4176 44.3462L33.2153 44.3462L33.2153 47.7985C33.2153 47.8819 33.2292 47.9414 33.2569 47.9771C33.2847 48.0128 33.3323 48.0347 33.3998 48.0426L33.3998 48.6914C33.2609 48.7192 33.1478 48.7331 33.0605 48.7331C32.9176 48.7331 32.7986 48.6974 32.7034 48.6259C32.6121 48.5545 32.5605 48.4612 32.5486 48.3462L32.5367 48.1497C32.4216 48.3442 32.2649 48.493 32.0665 48.5962C31.872 48.6993 31.6676 48.7509 31.4534 48.7509C31.2391 48.7509 31.0407 48.7093 30.8581 48.6259C30.6795 48.5426 30.5228 48.4275 30.3879 48.2807C30.2569 48.1339 30.1538 47.9632 30.0784 47.7688C30.0069 47.5704 29.9712 47.3581 29.9712 47.1319ZM32.4176 47.5485L32.4176 46.8045C32.378 46.6894 32.3145 46.5862 32.2272 46.495C32.1399 46.4037 32.0426 46.3323 31.9355 46.2807C31.8284 46.2251 31.7212 46.1974 31.6141 46.1974C31.4911 46.1974 31.3799 46.2232 31.2807 46.2747C31.1815 46.3263 31.0942 46.3958 31.0188 46.4831C30.9474 46.5704 30.8918 46.6716 30.8522 46.7866C30.8165 46.9017 30.7986 47.0228 30.7986 47.1497C30.7986 47.2767 30.8184 47.3978 30.8581 47.5128C30.9018 47.6239 30.9633 47.7212 31.0426 47.8045C31.122 47.8878 31.2133 47.9533 31.3165 48.0009C31.4236 48.0485 31.5387 48.0724 31.6617 48.0724C31.7371 48.0724 31.8125 48.0605 31.8879 48.0366C31.9672 48.0089 32.0407 47.9732 32.1081 47.9295C32.1795 47.8819 32.2411 47.8263 32.2926 47.7628C32.3482 47.6954 32.3899 47.6239 32.4176 47.5485ZM34.0815 47.7688C34.0815 47.5664 34.1371 47.3898 34.2482 47.239C34.3633 47.0843 34.522 46.9652 34.7244 46.8819C34.9268 46.7985 35.1589 46.7569 35.4208 46.7569C35.5518 46.7569 35.6847 46.7668 35.8196 46.7866C35.9545 46.8065 36.0716 46.8382 36.1708 46.8819L36.1708 46.7152C36.1708 46.5168 36.1113 46.364 35.9922 46.2569C35.8772 46.1497 35.7045 46.0962 35.4744 46.0962C35.3037 46.0962 35.141 46.1259 34.9863 46.1855C34.8315 46.245 34.6688 46.3323 34.4982 46.4474L34.2422 45.9235C34.4486 45.7886 34.6589 45.6874 34.8732 45.62C35.0914 45.5525 35.3196 45.5188 35.5577 45.5188C36.0022 45.5188 36.3474 45.6299 36.5934 45.8521C36.8434 46.0743 36.9684 46.3918 36.9684 46.8045L36.9684 47.7985C36.9684 47.8819 36.9823 47.9414 37.0101 47.9771C37.0418 48.0128 37.0914 48.0347 37.1589 48.0426L37.1589 48.6914C37.0875 48.7033 37.022 48.7132 36.9625 48.7212C36.9069 48.7291 36.8593 48.7331 36.8196 48.7331C36.6609 48.7331 36.5399 48.6974 36.4565 48.6259C36.3772 48.5545 36.3276 48.4672 36.3077 48.364L36.2899 48.2033C36.1549 48.3779 35.9863 48.5128 35.7839 48.6081C35.5815 48.7033 35.3752 48.7509 35.1649 48.7509C34.9585 48.7509 34.772 48.7093 34.6053 48.6259C34.4426 48.5386 34.3137 48.4216 34.2184 48.2747C34.1272 48.1239 34.0815 47.9553 34.0815 47.7688ZM36.022 47.9295C36.0656 47.8819 36.1014 47.8343 36.1291 47.7866C36.1569 47.739 36.1708 47.6954 36.1708 47.6557L36.1708 47.3402C36.0756 47.3005 35.9724 47.2708 35.8613 47.2509C35.7502 47.2271 35.645 47.2152 35.5458 47.2152C35.3395 47.2152 35.1688 47.2609 35.0339 47.3521C34.9029 47.4394 34.8375 47.5565 34.8375 47.7033C34.8375 47.7827 34.8593 47.8581 34.9029 47.9295C34.9466 48.0009 35.0101 48.0585 35.0934 48.1021C35.1768 48.1458 35.276 48.1676 35.391 48.1676C35.5101 48.1676 35.6272 48.1458 35.7422 48.1021C35.8573 48.0545 35.9506 47.997 36.022 47.9295ZM37.9606 49.2985C38.032 49.3144 38.0975 49.3283 38.157 49.3402C38.2205 49.3521 38.2741 49.3581 38.3178 49.3581C38.3932 49.3581 38.4547 49.3382 38.5023 49.2985C38.5539 49.2628 38.6035 49.1954 38.6511 49.0962C38.6987 49.0009 38.7483 48.866 38.7999 48.6914L37.5678 45.5724L38.3951 45.5724L39.2344 47.8759L39.9725 45.5724L40.7344 45.5724L39.4249 49.3105C39.3773 49.4493 39.3039 49.5743 39.2047 49.6855C39.1094 49.8005 38.9884 49.8898 38.8416 49.9533C38.6987 50.0208 38.538 50.0545 38.3594 50.0545C38.2959 50.0545 38.2324 50.0485 38.1689 50.0366C38.1055 50.0287 38.036 50.0128 37.9606 49.989L37.9606 49.2985ZM11.4613 52.7688C11.4613 52.5664 11.5169 52.3898 11.628 52.239C11.7431 52.0843 11.9018 51.9652 12.1042 51.8819C12.3065 51.7985 12.5387 51.7569 12.8006 51.7569C12.9315 51.7569 13.0645 51.7668 13.1994 51.7866C13.3343 51.8065 13.4514 51.8382 13.5506 51.8819L13.5506 51.7152C13.5506 51.5168 13.4911 51.364 13.372 51.2569C13.2569 51.1497 13.0843 51.0962 12.8542 51.0962C12.6835 51.0962 12.5208 51.1259 12.3661 51.1855C12.2113 51.245 12.0486 51.3323 11.878 51.4474L11.622 50.9235C11.8284 50.7886 12.0387 50.6874 12.253 50.62C12.4712 50.5525 12.6994 50.5188 12.9375 50.5188C13.3819 50.5188 13.7272 50.6299 13.9732 50.8521C14.2232 51.0743 14.3482 51.3918 14.3482 51.8045L14.3482 52.7985C14.3482 52.8819 14.3621 52.9414 14.3899 52.9771C14.4216 53.0128 14.4712 53.0347 14.5387 53.0426L14.5387 53.6914C14.4673 53.7033 14.4018 53.7132 14.3423 53.7212C14.2867 53.7291 14.2391 53.7331 14.1994 53.7331C14.0407 53.7331 13.9196 53.6974 13.8363 53.6259C13.7569 53.5545 13.7073 53.4672 13.6875 53.364L13.6696 53.2033C13.5347 53.3779 13.3661 53.5128 13.1637 53.6081C12.9613 53.7033 12.755 53.7509 12.5446 53.7509C12.3383 53.7509 12.1518 53.7093 11.9851 53.6259C11.8224 53.5386 11.6935 53.4216 11.5982 53.2747C11.5069 53.1239 11.4613 52.9553 11.4613 52.7688ZM13.4018 52.9295C13.4454 52.8819 13.4812 52.8343 13.5089 52.7866C13.5367 52.739 13.5506 52.6954 13.5506 52.6557L13.5506 52.3402C13.4554 52.3005 13.3522 52.2708 13.2411 52.2509C13.13 52.2271 13.0248 52.2152 12.9256 52.2152C12.7192 52.2152 12.5486 52.2609 12.4137 52.3521C12.2827 52.4394 12.2173 52.5565 12.2173 52.7033C12.2173 52.7827 12.2391 52.8581 12.2827 52.9295C12.3264 53.0009 12.3899 53.0585 12.4732 53.1021C12.5565 53.1458 12.6558 53.1676 12.7708 53.1676C12.8899 53.1676 13.0069 53.1458 13.122 53.1021C13.2371 53.0545 13.3304 52.997 13.4018 52.9295ZM18.29 53.6914L17.4924 53.6914L17.4924 51.9414C17.4924 51.6993 17.4448 51.5188 17.3495 51.3997C17.2582 51.2807 17.1313 51.2212 16.9686 51.2212C16.8733 51.2212 16.7721 51.2489 16.665 51.3045C16.5578 51.3601 16.4606 51.4374 16.3733 51.5366C16.29 51.6319 16.2285 51.743 16.1888 51.87L16.1888 53.6914L15.3912 53.6914L15.3912 49.3462L16.1888 49.3462L16.1888 51.1497C16.3039 50.9513 16.4606 50.7966 16.659 50.6855C16.8575 50.5743 17.0737 50.5188 17.3078 50.5188C17.5102 50.5188 17.6749 50.5545 17.8019 50.6259C17.9289 50.6934 18.0281 50.7866 18.0995 50.9057C18.1709 51.0208 18.2205 51.1517 18.2483 51.2985C18.2761 51.4414 18.29 51.5902 18.29 51.745L18.29 53.6914ZM20.7276 53.7509C20.4776 53.7509 20.2514 53.7093 20.049 53.6259C19.8466 53.5386 19.674 53.4216 19.5312 53.2747C19.3883 53.1239 19.2772 52.9533 19.1978 52.7628C19.1224 52.5684 19.0847 52.364 19.0847 52.1497C19.0847 51.8521 19.1502 51.5803 19.2812 51.3343C19.4161 51.0882 19.6066 50.8918 19.8526 50.745C20.1026 50.5942 20.3962 50.5188 20.7335 50.5188C21.0748 50.5188 21.3665 50.5942 21.6085 50.745C21.8506 50.8918 22.0351 51.0882 22.1621 51.3343C22.2931 51.5763 22.3585 51.8382 22.3585 52.12C22.3585 52.1676 22.3566 52.2172 22.3526 52.2688C22.3486 52.3164 22.3446 52.3561 22.3407 52.3878L19.93 52.3878C19.9458 52.5466 19.9915 52.6855 20.0669 52.8045C20.1462 52.9235 20.2454 53.0148 20.3645 53.0783C20.4875 53.1378 20.6185 53.1676 20.7573 53.1676C20.9161 53.1676 21.0649 53.1299 21.2038 53.0545C21.3466 52.9751 21.4439 52.872 21.4954 52.745L22.18 52.9355C22.1046 53.0942 21.9954 53.2351 21.8526 53.3581C21.7137 53.4811 21.549 53.5783 21.3585 53.6497C21.1681 53.7172 20.9577 53.7509 20.7276 53.7509ZM19.9121 51.8819L21.5431 51.8819C21.5272 51.7232 21.4816 51.5862 21.4062 51.4712C21.3347 51.3521 21.2395 51.2609 21.1204 51.1974C21.0014 51.1299 20.8685 51.0962 20.7216 51.0962C20.5788 51.0962 20.4478 51.1299 20.3288 51.1974C20.2137 51.2609 20.1185 51.3521 20.0431 51.4712C19.9716 51.5862 19.928 51.7232 19.9121 51.8819ZM22.9278 52.7688C22.9278 52.5664 22.9833 52.3898 23.0944 52.239C23.2095 52.0843 23.3683 51.9652 23.5706 51.8819C23.773 51.7985 24.0052 51.7569 24.2671 51.7569C24.398 51.7569 24.531 51.7668 24.6659 51.7866C24.8008 51.8065 24.9179 51.8382 25.0171 51.8819L25.0171 51.7152C25.0171 51.5168 24.9575 51.364 24.8385 51.2569C24.7234 51.1497 24.5508 51.0962 24.3206 51.0962C24.15 51.0962 23.9873 51.1259 23.8325 51.1855C23.6778 51.245 23.5151 51.3323 23.3444 51.4474L23.0885 50.9235C23.2948 50.7886 23.5052 50.6874 23.7194 50.62C23.9377 50.5525 24.1659 50.5188 24.404 50.5188C24.8484 50.5188 25.1937 50.6299 25.4397 50.8521C25.6897 51.0743 25.8147 51.3918 25.8147 51.8045L25.8147 52.7985C25.8147 52.8819 25.8286 52.9414 25.8564 52.9771C25.8881 53.0128 25.9377 53.0347 26.0052 53.0426L26.0052 53.6914C25.9337 53.7033 25.8683 53.7132 25.8087 53.7212C25.7532 53.7291 25.7056 53.7331 25.6659 53.7331C25.5071 53.7331 25.3861 53.6974 25.3028 53.6259C25.2234 53.5545 25.1738 53.4672 25.154 53.364L25.1361 53.2033C25.0012 53.3779 24.8325 53.5128 24.6302 53.6081C24.4278 53.7033 24.2214 53.7509 24.0111 53.7509C23.8048 53.7509 23.6183 53.7093 23.4516 53.6259C23.2889 53.5386 23.1599 53.4216 23.0647 53.2747C22.9734 53.1239 22.9278 52.9553 22.9278 52.7688ZM24.8683 52.9295C24.9119 52.8819 24.9476 52.8343 24.9754 52.7866C25.0032 52.739 25.0171 52.6954 25.0171 52.6557L25.0171 52.3402C24.9218 52.3005 24.8187 52.2708 24.7075 52.2509C24.5964 52.2271 24.4913 52.2152 24.3921 52.2152C24.1857 52.2152 24.0151 52.2609 23.8802 52.3521C23.7492 52.4394 23.6837 52.5565 23.6837 52.7033C23.6837 52.7827 23.7056 52.8581 23.7492 52.9295C23.7929 53.0009 23.8564 53.0585 23.9397 53.1021C24.023 53.1458 24.1222 53.1676 24.2373 53.1676C24.3564 53.1676 24.4734 53.1458 24.5885 53.1021C24.7036 53.0545 24.7968 52.997 24.8683 52.9295ZM26.6672 52.1319C26.6672 51.8303 26.7267 51.5585 26.8457 51.3164C26.9648 51.0704 27.1295 50.8759 27.3398 50.7331C27.5501 50.5902 27.7902 50.5188 28.06 50.5188C28.2902 50.5188 28.4965 50.5763 28.6791 50.6914C28.8656 50.8025 29.0104 50.9454 29.1136 51.12L29.1136 49.3462L29.9112 49.3462L29.9112 52.7985C29.9112 52.8819 29.9251 52.9414 29.9529 52.9771C29.9807 53.0128 30.0283 53.0347 30.0957 53.0426L30.0957 53.6914C29.9569 53.7192 29.8438 53.7331 29.7565 53.7331C29.6136 53.7331 29.4946 53.6974 29.3993 53.6259C29.3081 53.5545 29.2565 53.4612 29.2446 53.3462L29.2327 53.1497C29.1176 53.3442 28.9608 53.493 28.7624 53.5962C28.568 53.6993 28.3636 53.7509 28.1493 53.7509C27.935 53.7509 27.7366 53.7093 27.5541 53.6259C27.3755 53.5426 27.2188 53.4275 27.0838 53.2807C26.9529 53.1339 26.8497 52.9632 26.7743 52.7688C26.7029 52.5704 26.6672 52.3581 26.6672 52.1319ZM29.1136 52.5485L29.1136 51.8045C29.0739 51.6894 29.0104 51.5862 28.9231 51.495C28.8358 51.4037 28.7386 51.3323 28.6315 51.2807C28.5243 51.2251 28.4172 51.1974 28.31 51.1974C28.187 51.1974 28.0759 51.2232 27.9767 51.2747C27.8775 51.3263 27.7902 51.3958 27.7148 51.4831C27.6434 51.5704 27.5878 51.6716 27.5481 51.7866C27.5124 51.9017 27.4946 52.0228 27.4946 52.1497C27.4946 52.2767 27.5144 52.3978 27.5541 52.5128C27.5977 52.6239 27.6592 52.7212 27.7386 52.8045C27.818 52.8878 27.9092 52.9533 28.0124 53.0009C28.1196 53.0485 28.2346 53.0724 28.3577 53.0724C28.4331 53.0724 28.5084 53.0605 28.5838 53.0366C28.6632 53.0089 28.7366 52.9732 28.8041 52.9295C28.8755 52.8819 28.937 52.8263 28.9886 52.7628C29.0442 52.6954 29.0858 52.6239 29.1136 52.5485ZM31.1465 52.1021L31.1465 49.4235L31.9441 49.4235L31.9441 52.1021L31.1465 52.1021ZM31.1465 53.6914L31.1465 52.7926L31.9441 52.7926L31.9441 53.6914L31.1465 53.6914Z" fill="#B98625"/>
</g>
<rect x="3.86942" y="4.46317" width="86.3095" height="85.119" rx="11.6071" stroke="#6D1080" stroke-width="1.78571" stroke-dasharray="4.76 4.76"/>
<path d="M1.48512 13.6914C1.48512 6.95221 6.94831 1.48903 13.6875 1.48903H80.3542C87.0934 1.48903 92.5565 6.95222 92.5565 13.6914V80.3581C92.5565 87.0973 87.0934 92.5604 80.3542 92.5604H13.6875C6.9483 92.5604 1.48512 87.0973 1.48512 80.3581V13.6914Z" stroke="#A906CA" stroke-width="0.595238"/>
<g filter="url(#filter3_d_3428_37805)">
<path d="M21.9792 21.1172C21.9792 21.9553 21.7506 22.6854 21.2935 23.3077C20.849 23.9299 20.2522 24.4188 19.503 24.7743C18.7538 25.1172 17.9347 25.2886 17.0458 25.2886C16.1442 25.2886 15.3188 25.1045 14.5696 24.7362C13.8331 24.368 13.2427 23.8664 12.7982 23.2315C12.3665 22.5839 12.1506 21.8473 12.1506 21.0219C12.1506 20.514 12.2585 20.0569 12.4744 19.6505C12.6903 19.2315 12.9569 18.8759 13.2744 18.5839C13.6046 18.2791 13.9347 18.0442 14.2649 17.8791C13.9601 17.7267 13.6744 17.5235 13.4077 17.2696C13.1538 17.0156 12.9506 16.7235 12.7982 16.3934C12.6458 16.0632 12.5696 15.714 12.5696 15.3458C12.5696 14.7489 12.703 14.2156 12.9696 13.7458C13.2363 13.2759 13.5919 12.8823 14.0363 12.5648C14.4808 12.2346 14.9633 11.9934 15.4839 11.841C16.0173 11.6759 16.5442 11.5934 17.0649 11.5934C17.5728 11.5934 18.0935 11.6759 18.6268 11.841C19.1601 11.9934 19.649 12.2283 20.0935 12.5458C20.5379 12.8632 20.8935 13.2569 21.1601 13.7267C21.4395 14.1839 21.5792 14.7172 21.5792 15.3267C21.5792 15.6823 21.4966 16.0315 21.3315 16.3743C21.1792 16.7045 20.9696 17.0029 20.703 17.2696C20.449 17.5235 20.1569 17.7267 19.8268 17.8791C20.195 18.0696 20.5442 18.3172 20.8744 18.6219C21.2046 18.9267 21.4712 19.2886 21.6744 19.7077C21.8776 20.1267 21.9792 20.5966 21.9792 21.1172ZM19.3887 20.9648C19.3887 20.6346 19.3252 20.3489 19.1982 20.1077C19.0712 19.8537 18.8935 19.6442 18.6649 19.4791C18.4363 19.3013 18.1823 19.168 17.903 19.0791C17.6236 18.9902 17.3379 18.9458 17.0458 18.9458C16.6395 18.9458 16.2585 19.0283 15.903 19.1934C15.5601 19.3585 15.2808 19.5934 15.0649 19.8981C14.849 20.2029 14.7411 20.5585 14.7411 20.9648C14.7411 21.2696 14.8046 21.5489 14.9315 21.8029C15.0712 22.0442 15.249 22.2537 15.4649 22.4315C15.6935 22.6093 15.9411 22.7489 16.2077 22.8505C16.4871 22.9394 16.7728 22.9839 17.0649 22.9839C17.4712 22.9839 17.8522 22.895 18.2077 22.7172C18.5633 22.5394 18.849 22.2981 19.0649 21.9934C19.2808 21.6886 19.3887 21.3458 19.3887 20.9648ZM15.1601 15.4219C15.1601 15.7648 15.2554 16.0569 15.4458 16.2981C15.6363 16.5394 15.8776 16.7235 16.1696 16.8505C16.4744 16.9648 16.7728 17.0219 17.0649 17.0219C17.3696 17.0219 17.6617 16.9585 17.9411 16.8315C18.2331 16.7045 18.4744 16.5267 18.6649 16.2981C18.8681 16.0569 18.9696 15.7585 18.9696 15.4029C18.9696 15.0854 18.8808 14.8124 18.703 14.5839C18.5252 14.3553 18.2903 14.1775 17.9982 14.0505C17.7188 13.9235 17.4014 13.86 17.0458 13.86C16.7157 13.86 16.4046 13.9235 16.1125 14.0505C15.8204 14.1775 15.5855 14.3616 15.4077 14.6029C15.2427 14.8315 15.1601 15.1045 15.1601 15.4219ZM25.0747 17.9934L25.0747 15.2505L27.1509 15.2505L27.1509 17.9934L25.0747 17.9934ZM25.0747 25.1172L25.0747 22.3743L27.1509 22.3743L27.1509 25.1172L25.0747 25.1172ZM40.1808 19.5362C40.1808 20.6537 39.9649 21.6505 39.5332 22.5267C39.1141 23.3902 38.53 24.0696 37.7808 24.5648C37.0443 25.06 36.2062 25.3077 35.2665 25.3077C34.3268 25.3077 33.4824 25.06 32.7332 24.5648C31.9967 24.0696 31.4126 23.3902 30.9808 22.5267C30.5618 21.6505 30.3522 20.6537 30.3522 19.5362C30.3522 18.4188 30.5618 17.4283 30.9808 16.5648C31.4126 15.6886 31.9967 15.0029 32.7332 14.5077C33.4824 13.9997 34.3268 13.7458 35.2665 13.7458C36.2062 13.7458 37.0443 13.9997 37.7808 14.5077C38.53 15.0029 39.1141 15.6886 39.5332 16.5648C39.9649 17.4283 40.1808 18.4188 40.1808 19.5362ZM37.6094 19.5362C37.6094 18.8505 37.5078 18.2537 37.3046 17.7458C37.1141 17.2251 36.8411 16.8188 36.4856 16.5267C36.13 16.2346 35.7237 16.0886 35.2665 16.0886C34.7967 16.0886 34.384 16.2346 34.0284 16.5267C33.6729 16.8188 33.3935 17.2251 33.1903 17.7458C32.9999 18.2537 32.9046 18.8505 32.9046 19.5362C32.9046 20.2219 32.9999 20.8188 33.1903 21.3267C33.3935 21.8346 33.6729 22.2346 34.0284 22.5267C34.384 22.8188 34.7967 22.9648 35.2665 22.9648C35.7237 22.9648 36.1237 22.8188 36.4665 22.5267C36.8221 22.2346 37.1014 21.8346 37.3046 21.3267C37.5078 20.8061 37.6094 20.2093 37.6094 19.5362ZM42.7952 25.1172C42.7952 24.5458 42.8397 24.0315 42.9286 23.5743C43.0175 23.1172 43.1698 22.6918 43.3857 22.2981C43.6143 21.9045 43.919 21.5362 44.3 21.1934C44.6937 20.8378 45.1889 20.495 45.7857 20.1648C46.3063 19.8854 46.7635 19.6442 47.1571 19.441C47.5508 19.2251 47.881 19.0283 48.1476 18.8505C48.427 18.6727 48.6365 18.495 48.7762 18.3172C48.9159 18.1267 48.9857 17.9108 48.9857 17.6696C48.9857 17.4156 48.9159 17.187 48.7762 16.9839C48.6365 16.768 48.4397 16.5966 48.1857 16.4696C47.9317 16.3426 47.6143 16.2791 47.2333 16.2791C46.9286 16.2791 46.6429 16.3172 46.3762 16.3934C46.1222 16.4696 45.881 16.5775 45.6524 16.7172C45.4365 16.8569 45.2333 17.0156 45.0429 17.1934C44.8524 17.3585 44.681 17.5362 44.5286 17.7267L42.9095 15.86C43.0873 15.6823 43.3222 15.4918 43.6143 15.2886C43.919 15.0727 44.2746 14.8759 44.681 14.6981C45.1 14.5077 45.5571 14.3553 46.0524 14.241C46.5603 14.114 47.1 14.0505 47.6714 14.0505C48.5349 14.0505 49.2714 14.1902 49.881 14.4696C50.4905 14.7362 50.954 15.1108 51.2714 15.5934C51.6016 16.0759 51.7667 16.641 51.7667 17.2886C51.7667 17.7331 51.6841 18.1267 51.519 18.4696C51.354 18.8124 51.1444 19.1172 50.8905 19.3839C50.6365 19.6378 50.3571 19.8664 50.0524 20.0696C49.7603 20.2727 49.4746 20.4505 49.1952 20.6029C48.8016 20.8061 48.446 20.9966 48.1286 21.1743C47.8111 21.3394 47.5317 21.5108 47.2905 21.6886C47.0492 21.8537 46.8333 22.0251 46.6429 22.2029C46.4651 22.3807 46.3063 22.5839 46.1667 22.8124L51.9762 22.8124L51.9762 25.1172L42.7952 25.1172ZM11.5208 30.8255C11.5208 30.5422 11.5986 30.295 11.7542 30.0839C11.9153 29.8672 12.1375 29.7005 12.4208 29.5839C12.7042 29.4672 13.0292 29.4089 13.3958 29.4089C13.5792 29.4089 13.7653 29.4227 13.9542 29.4505C14.1431 29.4783 14.3069 29.5227 14.4458 29.5839L14.4458 29.3505C14.4458 29.0727 14.3625 28.8589 14.1958 28.7089C14.0347 28.5589 13.7931 28.4839 13.4708 28.4839C13.2319 28.4839 13.0042 28.5255 12.7875 28.6089C12.5708 28.6922 12.3431 28.8144 12.1042 28.9755L11.7458 28.2422C12.0347 28.0533 12.3292 27.9116 12.6292 27.8172C12.9347 27.7227 13.2542 27.6755 13.5875 27.6755C14.2097 27.6755 14.6931 27.8311 15.0375 28.1422C15.3875 28.4533 15.5625 28.8977 15.5625 29.4755L15.5625 30.8672C15.5625 30.9839 15.5819 31.0672 15.6208 31.1172C15.6653 31.1672 15.7347 31.1977 15.8292 31.2089L15.8292 32.1172C15.7292 32.1339 15.6375 32.1477 15.5542 32.1589C15.4764 32.17 15.4097 32.1755 15.3542 32.1755C15.1319 32.1755 14.9625 32.1255 14.8458 32.0255C14.7347 31.9255 14.6653 31.8033 14.6375 31.6589L14.6125 31.4339C14.4236 31.6783 14.1875 31.8672 13.9042 32.0005C13.6208 32.1339 13.3319 32.2005 13.0375 32.2005C12.7486 32.2005 12.4875 32.1422 12.2542 32.0255C12.0264 31.9033 11.8458 31.7394 11.7125 31.5339C11.5847 31.3227 11.5208 31.0866 11.5208 30.8255ZM14.2375 31.0505C14.2986 30.9839 14.3486 30.9172 14.3875 30.8505C14.4264 30.7839 14.4458 30.7227 14.4458 30.6672L14.4458 30.2255C14.3125 30.17 14.1681 30.1283 14.0125 30.1005C13.8569 30.0672 13.7097 30.0505 13.5708 30.0505C13.2819 30.0505 13.0431 30.1144 12.8542 30.2422C12.6708 30.3644 12.5792 30.5283 12.5792 30.7339C12.5792 30.845 12.6097 30.9505 12.6708 31.0505C12.7319 31.1505 12.8208 31.2311 12.9375 31.2922C13.0542 31.3533 13.1931 31.3839 13.3542 31.3839C13.5208 31.3839 13.6847 31.3533 13.8458 31.2922C14.0069 31.2255 14.1375 31.145 14.2375 31.0505ZM16.9977 32.1172L16.9977 30.9172L17.9143 30.9172L17.9143 32.1172L16.9977 32.1172ZM26.0944 32.1172L24.9777 32.1172L24.9777 29.6672C24.9777 29.3227 24.9166 29.07 24.7944 28.9089C24.6777 28.7422 24.5138 28.6589 24.3027 28.6589C24.0861 28.6589 23.8777 28.745 23.6777 28.9172C23.4833 29.0839 23.3444 29.3033 23.2611 29.5755L23.2611 32.1172L22.1444 32.1172L22.1444 29.6672C22.1444 29.3172 22.0833 29.0616 21.9611 28.9005C21.8444 28.7394 21.6805 28.6589 21.4694 28.6589C21.2527 28.6589 21.0444 28.7422 20.8444 28.9089C20.65 29.0755 20.5111 29.295 20.4277 29.5672L20.4277 32.1172L19.3111 32.1172L19.3111 27.7505L20.3194 27.7505L20.3194 28.5589C20.4861 28.2755 20.7083 28.0589 20.9861 27.9089C21.2638 27.7533 21.5833 27.6755 21.9444 27.6755C22.3055 27.6755 22.5861 27.7644 22.7861 27.9422C22.9916 28.12 23.1222 28.3394 23.1777 28.6005C23.3555 28.3005 23.5805 28.0727 23.8527 27.9172C24.1305 27.7561 24.4416 27.6755 24.7861 27.6755C25.0583 27.6755 25.2777 27.7255 25.4444 27.8255C25.6166 27.92 25.75 28.0505 25.8444 28.2172C25.9388 28.3783 26.0027 28.5616 26.0361 28.7672C26.075 28.9727 26.0944 29.1811 26.0944 29.3922L26.0944 32.1172ZM27.4583 32.1172L27.4583 30.9172L28.3749 30.9172L28.3749 32.1172L27.4583 32.1172Z" fill="#5F0471"/>
</g>
<defs>
<filter id="filter0_d_3428_37805" x="61.3162" y="-9.52753" width="42.8519" height="44.0824" filterUnits="userSpaceOnUse" color-interpolation-filters="sRGB">
<feFlood flood-opacity="0" result="BackgroundImageFix"/>
<feColorMatrix in="SourceAlpha" type="matrix" values="0 0 0 0 0 0 0 0 0 0 0 0 0 0 0 0 0 0 127 0" result="hardAlpha"/>
<feOffset/>
<feGaussianBlur stdDeviation="2.38095"/>
<feComposite in2="hardAlpha" operator="out"/>
<feColorMatrix type="matrix" values="0 0 0 0 0.988235 0 0 0 0 0.803922 0 0 0 0 0.0235294 0 0 0 1 0"/>
<feBlend mode="normal" in2="BackgroundImageFix" result="effect1_dropShadow_3428_37805"/>
<feBlend mode="normal" in="SourceGraphic" in2="effect1_dropShadow_3428_37805" result="shape"/>
</filter>
<filter id="filter1_d_3428_37805" x="10.7225" y="-0.00409126" width="105.125" height="116.77" filterUnits="userSpaceOnUse" color-interpolation-filters="sRGB">
<feFlood flood-opacity="0" result="BackgroundImageFix"/>
<feColorMatrix in="SourceAlpha" type="matrix" values="0 0 0 0 0 0 0 0 0 0 0 0 0 0 0 0 0 0 127 0" result="hardAlpha"/>
<feOffset/>
<feGaussianBlur stdDeviation="14.881"/>
<feComposite in2="hardAlpha" operator="out"/>
<feColorMatrix type="matrix" values="0 0 0 0 0.988235 0 0 0 0 0.74902 0 0 0 0 0.290196 0 0 0 1 0"/>
<feBlend mode="normal" in2="BackgroundImageFix" result="effect1_dropShadow_3428_37805"/>
<feBlend mode="normal" in="SourceGraphic" in2="effect1_dropShadow_3428_37805" result="shape"/>
</filter>
<filter id="filter2_d_3428_37805" x="9.07999" y="37.0839" width="34.0353" height="19.0471" filterUnits="userSpaceOnUse" color-interpolation-filters="sRGB">
<feFlood flood-opacity="0" result="BackgroundImageFix"/>
<feColorMatrix in="SourceAlpha" type="matrix" values="0 0 0 0 0 0 0 0 0 0 0 0 0 0 0 0 0 0 127 0" result="hardAlpha"/>
<feOffset/>
<feGaussianBlur stdDeviation="1.19048"/>
<feComposite in2="hardAlpha" operator="out"/>
<feColorMatrix type="matrix" values="0 0 0 0 1 0 0 0 0 0.671354 0 0 0 0 0.0409993 0 0 0 1 0"/>
<feBlend mode="normal" in2="BackgroundImageFix" result="effect1_dropShadow_3428_37805"/>
<feBlend mode="normal" in="SourceGraphic" in2="effect1_dropShadow_3428_37805" result="shape"/>
</filter>
<filter id="filter3_d_3428_37805" x="8.54725" y="8.61756" width="46.4055" height="26.5578" filterUnits="userSpaceOnUse" color-interpolation-filters="sRGB">
<feFlood flood-opacity="0" result="BackgroundImageFix"/>
<feColorMatrix in="SourceAlpha" type="matrix" values="0 0 0 0 0 0 0 0 0 0 0 0 0 0 0 0 0 0 127 0" result="hardAlpha"/>
<feOffset/>
<feGaussianBlur stdDeviation="1.4881"/>
<feComposite in2="hardAlpha" operator="out"/>
<feColorMatrix type="matrix" values="0 0 0 0 0.902092 0 0 0 0 0.613725 0 0 0 0 0.959766 0 0 0 1 0"/>
<feBlend mode="normal" in2="BackgroundImageFix" result="effect1_dropShadow_3428_37805"/>
<feBlend mode="normal" in="SourceGraphic" in2="effect1_dropShadow_3428_37805" result="shape"/>
</filter>
<clipPath id="clip0_3428_37805">
<rect width="82.1851" height="82.6953" fill="white" transform="matrix(0.987278 0.159002 -0.156995 0.987599 36.2031 16.668)"/>
</clipPath>
</defs>
</svg>
