<svg xmlns="http://www.w3.org/2000/svg" width="108" height="183" viewBox="0 0 108 183" fill="none">
  <path d="M48.5371 118.553V47.9309C48.5371 44.9722 46.1391 42.5742 43.1804 42.5742C40.2231 42.5742 37.8238 44.9722 37.8238 47.9309V118.553C28.4078 120.947 21.4219 129.495 21.4219 139.648C21.4219 151.647 31.1824 161.409 43.1804 161.409C55.1785 161.409 64.9404 151.647 64.9404 139.648C64.9404 129.495 57.953 120.947 48.5371 118.553ZM43.1804 150.696C37.09 150.696 32.1352 145.74 32.1352 139.648C32.1352 133.555 37.09 128.599 43.1804 128.599C49.2722 128.599 54.2271 133.555 54.2271 139.648C54.2271 145.74 49.2722 150.696 43.1804 150.696Z" fill="#CCCCCC"/>
  <path d="M69.7702 105.607V26.5879C69.7702 11.9269 57.8447 0 43.1851 0C28.5269 0 16.6014 11.9269 16.6014 26.5879V105.607C6.15595 113.771 0 126.291 0 139.646C0 163.464 19.3732 182.84 43.1851 182.84C66.9985 182.84 86.3717 163.464 86.3717 139.646C86.3717 126.291 80.2157 113.771 69.7702 105.607ZM43.1851 172.127C25.2794 172.127 10.7133 157.556 10.7133 139.646C10.7133 128.873 16.042 118.821 24.9684 112.757C26.4359 111.76 27.3147 110.1 27.3147 108.326V26.5879C27.3147 17.8345 34.4346 10.7133 43.1851 10.7133C51.9371 10.7133 59.057 17.8345 59.057 26.5879V108.326C59.057 110.1 59.9358 111.76 61.4033 112.757C70.3296 118.821 75.6584 128.873 75.6584 139.646C75.6584 157.556 61.0908 172.127 43.1851 172.127Z" fill="#39F3FF"/>
  <path d="M102.442 85.5234H85.841C82.8823 85.5234 80.4844 87.9214 80.4844 90.8801C80.4844 93.8388 82.8823 96.2367 85.841 96.2367H102.442C105.4 96.2367 107.799 93.8388 107.799 90.8801C107.799 87.9214 105.4 85.5234 102.442 85.5234Z" fill="#A9FFF5"/>
  <path d="M102.442 64.0938H85.841C82.8823 64.0938 80.4844 66.4917 80.4844 69.4504C80.4844 72.4091 82.8823 74.807 85.841 74.807H102.442C105.4 74.807 107.799 72.4091 107.799 69.4504C107.799 66.4917 105.4 64.0938 102.442 64.0938Z" fill="#58FFEB"/>
  <path d="M102.442 42.6602H85.841C82.8823 42.6602 80.4844 45.0581 80.4844 48.0168C80.4844 50.9755 82.8823 53.3734 85.841 53.3734H102.442C105.4 53.3734 107.799 50.9755 107.799 48.0168C107.799 45.0581 105.4 42.6602 102.442 42.6602Z" fill="#FFAED5"/>
  <path d="M85.841 31.9437H102.442C105.4 31.9437 107.799 29.5458 107.799 26.5871C107.799 23.6298 105.4 21.2305 102.442 21.2305H85.841C82.8823 21.2305 80.4844 23.6298 80.4844 26.5871C80.4844 29.5458 82.8823 31.9437 85.841 31.9437Z" fill="#FF7474"/>
</svg>