<svg xmlns="http://www.w3.org/2000/svg" width="42" height="43" viewBox="0 0 42 43" fill="none">
  <path d="M17.8938 24.1297L39.7322 2.29121M18.1591 24.812L23.6252 38.8677C24.1067 40.1059 24.3475 40.725 24.6944 40.9058C24.9952 41.0625 25.3534 41.0627 25.6544 40.9063C26.0015 40.726 26.243 40.1072 26.726 38.8695L40.4329 3.74544C40.8689 2.62818 41.0869 2.06955 40.9677 1.71259C40.8641 1.40259 40.6208 1.15931 40.3108 1.05575C39.9539 0.936504 39.3953 1.15451 38.278 1.59051L3.15395 15.2975C1.91628 15.7804 1.29745 16.0219 1.1171 16.3691C0.960766 16.67 0.960977 17.0283 1.11767 17.329C1.29842 17.6759 1.91754 17.9167 3.15577 18.3982L17.2114 23.8643C17.4628 23.9621 17.5885 24.0109 17.6943 24.0864C17.7881 24.1533 17.8701 24.2354 17.937 24.3292C18.0125 24.435 18.0614 24.5607 18.1591 24.812Z" stroke="black" stroke-width="2" stroke-linecap="round" stroke-linejoin="round"/>
</svg>