<svg xmlns="http://www.w3.org/2000/svg" width="200" height="179" viewBox="0 0 200 179" fill="none">
  <path d="M57.8139 137.571C49.0761 137.124 49.2406 124.817 57.8135 124.39C82.0979 124.474 146.15 124.413 171.207 124.43C178.06 124.43 183.923 119.76 185.465 113.074L199.692 51.3767C200.507 47.8442 199.685 44.1879 197.437 41.3461C195.189 38.5044 191.823 36.8516 188.203 36.8516C178.123 36.8516 92.5601 36.4637 48.7349 36.2888L41.7878 10.4764C40.1202 4.30788 34.4988 0 28.1173 0H5.86249C2.62483 0 0 2.62848 0 5.87064C0 9.1128 2.62483 11.7413 5.86249 11.7413H28.1173C29.2159 11.7413 30.1832 12.4829 30.4689 13.5385L57.1491 112.665C52.458 112.835 48.0885 114.746 44.775 118.113C41.2934 121.651 39.4237 126.334 39.5101 131.3C39.6828 141.232 47.8938 149.312 57.8139 149.312H66.3622C65.0916 151.983 64.3784 154.969 64.3784 158.119C64.3784 169.449 73.5833 178.667 84.8979 178.667C96.2125 178.667 105.417 169.449 105.417 158.119C105.417 154.968 104.704 151.983 103.433 149.312H140.451C139.182 151.982 138.469 154.966 138.469 158.116C138.469 169.446 147.674 178.664 158.988 178.664C170.303 178.664 179.508 169.445 179.508 158.116C179.508 154.844 178.736 151.751 177.372 149.002C179.692 148.22 181.365 146.029 181.365 143.442C181.365 140.2 178.74 137.571 175.503 137.571H57.8139ZM93.692 158.119C93.692 162.975 89.7469 166.926 84.8975 166.926C80.048 166.926 76.103 162.975 76.103 158.119C76.103 153.266 80.0441 149.317 84.89 149.313H84.9049C89.7508 149.317 93.692 153.266 93.692 158.119ZM158.988 166.923C154.139 166.923 150.194 162.972 150.194 158.116C150.194 153.308 154.062 149.39 158.846 149.313H159.131C163.915 149.39 167.784 153.308 167.784 158.116C167.783 162.972 163.838 166.923 158.988 166.923ZM188.246 48.6359C188.281 48.6797 188.276 48.7005 188.268 48.7341L182.273 74.7313H161.973L165.43 48.5001L188.156 48.5917C188.191 48.5925 188.212 48.5925 188.246 48.6359ZM127.806 112.688V86.4726H148.599L145.144 112.688H127.806ZM98.7349 112.688L95.2518 86.4726H116.081V112.688H98.7349ZM71.7467 112.688H71.7284C70.2995 112.688 69.0406 111.723 68.6689 110.348L62.2428 86.4726H83.4232L86.9063 112.688H71.7467ZM93.6916 74.7317L90.1659 48.1968L116.08 48.3013V74.7317H93.6916ZM127.806 74.7317V48.3486L153.609 48.4527L150.146 74.7317H127.806ZM78.3311 48.1486L81.863 74.7313H59.0826L51.8991 48.0418L78.3311 48.1486ZM171.207 112.688H156.97L160.425 86.4726H179.565L174.04 110.431C173.734 111.761 172.569 112.688 171.207 112.688Z" fill="#4B4B4B"/>
</svg>