<svg xmlns="http://www.w3.org/2000/svg" width="250" height="235" viewBox="0 0 250 235" fill="none">
  <path d="M122.407 125.702C123.094 125.885 123.803 125.977 124.512 125.977C125.221 125.977 125.93 125.885 126.616 125.702C142.356 121.501 155.861 113.08 165.67 101.352C175.479 89.6223 180.664 75.695 180.664 61.0756V23.8921C180.664 20.2935 177.385 17.3761 173.34 17.3761C164.084 17.3761 155.764 12.801 151.625 5.43697L150.594 3.6025C149.354 1.39443 146.817 0 144.043 0H104.98C102.206 0 99.6699 1.39443 98.4292 3.60206L97.3984 5.43611C93.2598 12.801 84.939 17.3761 75.6836 17.3761C71.6387 17.3761 68.3594 20.2935 68.3594 23.8921V61.0756C68.3594 75.695 73.5444 89.6223 83.3535 101.352C93.1626 113.08 106.667 121.501 122.407 125.702ZM83.0078 29.8013C94.0923 27.9399 103.729 21.8952 109.436 13.0321H139.587C145.294 21.8947 154.931 27.9399 166.016 29.8013V61.076C166.016 84.645 149.428 105.118 124.512 112.622C99.5952 105.118 83.0078 84.645 83.0078 61.076V29.8013Z" fill="black"/>
  <path d="M118.089 84.2581C119.963 84.2581 121.838 83.5432 123.267 82.1126L150.888 54.4915C153.749 51.6311 153.749 46.9939 150.888 44.1335C148.029 41.2732 143.391 41.2732 140.531 44.1335L118.088 66.5754L109.456 57.9441C106.596 55.0837 101.959 55.0837 99.0984 57.9441C96.238 60.8044 96.238 65.4417 99.0984 68.302L112.909 82.1126C114.34 83.5432 116.214 84.2581 118.089 84.2581Z" fill="black"/>
  <path d="M221.271 156.596C226.953 150.858 230.469 142.972 230.469 134.277C230.469 116.777 216.231 102.539 198.73 102.539C181.23 102.539 166.992 116.777 166.992 134.277C166.992 142.957 170.497 150.83 176.162 156.566C164.458 162.289 155.259 172.341 150.669 184.708C148.983 183.376 147.194 182.173 145.312 181.112C149.384 176.403 151.855 170.273 151.855 163.574C151.855 148.766 139.808 136.719 125 136.719C110.192 136.719 98.1445 148.766 98.1445 163.574C98.1445 170.273 100.616 176.403 104.688 181.112C102.806 182.172 101.017 183.376 99.3311 184.708C94.7407 172.341 85.541 162.289 73.8384 156.566C79.5029 150.83 83.0078 142.957 83.0078 134.277C83.0078 116.777 68.77 102.539 51.2695 102.539C33.769 102.539 19.5312 116.777 19.5312 134.277C19.5312 142.972 23.0474 150.858 28.7295 156.596C11.7295 164.953 0 182.45 0 202.637V227.051C0 231.096 3.2793 234.375 7.32422 234.375H242.676C246.721 234.375 250 231.096 250 227.051V202.637C250 182.45 238.271 164.953 221.271 156.596ZM181.641 134.277C181.641 124.854 189.307 117.188 198.73 117.188C208.154 117.188 215.82 124.854 215.82 134.277C215.82 143.701 208.154 151.367 198.73 151.367C189.307 151.367 181.641 143.701 181.641 134.277ZM112.793 163.574C112.793 156.843 118.269 151.367 125 151.367C131.731 151.367 137.207 156.843 137.207 163.574C137.207 170.305 131.731 175.781 125 175.781C118.269 175.781 112.793 170.305 112.793 163.574ZM34.1797 134.277C34.1797 124.854 41.8462 117.188 51.2695 117.188C60.6929 117.188 68.3594 124.854 68.3594 134.277C68.3594 143.701 60.6929 151.367 51.2695 151.367C41.8462 151.367 34.1797 143.701 34.1797 134.277ZM14.6484 202.637C14.6484 182.444 31.0767 166.016 51.2695 166.016C70.2627 166.016 85.9248 180.389 87.7168 199.07C85.0176 204.573 83.4961 210.754 83.4961 217.285V219.727H14.6484V202.637ZM151.855 219.727H98.1445V217.285C98.1445 202.477 110.192 190.43 125 190.43C139.808 190.43 151.855 202.477 151.855 217.285V219.727ZM235.352 219.727H166.504V217.285C166.504 210.754 164.982 204.573 162.283 199.07C164.075 180.389 179.737 166.016 198.73 166.016C218.923 166.016 235.352 182.444 235.352 202.637V219.727Z" fill="black"/>
</svg>