<svg xmlns="http://www.w3.org/2000/svg" width="166" height="183" viewBox="0 0 166 183" fill="none">
  <path d="M155.636 30.2997C146.489 27.1573 139.161 19.7878 136.032 10.5859C134.043 4.73467 128.565 0.804688 122.4 0.804688H42.9672C36.8034 0.804688 31.3245 4.73467 29.3352 10.5859C26.2068 19.7878 18.8789 27.1573 9.73118 30.2997C3.91053 32.3001 0 37.7943 0 43.9719V64.0664C0 90.2884 7.85718 115.537 22.7227 137.083C36.3242 156.797 55.0669 172.223 76.927 181.698C78.7565 182.491 80.7194 182.887 82.6837 182.887C84.6466 182.887 86.6096 182.491 88.4391 181.698C110.299 172.225 129.042 156.797 142.643 137.083C157.509 115.537 165.367 90.287 165.367 64.0664V43.9719C165.367 37.7943 161.457 32.3001 155.636 30.2997ZM154.699 64.0664C154.699 88.113 147.493 111.266 133.861 131.025C121.396 149.092 104.222 163.23 84.1965 171.908C83.2366 172.325 82.1322 172.326 81.1695 171.908C61.1432 163.23 43.9702 149.092 31.5051 131.025C17.8745 111.268 10.6689 88.1144 10.6689 64.0664V43.9719C10.6689 42.3494 11.6857 40.9102 13.1986 40.3906C25.4441 36.1828 35.2531 26.3252 39.4359 14.0199C39.9541 12.4974 41.3724 11.4736 42.9672 11.4736H122.4C123.994 11.4736 125.413 12.4974 125.932 14.0199C130.114 26.3252 139.923 36.1828 152.169 40.3906C153.682 40.9102 154.699 42.3494 154.699 43.9719V64.0664Z" fill="white"/>
  <path d="M65.7794 87.2689H98.2192C106.506 87.2689 113.223 93.9866 113.223 102.273C113.223 121.391 95.6411 136.61 75.8094 132.351C61.7564 129.332 51.9564 115.857 51.9564 101.092C51.9564 93.4576 58.1453 87.2689 65.7794 87.2689Z" stroke="white" stroke-width="6.45967"/>
  <path d="M102.814 70.8423V76.0421C101.537 75.7987 100.217 75.6453 98.8542 75.609V70.8423C98.8542 61.8691 91.5734 54.5882 82.6001 54.5882C73.6269 54.5882 66.346 61.8691 66.346 70.8423V75.6009H65.7905C64.6165 75.6009 63.4814 75.6996 62.3861 75.8695V70.8423C62.3861 59.6538 71.4117 50.6283 82.6001 50.6283C93.7642 50.6283 102.814 59.6674 102.814 70.8423Z" stroke="white" stroke-width="6.45967"/>
</svg>