<svg xmlns="http://www.w3.org/2000/svg" width="272" height="139" viewBox="0 0 272 139" fill="none">
  <path d="M152.242 116.729C156.344 117.584 160.438 118.541 164.611 119.287C177.177 121.535 189.817 122.23 202.502 120.49C208.1 119.721 213.431 118.471 218.409 116.645C224.033 114.581 228.148 111.502 231.324 107.826C235.414 103.101 237.633 97.9147 239.108 92.5519C241.897 82.4495 242.163 72.211 241.48 61.9216C240.686 49.9978 238.486 38.1537 235.734 26.3325C235.66 26.0071 235.512 25.6861 235.296 25.0422C234.774 25.6072 234.425 25.9008 234.2 26.2321C232.566 28.6035 231.062 31.0199 229.319 33.347C227.318 36.0231 222.663 36.7144 219.069 34.9827C216.771 33.8745 215.658 31.9476 216.318 30.1487C216.507 29.6452 216.771 29.1445 217.094 28.6696C223.156 19.682 229.236 10.6975 235.312 1.71518C235.556 1.35612 235.856 1.02282 236.23 0.542626C236.822 0.891527 237.298 1.12466 237.697 1.41198C247.927 8.80372 258.15 16.2023 268.37 23.6008C269.587 24.4849 270.722 25.3968 271.052 26.6215C271.598 28.6419 270.261 30.5707 267.654 31.4948C265.13 32.3911 261.773 32.1205 259.583 30.6721C256.993 28.9529 254.578 27.1143 252.072 25.3317C251.295 24.7768 250.5 24.2307 249.486 23.5272C249.146 24.4548 249.487 25.1815 249.65 25.8827C252.853 39.8088 255.297 53.7715 255.659 67.8158C255.924 77.9311 255.195 87.9773 251.644 97.7959C249.216 104.529 245.562 110.889 239.409 116.484C233.918 121.481 226.672 124.891 218.031 127.121C204.759 130.547 190.973 131.431 176.703 130.254C166.389 129.4 156.442 127.586 146.724 125.048C146.396 124.962 146.056 124.893 145.636 124.795C145.376 124.916 145.052 125.011 144.839 125.179C139.396 129.345 132.408 131.941 124.657 133.752C115.313 135.936 105.624 137.138 95.7342 137.757C76.3518 138.966 56.9421 138.169 37.5328 136.864C27.8814 136.216 18.2538 135.404 8.61695 134.648C7.49168 134.562 6.32078 134.458 5.25143 134.204C2.08908 133.456 0.193795 131.33 0.638689 129.16C1.08324 127 3.76899 125.369 7.04937 125.312C7.92549 125.298 8.80878 125.382 9.68209 125.447C22.1242 126.39 34.5562 127.415 47.0055 128.255C58.6809 129.04 70.3819 129.409 82.0698 129.157C95.4677 128.864 108.637 127.804 121.154 124.607C124.337 123.794 127.39 122.822 130.068 121.411C130.525 121.174 130.91 120.87 131.511 120.479C129.047 119.528 126.74 118.657 124.462 117.754C108.941 111.59 95.0321 104.132 83.5565 94.7472C78.2216 90.3848 73.7428 85.6735 71.2001 80.2798C69.5271 76.7259 68.9585 73.1477 70.3067 69.52C72.0571 64.808 79.3489 59.4272 90.1451 59.8166C99.7539 60.1632 108.511 62.3042 116.454 65.9157C134.445 74.081 146.394 85.1399 151.858 99.1356C153.983 104.588 154.258 110.071 152.236 115.509C152.169 115.677 152.12 115.851 152.096 116.026C152.103 116.123 152.149 116.237 152.242 116.729ZM138.569 112.604C138.844 111.9 139.008 111.571 139.096 111.228C139.844 108.141 139.718 105.032 138.622 101.962C134.555 90.575 125.279 81.376 111.178 74.3359C104.926 71.2149 97.9415 69.2589 90.0478 69.1261C87.5326 69.0876 85.8844 69.7805 84.631 71.0786C83.4475 72.3104 83.1516 73.7047 83.5418 75.1238C83.9103 76.452 84.3963 77.782 85.1447 79.0383C87.9333 83.7337 92.4201 87.7309 97.4031 91.4896C106.281 98.1894 116.584 103.749 127.926 108.452C131.325 109.856 134.817 111.138 138.569 112.604Z" fill="#4D9138"/>
</svg>