<svg xmlns="http://www.w3.org/2000/svg" width="30" height="30" viewBox="0 0 25 25" fill="none">
  <path d="M23.4649 10.8287C23.3672 7.98056 22.2402 5.31725 20.2614 3.29202C18.1873 1.16887 15.4308 0 12.5 0C6.58067 0 1.74403 4.82196 1.53554 10.8287C0.632235 11.2395 0 12.1648 0 13.2403V16.2031C0 17.6579 1.15644 18.8419 2.57837 18.8419C3.49842 18.8419 4.24666 18.0761 4.24666 17.1345V12.3085C4.24666 11.4244 3.58413 10.7034 2.74181 10.6178C3.05275 5.38457 7.30937 1.22395 12.5 1.22395C15.1119 1.22395 17.5678 2.26594 19.4163 4.15776C21.1137 5.89495 22.1071 8.15926 22.2566 10.6182C21.4151 10.7047 20.7537 11.4252 20.7537 12.3085V17.1341C20.7537 18.0255 21.4266 18.7509 22.2789 18.8264V20.0459C22.2789 21.4191 21.1871 22.5362 19.8452 22.5362H18.043C17.9545 22.2775 17.8158 22.0384 17.6213 21.8402C17.2804 21.4897 16.826 21.2967 16.342 21.2967H14.4844C14.2177 21.2967 13.9618 21.3547 13.7274 21.4665C13.088 21.7671 12.675 22.4273 12.675 23.1482C12.675 23.6435 12.8636 24.1086 13.2052 24.4566C13.5468 24.807 14.0013 25 14.4844 25H16.342C17.1122 25 17.7911 24.4904 18.0442 23.7601H19.8452C21.8468 23.7601 23.4748 22.0939 23.4748 20.0459V18.6085C24.3725 18.1952 25 17.2732 25 16.2022V13.2395C25 12.1648 24.3678 11.2395 23.4649 10.8287ZM3.05036 12.3085V17.1341C3.05036 17.4005 2.83868 17.6175 2.57797 17.6175C1.81578 17.6175 1.19551 16.9827 1.19551 16.2027V13.2399C1.19551 12.4594 1.81578 11.825 2.57797 11.825C2.83868 11.825 3.05036 12.042 3.05036 12.3085ZM16.942 23.2795C16.8826 23.5676 16.6299 23.7769 16.3416 23.7769H14.484C14.3206 23.7769 14.1671 23.7116 14.0499 23.5916C13.9343 23.4737 13.8705 23.3163 13.8705 23.149C13.8705 22.9046 14.0104 22.6814 14.2297 22.5782C14.3078 22.5407 14.3935 22.5215 14.484 22.5215H16.3416C16.5051 22.5215 16.6586 22.5864 16.7754 22.7063C16.891 22.8242 16.9547 22.9817 16.9547 23.149C16.9551 23.1939 16.9504 23.2387 16.942 23.2795ZM23.8041 16.2027C23.8041 16.9827 23.1838 17.6175 22.4216 17.6175C22.1613 17.6175 21.9492 17.4009 21.9492 17.1341V12.3085C21.9492 12.042 22.1609 11.825 22.4216 11.825C23.1838 11.825 23.8041 12.4598 23.8041 13.2399V16.2027Z" fill="#F67F00"/>
  <path d="M16.3733 16.4115C17.7705 16.4115 18.907 15.2479 18.907 13.8183V8.53455C18.907 7.84342 18.6431 7.19228 18.164 6.70189C17.6848 6.21149 17.049 5.94141 16.3733 5.94141H8.62943C7.23221 5.94141 6.0957 7.10457 6.0957 8.53455V13.8183C6.0957 15.2483 7.23221 16.4115 8.62943 16.4115H8.67687V17.7807C8.67687 18.3029 8.98102 18.7664 9.45141 18.9618C9.60329 19.0242 9.76115 19.0552 9.91742 19.0552C10.2431 19.0552 10.5604 18.923 10.7928 18.677L13.0184 16.4115H16.3733ZM12.3507 15.3654L9.94213 17.817C9.93137 17.8284 9.9234 17.837 9.90068 17.8268C9.87317 17.8154 9.87317 17.797 9.87317 17.7807V15.7995C9.87317 15.4617 9.60568 15.1875 9.27522 15.1875H8.62983C7.89195 15.1875 7.29201 14.5731 7.29201 13.8183V8.53455C7.29201 7.77937 7.89195 7.16536 8.62983 7.16536H16.3737C16.7301 7.16536 17.0653 7.30815 17.3189 7.56722C17.5724 7.8267 17.7115 8.17022 17.7115 8.53455V13.8183C17.7115 14.5735 17.1112 15.1875 16.3737 15.1875H12.7724C12.6142 15.1875 12.4627 15.2516 12.3507 15.3654Z" fill="#F67F00"/>
  <path d="M9.59702 10.375C9.11069 10.375 8.71484 10.7805 8.71484 11.2779C8.71484 11.7752 9.11109 12.1807 9.59702 12.1807C10.0838 12.1807 10.48 11.7752 10.48 11.2779C10.48 10.7805 10.0842 10.375 9.59702 10.375Z" fill="#F67F00"/>
  <path d="M12.4994 10.375C12.013 10.375 11.6172 10.7805 11.6172 11.2779C11.6172 11.7752 12.0134 12.1807 12.4994 12.1807C12.9865 12.1807 13.3823 11.7752 13.3823 11.2779C13.3823 10.7805 12.9865 10.375 12.4994 10.375Z" fill="#F67F00"/>
  <path d="M15.4037 10.375C14.9173 10.375 14.5215 10.7805 14.5215 11.2779C14.5215 11.7752 14.9177 12.1807 15.4037 12.1807C15.8904 12.1807 16.2866 11.7752 16.2866 11.2779C16.2866 10.7805 15.8904 10.375 15.4037 10.375Z" fill="#F67F00"/>
</svg>