<svg xmlns="http://www.w3.org/2000/svg" width="27" height="27" viewBox="0 0 27 27" fill="none">
  <path d="M13.5 1C16.6266 4.42294 18.4034 8.86504 18.5 13.5C18.4034 18.135 16.6266 22.5771 13.5 26M13.5 1C10.3734 4.42294 8.59656 8.86504 8.5 13.5C8.59656 18.135 10.3734 22.5771 13.5 26M13.5 1C6.59644 1 1 6.59644 1 13.5C1 20.4036 6.59644 26 13.5 26M13.5 1C20.4036 1 26 6.59644 26 13.5C26 20.4036 20.4036 26 13.5 26M1.62502 9.75H25.375M1.625 17.25H25.375" stroke="#F67F00" strokeLinecap="round" strokeLinejoin="round"/>
</svg>