<svg xmlns="http://www.w3.org/2000/svg" width="30" height="30" viewBox="0 0 30 30" fill="none">
  <path d="M15 30C10.9934 30 7.22649 28.4397 4.39339 25.6066C1.56029 22.7735 0 19.0066 0 15C0 10.9934 1.56029 7.22649 4.39339 4.39339C7.22649 1.56029 10.9934 0 15 0C19.0066 0 22.7735 1.56029 25.6066 4.39339C28.4397 7.22649 30 10.9934 30 15C30 19.0066 28.4397 22.7735 25.6066 25.6066C22.7735 28.4397 19.0066 30 15 30ZM15 2.34375C8.02139 2.34375 2.34375 8.02139 2.34375 15C2.34375 21.9786 8.02139 27.6562 15 27.6562C21.9786 27.6562 27.6562 21.9786 27.6562 15C27.6562 8.02139 21.9786 2.34375 15 2.34375ZM21.4453 13.827H8.55469V16.1707H21.4453V13.827ZM21.4453 9.14062H8.55469V11.4844H21.4453V9.14062ZM21.4453 18.5156H8.55469V20.8594H21.4453V18.5156Z" fill="#F67F00"/>
</svg>