<svg xmlns="http://www.w3.org/2000/svg" width="56" height="50" viewBox="0 0 56 50" fill="none">
  <path d="M9.92064 0C4.45897 0 0 4.32201 0 9.61593V32.6941C0 37.988 4.45897 42.31 9.92064 42.31H17.8571C18.1793 42.31 18.4806 42.4448 18.6904 42.6819C18.7308 42.7277 18.7735 42.7715 18.8183 42.8134L25.5573 49.1427C26.7801 50.3587 28.8619 50.2105 29.9984 49.1427L36.7374 42.8134C37.1413 42.4338 37.4599 42.31 37.6984 42.31H45.6349C51.0966 42.31 55.5556 37.988 55.5556 32.6941V9.61593C55.5556 4.32201 51.0966 0 45.6349 0H9.92064ZM11.9047 9.61593H33.73C34.8258 9.61593 35.7142 10.477 35.7142 11.5391C35.7142 12.6013 34.8258 13.4623 33.73 13.4623H11.9047C10.8089 13.4623 9.92053 12.6013 9.92053 11.5391C9.92053 10.477 10.8089 9.61593 11.9047 9.61593ZM11.9047 19.2318H43.6505C44.7464 19.2318 45.6347 20.0928 45.6347 21.155C45.6347 22.2171 44.7464 23.0782 43.6505 23.0782H11.9047C10.8089 23.0782 9.92053 22.2171 9.92053 21.155C9.92064 20.0928 10.8089 19.2318 11.9047 19.2318ZM11.9047 28.8477H33.73C34.8258 28.8477 35.7142 29.7087 35.7142 30.7709C35.7142 31.833 34.8258 32.6941 33.73 32.6941H11.9047C10.8089 32.6941 9.92053 31.833 9.92053 30.7709C9.92053 29.7087 10.8089 28.8477 11.9047 28.8477Z" fill="#F67F00"/>
</svg>