<svg xmlns="http://www.w3.org/2000/svg" width="83" height="82" viewBox="0 0 83 82" fill="none">
  <path d="M59.6413 27.9792C60.892 29.23 60.892 31.2574 59.6413 32.5075L38.1614 53.988C36.9107 55.2381 34.8839 55.2381 33.6332 53.988L23.4079 43.7621C22.1572 42.512 22.1572 40.4846 23.4079 39.2345C24.658 37.9838 26.6855 37.9838 27.9355 39.2345L35.897 47.1959L55.1131 27.9792C56.3638 26.7291 58.3912 26.7291 59.6413 27.9792ZM82.5082 40.9836C82.5082 63.6373 64.1752 81.9672 41.5246 81.9672C18.8709 81.9672 0.541016 63.6342 0.541016 40.9836C0.541016 18.3299 18.8741 0 41.5246 0C64.1783 0 82.5082 18.3331 82.5082 40.9836ZM76.1045 40.9836C76.1045 21.8695 60.6363 6.40369 41.5246 6.40369C22.4105 6.40369 6.9447 21.872 6.9447 40.9836C6.9447 60.0977 22.413 75.5635 41.5246 75.5635C60.6388 75.5635 76.1045 60.0952 76.1045 40.9836Z" fill="#F67F00"/>
</svg>