<svg width="400" height="400" viewBox="0 0 400 400" fill="none" xmlns="http://www.w3.org/2000/svg">
<rect width="400" height="400" rx="40" fill="url(#paint0_linear_3247_9494)"/>
<g filter="url(#filter0_d_3247_9494)">
<path d="M121.478 155.443L220.209 54.8834C220.842 54.2383 221.819 54.076 222.627 54.4819L222.709 54.523C222.979 54.6587 223.209 54.8625 223.376 55.1144C223.779 55.7209 223.76 56.514 223.33 57.1009L160.112 143.305C159.617 143.98 159.54 144.874 159.913 145.623L160.077 145.951C160.455 146.711 161.23 147.191 162.078 147.191H254.104L237.457 160.201H123.475C122.47 160.201 121.542 159.659 121.045 158.785C120.427 157.7 120.603 156.334 121.478 155.443Z" fill="black"/>
<path d="M166.814 140.189L210.515 79.8694C211.129 79.0212 212.242 78.7002 213.214 79.0908L213.344 79.1427C213.688 79.2812 213.983 79.5211 214.188 79.8305C214.563 80.3959 214.596 81.1221 214.272 81.7186L189.815 126.844C189.532 127.366 189.521 127.993 189.786 128.525C190.094 129.144 190.726 129.535 191.418 129.535H280L257.803 143.474H168.49C167.94 143.474 167.411 143.255 167.023 142.864C166.307 142.144 166.218 141.011 166.814 140.189Z" fill="black"/>
</g>
<path d="M35.8516 308V291.09H46.1172V292.988H37.9609V298.801H45.4492V300.676H37.9609V308H35.8516ZM48.4141 308V295.73H50.4531V297.758H50.5234C50.7344 297.062 51.0977 296.512 51.6133 296.105C52.1289 295.699 52.7422 295.496 53.4531 295.496C53.6406 295.496 53.8086 295.508 53.957 295.531C54.1133 295.547 54.2344 295.562 54.3203 295.578V297.559C54.2109 297.527 54.0547 297.5 53.8516 297.477C53.6562 297.453 53.4375 297.441 53.1953 297.441C52.6484 297.441 52.168 297.562 51.7539 297.805C51.3398 298.039 51.0195 298.379 50.793 298.824C50.5664 299.27 50.4531 299.801 50.4531 300.418V308H48.4141ZM60.625 308.234C59.4531 308.234 58.4453 307.977 57.6016 307.461C56.7578 306.938 56.1094 306.203 55.6562 305.258C55.2031 304.312 54.9766 303.199 54.9766 301.918V301.906C54.9766 300.633 55.2031 299.516 55.6562 298.555C56.1172 297.594 56.7578 296.844 57.5781 296.305C58.4062 295.766 59.3789 295.496 60.4961 295.496C61.6133 295.496 62.5742 295.754 63.3789 296.27C64.1836 296.785 64.8008 297.508 65.2305 298.438C65.668 299.359 65.8867 300.434 65.8867 301.66V302.422H56.0078V300.828H64.8672L63.8359 302.305V301.508C63.8359 300.555 63.6914 299.77 63.4023 299.152C63.1211 298.527 62.7266 298.062 62.2188 297.758C61.7188 297.453 61.1406 297.301 60.4844 297.301C59.8281 297.301 59.2383 297.461 58.7148 297.781C58.1992 298.102 57.793 298.574 57.4961 299.199C57.1992 299.824 57.0508 300.594 57.0508 301.508V302.305C57.0508 303.172 57.1953 303.914 57.4844 304.531C57.7812 305.141 58.1992 305.609 58.7383 305.938C59.2852 306.266 59.9297 306.43 60.6719 306.43C61.1953 306.43 61.6602 306.352 62.0664 306.195C62.4805 306.039 62.8242 305.828 63.0977 305.562C63.3711 305.289 63.5664 304.984 63.6836 304.648L63.7188 304.543H65.7344L65.7109 304.66C65.6016 305.145 65.4062 305.605 65.125 306.043C64.8438 306.473 64.4805 306.852 64.0352 307.18C63.5898 307.508 63.0781 307.766 62.5 307.953C61.9297 308.141 61.3047 308.234 60.625 308.234ZM73.1875 308.234C72.0156 308.234 71.0078 307.977 70.1641 307.461C69.3203 306.938 68.6719 306.203 68.2188 305.258C67.7656 304.312 67.5391 303.199 67.5391 301.918V301.906C67.5391 300.633 67.7656 299.516 68.2188 298.555C68.6797 297.594 69.3203 296.844 70.1406 296.305C70.9688 295.766 71.9414 295.496 73.0586 295.496C74.1758 295.496 75.1367 295.754 75.9414 296.27C76.7461 296.785 77.3633 297.508 77.793 298.438C78.2305 299.359 78.4492 300.434 78.4492 301.66V302.422H68.5703V300.828H77.4297L76.3984 302.305V301.508C76.3984 300.555 76.2539 299.77 75.9648 299.152C75.6836 298.527 75.2891 298.062 74.7812 297.758C74.2812 297.453 73.7031 297.301 73.0469 297.301C72.3906 297.301 71.8008 297.461 71.2773 297.781C70.7617 298.102 70.3555 298.574 70.0586 299.199C69.7617 299.824 69.6133 300.594 69.6133 301.508V302.305C69.6133 303.172 69.7578 303.914 70.0469 304.531C70.3438 305.141 70.7617 305.609 71.3008 305.938C71.8477 306.266 72.4922 306.43 73.2344 306.43C73.7578 306.43 74.2227 306.352 74.6289 306.195C75.043 306.039 75.3867 305.828 75.6602 305.562C75.9336 305.289 76.1289 304.984 76.2461 304.648L76.2812 304.543H78.2969L78.2734 304.66C78.1641 305.145 77.9688 305.605 77.6875 306.043C77.4062 306.473 77.043 306.852 76.5977 307.18C76.1523 307.508 75.6406 307.766 75.0625 307.953C74.4922 308.141 73.8672 308.234 73.1875 308.234ZM85.9609 312.125V295.73H88V297.781H88.0703C88.3281 297.312 88.6484 296.91 89.0312 296.574C89.4141 296.23 89.8516 295.965 90.3438 295.777C90.8359 295.59 91.3711 295.496 91.9492 295.496C92.9961 295.496 93.9102 295.758 94.6914 296.281C95.4727 296.805 96.0781 297.547 96.5078 298.508C96.9375 299.461 97.1523 300.578 97.1523 301.859V301.883C97.1523 303.164 96.9336 304.281 96.4961 305.234C96.0664 306.188 95.4648 306.926 94.6914 307.449C93.918 307.973 93.0156 308.234 91.9844 308.234C91.4062 308.234 90.8672 308.145 90.3672 307.965C89.8672 307.777 89.4219 307.516 89.0312 307.18C88.6484 306.836 88.3281 306.434 88.0703 305.973H88V312.125H85.9609ZM91.5391 306.43C92.2656 306.43 92.8906 306.246 93.4141 305.879C93.9453 305.504 94.3516 304.977 94.6328 304.297C94.9219 303.617 95.0664 302.812 95.0664 301.883V301.859C95.0664 300.914 94.9219 300.102 94.6328 299.422C94.3516 298.742 93.9453 298.219 93.4141 297.852C92.8906 297.484 92.2656 297.301 91.5391 297.301C90.8359 297.301 90.2148 297.492 89.6758 297.875C89.1445 298.25 88.7266 298.777 88.4219 299.457C88.125 300.137 87.9766 300.938 87.9766 301.859V301.883C87.9766 302.797 88.1289 303.594 88.4336 304.273C88.7383 304.953 89.1562 305.484 89.6875 305.867C90.2188 306.242 90.8359 306.43 91.5391 306.43ZM99.4141 308V295.73H101.453V297.758H101.523C101.734 297.062 102.098 296.512 102.613 296.105C103.129 295.699 103.742 295.496 104.453 295.496C104.641 295.496 104.809 295.508 104.957 295.531C105.113 295.547 105.234 295.562 105.32 295.578V297.559C105.211 297.527 105.055 297.5 104.852 297.477C104.656 297.453 104.438 297.441 104.195 297.441C103.648 297.441 103.168 297.562 102.754 297.805C102.34 298.039 102.02 298.379 101.793 298.824C101.566 299.27 101.453 299.801 101.453 300.418V308H99.4141ZM111.66 308.234C110.52 308.234 109.523 307.977 108.672 307.461C107.82 306.938 107.156 306.199 106.68 305.246C106.211 304.293 105.977 303.168 105.977 301.871V301.848C105.977 300.535 106.211 299.406 106.68 298.461C107.156 297.516 107.82 296.785 108.672 296.27C109.523 295.754 110.516 295.496 111.648 295.496C112.789 295.496 113.785 295.754 114.637 296.27C115.488 296.785 116.148 297.516 116.617 298.461C117.094 299.406 117.332 300.535 117.332 301.848V301.871C117.332 303.176 117.094 304.305 116.617 305.258C116.148 306.203 115.488 306.938 114.637 307.461C113.793 307.977 112.801 308.234 111.66 308.234ZM111.672 306.43C112.406 306.43 113.039 306.25 113.57 305.891C114.102 305.531 114.512 305.012 114.801 304.332C115.098 303.652 115.246 302.832 115.246 301.871V301.848C115.246 300.887 115.098 300.066 114.801 299.387C114.512 298.707 114.098 298.191 113.559 297.84C113.02 297.48 112.383 297.301 111.648 297.301C110.93 297.301 110.301 297.48 109.762 297.84C109.223 298.199 108.805 298.719 108.508 299.398C108.211 300.07 108.062 300.887 108.062 301.848V301.871C108.062 302.832 108.211 303.652 108.508 304.332C108.805 305.012 109.223 305.531 109.762 305.891C110.301 306.25 110.938 306.43 111.672 306.43ZM122.582 308L118.059 295.73H120.203L123.59 305.82H123.66L127.047 295.73H129.18L124.668 308H122.582ZM131.102 308V295.73H133.141V308H131.102ZM132.121 293.598C131.762 293.598 131.453 293.473 131.195 293.223C130.945 292.965 130.82 292.656 130.82 292.297C130.82 291.938 130.945 291.633 131.195 291.383C131.453 291.125 131.762 290.996 132.121 290.996C132.488 290.996 132.797 291.125 133.047 291.383C133.297 291.633 133.422 291.938 133.422 292.297C133.422 292.656 133.297 292.965 133.047 293.223C132.797 293.473 132.488 293.598 132.121 293.598ZM140.711 308.234C139.672 308.234 138.762 307.973 137.98 307.449C137.199 306.926 136.59 306.188 136.152 305.234C135.723 304.273 135.508 303.152 135.508 301.871V301.859C135.508 300.57 135.727 299.449 136.164 298.496C136.602 297.543 137.207 296.805 137.98 296.281C138.754 295.758 139.656 295.496 140.688 295.496C141.266 295.496 141.801 295.59 142.293 295.777C142.793 295.957 143.238 296.219 143.629 296.562C144.027 296.898 144.348 297.297 144.59 297.758H144.66V290.961H146.699V308H144.66V305.949H144.59C144.34 306.426 144.023 306.832 143.641 307.168C143.258 307.504 142.82 307.766 142.328 307.953C141.836 308.141 141.297 308.234 140.711 308.234ZM141.121 306.43C141.824 306.43 142.441 306.242 142.973 305.867C143.512 305.484 143.93 304.953 144.227 304.273C144.531 303.586 144.684 302.785 144.684 301.871V301.859C144.684 300.938 144.531 300.137 144.227 299.457C143.922 298.777 143.504 298.25 142.973 297.875C142.441 297.492 141.824 297.301 141.121 297.301C140.395 297.301 139.766 297.488 139.234 297.863C138.711 298.23 138.305 298.754 138.016 299.434C137.734 300.105 137.594 300.914 137.594 301.859V301.871C137.594 302.809 137.734 303.621 138.016 304.309C138.305 304.988 138.711 305.512 139.234 305.879C139.766 306.246 140.395 306.43 141.121 306.43ZM154.727 308.234C153.555 308.234 152.547 307.977 151.703 307.461C150.859 306.938 150.211 306.203 149.758 305.258C149.305 304.312 149.078 303.199 149.078 301.918V301.906C149.078 300.633 149.305 299.516 149.758 298.555C150.219 297.594 150.859 296.844 151.68 296.305C152.508 295.766 153.48 295.496 154.598 295.496C155.715 295.496 156.676 295.754 157.48 296.27C158.285 296.785 158.902 297.508 159.332 298.438C159.77 299.359 159.988 300.434 159.988 301.66V302.422H150.109V300.828H158.969L157.938 302.305V301.508C157.938 300.555 157.793 299.77 157.504 299.152C157.223 298.527 156.828 298.062 156.32 297.758C155.82 297.453 155.242 297.301 154.586 297.301C153.93 297.301 153.34 297.461 152.816 297.781C152.301 298.102 151.895 298.574 151.598 299.199C151.301 299.824 151.152 300.594 151.152 301.508V302.305C151.152 303.172 151.297 303.914 151.586 304.531C151.883 305.141 152.301 305.609 152.84 305.938C153.387 306.266 154.031 306.43 154.773 306.43C155.297 306.43 155.762 306.352 156.168 306.195C156.582 306.039 156.926 305.828 157.199 305.562C157.473 305.289 157.668 304.984 157.785 304.648L157.82 304.543H159.836L159.812 304.66C159.703 305.145 159.508 305.605 159.227 306.043C158.945 306.473 158.582 306.852 158.137 307.18C157.691 307.508 157.18 307.766 156.602 307.953C156.031 308.141 155.406 308.234 154.727 308.234ZM168.191 308V297.418H166.422V295.73H168.191V294.254C168.191 293.457 168.316 292.801 168.566 292.285C168.816 291.762 169.191 291.375 169.691 291.125C170.199 290.867 170.832 290.738 171.59 290.738C171.816 290.738 172.043 290.75 172.27 290.773C172.496 290.789 172.691 290.809 172.855 290.832V292.484C172.73 292.461 172.59 292.445 172.434 292.438C172.277 292.43 172.121 292.426 171.965 292.426C171.371 292.426 170.93 292.578 170.641 292.883C170.352 293.188 170.207 293.648 170.207 294.266V295.73H172.785V297.418H170.23V308H168.191ZM177.953 308.234C177.156 308.234 176.449 308.082 175.832 307.777C175.215 307.473 174.734 307.043 174.391 306.488C174.047 305.926 173.875 305.277 173.875 304.543V304.52C173.875 303.809 174.047 303.199 174.391 302.691C174.742 302.176 175.25 301.77 175.914 301.473C176.586 301.176 177.391 301 178.328 300.945L182.863 300.676V302.27L178.562 302.539C177.727 302.586 177.082 302.781 176.629 303.125C176.184 303.469 175.961 303.93 175.961 304.508V304.531C175.961 305.125 176.184 305.598 176.629 305.949C177.082 306.293 177.676 306.465 178.41 306.465C179.059 306.465 179.641 306.328 180.156 306.055C180.672 305.781 181.082 305.41 181.387 304.941C181.691 304.473 181.844 303.945 181.844 303.359V299.691C181.844 298.949 181.609 298.367 181.141 297.945C180.672 297.516 180.004 297.301 179.137 297.301C178.363 297.301 177.734 297.465 177.25 297.793C176.773 298.121 176.473 298.555 176.348 299.094L176.324 299.188H174.344L174.355 299.07C174.426 298.398 174.66 297.793 175.059 297.254C175.465 296.715 176.016 296.289 176.711 295.977C177.406 295.656 178.227 295.496 179.172 295.496C180.148 295.496 180.984 295.664 181.68 296C182.383 296.328 182.926 296.793 183.309 297.395C183.691 297.996 183.883 298.711 183.883 299.539V308H181.844V306.043H181.773C181.531 306.488 181.215 306.875 180.824 307.203C180.434 307.531 179.996 307.785 179.512 307.965C179.027 308.145 178.508 308.234 177.953 308.234ZM191.77 308.234C190.613 308.234 189.609 307.973 188.758 307.449C187.906 306.926 187.246 306.188 186.777 305.234C186.316 304.273 186.086 303.145 186.086 301.848V301.836C186.086 300.547 186.32 299.43 186.789 298.484C187.266 297.531 187.926 296.797 188.77 296.281C189.621 295.758 190.613 295.496 191.746 295.496C192.762 295.496 193.633 295.691 194.359 296.082C195.094 296.473 195.672 296.98 196.094 297.605C196.516 298.223 196.773 298.883 196.867 299.586L196.879 299.68H194.875L194.863 299.598C194.707 298.98 194.371 298.445 193.855 297.992C193.348 297.531 192.645 297.301 191.746 297.301C191.035 297.301 190.41 297.488 189.871 297.863C189.34 298.238 188.922 298.766 188.617 299.445C188.32 300.125 188.172 300.93 188.172 301.859V301.871C188.172 302.816 188.324 303.629 188.629 304.309C188.934 304.988 189.352 305.512 189.883 305.879C190.422 306.246 191.051 306.43 191.77 306.43C192.605 306.43 193.285 306.223 193.809 305.809C194.332 305.395 194.684 304.844 194.863 304.156L194.887 304.062H196.891L196.879 304.156C196.762 304.93 196.477 305.625 196.023 306.242C195.57 306.852 194.98 307.336 194.254 307.695C193.535 308.055 192.707 308.234 191.77 308.234ZM204.016 308.234C202.844 308.234 201.836 307.977 200.992 307.461C200.148 306.938 199.5 306.203 199.047 305.258C198.594 304.312 198.367 303.199 198.367 301.918V301.906C198.367 300.633 198.594 299.516 199.047 298.555C199.508 297.594 200.148 296.844 200.969 296.305C201.797 295.766 202.77 295.496 203.887 295.496C205.004 295.496 205.965 295.754 206.77 296.27C207.574 296.785 208.191 297.508 208.621 298.438C209.059 299.359 209.277 300.434 209.277 301.66V302.422H199.398V300.828H208.258L207.227 302.305V301.508C207.227 300.555 207.082 299.77 206.793 299.152C206.512 298.527 206.117 298.062 205.609 297.758C205.109 297.453 204.531 297.301 203.875 297.301C203.219 297.301 202.629 297.461 202.105 297.781C201.59 298.102 201.184 298.574 200.887 299.199C200.59 299.824 200.441 300.594 200.441 301.508V302.305C200.441 303.172 200.586 303.914 200.875 304.531C201.172 305.141 201.59 305.609 202.129 305.938C202.676 306.266 203.32 306.43 204.062 306.43C204.586 306.43 205.051 306.352 205.457 306.195C205.871 306.039 206.215 305.828 206.488 305.562C206.762 305.289 206.957 304.984 207.074 304.648L207.109 304.543H209.125L209.102 304.66C208.992 305.145 208.797 305.605 208.516 306.043C208.234 306.473 207.871 306.852 207.426 307.18C206.98 307.508 206.469 307.766 205.891 307.953C205.32 308.141 204.695 308.234 204.016 308.234ZM220.844 308.211C219.695 308.211 218.84 307.945 218.277 307.414C217.723 306.883 217.445 306.031 217.445 304.859V297.418H215.617V295.73H217.445V292.438H219.555V295.73H221.957V297.418H219.555V304.754C219.555 305.426 219.695 305.887 219.977 306.137C220.258 306.379 220.68 306.5 221.242 306.5C221.375 306.5 221.5 306.496 221.617 306.488C221.734 306.473 221.848 306.461 221.957 306.453V308.117C221.816 308.141 221.645 308.16 221.441 308.176C221.246 308.199 221.047 308.211 220.844 308.211ZM229.035 308.234C227.895 308.234 226.898 307.977 226.047 307.461C225.195 306.938 224.531 306.199 224.055 305.246C223.586 304.293 223.352 303.168 223.352 301.871V301.848C223.352 300.535 223.586 299.406 224.055 298.461C224.531 297.516 225.195 296.785 226.047 296.27C226.898 295.754 227.891 295.496 229.023 295.496C230.164 295.496 231.16 295.754 232.012 296.27C232.863 296.785 233.523 297.516 233.992 298.461C234.469 299.406 234.707 300.535 234.707 301.848V301.871C234.707 303.176 234.469 304.305 233.992 305.258C233.523 306.203 232.863 306.938 232.012 307.461C231.168 307.977 230.176 308.234 229.035 308.234ZM229.047 306.43C229.781 306.43 230.414 306.25 230.945 305.891C231.477 305.531 231.887 305.012 232.176 304.332C232.473 303.652 232.621 302.832 232.621 301.871V301.848C232.621 300.887 232.473 300.066 232.176 299.387C231.887 298.707 231.473 298.191 230.934 297.84C230.395 297.48 229.758 297.301 229.023 297.301C228.305 297.301 227.676 297.48 227.137 297.84C226.598 298.199 226.18 298.719 225.883 299.398C225.586 300.07 225.438 300.887 225.438 301.848V301.871C225.438 302.832 225.586 303.652 225.883 304.332C226.18 305.012 226.598 305.531 227.137 305.891C227.676 306.25 228.312 306.43 229.047 306.43ZM242.91 308V297.418H241.141V295.73H242.91V294.254C242.91 293.457 243.035 292.801 243.285 292.285C243.535 291.762 243.91 291.375 244.41 291.125C244.918 290.867 245.551 290.738 246.309 290.738C246.535 290.738 246.762 290.75 246.988 290.773C247.215 290.789 247.41 290.809 247.574 290.832V292.484C247.449 292.461 247.309 292.445 247.152 292.438C246.996 292.43 246.84 292.426 246.684 292.426C246.09 292.426 245.648 292.578 245.359 292.883C245.07 293.188 244.926 293.648 244.926 294.266V295.73H247.504V297.418H244.949V308H242.91ZM252.672 308.234C251.875 308.234 251.168 308.082 250.551 307.777C249.934 307.473 249.453 307.043 249.109 306.488C248.766 305.926 248.594 305.277 248.594 304.543V304.52C248.594 303.809 248.766 303.199 249.109 302.691C249.461 302.176 249.969 301.77 250.633 301.473C251.305 301.176 252.109 301 253.047 300.945L257.582 300.676V302.27L253.281 302.539C252.445 302.586 251.801 302.781 251.348 303.125C250.902 303.469 250.68 303.93 250.68 304.508V304.531C250.68 305.125 250.902 305.598 251.348 305.949C251.801 306.293 252.395 306.465 253.129 306.465C253.777 306.465 254.359 306.328 254.875 306.055C255.391 305.781 255.801 305.41 256.105 304.941C256.41 304.473 256.562 303.945 256.562 303.359V299.691C256.562 298.949 256.328 298.367 255.859 297.945C255.391 297.516 254.723 297.301 253.855 297.301C253.082 297.301 252.453 297.465 251.969 297.793C251.492 298.121 251.191 298.555 251.066 299.094L251.043 299.188H249.062L249.074 299.07C249.145 298.398 249.379 297.793 249.777 297.254C250.184 296.715 250.734 296.289 251.43 295.977C252.125 295.656 252.945 295.496 253.891 295.496C254.867 295.496 255.703 295.664 256.398 296C257.102 296.328 257.645 296.793 258.027 297.395C258.41 297.996 258.602 298.711 258.602 299.539V308H256.562V306.043H256.492C256.25 306.488 255.934 306.875 255.543 307.203C255.152 307.531 254.715 307.785 254.23 307.965C253.746 308.145 253.227 308.234 252.672 308.234ZM266.488 308.234C265.332 308.234 264.328 307.973 263.477 307.449C262.625 306.926 261.965 306.188 261.496 305.234C261.035 304.273 260.805 303.145 260.805 301.848V301.836C260.805 300.547 261.039 299.43 261.508 298.484C261.984 297.531 262.645 296.797 263.488 296.281C264.34 295.758 265.332 295.496 266.465 295.496C267.48 295.496 268.352 295.691 269.078 296.082C269.812 296.473 270.391 296.98 270.812 297.605C271.234 298.223 271.492 298.883 271.586 299.586L271.598 299.68H269.594L269.582 299.598C269.426 298.98 269.09 298.445 268.574 297.992C268.066 297.531 267.363 297.301 266.465 297.301C265.754 297.301 265.129 297.488 264.59 297.863C264.059 298.238 263.641 298.766 263.336 299.445C263.039 300.125 262.891 300.93 262.891 301.859V301.871C262.891 302.816 263.043 303.629 263.348 304.309C263.652 304.988 264.07 305.512 264.602 305.879C265.141 306.246 265.77 306.43 266.488 306.43C267.324 306.43 268.004 306.223 268.527 305.809C269.051 305.395 269.402 304.844 269.582 304.156L269.605 304.062H271.609L271.598 304.156C271.48 304.93 271.195 305.625 270.742 306.242C270.289 306.852 269.699 307.336 268.973 307.695C268.254 308.055 267.426 308.234 266.488 308.234ZM278.734 308.234C277.562 308.234 276.555 307.977 275.711 307.461C274.867 306.938 274.219 306.203 273.766 305.258C273.312 304.312 273.086 303.199 273.086 301.918V301.906C273.086 300.633 273.312 299.516 273.766 298.555C274.227 297.594 274.867 296.844 275.688 296.305C276.516 295.766 277.488 295.496 278.605 295.496C279.723 295.496 280.684 295.754 281.488 296.27C282.293 296.785 282.91 297.508 283.34 298.438C283.777 299.359 283.996 300.434 283.996 301.66V302.422H274.117V300.828H282.977L281.945 302.305V301.508C281.945 300.555 281.801 299.77 281.512 299.152C281.23 298.527 280.836 298.062 280.328 297.758C279.828 297.453 279.25 297.301 278.594 297.301C277.938 297.301 277.348 297.461 276.824 297.781C276.309 298.102 275.902 298.574 275.605 299.199C275.309 299.824 275.16 300.594 275.16 301.508V302.305C275.16 303.172 275.305 303.914 275.594 304.531C275.891 305.141 276.309 305.609 276.848 305.938C277.395 306.266 278.039 306.43 278.781 306.43C279.305 306.43 279.77 306.352 280.176 306.195C280.59 306.039 280.934 305.828 281.207 305.562C281.48 305.289 281.676 304.984 281.793 304.648L281.828 304.543H283.844L283.82 304.66C283.711 305.145 283.516 305.605 283.234 306.043C282.953 306.473 282.59 306.852 282.145 307.18C281.699 307.508 281.188 307.766 280.609 307.953C280.039 308.141 279.414 308.234 278.734 308.234ZM295.562 308.211C294.414 308.211 293.559 307.945 292.996 307.414C292.441 306.883 292.164 306.031 292.164 304.859V297.418H290.336V295.73H292.164V292.438H294.273V295.73H296.676V297.418H294.273V304.754C294.273 305.426 294.414 305.887 294.695 306.137C294.977 306.379 295.398 306.5 295.961 306.5C296.094 306.5 296.219 306.496 296.336 306.488C296.453 306.473 296.566 306.461 296.676 306.453V308.117C296.535 308.141 296.363 308.16 296.16 308.176C295.965 308.199 295.766 308.211 295.562 308.211ZM299.008 308V295.73H301.047V297.758H301.117C301.328 297.062 301.691 296.512 302.207 296.105C302.723 295.699 303.336 295.496 304.047 295.496C304.234 295.496 304.402 295.508 304.551 295.531C304.707 295.547 304.828 295.562 304.914 295.578V297.559C304.805 297.527 304.648 297.5 304.445 297.477C304.25 297.453 304.031 297.441 303.789 297.441C303.242 297.441 302.762 297.562 302.348 297.805C301.934 298.039 301.613 298.379 301.387 298.824C301.16 299.27 301.047 299.801 301.047 300.418V308H299.008ZM310.07 308.234C309.273 308.234 308.566 308.082 307.949 307.777C307.332 307.473 306.852 307.043 306.508 306.488C306.164 305.926 305.992 305.277 305.992 304.543V304.52C305.992 303.809 306.164 303.199 306.508 302.691C306.859 302.176 307.367 301.77 308.031 301.473C308.703 301.176 309.508 301 310.445 300.945L314.98 300.676V302.27L310.68 302.539C309.844 302.586 309.199 302.781 308.746 303.125C308.301 303.469 308.078 303.93 308.078 304.508V304.531C308.078 305.125 308.301 305.598 308.746 305.949C309.199 306.293 309.793 306.465 310.527 306.465C311.176 306.465 311.758 306.328 312.273 306.055C312.789 305.781 313.199 305.41 313.504 304.941C313.809 304.473 313.961 303.945 313.961 303.359V299.691C313.961 298.949 313.727 298.367 313.258 297.945C312.789 297.516 312.121 297.301 311.254 297.301C310.48 297.301 309.852 297.465 309.367 297.793C308.891 298.121 308.59 298.555 308.465 299.094L308.441 299.188H306.461L306.473 299.07C306.543 298.398 306.777 297.793 307.176 297.254C307.582 296.715 308.133 296.289 308.828 295.977C309.523 295.656 310.344 295.496 311.289 295.496C312.266 295.496 313.102 295.664 313.797 296C314.5 296.328 315.043 296.793 315.426 297.395C315.809 297.996 316 298.711 316 299.539V308H313.961V306.043H313.891C313.648 306.488 313.332 306.875 312.941 307.203C312.551 307.531 312.113 307.785 311.629 307.965C311.145 308.145 310.625 308.234 310.07 308.234ZM318.93 308V295.73H320.969V308H318.93ZM319.949 293.598C319.59 293.598 319.281 293.473 319.023 293.223C318.773 292.965 318.648 292.656 318.648 292.297C318.648 291.938 318.773 291.633 319.023 291.383C319.281 291.125 319.59 290.996 319.949 290.996C320.316 290.996 320.625 291.125 320.875 291.383C321.125 291.633 321.25 291.938 321.25 292.297C321.25 292.656 321.125 292.965 320.875 293.223C320.625 293.473 320.316 293.598 319.949 293.598ZM323.945 308V295.73H325.984V297.5H326.055C326.383 296.906 326.855 296.426 327.473 296.059C328.098 295.684 328.871 295.496 329.793 295.496C331.145 295.496 332.191 295.902 332.934 296.715C333.676 297.52 334.047 298.629 334.047 300.043V308H332.008V300.43C332.008 299.406 331.773 298.629 331.305 298.098C330.836 297.566 330.129 297.301 329.184 297.301C328.535 297.301 327.969 297.445 327.484 297.734C327.008 298.016 326.637 298.418 326.371 298.941C326.113 299.457 325.984 300.066 325.984 300.77V308H323.945ZM336.953 308V295.73H338.992V308H336.953ZM337.973 293.598C337.613 293.598 337.305 293.473 337.047 293.223C336.797 292.965 336.672 292.656 336.672 292.297C336.672 291.938 336.797 291.633 337.047 291.383C337.305 291.125 337.613 290.996 337.973 290.996C338.34 290.996 338.648 291.125 338.898 291.383C339.148 291.633 339.273 291.938 339.273 292.297C339.273 292.656 339.148 292.965 338.898 293.223C338.648 293.473 338.34 293.598 337.973 293.598ZM341.969 308V295.73H344.008V297.5H344.078C344.406 296.906 344.879 296.426 345.496 296.059C346.121 295.684 346.895 295.496 347.816 295.496C349.168 295.496 350.215 295.902 350.957 296.715C351.699 297.52 352.07 298.629 352.07 300.043V308H350.031V300.43C350.031 299.406 349.797 298.629 349.328 298.098C348.859 297.566 348.152 297.301 347.207 297.301C346.559 297.301 345.992 297.445 345.508 297.734C345.031 298.016 344.66 298.418 344.395 298.941C344.137 299.457 344.008 300.066 344.008 300.77V308H341.969ZM360.027 312.359C359.02 312.359 358.141 312.215 357.391 311.926C356.648 311.645 356.047 311.254 355.586 310.754C355.133 310.262 354.844 309.707 354.719 309.09L354.695 309.008H356.758L356.805 309.09C356.984 309.535 357.352 309.891 357.906 310.156C358.461 310.422 359.16 310.555 360.004 310.555C361.082 310.555 361.918 310.281 362.512 309.734C363.113 309.195 363.414 308.453 363.414 307.508V305.773H363.344C363.094 306.227 362.773 306.617 362.383 306.945C362 307.273 361.559 307.527 361.059 307.707C360.566 307.887 360.027 307.977 359.441 307.977C358.41 307.977 357.504 307.719 356.723 307.203C355.941 306.68 355.332 305.949 354.895 305.012C354.465 304.074 354.25 302.98 354.25 301.73V301.719C354.25 300.469 354.469 299.379 354.906 298.449C355.352 297.52 355.965 296.797 356.746 296.281C357.535 295.758 358.449 295.496 359.488 295.496C360.074 295.496 360.609 295.594 361.094 295.789C361.578 295.984 362.012 296.254 362.395 296.598C362.777 296.941 363.094 297.34 363.344 297.793H363.402V295.73H365.441V307.695C365.441 308.633 365.223 309.449 364.785 310.145C364.348 310.848 363.723 311.391 362.91 311.773C362.098 312.164 361.137 312.359 360.027 312.359ZM359.887 306.172C360.598 306.172 361.215 305.988 361.738 305.621C362.27 305.246 362.684 304.727 362.98 304.062C363.277 303.398 363.426 302.621 363.426 301.73V301.719C363.426 300.836 363.277 300.062 362.98 299.398C362.684 298.734 362.27 298.219 361.738 297.852C361.215 297.484 360.598 297.301 359.887 297.301C359.16 297.301 358.527 297.484 357.988 297.852C357.457 298.211 357.047 298.723 356.758 299.387C356.477 300.051 356.336 300.828 356.336 301.719V301.73C356.336 302.637 356.477 303.422 356.758 304.086C357.047 304.75 357.457 305.266 357.988 305.633C358.527 305.992 359.16 306.172 359.887 306.172ZM106.164 337.234C105.367 337.234 104.66 337.082 104.043 336.777C103.426 336.473 102.945 336.043 102.602 335.488C102.258 334.926 102.086 334.277 102.086 333.543V333.52C102.086 332.809 102.258 332.199 102.602 331.691C102.953 331.176 103.461 330.77 104.125 330.473C104.797 330.176 105.602 330 106.539 329.945L111.074 329.676V331.27L106.773 331.539C105.938 331.586 105.293 331.781 104.84 332.125C104.395 332.469 104.172 332.93 104.172 333.508V333.531C104.172 334.125 104.395 334.598 104.84 334.949C105.293 335.293 105.887 335.465 106.621 335.465C107.27 335.465 107.852 335.328 108.367 335.055C108.883 334.781 109.293 334.41 109.598 333.941C109.902 333.473 110.055 332.945 110.055 332.359V328.691C110.055 327.949 109.82 327.367 109.352 326.945C108.883 326.516 108.215 326.301 107.348 326.301C106.574 326.301 105.945 326.465 105.461 326.793C104.984 327.121 104.684 327.555 104.559 328.094L104.535 328.188H102.555L102.566 328.07C102.637 327.398 102.871 326.793 103.27 326.254C103.676 325.715 104.227 325.289 104.922 324.977C105.617 324.656 106.438 324.496 107.383 324.496C108.359 324.496 109.195 324.664 109.891 325C110.594 325.328 111.137 325.793 111.52 326.395C111.902 326.996 112.094 327.711 112.094 328.539V337H110.055V335.043H109.984C109.742 335.488 109.426 335.875 109.035 336.203C108.645 336.531 108.207 336.785 107.723 336.965C107.238 337.145 106.719 337.234 106.164 337.234ZM114.906 337V324.73H116.945V326.5H117.016C117.344 325.906 117.816 325.426 118.434 325.059C119.059 324.684 119.832 324.496 120.754 324.496C122.105 324.496 123.152 324.902 123.895 325.715C124.637 326.52 125.008 327.629 125.008 329.043V337H122.969V329.43C122.969 328.406 122.734 327.629 122.266 327.098C121.797 326.566 121.09 326.301 120.145 326.301C119.496 326.301 118.93 326.445 118.445 326.734C117.969 327.016 117.598 327.418 117.332 327.941C117.074 328.457 116.945 329.066 116.945 329.77V337H114.906ZM132.391 337.234C131.352 337.234 130.441 336.973 129.66 336.449C128.879 335.926 128.27 335.188 127.832 334.234C127.402 333.273 127.188 332.152 127.188 330.871V330.859C127.188 329.57 127.406 328.449 127.844 327.496C128.281 326.543 128.887 325.805 129.66 325.281C130.434 324.758 131.336 324.496 132.367 324.496C132.945 324.496 133.48 324.59 133.973 324.777C134.473 324.957 134.918 325.219 135.309 325.562C135.707 325.898 136.027 326.297 136.27 326.758H136.34V319.961H138.379V337H136.34V334.949H136.27C136.02 335.426 135.703 335.832 135.32 336.168C134.938 336.504 134.5 336.766 134.008 336.953C133.516 337.141 132.977 337.234 132.391 337.234ZM132.801 335.43C133.504 335.43 134.121 335.242 134.652 334.867C135.191 334.484 135.609 333.953 135.906 333.273C136.211 332.586 136.363 331.785 136.363 330.871V330.859C136.363 329.938 136.211 329.137 135.906 328.457C135.602 327.777 135.184 327.25 134.652 326.875C134.121 326.492 133.504 326.301 132.801 326.301C132.074 326.301 131.445 326.488 130.914 326.863C130.391 327.23 129.984 327.754 129.695 328.434C129.414 329.105 129.273 329.914 129.273 330.859V330.871C129.273 331.809 129.414 332.621 129.695 333.309C129.984 333.988 130.391 334.512 130.914 334.879C131.445 335.246 132.074 335.43 132.801 335.43ZM151.691 337.234C150.551 337.234 149.555 336.977 148.703 336.461C147.852 335.938 147.188 335.199 146.711 334.246C146.242 333.293 146.008 332.168 146.008 330.871V330.848C146.008 329.535 146.242 328.406 146.711 327.461C147.188 326.516 147.852 325.785 148.703 325.27C149.555 324.754 150.547 324.496 151.68 324.496C152.82 324.496 153.816 324.754 154.668 325.27C155.52 325.785 156.18 326.516 156.648 327.461C157.125 328.406 157.363 329.535 157.363 330.848V330.871C157.363 332.176 157.125 333.305 156.648 334.258C156.18 335.203 155.52 335.938 154.668 336.461C153.824 336.977 152.832 337.234 151.691 337.234ZM151.703 335.43C152.438 335.43 153.07 335.25 153.602 334.891C154.133 334.531 154.543 334.012 154.832 333.332C155.129 332.652 155.277 331.832 155.277 330.871V330.848C155.277 329.887 155.129 329.066 154.832 328.387C154.543 327.707 154.129 327.191 153.59 326.84C153.051 326.48 152.414 326.301 151.68 326.301C150.961 326.301 150.332 326.48 149.793 326.84C149.254 327.199 148.836 327.719 148.539 328.398C148.242 329.07 148.094 329.887 148.094 330.848V330.871C148.094 331.832 148.242 332.652 148.539 333.332C148.836 334.012 149.254 334.531 149.793 334.891C150.332 335.25 150.969 335.43 151.703 335.43ZM159.625 337V324.73H161.664V326.5H161.734C162.062 325.906 162.535 325.426 163.152 325.059C163.777 324.684 164.551 324.496 165.473 324.496C166.824 324.496 167.871 324.902 168.613 325.715C169.355 326.52 169.727 327.629 169.727 329.043V337H167.688V329.43C167.688 328.406 167.453 327.629 166.984 327.098C166.516 326.566 165.809 326.301 164.863 326.301C164.215 326.301 163.648 326.445 163.164 326.734C162.688 327.016 162.316 327.418 162.051 327.941C161.793 328.457 161.664 329.066 161.664 329.77V337H159.625ZM172.621 337V319.961H174.66V337H172.621ZM177.742 337V324.73H179.781V337H177.742ZM178.762 322.598C178.402 322.598 178.094 322.473 177.836 322.223C177.586 321.965 177.461 321.656 177.461 321.297C177.461 320.938 177.586 320.633 177.836 320.383C178.094 320.125 178.402 319.996 178.762 319.996C179.129 319.996 179.438 320.125 179.688 320.383C179.938 320.633 180.062 320.938 180.062 321.297C180.062 321.656 179.938 321.965 179.688 322.223C179.438 322.473 179.129 322.598 178.762 322.598ZM182.758 337V324.73H184.797V326.5H184.867C185.195 325.906 185.668 325.426 186.285 325.059C186.91 324.684 187.684 324.496 188.605 324.496C189.957 324.496 191.004 324.902 191.746 325.715C192.488 326.52 192.859 327.629 192.859 329.043V337H190.82V329.43C190.82 328.406 190.586 327.629 190.117 327.098C189.648 326.566 188.941 326.301 187.996 326.301C187.348 326.301 186.781 326.445 186.297 326.734C185.82 327.016 185.449 327.418 185.184 327.941C184.926 328.457 184.797 329.066 184.797 329.77V337H182.758ZM200.688 337.234C199.516 337.234 198.508 336.977 197.664 336.461C196.82 335.938 196.172 335.203 195.719 334.258C195.266 333.312 195.039 332.199 195.039 330.918V330.906C195.039 329.633 195.266 328.516 195.719 327.555C196.18 326.594 196.82 325.844 197.641 325.305C198.469 324.766 199.441 324.496 200.559 324.496C201.676 324.496 202.637 324.754 203.441 325.27C204.246 325.785 204.863 326.508 205.293 327.438C205.73 328.359 205.949 329.434 205.949 330.66V331.422H196.07V329.828H204.93L203.898 331.305V330.508C203.898 329.555 203.754 328.77 203.465 328.152C203.184 327.527 202.789 327.062 202.281 326.758C201.781 326.453 201.203 326.301 200.547 326.301C199.891 326.301 199.301 326.461 198.777 326.781C198.262 327.102 197.855 327.574 197.559 328.199C197.262 328.824 197.113 329.594 197.113 330.508V331.305C197.113 332.172 197.258 332.914 197.547 333.531C197.844 334.141 198.262 334.609 198.801 334.938C199.348 335.266 199.992 335.43 200.734 335.43C201.258 335.43 201.723 335.352 202.129 335.195C202.543 335.039 202.887 334.828 203.16 334.562C203.434 334.289 203.629 333.984 203.746 333.648L203.781 333.543H205.797L205.773 333.66C205.664 334.145 205.469 334.605 205.188 335.043C204.906 335.473 204.543 335.852 204.098 336.18C203.652 336.508 203.141 336.766 202.562 336.953C201.992 337.141 201.367 337.234 200.688 337.234ZM217.516 337.211C216.367 337.211 215.512 336.945 214.949 336.414C214.395 335.883 214.117 335.031 214.117 333.859V326.418H212.289V324.73H214.117V321.438H216.227V324.73H218.629V326.418H216.227V333.754C216.227 334.426 216.367 334.887 216.648 335.137C216.93 335.379 217.352 335.5 217.914 335.5C218.047 335.5 218.172 335.496 218.289 335.488C218.406 335.473 218.52 335.461 218.629 335.453V337.117C218.488 337.141 218.316 337.16 218.113 337.176C217.918 337.199 217.719 337.211 217.516 337.211ZM225.133 337.234C224.234 337.234 223.469 337.051 222.836 336.684C222.203 336.316 221.719 335.793 221.383 335.113C221.055 334.434 220.891 333.625 220.891 332.688V324.73H222.93V332.301C222.93 333.324 223.16 334.102 223.621 334.633C224.082 335.164 224.789 335.43 225.742 335.43C226.234 335.43 226.676 335.348 227.066 335.184C227.465 335.02 227.805 334.785 228.086 334.48C228.367 334.176 228.582 333.812 228.73 333.391C228.879 332.961 228.953 332.484 228.953 331.961V324.73H230.992V337H228.953V335.242H228.883C228.664 335.625 228.379 335.969 228.027 336.273C227.684 336.57 227.27 336.805 226.785 336.977C226.301 337.148 225.75 337.234 225.133 337.234ZM237.906 337.211C236.758 337.211 235.902 336.945 235.34 336.414C234.785 335.883 234.508 335.031 234.508 333.859V326.418H232.68V324.73H234.508V321.438H236.617V324.73H239.02V326.418H236.617V333.754C236.617 334.426 236.758 334.887 237.039 335.137C237.32 335.379 237.742 335.5 238.305 335.5C238.438 335.5 238.562 335.496 238.68 335.488C238.797 335.473 238.91 335.461 239.02 335.453V337.117C238.879 337.141 238.707 337.16 238.504 337.176C238.309 337.199 238.109 337.211 237.906 337.211ZM246.098 337.234C244.957 337.234 243.961 336.977 243.109 336.461C242.258 335.938 241.594 335.199 241.117 334.246C240.648 333.293 240.414 332.168 240.414 330.871V330.848C240.414 329.535 240.648 328.406 241.117 327.461C241.594 326.516 242.258 325.785 243.109 325.27C243.961 324.754 244.953 324.496 246.086 324.496C247.227 324.496 248.223 324.754 249.074 325.27C249.926 325.785 250.586 326.516 251.055 327.461C251.531 328.406 251.77 329.535 251.77 330.848V330.871C251.77 332.176 251.531 333.305 251.055 334.258C250.586 335.203 249.926 335.938 249.074 336.461C248.23 336.977 247.238 337.234 246.098 337.234ZM246.109 335.43C246.844 335.43 247.477 335.25 248.008 334.891C248.539 334.531 248.949 334.012 249.238 333.332C249.535 332.652 249.684 331.832 249.684 330.871V330.848C249.684 329.887 249.535 329.066 249.238 328.387C248.949 327.707 248.535 327.191 247.996 326.84C247.457 326.48 246.82 326.301 246.086 326.301C245.367 326.301 244.738 326.48 244.199 326.84C243.66 327.199 243.242 327.719 242.945 328.398C242.648 329.07 242.5 329.887 242.5 330.848V330.871C242.5 331.832 242.648 332.652 242.945 333.332C243.242 334.012 243.66 334.531 244.199 334.891C244.738 335.25 245.375 335.43 246.109 335.43ZM254.031 337V324.73H256.07V326.758H256.141C256.352 326.062 256.715 325.512 257.23 325.105C257.746 324.699 258.359 324.496 259.07 324.496C259.258 324.496 259.426 324.508 259.574 324.531C259.73 324.547 259.852 324.562 259.938 324.578V326.559C259.828 326.527 259.672 326.5 259.469 326.477C259.273 326.453 259.055 326.441 258.812 326.441C258.266 326.441 257.785 326.562 257.371 326.805C256.957 327.039 256.637 327.379 256.41 327.824C256.184 328.27 256.07 328.801 256.07 329.418V337H254.031ZM261.859 337V324.73H263.898V337H261.859ZM262.879 322.598C262.52 322.598 262.211 322.473 261.953 322.223C261.703 321.965 261.578 321.656 261.578 321.297C261.578 320.938 261.703 320.633 261.953 320.383C262.211 320.125 262.52 319.996 262.879 319.996C263.246 319.996 263.555 320.125 263.805 320.383C264.055 320.633 264.18 320.938 264.18 321.297C264.18 321.656 264.055 321.965 263.805 322.223C263.555 322.473 263.246 322.598 262.879 322.598ZM270.414 337.234C269.617 337.234 268.91 337.082 268.293 336.777C267.676 336.473 267.195 336.043 266.852 335.488C266.508 334.926 266.336 334.277 266.336 333.543V333.52C266.336 332.809 266.508 332.199 266.852 331.691C267.203 331.176 267.711 330.77 268.375 330.473C269.047 330.176 269.852 330 270.789 329.945L275.324 329.676V331.27L271.023 331.539C270.188 331.586 269.543 331.781 269.09 332.125C268.645 332.469 268.422 332.93 268.422 333.508V333.531C268.422 334.125 268.645 334.598 269.09 334.949C269.543 335.293 270.137 335.465 270.871 335.465C271.52 335.465 272.102 335.328 272.617 335.055C273.133 334.781 273.543 334.41 273.848 333.941C274.152 333.473 274.305 332.945 274.305 332.359V328.691C274.305 327.949 274.07 327.367 273.602 326.945C273.133 326.516 272.465 326.301 271.598 326.301C270.824 326.301 270.195 326.465 269.711 326.793C269.234 327.121 268.934 327.555 268.809 328.094L268.785 328.188H266.805L266.816 328.07C266.887 327.398 267.121 326.793 267.52 326.254C267.926 325.715 268.477 325.289 269.172 324.977C269.867 324.656 270.688 324.496 271.633 324.496C272.609 324.496 273.445 324.664 274.141 325C274.844 325.328 275.387 325.793 275.77 326.395C276.152 326.996 276.344 327.711 276.344 328.539V337H274.305V335.043H274.234C273.992 335.488 273.676 335.875 273.285 336.203C272.895 336.531 272.457 336.785 271.973 336.965C271.488 337.145 270.969 337.234 270.414 337.234ZM279.262 337V319.961H281.301V337H279.262ZM288.59 337.234C287.637 337.234 286.809 337.086 286.105 336.789C285.41 336.484 284.859 336.062 284.453 335.523C284.047 334.977 283.801 334.344 283.715 333.625L283.703 333.543H285.754L285.777 333.637C285.91 334.23 286.211 334.695 286.68 335.031C287.148 335.367 287.793 335.535 288.613 335.535C289.168 335.535 289.645 335.461 290.043 335.312C290.441 335.164 290.75 334.953 290.969 334.68C291.188 334.406 291.297 334.082 291.297 333.707V333.695C291.297 333.258 291.156 332.906 290.875 332.641C290.602 332.367 290.109 332.141 289.398 331.961L287.453 331.492C286.688 331.305 286.051 331.062 285.543 330.766C285.035 330.461 284.656 330.09 284.406 329.652C284.164 329.215 284.043 328.703 284.043 328.117V328.105C284.043 327.402 284.234 326.781 284.617 326.242C285 325.695 285.531 325.27 286.211 324.965C286.898 324.652 287.68 324.496 288.555 324.496C289.445 324.496 290.223 324.652 290.887 324.965C291.551 325.27 292.074 325.691 292.457 326.23C292.848 326.77 293.07 327.379 293.125 328.059L293.137 328.188H291.18L291.168 328.117C291.082 327.539 290.812 327.074 290.359 326.723C289.914 326.371 289.312 326.195 288.555 326.195C288.062 326.195 287.633 326.273 287.266 326.43C286.898 326.578 286.617 326.789 286.422 327.062C286.227 327.328 286.129 327.645 286.129 328.012V328.023C286.129 328.297 286.195 328.547 286.328 328.773C286.461 328.992 286.668 329.184 286.949 329.348C287.238 329.512 287.609 329.648 288.062 329.758L289.996 330.227C291.223 330.523 292.094 330.934 292.609 331.457C293.125 331.98 293.383 332.68 293.383 333.555V333.566C293.383 334.285 293.176 334.922 292.762 335.477C292.348 336.023 291.777 336.453 291.051 336.766C290.324 337.078 289.504 337.234 288.59 337.234ZM297.027 337.152C296.645 337.152 296.32 337.02 296.055 336.754C295.789 336.488 295.656 336.164 295.656 335.781C295.656 335.398 295.789 335.074 296.055 334.809C296.32 334.543 296.645 334.41 297.027 334.41C297.41 334.41 297.734 334.543 298 334.809C298.266 335.074 298.398 335.398 298.398 335.781C298.398 336.164 298.266 336.488 298 336.754C297.734 337.02 297.41 337.152 297.027 337.152Z" fill="black"/>
<rect x="242.602" y="220" width="77" height="29" rx="4" fill="black"/>
<path d="M89.4453 243.328C87.7578 243.328 86.2969 242.98 85.0625 242.285C83.8281 241.582 82.8789 240.578 82.2148 239.273C81.5508 237.961 81.2188 236.383 81.2188 234.539V234.527C81.2188 232.691 81.5508 231.121 82.2148 229.816C82.8867 228.504 83.8359 227.5 85.0625 226.805C86.2969 226.109 87.7578 225.762 89.4453 225.762C90.9062 225.762 92.1992 226.051 93.3242 226.629C94.4492 227.199 95.3398 227.98 95.9961 228.973C96.6523 229.965 97.0078 231.094 97.0625 232.359L97.0742 232.488H92.9258L92.9023 232.324C92.8164 231.738 92.6211 231.219 92.3164 230.766C92.0195 230.312 91.6289 229.961 91.1445 229.711C90.6602 229.453 90.0938 229.324 89.4453 229.324C88.6562 229.324 87.9766 229.531 87.4062 229.945C86.8359 230.359 86.3945 230.953 86.082 231.727C85.7695 232.5 85.6133 233.43 85.6133 234.516V234.527C85.6133 235.621 85.7695 236.559 86.082 237.34C86.3945 238.121 86.8359 238.723 87.4062 239.145C87.9844 239.559 88.6641 239.766 89.4453 239.766C90.0703 239.766 90.625 239.645 91.1094 239.402C91.5938 239.152 91.9922 238.801 92.3047 238.348C92.6172 237.895 92.8242 237.359 92.9258 236.742L92.9375 236.613H97.0859V236.754C97.0234 238.02 96.6602 239.148 95.9961 240.141C95.3398 241.125 94.4492 241.902 93.3242 242.473C92.1992 243.043 90.9062 243.328 89.4453 243.328ZM102.875 243V229.547H98.1758V226.09H111.875V229.547H107.176V243H102.875ZM120.969 238.055V234.797H124.988C125.902 234.797 126.613 234.566 127.121 234.105C127.637 233.645 127.895 232.977 127.895 232.102V232.078C127.895 231.195 127.637 230.527 127.121 230.074C126.613 229.621 125.902 229.395 124.988 229.395H120.969V226.09H126.02C127.277 226.09 128.371 226.34 129.301 226.84C130.23 227.332 130.953 228.027 131.469 228.926C131.984 229.816 132.242 230.867 132.242 232.078V232.102C132.242 233.305 131.984 234.355 131.469 235.254C130.953 236.145 130.23 236.836 129.301 237.328C128.371 237.812 127.277 238.055 126.02 238.055H120.969ZM118.801 243V226.09H123.102V243H118.801ZM134.387 243V226.09H141.711C143.086 226.09 144.25 226.312 145.203 226.758C146.156 227.195 146.879 227.832 147.371 228.668C147.871 229.496 148.121 230.504 148.121 231.691V231.715C148.121 232.793 147.863 233.77 147.348 234.645C146.832 235.512 146.129 236.137 145.238 236.52L148.613 243H143.785L140.891 237.164C140.859 237.164 140.824 237.164 140.785 237.164C140.754 237.164 140.723 237.164 140.691 237.164H138.688V243H134.387ZM138.688 234.07H141.23C142.004 234.07 142.613 233.859 143.059 233.438C143.504 233.008 143.727 232.434 143.727 231.715V231.691C143.727 230.98 143.496 230.41 143.035 229.98C142.582 229.551 141.973 229.336 141.207 229.336H138.688V234.07ZM158.328 243.328C156.625 243.328 155.148 242.973 153.898 242.262C152.648 241.551 151.684 240.539 151.004 239.227C150.324 237.914 149.984 236.355 149.984 234.551V234.527C149.984 232.723 150.324 231.168 151.004 229.863C151.691 228.551 152.66 227.539 153.91 226.828C155.16 226.117 156.633 225.762 158.328 225.762C160.039 225.762 161.52 226.117 162.77 226.828C164.02 227.539 164.984 228.551 165.664 229.863C166.344 231.168 166.684 232.723 166.684 234.527V234.551C166.684 236.355 166.344 237.914 165.664 239.227C164.984 240.531 164.02 241.543 162.77 242.262C161.527 242.973 160.047 243.328 158.328 243.328ZM158.328 239.766C159.148 239.766 159.852 239.555 160.438 239.133C161.031 238.703 161.488 238.098 161.809 237.316C162.137 236.535 162.301 235.613 162.301 234.551V234.527C162.301 233.457 162.137 232.535 161.809 231.762C161.488 230.98 161.027 230.379 160.426 229.957C159.832 229.535 159.133 229.324 158.328 229.324C157.539 229.324 156.844 229.535 156.242 229.957C155.648 230.379 155.188 230.977 154.859 231.75C154.531 232.523 154.367 233.449 154.367 234.527V234.551C154.367 235.621 154.531 236.547 154.859 237.328C155.188 238.109 155.648 238.711 156.242 239.133C156.836 239.555 157.531 239.766 158.328 239.766ZM168.98 243V226.09H175.895C177.598 226.09 179.051 226.41 180.254 227.051C181.457 227.691 182.375 228.633 183.008 229.875C183.648 231.109 183.969 232.621 183.969 234.41V234.434C183.969 236.246 183.648 237.793 183.008 239.074C182.375 240.348 181.457 241.32 180.254 241.992C179.051 242.664 177.598 243 175.895 243H168.98ZM173.281 239.531H175.285C176.223 239.531 177.008 239.344 177.641 238.969C178.281 238.586 178.766 238.02 179.094 237.27C179.422 236.512 179.586 235.574 179.586 234.457V234.434C179.586 233.379 179.414 232.492 179.07 231.773C178.734 231.047 178.246 230.496 177.605 230.121C176.965 229.746 176.191 229.559 175.285 229.559H173.281V239.531ZM193.531 243.328C192.07 243.328 190.793 243.07 189.699 242.555C188.605 242.031 187.758 241.297 187.156 240.352C186.555 239.406 186.254 238.297 186.254 237.023V226.09H190.555V236.613C190.555 237.27 190.672 237.832 190.906 238.301C191.141 238.77 191.477 239.133 191.914 239.391C192.359 239.641 192.902 239.766 193.543 239.766C194.184 239.766 194.727 239.641 195.172 239.391C195.617 239.133 195.953 238.77 196.18 238.301C196.406 237.832 196.52 237.27 196.52 236.613V226.09H200.82V237.023C200.82 238.289 200.52 239.395 199.918 240.34C199.324 241.285 198.48 242.02 197.387 242.543C196.301 243.066 195.016 243.328 193.531 243.328ZM211.344 243.328C209.656 243.328 208.195 242.98 206.961 242.285C205.727 241.582 204.777 240.578 204.113 239.273C203.449 237.961 203.117 236.383 203.117 234.539V234.527C203.117 232.691 203.449 231.121 204.113 229.816C204.785 228.504 205.734 227.5 206.961 226.805C208.195 226.109 209.656 225.762 211.344 225.762C212.805 225.762 214.098 226.051 215.223 226.629C216.348 227.199 217.238 227.98 217.895 228.973C218.551 229.965 218.906 231.094 218.961 232.359L218.973 232.488H214.824L214.801 232.324C214.715 231.738 214.52 231.219 214.215 230.766C213.918 230.312 213.527 229.961 213.043 229.711C212.559 229.453 211.992 229.324 211.344 229.324C210.555 229.324 209.875 229.531 209.305 229.945C208.734 230.359 208.293 230.953 207.98 231.727C207.668 232.5 207.512 233.43 207.512 234.516V234.527C207.512 235.621 207.668 236.559 207.98 237.34C208.293 238.121 208.734 238.723 209.305 239.145C209.883 239.559 210.562 239.766 211.344 239.766C211.969 239.766 212.523 239.645 213.008 239.402C213.492 239.152 213.891 238.801 214.203 238.348C214.516 237.895 214.723 237.359 214.824 236.742L214.836 236.613H218.984V236.754C218.922 238.02 218.559 239.148 217.895 240.141C217.238 241.125 216.348 241.902 215.223 242.473C214.098 243.043 212.805 243.328 211.344 243.328ZM224.773 243V229.547H220.074V226.09H233.773V229.547H229.074V243H224.773Z" fill="black"/>
<path d="M258.148 243.328C256.461 243.328 255 242.98 253.766 242.285C252.531 241.582 251.582 240.578 250.918 239.273C250.254 237.961 249.922 236.383 249.922 234.539V234.527C249.922 232.691 250.254 231.121 250.918 229.816C251.59 228.504 252.539 227.5 253.766 226.805C255 226.109 256.461 225.762 258.148 225.762C259.609 225.762 260.902 226.051 262.027 226.629C263.152 227.199 264.043 227.98 264.699 228.973C265.355 229.965 265.711 231.094 265.766 232.359L265.777 232.488H261.629L261.605 232.324C261.52 231.738 261.324 231.219 261.02 230.766C260.723 230.312 260.332 229.961 259.848 229.711C259.363 229.453 258.797 229.324 258.148 229.324C257.359 229.324 256.68 229.531 256.109 229.945C255.539 230.359 255.098 230.953 254.785 231.727C254.473 232.5 254.316 233.43 254.316 234.516V234.527C254.316 235.621 254.473 236.559 254.785 237.34C255.098 238.121 255.539 238.723 256.109 239.145C256.688 239.559 257.367 239.766 258.148 239.766C258.773 239.766 259.328 239.645 259.812 239.402C260.297 239.152 260.695 238.801 261.008 238.348C261.32 237.895 261.527 237.359 261.629 236.742L261.641 236.613H265.789V236.754C265.727 238.02 265.363 239.148 264.699 240.141C264.043 241.125 263.152 241.902 262.027 242.473C260.902 243.043 259.609 243.328 258.148 243.328ZM266.188 243L271.883 226.09H275.809V229.781H274.461L270.711 243H266.188ZM269.516 239.297L270.477 236.191H278.539L279.488 239.297H269.516ZM278.316 243L274.566 229.781V226.09H277.145L282.84 243H278.316ZM284.691 243V226.09H292.016C293.391 226.09 294.555 226.312 295.508 226.758C296.461 227.195 297.184 227.832 297.676 228.668C298.176 229.496 298.426 230.504 298.426 231.691V231.715C298.426 232.793 298.168 233.77 297.652 234.645C297.137 235.512 296.434 236.137 295.543 236.52L298.918 243H294.09L291.195 237.164C291.164 237.164 291.129 237.164 291.09 237.164C291.059 237.164 291.027 237.164 290.996 237.164H288.992V243H284.691ZM288.992 234.07H291.535C292.309 234.07 292.918 233.859 293.363 233.438C293.809 233.008 294.031 232.434 294.031 231.715V231.691C294.031 230.98 293.801 230.41 293.34 229.98C292.887 229.551 292.277 229.336 291.512 229.336H288.992V234.07ZM300.816 243V226.09H312.406V229.547H305.117V232.887H311.973V236.121H305.117V239.543H312.406V243H300.816Z" fill="white"/>
<defs>
<filter id="filter0_d_3247_9494" x="120.68" y="54.2617" width="165.72" height="112.338" filterUnits="userSpaceOnUse" color-interpolation-filters="sRGB">
<feFlood flood-opacity="0" result="BackgroundImageFix"/>
<feColorMatrix in="SourceAlpha" type="matrix" values="0 0 0 0 0 0 0 0 0 0 0 0 0 0 0 0 0 0 127 0" result="hardAlpha"/>
<feOffset dx="3.2" dy="3.2"/>
<feGaussianBlur stdDeviation="1.6"/>
<feComposite in2="hardAlpha" operator="out"/>
<feColorMatrix type="matrix" values="0 0 0 0 0 0 0 0 0 0 0 0 0 0 0 0 0 0 0.35 0"/>
<feBlend mode="normal" in2="BackgroundImageFix" result="effect1_dropShadow_3247_9494"/>
<feBlend mode="normal" in="SourceGraphic" in2="effect1_dropShadow_3247_9494" result="shape"/>
</filter>
<linearGradient id="paint0_linear_3247_9494" x1="200" y1="0" x2="200" y2="400" gradientUnits="userSpaceOnUse">
<stop stop-color="#F9F9F9"/>
<stop offset="1" stop-color="#ADADAD"/>
</linearGradient>
</defs>
</svg>
