<svg xmlns="http://www.w3.org/2000/svg" width="208" height="60" viewBox="0 0 208 60" fill="none">
  <path d="M206.537 53.0812C206.537 56.2786 203.893 58.8687 200.623 58.8687H7.07438C3.80561 58.8687 1.15234 56.2786 1.15234 53.0812V6.92785C1.15234 3.73189 3.80561 1.13281 7.07438 1.13281H200.621C203.893 1.13281 206.535 3.73189 206.535 6.92785L206.537 53.0812Z" fill="black"/>
  <path d="M200 1.20187C203.562 1.20187 206.46 4.0275 206.46 7.5V52.5C206.46 55.9725 203.562 58.7981 200 58.7981H7.69231C4.13077 58.7981 1.23269 55.9725 1.23269 52.5V7.5C1.23269 4.0275 4.13077 1.20187 7.69231 1.20187H200ZM200 3.17096e-06H7.69231C3.46346 3.17096e-06 0 3.37688 0 7.5V52.5C0 56.6231 3.46346 60 7.69231 60H200C204.229 60 207.692 56.6231 207.692 52.5V7.5C207.692 3.37688 204.229 3.17096e-06 200 3.17096e-06Z" fill="#A6A6A6"/>
  <path d="M46.3506 29.6786C46.306 24.8441 50.4106 22.4921 50.5983 22.3826C48.2737 19.0781 44.6706 18.6266 43.4044 18.5906C40.3783 18.2801 37.4429 20.3561 35.9014 20.3561C34.3291 20.3561 31.9552 18.6206 29.3968 18.6716C26.1044 18.7211 23.0245 20.5796 21.3352 23.4656C17.8491 29.3501 20.4491 37.9976 23.7891 42.7541C25.4598 45.0836 27.4121 47.6846 29.9675 47.5931C32.4675 47.4926 33.4014 46.0391 36.4183 46.0391C39.4075 46.0391 40.2844 47.5931 42.8906 47.5346C45.5737 47.4926 47.2629 45.1946 48.8752 42.8441C50.806 40.1741 51.5814 37.5446 51.6121 37.4096C51.5491 37.3886 46.4014 35.4731 46.3506 29.6786Z" fill="white"/>
  <path d="M41.4275 15.4616C42.7721 13.8221 43.6921 11.5916 43.4368 9.32812C41.4906 9.41212 39.0568 10.6406 37.6552 12.2441C36.4152 13.6571 35.3075 15.9731 35.5937 18.1511C37.7798 18.3101 40.0245 17.0756 41.4275 15.4616Z" fill="white"/>
  <path d="M82.5346 47.255H79.0408L77.1269 41.3915H70.4746L68.6515 47.255H65.25L71.8408 27.293H75.9115L82.5346 47.255ZM76.55 38.9315L74.8192 33.719C74.6362 33.1865 74.2931 31.9325 73.7869 29.9585H73.7254C73.5238 30.8075 73.1992 32.0615 72.7531 33.719L71.0531 38.9315H76.55Z" fill="white"/>
  <path d="M99.4825 39.8819C99.4825 42.3299 98.8041 44.2649 97.4472 45.6854C96.2318 46.9499 94.7225 47.5814 92.921 47.5814C90.9764 47.5814 89.5795 46.9004 88.7287 45.5384H88.6672V53.1209H85.3872V37.6004C85.3872 36.0614 85.3456 34.4819 85.2656 32.8619H88.1502L88.3333 35.1434H88.3949C89.4887 33.4244 91.1487 32.5664 93.3764 32.5664C95.1179 32.5664 96.5718 33.2369 97.7349 34.5794C98.901 35.9234 99.4825 37.6904 99.4825 39.8819ZM96.141 39.9989C96.141 38.5979 95.8179 37.4429 95.1687 36.5339C94.4595 35.5859 93.5072 35.1119 92.3133 35.1119C91.5041 35.1119 90.7687 35.3759 90.1118 35.8964C89.4533 36.4214 89.0225 37.1069 88.821 37.9559C88.7195 38.3519 88.6687 38.6759 88.6687 38.9309V41.3309C88.6687 42.3779 88.9979 43.2614 89.6564 43.9829C90.3149 44.7044 91.1702 45.0644 92.2225 45.0644C93.4579 45.0644 94.4195 44.5994 95.1072 43.6724C95.7964 42.7439 96.141 41.5199 96.141 39.9989Z" fill="white"/>
  <path d="M116.465 39.8819C116.465 42.3299 115.787 44.2649 114.428 45.6854C113.215 46.9499 111.705 47.5814 109.904 47.5814C107.959 47.5814 106.562 46.9004 105.713 45.5384H105.652V53.1209H102.372V37.6004C102.372 36.0614 102.33 34.4819 102.25 32.8619H105.135L105.318 35.1434H105.379C106.472 33.4244 108.132 32.5664 110.361 32.5664C112.101 32.5664 113.555 33.2369 114.721 34.5794C115.882 35.9234 116.465 37.6904 116.465 39.8819ZM113.124 39.9989C113.124 38.5979 112.799 37.4429 112.15 36.5339C111.441 35.5859 110.492 35.1119 109.296 35.1119C108.485 35.1119 107.752 35.3759 107.093 35.8964C106.435 36.4214 106.005 37.1069 105.804 37.9559C105.704 38.3519 105.652 38.6759 105.652 38.9309V41.3309C105.652 42.3779 105.981 43.2614 106.636 43.9829C107.295 44.7029 108.15 45.0644 109.205 45.0644C110.441 45.0644 111.402 44.5994 112.09 43.6724C112.779 42.7439 113.124 41.5199 113.124 39.9989Z" fill="white"/>
  <path d="M135.452 41.6565C135.452 43.3545 134.847 44.736 133.633 45.8025C132.299 46.968 130.442 47.55 128.056 47.55C125.853 47.55 124.087 47.136 122.75 46.3065L123.51 43.641C124.95 44.49 126.53 44.916 128.252 44.916C129.487 44.916 130.448 44.643 131.139 44.1C131.827 43.557 132.17 42.828 132.17 41.919C132.17 41.109 131.887 40.4265 131.319 39.873C130.755 39.3195 129.812 38.805 128.495 38.3295C124.91 37.026 123.119 35.1165 123.119 32.6055C123.119 30.9645 123.747 29.619 125.004 28.572C126.256 27.5235 127.927 27 130.016 27C131.879 27 133.427 27.3165 134.662 27.948L133.842 30.555C132.688 29.943 131.384 29.637 129.924 29.637C128.77 29.637 127.868 29.9145 127.222 30.4665C126.676 30.96 126.402 31.5615 126.402 32.274C126.402 33.063 126.715 33.7155 127.342 34.2285C127.888 34.7025 128.881 35.2155 130.321 35.769C132.082 36.4605 133.376 37.269 134.208 38.196C135.038 39.12 135.452 40.2765 135.452 41.6565Z" fill="white"/>
  <path d="M146.292 35.2638H142.676V42.2523C142.676 44.0298 143.313 44.9178 144.59 44.9178C145.176 44.9178 145.662 44.8683 146.047 44.7693L146.138 47.1978C145.492 47.4333 144.641 47.5518 143.587 47.5518C142.292 47.5518 141.279 47.1663 140.548 46.3968C139.821 45.6258 139.455 44.3328 139.455 42.5163V35.2608H137.301V32.8608H139.455V30.2253L142.676 29.2773V32.8608H146.292V35.2638Z" fill="white"/>
  <path d="M162.608 39.9389C162.608 42.1514 161.959 43.9679 160.664 45.3884C159.305 46.8509 157.502 47.5799 155.255 47.5799C153.088 47.5799 151.364 46.8794 150.078 45.4784C148.792 44.0774 148.148 42.3089 148.148 40.1774C148.148 37.9469 148.81 36.1199 150.138 34.6994C151.462 33.2774 153.25 32.5664 155.498 32.5664C157.664 32.5664 159.407 33.2669 160.722 34.6694C161.981 36.0299 162.608 37.7864 162.608 39.9389ZM159.205 40.0424C159.205 38.7149 158.915 37.5764 158.325 36.6269C157.638 35.4779 156.655 34.9049 155.381 34.9049C154.062 34.9049 153.061 35.4794 152.373 36.6269C151.784 37.5779 151.493 38.7344 151.493 40.1024C151.493 41.4299 151.784 42.5684 152.373 43.5164C153.082 44.6654 154.073 45.2384 155.352 45.2384C156.604 45.2384 157.587 44.6534 158.296 43.4864C158.901 42.5189 159.205 41.3684 159.205 40.0424Z" fill="white"/>
  <path d="M173.266 35.6744C172.941 35.6159 172.595 35.5859 172.232 35.5859C171.078 35.5859 170.186 36.0104 169.558 36.8609C169.012 37.6109 168.738 38.5589 168.738 39.7034V47.2559H165.459L165.49 37.3949C165.49 35.7359 165.449 34.2254 165.367 32.8634H168.224L168.344 35.6174H168.435C168.781 34.6709 169.327 33.9089 170.075 33.3374C170.806 32.8229 171.595 32.5664 172.446 32.5664C172.749 32.5664 173.023 32.5874 173.266 32.6249V35.6744Z" fill="white"/>
  <path d="M187.936 39.3776C187.936 39.9506 187.898 40.4336 187.816 40.8281H177.976C178.015 42.2501 178.49 43.3376 179.404 44.0876C180.233 44.7581 181.306 45.0941 182.623 45.0941C184.079 45.0941 185.409 44.8676 186.604 44.4131L187.118 46.6331C185.721 47.2271 184.072 47.5226 182.169 47.5226C179.879 47.5226 178.083 46.8656 176.775 45.5531C175.47 44.2406 174.816 42.4781 174.816 40.2671C174.816 38.0966 175.424 36.2891 176.641 34.8476C177.915 33.3086 179.636 32.5391 181.803 32.5391C183.93 32.5391 185.541 33.3086 186.635 34.8476C187.501 36.0701 187.936 37.5821 187.936 39.3776ZM184.809 38.5481C184.83 37.6001 184.616 36.7811 184.172 36.0896C183.604 35.2001 182.732 34.7561 181.558 34.7561C180.486 34.7561 179.613 35.1896 178.947 36.0596C178.401 36.7511 178.076 37.5806 177.976 38.5466H184.809V38.5481Z" fill="white"/>
  <path d="M75.4591 15.014C75.4591 16.7795 74.916 18.1085 73.8314 19.001C72.8268 19.8245 71.3991 20.237 69.5499 20.237C68.6329 20.237 67.8483 20.198 67.1914 20.12V10.4735C68.0483 10.3385 68.9714 10.2695 69.9683 10.2695C71.7299 10.2695 73.0576 10.643 73.953 11.39C74.956 12.2345 75.4591 13.442 75.4591 15.014ZM73.7591 15.0575C73.7591 13.913 73.4483 13.0355 72.8268 12.4235C72.2053 11.813 71.2976 11.507 70.1022 11.507C69.5945 11.507 69.1622 11.54 68.8037 11.609V18.9425C69.0022 18.9725 69.3653 18.986 69.8929 18.986C71.1268 18.986 72.0791 18.6515 72.7499 17.9825C73.4206 17.3135 73.7591 16.3385 73.7591 15.0575Z" fill="white"/>
  <path d="M84.4703 16.5546C84.4703 17.6421 84.1518 18.5331 83.5149 19.2321C82.8472 19.9506 81.9626 20.3091 80.858 20.3091C79.7933 20.3091 78.9457 19.9656 78.3133 19.2756C77.6826 18.5871 77.3672 17.7186 77.3672 16.6716C77.3672 15.5766 77.6918 14.6781 78.3441 13.9806C78.9964 13.2831 79.8733 12.9336 80.978 12.9336C82.0426 12.9336 82.898 13.2771 83.5457 13.9656C84.161 14.6346 84.4703 15.4986 84.4703 16.5546ZM82.798 16.6056C82.798 15.9531 82.6533 15.3936 82.3657 14.9271C82.0272 14.3631 81.5457 14.0811 80.9195 14.0811C80.2718 14.0811 79.7795 14.3631 79.441 14.9271C79.1518 15.3936 79.0087 15.9621 79.0087 16.6341C79.0087 17.2866 79.1533 17.8461 79.441 18.3126C79.7903 18.8766 80.2764 19.1586 80.9041 19.1586C81.5195 19.1586 82.0026 18.8721 82.3503 18.2976C82.6487 17.8221 82.798 17.2581 82.798 16.6056Z" fill="white"/>
  <path d="M96.5585 13.0781L94.2892 20.1491H92.8123L91.8723 17.0786C91.6339 16.3121 91.44 15.5501 91.2892 14.7941H91.26C91.12 15.5711 90.9262 16.3316 90.6769 17.0786L89.6785 20.1491H88.1846L86.0508 13.0781H87.7077L88.5277 16.4396C88.7262 17.2346 88.8892 17.9921 89.02 18.7091H89.0492C89.1692 18.1181 89.3677 17.3651 89.6477 16.4546L90.6769 13.0796H91.9908L92.9769 16.3826C93.2154 17.1881 93.4092 17.9636 93.5585 18.7106H93.6031C93.7123 17.9831 93.8769 17.2076 94.0954 16.3826L94.9754 13.0796H96.5585V13.0781Z" fill="white"/>
  <path d="M104.919 20.1492H103.307V16.0992C103.307 14.8512 102.821 14.2272 101.846 14.2272C101.367 14.2272 100.981 14.3982 100.681 14.7417C100.384 15.0852 100.233 15.4902 100.233 15.9537V20.1477H98.621V15.0987C98.621 14.4777 98.601 13.8042 98.5625 13.0752H99.9794L100.055 14.1807H100.099C100.287 13.8372 100.567 13.5537 100.935 13.3272C101.372 13.0632 101.861 12.9297 102.396 12.9297C103.073 12.9297 103.636 13.1427 104.084 13.5702C104.641 14.0937 104.919 14.8752 104.919 15.9132V20.1492Z" fill="white"/>
  <path d="M109.361 20.1475H107.75V9.83203H109.361V20.1475Z" fill="white"/>
  <path d="M118.857 16.5546C118.857 17.6421 118.539 18.5331 117.902 19.2321C117.234 19.9506 116.348 20.3091 115.245 20.3091C114.179 20.3091 113.331 19.9656 112.7 19.2756C112.069 18.5871 111.754 17.7186 111.754 16.6716C111.754 15.5766 112.079 14.6781 112.731 13.9806C113.383 13.2831 114.26 12.9336 115.363 12.9336C116.429 12.9336 117.283 13.2771 117.932 13.9656C118.548 14.6346 118.857 15.4986 118.857 16.5546ZM117.183 16.6056C117.183 15.9531 117.039 15.3936 116.751 14.9271C116.414 14.3631 115.931 14.0811 115.306 14.0811C114.657 14.0811 114.165 14.3631 113.828 14.9271C113.539 15.3936 113.395 15.9621 113.395 16.6341C113.395 17.2866 113.54 17.8461 113.828 18.3126C114.177 18.8766 114.663 19.1586 115.291 19.1586C115.906 19.1586 116.388 18.8721 116.735 18.2976C117.035 17.8221 117.183 17.2581 117.183 16.6056Z" fill="white"/>
  <path d="M126.661 20.1486H125.213L125.093 19.3341H125.049C124.553 19.9836 123.847 20.3091 122.93 20.3091C122.245 20.3091 121.692 20.0946 121.275 19.6686C120.896 19.2816 120.707 18.8001 120.707 18.2286C120.707 17.3646 121.076 16.7061 121.819 16.2501C122.561 15.7941 123.604 15.5706 124.947 15.5811V15.4491C124.947 14.5176 124.445 14.0526 123.441 14.0526C122.725 14.0526 122.095 14.2281 121.55 14.5761L121.222 13.5441C121.896 13.1376 122.729 12.9336 123.71 12.9336C125.605 12.9336 126.556 13.9086 126.556 15.8586V18.4626C126.556 19.1691 126.592 19.7316 126.661 20.1486ZM124.987 17.7186V16.6281C123.209 16.5981 122.319 17.0736 122.319 18.0531C122.319 18.4221 122.421 18.6981 122.629 18.8826C122.836 19.0671 123.101 19.1586 123.416 19.1586C123.77 19.1586 124.101 19.0491 124.402 18.8316C124.705 18.6126 124.892 18.3351 124.961 17.9946C124.978 17.9181 124.987 17.8251 124.987 17.7186Z" fill="white"/>
  <path d="M135.822 20.1475H134.391L134.315 19.012H134.271C133.814 19.876 133.035 20.308 131.942 20.308C131.068 20.308 130.34 19.9735 129.763 19.3045C129.186 18.6355 128.898 17.767 128.898 16.7005C128.898 15.556 129.211 14.629 129.838 13.921C130.446 13.261 131.191 12.931 132.077 12.931C133.051 12.931 133.732 13.2505 134.12 13.891H134.151V9.83203H135.765V18.2425C135.765 18.931 135.783 19.5655 135.822 20.1475ZM134.151 17.1655V15.9865C134.151 15.7825 134.135 15.6175 134.106 15.4915C134.015 15.1135 133.82 14.7955 133.523 14.539C133.223 14.2825 132.861 14.1535 132.445 14.1535C131.843 14.1535 131.372 14.386 131.026 14.8525C130.683 15.319 130.509 15.9145 130.509 16.642C130.509 17.341 130.674 17.908 131.005 18.3445C131.354 18.8095 131.825 19.042 132.414 19.042C132.943 19.042 133.366 18.8485 133.688 18.46C133.998 18.1015 134.151 17.6695 134.151 17.1655Z" fill="white"/>
  <path d="M149.611 16.5546C149.611 17.6421 149.292 18.5331 148.656 19.2321C147.988 19.9506 147.105 20.3091 145.999 20.3091C144.936 20.3091 144.088 19.9656 143.454 19.2756C142.823 18.5871 142.508 17.7186 142.508 16.6716C142.508 15.5766 142.832 14.6781 143.485 13.9806C144.137 13.2831 145.014 12.9336 146.12 12.9336C147.183 12.9336 148.04 13.2771 148.686 13.9656C149.302 14.6346 149.611 15.4986 149.611 16.5546ZM147.94 16.6056C147.94 15.9531 147.795 15.3936 147.508 14.9271C147.168 14.3631 146.688 14.0811 146.06 14.0811C145.414 14.0811 144.922 14.3631 144.582 14.9271C144.292 15.3936 144.149 15.9621 144.149 16.6341C144.149 17.2866 144.294 17.8461 144.582 18.3126C144.931 18.8766 145.417 19.1586 146.045 19.1586C146.66 19.1586 147.145 18.8721 147.492 18.2976C147.789 17.8221 147.94 17.2581 147.94 16.6056Z" fill="white"/>
  <path d="M158.277 20.1492H156.666V16.0992C156.666 14.8512 156.18 14.2272 155.203 14.2272C154.725 14.2272 154.339 14.3982 154.04 14.7417C153.742 15.0852 153.593 15.4902 153.593 15.9537V20.1477H151.979V15.0987C151.979 14.4777 151.96 13.8042 151.922 13.0752H153.337L153.413 14.1807H153.457C153.646 13.8372 153.926 13.5537 154.293 13.3272C154.731 13.0632 155.219 12.9297 155.756 12.9297C156.431 12.9297 156.994 13.1427 157.442 13.5702C158 14.0937 158.277 14.8752 158.277 15.9132V20.1492Z" fill="white"/>
  <path d="M169.132 14.2549H167.356V17.6899C167.356 18.5629 167.672 18.9994 168.296 18.9994C168.586 18.9994 168.826 18.9754 169.015 18.9259L169.056 20.1184C168.738 20.2354 168.319 20.2939 167.804 20.2939C167.167 20.2939 166.672 20.1049 166.313 19.7269C165.953 19.3489 165.775 18.7129 165.775 17.8204V14.2549H164.715V13.0774H165.775V11.7814L167.355 11.3164V13.0759H169.13V14.2549H169.132Z" fill="white"/>
  <path d="M177.666 20.1475H176.052V16.1275C176.052 14.86 175.566 14.2255 174.592 14.2255C173.844 14.2255 173.333 14.593 173.053 15.328C173.006 15.4825 172.978 15.6715 172.978 15.8935V20.146H171.367V9.83203H172.978V14.0935H173.009C173.516 13.318 174.244 12.931 175.187 12.931C175.855 12.931 176.407 13.144 176.846 13.5715C177.392 14.104 177.666 14.896 177.666 15.943V20.1475Z" fill="white"/>
  <path d="M186.467 16.2765C186.467 16.5585 186.446 16.7955 186.407 16.989H181.572C181.593 17.688 181.824 18.2205 182.272 18.5895C182.681 18.9195 183.209 19.0845 183.855 19.0845C184.57 19.0845 185.223 18.9735 185.81 18.75L186.063 19.842C185.375 20.133 184.566 20.2785 183.629 20.2785C182.506 20.2785 181.621 19.956 180.981 19.311C180.338 18.666 180.02 17.8005 180.02 16.7145C180.02 15.648 180.316 14.76 180.915 14.052C181.54 13.296 182.384 12.918 183.45 12.918C184.493 12.918 185.286 13.296 185.821 14.052C186.253 14.652 186.467 15.3945 186.467 16.2765ZM184.929 15.87C184.941 15.4035 184.835 15.0015 184.616 14.6625C184.336 14.226 183.91 14.007 183.333 14.007C182.807 14.007 182.378 14.22 182.05 14.6475C181.783 14.988 181.624 15.3945 181.572 15.87H184.929Z" fill="white"/>
</svg>