<svg xmlns="http://www.w3.org/2000/svg" width="24" height="16" viewBox="0 0 24 16" fill="none">
  <path d="M0.221867 15.2102L15.0313 0.0885429C15.1263 -0.00839714 15.273 -0.0327776 15.3942 0.0282556L15.4062 0.0342774C15.4468 0.0547499 15.4814 0.0854845 15.5065 0.123438C15.5669 0.214606 15.5641 0.333702 15.4995 0.42194L6.03272 13.3632C5.94868 13.4781 5.93565 13.6303 5.99894 13.7578C6.06331 13.8874 6.19558 13.9694 6.34036 13.9694H20.1156L17.6185 15.9258H0.522669C0.37111 15.9258 0.231246 15.8443 0.156462 15.7125C0.0638211 15.5492 0.0905001 15.3443 0.221867 15.2102Z" fill="black"/>
  <path d="M7.02179 12.9169L13.5774 3.8457C13.6694 3.71831 13.8365 3.67009 13.9823 3.72883L14.0013 3.73649C14.0531 3.75739 14.0974 3.79354 14.1283 3.84017C14.1845 3.92513 14.1894 4.03415 14.1409 4.12377L10.4722 10.91C10.4298 10.9883 10.4282 11.0824 10.4678 11.1622C10.5141 11.2555 10.6092 11.3144 10.7133 11.3144H24L20.6705 13.4105H7.27409C7.19114 13.4105 7.11162 13.3774 7.05318 13.3185C6.94581 13.2104 6.93252 13.0404 7.02179 12.9169Z" fill="black"/>
</svg>