<svg id="Layer_1" data-name="Layer 1" xmlns="http://www.w3.org/2000/svg" viewBox="0 0 30 30"><path id="shape" d="M14.83,28.54A13.78,13.78,0,0,1,1,14.75H1A13.78,13.78,0,0,1,14.83,1h0a13.79,13.79,0,0,1,13.8,13.79h0A13.79,13.79,0,0,1,14.83,28.54Z" fill="#383d38"/><path d="M14.76,6.25c-7.82,0-8.43.61-8.43,8.42v.16c0,7.81.61,8.42,8.43,8.42h.15c7.81,0,8.42-.61,8.42-8.42v-.08c0-7.88-.62-8.5-8.5-8.5ZM13.13,8h3.4c4.73,0,5.1.37,5.1,5.1v3.4c0,4.73-.37,5.1-5.1,5.1h-3.4c-4.73,0-5.1-.37-5.1-5.1v-3.4C8,8.32,8.4,8,13.13,8Zm5.95,1.7a.85.85,0,1,0,.85.85A.85.85,0,0,0,19.08,9.65Zm-4.26.85a4.25,4.25,0,1,0,4.26,4.24A4.25,4.25,0,0,0,14.82,10.5Zm0,1.7a2.55,2.55,0,1,1-2.55,2.56A2.55,2.55,0,0,1,14.83,12.2Z" fill="#fff"/></svg>