<svg id="Layer_1" data-name="Layer 1" xmlns="http://www.w3.org/2000/svg" viewBox="0 0 30 30"><path id="shape" d="M14.85,29A13.8,13.8,0,0,1,1.05,15.16h0a13.8,13.8,0,0,1,13.8-13.8h0a13.8,13.8,0,0,1,13.79,13.8h0A13.8,13.8,0,0,1,14.85,29Z" fill="#383d38"/><path d="M8.78,7.72A1.47,1.47,0,0,0,7.13,9.08a1.49,1.49,0,0,0,1.65,1.39,1.47,1.47,0,0,0,1.66-1.39A1.49,1.49,0,0,0,8.78,7.72Z" fill="#fff"/><path d="M18.6,12.13a4.12,4.12,0,0,0-3.2,1.41V12.13H12.09V22.59H15.4V17.08c0-1.09.55-2.22,1.88-2.22h0a2,2,0,0,1,1.93,2.22v5.51h3.31V16.68C22.56,13.63,20.78,12.13,18.6,12.13Z" fill="#fff"/><rect x="7.13" y="12.13" width="3.31" height="10.47" fill="#fff"/></svg>