<svg width="75" height="52" viewBox="0 0 75 52" fill="none" xmlns="http://www.w3.org/2000/svg">
<path d="M49.1876 0.621094C59.0413 0.621094 65.6622 10.0335 65.6622 18.8143C65.6622 36.5968 38.1839 51.1577 37.6865 51.1577C37.1892 51.1577 9.71094 36.5968 9.71094 18.8143C9.71094 10.0335 16.3318 0.621094 26.1855 0.621094C31.8428 0.621094 35.5417 3.49536 37.6865 6.02219C39.8313 3.49536 43.5303 0.621094 49.1876 0.621094Z" fill="white" stroke="#F67F00" stroke-width="2.70732" stroke-linecap="round" stroke-linejoin="round"/>
<mask id="path-2-outside-1_4042_34413" maskUnits="userSpaceOnUse" x="1.5" y="7.03516" width="72" height="36" fill="black">
<rect fill="white" x="1.5" y="7.03516" width="72" height="36"/>
<path d="M8.42024 21.4756C8.42024 21.6321 8.04723 21.7584 7.30122 21.8547C6.56723 21.9509 5.83325 21.9991 5.09927 21.9991C4.36528 21.9991 3.89601 21.9569 3.69146 21.8727C3.48691 21.7885 3.38463 21.6561 3.38463 21.4756V10.4117C3.38463 10.0989 3.72154 9.82215 4.39536 9.5815C5.08122 9.34085 5.86935 9.22052 6.75975 9.22052C7.49374 9.22052 7.96902 9.36491 8.18561 9.65369C8.34203 9.85825 8.42024 10.0447 8.42024 10.2132V13.1913H8.56463C8.56463 13.1311 8.74512 12.6317 9.1061 11.6932C9.79195 9.92442 10.2913 9.04003 10.6041 9.04003C11.1937 9.04003 12.024 9.21451 13.0949 9.56345C13.6123 9.7319 14.0575 9.97857 14.4305 10.3034C14.8035 10.6163 14.99 10.9652 14.99 11.3503C14.99 11.5909 14.7433 12.0602 14.25 12.7581C13.7687 13.4439 13.0347 14.3644 12.048 15.5195C12.2767 15.7602 12.5654 16.067 12.9144 16.44C13.2633 16.813 13.7266 17.3726 14.3041 18.1186C14.8937 18.8526 15.1885 19.376 15.1885 19.6888C15.1885 20.0017 14.9058 20.3687 14.3402 20.7898C13.7747 21.1989 13.1731 21.5358 12.5354 21.8005C11.8976 22.0532 11.4224 22.1795 11.1095 22.1795C10.905 22.1795 10.6222 21.8727 10.2612 21.2591C9.91228 20.6334 9.48512 19.7008 8.97976 18.4615L8.42024 19.1293V21.4756ZM21.2165 21.602C21.2165 21.7343 20.8496 21.8426 20.1156 21.9269C19.3816 21.9991 18.6416 22.0352 17.8956 22.0352C17.1616 22.0352 16.6923 22.0051 16.4878 21.9449C16.2832 21.8727 16.1809 21.7584 16.1809 21.602V10.3756C16.1809 10.1109 16.5299 9.85223 17.2278 9.59955C17.9257 9.33483 18.7078 9.20247 19.5741 9.20247C20.3442 9.20247 20.8496 9.36491 21.0902 9.68979C21.1744 9.81012 21.2165 9.93044 21.2165 10.0508V21.602ZM27.7028 21.5117C27.7028 21.6682 27.3298 21.7945 26.5838 21.8908C25.8498 21.987 25.1158 22.0352 24.3819 22.0352C23.6479 22.0352 23.1786 21.993 22.974 21.9088C22.7695 21.8246 22.6672 21.6922 22.6672 21.5117V10.4298C22.6672 10.129 23.0101 9.85223 23.696 9.59955C24.3939 9.34686 25.182 9.22052 26.0604 9.22052C26.3732 9.22052 26.6079 9.23255 26.7643 9.25662C27.1734 9.31678 27.4622 9.57548 27.6306 10.0327L29.3633 14.6893H29.4355V10.4298C29.4355 10.129 29.7784 9.85223 30.4643 9.59955C31.1501 9.34686 31.9323 9.22052 32.8106 9.22052C33.5687 9.22052 34.05 9.36491 34.2545 9.65369C34.3989 9.85825 34.4711 10.0447 34.4711 10.2132V21.5117C34.4711 21.6682 34.0981 21.7945 33.3521 21.8908C32.6181 21.987 31.8059 22.0352 30.9155 22.0352C30.0371 22.0352 29.5558 21.9208 29.4716 21.6922L27.7931 17.2522H27.7028V21.5117ZM41.6793 22.0352H37.4198C36.8302 22.0352 36.4332 21.993 36.2286 21.9088C36.0241 21.8246 35.9218 21.6862 35.9218 21.4937V10.1049C35.9218 9.79207 36.0541 9.56946 36.3189 9.43711C36.5836 9.29272 37.0408 9.22052 37.6906 9.22052H41.7515C44.0618 9.22052 45.6561 9.67776 46.5345 10.5922C47.4128 11.4947 47.852 13.1431 47.852 15.5376C47.852 17.9321 47.3948 19.6166 46.4803 20.5913C45.5659 21.5539 43.9655 22.0352 41.6793 22.0352ZM41.535 11.9098C41.2462 11.9098 41.0537 11.9339 40.9574 11.982V19.2737L41.6433 19.3459C42.0042 19.3459 42.275 19.0571 42.4554 18.4795C42.648 17.902 42.7442 16.9033 42.7442 15.4834C42.7442 14.0636 42.648 13.113 42.4554 12.6317C42.2629 12.1504 41.9561 11.9098 41.535 11.9098ZM58.2742 22.0352H50.6215C50.0319 22.0352 49.6349 21.993 49.4303 21.9088C49.2258 21.8246 49.1235 21.6922 49.1235 21.5117V10.0869C49.1235 9.77402 49.2619 9.55142 49.5386 9.41906C49.8274 9.2867 50.3388 9.22052 51.0728 9.22052H58.3284C58.581 9.22052 58.7074 9.64166 58.7074 10.4839C58.7074 11.3142 58.6532 11.9519 58.545 12.3971C58.4367 12.8303 58.2923 13.0469 58.1118 13.0469C57.3297 13.0469 56.0121 12.9687 54.1591 12.8122V14.0215C55.9399 13.9493 57.101 13.9132 57.6425 13.9132C57.9674 13.9132 58.1298 14.2922 58.1298 15.0503C58.1298 15.8083 58.0636 16.3859 57.9313 16.783C57.811 17.168 57.6425 17.3605 57.4259 17.3605L54.1591 17.2883V18.4434C56.2528 18.287 57.6967 18.2088 58.4908 18.2088C58.7435 18.2088 58.8698 18.63 58.8698 19.4722C58.8698 20.3145 58.8157 20.9522 58.7074 21.3854C58.5991 21.8186 58.4547 22.0352 58.2742 22.0352ZM65.1932 21.5117C65.1932 21.6682 64.8263 21.7945 64.0923 21.8908C63.3583 21.987 62.6183 22.0352 61.8723 22.0352C61.1383 22.0352 60.663 21.993 60.4464 21.9088C60.2419 21.8246 60.1396 21.6922 60.1396 21.5117V9.90637C60.1396 9.59353 60.5306 9.37093 61.3128 9.23857C62.1069 9.10621 63.1056 9.04003 64.3089 9.04003C65.5121 9.04003 66.2882 9.04605 66.6371 9.05808C66.9981 9.05808 67.4193 9.07613 67.9006 9.11223C68.3819 9.14833 68.7609 9.20849 69.0376 9.29272C69.3264 9.37694 69.6393 9.48524 69.9762 9.61759C70.3251 9.74995 70.5958 9.92442 70.7884 10.141C70.9809 10.3456 71.1674 10.5922 71.3479 10.881C71.6728 11.3984 71.8352 12.1384 71.8352 13.101C71.8352 14.0516 71.6728 14.8578 71.3479 15.5195C71.035 16.1693 70.6139 16.6626 70.0845 16.9995C71.4682 19.1774 72.1601 20.5612 72.1601 21.1508C72.1601 21.7404 70.9749 22.0352 68.6045 22.0352C67.9186 22.0352 67.4433 22.0051 67.1786 21.9449C66.9139 21.8847 66.7454 21.7524 66.6732 21.5478L65.5001 17.8298L65.1932 17.8117V21.5117ZM65.1932 15.0322H65.6625C66.3604 15.0322 66.7093 14.4908 66.7093 13.4078C66.7093 12.8543 66.6131 12.4633 66.4206 12.2347C66.2401 12.006 66.0295 11.8917 65.7889 11.8917H65.1932V15.0322ZM17.6738 40.602C17.6738 40.7343 17.3008 40.8426 16.5548 40.9269C15.8208 40.9991 15.0808 41.0352 14.3348 41.0352C13.6008 41.0352 13.1316 41.0051 12.927 40.9449C12.7345 40.8727 12.6382 40.7584 12.6382 40.602V32.841H10.1294C9.99709 32.841 9.88278 32.6726 9.78652 32.3356C9.69026 31.9987 9.64213 31.4994 9.64213 30.8376C9.64213 30.1638 9.71433 29.5621 9.85872 29.0327C10.0031 28.4913 10.1956 28.2205 10.4363 28.2205H20.2007C20.3812 28.2205 20.5015 28.389 20.5616 28.7259C20.6338 29.0628 20.6699 29.5501 20.6699 30.1878C20.6699 30.8256 20.6038 31.4272 20.4714 31.9927C20.339 32.5582 20.1586 32.841 19.9299 32.841H17.6738V40.602ZM27.86 41.1976C26.8613 41.1976 26.001 41.1074 25.279 40.9269C24.5691 40.7343 23.9133 40.3974 23.3117 39.9161C22.0964 38.9656 21.4888 37.1426 21.4888 34.4474C21.4888 33.3163 21.6512 32.3296 21.9761 31.4874C22.313 30.6451 22.7762 29.9773 23.3658 29.4839C24.521 28.5213 26.019 28.04 27.86 28.04C28.8105 28.04 29.6348 28.1243 30.3327 28.2927C31.0426 28.4612 31.7104 28.768 32.3361 29.2132C33.5995 30.1277 34.2312 31.8724 34.2312 34.4474C34.2312 36.7576 33.6597 38.4602 32.5166 39.5552C31.3735 40.6501 29.8213 41.1976 27.86 41.1976ZM27.2644 38.1113C27.4088 38.2797 27.6073 38.3639 27.86 38.3639C28.1127 38.3639 28.3112 38.2797 28.4556 38.1113C28.6 37.9308 28.7203 37.5578 28.8166 36.9922C28.9128 36.4147 28.961 35.6145 28.961 34.5917C28.961 33.569 28.9128 32.7808 28.8166 32.2274C28.7203 31.6739 28.6 31.3129 28.4556 31.1444C28.3112 30.976 28.1127 30.8917 27.86 30.8917C27.6073 30.8917 27.4088 30.976 27.2644 31.1444C27.12 31.3129 26.9997 31.6739 26.9034 32.2274C26.8071 32.7808 26.759 33.569 26.759 34.5917C26.759 35.6145 26.8071 36.4147 26.9034 36.9922C26.9997 37.5578 27.12 37.9308 27.2644 38.1113ZM39.8188 41.0352C39.2413 41.0352 38.8623 40.993 38.6818 40.9088C38.5013 40.8246 38.3749 40.6802 38.3027 40.4756L34.314 29.4659C34.314 29.2373 34.7411 28.9726 35.5954 28.6717C36.4618 28.3709 37.3341 28.2205 38.2125 28.2205C39.3436 28.2205 39.9452 28.5755 40.0174 29.2854L40.631 35.0069H40.8837L41.3891 29.2854C41.4493 28.5755 42.2614 28.2205 43.8257 28.2205C44.4273 28.2205 44.8304 28.3047 45.0349 28.4732C45.2395 28.6296 45.3538 28.8402 45.3779 29.1049L45.9735 35.0069H46.2262L46.6954 29.2854C46.7315 28.9365 47.1406 28.6717 47.9227 28.4913C48.7169 28.3108 49.499 28.2205 50.2691 28.2205C51.0512 28.2205 51.5806 28.3348 51.8574 28.5634C52.1462 28.7921 52.2906 29.0327 52.2906 29.2854L48.4281 40.4756C48.2958 40.8487 47.4054 41.0352 45.7569 41.0352C45.2636 41.0352 44.9327 40.993 44.7642 40.9088C44.5958 40.8246 44.4814 40.6802 44.4213 40.4756L43.4827 37.3352H43.2662L42.3096 40.4756C42.2013 40.8487 41.371 41.0352 39.8188 41.0352ZM58.2218 40.5117C58.2218 40.6682 57.8488 40.7945 57.1028 40.8908C56.3688 40.987 55.6348 41.0352 54.9009 41.0352C54.1669 41.0352 53.6976 40.993 53.4931 40.9088C53.2885 40.8246 53.1862 40.6922 53.1862 40.5117V29.4298C53.1862 29.129 53.5291 28.8522 54.215 28.5995C54.9129 28.3469 55.701 28.2205 56.5794 28.2205C56.8922 28.2205 57.1269 28.2326 57.2833 28.2566C57.6924 28.3168 57.9812 28.5755 58.1496 29.0327L59.8823 33.6893H59.9545V29.4298C59.9545 29.129 60.2974 28.8522 60.9833 28.5995C61.6692 28.3469 62.4513 28.2205 63.3296 28.2205C64.0877 28.2205 64.569 28.3649 64.7735 28.6537C64.9179 28.8582 64.9901 29.0447 64.9901 29.2132V40.5117C64.9901 40.6682 64.6171 40.7945 63.8711 40.8908C63.1371 40.987 62.3249 41.0352 61.4345 41.0352C60.5561 41.0352 60.0748 40.9208 59.9906 40.6922L58.3121 36.2522H58.2218V40.5117Z"/>
</mask>
<path d="M8.42024 21.4756C8.42024 21.6321 8.04723 21.7584 7.30122 21.8547C6.56723 21.9509 5.83325 21.9991 5.09927 21.9991C4.36528 21.9991 3.89601 21.9569 3.69146 21.8727C3.48691 21.7885 3.38463 21.6561 3.38463 21.4756V10.4117C3.38463 10.0989 3.72154 9.82215 4.39536 9.5815C5.08122 9.34085 5.86935 9.22052 6.75975 9.22052C7.49374 9.22052 7.96902 9.36491 8.18561 9.65369C8.34203 9.85825 8.42024 10.0447 8.42024 10.2132V13.1913H8.56463C8.56463 13.1311 8.74512 12.6317 9.1061 11.6932C9.79195 9.92442 10.2913 9.04003 10.6041 9.04003C11.1937 9.04003 12.024 9.21451 13.0949 9.56345C13.6123 9.7319 14.0575 9.97857 14.4305 10.3034C14.8035 10.6163 14.99 10.9652 14.99 11.3503C14.99 11.5909 14.7433 12.0602 14.25 12.7581C13.7687 13.4439 13.0347 14.3644 12.048 15.5195C12.2767 15.7602 12.5654 16.067 12.9144 16.44C13.2633 16.813 13.7266 17.3726 14.3041 18.1186C14.8937 18.8526 15.1885 19.376 15.1885 19.6888C15.1885 20.0017 14.9058 20.3687 14.3402 20.7898C13.7747 21.1989 13.1731 21.5358 12.5354 21.8005C11.8976 22.0532 11.4224 22.1795 11.1095 22.1795C10.905 22.1795 10.6222 21.8727 10.2612 21.2591C9.91228 20.6334 9.48512 19.7008 8.97976 18.4615L8.42024 19.1293V21.4756ZM21.2165 21.602C21.2165 21.7343 20.8496 21.8426 20.1156 21.9269C19.3816 21.9991 18.6416 22.0352 17.8956 22.0352C17.1616 22.0352 16.6923 22.0051 16.4878 21.9449C16.2832 21.8727 16.1809 21.7584 16.1809 21.602V10.3756C16.1809 10.1109 16.5299 9.85223 17.2278 9.59955C17.9257 9.33483 18.7078 9.20247 19.5741 9.20247C20.3442 9.20247 20.8496 9.36491 21.0902 9.68979C21.1744 9.81012 21.2165 9.93044 21.2165 10.0508V21.602ZM27.7028 21.5117C27.7028 21.6682 27.3298 21.7945 26.5838 21.8908C25.8498 21.987 25.1158 22.0352 24.3819 22.0352C23.6479 22.0352 23.1786 21.993 22.974 21.9088C22.7695 21.8246 22.6672 21.6922 22.6672 21.5117V10.4298C22.6672 10.129 23.0101 9.85223 23.696 9.59955C24.3939 9.34686 25.182 9.22052 26.0604 9.22052C26.3732 9.22052 26.6079 9.23255 26.7643 9.25662C27.1734 9.31678 27.4622 9.57548 27.6306 10.0327L29.3633 14.6893H29.4355V10.4298C29.4355 10.129 29.7784 9.85223 30.4643 9.59955C31.1501 9.34686 31.9323 9.22052 32.8106 9.22052C33.5687 9.22052 34.05 9.36491 34.2545 9.65369C34.3989 9.85825 34.4711 10.0447 34.4711 10.2132V21.5117C34.4711 21.6682 34.0981 21.7945 33.3521 21.8908C32.6181 21.987 31.8059 22.0352 30.9155 22.0352C30.0371 22.0352 29.5558 21.9208 29.4716 21.6922L27.7931 17.2522H27.7028V21.5117ZM41.6793 22.0352H37.4198C36.8302 22.0352 36.4332 21.993 36.2286 21.9088C36.0241 21.8246 35.9218 21.6862 35.9218 21.4937V10.1049C35.9218 9.79207 36.0541 9.56946 36.3189 9.43711C36.5836 9.29272 37.0408 9.22052 37.6906 9.22052H41.7515C44.0618 9.22052 45.6561 9.67776 46.5345 10.5922C47.4128 11.4947 47.852 13.1431 47.852 15.5376C47.852 17.9321 47.3948 19.6166 46.4803 20.5913C45.5659 21.5539 43.9655 22.0352 41.6793 22.0352ZM41.535 11.9098C41.2462 11.9098 41.0537 11.9339 40.9574 11.982V19.2737L41.6433 19.3459C42.0042 19.3459 42.275 19.0571 42.4554 18.4795C42.648 17.902 42.7442 16.9033 42.7442 15.4834C42.7442 14.0636 42.648 13.113 42.4554 12.6317C42.2629 12.1504 41.9561 11.9098 41.535 11.9098ZM58.2742 22.0352H50.6215C50.0319 22.0352 49.6349 21.993 49.4303 21.9088C49.2258 21.8246 49.1235 21.6922 49.1235 21.5117V10.0869C49.1235 9.77402 49.2619 9.55142 49.5386 9.41906C49.8274 9.2867 50.3388 9.22052 51.0728 9.22052H58.3284C58.581 9.22052 58.7074 9.64166 58.7074 10.4839C58.7074 11.3142 58.6532 11.9519 58.545 12.3971C58.4367 12.8303 58.2923 13.0469 58.1118 13.0469C57.3297 13.0469 56.0121 12.9687 54.1591 12.8122V14.0215C55.9399 13.9493 57.101 13.9132 57.6425 13.9132C57.9674 13.9132 58.1298 14.2922 58.1298 15.0503C58.1298 15.8083 58.0636 16.3859 57.9313 16.783C57.811 17.168 57.6425 17.3605 57.4259 17.3605L54.1591 17.2883V18.4434C56.2528 18.287 57.6967 18.2088 58.4908 18.2088C58.7435 18.2088 58.8698 18.63 58.8698 19.4722C58.8698 20.3145 58.8157 20.9522 58.7074 21.3854C58.5991 21.8186 58.4547 22.0352 58.2742 22.0352ZM65.1932 21.5117C65.1932 21.6682 64.8263 21.7945 64.0923 21.8908C63.3583 21.987 62.6183 22.0352 61.8723 22.0352C61.1383 22.0352 60.663 21.993 60.4464 21.9088C60.2419 21.8246 60.1396 21.6922 60.1396 21.5117V9.90637C60.1396 9.59353 60.5306 9.37093 61.3128 9.23857C62.1069 9.10621 63.1056 9.04003 64.3089 9.04003C65.5121 9.04003 66.2882 9.04605 66.6371 9.05808C66.9981 9.05808 67.4193 9.07613 67.9006 9.11223C68.3819 9.14833 68.7609 9.20849 69.0376 9.29272C69.3264 9.37694 69.6393 9.48524 69.9762 9.61759C70.3251 9.74995 70.5958 9.92442 70.7884 10.141C70.9809 10.3456 71.1674 10.5922 71.3479 10.881C71.6728 11.3984 71.8352 12.1384 71.8352 13.101C71.8352 14.0516 71.6728 14.8578 71.3479 15.5195C71.035 16.1693 70.6139 16.6626 70.0845 16.9995C71.4682 19.1774 72.1601 20.5612 72.1601 21.1508C72.1601 21.7404 70.9749 22.0352 68.6045 22.0352C67.9186 22.0352 67.4433 22.0051 67.1786 21.9449C66.9139 21.8847 66.7454 21.7524 66.6732 21.5478L65.5001 17.8298L65.1932 17.8117V21.5117ZM65.1932 15.0322H65.6625C66.3604 15.0322 66.7093 14.4908 66.7093 13.4078C66.7093 12.8543 66.6131 12.4633 66.4206 12.2347C66.2401 12.006 66.0295 11.8917 65.7889 11.8917H65.1932V15.0322ZM17.6738 40.602C17.6738 40.7343 17.3008 40.8426 16.5548 40.9269C15.8208 40.9991 15.0808 41.0352 14.3348 41.0352C13.6008 41.0352 13.1316 41.0051 12.927 40.9449C12.7345 40.8727 12.6382 40.7584 12.6382 40.602V32.841H10.1294C9.99709 32.841 9.88278 32.6726 9.78652 32.3356C9.69026 31.9987 9.64213 31.4994 9.64213 30.8376C9.64213 30.1638 9.71433 29.5621 9.85872 29.0327C10.0031 28.4913 10.1956 28.2205 10.4363 28.2205H20.2007C20.3812 28.2205 20.5015 28.389 20.5616 28.7259C20.6338 29.0628 20.6699 29.5501 20.6699 30.1878C20.6699 30.8256 20.6038 31.4272 20.4714 31.9927C20.339 32.5582 20.1586 32.841 19.9299 32.841H17.6738V40.602ZM27.86 41.1976C26.8613 41.1976 26.001 41.1074 25.279 40.9269C24.5691 40.7343 23.9133 40.3974 23.3117 39.9161C22.0964 38.9656 21.4888 37.1426 21.4888 34.4474C21.4888 33.3163 21.6512 32.3296 21.9761 31.4874C22.313 30.6451 22.7762 29.9773 23.3658 29.4839C24.521 28.5213 26.019 28.04 27.86 28.04C28.8105 28.04 29.6348 28.1243 30.3327 28.2927C31.0426 28.4612 31.7104 28.768 32.3361 29.2132C33.5995 30.1277 34.2312 31.8724 34.2312 34.4474C34.2312 36.7576 33.6597 38.4602 32.5166 39.5552C31.3735 40.6501 29.8213 41.1976 27.86 41.1976ZM27.2644 38.1113C27.4088 38.2797 27.6073 38.3639 27.86 38.3639C28.1127 38.3639 28.3112 38.2797 28.4556 38.1113C28.6 37.9308 28.7203 37.5578 28.8166 36.9922C28.9128 36.4147 28.961 35.6145 28.961 34.5917C28.961 33.569 28.9128 32.7808 28.8166 32.2274C28.7203 31.6739 28.6 31.3129 28.4556 31.1444C28.3112 30.976 28.1127 30.8917 27.86 30.8917C27.6073 30.8917 27.4088 30.976 27.2644 31.1444C27.12 31.3129 26.9997 31.6739 26.9034 32.2274C26.8071 32.7808 26.759 33.569 26.759 34.5917C26.759 35.6145 26.8071 36.4147 26.9034 36.9922C26.9997 37.5578 27.12 37.9308 27.2644 38.1113ZM39.8188 41.0352C39.2413 41.0352 38.8623 40.993 38.6818 40.9088C38.5013 40.8246 38.3749 40.6802 38.3027 40.4756L34.314 29.4659C34.314 29.2373 34.7411 28.9726 35.5954 28.6717C36.4618 28.3709 37.3341 28.2205 38.2125 28.2205C39.3436 28.2205 39.9452 28.5755 40.0174 29.2854L40.631 35.0069H40.8837L41.3891 29.2854C41.4493 28.5755 42.2614 28.2205 43.8257 28.2205C44.4273 28.2205 44.8304 28.3047 45.0349 28.4732C45.2395 28.6296 45.3538 28.8402 45.3779 29.1049L45.9735 35.0069H46.2262L46.6954 29.2854C46.7315 28.9365 47.1406 28.6717 47.9227 28.4913C48.7169 28.3108 49.499 28.2205 50.2691 28.2205C51.0512 28.2205 51.5806 28.3348 51.8574 28.5634C52.1462 28.7921 52.2906 29.0327 52.2906 29.2854L48.4281 40.4756C48.2958 40.8487 47.4054 41.0352 45.7569 41.0352C45.2636 41.0352 44.9327 40.993 44.7642 40.9088C44.5958 40.8246 44.4814 40.6802 44.4213 40.4756L43.4827 37.3352H43.2662L42.3096 40.4756C42.2013 40.8487 41.371 41.0352 39.8188 41.0352ZM58.2218 40.5117C58.2218 40.6682 57.8488 40.7945 57.1028 40.8908C56.3688 40.987 55.6348 41.0352 54.9009 41.0352C54.1669 41.0352 53.6976 40.993 53.4931 40.9088C53.2885 40.8246 53.1862 40.6922 53.1862 40.5117V29.4298C53.1862 29.129 53.5291 28.8522 54.215 28.5995C54.9129 28.3469 55.701 28.2205 56.5794 28.2205C56.8922 28.2205 57.1269 28.2326 57.2833 28.2566C57.6924 28.3168 57.9812 28.5755 58.1496 29.0327L59.8823 33.6893H59.9545V29.4298C59.9545 29.129 60.2974 28.8522 60.9833 28.5995C61.6692 28.3469 62.4513 28.2205 63.3296 28.2205C64.0877 28.2205 64.569 28.3649 64.7735 28.6537C64.9179 28.8582 64.9901 29.0447 64.9901 29.2132V40.5117C64.9901 40.6682 64.6171 40.7945 63.8711 40.8908C63.1371 40.987 62.3249 41.0352 61.4345 41.0352C60.5561 41.0352 60.0748 40.9208 59.9906 40.6922L58.3121 36.2522H58.2218V40.5117Z" fill="#FFE0BF"/>
<path d="M7.30122 21.8547L7.16923 20.8318L7.16711 20.8321L7.30122 21.8547ZM3.69146 21.8727L4.08415 20.919H4.08415L3.69146 21.8727ZM4.39536 9.5815L4.05389 8.60829L4.04848 8.61022L4.39536 9.5815ZM8.18561 9.65369L7.36049 10.2725L7.36634 10.2802L8.18561 9.65369ZM8.42024 13.1913H7.38888V14.2226H8.42024V13.1913ZM8.56463 13.1913V14.2226H9.59599V13.1913H8.56463ZM9.1061 11.6932L8.14449 11.3203L8.14348 11.323L9.1061 11.6932ZM13.0949 9.56345L12.7754 10.5441L12.7756 10.5441L13.0949 9.56345ZM14.4305 10.3034L13.7531 11.0812L13.7604 11.0875L13.7677 11.0937L14.4305 10.3034ZM14.25 12.7581L13.4078 12.1627L13.4058 12.1656L14.25 12.7581ZM12.048 15.5195L11.2638 14.8497L10.6603 15.5562L11.3003 16.2299L12.048 15.5195ZM12.9144 16.44L12.1612 17.1446H12.1612L12.9144 16.44ZM14.3041 18.1186L13.4886 18.7499L13.4943 18.7573L13.5001 18.7645L14.3041 18.1186ZM14.3402 20.7898L14.9447 21.6254L14.9505 21.6212L14.9562 21.617L14.3402 20.7898ZM12.5354 21.8005L12.9153 22.7594L12.923 22.7563L12.9308 22.7531L12.5354 21.8005ZM10.2612 21.2591L9.36047 21.7614L9.36624 21.7718L9.37226 21.782L10.2612 21.2591ZM8.97976 18.4615L9.93477 18.0721L9.28847 16.4871L8.1892 17.7991L8.97976 18.4615ZM8.42024 19.1293L7.62968 18.4669L7.38888 18.7544V19.1293H8.42024ZM7.38888 21.4756C7.38888 21.0561 7.64884 20.8249 7.72725 20.7654C7.80908 20.7034 7.85921 20.6941 7.80962 20.7109C7.72205 20.7405 7.52385 20.786 7.16923 20.8318L7.4332 22.8775C7.8246 22.827 8.18591 22.7612 8.47135 22.6646C8.60827 22.6182 8.79828 22.5419 8.97335 22.4092C9.14502 22.2791 9.4516 21.9734 9.4516 21.4756H7.38888ZM7.16711 20.8321C6.47721 20.9225 5.78802 20.9677 5.09927 20.9677V23.0304C5.87848 23.0304 6.65726 22.9793 7.43533 22.8773L7.16711 20.8321ZM5.09927 20.9677C4.74814 20.9677 4.48107 20.9575 4.28902 20.9402C4.19333 20.9317 4.12699 20.9222 4.08458 20.9143C4.03636 20.9053 4.04467 20.9028 4.08415 20.919L3.29877 22.8264C3.55459 22.9317 3.85612 22.9724 4.10464 22.9947C4.38186 23.0196 4.71641 23.0304 5.09927 23.0304V20.9677ZM4.08415 20.919C4.09666 20.9242 4.18812 20.9641 4.27744 21.0797C4.37716 21.2087 4.41599 21.3569 4.41599 21.4756H2.35327C2.35327 21.7749 2.44324 22.0795 2.64524 22.3409C2.83684 22.5888 3.08171 22.737 3.29877 22.8264L4.08415 20.919ZM4.41599 21.4756V10.4117H2.35327V21.4756H4.41599ZM4.41599 10.4117C4.41599 10.5282 4.38238 10.6271 4.34327 10.6956C4.30824 10.7569 4.27843 10.7776 4.29196 10.7665C4.30503 10.7558 4.34397 10.7273 4.42313 10.6868C4.50097 10.647 4.60563 10.6016 4.74225 10.5528L4.04848 8.61022C3.66193 8.74828 3.28291 8.92596 2.98267 9.17259C2.6743 9.42589 2.35327 9.83847 2.35327 10.4117H4.41599ZM4.73683 10.5547C5.29143 10.3601 5.96039 10.2519 6.75976 10.2519V8.18916C5.7783 8.18916 4.87101 8.3216 4.05389 8.60831L4.73683 10.5547ZM6.75976 10.2519C7.0688 10.2519 7.26087 10.2834 7.36691 10.3156C7.47205 10.3476 7.42511 10.3586 7.36052 10.2725L9.0107 9.03488C8.72953 8.65998 8.33665 8.45444 7.9665 8.34199C7.59726 8.22981 7.1847 8.18916 6.75976 8.18916V10.2519ZM7.36634 10.2802C7.38491 10.3045 7.39679 10.3225 7.40388 10.3344C7.41099 10.3462 7.41221 10.35 7.41047 10.3458C7.40701 10.3376 7.38888 10.2905 7.38888 10.2132H9.4516C9.4516 9.7265 9.2301 9.32172 9.00488 9.02719L7.36634 10.2802ZM7.38888 10.2132V13.1913H9.4516V10.2132H7.38888ZM8.42024 14.2226H8.56463V12.1599H8.42024V14.2226ZM9.59599 13.1913C9.59599 13.2903 9.5806 13.3643 9.57883 13.3733C9.57432 13.3963 9.57035 13.4111 9.56992 13.4127C9.56889 13.4166 9.57115 13.4079 9.58003 13.3804C9.59711 13.3275 9.62621 13.2432 9.66994 13.1222C9.75657 12.8825 9.88894 12.5308 10.0687 12.0634L8.14348 11.323C7.96227 11.7941 7.82392 12.1614 7.73005 12.421C7.68354 12.5497 7.64496 12.6602 7.61692 12.7472C7.60324 12.7896 7.58858 12.8371 7.57627 12.8835C7.57598 12.8846 7.53327 13.0276 7.53327 13.1913H9.59599ZM10.0677 12.0661C10.4052 11.1956 10.6803 10.5872 10.8931 10.2104C11.0019 10.0177 11.07 9.92978 11.0942 9.90347C11.1614 9.83027 10.9883 10.0714 10.6041 10.0714V8.00867C10.0636 8.00867 9.71074 8.36035 9.57491 8.50824C9.39602 8.70304 9.2378 8.94671 9.09691 9.19624C8.8103 9.70384 8.49281 10.4221 8.1445 11.3203L10.0677 12.0661ZM10.6041 10.0714C11.0269 10.0714 11.7317 10.204 12.7754 10.5441L13.4144 8.58283C12.3163 8.22502 11.3605 8.00867 10.6041 8.00867V10.0714ZM12.7756 10.5441C13.1744 10.674 13.4946 10.8561 13.7531 11.0812L15.1079 9.52572C14.6203 9.10109 14.0501 8.78981 13.4142 8.58276L12.7756 10.5441ZM13.7677 11.0937C13.8758 11.1843 13.9219 11.2511 13.9405 11.2859C13.9561 11.3151 13.9586 11.3322 13.9586 11.3503H16.0214C16.0214 10.5826 15.633 9.96592 15.0933 9.51323L13.7677 11.0937ZM13.9586 11.3503C13.9586 11.2493 13.9813 11.2012 13.9695 11.2351C13.9609 11.2601 13.9387 11.3142 13.8921 11.4028C13.7985 11.5809 13.6421 11.8313 13.4078 12.1627L15.0922 13.3534C15.3512 12.987 15.5648 12.6538 15.7179 12.3626C15.8468 12.1174 16.0214 11.744 16.0214 11.3503H13.9586ZM13.4058 12.1656C12.9525 12.8115 12.2433 13.703 11.2638 14.8497L12.8323 16.1894C13.8261 15.0259 14.5849 14.0764 15.0942 13.3505L13.4058 12.1656ZM11.3003 16.2299C11.5264 16.4679 11.8132 16.7726 12.1612 17.1446L13.6676 15.7355C13.3177 15.3614 13.0269 15.0525 12.7958 14.8092L11.3003 16.2299ZM12.1612 17.1446C12.4771 17.4823 12.9173 18.0119 13.4886 18.7499L15.1197 17.4872C14.5359 16.7332 14.0495 16.1438 13.6676 15.7355L12.1612 17.1446ZM13.5001 18.7645C13.777 19.1092 13.96 19.3745 14.0688 19.5677C14.1227 19.6634 14.1492 19.7253 14.1606 19.7576C14.1735 19.7942 14.1572 19.765 14.1572 19.6888H16.2199C16.2199 19.2564 16.034 18.8536 15.8661 18.5555C15.6801 18.2253 15.4209 17.8619 15.1082 17.4727L13.5001 18.7645ZM14.1572 19.6888C14.1572 19.5311 14.2259 19.483 14.1595 19.5692C14.0974 19.6498 13.9664 19.7823 13.7242 19.9626L14.9562 21.617C15.2797 21.3761 15.5728 21.1146 15.7934 20.8282C16.0098 20.5474 16.2199 20.1594 16.2199 19.6888H14.1572ZM13.7357 19.9542C13.2344 20.3168 12.7029 20.6143 12.14 20.848L12.9308 22.7531C13.6433 22.4573 14.315 22.081 14.9447 21.6254L13.7357 19.9542ZM12.1554 20.8417C11.5288 21.09 11.2113 21.1482 11.1095 21.1482V23.2109C11.6334 23.2109 12.2665 23.0164 12.9153 22.7594L12.1554 20.8417ZM11.1095 21.1482C11.3168 21.1482 11.4514 21.2244 11.491 21.2492C11.533 21.2757 11.5365 21.2874 11.5024 21.2505C11.4334 21.1756 11.3156 21.0174 11.1502 20.7361L9.37226 21.782C9.56779 22.1144 9.77187 22.4164 9.98561 22.6484C10.093 22.7648 10.228 22.8916 10.3919 22.9948C10.5533 23.0964 10.8 23.2109 11.1095 23.2109V21.1482ZM11.162 20.7567C10.8439 20.1863 10.4354 19.2998 9.93477 18.0721L8.02474 18.8509C8.53486 20.1019 8.98068 21.0804 9.36047 21.7614L11.162 20.7567ZM8.1892 17.7991L7.62968 18.4669L9.2108 19.7917L9.77031 19.1239L8.1892 17.7991ZM7.38888 19.1293V21.4756H9.4516V19.1293H7.38888ZM20.1156 21.9269L20.2165 22.9533L20.2248 22.9525L20.2332 22.9515L20.1156 21.9269ZM16.4878 21.9449L16.1445 22.9175L16.1704 22.9266L16.1968 22.9344L16.4878 21.9449ZM17.2278 9.59955L17.5789 10.5693L17.5862 10.5666L17.5935 10.5639L17.2278 9.59955ZM21.0902 9.68979L21.9351 9.09834L21.9272 9.08701L21.919 9.0759L21.0902 9.68979ZM20.1852 21.602C20.1852 21.3637 20.272 21.1722 20.3648 21.0445C20.4499 20.9272 20.5398 20.8621 20.5822 20.8343C20.6611 20.7826 20.7048 20.7769 20.6494 20.7933C20.5535 20.8216 20.3496 20.8619 19.998 20.9022L20.2332 22.9515C20.6155 22.9076 20.9621 22.8517 21.2332 22.7717C21.3613 22.7339 21.5427 22.6711 21.7133 22.5592C21.8554 22.4661 22.2479 22.1643 22.2479 21.602H20.1852ZM20.0146 20.9005C19.3146 20.9693 18.6083 21.0038 17.8956 21.0038V23.0665C18.6749 23.0665 19.4486 23.0288 20.2165 22.9533L20.0146 20.9005ZM17.8956 21.0038C17.5399 21.0038 17.2632 20.9964 17.0591 20.9833C16.832 20.9688 16.7626 20.9507 16.7788 20.9555L16.1968 22.9344C16.4175 22.9993 16.685 23.0263 16.9272 23.0418C17.1923 23.0588 17.5173 23.0665 17.8956 23.0665V21.0038ZM16.831 20.9724C16.8336 20.9733 16.8557 20.9812 16.8892 21.0016C16.9232 21.0222 16.9738 21.0587 17.0263 21.1173C17.148 21.2534 17.2123 21.432 17.2123 21.602H15.1496C15.1496 21.9284 15.265 22.2424 15.489 22.4927C15.6938 22.7216 15.9426 22.8462 16.1445 22.9175L16.831 20.9724ZM17.2123 21.602V10.3756H15.1496V21.602H17.2123ZM17.2123 10.3756C17.2123 10.5489 17.1522 10.6788 17.1045 10.7503C17.0624 10.8136 17.0314 10.8305 17.0569 10.8116C17.0796 10.7947 17.1305 10.7618 17.2225 10.7169C17.3128 10.6728 17.4302 10.6231 17.5789 10.5693L16.8766 8.62979C16.4901 8.76974 16.1204 8.93811 15.8284 9.15458C15.5597 9.35381 15.1496 9.75249 15.1496 10.3756H17.2123ZM17.5935 10.5639C18.1574 10.35 18.813 10.2338 19.5741 10.2338V8.17111C18.6025 8.17111 17.6939 8.31968 16.862 8.63523L17.5935 10.5639ZM19.5741 10.2338C19.8958 10.2338 20.0991 10.2689 20.2151 10.3062C20.3263 10.3419 20.3043 10.3616 20.2614 10.3037L21.919 9.0759C21.3637 8.32633 20.3954 8.17111 19.5741 8.17111V10.2338ZM20.2453 10.2812C20.2353 10.267 20.1852 10.1849 20.1852 10.0508H22.2479C22.2479 9.67594 22.1135 9.35321 21.9351 9.09834L20.2453 10.2812ZM20.1852 10.0508V21.602H22.2479V10.0508H20.1852ZM26.5838 21.8908L26.4518 20.8679L26.4497 20.8682L26.5838 21.8908ZM22.974 21.9088L23.3667 20.9551L22.974 21.9088ZM23.696 9.59955L23.3449 8.62978L23.3395 8.63178L23.696 9.59955ZM26.7643 9.25662L26.6075 10.276L26.6142 10.277L26.7643 9.25662ZM27.6306 10.0327L26.6629 10.3893L26.664 10.3924L27.6306 10.0327ZM29.3633 14.6893L28.3967 15.049L28.6466 15.7207H29.3633V14.6893ZM29.4355 14.6893V15.7207H30.4669V14.6893H29.4355ZM30.4643 9.59955L30.8208 10.5673L30.8208 10.5673L30.4643 9.59955ZM34.2545 9.65369L35.0971 9.05893L35.0961 9.05755L34.2545 9.65369ZM33.3521 21.8908L33.2201 20.8679L33.218 20.8682L33.3521 21.8908ZM29.4716 21.6922L30.4394 21.3357L30.4363 21.3275L29.4716 21.6922ZM27.7931 17.2522L28.7578 16.8875L28.5058 16.2209H27.7931V17.2522ZM27.7028 17.2522V16.2209H26.6715V17.2522H27.7028ZM26.6715 21.5117C26.6715 21.0922 26.9314 20.861 27.0098 20.8015C27.0917 20.7395 27.1418 20.7302 27.0922 20.747C27.0046 20.7766 26.8064 20.8221 26.4518 20.8679L26.7158 22.9136C27.1072 22.8631 27.4685 22.7973 27.7539 22.7007C27.8909 22.6543 28.0809 22.578 28.2559 22.4453C28.4276 22.3152 28.7342 22.0095 28.7342 21.5117H26.6715ZM26.4497 20.8682C25.7598 20.9586 25.0706 21.0038 24.3819 21.0038V23.0665C25.1611 23.0665 25.9398 23.0154 26.7179 22.9134L26.4497 20.8682ZM24.3819 21.0038C24.0307 21.0038 23.7637 20.9936 23.5716 20.9763C23.4759 20.9678 23.4096 20.9583 23.3672 20.9504C23.3189 20.9414 23.3273 20.9389 23.3667 20.9551L22.5814 22.8625C22.8372 22.9678 23.1387 23.0085 23.3872 23.0308C23.6644 23.0557 23.999 23.0665 24.3819 23.0665V21.0038ZM23.3667 20.9551C23.3792 20.9603 23.4707 21.0002 23.56 21.1158C23.6597 21.2448 23.6986 21.393 23.6986 21.5117H21.6359C21.6359 21.811 21.7258 22.1156 21.9278 22.377C22.1194 22.6249 22.3643 22.7731 22.5814 22.8625L23.3667 20.9551ZM23.6986 21.5117V10.4298H21.6359V21.5117H23.6986ZM23.6986 10.4298C23.6986 10.5608 23.6588 10.6671 23.6183 10.7352C23.5824 10.7958 23.5537 10.8141 23.5721 10.7992C23.5894 10.7852 23.6334 10.7541 23.7178 10.7106C23.8008 10.6679 23.9108 10.6195 24.0525 10.5673L23.3395 8.63178C22.951 8.77491 22.5743 8.95388 22.2767 9.19402C21.9791 9.43415 21.6359 9.84363 21.6359 10.4298H23.6986ZM24.0471 10.5693C24.6139 10.3641 25.2803 10.2519 26.0604 10.2519V8.18916C25.0837 8.18916 24.1739 8.32964 23.3449 8.6298L24.0471 10.5693ZM26.0604 10.2519C26.361 10.2519 26.5315 10.2643 26.6075 10.276L26.9211 8.23725C26.6842 8.20081 26.3855 8.18916 26.0604 8.18916V10.2519ZM26.6142 10.277C26.6277 10.279 26.6278 10.2806 26.62 10.277C26.6116 10.2732 26.604 10.2679 26.5995 10.264C26.5904 10.2558 26.6222 10.2789 26.6629 10.3893L28.5984 9.67617C28.3274 8.94056 27.7707 8.36217 26.9143 8.23624L26.6142 10.277ZM26.664 10.3924L28.3967 15.049L30.3299 14.3296L28.5972 9.67305L26.664 10.3924ZM29.3633 15.7207H29.4355V13.6579H29.3633V15.7207ZM30.4669 14.6893V10.4298H28.4042V14.6893H30.4669ZM30.4669 10.4298C30.4669 10.5608 30.4271 10.6671 30.3866 10.7352C30.3507 10.7958 30.322 10.8141 30.3404 10.7992C30.3577 10.7852 30.4017 10.7541 30.4861 10.7106C30.5691 10.6679 30.6791 10.6195 30.8208 10.5673L30.1077 8.63178C29.7192 8.77491 29.3426 8.95388 29.045 9.19402C28.7474 9.43415 28.4042 9.84363 28.4042 10.4298H30.4669ZM30.8208 10.5673C31.3721 10.3642 32.0301 10.2519 32.8106 10.2519V8.18916C31.8345 8.18916 30.9282 8.3295 30.1077 8.63178L30.8208 10.5673ZM32.8106 10.2519C33.1348 10.2519 33.3349 10.284 33.4438 10.3167C33.5543 10.3498 33.4894 10.3578 33.4129 10.2498L35.0961 9.05755C34.8151 8.6608 34.4072 8.45217 34.0365 8.34095C33.6641 8.22924 33.2445 8.18916 32.8106 8.18916V10.2519ZM33.4119 10.2485C33.429 10.2726 33.4401 10.2909 33.4471 10.3034C33.454 10.3159 33.4559 10.3212 33.4552 10.3193C33.4537 10.3155 33.4398 10.2777 33.4398 10.2132H35.5025C35.5025 9.7511 35.3078 9.35732 35.0971 9.05893L33.4119 10.2485ZM33.4398 10.2132V21.5117H35.5025V10.2132H33.4398ZM33.4398 21.5117C33.4398 21.0922 33.6997 20.861 33.7781 20.8015C33.86 20.7395 33.9101 20.7302 33.8605 20.747C33.7729 20.7766 33.5747 20.8221 33.2201 20.8679L33.4841 22.9136C33.8755 22.8631 34.2368 22.7973 34.5222 22.7007C34.6591 22.6543 34.8492 22.578 35.0242 22.4453C35.1959 22.3152 35.5025 22.0095 35.5025 21.5117H33.4398ZM33.218 20.8682C32.5363 20.9576 31.7697 21.0038 30.9155 21.0038V23.0665C31.8421 23.0665 32.6999 23.0165 33.4862 22.9134L33.218 20.8682ZM30.9155 21.0038C30.505 21.0038 30.2587 20.9756 30.1341 20.946C30.0718 20.9312 30.0893 20.9272 30.144 20.9604C30.202 20.9956 30.3551 21.1069 30.4394 21.3357L28.5038 22.0488C28.6302 22.3919 28.8751 22.6032 29.0745 22.7241C29.2705 22.843 29.4791 22.9105 29.6574 22.9529C30.0141 23.0376 30.4477 23.0665 30.9155 23.0665V21.0038ZM30.4363 21.3275L28.7578 16.8875L26.8284 17.6169L28.5069 22.0569L30.4363 21.3275ZM27.7931 16.2209H27.7028V18.2836H27.7931V16.2209ZM26.6715 17.2522V21.5117H28.7342V17.2522H26.6715ZM36.2286 21.9088L36.6213 20.9551L36.2286 21.9088ZM36.3189 9.43711L36.7801 10.3596L36.7966 10.3513L36.8127 10.3425L36.3189 9.43711ZM46.5345 10.5922L45.7906 11.3067L45.7954 11.3116L46.5345 10.5922ZM46.4803 20.5913L47.2281 21.3016L47.2324 21.297L46.4803 20.5913ZM40.9574 11.982L40.4962 11.0595L39.926 11.3446V11.982H40.9574ZM40.9574 19.2737H39.926V20.2022L40.8494 20.2994L40.9574 19.2737ZM41.6433 19.3459L41.5353 20.3716L41.5891 20.3772H41.6433V19.3459ZM42.4554 18.4795L41.477 18.1534L41.4739 18.1626L41.471 18.1719L42.4554 18.4795ZM42.4554 12.6317L41.4979 13.0148L42.4554 12.6317ZM41.6793 21.0038H37.4198V23.0665H41.6793V21.0038ZM37.4198 21.0038C37.146 21.0038 36.9384 20.9939 36.7886 20.978C36.6227 20.9604 36.5876 20.9413 36.6213 20.9551L35.8359 22.8625C36.0742 22.9606 36.3399 23.0047 36.5711 23.0292C36.8183 23.0554 37.1041 23.0665 37.4198 23.0665V21.0038ZM36.6213 20.9551C36.6441 20.9645 36.7395 21.0093 36.8279 21.1288C36.9234 21.258 36.9531 21.3968 36.9531 21.4937H34.8904C34.8904 21.7831 34.9713 22.0873 35.1691 22.3549C35.3597 22.6128 35.6086 22.7689 35.8359 22.8625L36.6213 20.9551ZM36.9531 21.4937V10.1049H34.8904V21.4937H36.9531ZM36.9531 10.1049C36.9531 10.0954 36.9542 10.152 36.9075 10.2304C36.8589 10.3122 36.7985 10.3504 36.7801 10.3596L35.8576 8.51463C35.5745 8.65621 35.3155 8.87185 35.1346 9.17622C34.9556 9.47723 34.8904 9.80161 34.8904 10.1049H36.9531ZM36.8127 10.3425C36.8014 10.3487 36.8536 10.3199 37.0212 10.2934C37.1801 10.2683 37.3999 10.2519 37.6906 10.2519V8.18916C37.0242 8.18916 36.3358 8.25304 35.825 8.53168L36.8127 10.3425ZM37.6906 10.2519H41.7515V8.18916H37.6906V10.2519ZM41.7515 10.2519C43.9918 10.2519 45.2158 10.7082 45.7907 11.3067L47.2783 9.87778C46.0964 8.64734 44.1317 8.18916 41.7515 8.18916V10.2519ZM45.7954 11.3116C46.3768 11.9089 46.8207 13.1972 46.8207 15.5376H48.8834C48.8834 13.0891 48.4489 11.0805 47.2735 9.87287L45.7954 11.3116ZM46.8207 15.5376C46.8207 17.8581 46.3664 19.2054 45.7282 19.8856L47.2324 21.297C48.4232 20.0279 48.8834 18.006 48.8834 15.5376H46.8207ZM45.7326 19.8809C45.114 20.532 43.8745 21.0038 41.6793 21.0038V23.0665C44.0566 23.0665 46.0177 22.5757 47.2281 21.3016L45.7326 19.8809ZM41.535 10.8784C41.3663 10.8784 41.1998 10.8852 41.0461 10.9044C40.9113 10.9213 40.7013 10.957 40.4962 11.0595L41.4186 12.9045C41.3853 12.9211 41.3576 12.9319 41.3387 12.9385C41.3196 12.9452 41.3054 12.9491 41.2978 12.951C41.2837 12.9545 41.2833 12.9536 41.3019 12.9512C41.3195 12.949 41.3475 12.9464 41.3879 12.9444C41.428 12.9424 41.4767 12.9411 41.535 12.9411V10.8784ZM39.926 11.982V19.2737H41.9888V11.982H39.926ZM40.8494 20.2994L41.5353 20.3716L41.7512 18.3202L41.0654 18.248L40.8494 20.2994ZM41.6433 20.3772C42.728 20.3772 43.2295 19.4605 43.4399 18.7872L41.471 18.1719C41.44 18.2713 41.4109 18.3389 41.3884 18.3822C41.3657 18.4257 41.3551 18.4341 41.3646 18.4239C41.3759 18.4119 41.4094 18.3807 41.4683 18.3537C41.5292 18.3259 41.5915 18.3145 41.6433 18.3145V20.3772ZM43.4339 18.8057C43.6843 18.0545 43.7756 16.9059 43.7756 15.4834H41.7129C41.7129 16.9006 41.6117 17.7495 41.477 18.1534L43.4339 18.8057ZM43.7756 15.4834C43.7756 14.7538 43.751 14.1237 43.6981 13.6017C43.647 13.0968 43.5634 12.6245 43.413 12.2487L41.4979 13.0148C41.54 13.1203 41.6008 13.3639 41.6459 13.8096C41.6893 14.2381 41.7129 14.7933 41.7129 15.4834H43.7756ZM43.413 12.2487C43.2708 11.8932 43.0533 11.5422 42.7174 11.2787C42.3675 11.0043 41.9566 10.8784 41.535 10.8784V12.9411C41.541 12.9411 41.5289 12.9418 41.5057 12.9342C41.4815 12.9262 41.4599 12.9139 41.4444 12.9018C41.4154 12.879 41.4475 12.889 41.4979 13.0148L43.413 12.2487ZM49.4303 21.9088L49.823 20.9551L49.4303 21.9088ZM49.5386 9.41906L49.1089 8.48149L49.1012 8.485L49.0936 8.48863L49.5386 9.41906ZM58.5449 12.3971L59.5455 12.6473L59.5471 12.6409L58.5449 12.3971ZM54.1591 12.8122L54.2458 11.7845L53.1277 11.6901V12.8122H54.1591ZM54.1591 14.0215H53.1277V15.0955L54.2009 15.052L54.1591 14.0215ZM57.9313 16.783L56.9529 16.4568L56.9498 16.466L56.9469 16.4753L57.9313 16.783ZM57.4259 17.3605L57.4031 18.3916L57.4145 18.3919H57.4259V17.3605ZM54.1591 17.2883L54.1819 16.2572L53.1277 16.2339V17.2883H54.1591ZM54.1591 18.4434H53.1277V19.5547L54.2359 19.4719L54.1591 18.4434ZM58.2742 21.0038H50.6215V23.0665H58.2742V21.0038ZM50.6215 21.0038C50.3477 21.0038 50.1401 20.9939 49.9903 20.978C49.8244 20.9604 49.7893 20.9413 49.823 20.9551L49.0376 22.8625C49.2759 22.9606 49.5416 23.0047 49.7728 23.0292C50.02 23.0554 50.3058 23.0665 50.6215 23.0665V21.0038ZM49.823 20.9551C49.8355 20.9603 49.927 21.0002 50.0163 21.1158C50.116 21.2448 50.1548 21.393 50.1548 21.5117H48.0921C48.0921 21.811 48.1821 22.1156 48.3841 22.377C48.5757 22.6249 48.8206 22.7731 49.0376 22.8625L49.823 20.9551ZM50.1548 21.5117V10.0869H48.0921V21.5117H50.1548ZM50.1548 10.0869C50.1548 10.0853 50.1538 10.1484 50.1032 10.2298C50.0518 10.3124 49.9919 10.3455 49.9836 10.3495L49.0936 8.48863C48.8085 8.62498 48.5411 8.83556 48.3513 9.14079C48.1624 9.44477 48.0921 9.7756 48.0921 10.0869H50.1548ZM49.9683 10.3566C49.9679 10.3568 49.9903 10.3469 50.0453 10.3332C50.099 10.3199 50.1731 10.3057 50.2711 10.293C50.4689 10.2674 50.7332 10.2519 51.0728 10.2519V8.18916C50.3355 8.18916 49.6209 8.24682 49.1089 8.48149L49.9683 10.3566ZM51.0728 10.2519H58.3284V8.18916H51.0728V10.2519ZM58.3284 10.2519C58.2116 10.2519 58.0891 10.2264 57.9738 10.1714C57.8612 10.1178 57.7806 10.0483 57.7276 9.98943C57.6323 9.88354 57.6152 9.80088 57.6248 9.83273C57.6311 9.8538 57.6456 9.91535 57.6575 10.0338C57.6689 10.1487 57.676 10.2973 57.676 10.4839H59.7387C59.7387 10.0365 59.708 9.5984 59.6005 9.24002C59.5469 9.06131 59.4508 8.82071 59.2608 8.60954C59.0442 8.36884 58.7211 8.18916 58.3284 8.18916V10.2519ZM57.676 10.4839C57.676 11.2869 57.622 11.8278 57.5428 12.1533L59.5471 12.6409C59.6845 12.076 59.7387 11.3415 59.7387 10.4839H57.676ZM57.5444 12.147C57.5251 12.2243 57.508 12.2761 57.4957 12.3076C57.4827 12.341 57.4807 12.3372 57.4973 12.3123C57.5129 12.2889 57.5646 12.2172 57.6683 12.1481C57.7826 12.0719 57.9366 12.0155 58.1118 12.0155V14.0782C58.6837 14.0782 59.0411 13.7153 59.2136 13.4565C59.382 13.2039 59.4802 12.9087 59.5455 12.6472L57.5444 12.147ZM58.1118 12.0155C57.3774 12.0155 56.0984 11.9409 54.2458 11.7845L54.0723 13.8399C55.9258 13.9964 57.2819 14.0782 58.1118 14.0782V12.0155ZM53.1277 12.8122V14.0215H55.1905V12.8122H53.1277ZM54.2009 15.052C55.9866 14.9796 57.1259 14.9446 57.6425 14.9446V12.8818C57.0762 12.8818 55.8932 12.919 54.1173 12.991L54.2009 15.052ZM57.6425 14.9446C57.5073 14.9446 57.3526 14.8995 57.2225 14.7984C57.1071 14.7086 57.0659 14.6175 57.06 14.6037C57.0541 14.5899 57.0663 14.6139 57.0784 14.6987C57.09 14.78 57.0985 14.8951 57.0985 15.0503H59.1612C59.1612 14.6291 59.1207 14.1757 58.956 13.7912C58.8688 13.5879 58.7261 13.3547 58.4889 13.1702C58.237 12.9743 57.9402 12.8818 57.6425 12.8818V14.9446ZM57.0985 15.0503C57.0985 15.772 57.0325 16.2178 56.9529 16.4568L58.9097 17.1091C59.0948 16.554 59.1612 15.8446 59.1612 15.0503H57.0985ZM56.9469 16.4753C56.9075 16.6013 56.8895 16.5931 56.9385 16.537C56.9683 16.503 57.0261 16.4479 57.1181 16.4019C57.2141 16.3539 57.321 16.3292 57.4259 16.3292V18.3919C57.8861 18.3919 58.2498 18.1708 58.4909 17.8953C58.7084 17.6467 58.8347 17.3497 58.9157 17.0906L56.9469 16.4753ZM57.4487 16.3294L54.1819 16.2572L54.1363 18.3194L57.4031 18.3916L57.4487 16.3294ZM53.1277 17.2883V18.4434H55.1905V17.2883H53.1277ZM54.2359 19.4719C56.3323 19.3153 57.7402 19.2402 58.4908 19.2402V17.1775C57.6531 17.1775 56.1732 17.2587 54.0823 17.415L54.2359 19.4719ZM58.4908 19.2402C58.374 19.2402 58.2516 19.2147 58.1362 19.1597C58.0236 19.1061 57.9431 19.0366 57.89 18.9777C57.7947 18.8718 57.7777 18.7892 57.7872 18.821C57.7935 18.8421 57.8081 18.9036 57.8199 19.0221C57.8314 19.137 57.8385 19.2856 57.8385 19.4722H59.9012C59.9012 19.0248 59.8705 18.5867 59.7629 18.2283C59.7093 18.0496 59.6133 17.809 59.4232 17.5978C59.2066 17.3571 58.8835 17.1775 58.4908 17.1775V19.2402ZM57.8385 19.4722C57.8385 20.2906 57.7839 20.8269 57.7068 21.1353L59.708 21.6355C59.8474 21.0776 59.9012 20.3385 59.9012 19.4722H57.8385ZM57.7068 21.1353C57.6875 21.2126 57.6704 21.2643 57.6582 21.2959C57.6452 21.3293 57.6431 21.3255 57.6597 21.3006C57.6754 21.2772 57.7271 21.2055 57.8307 21.1364C57.9451 21.0602 58.099 21.0038 58.2742 21.0038V23.0665C58.8462 23.0665 59.2035 22.7035 59.376 22.4448C59.5444 22.1922 59.6426 21.897 59.708 21.6355L57.7068 21.1353ZM64.0923 21.8908L63.9582 20.8682L64.0923 21.8908ZM60.4464 21.9088L60.0537 22.8625L60.0631 22.8664L60.0726 22.87L60.4464 21.9088ZM61.3128 9.23857L61.1432 8.22124L61.1407 8.22167L61.3128 9.23857ZM66.6371 9.05808L66.6016 10.0888L66.6194 10.0894H66.6371V9.05808ZM67.9006 9.11223L67.8234 10.1407L67.9006 9.11223ZM69.0376 9.29272L68.7373 10.2795L68.7489 10.2828L69.0376 9.29272ZM69.9762 9.61759L69.599 10.5776L69.6104 10.5819L69.9762 9.61759ZM70.7884 10.141L70.0175 10.8262L70.0273 10.8372L70.0373 10.8479L70.7884 10.141ZM71.3479 10.881L70.4733 11.4276L70.4744 11.4295L71.3479 10.881ZM71.3479 15.5195L70.422 15.065L70.4186 15.0721L71.3479 15.5195ZM70.0845 16.9995L69.5308 16.1294L68.6613 16.6827L69.214 17.5526L70.0845 16.9995ZM67.1786 21.9449L66.95 22.9506L67.1786 21.9449ZM66.6732 21.5478L65.6897 21.8582L65.6949 21.8747L65.7007 21.8911L66.6732 21.5478ZM65.5001 17.8298L66.4836 17.5194L66.2699 16.8419L65.5606 16.8002L65.5001 17.8298ZM65.1932 17.8117L65.2538 16.7822L64.1619 16.7179V17.8117H65.1932ZM65.1932 15.0322H64.1619V16.0636H65.1932V15.0322ZM66.4206 12.2347L65.6111 12.8737L65.6212 12.8865L65.6317 12.899L66.4206 12.2347ZM65.1932 11.8917V10.8604H64.1619V11.8917H65.1932ZM64.1619 21.5117C64.1619 21.0995 64.4138 20.869 64.495 20.8064C64.5777 20.7427 64.6295 20.7324 64.5823 20.7486C64.4989 20.7773 64.3064 20.8225 63.9582 20.8682L64.2264 22.9134C64.6121 22.8628 64.9701 22.7967 65.2537 22.699C65.39 22.6521 65.5795 22.5748 65.7539 22.4404C65.9268 22.3072 66.2246 22.0022 66.2246 21.5117H64.1619ZM63.9582 20.8682C63.269 20.9585 62.5738 21.0038 61.8723 21.0038V23.0665C62.6628 23.0665 63.4476 23.0155 64.2264 22.9134L63.9582 20.8682ZM61.8723 21.0038C61.5214 21.0038 61.2522 20.9936 61.0563 20.9762C60.8361 20.9567 60.7854 20.934 60.8202 20.9476L60.0726 22.87C60.3241 22.9678 60.6192 23.0083 60.8743 23.0309C61.1537 23.0557 61.4892 23.0665 61.8723 23.0665V21.0038ZM60.8391 20.9551C60.8516 20.9603 60.9431 21.0002 61.0324 21.1158C61.1321 21.2448 61.1709 21.393 61.1709 21.5117H59.1082C59.1082 21.811 59.1982 22.1156 59.4002 22.377C59.5918 22.6249 59.8367 22.7731 60.0537 22.8625L60.8391 20.9551ZM61.1709 21.5117V9.90637H59.1082V21.5117H61.1709ZM61.1709 9.90637C61.1709 10.0603 61.1177 10.1985 61.0458 10.2969C60.9838 10.3819 60.9293 10.4089 60.9431 10.4011C60.9548 10.3944 61.0007 10.3714 61.0982 10.3419C61.1933 10.3131 61.3204 10.2833 61.4848 10.2555L61.1407 8.22167C60.7071 8.29505 60.274 8.4085 59.9227 8.60847C59.5615 8.81403 59.1082 9.22869 59.1082 9.90637H61.1709ZM61.4823 10.2559C62.2003 10.1362 63.1375 10.0714 64.3089 10.0714V8.00867C63.0737 8.00867 62.0135 8.07619 61.1432 8.22124L61.4823 10.2559ZM64.3089 10.0714C65.5169 10.0714 66.2739 10.0775 66.6016 10.0888L66.6727 8.02734C66.3025 8.01457 65.5073 8.00867 64.3089 8.00867V10.0714ZM66.6371 10.0894C66.9655 10.0894 67.3598 10.1059 67.8234 10.1407L67.9777 8.08376C67.4787 8.04633 67.0308 8.02672 66.6371 8.02672V10.0894ZM67.8234 10.1407C68.2721 10.1743 68.5653 10.227 68.7373 10.2794L69.3379 8.30604C68.9565 8.18994 68.4916 8.1223 67.9777 8.08376L67.8234 10.1407ZM68.7489 10.2828C69.0025 10.3568 69.2855 10.4544 69.5991 10.5775L70.3533 8.65766C69.993 8.51612 69.6504 8.39709 69.3264 8.30261L68.7489 10.2828ZM69.6104 10.5819C69.8472 10.6718 69.9628 10.7646 70.0175 10.8262L71.5592 9.45581C71.2289 9.08425 70.803 8.82815 70.3419 8.65328L69.6104 10.5819ZM70.0373 10.8479C70.175 10.9941 70.3214 11.1846 70.4733 11.4276L72.2225 10.3344C72.0134 9.99989 71.7868 9.697 71.5394 9.43415L70.0373 10.8479ZM70.4744 11.4295C70.6527 11.7134 70.8038 12.2303 70.8038 13.101H72.8666C72.8666 12.0465 72.6928 11.0834 72.2213 10.3326L70.4744 11.4295ZM70.8038 13.101C70.8038 13.938 70.6604 14.5795 70.4221 15.0651L72.2737 15.974C72.6851 15.136 72.8666 14.1651 72.8666 13.101H70.8038ZM70.4186 15.0721C70.1764 15.5751 69.875 15.9103 69.5308 16.1294L70.6382 17.8697C71.3528 17.4149 71.8936 16.7635 72.2771 15.967L70.4186 15.0721ZM69.214 17.5526C69.8976 18.6286 70.3954 19.4854 70.7187 20.132C70.8805 20.4556 70.99 20.7097 71.0571 20.9009C71.13 21.109 71.1287 21.1765 71.1287 21.1508H73.1914C73.1914 20.8302 73.1036 20.5036 73.0036 20.2184C72.8977 19.9164 72.7478 19.5778 72.5636 19.2095C72.1951 18.4724 71.6551 17.5483 70.955 16.4465L69.214 17.5526ZM71.1287 21.1508C71.1287 20.8907 71.2818 20.7404 71.321 20.7111C71.3315 20.7033 71.2611 20.7538 71.0222 20.8132C70.5553 20.9293 69.7687 21.0038 68.6045 21.0038V23.0665C69.8106 23.0665 70.8018 22.9936 71.5201 22.8149C71.8739 22.7269 72.2479 22.5931 72.5546 22.3643C72.8902 22.1139 73.1914 21.7056 73.1914 21.1508H71.1287ZM68.6045 21.0038C67.9139 21.0038 67.5456 20.9707 67.4072 20.9392L66.95 22.9506C67.341 23.0395 67.9234 23.0665 68.6045 23.0665V21.0038ZM67.4072 20.9392C67.3852 20.9342 67.4274 20.9396 67.4909 20.9895C67.5626 21.0459 67.6176 21.1247 67.6458 21.2046L65.7007 21.8911C65.9211 22.5155 66.4395 22.8346 66.95 22.9506L67.4072 20.9392ZM67.6568 21.2375L66.4836 17.5194L64.5165 18.1401L65.6897 21.8582L67.6568 21.2375ZM65.5606 16.8002L65.2538 16.7822L65.1327 18.8413L65.4395 18.8594L65.5606 16.8002ZM64.1619 17.8117V21.5117H66.2246V17.8117H64.1619ZM65.1932 16.0636H65.6625V14.0009H65.1932V16.0636ZM65.6625 16.0636C66.3271 16.0636 66.9321 15.7783 67.3146 15.1848C67.6469 14.6691 67.7407 14.027 67.7407 13.4078H65.678C65.678 13.6264 65.6601 13.7877 65.6356 13.9019C65.6109 14.0168 65.5842 14.062 65.5807 14.0674C65.5797 14.069 65.5847 14.061 65.5976 14.049C65.611 14.0365 65.6279 14.0244 65.6467 14.0146C65.687 13.9938 65.7024 14.0009 65.6625 14.0009V16.0636ZM67.7407 13.4078C67.7407 12.7935 67.6455 12.0882 67.2095 11.5703L65.6317 12.899C65.5969 12.8577 65.6129 12.8533 65.6357 12.9459C65.6581 13.0371 65.678 13.1856 65.678 13.4078H67.7407ZM67.2301 11.5956C66.8997 11.1771 66.4122 10.8604 65.7889 10.8604V12.9231C65.7665 12.9231 65.7396 12.9203 65.7104 12.913C65.6812 12.9056 65.6557 12.895 65.6352 12.8839C65.5942 12.8616 65.5892 12.846 65.6111 12.8737L67.2301 11.5956ZM65.7889 10.8604H65.1932V12.9231H65.7889V10.8604ZM64.1619 11.8917V15.0322H66.2246V11.8917H64.1619ZM16.5548 40.9269L16.6558 41.9533L16.6632 41.9525L16.6705 41.9517L16.5548 40.9269ZM12.927 40.9449L12.5649 41.9106L12.6 41.9238L12.636 41.9344L12.927 40.9449ZM12.6382 32.841H13.6696V31.8097H12.6382V32.841ZM9.78652 32.3356L8.79484 32.619V32.619L9.78652 32.3356ZM9.85872 29.0327L10.8537 29.3041L10.8553 29.2985L9.85872 29.0327ZM20.5616 28.7259L19.5463 28.9072L19.5495 28.9246L19.5532 28.942L20.5616 28.7259ZM20.4714 31.9927L19.4672 31.7577V31.7577L20.4714 31.9927ZM17.6738 32.841V31.8097H16.6425V32.841H17.6738ZM16.6425 40.602C16.6425 40.3592 16.7324 40.1655 16.8265 40.038C16.9128 39.9212 17.0032 39.8569 17.0448 39.8301C17.1224 39.78 17.1642 39.7753 17.1065 39.792C17.0064 39.8211 16.7971 39.8616 16.4391 39.902L16.6705 41.9517C17.0586 41.9079 17.4087 41.8522 17.6816 41.7729C17.8105 41.7355 17.9922 41.6736 18.163 41.5634C18.3018 41.4738 18.7052 41.1723 18.7052 40.602H16.6425ZM16.4539 39.9005C15.7538 39.9693 15.0475 40.0038 14.3348 40.0038V42.0665C15.1142 42.0665 15.8879 42.0288 16.6558 41.9533L16.4539 39.9005ZM14.3348 40.0038C13.9791 40.0038 13.7024 39.9964 13.4984 39.9833C13.2713 39.9688 13.2018 39.9507 13.218 39.9555L12.636 41.9344C12.8567 41.9993 13.1242 42.0263 13.3664 42.0418C13.6316 42.0588 13.9565 42.0665 14.3348 42.0665V40.0038ZM13.2891 39.9792C13.2992 39.983 13.3985 40.021 13.4993 40.1407C13.6155 40.2787 13.6696 40.4494 13.6696 40.602H11.6069C11.6069 40.911 11.709 41.217 11.9215 41.4694C12.1186 41.7034 12.3623 41.8346 12.5649 41.9106L13.2891 39.9792ZM13.6696 40.602V32.841H11.6069V40.602H13.6696ZM12.6382 31.8097H10.1294V33.8724H12.6382V31.8097ZM10.1294 31.8097C10.5605 31.8097 10.771 32.0959 10.7979 32.1356C10.831 32.1844 10.8146 32.1798 10.7782 32.0523L8.79484 32.619C8.85467 32.8284 8.94358 33.0765 9.09102 33.2938C9.23225 33.5019 9.56603 33.8724 10.1294 33.8724V31.8097ZM10.7782 32.0523C10.7222 31.8562 10.6735 31.4725 10.6735 30.8376H8.61077C8.61077 31.5262 8.65836 32.1413 8.79484 32.619L10.7782 32.0523ZM10.6735 30.8376C10.6735 30.2355 10.7382 29.7277 10.8537 29.3041L8.8637 28.7613C8.69044 29.3966 8.61077 30.0921 8.61077 30.8376H10.6735ZM10.8553 29.2985C10.8826 29.1958 10.908 29.1224 10.9287 29.0726C10.9501 29.021 10.9604 29.0094 10.9519 29.0213C10.9439 29.0326 10.9015 29.0896 10.8114 29.1459C10.7122 29.2079 10.5814 29.2519 10.4363 29.2519V27.1892C9.86509 27.1892 9.48104 27.5303 9.27089 27.8259C9.07061 28.1075 8.94739 28.4474 8.86218 28.767L10.8553 29.2985ZM10.4363 29.2519H20.2007V27.1892H10.4363V29.2519ZM20.2007 29.2519C20.0779 29.2519 19.9445 29.2212 19.8208 29.152C19.7019 29.0854 19.6278 29.0033 19.587 28.9463C19.5184 28.8502 19.5278 28.8031 19.5463 28.9072L21.5769 28.5446C21.5354 28.3118 21.4545 28.012 21.2655 27.7474C21.0445 27.438 20.6766 27.1892 20.2007 27.1892V29.2519ZM19.5532 28.942C19.6024 29.1715 19.6386 29.5725 19.6386 30.1878H21.7013C21.7013 29.5277 21.6653 28.9541 21.5701 28.5098L19.5532 28.942ZM19.6386 30.1878C19.6386 30.7541 19.5798 31.2763 19.4672 31.7577L21.4756 32.2277C21.6277 31.5781 21.7013 30.897 21.7013 30.1878H19.6386ZM19.4672 31.7577C19.4412 31.8687 19.4164 31.9501 19.3955 32.007C19.3737 32.0659 19.3618 32.0829 19.3674 32.074C19.3718 32.0671 19.4122 32.0044 19.506 31.9396C19.6113 31.8667 19.7591 31.8097 19.9299 31.8097V33.8724C20.543 33.8724 20.9218 33.4727 21.1061 33.1838C21.2888 32.8977 21.3993 32.5537 21.4756 32.2277L19.4672 31.7577ZM19.9299 31.8097H17.6738V33.8724H19.9299V31.8097ZM16.6425 32.841V40.602H18.7052V32.841H16.6425ZM25.279 40.9269L25.0091 41.9223L25.0189 41.9249L25.0289 41.9274L25.279 40.9269ZM23.3117 39.9161L23.956 39.1107L23.9471 39.1038L23.3117 39.9161ZM21.9761 31.4874L21.0184 31.1043L21.0138 31.1162L21.9761 31.4874ZM23.3658 29.4839L22.7056 28.6916L22.704 28.6929L23.3658 29.4839ZM30.3327 28.2927L30.0907 29.2953L30.0945 29.2962L30.3327 28.2927ZM32.3361 29.2132L32.9408 28.3777L32.934 28.3729L32.3361 29.2132ZM32.5166 39.5552L33.23 40.2999L32.5166 39.5552ZM27.2644 38.1113L26.459 38.7555L26.4699 38.7692L26.4813 38.7825L27.2644 38.1113ZM28.4556 38.1113L29.2387 38.7825L29.25 38.7692L29.2609 38.7555L28.4556 38.1113ZM28.8166 36.9922L29.8333 37.1653L29.8339 37.1618L28.8166 36.9922ZM28.8166 32.2274L29.8327 32.0506L28.8166 32.2274ZM27.2644 31.1444L28.0474 31.8156V31.8156L27.2644 31.1444ZM26.9034 32.2274L27.9195 32.4041L27.9195 32.4041L26.9034 32.2274ZM26.9034 36.9922L25.8861 37.1618L25.8867 37.1653L26.9034 36.9922ZM27.86 40.1662C26.9189 40.1662 26.1469 40.0807 25.5291 39.9263L25.0289 41.9274C25.855 42.134 26.8037 42.229 27.86 42.229V40.1662ZM25.5489 39.9315C24.982 39.7777 24.4525 39.508 23.956 39.1108L22.6674 40.7215C23.3741 41.2869 24.1562 41.691 25.0091 41.9223L25.5489 39.9315ZM23.9471 39.1038C23.1186 38.4557 22.5201 37.0535 22.5201 34.4474H20.4574C20.4574 37.2317 21.0742 39.4754 22.6763 40.7285L23.9471 39.1038ZM22.5201 34.4474C22.5201 33.4123 22.6691 32.5566 22.9383 31.8585L21.0138 31.1162C20.6333 32.1026 20.4574 33.2202 20.4574 34.4474H22.5201ZM22.9337 31.8704C23.2186 31.1579 23.5906 30.6407 24.0277 30.2749L22.704 28.6929C21.9619 29.3139 21.4073 30.1322 21.0185 31.1043L22.9337 31.8704ZM24.0261 30.2762C24.9569 29.5005 26.2042 29.0714 27.86 29.0714V27.0087C25.8338 27.0087 24.085 27.5421 22.7056 28.6916L24.0261 30.2762ZM27.86 29.0714C28.7536 29.0714 29.4928 29.151 30.0907 29.2953L30.5747 27.2902C29.7768 27.0976 28.8675 27.0087 27.86 27.0087V29.0714ZM30.0945 29.2962C30.6684 29.4324 31.215 29.6813 31.7381 30.0535L32.934 28.3729C32.2058 27.8547 31.4167 27.49 30.5708 27.2892L30.0945 29.2962ZM31.7314 30.0487C32.5902 30.6703 33.1998 31.9876 33.1998 34.4474H35.2626C35.2626 31.7572 34.6088 29.585 32.9408 28.3777L31.7314 30.0487ZM33.1998 34.4474C33.1998 36.6063 32.6653 37.9845 31.8031 38.8104L33.23 40.2999C34.654 38.9359 35.2626 36.9089 35.2626 34.4474H33.1998ZM31.8031 38.8104C30.8954 39.6798 29.6223 40.1662 27.86 40.1662V42.229C30.0203 42.229 31.8515 41.6204 33.23 40.2999L31.8031 38.8104ZM26.4813 38.7825C26.8501 39.2127 27.3529 39.3953 27.86 39.3953V37.3326C27.8486 37.3326 27.8763 37.3309 27.9244 37.3513C27.9759 37.3732 28.0191 37.407 28.0474 37.4401L26.4813 38.7825ZM27.86 39.3953C28.3671 39.3953 28.8699 39.2127 29.2387 38.7825L27.6725 37.4401C27.7008 37.407 27.744 37.3732 27.7956 37.3513C27.8437 37.3309 27.8714 37.3326 27.86 37.3326V39.3953ZM29.2609 38.7555C29.4472 38.5227 29.56 38.2473 29.6357 38.0128C29.7162 37.7632 29.7803 37.4766 29.8333 37.1653L27.7998 36.8192C27.7566 37.0734 27.7124 37.256 27.6726 37.3795C27.6279 37.518 27.6084 37.5193 27.6502 37.467L29.2609 38.7555ZM29.8339 37.1618C29.9439 36.5017 29.9923 35.6361 29.9923 34.5917H27.9296C27.9296 35.593 27.8817 36.3276 27.7992 36.8227L29.8339 37.1618ZM29.9923 34.5917C29.9923 33.5494 29.9442 32.6917 29.8327 32.0506L27.8005 32.4041C27.8815 32.87 27.9296 33.5885 27.9296 34.5917H29.9923ZM29.8327 32.0506C29.7795 31.7447 29.7147 31.4617 29.6326 31.2154C29.556 30.9858 29.4385 30.7064 29.2387 30.4732L27.6725 31.8156C27.639 31.7765 27.6298 31.754 27.6369 31.7681C27.643 31.7804 27.6569 31.8114 27.6757 31.8676C27.7139 31.9823 27.7574 32.1565 27.8005 32.4041L29.8327 32.0506ZM29.2387 30.4732C28.8699 30.043 28.3671 29.8604 27.86 29.8604V31.9231C27.8714 31.9231 27.8437 31.9248 27.7956 31.9044C27.744 31.8825 27.7008 31.8487 27.6725 31.8156L29.2387 30.4732ZM27.86 29.8604C27.3529 29.8604 26.8501 30.043 26.4813 30.4732L28.0474 31.8156C28.0191 31.8487 27.9759 31.8825 27.9244 31.9044C27.8763 31.9248 27.8486 31.9231 27.86 31.9231V29.8604ZM26.4813 30.4732C26.2815 30.7064 26.1639 30.9858 26.0874 31.2154C26.0053 31.4617 25.9405 31.7447 25.8873 32.0506L27.9195 32.4041C27.9625 32.1565 28.006 31.9823 28.0443 31.8676C28.063 31.8114 28.0769 31.7804 28.0831 31.7681C28.0901 31.754 28.081 31.7765 28.0474 31.8156L26.4813 30.4732ZM25.8873 32.0506C25.7758 32.6917 25.7276 33.5494 25.7276 34.5917H27.7904C27.7904 33.5885 27.8385 32.87 27.9195 32.4041L25.8873 32.0506ZM25.7276 34.5917C25.7276 35.6361 25.7761 36.5017 25.8861 37.1618L27.9207 36.8227C27.8382 36.3276 27.7904 35.593 27.7904 34.5917H25.7276ZM25.8867 37.1653C25.9396 37.4766 26.0038 37.7632 26.0843 38.0128C26.1599 38.2473 26.2727 38.5227 26.459 38.7555L28.0697 37.467C28.1116 37.5193 28.0921 37.518 28.0474 37.3795C28.0076 37.256 27.9634 37.0734 27.9201 36.8192L25.8867 37.1653ZM38.6818 40.9088L38.2456 41.8434H38.2456L38.6818 40.9088ZM38.3027 40.4756L39.2753 40.1324L39.2724 40.1243L38.3027 40.4756ZM34.314 29.4659H33.2826V29.647L33.3443 29.8172L34.314 29.4659ZM35.5954 28.6717L35.2571 27.6974L35.2529 27.6989L35.5954 28.6717ZM40.0174 29.2854L38.9913 29.3897L38.9919 29.3954L40.0174 29.2854ZM40.631 35.0069L39.6056 35.1169L39.7044 36.0382H40.631V35.0069ZM40.8837 35.0069V36.0382H41.828L41.9111 35.0976L40.8837 35.0069ZM41.3891 29.2854L42.4165 29.3761L42.4168 29.3725L41.3891 29.2854ZM45.0349 28.4732L44.3793 29.2693L44.3937 29.2812L44.4084 29.2925L45.0349 28.4732ZM45.3779 29.1049L44.3507 29.1983L44.3517 29.2085L45.3779 29.1049ZM45.9735 35.0069L44.9473 35.1104L45.041 36.0382H45.9735V35.0069ZM46.2262 35.0069V36.0382H47.1764L47.2541 35.0912L46.2262 35.0069ZM46.6954 29.2854L45.6695 29.1793L45.6684 29.1902L45.6675 29.2011L46.6954 29.2854ZM47.9227 28.4913L47.6942 27.4855L47.6908 27.4863L47.9227 28.4913ZM51.8574 28.5634L51.2005 29.3586L51.2088 29.3654L51.2172 29.3721L51.8574 28.5634ZM52.2906 29.2854L53.2655 29.6219L53.3219 29.4584V29.2854H52.2906ZM48.4281 40.4756L49.4001 40.8206L49.403 40.8121L48.4281 40.4756ZM44.4213 40.4756L45.4107 40.1846L45.4095 40.1803L44.4213 40.4756ZM43.4827 37.3352L44.4709 37.0398L44.251 36.3038H43.4827V37.3352ZM43.2662 37.3352V36.3038H42.5022L42.2796 37.0346L43.2662 37.3352ZM42.3096 40.4756L41.3229 40.1751L41.3191 40.1881L42.3096 40.4756ZM39.8188 40.0038C39.5509 40.0038 39.3531 39.9938 39.2153 39.9785C39.1471 39.9709 39.1042 39.9632 39.0815 39.9581C39.0551 39.9521 39.074 39.9537 39.1179 39.9742L38.2456 41.8434C38.4925 41.9586 38.769 42.0043 38.9875 42.0286C39.2288 42.0554 39.5092 42.0665 39.8188 42.0665V40.0038ZM39.1179 39.9742C39.1525 39.9903 39.193 40.0184 39.2278 40.0582C39.2614 40.0965 39.2735 40.1273 39.2753 40.1324L37.3302 40.8189C37.4855 41.2589 37.7905 41.631 38.2456 41.8434L39.1179 39.9742ZM39.2724 40.1243L35.2836 29.1146L33.3443 29.8172L37.3331 40.827L39.2724 40.1243ZM35.3453 29.4659C35.3453 29.7443 35.2143 29.916 35.1738 29.9628C35.1326 30.0103 35.117 30.0101 35.1776 29.9726C35.2967 29.8988 35.5347 29.7866 35.938 29.6446L35.2529 27.6989C34.8019 27.8577 34.3992 28.0283 34.091 28.2192C33.9381 28.314 33.7623 28.4417 33.6144 28.6125C33.4671 28.7827 33.2826 29.0731 33.2826 29.4659H35.3453ZM35.9337 29.646C36.6961 29.3813 37.4543 29.2519 38.2125 29.2519V27.1892C37.214 27.1892 36.2274 27.3605 35.2571 27.6974L35.9337 29.646ZM38.2125 29.2519C38.6963 29.2519 38.9156 29.3324 38.9879 29.375C39.013 29.3898 39.0048 29.3906 38.9924 29.371C38.9805 29.3521 38.9873 29.3501 38.9913 29.3897L41.0434 29.1811C40.975 28.5081 40.6265 27.9468 40.0361 27.5985C39.5068 27.2862 38.8597 27.1892 38.2125 27.1892V29.2519ZM38.9919 29.3954L39.6056 35.1169L41.6565 34.8969L41.0429 29.1754L38.9919 29.3954ZM40.631 36.0382H40.8837V33.9755H40.631V36.0382ZM41.9111 35.0976L42.4165 29.3761L40.3617 29.1947L39.8564 34.9161L41.9111 35.0976ZM42.4168 29.3725C42.4149 29.395 42.401 29.439 42.373 29.4731C42.3533 29.4973 42.3612 29.4734 42.4564 29.4318C42.6682 29.3392 43.0934 29.2519 43.8257 29.2519V27.1892C42.9937 27.1892 42.2307 27.2793 41.6303 27.5417C40.9774 27.827 40.4317 28.3688 40.3614 29.1983L42.4168 29.3725ZM43.8257 29.2519C44.0849 29.2519 44.2598 29.2706 44.3683 29.2932C44.4885 29.3184 44.4578 29.334 44.3793 29.2693L45.6906 27.6771C45.4075 27.444 45.0731 27.3332 44.7902 27.2741C44.4955 27.2126 44.1681 27.1892 43.8257 27.1892V29.2519ZM44.4084 29.2925C44.4042 29.2892 44.3848 29.2721 44.3677 29.2405C44.3509 29.2096 44.35 29.1903 44.3507 29.1983L46.405 29.0115C46.3558 28.47 46.1034 27.9919 45.6614 27.6539L44.4084 29.2925ZM44.3517 29.2085L44.9473 35.1104L46.9996 34.9033L46.404 29.0014L44.3517 29.2085ZM45.9735 36.0382H46.2262V33.9755H45.9735V36.0382ZM47.2541 35.0912L47.7233 29.3697L45.6675 29.2011L45.1983 34.9226L47.2541 35.0912ZM47.7213 29.3915C47.7102 29.4991 47.6692 29.5872 47.6272 29.6451C47.5903 29.6961 47.565 29.707 47.5896 29.6911C47.6137 29.6755 47.6682 29.6455 47.7672 29.6085C47.8647 29.5721 47.9922 29.5337 48.1547 29.4962L47.6908 27.4863C47.2485 27.5884 46.8183 27.7333 46.469 27.9593C46.1099 28.1917 45.7309 28.5858 45.6695 29.1793L47.7213 29.3915ZM48.1513 29.497C48.8748 29.3325 49.5802 29.2519 50.2691 29.2519V27.1892C49.4178 27.1892 48.559 27.289 47.6942 27.4855L48.1513 29.497ZM50.2691 29.2519C50.6162 29.2519 50.8657 29.2778 51.0351 29.3144C51.2136 29.3529 51.2378 29.3894 51.2005 29.3586L52.5142 27.7683C52.2002 27.5089 51.8213 27.3739 51.4704 27.2981C51.1103 27.2204 50.7041 27.1892 50.2691 27.1892V29.2519ZM51.2172 29.3721C51.2536 29.4009 51.2763 29.4229 51.2891 29.4367C51.3018 29.4505 51.3026 29.454 51.2979 29.446C51.2928 29.4376 51.2825 29.418 51.2736 29.3878C51.2646 29.357 51.2592 29.322 51.2592 29.2854H53.3219C53.3219 28.5932 52.916 28.0861 52.4976 27.7548L51.2172 29.3721ZM51.3156 28.9489L47.4532 40.1391L49.403 40.8121L53.2655 29.6219L51.3156 28.9489ZM47.4561 40.1307C47.4975 40.0142 47.5595 39.9324 47.6086 39.8826C47.6551 39.8355 47.6902 39.8165 47.6917 39.8156C47.6941 39.8143 47.6776 39.8234 47.6339 39.838C47.5911 39.8522 47.5308 39.8688 47.4496 39.8858C47.1086 39.9573 46.5574 40.0038 45.7569 40.0038V42.0665C46.6049 42.0665 47.3231 42.0198 47.8725 41.9047C48.1453 41.8476 48.4298 41.7631 48.6817 41.6252C48.929 41.49 49.2498 41.244 49.4001 40.8205L47.4561 40.1307ZM45.7569 40.0038C45.5353 40.0038 45.3761 39.9941 45.2689 39.9805C45.2162 39.9738 45.1862 39.9673 45.174 39.9642C45.1593 39.9605 45.1819 39.9646 45.2254 39.9863L44.303 41.8313C44.5419 41.9507 44.8024 42.0004 45.0085 42.0267C45.2323 42.0552 45.4852 42.0665 45.7569 42.0665V40.0038ZM45.2254 39.9863C45.2731 40.0102 45.322 40.0482 45.3608 40.0972C45.3976 40.1437 45.4093 40.1798 45.4107 40.1846L43.4318 40.7667C43.561 41.2059 43.8434 41.6015 44.303 41.8313L45.2254 39.9863ZM45.4095 40.1803L44.4709 37.0398L42.4946 37.6305L43.4331 40.771L45.4095 40.1803ZM43.4827 36.3038H43.2662V38.3665H43.4827V36.3038ZM42.2796 37.0346L41.323 40.1751L43.2962 40.7762L44.2528 37.6357L42.2796 37.0346ZM41.3191 40.1881C41.3899 39.9442 41.5493 39.8438 41.5649 39.8345C41.5783 39.8265 41.5332 39.8545 41.3796 39.889C41.076 39.9572 40.5702 40.0038 39.8188 40.0038V42.0665C40.6197 42.0665 41.3051 42.0199 41.8317 41.9016C42.0933 41.8428 42.373 41.7542 42.6211 41.6063C42.8713 41.4572 43.1751 41.1936 43.3 40.7632L41.3191 40.1881ZM57.1028 40.8908L56.9708 39.8679L56.9687 39.8682L57.1028 40.8908ZM53.4931 40.9088L53.8857 39.9551L53.4931 40.9088ZM54.215 28.5995L53.8639 27.6298L53.8585 27.6318L54.215 28.5995ZM57.2833 28.2566L57.1265 29.276L57.1332 29.277L57.2833 28.2566ZM58.1496 29.0327L57.1819 29.3893L57.183 29.3924L58.1496 29.0327ZM59.8823 33.6893L58.9157 34.049L59.1656 34.7207H59.8823V33.6893ZM59.9545 33.6893V34.7207H60.9859V33.6893H59.9545ZM60.9833 28.5995L61.3398 29.5673L60.9833 28.5995ZM64.7735 28.6537L65.6161 28.0589L65.6152 28.0575L64.7735 28.6537ZM63.8711 40.8908L63.7391 39.8679L63.737 39.8682L63.8711 40.8908ZM59.9906 40.6922L60.9584 40.3357L60.9553 40.3275L59.9906 40.6922ZM58.3121 36.2522L59.2768 35.8875L59.0248 35.2209H58.3121V36.2522ZM58.2218 36.2522V35.2209H57.1905V36.2522H58.2218ZM57.1905 40.5117C57.1905 40.0922 57.4504 39.861 57.5288 39.8015C57.6107 39.7395 57.6608 39.7302 57.6112 39.747C57.5236 39.7766 57.3254 39.8221 56.9708 39.8679L57.2348 41.9136C57.6262 41.8631 57.9875 41.7973 58.2729 41.7007C58.4099 41.6543 58.5999 41.578 58.7749 41.4453C58.9466 41.3152 59.2532 41.0095 59.2532 40.5117H57.1905ZM56.9687 39.8682C56.2788 39.9586 55.5896 40.0038 54.9009 40.0038V42.0665C55.6801 42.0665 56.4589 42.0154 57.2369 41.9134L56.9687 39.8682ZM54.9009 40.0038C54.5497 40.0038 54.2827 39.9936 54.0906 39.9763C53.9949 39.9678 53.9286 39.9583 53.8862 39.9504C53.838 39.9414 53.8463 39.9389 53.8857 39.9551L53.1004 41.8625C53.3562 41.9678 53.6577 42.0085 53.9062 42.0308C54.1834 42.0557 54.518 42.0665 54.9009 42.0665V40.0038ZM53.8857 39.9551C53.8983 39.9603 53.9897 40.0002 54.079 40.1158C54.1788 40.2448 54.2176 40.393 54.2176 40.5117H52.1549C52.1549 40.811 52.2448 41.1156 52.4468 41.377C52.6384 41.6249 52.8833 41.7731 53.1004 41.8625L53.8857 39.9551ZM54.2176 40.5117V29.4298H52.1549V40.5117H54.2176ZM54.2176 29.4298C54.2176 29.5608 54.1778 29.6671 54.1373 29.7352C54.1014 29.7958 54.0727 29.8141 54.0911 29.7992C54.1084 29.7852 54.1524 29.7541 54.2368 29.7106C54.3198 29.6679 54.4298 29.6195 54.5715 29.5673L53.8585 27.6318C53.47 27.7749 53.0933 27.9539 52.7957 28.194C52.4982 28.4341 52.1549 28.8436 52.1549 29.4298H54.2176ZM54.5661 29.5693C55.1329 29.3641 55.7993 29.2519 56.5794 29.2519V27.1892C55.6027 27.1892 54.6929 27.3296 53.8639 27.6298L54.5661 29.5693ZM56.5794 29.2519C56.88 29.2519 57.0505 29.2643 57.1265 29.276L57.4401 27.2373C57.2032 27.2008 56.9045 27.1892 56.5794 27.1892V29.2519ZM57.1332 29.277C57.1467 29.279 57.1468 29.2806 57.139 29.2771C57.1306 29.2732 57.123 29.2679 57.1185 29.264C57.1094 29.2558 57.1412 29.2789 57.1819 29.3893L59.1174 28.6762C58.8464 27.9406 58.2897 27.3622 57.4334 27.2362L57.1332 29.277ZM57.183 29.3924L58.9157 34.049L60.8489 33.3296L59.1162 28.673L57.183 29.3924ZM59.8823 34.7207H59.9545V32.6579H59.8823V34.7207ZM60.9859 33.6893V29.4298H58.9232V33.6893H60.9859ZM60.9859 29.4298C60.9859 29.5608 60.9461 29.6671 60.9056 29.7352C60.8697 29.7958 60.841 29.8141 60.8594 29.7992C60.8767 29.7852 60.9207 29.7541 61.0051 29.7106C61.0881 29.6679 61.1981 29.6195 61.3398 29.5673L60.6268 27.6318C60.2383 27.7749 59.8616 27.9539 59.564 28.194C59.2664 28.4341 58.9232 28.8436 58.9232 29.4298H60.9859ZM61.3398 29.5673C61.8911 29.3642 62.5491 29.2519 63.3296 29.2519V27.1892C62.3535 27.1892 61.4472 27.3295 60.6268 27.6318L61.3398 29.5673ZM63.3296 29.2519C63.6538 29.2519 63.8539 29.284 63.9628 29.3167C64.0733 29.3498 64.0084 29.3578 63.9319 29.2498L65.6152 28.0575C65.3341 27.6608 64.9263 27.4522 64.5555 27.341C64.1831 27.2292 63.7635 27.1892 63.3296 27.1892V29.2519ZM63.931 29.2485C63.948 29.2726 63.9591 29.2909 63.9661 29.3034C63.973 29.3159 63.9749 29.3212 63.9742 29.3193C63.9727 29.3155 63.9588 29.2777 63.9588 29.2132H66.0215C66.0215 28.7511 65.8268 28.3573 65.6161 28.0589L63.931 29.2485ZM63.9588 29.2132V40.5117H66.0215V29.2132H63.9588ZM63.9588 40.5117C63.9588 40.0922 64.2187 39.861 64.2971 39.8015C64.379 39.7395 64.4291 39.7302 64.3795 39.747C64.2919 39.7766 64.0937 39.8221 63.7391 39.8679L64.0031 41.9136C64.3945 41.8631 64.7558 41.7973 65.0412 41.7007C65.1781 41.6543 65.3682 41.578 65.5432 41.4453C65.7149 41.3152 66.0215 41.0095 66.0215 40.5117H63.9588ZM63.737 39.8682C63.0553 39.9576 62.2887 40.0038 61.4345 40.0038V42.0665C62.3611 42.0665 63.2189 42.0165 64.0052 41.9134L63.737 39.8682ZM61.4345 40.0038C61.024 40.0038 60.7777 39.9756 60.6531 39.946C60.5908 39.9312 60.6083 39.9272 60.663 39.9604C60.721 39.9956 60.8741 40.1069 60.9584 40.3357L59.0228 41.0488C59.1492 41.3919 59.3941 41.6032 59.5935 41.7241C59.7895 41.843 59.9981 41.9105 60.1764 41.9529C60.5331 42.0376 60.9667 42.0665 61.4345 42.0665V40.0038ZM60.9553 40.3275L59.2768 35.8875L57.3474 36.6169L59.0259 41.0569L60.9553 40.3275ZM58.3121 35.2209H58.2218V37.2836H58.3121V35.2209ZM57.1905 36.2522V40.5117H59.2532V36.2522H57.1905Z" fill="#F67F00" mask="url(#path-2-outside-1_4042_34413)"/>
</svg>
