<svg width="75" height="54" viewBox="0 0 75 54" fill="none" xmlns="http://www.w3.org/2000/svg">
<path d="M49.1876 1.62109C59.0413 1.62109 65.6622 11.0335 65.6622 19.8143C65.6622 37.5968 38.1839 52.1577 37.6865 52.1577C37.1892 52.1577 9.71094 37.5968 9.71094 19.8143C9.71094 11.0335 16.3318 1.62109 26.1855 1.62109C31.8428 1.62109 35.5417 4.49536 37.6865 7.02219C39.8313 4.49536 43.5303 1.62109 49.1876 1.62109Z" fill="white" stroke="#F67F00" stroke-width="2.70732" stroke-linecap="round" stroke-linejoin="round"/>
<mask id="path-2-outside-1_3700_12121" maskUnits="userSpaceOnUse" x="1.5" y="8.03516" width="72" height="36" fill="black">
<rect fill="white" x="1.5" y="8.03516" width="72" height="36"/>
<path d="M8.42024 22.4756C8.42024 22.6321 8.04723 22.7584 7.30122 22.8547C6.56723 22.9509 5.83325 22.9991 5.09927 22.9991C4.36528 22.9991 3.89601 22.9569 3.69146 22.8727C3.48691 22.7885 3.38463 22.6561 3.38463 22.4756V11.4117C3.38463 11.0989 3.72154 10.8221 4.39536 10.5815C5.08122 10.3408 5.86935 10.2205 6.75975 10.2205C7.49374 10.2205 7.96902 10.3649 8.18561 10.6537C8.34203 10.8582 8.42024 11.0447 8.42024 11.2132V14.1913H8.56463C8.56463 14.1311 8.74512 13.6317 9.1061 12.6932C9.79195 10.9244 10.2913 10.04 10.6041 10.04C11.1937 10.04 12.024 10.2145 13.0949 10.5634C13.6123 10.7319 14.0575 10.9786 14.4305 11.3034C14.8035 11.6163 14.99 11.9652 14.99 12.3503C14.99 12.5909 14.7433 13.0602 14.25 13.7581C13.7687 14.4439 13.0347 15.3644 12.048 16.5195C12.2767 16.7602 12.5654 17.067 12.9144 17.44C13.2633 17.813 13.7266 18.3726 14.3041 19.1186C14.8937 19.8526 15.1885 20.376 15.1885 20.6888C15.1885 21.0017 14.9058 21.3687 14.3402 21.7898C13.7747 22.1989 13.1731 22.5358 12.5354 22.8005C11.8976 23.0532 11.4224 23.1795 11.1095 23.1795C10.905 23.1795 10.6222 22.8727 10.2612 22.2591C9.91228 21.6334 9.48512 20.7008 8.97976 19.4615L8.42024 20.1293V22.4756ZM21.2165 22.602C21.2165 22.7343 20.8496 22.8426 20.1156 22.9269C19.3816 22.9991 18.6416 23.0352 17.8956 23.0352C17.1616 23.0352 16.6923 23.0051 16.4878 22.9449C16.2832 22.8727 16.1809 22.7584 16.1809 22.602V11.3756C16.1809 11.1109 16.5299 10.8522 17.2278 10.5995C17.9257 10.3348 18.7078 10.2025 19.5741 10.2025C20.3442 10.2025 20.8496 10.3649 21.0902 10.6898C21.1744 10.8101 21.2165 10.9304 21.2165 11.0508V22.602ZM27.7028 22.5117C27.7028 22.6682 27.3298 22.7945 26.5838 22.8908C25.8498 22.987 25.1158 23.0352 24.3819 23.0352C23.6479 23.0352 23.1786 22.993 22.974 22.9088C22.7695 22.8246 22.6672 22.6922 22.6672 22.5117V11.4298C22.6672 11.129 23.0101 10.8522 23.696 10.5995C24.3939 10.3469 25.182 10.2205 26.0604 10.2205C26.3732 10.2205 26.6079 10.2326 26.7643 10.2566C27.1734 10.3168 27.4622 10.5755 27.6306 11.0327L29.3633 15.6893H29.4355V11.4298C29.4355 11.129 29.7784 10.8522 30.4643 10.5995C31.1501 10.3469 31.9323 10.2205 32.8106 10.2205C33.5687 10.2205 34.05 10.3649 34.2545 10.6537C34.3989 10.8582 34.4711 11.0447 34.4711 11.2132V22.5117C34.4711 22.6682 34.0981 22.7945 33.3521 22.8908C32.6181 22.987 31.8059 23.0352 30.9155 23.0352C30.0371 23.0352 29.5558 22.9208 29.4716 22.6922L27.7931 18.2522H27.7028V22.5117ZM41.6793 23.0352H37.4198C36.8302 23.0352 36.4332 22.993 36.2286 22.9088C36.0241 22.8246 35.9218 22.6862 35.9218 22.4937V11.1049C35.9218 10.7921 36.0541 10.5695 36.3189 10.4371C36.5836 10.2927 37.0408 10.2205 37.6906 10.2205H41.7515C44.0618 10.2205 45.6561 10.6778 46.5345 11.5922C47.4128 12.4947 47.852 14.1431 47.852 16.5376C47.852 18.9321 47.3948 20.6166 46.4803 21.5913C45.5659 22.5539 43.9655 23.0352 41.6793 23.0352ZM41.535 12.9098C41.2462 12.9098 41.0537 12.9339 40.9574 12.982V20.2737L41.6433 20.3459C42.0042 20.3459 42.275 20.0571 42.4554 19.4795C42.648 18.902 42.7442 17.9033 42.7442 16.4834C42.7442 15.0636 42.648 14.113 42.4554 13.6317C42.2629 13.1504 41.9561 12.9098 41.535 12.9098ZM58.2742 23.0352H50.6215C50.0319 23.0352 49.6349 22.993 49.4303 22.9088C49.2258 22.8246 49.1235 22.6922 49.1235 22.5117V11.0869C49.1235 10.774 49.2619 10.5514 49.5386 10.4191C49.8274 10.2867 50.3388 10.2205 51.0728 10.2205H58.3284C58.581 10.2205 58.7074 10.6417 58.7074 11.4839C58.7074 12.3142 58.6532 12.9519 58.545 13.3971C58.4367 13.8303 58.2923 14.0469 58.1118 14.0469C57.3297 14.0469 56.0121 13.9687 54.1591 13.8122V15.0215C55.9399 14.9493 57.101 14.9132 57.6425 14.9132C57.9674 14.9132 58.1298 15.2922 58.1298 16.0503C58.1298 16.8083 58.0636 17.3859 57.9313 17.783C57.811 18.168 57.6425 18.3605 57.4259 18.3605L54.1591 18.2883V19.4434C56.2528 19.287 57.6967 19.2088 58.4908 19.2088C58.7435 19.2088 58.8698 19.63 58.8698 20.4722C58.8698 21.3145 58.8157 21.9522 58.7074 22.3854C58.5991 22.8186 58.4547 23.0352 58.2742 23.0352ZM65.1932 22.5117C65.1932 22.6682 64.8263 22.7945 64.0923 22.8908C63.3583 22.987 62.6183 23.0352 61.8723 23.0352C61.1383 23.0352 60.663 22.993 60.4464 22.9088C60.2419 22.8246 60.1396 22.6922 60.1396 22.5117V10.9064C60.1396 10.5935 60.5306 10.3709 61.3128 10.2386C62.1069 10.1062 63.1056 10.04 64.3089 10.04C65.5121 10.04 66.2882 10.046 66.6371 10.0581C66.9981 10.0581 67.4193 10.0761 67.9006 10.1122C68.3819 10.1483 68.7609 10.2085 69.0376 10.2927C69.3264 10.3769 69.6393 10.4852 69.9762 10.6176C70.3251 10.75 70.5958 10.9244 70.7884 11.141C70.9809 11.3456 71.1674 11.5922 71.3479 11.881C71.6728 12.3984 71.8352 13.1384 71.8352 14.101C71.8352 15.0516 71.6728 15.8578 71.3479 16.5195C71.035 17.1693 70.6139 17.6626 70.0845 17.9995C71.4682 20.1774 72.1601 21.5612 72.1601 22.1508C72.1601 22.7404 70.9749 23.0352 68.6045 23.0352C67.9186 23.0352 67.4433 23.0051 67.1786 22.9449C66.9139 22.8847 66.7454 22.7524 66.6732 22.5478L65.5001 18.8298L65.1932 18.8117V22.5117ZM65.1932 16.0322H65.6625C66.3604 16.0322 66.7093 15.4908 66.7093 14.4078C66.7093 13.8543 66.6131 13.4633 66.4206 13.2347C66.2401 13.006 66.0295 12.8917 65.7889 12.8917H65.1932V16.0322ZM17.6738 41.602C17.6738 41.7343 17.3008 41.8426 16.5548 41.9269C15.8208 41.9991 15.0808 42.0352 14.3348 42.0352C13.6008 42.0352 13.1316 42.0051 12.927 41.9449C12.7345 41.8727 12.6382 41.7584 12.6382 41.602V33.841H10.1294C9.99709 33.841 9.88278 33.6726 9.78652 33.3356C9.69026 32.9987 9.64213 32.4994 9.64213 31.8376C9.64213 31.1638 9.71433 30.5621 9.85872 30.0327C10.0031 29.4913 10.1956 29.2205 10.4363 29.2205H20.2007C20.3812 29.2205 20.5015 29.389 20.5616 29.7259C20.6338 30.0628 20.6699 30.5501 20.6699 31.1878C20.6699 31.8256 20.6038 32.4272 20.4714 32.9927C20.339 33.5582 20.1586 33.841 19.9299 33.841H17.6738V41.602ZM27.86 42.1976C26.8613 42.1976 26.001 42.1074 25.279 41.9269C24.5691 41.7343 23.9133 41.3974 23.3117 40.9161C22.0964 39.9656 21.4888 38.1426 21.4888 35.4474C21.4888 34.3163 21.6512 33.3296 21.9761 32.4874C22.313 31.6451 22.7762 30.9773 23.3658 30.4839C24.521 29.5213 26.019 29.04 27.86 29.04C28.8105 29.04 29.6348 29.1243 30.3327 29.2927C31.0426 29.4612 31.7104 29.768 32.3361 30.2132C33.5995 31.1277 34.2312 32.8724 34.2312 35.4474C34.2312 37.7576 33.6597 39.4602 32.5166 40.5552C31.3735 41.6501 29.8213 42.1976 27.86 42.1976ZM27.2644 39.1113C27.4088 39.2797 27.6073 39.3639 27.86 39.3639C28.1127 39.3639 28.3112 39.2797 28.4556 39.1113C28.6 38.9308 28.7203 38.5578 28.8166 37.9922C28.9128 37.4147 28.961 36.6145 28.961 35.5917C28.961 34.569 28.9128 33.7808 28.8166 33.2274C28.7203 32.6739 28.6 32.3129 28.4556 32.1444C28.3112 31.976 28.1127 31.8917 27.86 31.8917C27.6073 31.8917 27.4088 31.976 27.2644 32.1444C27.12 32.3129 26.9997 32.6739 26.9034 33.2274C26.8071 33.7808 26.759 34.569 26.759 35.5917C26.759 36.6145 26.8071 37.4147 26.9034 37.9922C26.9997 38.5578 27.12 38.9308 27.2644 39.1113ZM39.8188 42.0352C39.2413 42.0352 38.8623 41.993 38.6818 41.9088C38.5013 41.8246 38.3749 41.6802 38.3027 41.4756L34.314 30.4659C34.314 30.2373 34.7411 29.9726 35.5954 29.6717C36.4618 29.3709 37.3341 29.2205 38.2125 29.2205C39.3436 29.2205 39.9452 29.5755 40.0174 30.2854L40.631 36.0069H40.8837L41.3891 30.2854C41.4493 29.5755 42.2614 29.2205 43.8257 29.2205C44.4273 29.2205 44.8304 29.3047 45.0349 29.4732C45.2395 29.6296 45.3538 29.8402 45.3779 30.1049L45.9735 36.0069H46.2262L46.6954 30.2854C46.7315 29.9365 47.1406 29.6717 47.9227 29.4913C48.7169 29.3108 49.499 29.2205 50.2691 29.2205C51.0512 29.2205 51.5806 29.3348 51.8574 29.5634C52.1462 29.7921 52.2906 30.0327 52.2906 30.2854L48.4281 41.4756C48.2958 41.8487 47.4054 42.0352 45.7569 42.0352C45.2636 42.0352 44.9327 41.993 44.7642 41.9088C44.5958 41.8246 44.4814 41.6802 44.4213 41.4756L43.4827 38.3352H43.2662L42.3096 41.4756C42.2013 41.8487 41.371 42.0352 39.8188 42.0352ZM58.2218 41.5117C58.2218 41.6682 57.8488 41.7945 57.1028 41.8908C56.3688 41.987 55.6348 42.0352 54.9009 42.0352C54.1669 42.0352 53.6976 41.993 53.4931 41.9088C53.2885 41.8246 53.1862 41.6922 53.1862 41.5117V30.4298C53.1862 30.129 53.5291 29.8522 54.215 29.5995C54.9129 29.3469 55.701 29.2205 56.5794 29.2205C56.8922 29.2205 57.1269 29.2326 57.2833 29.2566C57.6924 29.3168 57.9812 29.5755 58.1496 30.0327L59.8823 34.6893H59.9545V30.4298C59.9545 30.129 60.2974 29.8522 60.9833 29.5995C61.6692 29.3469 62.4513 29.2205 63.3296 29.2205C64.0877 29.2205 64.569 29.3649 64.7735 29.6537C64.9179 29.8582 64.9901 30.0447 64.9901 30.2132V41.5117C64.9901 41.6682 64.6171 41.7945 63.8711 41.8908C63.1371 41.987 62.3249 42.0352 61.4345 42.0352C60.5561 42.0352 60.0748 41.9208 59.9906 41.6922L58.3121 37.2522H58.2218V41.5117Z"/>
</mask>
<path d="M8.42024 22.4756C8.42024 22.6321 8.04723 22.7584 7.30122 22.8547C6.56723 22.9509 5.83325 22.9991 5.09927 22.9991C4.36528 22.9991 3.89601 22.9569 3.69146 22.8727C3.48691 22.7885 3.38463 22.6561 3.38463 22.4756V11.4117C3.38463 11.0989 3.72154 10.8221 4.39536 10.5815C5.08122 10.3408 5.86935 10.2205 6.75975 10.2205C7.49374 10.2205 7.96902 10.3649 8.18561 10.6537C8.34203 10.8582 8.42024 11.0447 8.42024 11.2132V14.1913H8.56463C8.56463 14.1311 8.74512 13.6317 9.1061 12.6932C9.79195 10.9244 10.2913 10.04 10.6041 10.04C11.1937 10.04 12.024 10.2145 13.0949 10.5634C13.6123 10.7319 14.0575 10.9786 14.4305 11.3034C14.8035 11.6163 14.99 11.9652 14.99 12.3503C14.99 12.5909 14.7433 13.0602 14.25 13.7581C13.7687 14.4439 13.0347 15.3644 12.048 16.5195C12.2767 16.7602 12.5654 17.067 12.9144 17.44C13.2633 17.813 13.7266 18.3726 14.3041 19.1186C14.8937 19.8526 15.1885 20.376 15.1885 20.6888C15.1885 21.0017 14.9058 21.3687 14.3402 21.7898C13.7747 22.1989 13.1731 22.5358 12.5354 22.8005C11.8976 23.0532 11.4224 23.1795 11.1095 23.1795C10.905 23.1795 10.6222 22.8727 10.2612 22.2591C9.91228 21.6334 9.48512 20.7008 8.97976 19.4615L8.42024 20.1293V22.4756ZM21.2165 22.602C21.2165 22.7343 20.8496 22.8426 20.1156 22.9269C19.3816 22.9991 18.6416 23.0352 17.8956 23.0352C17.1616 23.0352 16.6923 23.0051 16.4878 22.9449C16.2832 22.8727 16.1809 22.7584 16.1809 22.602V11.3756C16.1809 11.1109 16.5299 10.8522 17.2278 10.5995C17.9257 10.3348 18.7078 10.2025 19.5741 10.2025C20.3442 10.2025 20.8496 10.3649 21.0902 10.6898C21.1744 10.8101 21.2165 10.9304 21.2165 11.0508V22.602ZM27.7028 22.5117C27.7028 22.6682 27.3298 22.7945 26.5838 22.8908C25.8498 22.987 25.1158 23.0352 24.3819 23.0352C23.6479 23.0352 23.1786 22.993 22.974 22.9088C22.7695 22.8246 22.6672 22.6922 22.6672 22.5117V11.4298C22.6672 11.129 23.0101 10.8522 23.696 10.5995C24.3939 10.3469 25.182 10.2205 26.0604 10.2205C26.3732 10.2205 26.6079 10.2326 26.7643 10.2566C27.1734 10.3168 27.4622 10.5755 27.6306 11.0327L29.3633 15.6893H29.4355V11.4298C29.4355 11.129 29.7784 10.8522 30.4643 10.5995C31.1501 10.3469 31.9323 10.2205 32.8106 10.2205C33.5687 10.2205 34.05 10.3649 34.2545 10.6537C34.3989 10.8582 34.4711 11.0447 34.4711 11.2132V22.5117C34.4711 22.6682 34.0981 22.7945 33.3521 22.8908C32.6181 22.987 31.8059 23.0352 30.9155 23.0352C30.0371 23.0352 29.5558 22.9208 29.4716 22.6922L27.7931 18.2522H27.7028V22.5117ZM41.6793 23.0352H37.4198C36.8302 23.0352 36.4332 22.993 36.2286 22.9088C36.0241 22.8246 35.9218 22.6862 35.9218 22.4937V11.1049C35.9218 10.7921 36.0541 10.5695 36.3189 10.4371C36.5836 10.2927 37.0408 10.2205 37.6906 10.2205H41.7515C44.0618 10.2205 45.6561 10.6778 46.5345 11.5922C47.4128 12.4947 47.852 14.1431 47.852 16.5376C47.852 18.9321 47.3948 20.6166 46.4803 21.5913C45.5659 22.5539 43.9655 23.0352 41.6793 23.0352ZM41.535 12.9098C41.2462 12.9098 41.0537 12.9339 40.9574 12.982V20.2737L41.6433 20.3459C42.0042 20.3459 42.275 20.0571 42.4554 19.4795C42.648 18.902 42.7442 17.9033 42.7442 16.4834C42.7442 15.0636 42.648 14.113 42.4554 13.6317C42.2629 13.1504 41.9561 12.9098 41.535 12.9098ZM58.2742 23.0352H50.6215C50.0319 23.0352 49.6349 22.993 49.4303 22.9088C49.2258 22.8246 49.1235 22.6922 49.1235 22.5117V11.0869C49.1235 10.774 49.2619 10.5514 49.5386 10.4191C49.8274 10.2867 50.3388 10.2205 51.0728 10.2205H58.3284C58.581 10.2205 58.7074 10.6417 58.7074 11.4839C58.7074 12.3142 58.6532 12.9519 58.545 13.3971C58.4367 13.8303 58.2923 14.0469 58.1118 14.0469C57.3297 14.0469 56.0121 13.9687 54.1591 13.8122V15.0215C55.9399 14.9493 57.101 14.9132 57.6425 14.9132C57.9674 14.9132 58.1298 15.2922 58.1298 16.0503C58.1298 16.8083 58.0636 17.3859 57.9313 17.783C57.811 18.168 57.6425 18.3605 57.4259 18.3605L54.1591 18.2883V19.4434C56.2528 19.287 57.6967 19.2088 58.4908 19.2088C58.7435 19.2088 58.8698 19.63 58.8698 20.4722C58.8698 21.3145 58.8157 21.9522 58.7074 22.3854C58.5991 22.8186 58.4547 23.0352 58.2742 23.0352ZM65.1932 22.5117C65.1932 22.6682 64.8263 22.7945 64.0923 22.8908C63.3583 22.987 62.6183 23.0352 61.8723 23.0352C61.1383 23.0352 60.663 22.993 60.4464 22.9088C60.2419 22.8246 60.1396 22.6922 60.1396 22.5117V10.9064C60.1396 10.5935 60.5306 10.3709 61.3128 10.2386C62.1069 10.1062 63.1056 10.04 64.3089 10.04C65.5121 10.04 66.2882 10.046 66.6371 10.0581C66.9981 10.0581 67.4193 10.0761 67.9006 10.1122C68.3819 10.1483 68.7609 10.2085 69.0376 10.2927C69.3264 10.3769 69.6393 10.4852 69.9762 10.6176C70.3251 10.75 70.5958 10.9244 70.7884 11.141C70.9809 11.3456 71.1674 11.5922 71.3479 11.881C71.6728 12.3984 71.8352 13.1384 71.8352 14.101C71.8352 15.0516 71.6728 15.8578 71.3479 16.5195C71.035 17.1693 70.6139 17.6626 70.0845 17.9995C71.4682 20.1774 72.1601 21.5612 72.1601 22.1508C72.1601 22.7404 70.9749 23.0352 68.6045 23.0352C67.9186 23.0352 67.4433 23.0051 67.1786 22.9449C66.9139 22.8847 66.7454 22.7524 66.6732 22.5478L65.5001 18.8298L65.1932 18.8117V22.5117ZM65.1932 16.0322H65.6625C66.3604 16.0322 66.7093 15.4908 66.7093 14.4078C66.7093 13.8543 66.6131 13.4633 66.4206 13.2347C66.2401 13.006 66.0295 12.8917 65.7889 12.8917H65.1932V16.0322ZM17.6738 41.602C17.6738 41.7343 17.3008 41.8426 16.5548 41.9269C15.8208 41.9991 15.0808 42.0352 14.3348 42.0352C13.6008 42.0352 13.1316 42.0051 12.927 41.9449C12.7345 41.8727 12.6382 41.7584 12.6382 41.602V33.841H10.1294C9.99709 33.841 9.88278 33.6726 9.78652 33.3356C9.69026 32.9987 9.64213 32.4994 9.64213 31.8376C9.64213 31.1638 9.71433 30.5621 9.85872 30.0327C10.0031 29.4913 10.1956 29.2205 10.4363 29.2205H20.2007C20.3812 29.2205 20.5015 29.389 20.5616 29.7259C20.6338 30.0628 20.6699 30.5501 20.6699 31.1878C20.6699 31.8256 20.6038 32.4272 20.4714 32.9927C20.339 33.5582 20.1586 33.841 19.9299 33.841H17.6738V41.602ZM27.86 42.1976C26.8613 42.1976 26.001 42.1074 25.279 41.9269C24.5691 41.7343 23.9133 41.3974 23.3117 40.9161C22.0964 39.9656 21.4888 38.1426 21.4888 35.4474C21.4888 34.3163 21.6512 33.3296 21.9761 32.4874C22.313 31.6451 22.7762 30.9773 23.3658 30.4839C24.521 29.5213 26.019 29.04 27.86 29.04C28.8105 29.04 29.6348 29.1243 30.3327 29.2927C31.0426 29.4612 31.7104 29.768 32.3361 30.2132C33.5995 31.1277 34.2312 32.8724 34.2312 35.4474C34.2312 37.7576 33.6597 39.4602 32.5166 40.5552C31.3735 41.6501 29.8213 42.1976 27.86 42.1976ZM27.2644 39.1113C27.4088 39.2797 27.6073 39.3639 27.86 39.3639C28.1127 39.3639 28.3112 39.2797 28.4556 39.1113C28.6 38.9308 28.7203 38.5578 28.8166 37.9922C28.9128 37.4147 28.961 36.6145 28.961 35.5917C28.961 34.569 28.9128 33.7808 28.8166 33.2274C28.7203 32.6739 28.6 32.3129 28.4556 32.1444C28.3112 31.976 28.1127 31.8917 27.86 31.8917C27.6073 31.8917 27.4088 31.976 27.2644 32.1444C27.12 32.3129 26.9997 32.6739 26.9034 33.2274C26.8071 33.7808 26.759 34.569 26.759 35.5917C26.759 36.6145 26.8071 37.4147 26.9034 37.9922C26.9997 38.5578 27.12 38.9308 27.2644 39.1113ZM39.8188 42.0352C39.2413 42.0352 38.8623 41.993 38.6818 41.9088C38.5013 41.8246 38.3749 41.6802 38.3027 41.4756L34.314 30.4659C34.314 30.2373 34.7411 29.9726 35.5954 29.6717C36.4618 29.3709 37.3341 29.2205 38.2125 29.2205C39.3436 29.2205 39.9452 29.5755 40.0174 30.2854L40.631 36.0069H40.8837L41.3891 30.2854C41.4493 29.5755 42.2614 29.2205 43.8257 29.2205C44.4273 29.2205 44.8304 29.3047 45.0349 29.4732C45.2395 29.6296 45.3538 29.8402 45.3779 30.1049L45.9735 36.0069H46.2262L46.6954 30.2854C46.7315 29.9365 47.1406 29.6717 47.9227 29.4913C48.7169 29.3108 49.499 29.2205 50.2691 29.2205C51.0512 29.2205 51.5806 29.3348 51.8574 29.5634C52.1462 29.7921 52.2906 30.0327 52.2906 30.2854L48.4281 41.4756C48.2958 41.8487 47.4054 42.0352 45.7569 42.0352C45.2636 42.0352 44.9327 41.993 44.7642 41.9088C44.5958 41.8246 44.4814 41.6802 44.4213 41.4756L43.4827 38.3352H43.2662L42.3096 41.4756C42.2013 41.8487 41.371 42.0352 39.8188 42.0352ZM58.2218 41.5117C58.2218 41.6682 57.8488 41.7945 57.1028 41.8908C56.3688 41.987 55.6348 42.0352 54.9009 42.0352C54.1669 42.0352 53.6976 41.993 53.4931 41.9088C53.2885 41.8246 53.1862 41.6922 53.1862 41.5117V30.4298C53.1862 30.129 53.5291 29.8522 54.215 29.5995C54.9129 29.3469 55.701 29.2205 56.5794 29.2205C56.8922 29.2205 57.1269 29.2326 57.2833 29.2566C57.6924 29.3168 57.9812 29.5755 58.1496 30.0327L59.8823 34.6893H59.9545V30.4298C59.9545 30.129 60.2974 29.8522 60.9833 29.5995C61.6692 29.3469 62.4513 29.2205 63.3296 29.2205C64.0877 29.2205 64.569 29.3649 64.7735 29.6537C64.9179 29.8582 64.9901 30.0447 64.9901 30.2132V41.5117C64.9901 41.6682 64.6171 41.7945 63.8711 41.8908C63.1371 41.987 62.3249 42.0352 61.4345 42.0352C60.5561 42.0352 60.0748 41.9208 59.9906 41.6922L58.3121 37.2522H58.2218V41.5117Z" fill="#FFE0BF"/>
<path d="M7.30122 22.8547L7.16923 21.8318L7.16711 21.8321L7.30122 22.8547ZM3.69146 22.8727L4.08415 21.919H4.08415L3.69146 22.8727ZM4.39536 10.5815L4.05389 9.60829L4.04848 9.61022L4.39536 10.5815ZM8.18561 10.6537L7.36049 11.2725L7.36634 11.2802L8.18561 10.6537ZM8.42024 14.1913H7.38888V15.2226H8.42024V14.1913ZM8.56463 14.1913V15.2226H9.59599V14.1913H8.56463ZM9.1061 12.6932L8.14449 12.3203L8.14348 12.323L9.1061 12.6932ZM13.0949 10.5634L12.7754 11.5441L12.7756 11.5441L13.0949 10.5634ZM14.4305 11.3034L13.7531 12.0812L13.7604 12.0875L13.7677 12.0937L14.4305 11.3034ZM14.25 13.7581L13.4078 13.1627L13.4058 13.1656L14.25 13.7581ZM12.048 16.5195L11.2638 15.8497L10.6603 16.5562L11.3003 17.2299L12.048 16.5195ZM12.9144 17.44L12.1612 18.1446H12.1612L12.9144 17.44ZM14.3041 19.1186L13.4886 19.7499L13.4943 19.7573L13.5001 19.7645L14.3041 19.1186ZM14.3402 21.7898L14.9447 22.6254L14.9505 22.6212L14.9562 22.617L14.3402 21.7898ZM12.5354 22.8005L12.9153 23.7594L12.923 23.7563L12.9308 23.7531L12.5354 22.8005ZM10.2612 22.2591L9.36047 22.7614L9.36624 22.7718L9.37226 22.782L10.2612 22.2591ZM8.97976 19.4615L9.93477 19.0721L9.28847 17.4871L8.1892 18.7991L8.97976 19.4615ZM8.42024 20.1293L7.62968 19.4669L7.38888 19.7544V20.1293H8.42024ZM7.38888 22.4756C7.38888 22.0561 7.64884 21.8249 7.72725 21.7654C7.80908 21.7034 7.85921 21.6941 7.80962 21.7109C7.72205 21.7405 7.52385 21.786 7.16923 21.8318L7.4332 23.8775C7.8246 23.827 8.18591 23.7612 8.47135 23.6646C8.60827 23.6182 8.79828 23.5419 8.97335 23.4092C9.14502 23.2791 9.4516 22.9734 9.4516 22.4756H7.38888ZM7.16711 21.8321C6.47721 21.9225 5.78802 21.9677 5.09927 21.9677V24.0304C5.87848 24.0304 6.65726 23.9793 7.43533 23.8773L7.16711 21.8321ZM5.09927 21.9677C4.74814 21.9677 4.48107 21.9575 4.28902 21.9402C4.19333 21.9317 4.12699 21.9222 4.08458 21.9143C4.03636 21.9053 4.04467 21.9028 4.08415 21.919L3.29877 23.8264C3.55459 23.9317 3.85612 23.9724 4.10464 23.9947C4.38186 24.0196 4.71641 24.0304 5.09927 24.0304V21.9677ZM4.08415 21.919C4.09666 21.9242 4.18812 21.9641 4.27744 22.0797C4.37716 22.2087 4.41599 22.3569 4.41599 22.4756H2.35327C2.35327 22.7749 2.44324 23.0795 2.64524 23.3409C2.83684 23.5888 3.08171 23.737 3.29877 23.8264L4.08415 21.919ZM4.41599 22.4756V11.4117H2.35327V22.4756H4.41599ZM4.41599 11.4117C4.41599 11.5282 4.38238 11.6271 4.34327 11.6956C4.30824 11.7569 4.27843 11.7776 4.29196 11.7665C4.30503 11.7558 4.34397 11.7273 4.42313 11.6868C4.50097 11.647 4.60563 11.6016 4.74225 11.5528L4.04848 9.61022C3.66193 9.74828 3.28291 9.92596 2.98267 10.1726C2.6743 10.4259 2.35327 10.8385 2.35327 11.4117H4.41599ZM4.73683 11.5547C5.29143 11.3601 5.96039 11.2519 6.75976 11.2519V9.18916C5.7783 9.18916 4.87101 9.3216 4.05389 9.60831L4.73683 11.5547ZM6.75976 11.2519C7.0688 11.2519 7.26087 11.2834 7.36691 11.3156C7.47205 11.3476 7.42511 11.3586 7.36052 11.2725L9.0107 10.0349C8.72953 9.65998 8.33665 9.45444 7.9665 9.34199C7.59726 9.22981 7.1847 9.18916 6.75976 9.18916V11.2519ZM7.36634 11.2802C7.38491 11.3045 7.39679 11.3225 7.40388 11.3344C7.41099 11.3462 7.41221 11.35 7.41047 11.3458C7.40701 11.3376 7.38888 11.2905 7.38888 11.2132H9.4516C9.4516 10.7265 9.2301 10.3217 9.00488 10.0272L7.36634 11.2802ZM7.38888 11.2132V14.1913H9.4516V11.2132H7.38888ZM8.42024 15.2226H8.56463V13.1599H8.42024V15.2226ZM9.59599 14.1913C9.59599 14.2903 9.5806 14.3643 9.57883 14.3733C9.57432 14.3963 9.57035 14.4111 9.56992 14.4127C9.56889 14.4166 9.57115 14.4079 9.58003 14.3804C9.59711 14.3275 9.62621 14.2432 9.66994 14.1222C9.75657 13.8825 9.88894 13.5308 10.0687 13.0634L8.14348 12.323C7.96227 12.7941 7.82392 13.1614 7.73005 13.421C7.68354 13.5497 7.64496 13.6602 7.61692 13.7472C7.60324 13.7896 7.58858 13.8371 7.57627 13.8835C7.57598 13.8846 7.53327 14.0276 7.53327 14.1913H9.59599ZM10.0677 13.0661C10.4052 12.1956 10.6803 11.5872 10.8931 11.2104C11.0019 11.0177 11.07 10.9298 11.0942 10.9035C11.1614 10.8303 10.9883 11.0714 10.6041 11.0714V9.00867C10.0636 9.00867 9.71074 9.36035 9.57491 9.50824C9.39602 9.70304 9.2378 9.94671 9.09691 10.1962C8.8103 10.7038 8.49281 11.4221 8.1445 12.3203L10.0677 13.0661ZM10.6041 11.0714C11.0269 11.0714 11.7317 11.204 12.7754 11.5441L13.4144 9.58283C12.3163 9.22502 11.3605 9.00867 10.6041 9.00867V11.0714ZM12.7756 11.5441C13.1744 11.674 13.4946 11.8561 13.7531 12.0812L15.1079 10.5257C14.6203 10.1011 14.0501 9.78981 13.4142 9.58276L12.7756 11.5441ZM13.7677 12.0937C13.8758 12.1843 13.9219 12.2511 13.9405 12.2859C13.9561 12.3151 13.9586 12.3322 13.9586 12.3503H16.0214C16.0214 11.5826 15.633 10.9659 15.0933 10.5132L13.7677 12.0937ZM13.9586 12.3503C13.9586 12.2493 13.9813 12.2012 13.9695 12.2351C13.9609 12.2601 13.9387 12.3142 13.8921 12.4028C13.7985 12.5809 13.6421 12.8313 13.4078 13.1627L15.0922 14.3534C15.3512 13.987 15.5648 13.6538 15.7179 13.3626C15.8468 13.1174 16.0214 12.744 16.0214 12.3503H13.9586ZM13.4058 13.1656C12.9525 13.8115 12.2433 14.703 11.2638 15.8497L12.8323 17.1894C13.8261 16.0259 14.5849 15.0764 15.0942 14.3505L13.4058 13.1656ZM11.3003 17.2299C11.5264 17.4679 11.8132 17.7726 12.1612 18.1446L13.6676 16.7355C13.3177 16.3614 13.0269 16.0525 12.7958 15.8092L11.3003 17.2299ZM12.1612 18.1446C12.4771 18.4823 12.9173 19.0119 13.4886 19.7499L15.1197 18.4872C14.5359 17.7332 14.0495 17.1438 13.6676 16.7355L12.1612 18.1446ZM13.5001 19.7645C13.777 20.1092 13.96 20.3745 14.0688 20.5677C14.1227 20.6634 14.1492 20.7253 14.1606 20.7576C14.1735 20.7942 14.1572 20.765 14.1572 20.6888H16.2199C16.2199 20.2564 16.034 19.8536 15.8661 19.5555C15.6801 19.2253 15.4209 18.8619 15.1082 18.4727L13.5001 19.7645ZM14.1572 20.6888C14.1572 20.5311 14.2259 20.483 14.1595 20.5692C14.0974 20.6498 13.9664 20.7823 13.7242 20.9626L14.9562 22.617C15.2797 22.3761 15.5728 22.1146 15.7934 21.8282C16.0098 21.5474 16.2199 21.1594 16.2199 20.6888H14.1572ZM13.7357 20.9542C13.2344 21.3168 12.7029 21.6143 12.14 21.848L12.9308 23.7531C13.6433 23.4573 14.315 23.081 14.9447 22.6254L13.7357 20.9542ZM12.1554 21.8417C11.5288 22.09 11.2113 22.1482 11.1095 22.1482V24.2109C11.6334 24.2109 12.2665 24.0164 12.9153 23.7594L12.1554 21.8417ZM11.1095 22.1482C11.3168 22.1482 11.4514 22.2244 11.491 22.2492C11.533 22.2757 11.5365 22.2874 11.5024 22.2505C11.4334 22.1756 11.3156 22.0174 11.1502 21.7361L9.37226 22.782C9.56779 23.1144 9.77187 23.4164 9.98561 23.6484C10.093 23.7648 10.228 23.8916 10.3919 23.9948C10.5533 24.0964 10.8 24.2109 11.1095 24.2109V22.1482ZM11.162 21.7567C10.8439 21.1863 10.4354 20.2998 9.93477 19.0721L8.02474 19.8509C8.53486 21.1019 8.98068 22.0804 9.36047 22.7614L11.162 21.7567ZM8.1892 18.7991L7.62968 19.4669L9.2108 20.7917L9.77031 20.1239L8.1892 18.7991ZM7.38888 20.1293V22.4756H9.4516V20.1293H7.38888ZM20.1156 22.9269L20.2165 23.9533L20.2248 23.9525L20.2332 23.9515L20.1156 22.9269ZM16.4878 22.9449L16.1445 23.9175L16.1704 23.9266L16.1968 23.9344L16.4878 22.9449ZM17.2278 10.5995L17.5789 11.5693L17.5862 11.5666L17.5935 11.5639L17.2278 10.5995ZM21.0902 10.6898L21.9351 10.0983L21.9272 10.087L21.919 10.0759L21.0902 10.6898ZM20.1852 22.602C20.1852 22.3637 20.272 22.1722 20.3648 22.0445C20.4499 21.9272 20.5398 21.8621 20.5822 21.8343C20.6611 21.7826 20.7048 21.7769 20.6494 21.7933C20.5535 21.8216 20.3496 21.8619 19.998 21.9022L20.2332 23.9515C20.6155 23.9076 20.9621 23.8517 21.2332 23.7717C21.3613 23.7339 21.5427 23.6711 21.7133 23.5592C21.8554 23.4661 22.2479 23.1643 22.2479 22.602H20.1852ZM20.0146 21.9005C19.3146 21.9693 18.6083 22.0038 17.8956 22.0038V24.0665C18.6749 24.0665 19.4486 24.0288 20.2165 23.9533L20.0146 21.9005ZM17.8956 22.0038C17.5399 22.0038 17.2632 21.9964 17.0591 21.9833C16.832 21.9688 16.7626 21.9507 16.7788 21.9555L16.1968 23.9344C16.4175 23.9993 16.685 24.0263 16.9272 24.0418C17.1923 24.0588 17.5173 24.0665 17.8956 24.0665V22.0038ZM16.831 21.9724C16.8336 21.9733 16.8557 21.9812 16.8892 22.0016C16.9232 22.0222 16.9738 22.0587 17.0263 22.1173C17.148 22.2534 17.2123 22.432 17.2123 22.602H15.1496C15.1496 22.9284 15.265 23.2424 15.489 23.4927C15.6938 23.7216 15.9426 23.8462 16.1445 23.9175L16.831 21.9724ZM17.2123 22.602V11.3756H15.1496V22.602H17.2123ZM17.2123 11.3756C17.2123 11.5489 17.1522 11.6788 17.1045 11.7503C17.0624 11.8136 17.0314 11.8305 17.0569 11.8116C17.0796 11.7947 17.1305 11.7618 17.2225 11.7169C17.3128 11.6728 17.4302 11.6231 17.5789 11.5693L16.8766 9.62979C16.4901 9.76974 16.1204 9.93811 15.8284 10.1546C15.5597 10.3538 15.1496 10.7525 15.1496 11.3756H17.2123ZM17.5935 11.5639C18.1574 11.35 18.813 11.2338 19.5741 11.2338V9.17111C18.6025 9.17111 17.6939 9.31968 16.862 9.63523L17.5935 11.5639ZM19.5741 11.2338C19.8958 11.2338 20.0991 11.2689 20.2151 11.3062C20.3263 11.3419 20.3043 11.3616 20.2614 11.3037L21.919 10.0759C21.3637 9.32633 20.3954 9.17111 19.5741 9.17111V11.2338ZM20.2453 11.2812C20.2353 11.267 20.1852 11.1849 20.1852 11.0508H22.2479C22.2479 10.6759 22.1135 10.3532 21.9351 10.0983L20.2453 11.2812ZM20.1852 11.0508V22.602H22.2479V11.0508H20.1852ZM26.5838 22.8908L26.4518 21.8679L26.4497 21.8682L26.5838 22.8908ZM22.974 22.9088L23.3667 21.9551L22.974 22.9088ZM23.696 10.5995L23.3449 9.62978L23.3395 9.63178L23.696 10.5995ZM26.7643 10.2566L26.6075 11.276L26.6142 11.277L26.7643 10.2566ZM27.6306 11.0327L26.6629 11.3893L26.664 11.3924L27.6306 11.0327ZM29.3633 15.6893L28.3967 16.049L28.6466 16.7207H29.3633V15.6893ZM29.4355 15.6893V16.7207H30.4669V15.6893H29.4355ZM30.4643 10.5995L30.8208 11.5673L30.8208 11.5673L30.4643 10.5995ZM34.2545 10.6537L35.0971 10.0589L35.0961 10.0575L34.2545 10.6537ZM33.3521 22.8908L33.2201 21.8679L33.218 21.8682L33.3521 22.8908ZM29.4716 22.6922L30.4394 22.3357L30.4363 22.3275L29.4716 22.6922ZM27.7931 18.2522L28.7578 17.8875L28.5058 17.2209H27.7931V18.2522ZM27.7028 18.2522V17.2209H26.6715V18.2522H27.7028ZM26.6715 22.5117C26.6715 22.0922 26.9314 21.861 27.0098 21.8015C27.0917 21.7395 27.1418 21.7302 27.0922 21.747C27.0046 21.7766 26.8064 21.8221 26.4518 21.8679L26.7158 23.9136C27.1072 23.8631 27.4685 23.7973 27.7539 23.7007C27.8909 23.6543 28.0809 23.578 28.2559 23.4453C28.4276 23.3152 28.7342 23.0095 28.7342 22.5117H26.6715ZM26.4497 21.8682C25.7598 21.9586 25.0706 22.0038 24.3819 22.0038V24.0665C25.1611 24.0665 25.9398 24.0154 26.7179 23.9134L26.4497 21.8682ZM24.3819 22.0038C24.0307 22.0038 23.7637 21.9936 23.5716 21.9763C23.4759 21.9678 23.4096 21.9583 23.3672 21.9504C23.3189 21.9414 23.3273 21.9389 23.3667 21.9551L22.5814 23.8625C22.8372 23.9678 23.1387 24.0085 23.3872 24.0308C23.6644 24.0557 23.999 24.0665 24.3819 24.0665V22.0038ZM23.3667 21.9551C23.3792 21.9603 23.4707 22.0002 23.56 22.1158C23.6597 22.2448 23.6986 22.393 23.6986 22.5117H21.6359C21.6359 22.811 21.7258 23.1156 21.9278 23.377C22.1194 23.6249 22.3643 23.7731 22.5814 23.8625L23.3667 21.9551ZM23.6986 22.5117V11.4298H21.6359V22.5117H23.6986ZM23.6986 11.4298C23.6986 11.5608 23.6588 11.6671 23.6183 11.7352C23.5824 11.7958 23.5537 11.8141 23.5721 11.7992C23.5894 11.7852 23.6334 11.7541 23.7178 11.7106C23.8008 11.6679 23.9108 11.6195 24.0525 11.5673L23.3395 9.63178C22.951 9.77491 22.5743 9.95388 22.2767 10.194C21.9791 10.4341 21.6359 10.8436 21.6359 11.4298H23.6986ZM24.0471 11.5693C24.6139 11.3641 25.2803 11.2519 26.0604 11.2519V9.18916C25.0837 9.18916 24.1739 9.32964 23.3449 9.6298L24.0471 11.5693ZM26.0604 11.2519C26.361 11.2519 26.5315 11.2643 26.6075 11.276L26.9211 9.23725C26.6842 9.20081 26.3855 9.18916 26.0604 9.18916V11.2519ZM26.6142 11.277C26.6277 11.279 26.6278 11.2806 26.62 11.277C26.6116 11.2732 26.604 11.2679 26.5995 11.264C26.5904 11.2558 26.6222 11.2789 26.6629 11.3893L28.5984 10.6762C28.3274 9.94056 27.7707 9.36217 26.9143 9.23624L26.6142 11.277ZM26.664 11.3924L28.3967 16.049L30.3299 15.3296L28.5972 10.673L26.664 11.3924ZM29.3633 16.7207H29.4355V14.6579H29.3633V16.7207ZM30.4669 15.6893V11.4298H28.4042V15.6893H30.4669ZM30.4669 11.4298C30.4669 11.5608 30.4271 11.6671 30.3866 11.7352C30.3507 11.7958 30.322 11.8141 30.3404 11.7992C30.3577 11.7852 30.4017 11.7541 30.4861 11.7106C30.5691 11.6679 30.6791 11.6195 30.8208 11.5673L30.1077 9.63178C29.7192 9.77491 29.3426 9.95388 29.045 10.194C28.7474 10.4341 28.4042 10.8436 28.4042 11.4298H30.4669ZM30.8208 11.5673C31.3721 11.3642 32.0301 11.2519 32.8106 11.2519V9.18916C31.8345 9.18916 30.9282 9.3295 30.1077 9.63178L30.8208 11.5673ZM32.8106 11.2519C33.1348 11.2519 33.3349 11.284 33.4438 11.3167C33.5543 11.3498 33.4894 11.3578 33.4129 11.2498L35.0961 10.0575C34.8151 9.6608 34.4072 9.45217 34.0365 9.34095C33.6641 9.22924 33.2445 9.18916 32.8106 9.18916V11.2519ZM33.4119 11.2485C33.429 11.2726 33.4401 11.2909 33.4471 11.3034C33.454 11.3159 33.4559 11.3212 33.4552 11.3193C33.4537 11.3155 33.4398 11.2777 33.4398 11.2132H35.5025C35.5025 10.7511 35.3078 10.3573 35.0971 10.0589L33.4119 11.2485ZM33.4398 11.2132V22.5117H35.5025V11.2132H33.4398ZM33.4398 22.5117C33.4398 22.0922 33.6997 21.861 33.7781 21.8015C33.86 21.7395 33.9101 21.7302 33.8605 21.747C33.7729 21.7766 33.5747 21.8221 33.2201 21.8679L33.4841 23.9136C33.8755 23.8631 34.2368 23.7973 34.5222 23.7007C34.6591 23.6543 34.8492 23.578 35.0242 23.4453C35.1959 23.3152 35.5025 23.0095 35.5025 22.5117H33.4398ZM33.218 21.8682C32.5363 21.9576 31.7697 22.0038 30.9155 22.0038V24.0665C31.8421 24.0665 32.6999 24.0165 33.4862 23.9134L33.218 21.8682ZM30.9155 22.0038C30.505 22.0038 30.2587 21.9756 30.1341 21.946C30.0718 21.9312 30.0893 21.9272 30.144 21.9604C30.202 21.9956 30.3551 22.1069 30.4394 22.3357L28.5038 23.0488C28.6302 23.3919 28.8751 23.6032 29.0745 23.7241C29.2705 23.843 29.4791 23.9105 29.6574 23.9529C30.0141 24.0376 30.4477 24.0665 30.9155 24.0665V22.0038ZM30.4363 22.3275L28.7578 17.8875L26.8284 18.6169L28.5069 23.0569L30.4363 22.3275ZM27.7931 17.2209H27.7028V19.2836H27.7931V17.2209ZM26.6715 18.2522V22.5117H28.7342V18.2522H26.6715ZM36.2286 22.9088L36.6213 21.9551L36.2286 22.9088ZM36.3189 10.4371L36.7801 11.3596L36.7966 11.3513L36.8127 11.3425L36.3189 10.4371ZM46.5345 11.5922L45.7906 12.3067L45.7954 12.3116L46.5345 11.5922ZM46.4803 21.5913L47.2281 22.3016L47.2324 22.297L46.4803 21.5913ZM40.9574 12.982L40.4962 12.0595L39.926 12.3446V12.982H40.9574ZM40.9574 20.2737H39.926V21.2022L40.8494 21.2994L40.9574 20.2737ZM41.6433 20.3459L41.5353 21.3716L41.5891 21.3772H41.6433V20.3459ZM42.4554 19.4795L41.477 19.1534L41.4739 19.1626L41.471 19.1719L42.4554 19.4795ZM42.4554 13.6317L41.4979 14.0148L42.4554 13.6317ZM41.6793 22.0038H37.4198V24.0665H41.6793V22.0038ZM37.4198 22.0038C37.146 22.0038 36.9384 21.9939 36.7886 21.978C36.6227 21.9604 36.5876 21.9413 36.6213 21.9551L35.8359 23.8625C36.0742 23.9606 36.3399 24.0047 36.5711 24.0292C36.8183 24.0554 37.1041 24.0665 37.4198 24.0665V22.0038ZM36.6213 21.9551C36.6441 21.9645 36.7395 22.0093 36.8279 22.1288C36.9234 22.258 36.9531 22.3968 36.9531 22.4937H34.8904C34.8904 22.7831 34.9713 23.0873 35.1691 23.3549C35.3597 23.6128 35.6086 23.7689 35.8359 23.8625L36.6213 21.9551ZM36.9531 22.4937V11.1049H34.8904V22.4937H36.9531ZM36.9531 11.1049C36.9531 11.0954 36.9542 11.152 36.9075 11.2304C36.8589 11.3122 36.7985 11.3504 36.7801 11.3596L35.8576 9.51463C35.5745 9.65621 35.3155 9.87185 35.1346 10.1762C34.9556 10.4772 34.8904 10.8016 34.8904 11.1049H36.9531ZM36.8127 11.3425C36.8014 11.3487 36.8536 11.3199 37.0212 11.2934C37.1801 11.2683 37.3999 11.2519 37.6906 11.2519V9.18916C37.0242 9.18916 36.3358 9.25304 35.825 9.53168L36.8127 11.3425ZM37.6906 11.2519H41.7515V9.18916H37.6906V11.2519ZM41.7515 11.2519C43.9918 11.2519 45.2158 11.7082 45.7907 12.3067L47.2783 10.8778C46.0964 9.64734 44.1317 9.18916 41.7515 9.18916V11.2519ZM45.7954 12.3116C46.3768 12.9089 46.8207 14.1972 46.8207 16.5376H48.8834C48.8834 14.0891 48.4489 12.0805 47.2735 10.8729L45.7954 12.3116ZM46.8207 16.5376C46.8207 18.8581 46.3664 20.2054 45.7282 20.8856L47.2324 22.297C48.4232 21.0279 48.8834 19.006 48.8834 16.5376H46.8207ZM45.7326 20.8809C45.114 21.532 43.8745 22.0038 41.6793 22.0038V24.0665C44.0566 24.0665 46.0177 23.5757 47.2281 22.3016L45.7326 20.8809ZM41.535 11.8784C41.3663 11.8784 41.1998 11.8852 41.0461 11.9044C40.9113 11.9213 40.7013 11.957 40.4962 12.0595L41.4186 13.9045C41.3853 13.9211 41.3576 13.9319 41.3387 13.9385C41.3196 13.9452 41.3054 13.9491 41.2978 13.951C41.2837 13.9545 41.2833 13.9536 41.3019 13.9512C41.3195 13.949 41.3475 13.9464 41.3879 13.9444C41.428 13.9424 41.4767 13.9411 41.535 13.9411V11.8784ZM39.926 12.982V20.2737H41.9888V12.982H39.926ZM40.8494 21.2994L41.5353 21.3716L41.7512 19.3202L41.0654 19.248L40.8494 21.2994ZM41.6433 21.3772C42.728 21.3772 43.2295 20.4605 43.4399 19.7872L41.471 19.1719C41.44 19.2713 41.4109 19.3389 41.3884 19.3822C41.3657 19.4257 41.3551 19.4341 41.3646 19.4239C41.3759 19.4119 41.4094 19.3807 41.4683 19.3537C41.5292 19.3259 41.5915 19.3145 41.6433 19.3145V21.3772ZM43.4339 19.8057C43.6843 19.0545 43.7756 17.9059 43.7756 16.4834H41.7129C41.7129 17.9006 41.6117 18.7495 41.477 19.1534L43.4339 19.8057ZM43.7756 16.4834C43.7756 15.7538 43.751 15.1237 43.6981 14.6017C43.647 14.0968 43.5634 13.6245 43.413 13.2487L41.4979 14.0148C41.54 14.1203 41.6008 14.3639 41.6459 14.8096C41.6893 15.2381 41.7129 15.7933 41.7129 16.4834H43.7756ZM43.413 13.2487C43.2708 12.8932 43.0533 12.5422 42.7174 12.2787C42.3675 12.0043 41.9566 11.8784 41.535 11.8784V13.9411C41.541 13.9411 41.5289 13.9418 41.5057 13.9342C41.4815 13.9262 41.4599 13.9139 41.4444 13.9018C41.4154 13.879 41.4475 13.889 41.4979 14.0148L43.413 13.2487ZM49.4303 22.9088L49.823 21.9551L49.4303 22.9088ZM49.5386 10.4191L49.1089 9.48149L49.1012 9.485L49.0936 9.48863L49.5386 10.4191ZM58.5449 13.3971L59.5455 13.6473L59.5471 13.6409L58.5449 13.3971ZM54.1591 13.8122L54.2458 12.7845L53.1277 12.6901V13.8122H54.1591ZM54.1591 15.0215H53.1277V16.0955L54.2009 16.052L54.1591 15.0215ZM57.9313 17.783L56.9529 17.4568L56.9498 17.466L56.9469 17.4753L57.9313 17.783ZM57.4259 18.3605L57.4031 19.3916L57.4145 19.3919H57.4259V18.3605ZM54.1591 18.2883L54.1819 17.2572L53.1277 17.2339V18.2883H54.1591ZM54.1591 19.4434H53.1277V20.5547L54.2359 20.4719L54.1591 19.4434ZM58.2742 22.0038H50.6215V24.0665H58.2742V22.0038ZM50.6215 22.0038C50.3477 22.0038 50.1401 21.9939 49.9903 21.978C49.8244 21.9604 49.7893 21.9413 49.823 21.9551L49.0376 23.8625C49.2759 23.9606 49.5416 24.0047 49.7728 24.0292C50.02 24.0554 50.3058 24.0665 50.6215 24.0665V22.0038ZM49.823 21.9551C49.8355 21.9603 49.927 22.0002 50.0163 22.1158C50.116 22.2448 50.1548 22.393 50.1548 22.5117H48.0921C48.0921 22.811 48.1821 23.1156 48.3841 23.377C48.5757 23.6249 48.8206 23.7731 49.0376 23.8625L49.823 21.9551ZM50.1548 22.5117V11.0869H48.0921V22.5117H50.1548ZM50.1548 11.0869C50.1548 11.0853 50.1538 11.1484 50.1032 11.2298C50.0518 11.3124 49.9919 11.3455 49.9836 11.3495L49.0936 9.48863C48.8085 9.62498 48.5411 9.83556 48.3513 10.1408C48.1624 10.4448 48.0921 10.7756 48.0921 11.0869H50.1548ZM49.9683 11.3566C49.9679 11.3568 49.9903 11.3469 50.0453 11.3332C50.099 11.3199 50.1731 11.3057 50.2711 11.293C50.4689 11.2674 50.7332 11.2519 51.0728 11.2519V9.18916C50.3355 9.18916 49.6209 9.24682 49.1089 9.48149L49.9683 11.3566ZM51.0728 11.2519H58.3284V9.18916H51.0728V11.2519ZM58.3284 11.2519C58.2116 11.2519 58.0891 11.2264 57.9738 11.1714C57.8612 11.1178 57.7806 11.0483 57.7276 10.9894C57.6323 10.8835 57.6152 10.8009 57.6248 10.8327C57.6311 10.8538 57.6456 10.9154 57.6575 11.0338C57.6689 11.1487 57.676 11.2973 57.676 11.4839H59.7387C59.7387 11.0365 59.708 10.5984 59.6005 10.24C59.5469 10.0613 59.4508 9.82071 59.2608 9.60954C59.0442 9.36884 58.7211 9.18916 58.3284 9.18916V11.2519ZM57.676 11.4839C57.676 12.2869 57.622 12.8278 57.5428 13.1533L59.5471 13.6409C59.6845 13.076 59.7387 12.3415 59.7387 11.4839H57.676ZM57.5444 13.147C57.5251 13.2243 57.508 13.2761 57.4957 13.3076C57.4827 13.341 57.4807 13.3372 57.4973 13.3123C57.5129 13.2889 57.5646 13.2172 57.6683 13.1481C57.7826 13.0719 57.9366 13.0155 58.1118 13.0155V15.0782C58.6837 15.0782 59.0411 14.7153 59.2136 14.4565C59.382 14.2039 59.4802 13.9087 59.5455 13.6472L57.5444 13.147ZM58.1118 13.0155C57.3774 13.0155 56.0984 12.9409 54.2458 12.7845L54.0723 14.8399C55.9258 14.9964 57.2819 15.0782 58.1118 15.0782V13.0155ZM53.1277 13.8122V15.0215H55.1905V13.8122H53.1277ZM54.2009 16.052C55.9866 15.9796 57.1259 15.9446 57.6425 15.9446V13.8818C57.0762 13.8818 55.8932 13.919 54.1173 13.991L54.2009 16.052ZM57.6425 15.9446C57.5073 15.9446 57.3526 15.8995 57.2225 15.7984C57.1071 15.7086 57.0659 15.6175 57.06 15.6037C57.0541 15.5899 57.0663 15.6139 57.0784 15.6987C57.09 15.78 57.0985 15.8951 57.0985 16.0503H59.1612C59.1612 15.6291 59.1207 15.1757 58.956 14.7912C58.8688 14.5879 58.7261 14.3547 58.4889 14.1702C58.237 13.9743 57.9402 13.8818 57.6425 13.8818V15.9446ZM57.0985 16.0503C57.0985 16.772 57.0325 17.2178 56.9529 17.4568L58.9097 18.1091C59.0948 17.554 59.1612 16.8446 59.1612 16.0503H57.0985ZM56.9469 17.4753C56.9075 17.6013 56.8895 17.5931 56.9385 17.537C56.9683 17.503 57.0261 17.4479 57.1181 17.4019C57.2141 17.3539 57.321 17.3292 57.4259 17.3292V19.3919C57.8861 19.3919 58.2498 19.1708 58.4909 18.8953C58.7084 18.6467 58.8347 18.3497 58.9157 18.0906L56.9469 17.4753ZM57.4487 17.3294L54.1819 17.2572L54.1363 19.3194L57.4031 19.3916L57.4487 17.3294ZM53.1277 18.2883V19.4434H55.1905V18.2883H53.1277ZM54.2359 20.4719C56.3323 20.3153 57.7402 20.2402 58.4908 20.2402V18.1775C57.6531 18.1775 56.1732 18.2587 54.0823 18.415L54.2359 20.4719ZM58.4908 20.2402C58.374 20.2402 58.2516 20.2147 58.1362 20.1597C58.0236 20.1061 57.9431 20.0366 57.89 19.9777C57.7947 19.8718 57.7777 19.7892 57.7872 19.821C57.7935 19.8421 57.8081 19.9036 57.8199 20.0221C57.8314 20.137 57.8385 20.2856 57.8385 20.4722H59.9012C59.9012 20.0248 59.8705 19.5867 59.7629 19.2283C59.7093 19.0496 59.6133 18.809 59.4232 18.5978C59.2066 18.3571 58.8835 18.1775 58.4908 18.1775V20.2402ZM57.8385 20.4722C57.8385 21.2906 57.7839 21.8269 57.7068 22.1353L59.708 22.6355C59.8474 22.0776 59.9012 21.3385 59.9012 20.4722H57.8385ZM57.7068 22.1353C57.6875 22.2126 57.6704 22.2643 57.6582 22.2959C57.6452 22.3293 57.6431 22.3255 57.6597 22.3006C57.6754 22.2772 57.7271 22.2055 57.8307 22.1364C57.9451 22.0602 58.099 22.0038 58.2742 22.0038V24.0665C58.8462 24.0665 59.2035 23.7035 59.376 23.4448C59.5444 23.1922 59.6426 22.897 59.708 22.6355L57.7068 22.1353ZM64.0923 22.8908L63.9582 21.8682L64.0923 22.8908ZM60.4464 22.9088L60.0537 23.8625L60.0631 23.8664L60.0726 23.87L60.4464 22.9088ZM61.3128 10.2386L61.1432 9.22124L61.1407 9.22167L61.3128 10.2386ZM66.6371 10.0581L66.6016 11.0888L66.6194 11.0894H66.6371V10.0581ZM67.9006 10.1122L67.8234 11.1407L67.9006 10.1122ZM69.0376 10.2927L68.7373 11.2795L68.7489 11.2828L69.0376 10.2927ZM69.9762 10.6176L69.599 11.5776L69.6104 11.5819L69.9762 10.6176ZM70.7884 11.141L70.0175 11.8262L70.0273 11.8372L70.0373 11.8479L70.7884 11.141ZM71.3479 11.881L70.4733 12.4276L70.4744 12.4295L71.3479 11.881ZM71.3479 16.5195L70.422 16.065L70.4186 16.0721L71.3479 16.5195ZM70.0845 17.9995L69.5308 17.1294L68.6613 17.6827L69.214 18.5526L70.0845 17.9995ZM67.1786 22.9449L66.95 23.9506L67.1786 22.9449ZM66.6732 22.5478L65.6897 22.8582L65.6949 22.8747L65.7007 22.8911L66.6732 22.5478ZM65.5001 18.8298L66.4836 18.5194L66.2699 17.8419L65.5606 17.8002L65.5001 18.8298ZM65.1932 18.8117L65.2538 17.7822L64.1619 17.7179V18.8117H65.1932ZM65.1932 16.0322H64.1619V17.0636H65.1932V16.0322ZM66.4206 13.2347L65.6111 13.8737L65.6212 13.8865L65.6317 13.899L66.4206 13.2347ZM65.1932 12.8917V11.8604H64.1619V12.8917H65.1932ZM64.1619 22.5117C64.1619 22.0995 64.4138 21.869 64.495 21.8064C64.5777 21.7427 64.6295 21.7324 64.5823 21.7486C64.4989 21.7773 64.3064 21.8225 63.9582 21.8682L64.2264 23.9134C64.6121 23.8628 64.9701 23.7967 65.2537 23.699C65.39 23.6521 65.5795 23.5748 65.7539 23.4404C65.9268 23.3072 66.2246 23.0022 66.2246 22.5117H64.1619ZM63.9582 21.8682C63.269 21.9585 62.5738 22.0038 61.8723 22.0038V24.0665C62.6628 24.0665 63.4476 24.0155 64.2264 23.9134L63.9582 21.8682ZM61.8723 22.0038C61.5214 22.0038 61.2522 21.9936 61.0563 21.9762C60.8361 21.9567 60.7854 21.934 60.8202 21.9476L60.0726 23.87C60.3241 23.9678 60.6192 24.0083 60.8743 24.0309C61.1537 24.0557 61.4892 24.0665 61.8723 24.0665V22.0038ZM60.8391 21.9551C60.8516 21.9603 60.9431 22.0002 61.0324 22.1158C61.1321 22.2448 61.1709 22.393 61.1709 22.5117H59.1082C59.1082 22.811 59.1982 23.1156 59.4002 23.377C59.5918 23.6249 59.8367 23.7731 60.0537 23.8625L60.8391 21.9551ZM61.1709 22.5117V10.9064H59.1082V22.5117H61.1709ZM61.1709 10.9064C61.1709 11.0603 61.1177 11.1985 61.0458 11.2969C60.9838 11.3819 60.9293 11.4089 60.9431 11.4011C60.9548 11.3944 61.0007 11.3714 61.0982 11.3419C61.1933 11.3131 61.3204 11.2833 61.4848 11.2555L61.1407 9.22167C60.7071 9.29505 60.274 9.4085 59.9227 9.60847C59.5615 9.81403 59.1082 10.2287 59.1082 10.9064H61.1709ZM61.4823 11.2559C62.2003 11.1362 63.1375 11.0714 64.3089 11.0714V9.00867C63.0737 9.00867 62.0135 9.07619 61.1432 9.22124L61.4823 11.2559ZM64.3089 11.0714C65.5169 11.0714 66.2739 11.0775 66.6016 11.0888L66.6727 9.02734C66.3025 9.01457 65.5073 9.00867 64.3089 9.00867V11.0714ZM66.6371 11.0894C66.9655 11.0894 67.3598 11.1059 67.8234 11.1407L67.9777 9.08376C67.4787 9.04633 67.0308 9.02672 66.6371 9.02672V11.0894ZM67.8234 11.1407C68.2721 11.1743 68.5653 11.227 68.7373 11.2794L69.3379 9.30604C68.9565 9.18994 68.4916 9.1223 67.9777 9.08376L67.8234 11.1407ZM68.7489 11.2828C69.0025 11.3568 69.2855 11.4544 69.5991 11.5775L70.3533 9.65766C69.993 9.51612 69.6504 9.39709 69.3264 9.30261L68.7489 11.2828ZM69.6104 11.5819C69.8472 11.6718 69.9628 11.7646 70.0175 11.8262L71.5592 10.4558C71.2289 10.0842 70.803 9.82815 70.3419 9.65328L69.6104 11.5819ZM70.0373 11.8479C70.175 11.9941 70.3214 12.1846 70.4733 12.4276L72.2225 11.3344C72.0134 10.9999 71.7868 10.697 71.5394 10.4342L70.0373 11.8479ZM70.4744 12.4295C70.6527 12.7134 70.8038 13.2303 70.8038 14.101H72.8666C72.8666 13.0465 72.6928 12.0834 72.2213 11.3326L70.4744 12.4295ZM70.8038 14.101C70.8038 14.938 70.6604 15.5795 70.4221 16.0651L72.2737 16.974C72.6851 16.136 72.8666 15.1651 72.8666 14.101H70.8038ZM70.4186 16.0721C70.1764 16.5751 69.875 16.9103 69.5308 17.1294L70.6382 18.8697C71.3528 18.4149 71.8936 17.7635 72.2771 16.967L70.4186 16.0721ZM69.214 18.5526C69.8976 19.6286 70.3954 20.4854 70.7187 21.132C70.8805 21.4556 70.99 21.7097 71.0571 21.9009C71.13 22.109 71.1287 22.1765 71.1287 22.1508H73.1914C73.1914 21.8302 73.1036 21.5036 73.0036 21.2184C72.8977 20.9164 72.7478 20.5778 72.5636 20.2095C72.1951 19.4724 71.6551 18.5483 70.955 17.4465L69.214 18.5526ZM71.1287 22.1508C71.1287 21.8907 71.2818 21.7404 71.321 21.7111C71.3315 21.7033 71.2611 21.7538 71.0222 21.8132C70.5553 21.9293 69.7687 22.0038 68.6045 22.0038V24.0665C69.8106 24.0665 70.8018 23.9936 71.5201 23.8149C71.8739 23.7269 72.2479 23.5931 72.5546 23.3643C72.8902 23.1139 73.1914 22.7056 73.1914 22.1508H71.1287ZM68.6045 22.0038C67.9139 22.0038 67.5456 21.9707 67.4072 21.9392L66.95 23.9506C67.341 24.0395 67.9234 24.0665 68.6045 24.0665V22.0038ZM67.4072 21.9392C67.3852 21.9342 67.4274 21.9396 67.4909 21.9895C67.5626 22.0459 67.6176 22.1247 67.6458 22.2046L65.7007 22.8911C65.9211 23.5155 66.4395 23.8346 66.95 23.9506L67.4072 21.9392ZM67.6568 22.2375L66.4836 18.5194L64.5165 19.1401L65.6897 22.8582L67.6568 22.2375ZM65.5606 17.8002L65.2538 17.7822L65.1327 19.8413L65.4395 19.8594L65.5606 17.8002ZM64.1619 18.8117V22.5117H66.2246V18.8117H64.1619ZM65.1932 17.0636H65.6625V15.0009H65.1932V17.0636ZM65.6625 17.0636C66.3271 17.0636 66.9321 16.7783 67.3146 16.1848C67.6469 15.6691 67.7407 15.027 67.7407 14.4078H65.678C65.678 14.6264 65.6601 14.7877 65.6356 14.9019C65.6109 15.0168 65.5842 15.062 65.5807 15.0674C65.5797 15.069 65.5847 15.061 65.5976 15.049C65.611 15.0365 65.6279 15.0244 65.6467 15.0146C65.687 14.9938 65.7024 15.0009 65.6625 15.0009V17.0636ZM67.7407 14.4078C67.7407 13.7935 67.6455 13.0882 67.2095 12.5703L65.6317 13.899C65.5969 13.8577 65.6129 13.8533 65.6357 13.9459C65.6581 14.0371 65.678 14.1856 65.678 14.4078H67.7407ZM67.2301 12.5956C66.8997 12.1771 66.4122 11.8604 65.7889 11.8604V13.9231C65.7665 13.9231 65.7396 13.9203 65.7104 13.913C65.6812 13.9056 65.6557 13.895 65.6352 13.8839C65.5942 13.8616 65.5892 13.846 65.6111 13.8737L67.2301 12.5956ZM65.7889 11.8604H65.1932V13.9231H65.7889V11.8604ZM64.1619 12.8917V16.0322H66.2246V12.8917H64.1619ZM16.5548 41.9269L16.6558 42.9533L16.6632 42.9525L16.6705 42.9517L16.5548 41.9269ZM12.927 41.9449L12.5649 42.9106L12.6 42.9238L12.636 42.9344L12.927 41.9449ZM12.6382 33.841H13.6696V32.8097H12.6382V33.841ZM9.78652 33.3356L8.79484 33.619V33.619L9.78652 33.3356ZM9.85872 30.0327L10.8537 30.3041L10.8553 30.2985L9.85872 30.0327ZM20.5616 29.7259L19.5463 29.9072L19.5495 29.9246L19.5532 29.942L20.5616 29.7259ZM20.4714 32.9927L19.4672 32.7577V32.7577L20.4714 32.9927ZM17.6738 33.841V32.8097H16.6425V33.841H17.6738ZM16.6425 41.602C16.6425 41.3592 16.7324 41.1655 16.8265 41.038C16.9128 40.9212 17.0032 40.8569 17.0448 40.8301C17.1224 40.78 17.1642 40.7753 17.1065 40.792C17.0064 40.8211 16.7971 40.8616 16.4391 40.902L16.6705 42.9517C17.0586 42.9079 17.4087 42.8522 17.6816 42.7729C17.8105 42.7355 17.9922 42.6736 18.163 42.5634C18.3018 42.4738 18.7052 42.1723 18.7052 41.602H16.6425ZM16.4539 40.9005C15.7538 40.9693 15.0475 41.0038 14.3348 41.0038V43.0665C15.1142 43.0665 15.8879 43.0288 16.6558 42.9533L16.4539 40.9005ZM14.3348 41.0038C13.9791 41.0038 13.7024 40.9964 13.4984 40.9833C13.2713 40.9688 13.2018 40.9507 13.218 40.9555L12.636 42.9344C12.8567 42.9993 13.1242 43.0263 13.3664 43.0418C13.6316 43.0588 13.9565 43.0665 14.3348 43.0665V41.0038ZM13.2891 40.9792C13.2992 40.983 13.3985 41.021 13.4993 41.1407C13.6155 41.2787 13.6696 41.4494 13.6696 41.602H11.6069C11.6069 41.911 11.709 42.217 11.9215 42.4694C12.1186 42.7034 12.3623 42.8346 12.5649 42.9106L13.2891 40.9792ZM13.6696 41.602V33.841H11.6069V41.602H13.6696ZM12.6382 32.8097H10.1294V34.8724H12.6382V32.8097ZM10.1294 32.8097C10.5605 32.8097 10.771 33.0959 10.7979 33.1356C10.831 33.1844 10.8146 33.1798 10.7782 33.0523L8.79484 33.619C8.85467 33.8284 8.94358 34.0765 9.09102 34.2938C9.23225 34.5019 9.56603 34.8724 10.1294 34.8724V32.8097ZM10.7782 33.0523C10.7222 32.8562 10.6735 32.4725 10.6735 31.8376H8.61077C8.61077 32.5262 8.65836 33.1413 8.79484 33.619L10.7782 33.0523ZM10.6735 31.8376C10.6735 31.2355 10.7382 30.7277 10.8537 30.3041L8.8637 29.7613C8.69044 30.3966 8.61077 31.0921 8.61077 31.8376H10.6735ZM10.8553 30.2985C10.8826 30.1958 10.908 30.1224 10.9287 30.0726C10.9501 30.021 10.9604 30.0094 10.9519 30.0213C10.9439 30.0326 10.9015 30.0896 10.8114 30.1459C10.7122 30.2079 10.5814 30.2519 10.4363 30.2519V28.1892C9.86509 28.1892 9.48104 28.5303 9.27089 28.8259C9.07061 29.1075 8.94739 29.4474 8.86218 29.767L10.8553 30.2985ZM10.4363 30.2519H20.2007V28.1892H10.4363V30.2519ZM20.2007 30.2519C20.0779 30.2519 19.9445 30.2212 19.8208 30.152C19.7019 30.0854 19.6278 30.0033 19.587 29.9463C19.5184 29.8502 19.5278 29.8031 19.5463 29.9072L21.5769 29.5446C21.5354 29.3118 21.4545 29.012 21.2655 28.7474C21.0445 28.438 20.6766 28.1892 20.2007 28.1892V30.2519ZM19.5532 29.942C19.6024 30.1715 19.6386 30.5725 19.6386 31.1878H21.7013C21.7013 30.5277 21.6653 29.9541 21.5701 29.5098L19.5532 29.942ZM19.6386 31.1878C19.6386 31.7541 19.5798 32.2763 19.4672 32.7577L21.4756 33.2277C21.6277 32.5781 21.7013 31.897 21.7013 31.1878H19.6386ZM19.4672 32.7577C19.4412 32.8687 19.4164 32.9501 19.3955 33.007C19.3737 33.0659 19.3618 33.0829 19.3674 33.074C19.3718 33.0671 19.4122 33.0044 19.506 32.9396C19.6113 32.8667 19.7591 32.8097 19.9299 32.8097V34.8724C20.543 34.8724 20.9218 34.4727 21.1061 34.1838C21.2888 33.8977 21.3993 33.5537 21.4756 33.2277L19.4672 32.7577ZM19.9299 32.8097H17.6738V34.8724H19.9299V32.8097ZM16.6425 33.841V41.602H18.7052V33.841H16.6425ZM25.279 41.9269L25.0091 42.9223L25.0189 42.9249L25.0289 42.9274L25.279 41.9269ZM23.3117 40.9161L23.956 40.1107L23.9471 40.1038L23.3117 40.9161ZM21.9761 32.4874L21.0184 32.1043L21.0138 32.1162L21.9761 32.4874ZM23.3658 30.4839L22.7056 29.6916L22.704 29.6929L23.3658 30.4839ZM30.3327 29.2927L30.0907 30.2953L30.0945 30.2962L30.3327 29.2927ZM32.3361 30.2132L32.9408 29.3777L32.934 29.3729L32.3361 30.2132ZM32.5166 40.5552L33.23 41.2999L32.5166 40.5552ZM27.2644 39.1113L26.459 39.7555L26.4699 39.7692L26.4813 39.7825L27.2644 39.1113ZM28.4556 39.1113L29.2387 39.7825L29.25 39.7692L29.2609 39.7555L28.4556 39.1113ZM28.8166 37.9922L29.8333 38.1653L29.8339 38.1618L28.8166 37.9922ZM28.8166 33.2274L29.8327 33.0506L28.8166 33.2274ZM27.2644 32.1444L28.0474 32.8156V32.8156L27.2644 32.1444ZM26.9034 33.2274L27.9195 33.4041L27.9195 33.4041L26.9034 33.2274ZM26.9034 37.9922L25.8861 38.1618L25.8867 38.1653L26.9034 37.9922ZM27.86 41.1662C26.9189 41.1662 26.1469 41.0807 25.5291 40.9263L25.0289 42.9274C25.855 43.134 26.8037 43.229 27.86 43.229V41.1662ZM25.5489 40.9315C24.982 40.7777 24.4525 40.508 23.956 40.1108L22.6674 41.7215C23.3741 42.2869 24.1562 42.691 25.0091 42.9223L25.5489 40.9315ZM23.9471 40.1038C23.1186 39.4557 22.5201 38.0535 22.5201 35.4474H20.4574C20.4574 38.2317 21.0742 40.4754 22.6763 41.7285L23.9471 40.1038ZM22.5201 35.4474C22.5201 34.4123 22.6691 33.5566 22.9383 32.8585L21.0138 32.1162C20.6333 33.1026 20.4574 34.2202 20.4574 35.4474H22.5201ZM22.9337 32.8704C23.2186 32.1579 23.5906 31.6407 24.0277 31.2749L22.704 29.6929C21.9619 30.3139 21.4073 31.1322 21.0185 32.1043L22.9337 32.8704ZM24.0261 31.2762C24.9569 30.5005 26.2042 30.0714 27.86 30.0714V28.0087C25.8338 28.0087 24.085 28.5421 22.7056 29.6916L24.0261 31.2762ZM27.86 30.0714C28.7536 30.0714 29.4928 30.151 30.0907 30.2953L30.5747 28.2902C29.7768 28.0976 28.8675 28.0087 27.86 28.0087V30.0714ZM30.0945 30.2962C30.6684 30.4324 31.215 30.6813 31.7381 31.0535L32.934 29.3729C32.2058 28.8547 31.4167 28.49 30.5708 28.2892L30.0945 30.2962ZM31.7314 31.0487C32.5902 31.6703 33.1998 32.9876 33.1998 35.4474H35.2626C35.2626 32.7572 34.6088 30.585 32.9408 29.3777L31.7314 31.0487ZM33.1998 35.4474C33.1998 37.6063 32.6653 38.9845 31.8031 39.8104L33.23 41.2999C34.654 39.9359 35.2626 37.9089 35.2626 35.4474H33.1998ZM31.8031 39.8104C30.8954 40.6798 29.6223 41.1662 27.86 41.1662V43.229C30.0203 43.229 31.8515 42.6204 33.23 41.2999L31.8031 39.8104ZM26.4813 39.7825C26.8501 40.2127 27.3529 40.3953 27.86 40.3953V38.3326C27.8486 38.3326 27.8763 38.3309 27.9244 38.3513C27.9759 38.3732 28.0191 38.407 28.0474 38.4401L26.4813 39.7825ZM27.86 40.3953C28.3671 40.3953 28.8699 40.2127 29.2387 39.7825L27.6725 38.4401C27.7008 38.407 27.744 38.3732 27.7956 38.3513C27.8437 38.3309 27.8714 38.3326 27.86 38.3326V40.3953ZM29.2609 39.7555C29.4472 39.5227 29.56 39.2473 29.6357 39.0128C29.7162 38.7632 29.7803 38.4766 29.8333 38.1653L27.7998 37.8192C27.7566 38.0734 27.7124 38.256 27.6726 38.3795C27.6279 38.518 27.6084 38.5193 27.6502 38.467L29.2609 39.7555ZM29.8339 38.1618C29.9439 37.5017 29.9923 36.6361 29.9923 35.5917H27.9296C27.9296 36.593 27.8817 37.3276 27.7992 37.8227L29.8339 38.1618ZM29.9923 35.5917C29.9923 34.5494 29.9442 33.6917 29.8327 33.0506L27.8005 33.4041C27.8815 33.87 27.9296 34.5885 27.9296 35.5917H29.9923ZM29.8327 33.0506C29.7795 32.7447 29.7147 32.4617 29.6326 32.2154C29.556 31.9858 29.4385 31.7064 29.2387 31.4732L27.6725 32.8156C27.639 32.7765 27.6298 32.754 27.6369 32.7681C27.643 32.7804 27.6569 32.8114 27.6757 32.8676C27.7139 32.9823 27.7574 33.1565 27.8005 33.4041L29.8327 33.0506ZM29.2387 31.4732C28.8699 31.043 28.3671 30.8604 27.86 30.8604V32.9231C27.8714 32.9231 27.8437 32.9248 27.7956 32.9044C27.744 32.8825 27.7008 32.8487 27.6725 32.8156L29.2387 31.4732ZM27.86 30.8604C27.3529 30.8604 26.8501 31.043 26.4813 31.4732L28.0474 32.8156C28.0191 32.8487 27.9759 32.8825 27.9244 32.9044C27.8763 32.9248 27.8486 32.9231 27.86 32.9231V30.8604ZM26.4813 31.4732C26.2815 31.7064 26.1639 31.9858 26.0874 32.2154C26.0053 32.4617 25.9405 32.7447 25.8873 33.0506L27.9195 33.4041C27.9625 33.1565 28.006 32.9823 28.0443 32.8676C28.063 32.8114 28.0769 32.7804 28.0831 32.7681C28.0901 32.754 28.081 32.7765 28.0474 32.8156L26.4813 31.4732ZM25.8873 33.0506C25.7758 33.6917 25.7276 34.5494 25.7276 35.5917H27.7904C27.7904 34.5885 27.8385 33.87 27.9195 33.4041L25.8873 33.0506ZM25.7276 35.5917C25.7276 36.6361 25.7761 37.5017 25.8861 38.1618L27.9207 37.8227C27.8382 37.3276 27.7904 36.593 27.7904 35.5917H25.7276ZM25.8867 38.1653C25.9396 38.4766 26.0038 38.7632 26.0843 39.0128C26.1599 39.2473 26.2727 39.5227 26.459 39.7555L28.0697 38.467C28.1116 38.5193 28.0921 38.518 28.0474 38.3795C28.0076 38.256 27.9634 38.0734 27.9201 37.8192L25.8867 38.1653ZM38.6818 41.9088L38.2456 42.8434H38.2456L38.6818 41.9088ZM38.3027 41.4756L39.2753 41.1324L39.2724 41.1243L38.3027 41.4756ZM34.314 30.4659H33.2826V30.647L33.3443 30.8172L34.314 30.4659ZM35.5954 29.6717L35.2571 28.6974L35.2529 28.6989L35.5954 29.6717ZM40.0174 30.2854L38.9913 30.3897L38.9919 30.3954L40.0174 30.2854ZM40.631 36.0069L39.6056 36.1169L39.7044 37.0382H40.631V36.0069ZM40.8837 36.0069V37.0382H41.828L41.9111 36.0976L40.8837 36.0069ZM41.3891 30.2854L42.4165 30.3761L42.4168 30.3725L41.3891 30.2854ZM45.0349 29.4732L44.3793 30.2693L44.3937 30.2812L44.4084 30.2925L45.0349 29.4732ZM45.3779 30.1049L44.3507 30.1983L44.3517 30.2085L45.3779 30.1049ZM45.9735 36.0069L44.9473 36.1104L45.041 37.0382H45.9735V36.0069ZM46.2262 36.0069V37.0382H47.1764L47.2541 36.0912L46.2262 36.0069ZM46.6954 30.2854L45.6695 30.1793L45.6684 30.1902L45.6675 30.2011L46.6954 30.2854ZM47.9227 29.4913L47.6942 28.4855L47.6908 28.4863L47.9227 29.4913ZM51.8574 29.5634L51.2005 30.3586L51.2088 30.3654L51.2172 30.3721L51.8574 29.5634ZM52.2906 30.2854L53.2655 30.6219L53.3219 30.4584V30.2854H52.2906ZM48.4281 41.4756L49.4001 41.8206L49.403 41.8121L48.4281 41.4756ZM44.4213 41.4756L45.4107 41.1846L45.4095 41.1803L44.4213 41.4756ZM43.4827 38.3352L44.4709 38.0398L44.251 37.3038H43.4827V38.3352ZM43.2662 38.3352V37.3038H42.5022L42.2796 38.0346L43.2662 38.3352ZM42.3096 41.4756L41.3229 41.1751L41.3191 41.1881L42.3096 41.4756ZM39.8188 41.0038C39.5509 41.0038 39.3531 40.9938 39.2153 40.9785C39.1471 40.9709 39.1042 40.9632 39.0815 40.9581C39.0551 40.9521 39.074 40.9537 39.1179 40.9742L38.2456 42.8434C38.4925 42.9586 38.769 43.0043 38.9875 43.0286C39.2288 43.0554 39.5092 43.0665 39.8188 43.0665V41.0038ZM39.1179 40.9742C39.1525 40.9903 39.193 41.0184 39.2278 41.0582C39.2614 41.0965 39.2735 41.1273 39.2753 41.1324L37.3302 41.8189C37.4855 42.2589 37.7905 42.631 38.2456 42.8434L39.1179 40.9742ZM39.2724 41.1243L35.2836 30.1146L33.3443 30.8172L37.3331 41.827L39.2724 41.1243ZM35.3453 30.4659C35.3453 30.7443 35.2143 30.916 35.1738 30.9628C35.1326 31.0103 35.117 31.0101 35.1776 30.9726C35.2967 30.8988 35.5347 30.7866 35.938 30.6446L35.2529 28.6989C34.8019 28.8577 34.3992 29.0283 34.091 29.2192C33.9381 29.314 33.7623 29.4417 33.6144 29.6125C33.4671 29.7827 33.2826 30.0731 33.2826 30.4659H35.3453ZM35.9337 30.646C36.6961 30.3813 37.4543 30.2519 38.2125 30.2519V28.1892C37.214 28.1892 36.2274 28.3605 35.2571 28.6974L35.9337 30.646ZM38.2125 30.2519C38.6963 30.2519 38.9156 30.3324 38.9879 30.375C39.013 30.3898 39.0048 30.3906 38.9924 30.371C38.9805 30.3521 38.9873 30.3501 38.9913 30.3897L41.0434 30.1811C40.975 29.5081 40.6265 28.9468 40.0361 28.5985C39.5068 28.2862 38.8597 28.1892 38.2125 28.1892V30.2519ZM38.9919 30.3954L39.6056 36.1169L41.6565 35.8969L41.0429 30.1754L38.9919 30.3954ZM40.631 37.0382H40.8837V34.9755H40.631V37.0382ZM41.9111 36.0976L42.4165 30.3761L40.3617 30.1947L39.8564 35.9161L41.9111 36.0976ZM42.4168 30.3725C42.4149 30.395 42.401 30.439 42.373 30.4731C42.3533 30.4973 42.3612 30.4734 42.4564 30.4318C42.6682 30.3392 43.0934 30.2519 43.8257 30.2519V28.1892C42.9937 28.1892 42.2307 28.2793 41.6303 28.5417C40.9774 28.827 40.4317 29.3688 40.3614 30.1983L42.4168 30.3725ZM43.8257 30.2519C44.0849 30.2519 44.2598 30.2706 44.3683 30.2932C44.4885 30.3184 44.4578 30.334 44.3793 30.2693L45.6906 28.6771C45.4075 28.444 45.0731 28.3332 44.7902 28.2741C44.4955 28.2126 44.1681 28.1892 43.8257 28.1892V30.2519ZM44.4084 30.2925C44.4042 30.2892 44.3848 30.2721 44.3677 30.2405C44.3509 30.2096 44.35 30.1903 44.3507 30.1983L46.405 30.0115C46.3558 29.47 46.1034 28.9919 45.6614 28.6539L44.4084 30.2925ZM44.3517 30.2085L44.9473 36.1104L46.9996 35.9033L46.404 30.0014L44.3517 30.2085ZM45.9735 37.0382H46.2262V34.9755H45.9735V37.0382ZM47.2541 36.0912L47.7233 30.3697L45.6675 30.2011L45.1983 35.9226L47.2541 36.0912ZM47.7213 30.3915C47.7102 30.4991 47.6692 30.5872 47.6272 30.6451C47.5903 30.6961 47.565 30.707 47.5896 30.6911C47.6137 30.6755 47.6682 30.6455 47.7672 30.6085C47.8647 30.5721 47.9922 30.5337 48.1547 30.4962L47.6908 28.4863C47.2485 28.5884 46.8183 28.7333 46.469 28.9593C46.1099 29.1917 45.7309 29.5858 45.6695 30.1793L47.7213 30.3915ZM48.1513 30.497C48.8748 30.3325 49.5802 30.2519 50.2691 30.2519V28.1892C49.4178 28.1892 48.559 28.289 47.6942 28.4855L48.1513 30.497ZM50.2691 30.2519C50.6162 30.2519 50.8657 30.2778 51.0351 30.3144C51.2136 30.3529 51.2378 30.3894 51.2005 30.3586L52.5142 28.7683C52.2002 28.5089 51.8213 28.3739 51.4704 28.2981C51.1103 28.2204 50.7041 28.1892 50.2691 28.1892V30.2519ZM51.2172 30.3721C51.2536 30.4009 51.2763 30.4229 51.2891 30.4367C51.3018 30.4505 51.3026 30.454 51.2979 30.446C51.2928 30.4376 51.2825 30.418 51.2736 30.3878C51.2646 30.357 51.2592 30.322 51.2592 30.2854H53.3219C53.3219 29.5932 52.916 29.0861 52.4976 28.7548L51.2172 30.3721ZM51.3156 29.9489L47.4532 41.1391L49.403 41.8121L53.2655 30.6219L51.3156 29.9489ZM47.4561 41.1307C47.4975 41.0142 47.5595 40.9324 47.6086 40.8826C47.6551 40.8355 47.6902 40.8165 47.6917 40.8156C47.6941 40.8143 47.6776 40.8234 47.6339 40.838C47.5911 40.8522 47.5308 40.8688 47.4496 40.8858C47.1086 40.9573 46.5574 41.0038 45.7569 41.0038V43.0665C46.6049 43.0665 47.3231 43.0198 47.8725 42.9047C48.1453 42.8476 48.4298 42.7631 48.6817 42.6252C48.929 42.49 49.2498 42.244 49.4001 41.8205L47.4561 41.1307ZM45.7569 41.0038C45.5353 41.0038 45.3761 40.9941 45.2689 40.9805C45.2162 40.9738 45.1862 40.9673 45.174 40.9642C45.1593 40.9605 45.1819 40.9646 45.2254 40.9863L44.303 42.8313C44.5419 42.9507 44.8024 43.0004 45.0085 43.0267C45.2323 43.0552 45.4852 43.0665 45.7569 43.0665V41.0038ZM45.2254 40.9863C45.2731 41.0102 45.322 41.0482 45.3608 41.0972C45.3976 41.1437 45.4093 41.1798 45.4107 41.1846L43.4318 41.7667C43.561 42.2059 43.8434 42.6015 44.303 42.8313L45.2254 40.9863ZM45.4095 41.1803L44.4709 38.0398L42.4946 38.6305L43.4331 41.771L45.4095 41.1803ZM43.4827 37.3038H43.2662V39.3665H43.4827V37.3038ZM42.2796 38.0346L41.323 41.1751L43.2962 41.7762L44.2528 38.6357L42.2796 38.0346ZM41.3191 41.1881C41.3899 40.9442 41.5493 40.8438 41.5649 40.8345C41.5783 40.8265 41.5332 40.8545 41.3796 40.889C41.076 40.9572 40.5702 41.0038 39.8188 41.0038V43.0665C40.6197 43.0665 41.3051 43.0199 41.8317 42.9016C42.0933 42.8428 42.373 42.7542 42.6211 42.6063C42.8713 42.4572 43.1751 42.1936 43.3 41.7632L41.3191 41.1881ZM57.1028 41.8908L56.9708 40.8679L56.9687 40.8682L57.1028 41.8908ZM53.4931 41.9088L53.8857 40.9551L53.4931 41.9088ZM54.215 29.5995L53.8639 28.6298L53.8585 28.6318L54.215 29.5995ZM57.2833 29.2566L57.1265 30.276L57.1332 30.277L57.2833 29.2566ZM58.1496 30.0327L57.1819 30.3893L57.183 30.3924L58.1496 30.0327ZM59.8823 34.6893L58.9157 35.049L59.1656 35.7207H59.8823V34.6893ZM59.9545 34.6893V35.7207H60.9859V34.6893H59.9545ZM60.9833 29.5995L61.3398 30.5673L60.9833 29.5995ZM64.7735 29.6537L65.6161 29.0589L65.6152 29.0575L64.7735 29.6537ZM63.8711 41.8908L63.7391 40.8679L63.737 40.8682L63.8711 41.8908ZM59.9906 41.6922L60.9584 41.3357L60.9553 41.3275L59.9906 41.6922ZM58.3121 37.2522L59.2768 36.8875L59.0248 36.2209H58.3121V37.2522ZM58.2218 37.2522V36.2209H57.1905V37.2522H58.2218ZM57.1905 41.5117C57.1905 41.0922 57.4504 40.861 57.5288 40.8015C57.6107 40.7395 57.6608 40.7302 57.6112 40.747C57.5236 40.7766 57.3254 40.8221 56.9708 40.8679L57.2348 42.9136C57.6262 42.8631 57.9875 42.7973 58.2729 42.7007C58.4099 42.6543 58.5999 42.578 58.7749 42.4453C58.9466 42.3152 59.2532 42.0095 59.2532 41.5117H57.1905ZM56.9687 40.8682C56.2788 40.9586 55.5896 41.0038 54.9009 41.0038V43.0665C55.6801 43.0665 56.4589 43.0154 57.2369 42.9134L56.9687 40.8682ZM54.9009 41.0038C54.5497 41.0038 54.2827 40.9936 54.0906 40.9763C53.9949 40.9678 53.9286 40.9583 53.8862 40.9504C53.838 40.9414 53.8463 40.9389 53.8857 40.9551L53.1004 42.8625C53.3562 42.9678 53.6577 43.0085 53.9062 43.0308C54.1834 43.0557 54.518 43.0665 54.9009 43.0665V41.0038ZM53.8857 40.9551C53.8983 40.9603 53.9897 41.0002 54.079 41.1158C54.1788 41.2448 54.2176 41.393 54.2176 41.5117H52.1549C52.1549 41.811 52.2448 42.1156 52.4468 42.377C52.6384 42.6249 52.8833 42.7731 53.1004 42.8625L53.8857 40.9551ZM54.2176 41.5117V30.4298H52.1549V41.5117H54.2176ZM54.2176 30.4298C54.2176 30.5608 54.1778 30.6671 54.1373 30.7352C54.1014 30.7958 54.0727 30.8141 54.0911 30.7992C54.1084 30.7852 54.1524 30.7541 54.2368 30.7106C54.3198 30.6679 54.4298 30.6195 54.5715 30.5673L53.8585 28.6318C53.47 28.7749 53.0933 28.9539 52.7957 29.194C52.4982 29.4341 52.1549 29.8436 52.1549 30.4298H54.2176ZM54.5661 30.5693C55.1329 30.3641 55.7993 30.2519 56.5794 30.2519V28.1892C55.6027 28.1892 54.6929 28.3296 53.8639 28.6298L54.5661 30.5693ZM56.5794 30.2519C56.88 30.2519 57.0505 30.2643 57.1265 30.276L57.4401 28.2373C57.2032 28.2008 56.9045 28.1892 56.5794 28.1892V30.2519ZM57.1332 30.277C57.1467 30.279 57.1468 30.2806 57.139 30.2771C57.1306 30.2732 57.123 30.2679 57.1185 30.264C57.1094 30.2558 57.1412 30.2789 57.1819 30.3893L59.1174 29.6762C58.8464 28.9406 58.2897 28.3622 57.4334 28.2362L57.1332 30.277ZM57.183 30.3924L58.9157 35.049L60.8489 34.3296L59.1162 29.673L57.183 30.3924ZM59.8823 35.7207H59.9545V33.6579H59.8823V35.7207ZM60.9859 34.6893V30.4298H58.9232V34.6893H60.9859ZM60.9859 30.4298C60.9859 30.5608 60.9461 30.6671 60.9056 30.7352C60.8697 30.7958 60.841 30.8141 60.8594 30.7992C60.8767 30.7852 60.9207 30.7541 61.0051 30.7106C61.0881 30.6679 61.1981 30.6195 61.3398 30.5673L60.6268 28.6318C60.2383 28.7749 59.8616 28.9539 59.564 29.194C59.2664 29.4341 58.9232 29.8436 58.9232 30.4298H60.9859ZM61.3398 30.5673C61.8911 30.3642 62.5491 30.2519 63.3296 30.2519V28.1892C62.3535 28.1892 61.4472 28.3295 60.6268 28.6318L61.3398 30.5673ZM63.3296 30.2519C63.6538 30.2519 63.8539 30.284 63.9628 30.3167C64.0733 30.3498 64.0084 30.3578 63.9319 30.2498L65.6152 29.0575C65.3341 28.6608 64.9263 28.4522 64.5555 28.341C64.1831 28.2292 63.7635 28.1892 63.3296 28.1892V30.2519ZM63.931 30.2485C63.948 30.2726 63.9591 30.2909 63.9661 30.3034C63.973 30.3159 63.9749 30.3212 63.9742 30.3193C63.9727 30.3155 63.9588 30.2777 63.9588 30.2132H66.0215C66.0215 29.7511 65.8268 29.3573 65.6161 29.0589L63.931 30.2485ZM63.9588 30.2132V41.5117H66.0215V30.2132H63.9588ZM63.9588 41.5117C63.9588 41.0922 64.2187 40.861 64.2971 40.8015C64.379 40.7395 64.4291 40.7302 64.3795 40.747C64.2919 40.7766 64.0937 40.8221 63.7391 40.8679L64.0031 42.9136C64.3945 42.8631 64.7558 42.7973 65.0412 42.7007C65.1781 42.6543 65.3682 42.578 65.5432 42.4453C65.7149 42.3152 66.0215 42.0095 66.0215 41.5117H63.9588ZM63.737 40.8682C63.0553 40.9576 62.2887 41.0038 61.4345 41.0038V43.0665C62.3611 43.0665 63.2189 43.0165 64.0052 42.9134L63.737 40.8682ZM61.4345 41.0038C61.024 41.0038 60.7777 40.9756 60.6531 40.946C60.5908 40.9312 60.6083 40.9272 60.663 40.9604C60.721 40.9956 60.8741 41.1069 60.9584 41.3357L59.0228 42.0488C59.1492 42.3919 59.3941 42.6032 59.5935 42.7241C59.7895 42.843 59.9981 42.9105 60.1764 42.9529C60.5331 43.0376 60.9667 43.0665 61.4345 43.0665V41.0038ZM60.9553 41.3275L59.2768 36.8875L57.3474 37.6169L59.0259 42.0569L60.9553 41.3275ZM58.3121 36.2209H58.2218V38.2836H58.3121V36.2209ZM57.1905 37.2522V41.5117H59.2532V37.2522H57.1905Z" fill="#F67F00" mask="url(#path-2-outside-1_3700_12121)"/>
</svg>
