<svg id="Layer_1" data-name="Layer 1" xmlns="http://www.w3.org/2000/svg" viewBox="0 0 30 30"><path id="shape" d="M15,28.79A13.78,13.78,0,0,1,1.21,15h0A13.78,13.78,0,0,1,15,1.21h0A13.78,13.78,0,0,1,28.79,15h0A13.78,13.78,0,0,1,15,28.79Z" fill="#383d38"/><path d="M15,6.27a8.52,8.52,0,0,0-8.73,8.29,8.11,8.11,0,0,0,2.62,5.92v2.38a.87.87,0,0,0,1.26.78l2.3-1.15a8.89,8.89,0,0,0,2.55.37,8.53,8.53,0,0,0,8.73-8.3A8.52,8.52,0,0,0,15,6.27Zm.41,10.35-1.94-1.55-4.58,2,4.54-4.54a.87.87,0,0,1,1.16-.06l1.94,1.54,4.58-2-4.54,4.54A.87.87,0,0,1,15.41,16.62Z" fill="#fff"/></svg>