<svg xmlns="http://www.w3.org/2000/svg" width="114" height="30" viewBox="0 0 114 30" fill="none">
  <path d="M15.0342 0H14.9658C6.70044 0 0 6.70044 0 14.9658V15.0342C0 23.2996 6.70044 30 14.9658 30H15.0342C23.2996 30 30 23.2996 30 15.0342V14.9658C30 6.70044 23.2996 0 15.0342 0Z" fill="#383D38"/>
  <path d="M71.9979 15.0005C71.9979 22.5765 66.3824 28.8396 59.0873 29.856C58.4052 29.9506 57.7073 30 56.9989 30C56.1813 30 55.3783 29.9348 54.5963 29.8087C47.4547 28.6589 42 22.4661 42 15.0005C42 6.71618 48.7159 0 57 0C65.2841 0 72 6.71618 72 15.0005H71.9979Z" fill="#383D38"/>
  <path d="M59.0861 12.043V15.3107H63.1283L62.4882 19.7124H59.0861V29.854C58.404 29.9486 57.7061 29.998 56.9977 29.998C56.18 29.998 55.3771 29.9328 54.5951 29.8067V19.7124H50.8672V15.3107H54.5951V11.3125C54.5951 8.83202 56.6057 6.82031 59.0871 6.82031V6.82242C59.0945 6.82242 59.1008 6.82031 59.1081 6.82031H63.1293V10.6272H60.5018C59.7209 10.6272 59.0871 11.261 59.0871 12.0419L59.0861 12.043Z" fill="white"/>
  <path d="M99.0342 0H98.9658C90.7004 0 84 6.70044 84 14.9658V15.0342C84 23.2996 90.7004 30 98.9658 30H99.0342C107.3 30 114 23.2996 114 15.0342V14.9658C114 6.70044 107.3 0 99.0342 0Z" fill="#383D38"/>
  <path d="M103.637 6.10156H94.354C91.7895 6.10156 89.7031 8.18789 89.7031 10.7524V19.2449C89.7031 21.8094 91.7895 23.8958 94.354 23.8958H103.637C106.201 23.8958 108.288 21.8094 108.288 19.2449V10.7524C108.288 8.18789 106.201 6.10156 103.637 6.10156ZM91.3438 10.7524C91.3438 9.09284 92.6944 7.74224 94.354 7.74224H103.637C105.296 7.74224 106.647 9.09284 106.647 10.7524V19.2449C106.647 20.9045 105.296 22.2551 103.637 22.2551H94.354C92.6944 22.2551 91.3438 20.9045 91.3438 19.2449V10.7524Z" fill="white"/>
  <path d="M98.998 19.3241C101.383 19.3241 103.324 17.3839 103.324 14.998C103.324 12.6121 101.384 10.6719 98.998 10.6719C96.6121 10.6719 94.6719 12.6121 94.6719 14.998C94.6719 17.3839 96.6121 19.3241 98.998 19.3241ZM98.998 12.3136C100.479 12.3136 101.683 13.5181 101.683 14.999C101.683 16.48 100.479 17.6845 98.998 17.6845C97.5171 17.6845 96.3126 16.48 96.3126 14.999C96.3126 13.5181 97.5171 12.3136 98.998 12.3136Z" fill="white"/>
  <path d="M103.728 11.3703C104.37 11.3703 104.894 10.8479 104.894 10.2047C104.894 9.56144 104.371 9.03906 103.728 9.03906C103.085 9.03906 102.562 9.56144 102.562 10.2047C102.562 10.8479 103.085 11.3703 103.728 11.3703Z" fill="white"/>
  <path d="M16.1256 9.71484H10.9399C8.76732 9.71484 7 11.5118 7 13.7208V16.7969C7 18.8931 8.68333 20.6776 10.733 20.8213V22.5781C10.733 22.8202 10.8935 23.0024 11.1063 23.0024C11.2074 23.0024 11.3063 22.9585 11.3855 22.8779L11.7911 22.4656C12.8283 21.4109 14.2311 20.8302 15.7409 20.8302H16.1256C18.2983 20.8305 20.0656 19.0208 20.0656 16.7966V13.7208C20.0656 11.5118 18.2983 9.71484 16.1256 9.71484ZM10.4664 16.4927C9.87816 16.4927 9.3998 16.0063 9.3998 15.4082C9.3998 14.8101 9.87816 14.3238 10.4664 14.3238C11.0546 14.3238 11.533 14.8101 11.533 15.4082C11.533 16.0063 11.0546 16.4927 10.4664 16.4927ZM13.6661 16.4927C13.0779 16.4927 12.5995 16.0063 12.5995 15.4082C12.5995 14.8101 13.0779 14.3238 13.6661 14.3238C14.2543 14.3238 14.7327 14.8101 14.7327 15.4082C14.7327 16.0063 14.2543 16.4927 13.6661 16.4927ZM16.8658 16.4927C16.2776 16.4927 15.7993 16.0063 15.7993 15.4082C15.7993 14.8101 16.2776 14.3238 16.8658 14.3238C17.4541 14.3238 17.9324 14.8101 17.9324 15.4082C17.9324 16.0063 17.4541 16.4927 16.8658 16.4927Z" fill="white"/>
  <path d="M19.0608 7H13.8751C12.3675 7 11.0169 7.87949 10.3594 9.21201C10.5506 9.18653 10.7441 9.16891 10.942 9.16891H16.1277C18.5944 9.16891 20.6009 11.2093 20.6009 13.7171V16.7932C20.6009 17.1445 20.5583 17.485 20.4847 17.8139C21.9611 17.2015 23.0007 15.7179 23.0007 14.0817V11.006C23.0007 8.79694 21.2334 7 19.0608 7Z" fill="white"/>
</svg>