<svg xmlns="http://www.w3.org/2000/svg" width="240" height="31" viewBox="0 0 240 31" fill="none">
  <path d="M15.0342 0.925781H14.9658C6.70044 0.925781 0 7.62622 0 15.8916V15.9599C0 24.2253 6.70044 30.9258 14.9658 30.9258H15.0342C23.2996 30.9258 30 24.2253 30 15.9599V15.8916C30 7.62622 23.2996 0.925781 15.0342 0.925781Z" fill="#383D38"/>
  <path d="M17.9252 20.311C14.0857 20.311 10.962 17.1862 10.9609 13.3467C10.962 12.3735 11.7545 11.582 12.7256 11.582C12.8255 11.582 12.9243 11.5904 13.0189 11.6073C13.227 11.6419 13.4246 11.7124 13.6064 11.8185C13.6327 11.8343 13.6506 11.8595 13.6548 11.8889L14.0605 14.4461C14.0657 14.4756 14.0563 14.506 14.0363 14.5281C13.8124 14.7762 13.5265 14.9548 13.2081 15.0442L13.0546 15.0873L13.1124 15.2355C13.6358 16.5682 14.7016 17.6329 16.0354 18.1584L16.1836 18.2173L16.2267 18.0638C16.316 17.7454 16.4947 17.4595 16.7427 17.2356C16.7606 17.2188 16.7848 17.2104 16.809 17.2104C16.8142 17.2104 16.8195 17.2104 16.8258 17.2114L19.383 17.6171C19.4134 17.6224 19.4387 17.6392 19.4544 17.6655C19.5595 17.8473 19.63 18.046 19.6657 18.2541C19.6825 18.3466 19.6899 18.4443 19.6899 18.5463C19.6899 19.5185 18.8984 20.3099 17.9252 20.311Z" fill="#FDFDFD"/>
  <path d="M24.7319 15.0846C24.5248 12.745 23.4528 10.5746 21.7133 8.97385C19.9633 7.36365 17.693 6.47656 15.3187 6.47656C10.1076 6.47656 5.86771 10.7165 5.86771 15.9276C5.86771 17.6765 6.35013 19.3803 7.26349 20.8643L5.22656 25.3733L11.7483 24.6786C12.8824 25.1431 14.0827 25.3786 15.3177 25.3786C15.6424 25.3786 15.9756 25.3618 16.3098 25.3271C16.6041 25.2955 16.9016 25.2493 17.1938 25.1904C21.5577 24.3086 24.7434 20.4355 24.7687 15.978V15.9276C24.7687 15.6438 24.7561 15.36 24.7308 15.0857L24.7319 15.0846ZM11.9995 22.6995L8.39127 23.0841L9.46859 20.6972L9.25312 20.4082C9.23736 20.3872 9.2216 20.3661 9.20373 20.342C8.2683 19.0502 7.7743 17.5241 7.7743 15.9286C7.7743 11.7686 11.1587 8.38421 15.3187 8.38421C19.216 8.38421 22.5194 11.4249 22.8379 15.3064C22.8547 15.5145 22.8642 15.7237 22.8642 15.9297C22.8642 15.9885 22.8631 16.0463 22.8621 16.1083C22.7822 19.5884 20.3511 22.5439 16.9499 23.2965C16.6903 23.3543 16.4244 23.3984 16.1595 23.4268C15.8842 23.4583 15.6014 23.4741 15.3208 23.4741C14.3213 23.4741 13.3501 23.2807 12.4325 22.8981C12.3306 22.8571 12.2307 22.813 12.1372 22.7678L12.0006 22.7016L11.9995 22.6995Z" fill="#FDFDFD"/>
  <path d="M57.0342 0.925781H56.9658C48.7004 0.925781 42 7.62622 42 15.8916V15.9599C42 24.2253 48.7004 30.9258 56.9658 30.9258H57.0342C65.2996 30.9258 72 24.2253 72 15.9599V15.8916C72 7.62622 65.2996 0.925781 57.0342 0.925781Z" fill="#383D38"/>
  <path d="M47.6841 15.414C47.7261 15.3929 47.7682 15.373 47.8092 15.3541C48.5218 15.024 49.2439 14.715 49.9649 14.406C50.0038 14.406 50.0689 14.3608 50.1057 14.3461C50.1614 14.3219 50.2171 14.2988 50.2728 14.2746C50.38 14.2284 50.4873 14.1832 50.5934 14.1369C50.8078 14.0455 51.0212 13.9541 51.2356 13.8626L52.5189 13.3129C53.3745 12.9472 54.2311 12.5803 55.0866 12.2146C55.9422 11.8488 56.7988 11.482 57.6543 11.1162C58.5099 10.7505 59.3665 10.3837 60.222 10.0179C61.0776 9.65213 61.9342 9.28532 62.7898 8.91955C62.98 8.83757 63.186 8.71565 63.3899 8.67991C63.5612 8.64943 63.7283 8.59058 63.9007 8.55799C64.2276 8.49598 64.5881 8.47076 64.9013 8.60634C65.0095 8.65364 65.1094 8.71986 65.1924 8.80289C65.5897 9.19598 65.534 9.84132 65.4499 10.3942C64.8645 14.2473 64.2791 18.1015 63.6926 21.9546C63.6127 22.4833 63.5034 23.0635 63.0861 23.3977C62.733 23.6804 62.2306 23.712 61.7944 23.5922C61.3582 23.4713 60.9735 23.218 60.5962 22.9689C59.0312 21.9326 57.4651 20.8962 55.9001 19.8599C55.5281 19.6139 55.114 19.2923 55.1182 18.8456C55.1203 18.5766 55.2811 18.3369 55.445 18.1236C56.8051 16.3494 58.7674 15.1302 60.2273 13.438C60.4333 13.1994 60.5952 12.7685 60.3124 12.6308C60.1443 12.5488 59.9509 12.6602 59.7974 12.7664C57.8677 14.1065 55.939 15.4476 54.0093 16.7877C53.3797 17.2249 52.7197 17.6748 51.9608 17.782C51.2818 17.8787 50.5987 17.6895 49.9418 17.4961C49.391 17.3342 48.8413 17.1682 48.2937 16.9968C48.0026 16.9064 47.702 16.8087 47.477 16.6037C47.2521 16.3988 47.1229 16.054 47.2584 15.7808C47.3436 15.6095 47.5086 15.5012 47.682 15.4129L47.6841 15.414Z" fill="#FEFFFC"/>
  <path d="M99.0342 0.925781H98.9658C90.7004 0.925781 84 7.62622 84 15.8916V15.9599C84 24.2253 90.7004 30.9258 98.9658 30.9258H99.0342C107.3 30.9258 114 24.2253 114 15.9599V15.8916C114 7.62622 107.3 0.925781 99.0342 0.925781Z" fill="#383D38"/>
  <path d="M107.89 15.1312C107.487 10.5781 103.651 6.99609 98.9953 6.99609C94.0701 6.99609 90.0625 11.0037 90.0625 15.9268C90.0625 17.7346 90.6038 19.4194 91.5319 20.8268L90.4188 23.2936C90.1256 23.9421 90.6479 24.6631 91.3553 24.5885L95.4996 24.1471C96.5737 24.6053 97.7551 24.8586 98.9953 24.8586C99.3107 24.8586 99.6239 24.8418 99.9308 24.8103C100.215 24.7798 100.493 24.7367 100.768 24.682C104.831 23.8601 107.902 20.2718 107.926 15.9783V15.9268C107.926 15.6599 107.915 15.3918 107.89 15.1312ZM103.956 13.9162L102.081 16.8087L101.089 18.339C100.878 18.6648 100.433 18.7426 100.124 18.5071L98.4793 17.2606L97.465 16.4923C97.383 16.4303 97.2685 16.4324 97.1886 16.4975L94.6997 18.5282C94.2993 18.855 93.7517 18.3632 94.0323 17.9301L95.7886 15.2226L96.7808 13.6912C96.992 13.3654 97.4356 13.2876 97.7456 13.522L99.3422 14.7328L100.356 15.5001C100.438 15.5632 100.553 15.5611 100.633 15.4948L103.288 13.3181C103.688 12.9902 104.238 13.4821 103.956 13.9162Z" fill="white"/>
  <path d="M155.998 15.9263C155.998 23.5022 150.382 29.7654 143.087 30.7818C142.405 30.8764 141.707 30.9258 140.999 30.9258C140.181 30.9258 139.378 30.8606 138.596 30.7345C131.455 29.5846 126 23.3919 126 15.9263C126 7.64196 132.716 0.925781 141 0.925781C149.284 0.925781 156 7.64196 156 15.9263H155.998Z" fill="#383D38"/>
  <path d="M143.086 12.9687V16.2364H147.128L146.488 20.6382H143.086V30.7798C142.404 30.8744 141.706 30.9238 140.998 30.9238C140.18 30.9238 139.377 30.8586 138.595 30.7325V20.6382H134.867V16.2364H138.595V12.2383C138.595 9.7578 140.606 7.74609 143.087 7.74609V7.7482C143.094 7.7482 143.101 7.74609 143.108 7.74609H147.129V11.553H144.502C143.721 11.553 143.087 12.1868 143.087 12.9677L143.086 12.9687Z" fill="white"/>
  <path d="M183.034 0.925781H182.966C174.7 0.925781 168 7.62622 168 15.8916V15.9599C168 24.2253 174.7 30.9258 182.966 30.9258H183.034C191.3 30.9258 198 24.2253 198 15.9599V15.8916C198 7.62622 191.3 0.925781 183.034 0.925781Z" fill="#383D38"/>
  <path d="M187.637 7.02734H178.354C175.789 7.02734 173.703 9.11367 173.703 11.6782V20.1707C173.703 22.7352 175.789 24.8216 178.354 24.8216H187.637C190.201 24.8216 192.288 22.7352 192.288 20.1707V11.6782C192.288 9.11367 190.201 7.02734 187.637 7.02734ZM175.344 11.6782C175.344 10.0186 176.694 8.66802 178.354 8.66802H187.637C189.296 8.66802 190.647 10.0186 190.647 11.6782V20.1707C190.647 21.8303 189.296 23.1809 187.637 23.1809H178.354C176.694 23.1809 175.344 21.8303 175.344 20.1707V11.6782Z" fill="white"/>
  <path d="M182.998 20.2499C185.383 20.2499 187.324 18.3096 187.324 15.9238C187.324 13.5379 185.384 11.5977 182.998 11.5977C180.612 11.5977 178.672 13.5379 178.672 15.9238C178.672 18.3096 180.612 20.2499 182.998 20.2499ZM182.998 13.2394C184.479 13.2394 185.683 14.4439 185.683 15.9248C185.683 17.4057 184.479 18.6102 182.998 18.6102C181.517 18.6102 180.313 17.4057 180.313 15.9248C180.313 14.4439 181.517 13.2394 182.998 13.2394Z" fill="white"/>
  <path d="M187.728 12.2961C188.37 12.2961 188.894 11.7737 188.894 11.1305C188.894 10.4872 188.371 9.96484 187.728 9.96484C187.085 9.96484 186.562 10.4872 186.562 11.1305C186.562 11.7737 187.085 12.2961 187.728 12.2961Z" fill="white"/>
  <path d="M225.034 0.925781H224.966C216.7 0.925781 210 7.62622 210 15.8916V15.9599C210 24.2253 216.7 30.9258 224.966 30.9258H225.034C233.3 30.9258 240 24.2253 240 15.9599V15.8916C240 7.62622 233.3 0.925781 225.034 0.925781Z" fill="#383D38"/>
  <path d="M217.154 10.8994C216.759 10.5326 216.562 10.0786 216.562 9.53834C216.562 8.99811 216.76 8.52408 217.154 8.15622C217.549 7.7894 218.058 7.60547 218.681 7.60547C219.305 7.60547 219.793 7.7894 220.188 8.15622C220.583 8.52303 220.779 8.98444 220.779 9.53834C220.779 10.0922 220.582 10.5326 220.188 10.8994C219.792 11.2663 219.291 11.4502 218.681 11.4502C218.072 11.4502 217.549 11.2663 217.154 10.8994ZM220.447 13.0036V24.2498H216.894V13.0036H220.447Z" fill="#FEFFFC"/>
  <path d="M232.279 14.1128C233.053 14.9537 233.44 16.1077 233.44 17.5771V24.0494H230.065V18.0332C230.065 17.2922 229.873 16.7163 229.489 16.3063C229.105 15.8964 228.588 15.6904 227.941 15.6904C227.293 15.6904 226.776 15.8954 226.393 16.3063C226.009 16.7163 225.817 17.2922 225.817 18.0332V24.0494H222.422V12.9703H225.817V14.4397C226.16 13.9499 226.624 13.5631 227.206 13.2783C227.789 12.9935 228.443 12.8516 229.172 12.8516C230.469 12.8516 231.505 13.272 232.279 14.1118V14.1128Z" fill="#FEFFFC"/>
</svg>