<svg id="Layer_1" data-name="Layer 1" xmlns="http://www.w3.org/2000/svg" viewBox="0 0 30 30"><path id="shape" d="M15,28.79A13.78,13.78,0,0,1,1.21,15h0A13.78,13.78,0,0,1,15,1.21h0A13.78,13.78,0,0,1,28.79,15h0A13.78,13.78,0,0,1,15,28.79Z" fill="#383d38"/><path d="M6.64,14c5.23-2.31,12-5.12,13-5.51,2.45-1,3.2-.82,2.83,1.44-.27,1.62-1.05,7-1.67,10.32-.37,2-1.19,2.21-2.49,1.35-.62-.41-3.78-2.49-4.46-3s-1.48-1-.4-2c.38-.38,2.9-2.78,4.86-4.65a.29.29,0,0,0-.36-.46L11.12,16a2.71,2.71,0,0,1-2.6.35c-.92-.26-1.81-.58-2.16-.7C5,15.18,5.33,14.58,6.64,14Z" fill="#fff"/></svg>