<svg id="Layer_1" data-name="Layer 1" xmlns="http://www.w3.org/2000/svg" viewBox="0 0 30 30"><path id="shape" d="M15,28.79A13.79,13.79,0,0,1,1.15,15h0A13.79,13.79,0,0,1,15,1.21h0A13.78,13.78,0,0,1,28.74,15h0A13.78,13.78,0,0,1,15,28.79Z" fill="#383d38"/><path d="M21.25,8.66A8.85,8.85,0,0,0,6.13,14.92a8.72,8.72,0,0,0,1.18,4.43L6.05,23.94l4.7-1.24A8.78,8.78,0,0,0,15,23.78h0A8.86,8.86,0,0,0,21.25,8.66ZM15,22.29h0a7.31,7.31,0,0,1-3.74-1L11,21.1l-2.79.73.74-2.72-.17-.27A7.36,7.36,0,1,1,15,22.29Zm4-5.52c-.22-.11-1.31-.64-1.51-.72s-.35-.11-.5.11a10.15,10.15,0,0,1-.7.87c-.13.15-.26.17-.48.06A6.22,6.22,0,0,1,14.05,16a7,7,0,0,1-1.23-1.53c-.13-.23,0-.35.1-.46a4.51,4.51,0,0,0,.33-.38,1.39,1.39,0,0,0,.22-.37.38.38,0,0,0,0-.39c0-.11-.49-1.2-.68-1.64s-.36-.38-.5-.38h-.42a.82.82,0,0,0-.59.28A2.47,2.47,0,0,0,10.49,13a4.29,4.29,0,0,0,.9,2.29,9.85,9.85,0,0,0,3.78,3.34,12.24,12.24,0,0,0,1.26.47,3.13,3.13,0,0,0,1.4.09,2.32,2.32,0,0,0,1.49-1.06,1.94,1.94,0,0,0,.13-1c-.06-.09-.21-.14-.43-.26Z" fill="#fff" fill-rule="evenodd"/></svg>